%TF.GenerationSoftware,KiCad,Pcbnew,(5.1.2)-1*%
%TF.CreationDate,2019-05-20T11:29:43+09:00*%
%TF.ProjectId,12f683MPPT,31326636-3833-44d5-9050-542e6b696361,rev?*%
%TF.SameCoordinates,Original*%
%TF.FileFunction,Legend,Top*%
%TF.FilePolarity,Positive*%
%FSLAX46Y46*%
G04 Gerber Fmt 4.6, Leading zero omitted, Abs format (unit mm)*
G04 Created by KiCad (PCBNEW (5.1.2)-1) date 2019-05-20 11:29:43*
%MOMM*%
%LPD*%
G04 APERTURE LIST*
%ADD10C,0.150000*%
%ADD11C,0.120000*%
G04 APERTURE END LIST*
D10*
X133690000Y-73020000D02*
X126070000Y-73020000D01*
X133690000Y-83180000D02*
X126070000Y-83180000D01*
X133690000Y-83180000D02*
X133690000Y-73020000D01*
X126070000Y-73020000D02*
X126070000Y-83180000D01*
X44880000Y-56050000D02*
X44880000Y-45890000D01*
X37260000Y-45890000D02*
X37260000Y-56050000D01*
X37260000Y-45890000D02*
X44880000Y-45890000D01*
X37260000Y-56050000D02*
X44880000Y-56050000D01*
X109810000Y-30552000D02*
X115144000Y-30552000D01*
X109810000Y-30552000D02*
X104476000Y-30552000D01*
X104476000Y-31695000D02*
X104476000Y-30552000D01*
X115144000Y-30552000D02*
X115144000Y-31695000D01*
X104476000Y-35378000D02*
X104476000Y-31695000D01*
X115144000Y-31695000D02*
X115144000Y-35378000D01*
X111334000Y-30552000D02*
X111334000Y-31695000D01*
X108286000Y-30552000D02*
X108286000Y-31695000D01*
X115144000Y-35378000D02*
X113493000Y-35378000D01*
X111334000Y-35505000D02*
X110699000Y-35505000D01*
X108794000Y-35505000D02*
X108159000Y-35505000D01*
X104476000Y-35378000D02*
X106127000Y-35378000D01*
X104476000Y-31695000D02*
X106254000Y-31695000D01*
X108286000Y-31695000D02*
X108921000Y-31695000D01*
X108286000Y-31695000D02*
X108159000Y-31695000D01*
X110699000Y-31695000D02*
X111461000Y-31695000D01*
X115144000Y-31695000D02*
X113239000Y-31695000D01*
X84060000Y-95608000D02*
X78726000Y-95608000D01*
X84060000Y-95608000D02*
X89394000Y-95608000D01*
X89394000Y-94465000D02*
X89394000Y-95608000D01*
X78726000Y-95608000D02*
X78726000Y-94465000D01*
X89394000Y-90782000D02*
X89394000Y-94465000D01*
X78726000Y-94465000D02*
X78726000Y-90782000D01*
X82536000Y-95608000D02*
X82536000Y-94465000D01*
X85584000Y-95608000D02*
X85584000Y-94465000D01*
X78726000Y-90782000D02*
X80377000Y-90782000D01*
X82536000Y-90655000D02*
X83171000Y-90655000D01*
X85076000Y-90655000D02*
X85711000Y-90655000D01*
X89394000Y-90782000D02*
X87743000Y-90782000D01*
X89394000Y-94465000D02*
X87616000Y-94465000D01*
X85584000Y-94465000D02*
X84949000Y-94465000D01*
X85584000Y-94465000D02*
X85711000Y-94465000D01*
X83171000Y-94465000D02*
X82409000Y-94465000D01*
X78726000Y-94465000D02*
X80631000Y-94465000D01*
D11*
X57780000Y-37390000D02*
X57780000Y-32070000D01*
X57780000Y-32070000D02*
X48160000Y-32070000D01*
X48160000Y-32070000D02*
X48160000Y-37390000D01*
X48160000Y-37390000D02*
X57780000Y-37390000D01*
X58810000Y-34730000D02*
X57780000Y-34730000D01*
X47130000Y-34730000D02*
X48160000Y-34730000D01*
X56295000Y-37390000D02*
X56295000Y-32070000D01*
X124010000Y-47585000D02*
X129330000Y-47585000D01*
X126670000Y-38420000D02*
X126670000Y-39450000D01*
X126670000Y-50100000D02*
X126670000Y-49070000D01*
X124010000Y-39450000D02*
X124010000Y-49070000D01*
X129330000Y-39450000D02*
X124010000Y-39450000D01*
X129330000Y-49070000D02*
X129330000Y-39450000D01*
X124010000Y-49070000D02*
X129330000Y-49070000D01*
X112680000Y-81740000D02*
X107360000Y-81740000D01*
X107360000Y-81740000D02*
X107360000Y-91360000D01*
X107360000Y-91360000D02*
X112680000Y-91360000D01*
X112680000Y-91360000D02*
X112680000Y-81740000D01*
X110020000Y-80710000D02*
X110020000Y-81740000D01*
X110020000Y-92390000D02*
X110020000Y-91360000D01*
X112680000Y-83225000D02*
X107360000Y-83225000D01*
X126880000Y-90030000D02*
G75*
G03X126880000Y-90030000I-6340000J0D01*
G01*
X126840000Y-90030000D02*
X114240000Y-90030000D01*
X126840000Y-90070000D02*
X114240000Y-90070000D01*
X126840000Y-90110000D02*
X114240000Y-90110000D01*
X126839000Y-90150000D02*
X114241000Y-90150000D01*
X126838000Y-90190000D02*
X114242000Y-90190000D01*
X126837000Y-90230000D02*
X114243000Y-90230000D01*
X126836000Y-90270000D02*
X114244000Y-90270000D01*
X126834000Y-90310000D02*
X114246000Y-90310000D01*
X126832000Y-90350000D02*
X114248000Y-90350000D01*
X126830000Y-90390000D02*
X114250000Y-90390000D01*
X126828000Y-90430000D02*
X114252000Y-90430000D01*
X126825000Y-90470000D02*
X114255000Y-90470000D01*
X126822000Y-90510000D02*
X114258000Y-90510000D01*
X126819000Y-90550000D02*
X114261000Y-90550000D01*
X126816000Y-90590000D02*
X114264000Y-90590000D01*
X126812000Y-90630000D02*
X114268000Y-90630000D01*
X126808000Y-90670000D02*
X114272000Y-90670000D01*
X126804000Y-90710000D02*
X114276000Y-90710000D01*
X126799000Y-90751000D02*
X114281000Y-90751000D01*
X126795000Y-90791000D02*
X114285000Y-90791000D01*
X126790000Y-90831000D02*
X114290000Y-90831000D01*
X126785000Y-90871000D02*
X114295000Y-90871000D01*
X126779000Y-90911000D02*
X114301000Y-90911000D01*
X126773000Y-90951000D02*
X114307000Y-90951000D01*
X126767000Y-90991000D02*
X114313000Y-90991000D01*
X126761000Y-91031000D02*
X114319000Y-91031000D01*
X126755000Y-91071000D02*
X114325000Y-91071000D01*
X126748000Y-91111000D02*
X114332000Y-91111000D01*
X126741000Y-91151000D02*
X121920000Y-91151000D01*
X119160000Y-91151000D02*
X114339000Y-91151000D01*
X126733000Y-91191000D02*
X121920000Y-91191000D01*
X119160000Y-91191000D02*
X114347000Y-91191000D01*
X126726000Y-91231000D02*
X121920000Y-91231000D01*
X119160000Y-91231000D02*
X114354000Y-91231000D01*
X126718000Y-91271000D02*
X121920000Y-91271000D01*
X119160000Y-91271000D02*
X114362000Y-91271000D01*
X126710000Y-91311000D02*
X121920000Y-91311000D01*
X119160000Y-91311000D02*
X114370000Y-91311000D01*
X126702000Y-91351000D02*
X121920000Y-91351000D01*
X119160000Y-91351000D02*
X114378000Y-91351000D01*
X126693000Y-91391000D02*
X121920000Y-91391000D01*
X119160000Y-91391000D02*
X114387000Y-91391000D01*
X126684000Y-91431000D02*
X121920000Y-91431000D01*
X119160000Y-91431000D02*
X114396000Y-91431000D01*
X126675000Y-91471000D02*
X121920000Y-91471000D01*
X119160000Y-91471000D02*
X114405000Y-91471000D01*
X126665000Y-91511000D02*
X121920000Y-91511000D01*
X119160000Y-91511000D02*
X114415000Y-91511000D01*
X126656000Y-91551000D02*
X121920000Y-91551000D01*
X119160000Y-91551000D02*
X114424000Y-91551000D01*
X126646000Y-91591000D02*
X121920000Y-91591000D01*
X119160000Y-91591000D02*
X114434000Y-91591000D01*
X126635000Y-91631000D02*
X121920000Y-91631000D01*
X119160000Y-91631000D02*
X114445000Y-91631000D01*
X126625000Y-91671000D02*
X121920000Y-91671000D01*
X119160000Y-91671000D02*
X114455000Y-91671000D01*
X126614000Y-91711000D02*
X121920000Y-91711000D01*
X119160000Y-91711000D02*
X114466000Y-91711000D01*
X126603000Y-91751000D02*
X121920000Y-91751000D01*
X119160000Y-91751000D02*
X114477000Y-91751000D01*
X126591000Y-91791000D02*
X121920000Y-91791000D01*
X119160000Y-91791000D02*
X114489000Y-91791000D01*
X126580000Y-91831000D02*
X121920000Y-91831000D01*
X119160000Y-91831000D02*
X114500000Y-91831000D01*
X126568000Y-91871000D02*
X121920000Y-91871000D01*
X119160000Y-91871000D02*
X114512000Y-91871000D01*
X126555000Y-91911000D02*
X121920000Y-91911000D01*
X119160000Y-91911000D02*
X114525000Y-91911000D01*
X126543000Y-91951000D02*
X121920000Y-91951000D01*
X119160000Y-91951000D02*
X114537000Y-91951000D01*
X126530000Y-91991000D02*
X121920000Y-91991000D01*
X119160000Y-91991000D02*
X114550000Y-91991000D01*
X126517000Y-92031000D02*
X121920000Y-92031000D01*
X119160000Y-92031000D02*
X114563000Y-92031000D01*
X126503000Y-92071000D02*
X121920000Y-92071000D01*
X119160000Y-92071000D02*
X114577000Y-92071000D01*
X126490000Y-92111000D02*
X121920000Y-92111000D01*
X119160000Y-92111000D02*
X114590000Y-92111000D01*
X126476000Y-92151000D02*
X121920000Y-92151000D01*
X119160000Y-92151000D02*
X114604000Y-92151000D01*
X126461000Y-92191000D02*
X121920000Y-92191000D01*
X119160000Y-92191000D02*
X114619000Y-92191000D01*
X126447000Y-92231000D02*
X121920000Y-92231000D01*
X119160000Y-92231000D02*
X114633000Y-92231000D01*
X126432000Y-92271000D02*
X121920000Y-92271000D01*
X119160000Y-92271000D02*
X114648000Y-92271000D01*
X126416000Y-92311000D02*
X121920000Y-92311000D01*
X119160000Y-92311000D02*
X114664000Y-92311000D01*
X126401000Y-92351000D02*
X121920000Y-92351000D01*
X119160000Y-92351000D02*
X114679000Y-92351000D01*
X126385000Y-92391000D02*
X121920000Y-92391000D01*
X119160000Y-92391000D02*
X114695000Y-92391000D01*
X126369000Y-92431000D02*
X121920000Y-92431000D01*
X119160000Y-92431000D02*
X114711000Y-92431000D01*
X126352000Y-92471000D02*
X121920000Y-92471000D01*
X119160000Y-92471000D02*
X114728000Y-92471000D01*
X126335000Y-92511000D02*
X121920000Y-92511000D01*
X119160000Y-92511000D02*
X114745000Y-92511000D01*
X126318000Y-92551000D02*
X121920000Y-92551000D01*
X119160000Y-92551000D02*
X114762000Y-92551000D01*
X126301000Y-92591000D02*
X121920000Y-92591000D01*
X119160000Y-92591000D02*
X114779000Y-92591000D01*
X126283000Y-92631000D02*
X121920000Y-92631000D01*
X119160000Y-92631000D02*
X114797000Y-92631000D01*
X126265000Y-92671000D02*
X121920000Y-92671000D01*
X119160000Y-92671000D02*
X114815000Y-92671000D01*
X126246000Y-92711000D02*
X121920000Y-92711000D01*
X119160000Y-92711000D02*
X114834000Y-92711000D01*
X126227000Y-92751000D02*
X121920000Y-92751000D01*
X119160000Y-92751000D02*
X114853000Y-92751000D01*
X126208000Y-92791000D02*
X121920000Y-92791000D01*
X119160000Y-92791000D02*
X114872000Y-92791000D01*
X126189000Y-92831000D02*
X121920000Y-92831000D01*
X119160000Y-92831000D02*
X114891000Y-92831000D01*
X126169000Y-92871000D02*
X121920000Y-92871000D01*
X119160000Y-92871000D02*
X114911000Y-92871000D01*
X126149000Y-92911000D02*
X121920000Y-92911000D01*
X119160000Y-92911000D02*
X114931000Y-92911000D01*
X126128000Y-92951000D02*
X121920000Y-92951000D01*
X119160000Y-92951000D02*
X114952000Y-92951000D01*
X126107000Y-92991000D02*
X121920000Y-92991000D01*
X119160000Y-92991000D02*
X114973000Y-92991000D01*
X126086000Y-93031000D02*
X121920000Y-93031000D01*
X119160000Y-93031000D02*
X114994000Y-93031000D01*
X126064000Y-93071000D02*
X121920000Y-93071000D01*
X119160000Y-93071000D02*
X115016000Y-93071000D01*
X126042000Y-93111000D02*
X121920000Y-93111000D01*
X119160000Y-93111000D02*
X115038000Y-93111000D01*
X126020000Y-93151000D02*
X121920000Y-93151000D01*
X119160000Y-93151000D02*
X115060000Y-93151000D01*
X125997000Y-93191000D02*
X121920000Y-93191000D01*
X119160000Y-93191000D02*
X115083000Y-93191000D01*
X125974000Y-93231000D02*
X121920000Y-93231000D01*
X119160000Y-93231000D02*
X115106000Y-93231000D01*
X125950000Y-93271000D02*
X121920000Y-93271000D01*
X119160000Y-93271000D02*
X115130000Y-93271000D01*
X125926000Y-93311000D02*
X121920000Y-93311000D01*
X119160000Y-93311000D02*
X115154000Y-93311000D01*
X125902000Y-93351000D02*
X121920000Y-93351000D01*
X119160000Y-93351000D02*
X115178000Y-93351000D01*
X125877000Y-93391000D02*
X121920000Y-93391000D01*
X119160000Y-93391000D02*
X115203000Y-93391000D01*
X125852000Y-93431000D02*
X121920000Y-93431000D01*
X119160000Y-93431000D02*
X115228000Y-93431000D01*
X125826000Y-93471000D02*
X121920000Y-93471000D01*
X119160000Y-93471000D02*
X115254000Y-93471000D01*
X125800000Y-93511000D02*
X121920000Y-93511000D01*
X119160000Y-93511000D02*
X115280000Y-93511000D01*
X125774000Y-93551000D02*
X121920000Y-93551000D01*
X119160000Y-93551000D02*
X115306000Y-93551000D01*
X125747000Y-93591000D02*
X121920000Y-93591000D01*
X119160000Y-93591000D02*
X115333000Y-93591000D01*
X125719000Y-93631000D02*
X121920000Y-93631000D01*
X119160000Y-93631000D02*
X115361000Y-93631000D01*
X125691000Y-93671000D02*
X121920000Y-93671000D01*
X119160000Y-93671000D02*
X115389000Y-93671000D01*
X125663000Y-93711000D02*
X121920000Y-93711000D01*
X119160000Y-93711000D02*
X115417000Y-93711000D01*
X125634000Y-93751000D02*
X121920000Y-93751000D01*
X119160000Y-93751000D02*
X115446000Y-93751000D01*
X125605000Y-93791000D02*
X121920000Y-93791000D01*
X119160000Y-93791000D02*
X115475000Y-93791000D01*
X125575000Y-93831000D02*
X121920000Y-93831000D01*
X119160000Y-93831000D02*
X115505000Y-93831000D01*
X125545000Y-93871000D02*
X121920000Y-93871000D01*
X119160000Y-93871000D02*
X115535000Y-93871000D01*
X125515000Y-93911000D02*
X115565000Y-93911000D01*
X125483000Y-93951000D02*
X115597000Y-93951000D01*
X125452000Y-93991000D02*
X115628000Y-93991000D01*
X125419000Y-94031000D02*
X115661000Y-94031000D01*
X125387000Y-94071000D02*
X115693000Y-94071000D01*
X125353000Y-94111000D02*
X115727000Y-94111000D01*
X125319000Y-94151000D02*
X115761000Y-94151000D01*
X125285000Y-94191000D02*
X115795000Y-94191000D01*
X125250000Y-94231000D02*
X115830000Y-94231000D01*
X125214000Y-94271000D02*
X115866000Y-94271000D01*
X125178000Y-94311000D02*
X115902000Y-94311000D01*
X125141000Y-94351000D02*
X115939000Y-94351000D01*
X125103000Y-94391000D02*
X115977000Y-94391000D01*
X125065000Y-94431000D02*
X116015000Y-94431000D01*
X125026000Y-94471000D02*
X116054000Y-94471000D01*
X124987000Y-94511000D02*
X116093000Y-94511000D01*
X124946000Y-94551000D02*
X116134000Y-94551000D01*
X124905000Y-94591000D02*
X116175000Y-94591000D01*
X124863000Y-94631000D02*
X116217000Y-94631000D01*
X124821000Y-94671000D02*
X116259000Y-94671000D01*
X124778000Y-94711000D02*
X116302000Y-94711000D01*
X124733000Y-94751000D02*
X116347000Y-94751000D01*
X124688000Y-94791000D02*
X116392000Y-94791000D01*
X124642000Y-94831000D02*
X116438000Y-94831000D01*
X124596000Y-94871000D02*
X116484000Y-94871000D01*
X124548000Y-94911000D02*
X116532000Y-94911000D01*
X124499000Y-94951000D02*
X116581000Y-94951000D01*
X124449000Y-94991000D02*
X116631000Y-94991000D01*
X124399000Y-95031000D02*
X116681000Y-95031000D01*
X124347000Y-95071000D02*
X116733000Y-95071000D01*
X124294000Y-95111000D02*
X116786000Y-95111000D01*
X124240000Y-95151000D02*
X116840000Y-95151000D01*
X124184000Y-95191000D02*
X116896000Y-95191000D01*
X124128000Y-95231000D02*
X116952000Y-95231000D01*
X124070000Y-95271000D02*
X117010000Y-95271000D01*
X124010000Y-95311000D02*
X117070000Y-95311000D01*
X123949000Y-95351000D02*
X117131000Y-95351000D01*
X123887000Y-95391000D02*
X117193000Y-95391000D01*
X123822000Y-95431000D02*
X117258000Y-95431000D01*
X123757000Y-95471000D02*
X117323000Y-95471000D01*
X123689000Y-95511000D02*
X117391000Y-95511000D01*
X123619000Y-95551000D02*
X117461000Y-95551000D01*
X123547000Y-95591000D02*
X117533000Y-95591000D01*
X123473000Y-95631000D02*
X117607000Y-95631000D01*
X123396000Y-95671000D02*
X117684000Y-95671000D01*
X123317000Y-95711000D02*
X117763000Y-95711000D01*
X123235000Y-95751000D02*
X117845000Y-95751000D01*
X123150000Y-95791000D02*
X117930000Y-95791000D01*
X123061000Y-95831000D02*
X118019000Y-95831000D01*
X122968000Y-95871000D02*
X118112000Y-95871000D01*
X122871000Y-95911000D02*
X118209000Y-95911000D01*
X122770000Y-95951000D02*
X118310000Y-95951000D01*
X122662000Y-95991000D02*
X118418000Y-95991000D01*
X122549000Y-96031000D02*
X118531000Y-96031000D01*
X122428000Y-96071000D02*
X118652000Y-96071000D01*
X122297000Y-96111000D02*
X118783000Y-96111000D01*
X122156000Y-96151000D02*
X118924000Y-96151000D01*
X122000000Y-96191000D02*
X119080000Y-96191000D01*
X121825000Y-96231000D02*
X119255000Y-96231000D01*
X121622000Y-96271000D02*
X119458000Y-96271000D01*
X121371000Y-96311000D02*
X119709000Y-96311000D01*
X121004000Y-96351000D02*
X120076000Y-96351000D01*
X120540000Y-84330000D02*
X120540000Y-86130000D01*
X121440000Y-85230000D02*
X119640000Y-85230000D01*
X105100000Y-52190000D02*
X105100000Y-53990000D01*
X104200000Y-53090000D02*
X106000000Y-53090000D01*
X116221000Y-52626000D02*
X116221000Y-53554000D01*
X116181000Y-52259000D02*
X116181000Y-53921000D01*
X116141000Y-52008000D02*
X116141000Y-54172000D01*
X116101000Y-51805000D02*
X116101000Y-54375000D01*
X116061000Y-51630000D02*
X116061000Y-54550000D01*
X116021000Y-51474000D02*
X116021000Y-54706000D01*
X115981000Y-51333000D02*
X115981000Y-54847000D01*
X115941000Y-51202000D02*
X115941000Y-54978000D01*
X115901000Y-51081000D02*
X115901000Y-55099000D01*
X115861000Y-50968000D02*
X115861000Y-55212000D01*
X115821000Y-50860000D02*
X115821000Y-55320000D01*
X115781000Y-50759000D02*
X115781000Y-55421000D01*
X115741000Y-50662000D02*
X115741000Y-55518000D01*
X115701000Y-50569000D02*
X115701000Y-55611000D01*
X115661000Y-50480000D02*
X115661000Y-55700000D01*
X115621000Y-50395000D02*
X115621000Y-55785000D01*
X115581000Y-50313000D02*
X115581000Y-55867000D01*
X115541000Y-50234000D02*
X115541000Y-55946000D01*
X115501000Y-50157000D02*
X115501000Y-56023000D01*
X115461000Y-50083000D02*
X115461000Y-56097000D01*
X115421000Y-50011000D02*
X115421000Y-56169000D01*
X115381000Y-49941000D02*
X115381000Y-56239000D01*
X115341000Y-49873000D02*
X115341000Y-56307000D01*
X115301000Y-49808000D02*
X115301000Y-56372000D01*
X115261000Y-49743000D02*
X115261000Y-56437000D01*
X115221000Y-49681000D02*
X115221000Y-56499000D01*
X115181000Y-49620000D02*
X115181000Y-56560000D01*
X115141000Y-49560000D02*
X115141000Y-56620000D01*
X115101000Y-49502000D02*
X115101000Y-56678000D01*
X115061000Y-49446000D02*
X115061000Y-56734000D01*
X115021000Y-49390000D02*
X115021000Y-56790000D01*
X114981000Y-49336000D02*
X114981000Y-56844000D01*
X114941000Y-49283000D02*
X114941000Y-56897000D01*
X114901000Y-49231000D02*
X114901000Y-56949000D01*
X114861000Y-49181000D02*
X114861000Y-56999000D01*
X114821000Y-49131000D02*
X114821000Y-57049000D01*
X114781000Y-49082000D02*
X114781000Y-57098000D01*
X114741000Y-49034000D02*
X114741000Y-57146000D01*
X114701000Y-48988000D02*
X114701000Y-57192000D01*
X114661000Y-48942000D02*
X114661000Y-57238000D01*
X114621000Y-48897000D02*
X114621000Y-57283000D01*
X114581000Y-48852000D02*
X114581000Y-57328000D01*
X114541000Y-48809000D02*
X114541000Y-57371000D01*
X114501000Y-48767000D02*
X114501000Y-57413000D01*
X114461000Y-48725000D02*
X114461000Y-57455000D01*
X114421000Y-48684000D02*
X114421000Y-57496000D01*
X114381000Y-48643000D02*
X114381000Y-57537000D01*
X114341000Y-48604000D02*
X114341000Y-57576000D01*
X114301000Y-48565000D02*
X114301000Y-57615000D01*
X114261000Y-48527000D02*
X114261000Y-57653000D01*
X114221000Y-48489000D02*
X114221000Y-57691000D01*
X114181000Y-48452000D02*
X114181000Y-57728000D01*
X114141000Y-48416000D02*
X114141000Y-57764000D01*
X114101000Y-48380000D02*
X114101000Y-57800000D01*
X114061000Y-48345000D02*
X114061000Y-57835000D01*
X114021000Y-48311000D02*
X114021000Y-57869000D01*
X113981000Y-48277000D02*
X113981000Y-57903000D01*
X113941000Y-48243000D02*
X113941000Y-57937000D01*
X113901000Y-48211000D02*
X113901000Y-57969000D01*
X113861000Y-48178000D02*
X113861000Y-58002000D01*
X113821000Y-48147000D02*
X113821000Y-58033000D01*
X113781000Y-48115000D02*
X113781000Y-58065000D01*
X113741000Y-54470000D02*
X113741000Y-58095000D01*
X113741000Y-48085000D02*
X113741000Y-51710000D01*
X113701000Y-54470000D02*
X113701000Y-58125000D01*
X113701000Y-48055000D02*
X113701000Y-51710000D01*
X113661000Y-54470000D02*
X113661000Y-58155000D01*
X113661000Y-48025000D02*
X113661000Y-51710000D01*
X113621000Y-54470000D02*
X113621000Y-58184000D01*
X113621000Y-47996000D02*
X113621000Y-51710000D01*
X113581000Y-54470000D02*
X113581000Y-58213000D01*
X113581000Y-47967000D02*
X113581000Y-51710000D01*
X113541000Y-54470000D02*
X113541000Y-58241000D01*
X113541000Y-47939000D02*
X113541000Y-51710000D01*
X113501000Y-54470000D02*
X113501000Y-58269000D01*
X113501000Y-47911000D02*
X113501000Y-51710000D01*
X113461000Y-54470000D02*
X113461000Y-58297000D01*
X113461000Y-47883000D02*
X113461000Y-51710000D01*
X113421000Y-54470000D02*
X113421000Y-58324000D01*
X113421000Y-47856000D02*
X113421000Y-51710000D01*
X113381000Y-54470000D02*
X113381000Y-58350000D01*
X113381000Y-47830000D02*
X113381000Y-51710000D01*
X113341000Y-54470000D02*
X113341000Y-58376000D01*
X113341000Y-47804000D02*
X113341000Y-51710000D01*
X113301000Y-54470000D02*
X113301000Y-58402000D01*
X113301000Y-47778000D02*
X113301000Y-51710000D01*
X113261000Y-54470000D02*
X113261000Y-58427000D01*
X113261000Y-47753000D02*
X113261000Y-51710000D01*
X113221000Y-54470000D02*
X113221000Y-58452000D01*
X113221000Y-47728000D02*
X113221000Y-51710000D01*
X113181000Y-54470000D02*
X113181000Y-58476000D01*
X113181000Y-47704000D02*
X113181000Y-51710000D01*
X113141000Y-54470000D02*
X113141000Y-58500000D01*
X113141000Y-47680000D02*
X113141000Y-51710000D01*
X113101000Y-54470000D02*
X113101000Y-58524000D01*
X113101000Y-47656000D02*
X113101000Y-51710000D01*
X113061000Y-54470000D02*
X113061000Y-58547000D01*
X113061000Y-47633000D02*
X113061000Y-51710000D01*
X113021000Y-54470000D02*
X113021000Y-58570000D01*
X113021000Y-47610000D02*
X113021000Y-51710000D01*
X112981000Y-54470000D02*
X112981000Y-58592000D01*
X112981000Y-47588000D02*
X112981000Y-51710000D01*
X112941000Y-54470000D02*
X112941000Y-58614000D01*
X112941000Y-47566000D02*
X112941000Y-51710000D01*
X112901000Y-54470000D02*
X112901000Y-58636000D01*
X112901000Y-47544000D02*
X112901000Y-51710000D01*
X112861000Y-54470000D02*
X112861000Y-58657000D01*
X112861000Y-47523000D02*
X112861000Y-51710000D01*
X112821000Y-54470000D02*
X112821000Y-58678000D01*
X112821000Y-47502000D02*
X112821000Y-51710000D01*
X112781000Y-54470000D02*
X112781000Y-58699000D01*
X112781000Y-47481000D02*
X112781000Y-51710000D01*
X112741000Y-54470000D02*
X112741000Y-58719000D01*
X112741000Y-47461000D02*
X112741000Y-51710000D01*
X112701000Y-54470000D02*
X112701000Y-58739000D01*
X112701000Y-47441000D02*
X112701000Y-51710000D01*
X112661000Y-54470000D02*
X112661000Y-58758000D01*
X112661000Y-47422000D02*
X112661000Y-51710000D01*
X112621000Y-54470000D02*
X112621000Y-58777000D01*
X112621000Y-47403000D02*
X112621000Y-51710000D01*
X112581000Y-54470000D02*
X112581000Y-58796000D01*
X112581000Y-47384000D02*
X112581000Y-51710000D01*
X112541000Y-54470000D02*
X112541000Y-58815000D01*
X112541000Y-47365000D02*
X112541000Y-51710000D01*
X112501000Y-54470000D02*
X112501000Y-58833000D01*
X112501000Y-47347000D02*
X112501000Y-51710000D01*
X112461000Y-54470000D02*
X112461000Y-58851000D01*
X112461000Y-47329000D02*
X112461000Y-51710000D01*
X112421000Y-54470000D02*
X112421000Y-58868000D01*
X112421000Y-47312000D02*
X112421000Y-51710000D01*
X112381000Y-54470000D02*
X112381000Y-58885000D01*
X112381000Y-47295000D02*
X112381000Y-51710000D01*
X112341000Y-54470000D02*
X112341000Y-58902000D01*
X112341000Y-47278000D02*
X112341000Y-51710000D01*
X112301000Y-54470000D02*
X112301000Y-58919000D01*
X112301000Y-47261000D02*
X112301000Y-51710000D01*
X112261000Y-54470000D02*
X112261000Y-58935000D01*
X112261000Y-47245000D02*
X112261000Y-51710000D01*
X112221000Y-54470000D02*
X112221000Y-58951000D01*
X112221000Y-47229000D02*
X112221000Y-51710000D01*
X112181000Y-54470000D02*
X112181000Y-58966000D01*
X112181000Y-47214000D02*
X112181000Y-51710000D01*
X112141000Y-54470000D02*
X112141000Y-58982000D01*
X112141000Y-47198000D02*
X112141000Y-51710000D01*
X112101000Y-54470000D02*
X112101000Y-58997000D01*
X112101000Y-47183000D02*
X112101000Y-51710000D01*
X112061000Y-54470000D02*
X112061000Y-59011000D01*
X112061000Y-47169000D02*
X112061000Y-51710000D01*
X112021000Y-54470000D02*
X112021000Y-59026000D01*
X112021000Y-47154000D02*
X112021000Y-51710000D01*
X111981000Y-54470000D02*
X111981000Y-59040000D01*
X111981000Y-47140000D02*
X111981000Y-51710000D01*
X111941000Y-54470000D02*
X111941000Y-59053000D01*
X111941000Y-47127000D02*
X111941000Y-51710000D01*
X111901000Y-54470000D02*
X111901000Y-59067000D01*
X111901000Y-47113000D02*
X111901000Y-51710000D01*
X111861000Y-54470000D02*
X111861000Y-59080000D01*
X111861000Y-47100000D02*
X111861000Y-51710000D01*
X111821000Y-54470000D02*
X111821000Y-59093000D01*
X111821000Y-47087000D02*
X111821000Y-51710000D01*
X111781000Y-54470000D02*
X111781000Y-59105000D01*
X111781000Y-47075000D02*
X111781000Y-51710000D01*
X111741000Y-54470000D02*
X111741000Y-59118000D01*
X111741000Y-47062000D02*
X111741000Y-51710000D01*
X111701000Y-54470000D02*
X111701000Y-59130000D01*
X111701000Y-47050000D02*
X111701000Y-51710000D01*
X111661000Y-54470000D02*
X111661000Y-59141000D01*
X111661000Y-47039000D02*
X111661000Y-51710000D01*
X111621000Y-54470000D02*
X111621000Y-59153000D01*
X111621000Y-47027000D02*
X111621000Y-51710000D01*
X111581000Y-54470000D02*
X111581000Y-59164000D01*
X111581000Y-47016000D02*
X111581000Y-51710000D01*
X111541000Y-54470000D02*
X111541000Y-59175000D01*
X111541000Y-47005000D02*
X111541000Y-51710000D01*
X111501000Y-54470000D02*
X111501000Y-59185000D01*
X111501000Y-46995000D02*
X111501000Y-51710000D01*
X111461000Y-54470000D02*
X111461000Y-59196000D01*
X111461000Y-46984000D02*
X111461000Y-51710000D01*
X111421000Y-54470000D02*
X111421000Y-59206000D01*
X111421000Y-46974000D02*
X111421000Y-51710000D01*
X111381000Y-54470000D02*
X111381000Y-59215000D01*
X111381000Y-46965000D02*
X111381000Y-51710000D01*
X111341000Y-54470000D02*
X111341000Y-59225000D01*
X111341000Y-46955000D02*
X111341000Y-51710000D01*
X111301000Y-54470000D02*
X111301000Y-59234000D01*
X111301000Y-46946000D02*
X111301000Y-51710000D01*
X111261000Y-54470000D02*
X111261000Y-59243000D01*
X111261000Y-46937000D02*
X111261000Y-51710000D01*
X111221000Y-54470000D02*
X111221000Y-59252000D01*
X111221000Y-46928000D02*
X111221000Y-51710000D01*
X111181000Y-54470000D02*
X111181000Y-59260000D01*
X111181000Y-46920000D02*
X111181000Y-51710000D01*
X111141000Y-54470000D02*
X111141000Y-59268000D01*
X111141000Y-46912000D02*
X111141000Y-51710000D01*
X111101000Y-54470000D02*
X111101000Y-59276000D01*
X111101000Y-46904000D02*
X111101000Y-51710000D01*
X111061000Y-54470000D02*
X111061000Y-59283000D01*
X111061000Y-46897000D02*
X111061000Y-51710000D01*
X111021000Y-54470000D02*
X111021000Y-59291000D01*
X111021000Y-46889000D02*
X111021000Y-51710000D01*
X110981000Y-46882000D02*
X110981000Y-59298000D01*
X110941000Y-46875000D02*
X110941000Y-59305000D01*
X110901000Y-46869000D02*
X110901000Y-59311000D01*
X110861000Y-46863000D02*
X110861000Y-59317000D01*
X110821000Y-46857000D02*
X110821000Y-59323000D01*
X110781000Y-46851000D02*
X110781000Y-59329000D01*
X110741000Y-46845000D02*
X110741000Y-59335000D01*
X110701000Y-46840000D02*
X110701000Y-59340000D01*
X110661000Y-46835000D02*
X110661000Y-59345000D01*
X110621000Y-46831000D02*
X110621000Y-59349000D01*
X110580000Y-46826000D02*
X110580000Y-59354000D01*
X110540000Y-46822000D02*
X110540000Y-59358000D01*
X110500000Y-46818000D02*
X110500000Y-59362000D01*
X110460000Y-46814000D02*
X110460000Y-59366000D01*
X110420000Y-46811000D02*
X110420000Y-59369000D01*
X110380000Y-46808000D02*
X110380000Y-59372000D01*
X110340000Y-46805000D02*
X110340000Y-59375000D01*
X110300000Y-46802000D02*
X110300000Y-59378000D01*
X110260000Y-46800000D02*
X110260000Y-59380000D01*
X110220000Y-46798000D02*
X110220000Y-59382000D01*
X110180000Y-46796000D02*
X110180000Y-59384000D01*
X110140000Y-46794000D02*
X110140000Y-59386000D01*
X110100000Y-46793000D02*
X110100000Y-59387000D01*
X110060000Y-46792000D02*
X110060000Y-59388000D01*
X110020000Y-46791000D02*
X110020000Y-59389000D01*
X109980000Y-46790000D02*
X109980000Y-59390000D01*
X109940000Y-46790000D02*
X109940000Y-59390000D01*
X109900000Y-46790000D02*
X109900000Y-59390000D01*
X116240000Y-53090000D02*
G75*
G03X116240000Y-53090000I-6340000J0D01*
G01*
X68930000Y-54240000D02*
X70730000Y-54240000D01*
X69830000Y-55140000D02*
X69830000Y-53340000D01*
X69366000Y-43119000D02*
X70294000Y-43119000D01*
X68999000Y-43159000D02*
X70661000Y-43159000D01*
X68748000Y-43199000D02*
X70912000Y-43199000D01*
X68545000Y-43239000D02*
X71115000Y-43239000D01*
X68370000Y-43279000D02*
X71290000Y-43279000D01*
X68214000Y-43319000D02*
X71446000Y-43319000D01*
X68073000Y-43359000D02*
X71587000Y-43359000D01*
X67942000Y-43399000D02*
X71718000Y-43399000D01*
X67821000Y-43439000D02*
X71839000Y-43439000D01*
X67708000Y-43479000D02*
X71952000Y-43479000D01*
X67600000Y-43519000D02*
X72060000Y-43519000D01*
X67499000Y-43559000D02*
X72161000Y-43559000D01*
X67402000Y-43599000D02*
X72258000Y-43599000D01*
X67309000Y-43639000D02*
X72351000Y-43639000D01*
X67220000Y-43679000D02*
X72440000Y-43679000D01*
X67135000Y-43719000D02*
X72525000Y-43719000D01*
X67053000Y-43759000D02*
X72607000Y-43759000D01*
X66974000Y-43799000D02*
X72686000Y-43799000D01*
X66897000Y-43839000D02*
X72763000Y-43839000D01*
X66823000Y-43879000D02*
X72837000Y-43879000D01*
X66751000Y-43919000D02*
X72909000Y-43919000D01*
X66681000Y-43959000D02*
X72979000Y-43959000D01*
X66613000Y-43999000D02*
X73047000Y-43999000D01*
X66548000Y-44039000D02*
X73112000Y-44039000D01*
X66483000Y-44079000D02*
X73177000Y-44079000D01*
X66421000Y-44119000D02*
X73239000Y-44119000D01*
X66360000Y-44159000D02*
X73300000Y-44159000D01*
X66300000Y-44199000D02*
X73360000Y-44199000D01*
X66242000Y-44239000D02*
X73418000Y-44239000D01*
X66186000Y-44279000D02*
X73474000Y-44279000D01*
X66130000Y-44319000D02*
X73530000Y-44319000D01*
X66076000Y-44359000D02*
X73584000Y-44359000D01*
X66023000Y-44399000D02*
X73637000Y-44399000D01*
X65971000Y-44439000D02*
X73689000Y-44439000D01*
X65921000Y-44479000D02*
X73739000Y-44479000D01*
X65871000Y-44519000D02*
X73789000Y-44519000D01*
X65822000Y-44559000D02*
X73838000Y-44559000D01*
X65774000Y-44599000D02*
X73886000Y-44599000D01*
X65728000Y-44639000D02*
X73932000Y-44639000D01*
X65682000Y-44679000D02*
X73978000Y-44679000D01*
X65637000Y-44719000D02*
X74023000Y-44719000D01*
X65592000Y-44759000D02*
X74068000Y-44759000D01*
X65549000Y-44799000D02*
X74111000Y-44799000D01*
X65507000Y-44839000D02*
X74153000Y-44839000D01*
X65465000Y-44879000D02*
X74195000Y-44879000D01*
X65424000Y-44919000D02*
X74236000Y-44919000D01*
X65383000Y-44959000D02*
X74277000Y-44959000D01*
X65344000Y-44999000D02*
X74316000Y-44999000D01*
X65305000Y-45039000D02*
X74355000Y-45039000D01*
X65267000Y-45079000D02*
X74393000Y-45079000D01*
X65229000Y-45119000D02*
X74431000Y-45119000D01*
X65192000Y-45159000D02*
X74468000Y-45159000D01*
X65156000Y-45199000D02*
X74504000Y-45199000D01*
X65120000Y-45239000D02*
X74540000Y-45239000D01*
X65085000Y-45279000D02*
X74575000Y-45279000D01*
X65051000Y-45319000D02*
X74609000Y-45319000D01*
X65017000Y-45359000D02*
X74643000Y-45359000D01*
X64983000Y-45399000D02*
X74677000Y-45399000D01*
X64951000Y-45439000D02*
X74709000Y-45439000D01*
X64918000Y-45479000D02*
X74742000Y-45479000D01*
X64887000Y-45519000D02*
X74773000Y-45519000D01*
X64855000Y-45559000D02*
X74805000Y-45559000D01*
X71210000Y-45599000D02*
X74835000Y-45599000D01*
X64825000Y-45599000D02*
X68450000Y-45599000D01*
X71210000Y-45639000D02*
X74865000Y-45639000D01*
X64795000Y-45639000D02*
X68450000Y-45639000D01*
X71210000Y-45679000D02*
X74895000Y-45679000D01*
X64765000Y-45679000D02*
X68450000Y-45679000D01*
X71210000Y-45719000D02*
X74924000Y-45719000D01*
X64736000Y-45719000D02*
X68450000Y-45719000D01*
X71210000Y-45759000D02*
X74953000Y-45759000D01*
X64707000Y-45759000D02*
X68450000Y-45759000D01*
X71210000Y-45799000D02*
X74981000Y-45799000D01*
X64679000Y-45799000D02*
X68450000Y-45799000D01*
X71210000Y-45839000D02*
X75009000Y-45839000D01*
X64651000Y-45839000D02*
X68450000Y-45839000D01*
X71210000Y-45879000D02*
X75037000Y-45879000D01*
X64623000Y-45879000D02*
X68450000Y-45879000D01*
X71210000Y-45919000D02*
X75064000Y-45919000D01*
X64596000Y-45919000D02*
X68450000Y-45919000D01*
X71210000Y-45959000D02*
X75090000Y-45959000D01*
X64570000Y-45959000D02*
X68450000Y-45959000D01*
X71210000Y-45999000D02*
X75116000Y-45999000D01*
X64544000Y-45999000D02*
X68450000Y-45999000D01*
X71210000Y-46039000D02*
X75142000Y-46039000D01*
X64518000Y-46039000D02*
X68450000Y-46039000D01*
X71210000Y-46079000D02*
X75167000Y-46079000D01*
X64493000Y-46079000D02*
X68450000Y-46079000D01*
X71210000Y-46119000D02*
X75192000Y-46119000D01*
X64468000Y-46119000D02*
X68450000Y-46119000D01*
X71210000Y-46159000D02*
X75216000Y-46159000D01*
X64444000Y-46159000D02*
X68450000Y-46159000D01*
X71210000Y-46199000D02*
X75240000Y-46199000D01*
X64420000Y-46199000D02*
X68450000Y-46199000D01*
X71210000Y-46239000D02*
X75264000Y-46239000D01*
X64396000Y-46239000D02*
X68450000Y-46239000D01*
X71210000Y-46279000D02*
X75287000Y-46279000D01*
X64373000Y-46279000D02*
X68450000Y-46279000D01*
X71210000Y-46319000D02*
X75310000Y-46319000D01*
X64350000Y-46319000D02*
X68450000Y-46319000D01*
X71210000Y-46359000D02*
X75332000Y-46359000D01*
X64328000Y-46359000D02*
X68450000Y-46359000D01*
X71210000Y-46399000D02*
X75354000Y-46399000D01*
X64306000Y-46399000D02*
X68450000Y-46399000D01*
X71210000Y-46439000D02*
X75376000Y-46439000D01*
X64284000Y-46439000D02*
X68450000Y-46439000D01*
X71210000Y-46479000D02*
X75397000Y-46479000D01*
X64263000Y-46479000D02*
X68450000Y-46479000D01*
X71210000Y-46519000D02*
X75418000Y-46519000D01*
X64242000Y-46519000D02*
X68450000Y-46519000D01*
X71210000Y-46559000D02*
X75439000Y-46559000D01*
X64221000Y-46559000D02*
X68450000Y-46559000D01*
X71210000Y-46599000D02*
X75459000Y-46599000D01*
X64201000Y-46599000D02*
X68450000Y-46599000D01*
X71210000Y-46639000D02*
X75479000Y-46639000D01*
X64181000Y-46639000D02*
X68450000Y-46639000D01*
X71210000Y-46679000D02*
X75498000Y-46679000D01*
X64162000Y-46679000D02*
X68450000Y-46679000D01*
X71210000Y-46719000D02*
X75517000Y-46719000D01*
X64143000Y-46719000D02*
X68450000Y-46719000D01*
X71210000Y-46759000D02*
X75536000Y-46759000D01*
X64124000Y-46759000D02*
X68450000Y-46759000D01*
X71210000Y-46799000D02*
X75555000Y-46799000D01*
X64105000Y-46799000D02*
X68450000Y-46799000D01*
X71210000Y-46839000D02*
X75573000Y-46839000D01*
X64087000Y-46839000D02*
X68450000Y-46839000D01*
X71210000Y-46879000D02*
X75591000Y-46879000D01*
X64069000Y-46879000D02*
X68450000Y-46879000D01*
X71210000Y-46919000D02*
X75608000Y-46919000D01*
X64052000Y-46919000D02*
X68450000Y-46919000D01*
X71210000Y-46959000D02*
X75625000Y-46959000D01*
X64035000Y-46959000D02*
X68450000Y-46959000D01*
X71210000Y-46999000D02*
X75642000Y-46999000D01*
X64018000Y-46999000D02*
X68450000Y-46999000D01*
X71210000Y-47039000D02*
X75659000Y-47039000D01*
X64001000Y-47039000D02*
X68450000Y-47039000D01*
X71210000Y-47079000D02*
X75675000Y-47079000D01*
X63985000Y-47079000D02*
X68450000Y-47079000D01*
X71210000Y-47119000D02*
X75691000Y-47119000D01*
X63969000Y-47119000D02*
X68450000Y-47119000D01*
X71210000Y-47159000D02*
X75706000Y-47159000D01*
X63954000Y-47159000D02*
X68450000Y-47159000D01*
X71210000Y-47199000D02*
X75722000Y-47199000D01*
X63938000Y-47199000D02*
X68450000Y-47199000D01*
X71210000Y-47239000D02*
X75737000Y-47239000D01*
X63923000Y-47239000D02*
X68450000Y-47239000D01*
X71210000Y-47279000D02*
X75751000Y-47279000D01*
X63909000Y-47279000D02*
X68450000Y-47279000D01*
X71210000Y-47319000D02*
X75766000Y-47319000D01*
X63894000Y-47319000D02*
X68450000Y-47319000D01*
X71210000Y-47359000D02*
X75780000Y-47359000D01*
X63880000Y-47359000D02*
X68450000Y-47359000D01*
X71210000Y-47399000D02*
X75793000Y-47399000D01*
X63867000Y-47399000D02*
X68450000Y-47399000D01*
X71210000Y-47439000D02*
X75807000Y-47439000D01*
X63853000Y-47439000D02*
X68450000Y-47439000D01*
X71210000Y-47479000D02*
X75820000Y-47479000D01*
X63840000Y-47479000D02*
X68450000Y-47479000D01*
X71210000Y-47519000D02*
X75833000Y-47519000D01*
X63827000Y-47519000D02*
X68450000Y-47519000D01*
X71210000Y-47559000D02*
X75845000Y-47559000D01*
X63815000Y-47559000D02*
X68450000Y-47559000D01*
X71210000Y-47599000D02*
X75858000Y-47599000D01*
X63802000Y-47599000D02*
X68450000Y-47599000D01*
X71210000Y-47639000D02*
X75870000Y-47639000D01*
X63790000Y-47639000D02*
X68450000Y-47639000D01*
X71210000Y-47679000D02*
X75881000Y-47679000D01*
X63779000Y-47679000D02*
X68450000Y-47679000D01*
X71210000Y-47719000D02*
X75893000Y-47719000D01*
X63767000Y-47719000D02*
X68450000Y-47719000D01*
X71210000Y-47759000D02*
X75904000Y-47759000D01*
X63756000Y-47759000D02*
X68450000Y-47759000D01*
X71210000Y-47799000D02*
X75915000Y-47799000D01*
X63745000Y-47799000D02*
X68450000Y-47799000D01*
X71210000Y-47839000D02*
X75925000Y-47839000D01*
X63735000Y-47839000D02*
X68450000Y-47839000D01*
X71210000Y-47879000D02*
X75936000Y-47879000D01*
X63724000Y-47879000D02*
X68450000Y-47879000D01*
X71210000Y-47919000D02*
X75946000Y-47919000D01*
X63714000Y-47919000D02*
X68450000Y-47919000D01*
X71210000Y-47959000D02*
X75955000Y-47959000D01*
X63705000Y-47959000D02*
X68450000Y-47959000D01*
X71210000Y-47999000D02*
X75965000Y-47999000D01*
X63695000Y-47999000D02*
X68450000Y-47999000D01*
X71210000Y-48039000D02*
X75974000Y-48039000D01*
X63686000Y-48039000D02*
X68450000Y-48039000D01*
X71210000Y-48079000D02*
X75983000Y-48079000D01*
X63677000Y-48079000D02*
X68450000Y-48079000D01*
X71210000Y-48119000D02*
X75992000Y-48119000D01*
X63668000Y-48119000D02*
X68450000Y-48119000D01*
X71210000Y-48159000D02*
X76000000Y-48159000D01*
X63660000Y-48159000D02*
X68450000Y-48159000D01*
X71210000Y-48199000D02*
X76008000Y-48199000D01*
X63652000Y-48199000D02*
X68450000Y-48199000D01*
X71210000Y-48239000D02*
X76016000Y-48239000D01*
X63644000Y-48239000D02*
X68450000Y-48239000D01*
X71210000Y-48279000D02*
X76023000Y-48279000D01*
X63637000Y-48279000D02*
X68450000Y-48279000D01*
X71210000Y-48319000D02*
X76031000Y-48319000D01*
X63629000Y-48319000D02*
X68450000Y-48319000D01*
X63622000Y-48359000D02*
X76038000Y-48359000D01*
X63615000Y-48399000D02*
X76045000Y-48399000D01*
X63609000Y-48439000D02*
X76051000Y-48439000D01*
X63603000Y-48479000D02*
X76057000Y-48479000D01*
X63597000Y-48519000D02*
X76063000Y-48519000D01*
X63591000Y-48559000D02*
X76069000Y-48559000D01*
X63585000Y-48599000D02*
X76075000Y-48599000D01*
X63580000Y-48639000D02*
X76080000Y-48639000D01*
X63575000Y-48679000D02*
X76085000Y-48679000D01*
X63571000Y-48719000D02*
X76089000Y-48719000D01*
X63566000Y-48760000D02*
X76094000Y-48760000D01*
X63562000Y-48800000D02*
X76098000Y-48800000D01*
X63558000Y-48840000D02*
X76102000Y-48840000D01*
X63554000Y-48880000D02*
X76106000Y-48880000D01*
X63551000Y-48920000D02*
X76109000Y-48920000D01*
X63548000Y-48960000D02*
X76112000Y-48960000D01*
X63545000Y-49000000D02*
X76115000Y-49000000D01*
X63542000Y-49040000D02*
X76118000Y-49040000D01*
X63540000Y-49080000D02*
X76120000Y-49080000D01*
X63538000Y-49120000D02*
X76122000Y-49120000D01*
X63536000Y-49160000D02*
X76124000Y-49160000D01*
X63534000Y-49200000D02*
X76126000Y-49200000D01*
X63533000Y-49240000D02*
X76127000Y-49240000D01*
X63532000Y-49280000D02*
X76128000Y-49280000D01*
X63531000Y-49320000D02*
X76129000Y-49320000D01*
X63530000Y-49360000D02*
X76130000Y-49360000D01*
X63530000Y-49400000D02*
X76130000Y-49400000D01*
X63530000Y-49440000D02*
X76130000Y-49440000D01*
X76170000Y-49440000D02*
G75*
G03X76170000Y-49440000I-6340000J0D01*
G01*
X84880000Y-44580000D02*
X84880000Y-49100000D01*
X77260000Y-44580000D02*
X77260000Y-49100000D01*
X77260000Y-49100000D02*
X84880000Y-49100000D01*
X77260000Y-44580000D02*
X84880000Y-44580000D01*
X112040000Y-66940000D02*
G75*
G03X112040000Y-66940000I-6340000J0D01*
G01*
X99400000Y-66940000D02*
X112000000Y-66940000D01*
X99400000Y-66900000D02*
X112000000Y-66900000D01*
X99400000Y-66860000D02*
X112000000Y-66860000D01*
X99401000Y-66820000D02*
X111999000Y-66820000D01*
X99402000Y-66780000D02*
X111998000Y-66780000D01*
X99403000Y-66740000D02*
X111997000Y-66740000D01*
X99404000Y-66700000D02*
X111996000Y-66700000D01*
X99406000Y-66660000D02*
X111994000Y-66660000D01*
X99408000Y-66620000D02*
X111992000Y-66620000D01*
X99410000Y-66580000D02*
X111990000Y-66580000D01*
X99412000Y-66540000D02*
X111988000Y-66540000D01*
X99415000Y-66500000D02*
X111985000Y-66500000D01*
X99418000Y-66460000D02*
X111982000Y-66460000D01*
X99421000Y-66420000D02*
X111979000Y-66420000D01*
X99424000Y-66380000D02*
X111976000Y-66380000D01*
X99428000Y-66340000D02*
X111972000Y-66340000D01*
X99432000Y-66300000D02*
X111968000Y-66300000D01*
X99436000Y-66260000D02*
X111964000Y-66260000D01*
X99441000Y-66219000D02*
X111959000Y-66219000D01*
X99445000Y-66179000D02*
X111955000Y-66179000D01*
X99450000Y-66139000D02*
X111950000Y-66139000D01*
X99455000Y-66099000D02*
X111945000Y-66099000D01*
X99461000Y-66059000D02*
X111939000Y-66059000D01*
X99467000Y-66019000D02*
X111933000Y-66019000D01*
X99473000Y-65979000D02*
X111927000Y-65979000D01*
X99479000Y-65939000D02*
X111921000Y-65939000D01*
X99485000Y-65899000D02*
X111915000Y-65899000D01*
X99492000Y-65859000D02*
X111908000Y-65859000D01*
X99499000Y-65819000D02*
X104320000Y-65819000D01*
X107080000Y-65819000D02*
X111901000Y-65819000D01*
X99507000Y-65779000D02*
X104320000Y-65779000D01*
X107080000Y-65779000D02*
X111893000Y-65779000D01*
X99514000Y-65739000D02*
X104320000Y-65739000D01*
X107080000Y-65739000D02*
X111886000Y-65739000D01*
X99522000Y-65699000D02*
X104320000Y-65699000D01*
X107080000Y-65699000D02*
X111878000Y-65699000D01*
X99530000Y-65659000D02*
X104320000Y-65659000D01*
X107080000Y-65659000D02*
X111870000Y-65659000D01*
X99538000Y-65619000D02*
X104320000Y-65619000D01*
X107080000Y-65619000D02*
X111862000Y-65619000D01*
X99547000Y-65579000D02*
X104320000Y-65579000D01*
X107080000Y-65579000D02*
X111853000Y-65579000D01*
X99556000Y-65539000D02*
X104320000Y-65539000D01*
X107080000Y-65539000D02*
X111844000Y-65539000D01*
X99565000Y-65499000D02*
X104320000Y-65499000D01*
X107080000Y-65499000D02*
X111835000Y-65499000D01*
X99575000Y-65459000D02*
X104320000Y-65459000D01*
X107080000Y-65459000D02*
X111825000Y-65459000D01*
X99584000Y-65419000D02*
X104320000Y-65419000D01*
X107080000Y-65419000D02*
X111816000Y-65419000D01*
X99594000Y-65379000D02*
X104320000Y-65379000D01*
X107080000Y-65379000D02*
X111806000Y-65379000D01*
X99605000Y-65339000D02*
X104320000Y-65339000D01*
X107080000Y-65339000D02*
X111795000Y-65339000D01*
X99615000Y-65299000D02*
X104320000Y-65299000D01*
X107080000Y-65299000D02*
X111785000Y-65299000D01*
X99626000Y-65259000D02*
X104320000Y-65259000D01*
X107080000Y-65259000D02*
X111774000Y-65259000D01*
X99637000Y-65219000D02*
X104320000Y-65219000D01*
X107080000Y-65219000D02*
X111763000Y-65219000D01*
X99649000Y-65179000D02*
X104320000Y-65179000D01*
X107080000Y-65179000D02*
X111751000Y-65179000D01*
X99660000Y-65139000D02*
X104320000Y-65139000D01*
X107080000Y-65139000D02*
X111740000Y-65139000D01*
X99672000Y-65099000D02*
X104320000Y-65099000D01*
X107080000Y-65099000D02*
X111728000Y-65099000D01*
X99685000Y-65059000D02*
X104320000Y-65059000D01*
X107080000Y-65059000D02*
X111715000Y-65059000D01*
X99697000Y-65019000D02*
X104320000Y-65019000D01*
X107080000Y-65019000D02*
X111703000Y-65019000D01*
X99710000Y-64979000D02*
X104320000Y-64979000D01*
X107080000Y-64979000D02*
X111690000Y-64979000D01*
X99723000Y-64939000D02*
X104320000Y-64939000D01*
X107080000Y-64939000D02*
X111677000Y-64939000D01*
X99737000Y-64899000D02*
X104320000Y-64899000D01*
X107080000Y-64899000D02*
X111663000Y-64899000D01*
X99750000Y-64859000D02*
X104320000Y-64859000D01*
X107080000Y-64859000D02*
X111650000Y-64859000D01*
X99764000Y-64819000D02*
X104320000Y-64819000D01*
X107080000Y-64819000D02*
X111636000Y-64819000D01*
X99779000Y-64779000D02*
X104320000Y-64779000D01*
X107080000Y-64779000D02*
X111621000Y-64779000D01*
X99793000Y-64739000D02*
X104320000Y-64739000D01*
X107080000Y-64739000D02*
X111607000Y-64739000D01*
X99808000Y-64699000D02*
X104320000Y-64699000D01*
X107080000Y-64699000D02*
X111592000Y-64699000D01*
X99824000Y-64659000D02*
X104320000Y-64659000D01*
X107080000Y-64659000D02*
X111576000Y-64659000D01*
X99839000Y-64619000D02*
X104320000Y-64619000D01*
X107080000Y-64619000D02*
X111561000Y-64619000D01*
X99855000Y-64579000D02*
X104320000Y-64579000D01*
X107080000Y-64579000D02*
X111545000Y-64579000D01*
X99871000Y-64539000D02*
X104320000Y-64539000D01*
X107080000Y-64539000D02*
X111529000Y-64539000D01*
X99888000Y-64499000D02*
X104320000Y-64499000D01*
X107080000Y-64499000D02*
X111512000Y-64499000D01*
X99905000Y-64459000D02*
X104320000Y-64459000D01*
X107080000Y-64459000D02*
X111495000Y-64459000D01*
X99922000Y-64419000D02*
X104320000Y-64419000D01*
X107080000Y-64419000D02*
X111478000Y-64419000D01*
X99939000Y-64379000D02*
X104320000Y-64379000D01*
X107080000Y-64379000D02*
X111461000Y-64379000D01*
X99957000Y-64339000D02*
X104320000Y-64339000D01*
X107080000Y-64339000D02*
X111443000Y-64339000D01*
X99975000Y-64299000D02*
X104320000Y-64299000D01*
X107080000Y-64299000D02*
X111425000Y-64299000D01*
X99994000Y-64259000D02*
X104320000Y-64259000D01*
X107080000Y-64259000D02*
X111406000Y-64259000D01*
X100013000Y-64219000D02*
X104320000Y-64219000D01*
X107080000Y-64219000D02*
X111387000Y-64219000D01*
X100032000Y-64179000D02*
X104320000Y-64179000D01*
X107080000Y-64179000D02*
X111368000Y-64179000D01*
X100051000Y-64139000D02*
X104320000Y-64139000D01*
X107080000Y-64139000D02*
X111349000Y-64139000D01*
X100071000Y-64099000D02*
X104320000Y-64099000D01*
X107080000Y-64099000D02*
X111329000Y-64099000D01*
X100091000Y-64059000D02*
X104320000Y-64059000D01*
X107080000Y-64059000D02*
X111309000Y-64059000D01*
X100112000Y-64019000D02*
X104320000Y-64019000D01*
X107080000Y-64019000D02*
X111288000Y-64019000D01*
X100133000Y-63979000D02*
X104320000Y-63979000D01*
X107080000Y-63979000D02*
X111267000Y-63979000D01*
X100154000Y-63939000D02*
X104320000Y-63939000D01*
X107080000Y-63939000D02*
X111246000Y-63939000D01*
X100176000Y-63899000D02*
X104320000Y-63899000D01*
X107080000Y-63899000D02*
X111224000Y-63899000D01*
X100198000Y-63859000D02*
X104320000Y-63859000D01*
X107080000Y-63859000D02*
X111202000Y-63859000D01*
X100220000Y-63819000D02*
X104320000Y-63819000D01*
X107080000Y-63819000D02*
X111180000Y-63819000D01*
X100243000Y-63779000D02*
X104320000Y-63779000D01*
X107080000Y-63779000D02*
X111157000Y-63779000D01*
X100266000Y-63739000D02*
X104320000Y-63739000D01*
X107080000Y-63739000D02*
X111134000Y-63739000D01*
X100290000Y-63699000D02*
X104320000Y-63699000D01*
X107080000Y-63699000D02*
X111110000Y-63699000D01*
X100314000Y-63659000D02*
X104320000Y-63659000D01*
X107080000Y-63659000D02*
X111086000Y-63659000D01*
X100338000Y-63619000D02*
X104320000Y-63619000D01*
X107080000Y-63619000D02*
X111062000Y-63619000D01*
X100363000Y-63579000D02*
X104320000Y-63579000D01*
X107080000Y-63579000D02*
X111037000Y-63579000D01*
X100388000Y-63539000D02*
X104320000Y-63539000D01*
X107080000Y-63539000D02*
X111012000Y-63539000D01*
X100414000Y-63499000D02*
X104320000Y-63499000D01*
X107080000Y-63499000D02*
X110986000Y-63499000D01*
X100440000Y-63459000D02*
X104320000Y-63459000D01*
X107080000Y-63459000D02*
X110960000Y-63459000D01*
X100466000Y-63419000D02*
X104320000Y-63419000D01*
X107080000Y-63419000D02*
X110934000Y-63419000D01*
X100493000Y-63379000D02*
X104320000Y-63379000D01*
X107080000Y-63379000D02*
X110907000Y-63379000D01*
X100521000Y-63339000D02*
X104320000Y-63339000D01*
X107080000Y-63339000D02*
X110879000Y-63339000D01*
X100549000Y-63299000D02*
X104320000Y-63299000D01*
X107080000Y-63299000D02*
X110851000Y-63299000D01*
X100577000Y-63259000D02*
X104320000Y-63259000D01*
X107080000Y-63259000D02*
X110823000Y-63259000D01*
X100606000Y-63219000D02*
X104320000Y-63219000D01*
X107080000Y-63219000D02*
X110794000Y-63219000D01*
X100635000Y-63179000D02*
X104320000Y-63179000D01*
X107080000Y-63179000D02*
X110765000Y-63179000D01*
X100665000Y-63139000D02*
X104320000Y-63139000D01*
X107080000Y-63139000D02*
X110735000Y-63139000D01*
X100695000Y-63099000D02*
X104320000Y-63099000D01*
X107080000Y-63099000D02*
X110705000Y-63099000D01*
X100725000Y-63059000D02*
X110675000Y-63059000D01*
X100757000Y-63019000D02*
X110643000Y-63019000D01*
X100788000Y-62979000D02*
X110612000Y-62979000D01*
X100821000Y-62939000D02*
X110579000Y-62939000D01*
X100853000Y-62899000D02*
X110547000Y-62899000D01*
X100887000Y-62859000D02*
X110513000Y-62859000D01*
X100921000Y-62819000D02*
X110479000Y-62819000D01*
X100955000Y-62779000D02*
X110445000Y-62779000D01*
X100990000Y-62739000D02*
X110410000Y-62739000D01*
X101026000Y-62699000D02*
X110374000Y-62699000D01*
X101062000Y-62659000D02*
X110338000Y-62659000D01*
X101099000Y-62619000D02*
X110301000Y-62619000D01*
X101137000Y-62579000D02*
X110263000Y-62579000D01*
X101175000Y-62539000D02*
X110225000Y-62539000D01*
X101214000Y-62499000D02*
X110186000Y-62499000D01*
X101253000Y-62459000D02*
X110147000Y-62459000D01*
X101294000Y-62419000D02*
X110106000Y-62419000D01*
X101335000Y-62379000D02*
X110065000Y-62379000D01*
X101377000Y-62339000D02*
X110023000Y-62339000D01*
X101419000Y-62299000D02*
X109981000Y-62299000D01*
X101462000Y-62259000D02*
X109938000Y-62259000D01*
X101507000Y-62219000D02*
X109893000Y-62219000D01*
X101552000Y-62179000D02*
X109848000Y-62179000D01*
X101598000Y-62139000D02*
X109802000Y-62139000D01*
X101644000Y-62099000D02*
X109756000Y-62099000D01*
X101692000Y-62059000D02*
X109708000Y-62059000D01*
X101741000Y-62019000D02*
X109659000Y-62019000D01*
X101791000Y-61979000D02*
X109609000Y-61979000D01*
X101841000Y-61939000D02*
X109559000Y-61939000D01*
X101893000Y-61899000D02*
X109507000Y-61899000D01*
X101946000Y-61859000D02*
X109454000Y-61859000D01*
X102000000Y-61819000D02*
X109400000Y-61819000D01*
X102056000Y-61779000D02*
X109344000Y-61779000D01*
X102112000Y-61739000D02*
X109288000Y-61739000D01*
X102170000Y-61699000D02*
X109230000Y-61699000D01*
X102230000Y-61659000D02*
X109170000Y-61659000D01*
X102291000Y-61619000D02*
X109109000Y-61619000D01*
X102353000Y-61579000D02*
X109047000Y-61579000D01*
X102418000Y-61539000D02*
X108982000Y-61539000D01*
X102483000Y-61499000D02*
X108917000Y-61499000D01*
X102551000Y-61459000D02*
X108849000Y-61459000D01*
X102621000Y-61419000D02*
X108779000Y-61419000D01*
X102693000Y-61379000D02*
X108707000Y-61379000D01*
X102767000Y-61339000D02*
X108633000Y-61339000D01*
X102844000Y-61299000D02*
X108556000Y-61299000D01*
X102923000Y-61259000D02*
X108477000Y-61259000D01*
X103005000Y-61219000D02*
X108395000Y-61219000D01*
X103090000Y-61179000D02*
X108310000Y-61179000D01*
X103179000Y-61139000D02*
X108221000Y-61139000D01*
X103272000Y-61099000D02*
X108128000Y-61099000D01*
X103369000Y-61059000D02*
X108031000Y-61059000D01*
X103470000Y-61019000D02*
X107930000Y-61019000D01*
X103578000Y-60979000D02*
X107822000Y-60979000D01*
X103691000Y-60939000D02*
X107709000Y-60939000D01*
X103812000Y-60899000D02*
X107588000Y-60899000D01*
X103943000Y-60859000D02*
X107457000Y-60859000D01*
X104084000Y-60819000D02*
X107316000Y-60819000D01*
X104240000Y-60779000D02*
X107160000Y-60779000D01*
X104415000Y-60739000D02*
X106985000Y-60739000D01*
X104618000Y-60699000D02*
X106782000Y-60699000D01*
X104869000Y-60659000D02*
X106531000Y-60659000D01*
X105236000Y-60619000D02*
X106164000Y-60619000D01*
X105700000Y-72640000D02*
X105700000Y-70840000D01*
X104800000Y-71740000D02*
X106600000Y-71740000D01*
X70750000Y-31170000D02*
X68950000Y-31170000D01*
X69850000Y-30270000D02*
X69850000Y-32070000D01*
X70314000Y-42291000D02*
X69386000Y-42291000D01*
X70681000Y-42251000D02*
X69019000Y-42251000D01*
X70932000Y-42211000D02*
X68768000Y-42211000D01*
X71135000Y-42171000D02*
X68565000Y-42171000D01*
X71310000Y-42131000D02*
X68390000Y-42131000D01*
X71466000Y-42091000D02*
X68234000Y-42091000D01*
X71607000Y-42051000D02*
X68093000Y-42051000D01*
X71738000Y-42011000D02*
X67962000Y-42011000D01*
X71859000Y-41971000D02*
X67841000Y-41971000D01*
X71972000Y-41931000D02*
X67728000Y-41931000D01*
X72080000Y-41891000D02*
X67620000Y-41891000D01*
X72181000Y-41851000D02*
X67519000Y-41851000D01*
X72278000Y-41811000D02*
X67422000Y-41811000D01*
X72371000Y-41771000D02*
X67329000Y-41771000D01*
X72460000Y-41731000D02*
X67240000Y-41731000D01*
X72545000Y-41691000D02*
X67155000Y-41691000D01*
X72627000Y-41651000D02*
X67073000Y-41651000D01*
X72706000Y-41611000D02*
X66994000Y-41611000D01*
X72783000Y-41571000D02*
X66917000Y-41571000D01*
X72857000Y-41531000D02*
X66843000Y-41531000D01*
X72929000Y-41491000D02*
X66771000Y-41491000D01*
X72999000Y-41451000D02*
X66701000Y-41451000D01*
X73067000Y-41411000D02*
X66633000Y-41411000D01*
X73132000Y-41371000D02*
X66568000Y-41371000D01*
X73197000Y-41331000D02*
X66503000Y-41331000D01*
X73259000Y-41291000D02*
X66441000Y-41291000D01*
X73320000Y-41251000D02*
X66380000Y-41251000D01*
X73380000Y-41211000D02*
X66320000Y-41211000D01*
X73438000Y-41171000D02*
X66262000Y-41171000D01*
X73494000Y-41131000D02*
X66206000Y-41131000D01*
X73550000Y-41091000D02*
X66150000Y-41091000D01*
X73604000Y-41051000D02*
X66096000Y-41051000D01*
X73657000Y-41011000D02*
X66043000Y-41011000D01*
X73709000Y-40971000D02*
X65991000Y-40971000D01*
X73759000Y-40931000D02*
X65941000Y-40931000D01*
X73809000Y-40891000D02*
X65891000Y-40891000D01*
X73858000Y-40851000D02*
X65842000Y-40851000D01*
X73906000Y-40811000D02*
X65794000Y-40811000D01*
X73952000Y-40771000D02*
X65748000Y-40771000D01*
X73998000Y-40731000D02*
X65702000Y-40731000D01*
X74043000Y-40691000D02*
X65657000Y-40691000D01*
X74088000Y-40651000D02*
X65612000Y-40651000D01*
X74131000Y-40611000D02*
X65569000Y-40611000D01*
X74173000Y-40571000D02*
X65527000Y-40571000D01*
X74215000Y-40531000D02*
X65485000Y-40531000D01*
X74256000Y-40491000D02*
X65444000Y-40491000D01*
X74297000Y-40451000D02*
X65403000Y-40451000D01*
X74336000Y-40411000D02*
X65364000Y-40411000D01*
X74375000Y-40371000D02*
X65325000Y-40371000D01*
X74413000Y-40331000D02*
X65287000Y-40331000D01*
X74451000Y-40291000D02*
X65249000Y-40291000D01*
X74488000Y-40251000D02*
X65212000Y-40251000D01*
X74524000Y-40211000D02*
X65176000Y-40211000D01*
X74560000Y-40171000D02*
X65140000Y-40171000D01*
X74595000Y-40131000D02*
X65105000Y-40131000D01*
X74629000Y-40091000D02*
X65071000Y-40091000D01*
X74663000Y-40051000D02*
X65037000Y-40051000D01*
X74697000Y-40011000D02*
X65003000Y-40011000D01*
X74729000Y-39971000D02*
X64971000Y-39971000D01*
X74762000Y-39931000D02*
X64938000Y-39931000D01*
X74793000Y-39891000D02*
X64907000Y-39891000D01*
X74825000Y-39851000D02*
X64875000Y-39851000D01*
X68470000Y-39811000D02*
X64845000Y-39811000D01*
X74855000Y-39811000D02*
X71230000Y-39811000D01*
X68470000Y-39771000D02*
X64815000Y-39771000D01*
X74885000Y-39771000D02*
X71230000Y-39771000D01*
X68470000Y-39731000D02*
X64785000Y-39731000D01*
X74915000Y-39731000D02*
X71230000Y-39731000D01*
X68470000Y-39691000D02*
X64756000Y-39691000D01*
X74944000Y-39691000D02*
X71230000Y-39691000D01*
X68470000Y-39651000D02*
X64727000Y-39651000D01*
X74973000Y-39651000D02*
X71230000Y-39651000D01*
X68470000Y-39611000D02*
X64699000Y-39611000D01*
X75001000Y-39611000D02*
X71230000Y-39611000D01*
X68470000Y-39571000D02*
X64671000Y-39571000D01*
X75029000Y-39571000D02*
X71230000Y-39571000D01*
X68470000Y-39531000D02*
X64643000Y-39531000D01*
X75057000Y-39531000D02*
X71230000Y-39531000D01*
X68470000Y-39491000D02*
X64616000Y-39491000D01*
X75084000Y-39491000D02*
X71230000Y-39491000D01*
X68470000Y-39451000D02*
X64590000Y-39451000D01*
X75110000Y-39451000D02*
X71230000Y-39451000D01*
X68470000Y-39411000D02*
X64564000Y-39411000D01*
X75136000Y-39411000D02*
X71230000Y-39411000D01*
X68470000Y-39371000D02*
X64538000Y-39371000D01*
X75162000Y-39371000D02*
X71230000Y-39371000D01*
X68470000Y-39331000D02*
X64513000Y-39331000D01*
X75187000Y-39331000D02*
X71230000Y-39331000D01*
X68470000Y-39291000D02*
X64488000Y-39291000D01*
X75212000Y-39291000D02*
X71230000Y-39291000D01*
X68470000Y-39251000D02*
X64464000Y-39251000D01*
X75236000Y-39251000D02*
X71230000Y-39251000D01*
X68470000Y-39211000D02*
X64440000Y-39211000D01*
X75260000Y-39211000D02*
X71230000Y-39211000D01*
X68470000Y-39171000D02*
X64416000Y-39171000D01*
X75284000Y-39171000D02*
X71230000Y-39171000D01*
X68470000Y-39131000D02*
X64393000Y-39131000D01*
X75307000Y-39131000D02*
X71230000Y-39131000D01*
X68470000Y-39091000D02*
X64370000Y-39091000D01*
X75330000Y-39091000D02*
X71230000Y-39091000D01*
X68470000Y-39051000D02*
X64348000Y-39051000D01*
X75352000Y-39051000D02*
X71230000Y-39051000D01*
X68470000Y-39011000D02*
X64326000Y-39011000D01*
X75374000Y-39011000D02*
X71230000Y-39011000D01*
X68470000Y-38971000D02*
X64304000Y-38971000D01*
X75396000Y-38971000D02*
X71230000Y-38971000D01*
X68470000Y-38931000D02*
X64283000Y-38931000D01*
X75417000Y-38931000D02*
X71230000Y-38931000D01*
X68470000Y-38891000D02*
X64262000Y-38891000D01*
X75438000Y-38891000D02*
X71230000Y-38891000D01*
X68470000Y-38851000D02*
X64241000Y-38851000D01*
X75459000Y-38851000D02*
X71230000Y-38851000D01*
X68470000Y-38811000D02*
X64221000Y-38811000D01*
X75479000Y-38811000D02*
X71230000Y-38811000D01*
X68470000Y-38771000D02*
X64201000Y-38771000D01*
X75499000Y-38771000D02*
X71230000Y-38771000D01*
X68470000Y-38731000D02*
X64182000Y-38731000D01*
X75518000Y-38731000D02*
X71230000Y-38731000D01*
X68470000Y-38691000D02*
X64163000Y-38691000D01*
X75537000Y-38691000D02*
X71230000Y-38691000D01*
X68470000Y-38651000D02*
X64144000Y-38651000D01*
X75556000Y-38651000D02*
X71230000Y-38651000D01*
X68470000Y-38611000D02*
X64125000Y-38611000D01*
X75575000Y-38611000D02*
X71230000Y-38611000D01*
X68470000Y-38571000D02*
X64107000Y-38571000D01*
X75593000Y-38571000D02*
X71230000Y-38571000D01*
X68470000Y-38531000D02*
X64089000Y-38531000D01*
X75611000Y-38531000D02*
X71230000Y-38531000D01*
X68470000Y-38491000D02*
X64072000Y-38491000D01*
X75628000Y-38491000D02*
X71230000Y-38491000D01*
X68470000Y-38451000D02*
X64055000Y-38451000D01*
X75645000Y-38451000D02*
X71230000Y-38451000D01*
X68470000Y-38411000D02*
X64038000Y-38411000D01*
X75662000Y-38411000D02*
X71230000Y-38411000D01*
X68470000Y-38371000D02*
X64021000Y-38371000D01*
X75679000Y-38371000D02*
X71230000Y-38371000D01*
X68470000Y-38331000D02*
X64005000Y-38331000D01*
X75695000Y-38331000D02*
X71230000Y-38331000D01*
X68470000Y-38291000D02*
X63989000Y-38291000D01*
X75711000Y-38291000D02*
X71230000Y-38291000D01*
X68470000Y-38251000D02*
X63974000Y-38251000D01*
X75726000Y-38251000D02*
X71230000Y-38251000D01*
X68470000Y-38211000D02*
X63958000Y-38211000D01*
X75742000Y-38211000D02*
X71230000Y-38211000D01*
X68470000Y-38171000D02*
X63943000Y-38171000D01*
X75757000Y-38171000D02*
X71230000Y-38171000D01*
X68470000Y-38131000D02*
X63929000Y-38131000D01*
X75771000Y-38131000D02*
X71230000Y-38131000D01*
X68470000Y-38091000D02*
X63914000Y-38091000D01*
X75786000Y-38091000D02*
X71230000Y-38091000D01*
X68470000Y-38051000D02*
X63900000Y-38051000D01*
X75800000Y-38051000D02*
X71230000Y-38051000D01*
X68470000Y-38011000D02*
X63887000Y-38011000D01*
X75813000Y-38011000D02*
X71230000Y-38011000D01*
X68470000Y-37971000D02*
X63873000Y-37971000D01*
X75827000Y-37971000D02*
X71230000Y-37971000D01*
X68470000Y-37931000D02*
X63860000Y-37931000D01*
X75840000Y-37931000D02*
X71230000Y-37931000D01*
X68470000Y-37891000D02*
X63847000Y-37891000D01*
X75853000Y-37891000D02*
X71230000Y-37891000D01*
X68470000Y-37851000D02*
X63835000Y-37851000D01*
X75865000Y-37851000D02*
X71230000Y-37851000D01*
X68470000Y-37811000D02*
X63822000Y-37811000D01*
X75878000Y-37811000D02*
X71230000Y-37811000D01*
X68470000Y-37771000D02*
X63810000Y-37771000D01*
X75890000Y-37771000D02*
X71230000Y-37771000D01*
X68470000Y-37731000D02*
X63799000Y-37731000D01*
X75901000Y-37731000D02*
X71230000Y-37731000D01*
X68470000Y-37691000D02*
X63787000Y-37691000D01*
X75913000Y-37691000D02*
X71230000Y-37691000D01*
X68470000Y-37651000D02*
X63776000Y-37651000D01*
X75924000Y-37651000D02*
X71230000Y-37651000D01*
X68470000Y-37611000D02*
X63765000Y-37611000D01*
X75935000Y-37611000D02*
X71230000Y-37611000D01*
X68470000Y-37571000D02*
X63755000Y-37571000D01*
X75945000Y-37571000D02*
X71230000Y-37571000D01*
X68470000Y-37531000D02*
X63744000Y-37531000D01*
X75956000Y-37531000D02*
X71230000Y-37531000D01*
X68470000Y-37491000D02*
X63734000Y-37491000D01*
X75966000Y-37491000D02*
X71230000Y-37491000D01*
X68470000Y-37451000D02*
X63725000Y-37451000D01*
X75975000Y-37451000D02*
X71230000Y-37451000D01*
X68470000Y-37411000D02*
X63715000Y-37411000D01*
X75985000Y-37411000D02*
X71230000Y-37411000D01*
X68470000Y-37371000D02*
X63706000Y-37371000D01*
X75994000Y-37371000D02*
X71230000Y-37371000D01*
X68470000Y-37331000D02*
X63697000Y-37331000D01*
X76003000Y-37331000D02*
X71230000Y-37331000D01*
X68470000Y-37291000D02*
X63688000Y-37291000D01*
X76012000Y-37291000D02*
X71230000Y-37291000D01*
X68470000Y-37251000D02*
X63680000Y-37251000D01*
X76020000Y-37251000D02*
X71230000Y-37251000D01*
X68470000Y-37211000D02*
X63672000Y-37211000D01*
X76028000Y-37211000D02*
X71230000Y-37211000D01*
X68470000Y-37171000D02*
X63664000Y-37171000D01*
X76036000Y-37171000D02*
X71230000Y-37171000D01*
X68470000Y-37131000D02*
X63657000Y-37131000D01*
X76043000Y-37131000D02*
X71230000Y-37131000D01*
X68470000Y-37091000D02*
X63649000Y-37091000D01*
X76051000Y-37091000D02*
X71230000Y-37091000D01*
X76058000Y-37051000D02*
X63642000Y-37051000D01*
X76065000Y-37011000D02*
X63635000Y-37011000D01*
X76071000Y-36971000D02*
X63629000Y-36971000D01*
X76077000Y-36931000D02*
X63623000Y-36931000D01*
X76083000Y-36891000D02*
X63617000Y-36891000D01*
X76089000Y-36851000D02*
X63611000Y-36851000D01*
X76095000Y-36811000D02*
X63605000Y-36811000D01*
X76100000Y-36771000D02*
X63600000Y-36771000D01*
X76105000Y-36731000D02*
X63595000Y-36731000D01*
X76109000Y-36691000D02*
X63591000Y-36691000D01*
X76114000Y-36650000D02*
X63586000Y-36650000D01*
X76118000Y-36610000D02*
X63582000Y-36610000D01*
X76122000Y-36570000D02*
X63578000Y-36570000D01*
X76126000Y-36530000D02*
X63574000Y-36530000D01*
X76129000Y-36490000D02*
X63571000Y-36490000D01*
X76132000Y-36450000D02*
X63568000Y-36450000D01*
X76135000Y-36410000D02*
X63565000Y-36410000D01*
X76138000Y-36370000D02*
X63562000Y-36370000D01*
X76140000Y-36330000D02*
X63560000Y-36330000D01*
X76142000Y-36290000D02*
X63558000Y-36290000D01*
X76144000Y-36250000D02*
X63556000Y-36250000D01*
X76146000Y-36210000D02*
X63554000Y-36210000D01*
X76147000Y-36170000D02*
X63553000Y-36170000D01*
X76148000Y-36130000D02*
X63552000Y-36130000D01*
X76149000Y-36090000D02*
X63551000Y-36090000D01*
X76150000Y-36050000D02*
X63550000Y-36050000D01*
X76150000Y-36010000D02*
X63550000Y-36010000D01*
X76150000Y-35970000D02*
X63550000Y-35970000D01*
X76190000Y-35970000D02*
G75*
G03X76190000Y-35970000I-6340000J0D01*
G01*
X118060000Y-49070000D02*
X123380000Y-49070000D01*
X123380000Y-49070000D02*
X123380000Y-39450000D01*
X123380000Y-39450000D02*
X118060000Y-39450000D01*
X118060000Y-39450000D02*
X118060000Y-49070000D01*
X120720000Y-50100000D02*
X120720000Y-49070000D01*
X120720000Y-38420000D02*
X120720000Y-39450000D01*
X118060000Y-47585000D02*
X123380000Y-47585000D01*
X105930000Y-83225000D02*
X100610000Y-83225000D01*
X103270000Y-92390000D02*
X103270000Y-91360000D01*
X103270000Y-80710000D02*
X103270000Y-81740000D01*
X105930000Y-91360000D02*
X105930000Y-81740000D01*
X100610000Y-91360000D02*
X105930000Y-91360000D01*
X100610000Y-81740000D02*
X100610000Y-91360000D01*
X105930000Y-81740000D02*
X100610000Y-81740000D01*
X86230000Y-40210000D02*
X86230000Y-37390000D01*
X86230000Y-37390000D02*
X80910000Y-37390000D01*
X80910000Y-37390000D02*
X80910000Y-40210000D01*
X80910000Y-40210000D02*
X86230000Y-40210000D01*
X87370000Y-38800000D02*
X86230000Y-38800000D01*
X79770000Y-38800000D02*
X80910000Y-38800000D01*
X85390000Y-40210000D02*
X85390000Y-37390000D01*
X56110000Y-89530000D02*
X56266000Y-89530000D01*
X53794000Y-89530000D02*
X53950000Y-89530000D01*
X56109837Y-86928870D02*
G75*
G02X56110000Y-89010961I-1079837J-1041130D01*
G01*
X53950163Y-86928870D02*
G75*
G03X53950000Y-89010961I1079837J-1041130D01*
G01*
X56108608Y-86297665D02*
G75*
G02X56265516Y-89530000I-1078608J-1672335D01*
G01*
X53951392Y-86297665D02*
G75*
G03X53794484Y-89530000I1078608J-1672335D01*
G01*
X49170000Y-52370000D02*
X51990000Y-52370000D01*
X50580000Y-46750000D02*
X50580000Y-47890000D01*
X50580000Y-54350000D02*
X50580000Y-53210000D01*
X49170000Y-47890000D02*
X49170000Y-53210000D01*
X51990000Y-47890000D02*
X49170000Y-47890000D01*
X51990000Y-53210000D02*
X51990000Y-47890000D01*
X49170000Y-53210000D02*
X51990000Y-53210000D01*
X56295000Y-43710000D02*
X56295000Y-38390000D01*
X47130000Y-41050000D02*
X48160000Y-41050000D01*
X58810000Y-41050000D02*
X57780000Y-41050000D01*
X48160000Y-43710000D02*
X57780000Y-43710000D01*
X48160000Y-38390000D02*
X48160000Y-43710000D01*
X57780000Y-38390000D02*
X48160000Y-38390000D01*
X57780000Y-43710000D02*
X57780000Y-38390000D01*
X96932335Y-80721392D02*
G75*
G03X93700000Y-80564484I-1672335J-1078608D01*
G01*
X96932335Y-82878608D02*
G75*
G02X93700000Y-83035516I-1672335J1078608D01*
G01*
X96301130Y-80720163D02*
G75*
G03X94219039Y-80720000I-1041130J-1079837D01*
G01*
X96301130Y-82879837D02*
G75*
G02X94219039Y-82880000I-1041130J1079837D01*
G01*
X93700000Y-80564000D02*
X93700000Y-80720000D01*
X93700000Y-82880000D02*
X93700000Y-83036000D01*
X96850000Y-85590000D02*
X96850000Y-85434000D01*
X96850000Y-87906000D02*
X96850000Y-87750000D01*
X94248870Y-85590163D02*
G75*
G02X96330961Y-85590000I1041130J-1079837D01*
G01*
X94248870Y-87749837D02*
G75*
G03X96330961Y-87750000I1041130J1079837D01*
G01*
X93617665Y-85591392D02*
G75*
G02X96850000Y-85434484I1672335J-1078608D01*
G01*
X93617665Y-87748608D02*
G75*
G03X96850000Y-87905516I1672335J1078608D01*
G01*
X120020000Y-54840000D02*
X128140000Y-54840000D01*
X120020000Y-70960000D02*
X128140000Y-70960000D01*
X128140000Y-61205000D02*
X128140000Y-54840000D01*
X128140000Y-70960000D02*
X128140000Y-64595000D01*
X120020000Y-61205000D02*
X120020000Y-54840000D01*
X120020000Y-70960000D02*
X120020000Y-64595000D01*
X102312795Y-48125816D02*
G75*
G02X103040000Y-48650000I-1122795J-2324184D01*
G01*
X100091193Y-48093600D02*
G75*
G03X98590000Y-50450000I1098807J-2356400D01*
G01*
X100091193Y-52806400D02*
G75*
G02X98590000Y-50450000I1098807J2356400D01*
G01*
X102312795Y-52774184D02*
G75*
G03X103040000Y-52250000I-1122795J2324184D01*
G01*
X103040000Y-52250000D02*
X103040000Y-48650000D01*
X107507205Y-43764184D02*
G75*
G02X106780000Y-43240000I1122795J2324184D01*
G01*
X109728807Y-43796400D02*
G75*
G03X111230000Y-41440000I-1098807J2356400D01*
G01*
X109728807Y-39083600D02*
G75*
G02X111230000Y-41440000I-1098807J-2356400D01*
G01*
X107507205Y-39115816D02*
G75*
G03X106780000Y-39640000I1122795J-2324184D01*
G01*
X106780000Y-39640000D02*
X106780000Y-43240000D01*
X111880000Y-39640000D02*
X111880000Y-43240000D01*
X112607205Y-39115816D02*
G75*
G03X111880000Y-39640000I1122795J-2324184D01*
G01*
X114828807Y-39083600D02*
G75*
G02X116330000Y-41440000I-1098807J-2356400D01*
G01*
X114828807Y-43796400D02*
G75*
G03X116330000Y-41440000I-1098807J2356400D01*
G01*
X112607205Y-43764184D02*
G75*
G02X111880000Y-43240000I1122795J2324184D01*
G01*
X90220000Y-81760000D02*
X89410000Y-81760000D01*
X79480000Y-81760000D02*
X80290000Y-81760000D01*
X89410000Y-80100000D02*
X80290000Y-80100000D01*
X89410000Y-83420000D02*
X89410000Y-80100000D01*
X80290000Y-83420000D02*
X89410000Y-83420000D01*
X80290000Y-80100000D02*
X80290000Y-83420000D01*
X65420000Y-79210000D02*
X68740000Y-79210000D01*
X68740000Y-79210000D02*
X68740000Y-70090000D01*
X68740000Y-70090000D02*
X65420000Y-70090000D01*
X65420000Y-70090000D02*
X65420000Y-79210000D01*
X67080000Y-80020000D02*
X67080000Y-79210000D01*
X67080000Y-69280000D02*
X67080000Y-70090000D01*
X62640000Y-80000000D02*
X62640000Y-79190000D01*
X62640000Y-69260000D02*
X62640000Y-70070000D01*
X64300000Y-79190000D02*
X64300000Y-70070000D01*
X60980000Y-79190000D02*
X64300000Y-79190000D01*
X60980000Y-70070000D02*
X60980000Y-79190000D01*
X64300000Y-70070000D02*
X60980000Y-70070000D01*
X71460000Y-79990000D02*
X71460000Y-79180000D01*
X71460000Y-69250000D02*
X71460000Y-70060000D01*
X73120000Y-79180000D02*
X73120000Y-70060000D01*
X69800000Y-79180000D02*
X73120000Y-79180000D01*
X69800000Y-70060000D02*
X69800000Y-79180000D01*
X73120000Y-70060000D02*
X69800000Y-70060000D01*
X46850000Y-57180000D02*
X46850000Y-56370000D01*
X46850000Y-46440000D02*
X46850000Y-47250000D01*
X48510000Y-56370000D02*
X48510000Y-47250000D01*
X45190000Y-56370000D02*
X48510000Y-56370000D01*
X45190000Y-47250000D02*
X45190000Y-56370000D01*
X48510000Y-47250000D02*
X45190000Y-47250000D01*
X53450000Y-79260000D02*
X56770000Y-79260000D01*
X56770000Y-79260000D02*
X56770000Y-70140000D01*
X56770000Y-70140000D02*
X53450000Y-70140000D01*
X53450000Y-70140000D02*
X53450000Y-79260000D01*
X55110000Y-80070000D02*
X55110000Y-79260000D01*
X55110000Y-69330000D02*
X55110000Y-70140000D01*
X96360000Y-59620000D02*
X96360000Y-58810000D01*
X96360000Y-48880000D02*
X96360000Y-49690000D01*
X98020000Y-58810000D02*
X98020000Y-49690000D01*
X94700000Y-58810000D02*
X98020000Y-58810000D01*
X94700000Y-49690000D02*
X94700000Y-58810000D01*
X98020000Y-49690000D02*
X94700000Y-49690000D01*
X64450000Y-56420000D02*
X64450000Y-59740000D01*
X64450000Y-59740000D02*
X73570000Y-59740000D01*
X73570000Y-59740000D02*
X73570000Y-56420000D01*
X73570000Y-56420000D02*
X64450000Y-56420000D01*
X63640000Y-58080000D02*
X64450000Y-58080000D01*
X74380000Y-58080000D02*
X73570000Y-58080000D01*
X93750000Y-37240000D02*
X93750000Y-40560000D01*
X93750000Y-40560000D02*
X102870000Y-40560000D01*
X102870000Y-40560000D02*
X102870000Y-37240000D01*
X102870000Y-37240000D02*
X93750000Y-37240000D01*
X92940000Y-38900000D02*
X93750000Y-38900000D01*
X103680000Y-38900000D02*
X102870000Y-38900000D01*
X102860000Y-44810000D02*
X102860000Y-41490000D01*
X102860000Y-41490000D02*
X93740000Y-41490000D01*
X93740000Y-41490000D02*
X93740000Y-44810000D01*
X93740000Y-44810000D02*
X102860000Y-44810000D01*
X103670000Y-43150000D02*
X102860000Y-43150000D01*
X92930000Y-43150000D02*
X93740000Y-43150000D01*
X93480000Y-49690000D02*
X90160000Y-49690000D01*
X90160000Y-49690000D02*
X90160000Y-58810000D01*
X90160000Y-58810000D02*
X93480000Y-58810000D01*
X93480000Y-58810000D02*
X93480000Y-49690000D01*
X91820000Y-48880000D02*
X91820000Y-49690000D01*
X91820000Y-59620000D02*
X91820000Y-58810000D01*
X50600000Y-74170000D02*
X50600000Y-73360000D01*
X50600000Y-63430000D02*
X50600000Y-64240000D01*
X52260000Y-73360000D02*
X52260000Y-64240000D01*
X48940000Y-73360000D02*
X52260000Y-73360000D01*
X48940000Y-64240000D02*
X48940000Y-73360000D01*
X52260000Y-64240000D02*
X48940000Y-64240000D01*
X79450000Y-85800000D02*
X80260000Y-85800000D01*
X90190000Y-85800000D02*
X89380000Y-85800000D01*
X80260000Y-87460000D02*
X89380000Y-87460000D01*
X80260000Y-84140000D02*
X80260000Y-87460000D01*
X89380000Y-84140000D02*
X80260000Y-84140000D01*
X89380000Y-87460000D02*
X89380000Y-84140000D01*
X98000000Y-66420000D02*
X94680000Y-66420000D01*
X94680000Y-66420000D02*
X94680000Y-75540000D01*
X94680000Y-75540000D02*
X98000000Y-75540000D01*
X98000000Y-75540000D02*
X98000000Y-66420000D01*
X96340000Y-65610000D02*
X96340000Y-66420000D01*
X96340000Y-76350000D02*
X96340000Y-75540000D01*
X90150000Y-75530000D02*
X93470000Y-75530000D01*
X93470000Y-75530000D02*
X93470000Y-66410000D01*
X93470000Y-66410000D02*
X90150000Y-66410000D01*
X90150000Y-66410000D02*
X90150000Y-75530000D01*
X91810000Y-76340000D02*
X91810000Y-75530000D01*
X91810000Y-65600000D02*
X91810000Y-66410000D01*
X63650000Y-62510000D02*
X64460000Y-62510000D01*
X74390000Y-62510000D02*
X73580000Y-62510000D01*
X64460000Y-64170000D02*
X73580000Y-64170000D01*
X64460000Y-60850000D02*
X64460000Y-64170000D01*
X73580000Y-60850000D02*
X64460000Y-60850000D01*
X73580000Y-64170000D02*
X73580000Y-60850000D01*
X46930000Y-82430000D02*
X45430000Y-82430000D01*
X42930000Y-83680000D02*
X42930000Y-88180000D01*
X45430000Y-89430000D02*
X46930000Y-89430000D01*
X49430000Y-88180000D02*
X49430000Y-83680000D01*
X59631000Y-50880000D02*
X59631000Y-52390000D01*
X55930000Y-50880000D02*
X55930000Y-52390000D01*
X52660000Y-52390000D02*
X62900000Y-52390000D01*
X62900000Y-50880000D02*
X62900000Y-55521000D01*
X52660000Y-50880000D02*
X52660000Y-55521000D01*
X52660000Y-55521000D02*
X62900000Y-55521000D01*
X52660000Y-50880000D02*
X62900000Y-50880000D01*
X83270000Y-51690000D02*
G75*
G02X81270000Y-51690000I-1000000J0D01*
G01*
X81270000Y-51690000D02*
X80020000Y-51690000D01*
X80020000Y-51690000D02*
X80020000Y-61970000D01*
X80020000Y-61970000D02*
X84520000Y-61970000D01*
X84520000Y-61970000D02*
X84520000Y-51690000D01*
X84520000Y-51690000D02*
X83270000Y-51690000D01*
X84560000Y-66950000D02*
X83310000Y-66950000D01*
X84560000Y-77230000D02*
X84560000Y-66950000D01*
X80060000Y-77230000D02*
X84560000Y-77230000D01*
X80060000Y-66950000D02*
X80060000Y-77230000D01*
X81310000Y-66950000D02*
X80060000Y-66950000D01*
X83310000Y-66950000D02*
G75*
G02X81310000Y-66950000I-1000000J0D01*
G01*
X42226000Y-40950000D02*
G75*
G03X42226000Y-40950000I-2286000J0D01*
G01*
X44836000Y-65030000D02*
G75*
G03X44836000Y-65030000I-2286000J0D01*
G01*
X133196000Y-87030000D02*
G75*
G03X133196000Y-87030000I-2286000J0D01*
G01*
X125076000Y-78440000D02*
G75*
G03X125076000Y-78440000I-2286000J0D01*
G01*
D10*
X124252380Y-77036190D02*
X124252380Y-76845714D01*
X124300000Y-76750476D01*
X124395238Y-76655238D01*
X124585714Y-76607619D01*
X124919047Y-76607619D01*
X125109523Y-76655238D01*
X125204761Y-76750476D01*
X125252380Y-76845714D01*
X125252380Y-77036190D01*
X125204761Y-77131428D01*
X125109523Y-77226666D01*
X124919047Y-77274285D01*
X124585714Y-77274285D01*
X124395238Y-77226666D01*
X124300000Y-77131428D01*
X124252380Y-77036190D01*
X124252380Y-76179047D02*
X125061904Y-76179047D01*
X125157142Y-76131428D01*
X125204761Y-76083809D01*
X125252380Y-75988571D01*
X125252380Y-75798095D01*
X125204761Y-75702857D01*
X125157142Y-75655238D01*
X125061904Y-75607619D01*
X124252380Y-75607619D01*
X124252380Y-75274285D02*
X124252380Y-74702857D01*
X125252380Y-74988571D02*
X124252380Y-74988571D01*
X125252380Y-73845714D02*
X125252380Y-74417142D01*
X125252380Y-74131428D02*
X124252380Y-74131428D01*
X124395238Y-74226666D01*
X124490476Y-74321904D01*
X124538095Y-74417142D01*
X46602380Y-54510000D02*
X45602380Y-54510000D01*
X46602380Y-54033809D02*
X45602380Y-54033809D01*
X46602380Y-53462380D01*
X45602380Y-53462380D01*
X46602380Y-52462380D02*
X46602380Y-53033809D01*
X46602380Y-52748095D02*
X45602380Y-52748095D01*
X45745238Y-52843333D01*
X45840476Y-52938571D01*
X45888095Y-53033809D01*
X38866666Y-92172380D02*
X38533333Y-91696190D01*
X38295238Y-92172380D02*
X38295238Y-91172380D01*
X38676190Y-91172380D01*
X38771428Y-91220000D01*
X38819047Y-91267619D01*
X38866666Y-91362857D01*
X38866666Y-91505714D01*
X38819047Y-91600952D01*
X38771428Y-91648571D01*
X38676190Y-91696190D01*
X38295238Y-91696190D01*
X39295238Y-91648571D02*
X39628571Y-91648571D01*
X39771428Y-92172380D02*
X39295238Y-92172380D01*
X39295238Y-91172380D01*
X39771428Y-91172380D01*
X40533333Y-91648571D02*
X40200000Y-91648571D01*
X40200000Y-92172380D02*
X40200000Y-91172380D01*
X40676190Y-91172380D01*
X41200000Y-91172380D02*
X41200000Y-91410476D01*
X40961904Y-91315238D02*
X41200000Y-91410476D01*
X41438095Y-91315238D01*
X41057142Y-91600952D02*
X41200000Y-91410476D01*
X41342857Y-91600952D01*
X41961904Y-91172380D02*
X41961904Y-91410476D01*
X41723809Y-91315238D02*
X41961904Y-91410476D01*
X42200000Y-91315238D01*
X41819047Y-91600952D02*
X41961904Y-91410476D01*
X42104761Y-91600952D01*
X38866666Y-27462380D02*
X38533333Y-26986190D01*
X38295238Y-27462380D02*
X38295238Y-26462380D01*
X38676190Y-26462380D01*
X38771428Y-26510000D01*
X38819047Y-26557619D01*
X38866666Y-26652857D01*
X38866666Y-26795714D01*
X38819047Y-26890952D01*
X38771428Y-26938571D01*
X38676190Y-26986190D01*
X38295238Y-26986190D01*
X39295238Y-26938571D02*
X39628571Y-26938571D01*
X39771428Y-27462380D02*
X39295238Y-27462380D01*
X39295238Y-26462380D01*
X39771428Y-26462380D01*
X40533333Y-26938571D02*
X40200000Y-26938571D01*
X40200000Y-27462380D02*
X40200000Y-26462380D01*
X40676190Y-26462380D01*
X41200000Y-26462380D02*
X41200000Y-26700476D01*
X40961904Y-26605238D02*
X41200000Y-26700476D01*
X41438095Y-26605238D01*
X41057142Y-26890952D02*
X41200000Y-26700476D01*
X41342857Y-26890952D01*
X41961904Y-26462380D02*
X41961904Y-26700476D01*
X41723809Y-26605238D02*
X41961904Y-26700476D01*
X42200000Y-26605238D01*
X41819047Y-26890952D02*
X41961904Y-26700476D01*
X42104761Y-26890952D01*
X129346666Y-27462380D02*
X129013333Y-26986190D01*
X128775238Y-27462380D02*
X128775238Y-26462380D01*
X129156190Y-26462380D01*
X129251428Y-26510000D01*
X129299047Y-26557619D01*
X129346666Y-26652857D01*
X129346666Y-26795714D01*
X129299047Y-26890952D01*
X129251428Y-26938571D01*
X129156190Y-26986190D01*
X128775238Y-26986190D01*
X129775238Y-26938571D02*
X130108571Y-26938571D01*
X130251428Y-27462380D02*
X129775238Y-27462380D01*
X129775238Y-26462380D01*
X130251428Y-26462380D01*
X131013333Y-26938571D02*
X130680000Y-26938571D01*
X130680000Y-27462380D02*
X130680000Y-26462380D01*
X131156190Y-26462380D01*
X131680000Y-26462380D02*
X131680000Y-26700476D01*
X131441904Y-26605238D02*
X131680000Y-26700476D01*
X131918095Y-26605238D01*
X131537142Y-26890952D02*
X131680000Y-26700476D01*
X131822857Y-26890952D01*
X132441904Y-26462380D02*
X132441904Y-26700476D01*
X132203809Y-26605238D02*
X132441904Y-26700476D01*
X132680000Y-26605238D01*
X132299047Y-26890952D02*
X132441904Y-26700476D01*
X132584761Y-26890952D01*
X102904761Y-33547619D02*
X102809523Y-33500000D01*
X102714285Y-33404761D01*
X102571428Y-33261904D01*
X102476190Y-33214285D01*
X102380952Y-33214285D01*
X102428571Y-33452380D02*
X102333333Y-33404761D01*
X102238095Y-33309523D01*
X102190476Y-33119047D01*
X102190476Y-32785714D01*
X102238095Y-32595238D01*
X102333333Y-32500000D01*
X102428571Y-32452380D01*
X102619047Y-32452380D01*
X102714285Y-32500000D01*
X102809523Y-32595238D01*
X102857142Y-32785714D01*
X102857142Y-33119047D01*
X102809523Y-33309523D01*
X102714285Y-33404761D01*
X102619047Y-33452380D01*
X102428571Y-33452380D01*
X103238095Y-32547619D02*
X103285714Y-32500000D01*
X103380952Y-32452380D01*
X103619047Y-32452380D01*
X103714285Y-32500000D01*
X103761904Y-32547619D01*
X103809523Y-32642857D01*
X103809523Y-32738095D01*
X103761904Y-32880952D01*
X103190476Y-33452380D01*
X103809523Y-33452380D01*
X77024761Y-92217619D02*
X76929523Y-92170000D01*
X76834285Y-92074761D01*
X76691428Y-91931904D01*
X76596190Y-91884285D01*
X76500952Y-91884285D01*
X76548571Y-92122380D02*
X76453333Y-92074761D01*
X76358095Y-91979523D01*
X76310476Y-91789047D01*
X76310476Y-91455714D01*
X76358095Y-91265238D01*
X76453333Y-91170000D01*
X76548571Y-91122380D01*
X76739047Y-91122380D01*
X76834285Y-91170000D01*
X76929523Y-91265238D01*
X76977142Y-91455714D01*
X76977142Y-91789047D01*
X76929523Y-91979523D01*
X76834285Y-92074761D01*
X76739047Y-92122380D01*
X76548571Y-92122380D01*
X77929523Y-92122380D02*
X77358095Y-92122380D01*
X77643809Y-92122380D02*
X77643809Y-91122380D01*
X77548571Y-91265238D01*
X77453333Y-91360476D01*
X77358095Y-91408095D01*
X57351904Y-39072380D02*
X57351904Y-38072380D01*
X57590000Y-38072380D01*
X57732857Y-38120000D01*
X57828095Y-38215238D01*
X57875714Y-38310476D01*
X57923333Y-38500952D01*
X57923333Y-38643809D01*
X57875714Y-38834285D01*
X57828095Y-38929523D01*
X57732857Y-39024761D01*
X57590000Y-39072380D01*
X57351904Y-39072380D01*
X58780476Y-38072380D02*
X58590000Y-38072380D01*
X58494761Y-38120000D01*
X58447142Y-38167619D01*
X58351904Y-38310476D01*
X58304285Y-38500952D01*
X58304285Y-38881904D01*
X58351904Y-38977142D01*
X58399523Y-39024761D01*
X58494761Y-39072380D01*
X58685238Y-39072380D01*
X58780476Y-39024761D01*
X58828095Y-38977142D01*
X58875714Y-38881904D01*
X58875714Y-38643809D01*
X58828095Y-38548571D01*
X58780476Y-38500952D01*
X58685238Y-38453333D01*
X58494761Y-38453333D01*
X58399523Y-38500952D01*
X58351904Y-38548571D01*
X58304285Y-38643809D01*
X127152380Y-45088095D02*
X126152380Y-45088095D01*
X126152380Y-44850000D01*
X126200000Y-44707142D01*
X126295238Y-44611904D01*
X126390476Y-44564285D01*
X126580952Y-44516666D01*
X126723809Y-44516666D01*
X126914285Y-44564285D01*
X127009523Y-44611904D01*
X127104761Y-44707142D01*
X127152380Y-44850000D01*
X127152380Y-45088095D01*
X127152380Y-43564285D02*
X127152380Y-44135714D01*
X127152380Y-43850000D02*
X126152380Y-43850000D01*
X126295238Y-43945238D01*
X126390476Y-44040476D01*
X126438095Y-44135714D01*
X110452380Y-87268095D02*
X109452380Y-87268095D01*
X109452380Y-87030000D01*
X109500000Y-86887142D01*
X109595238Y-86791904D01*
X109690476Y-86744285D01*
X109880952Y-86696666D01*
X110023809Y-86696666D01*
X110214285Y-86744285D01*
X110309523Y-86791904D01*
X110404761Y-86887142D01*
X110452380Y-87030000D01*
X110452380Y-87268095D01*
X109547619Y-86315714D02*
X109500000Y-86268095D01*
X109452380Y-86172857D01*
X109452380Y-85934761D01*
X109500000Y-85839523D01*
X109547619Y-85791904D01*
X109642857Y-85744285D01*
X109738095Y-85744285D01*
X109880952Y-85791904D01*
X110452380Y-86363333D01*
X110452380Y-85744285D01*
X118427142Y-82566666D02*
X118474761Y-82614285D01*
X118522380Y-82757142D01*
X118522380Y-82852380D01*
X118474761Y-82995238D01*
X118379523Y-83090476D01*
X118284285Y-83138095D01*
X118093809Y-83185714D01*
X117950952Y-83185714D01*
X117760476Y-83138095D01*
X117665238Y-83090476D01*
X117570000Y-82995238D01*
X117522380Y-82852380D01*
X117522380Y-82757142D01*
X117570000Y-82614285D01*
X117617619Y-82566666D01*
X118522380Y-81614285D02*
X118522380Y-82185714D01*
X118522380Y-81900000D02*
X117522380Y-81900000D01*
X117665238Y-81995238D01*
X117760476Y-82090476D01*
X117808095Y-82185714D01*
X104233333Y-59067142D02*
X104185714Y-59114761D01*
X104042857Y-59162380D01*
X103947619Y-59162380D01*
X103804761Y-59114761D01*
X103709523Y-59019523D01*
X103661904Y-58924285D01*
X103614285Y-58733809D01*
X103614285Y-58590952D01*
X103661904Y-58400476D01*
X103709523Y-58305238D01*
X103804761Y-58210000D01*
X103947619Y-58162380D01*
X104042857Y-58162380D01*
X104185714Y-58210000D01*
X104233333Y-58257619D01*
X104614285Y-58257619D02*
X104661904Y-58210000D01*
X104757142Y-58162380D01*
X104995238Y-58162380D01*
X105090476Y-58210000D01*
X105138095Y-58257619D01*
X105185714Y-58352857D01*
X105185714Y-58448095D01*
X105138095Y-58590952D01*
X104566666Y-59162380D01*
X105185714Y-59162380D01*
X64397142Y-55036666D02*
X64444761Y-55084285D01*
X64492380Y-55227142D01*
X64492380Y-55322380D01*
X64444761Y-55465238D01*
X64349523Y-55560476D01*
X64254285Y-55608095D01*
X64063809Y-55655714D01*
X63920952Y-55655714D01*
X63730476Y-55608095D01*
X63635238Y-55560476D01*
X63540000Y-55465238D01*
X63492380Y-55322380D01*
X63492380Y-55227142D01*
X63540000Y-55084285D01*
X63587619Y-55036666D01*
X63492380Y-54703333D02*
X63492380Y-54084285D01*
X63873333Y-54417619D01*
X63873333Y-54274761D01*
X63920952Y-54179523D01*
X63968571Y-54131904D01*
X64063809Y-54084285D01*
X64301904Y-54084285D01*
X64397142Y-54131904D01*
X64444761Y-54179523D01*
X64492380Y-54274761D01*
X64492380Y-54560476D01*
X64444761Y-54655714D01*
X64397142Y-54703333D01*
X80903333Y-43687142D02*
X80855714Y-43734761D01*
X80712857Y-43782380D01*
X80617619Y-43782380D01*
X80474761Y-43734761D01*
X80379523Y-43639523D01*
X80331904Y-43544285D01*
X80284285Y-43353809D01*
X80284285Y-43210952D01*
X80331904Y-43020476D01*
X80379523Y-42925238D01*
X80474761Y-42830000D01*
X80617619Y-42782380D01*
X80712857Y-42782380D01*
X80855714Y-42830000D01*
X80903333Y-42877619D01*
X81760476Y-43115714D02*
X81760476Y-43782380D01*
X81522380Y-42734761D02*
X81284285Y-43449047D01*
X81903333Y-43449047D01*
X98497142Y-67106666D02*
X98544761Y-67154285D01*
X98592380Y-67297142D01*
X98592380Y-67392380D01*
X98544761Y-67535238D01*
X98449523Y-67630476D01*
X98354285Y-67678095D01*
X98163809Y-67725714D01*
X98020952Y-67725714D01*
X97830476Y-67678095D01*
X97735238Y-67630476D01*
X97640000Y-67535238D01*
X97592380Y-67392380D01*
X97592380Y-67297142D01*
X97640000Y-67154285D01*
X97687619Y-67106666D01*
X97592380Y-66201904D02*
X97592380Y-66678095D01*
X98068571Y-66725714D01*
X98020952Y-66678095D01*
X97973333Y-66582857D01*
X97973333Y-66344761D01*
X98020952Y-66249523D01*
X98068571Y-66201904D01*
X98163809Y-66154285D01*
X98401904Y-66154285D01*
X98497142Y-66201904D01*
X98544761Y-66249523D01*
X98592380Y-66344761D01*
X98592380Y-66582857D01*
X98544761Y-66678095D01*
X98497142Y-66725714D01*
X64497142Y-41446666D02*
X64544761Y-41494285D01*
X64592380Y-41637142D01*
X64592380Y-41732380D01*
X64544761Y-41875238D01*
X64449523Y-41970476D01*
X64354285Y-42018095D01*
X64163809Y-42065714D01*
X64020952Y-42065714D01*
X63830476Y-42018095D01*
X63735238Y-41970476D01*
X63640000Y-41875238D01*
X63592380Y-41732380D01*
X63592380Y-41637142D01*
X63640000Y-41494285D01*
X63687619Y-41446666D01*
X63592380Y-41113333D02*
X63592380Y-40446666D01*
X64592380Y-40875238D01*
X121152380Y-44998095D02*
X120152380Y-44998095D01*
X120152380Y-44760000D01*
X120200000Y-44617142D01*
X120295238Y-44521904D01*
X120390476Y-44474285D01*
X120580952Y-44426666D01*
X120723809Y-44426666D01*
X120914285Y-44474285D01*
X121009523Y-44521904D01*
X121104761Y-44617142D01*
X121152380Y-44760000D01*
X121152380Y-44998095D01*
X121152380Y-43474285D02*
X121152380Y-44045714D01*
X121152380Y-43760000D02*
X120152380Y-43760000D01*
X120295238Y-43855238D01*
X120390476Y-43950476D01*
X120438095Y-44045714D01*
X103752380Y-87308095D02*
X102752380Y-87308095D01*
X102752380Y-87070000D01*
X102800000Y-86927142D01*
X102895238Y-86831904D01*
X102990476Y-86784285D01*
X103180952Y-86736666D01*
X103323809Y-86736666D01*
X103514285Y-86784285D01*
X103609523Y-86831904D01*
X103704761Y-86927142D01*
X103752380Y-87070000D01*
X103752380Y-87308095D01*
X102847619Y-86355714D02*
X102800000Y-86308095D01*
X102752380Y-86212857D01*
X102752380Y-85974761D01*
X102800000Y-85879523D01*
X102847619Y-85831904D01*
X102942857Y-85784285D01*
X103038095Y-85784285D01*
X103180952Y-85831904D01*
X103752380Y-86403333D01*
X103752380Y-85784285D01*
X82831904Y-41662380D02*
X82831904Y-40662380D01*
X83070000Y-40662380D01*
X83212857Y-40710000D01*
X83308095Y-40805238D01*
X83355714Y-40900476D01*
X83403333Y-41090952D01*
X83403333Y-41233809D01*
X83355714Y-41424285D01*
X83308095Y-41519523D01*
X83212857Y-41614761D01*
X83070000Y-41662380D01*
X82831904Y-41662380D01*
X83736666Y-40662380D02*
X84355714Y-40662380D01*
X84022380Y-41043333D01*
X84165238Y-41043333D01*
X84260476Y-41090952D01*
X84308095Y-41138571D01*
X84355714Y-41233809D01*
X84355714Y-41471904D01*
X84308095Y-41567142D01*
X84260476Y-41614761D01*
X84165238Y-41662380D01*
X83879523Y-41662380D01*
X83784285Y-41614761D01*
X83736666Y-41567142D01*
X52522380Y-88708095D02*
X51522380Y-88708095D01*
X51522380Y-88470000D01*
X51570000Y-88327142D01*
X51665238Y-88231904D01*
X51760476Y-88184285D01*
X51950952Y-88136666D01*
X52093809Y-88136666D01*
X52284285Y-88184285D01*
X52379523Y-88231904D01*
X52474761Y-88327142D01*
X52522380Y-88470000D01*
X52522380Y-88708095D01*
X51855714Y-87279523D02*
X52522380Y-87279523D01*
X51474761Y-87517619D02*
X52189047Y-87755714D01*
X52189047Y-87136666D01*
X53522380Y-48418095D02*
X52522380Y-48418095D01*
X52522380Y-48180000D01*
X52570000Y-48037142D01*
X52665238Y-47941904D01*
X52760476Y-47894285D01*
X52950952Y-47846666D01*
X53093809Y-47846666D01*
X53284285Y-47894285D01*
X53379523Y-47941904D01*
X53474761Y-48037142D01*
X53522380Y-48180000D01*
X53522380Y-48418095D01*
X52522380Y-46941904D02*
X52522380Y-47418095D01*
X52998571Y-47465714D01*
X52950952Y-47418095D01*
X52903333Y-47322857D01*
X52903333Y-47084761D01*
X52950952Y-46989523D01*
X52998571Y-46941904D01*
X53093809Y-46894285D01*
X53331904Y-46894285D01*
X53427142Y-46941904D01*
X53474761Y-46989523D01*
X53522380Y-47084761D01*
X53522380Y-47322857D01*
X53474761Y-47418095D01*
X53427142Y-47465714D01*
X57351904Y-45392380D02*
X57351904Y-44392380D01*
X57590000Y-44392380D01*
X57732857Y-44440000D01*
X57828095Y-44535238D01*
X57875714Y-44630476D01*
X57923333Y-44820952D01*
X57923333Y-44963809D01*
X57875714Y-45154285D01*
X57828095Y-45249523D01*
X57732857Y-45344761D01*
X57590000Y-45392380D01*
X57351904Y-45392380D01*
X58780476Y-44392380D02*
X58590000Y-44392380D01*
X58494761Y-44440000D01*
X58447142Y-44487619D01*
X58351904Y-44630476D01*
X58304285Y-44820952D01*
X58304285Y-45201904D01*
X58351904Y-45297142D01*
X58399523Y-45344761D01*
X58494761Y-45392380D01*
X58685238Y-45392380D01*
X58780476Y-45344761D01*
X58828095Y-45297142D01*
X58875714Y-45201904D01*
X58875714Y-44963809D01*
X58828095Y-44868571D01*
X58780476Y-44820952D01*
X58685238Y-44773333D01*
X58494761Y-44773333D01*
X58399523Y-44820952D01*
X58351904Y-44868571D01*
X58304285Y-44963809D01*
X97911904Y-82462380D02*
X97911904Y-81462380D01*
X98150000Y-81462380D01*
X98292857Y-81510000D01*
X98388095Y-81605238D01*
X98435714Y-81700476D01*
X98483333Y-81890952D01*
X98483333Y-82033809D01*
X98435714Y-82224285D01*
X98388095Y-82319523D01*
X98292857Y-82414761D01*
X98150000Y-82462380D01*
X97911904Y-82462380D01*
X98816666Y-81462380D02*
X99483333Y-81462380D01*
X99054761Y-82462380D01*
X98231904Y-87132380D02*
X98231904Y-86132380D01*
X98470000Y-86132380D01*
X98612857Y-86180000D01*
X98708095Y-86275238D01*
X98755714Y-86370476D01*
X98803333Y-86560952D01*
X98803333Y-86703809D01*
X98755714Y-86894285D01*
X98708095Y-86989523D01*
X98612857Y-87084761D01*
X98470000Y-87132380D01*
X98231904Y-87132380D01*
X99374761Y-86560952D02*
X99279523Y-86513333D01*
X99231904Y-86465714D01*
X99184285Y-86370476D01*
X99184285Y-86322857D01*
X99231904Y-86227619D01*
X99279523Y-86180000D01*
X99374761Y-86132380D01*
X99565238Y-86132380D01*
X99660476Y-86180000D01*
X99708095Y-86227619D01*
X99755714Y-86322857D01*
X99755714Y-86370476D01*
X99708095Y-86465714D01*
X99660476Y-86513333D01*
X99565238Y-86560952D01*
X99374761Y-86560952D01*
X99279523Y-86608571D01*
X99231904Y-86656190D01*
X99184285Y-86751428D01*
X99184285Y-86941904D01*
X99231904Y-87037142D01*
X99279523Y-87084761D01*
X99374761Y-87132380D01*
X99565238Y-87132380D01*
X99660476Y-87084761D01*
X99708095Y-87037142D01*
X99755714Y-86941904D01*
X99755714Y-86751428D01*
X99708095Y-86656190D01*
X99660476Y-86608571D01*
X99565238Y-86560952D01*
X117972380Y-63066666D02*
X117972380Y-63542857D01*
X116972380Y-63542857D01*
X117972380Y-62209523D02*
X117972380Y-62780952D01*
X117972380Y-62495238D02*
X116972380Y-62495238D01*
X117115238Y-62590476D01*
X117210476Y-62685714D01*
X117258095Y-62780952D01*
X100167619Y-55265238D02*
X100120000Y-55360476D01*
X100024761Y-55455714D01*
X99881904Y-55598571D01*
X99834285Y-55693809D01*
X99834285Y-55789047D01*
X100072380Y-55741428D02*
X100024761Y-55836666D01*
X99929523Y-55931904D01*
X99739047Y-55979523D01*
X99405714Y-55979523D01*
X99215238Y-55931904D01*
X99120000Y-55836666D01*
X99072380Y-55741428D01*
X99072380Y-55550952D01*
X99120000Y-55455714D01*
X99215238Y-55360476D01*
X99405714Y-55312857D01*
X99739047Y-55312857D01*
X99929523Y-55360476D01*
X100024761Y-55455714D01*
X100072380Y-55550952D01*
X100072380Y-55741428D01*
X99072380Y-54979523D02*
X99072380Y-54360476D01*
X99453333Y-54693809D01*
X99453333Y-54550952D01*
X99500952Y-54455714D01*
X99548571Y-54408095D01*
X99643809Y-54360476D01*
X99881904Y-54360476D01*
X99977142Y-54408095D01*
X100024761Y-54455714D01*
X100072380Y-54550952D01*
X100072380Y-54836666D01*
X100024761Y-54931904D01*
X99977142Y-54979523D01*
X110757619Y-36765238D02*
X110710000Y-36860476D01*
X110614761Y-36955714D01*
X110471904Y-37098571D01*
X110424285Y-37193809D01*
X110424285Y-37289047D01*
X110662380Y-37241428D02*
X110614761Y-37336666D01*
X110519523Y-37431904D01*
X110329047Y-37479523D01*
X109995714Y-37479523D01*
X109805238Y-37431904D01*
X109710000Y-37336666D01*
X109662380Y-37241428D01*
X109662380Y-37050952D01*
X109710000Y-36955714D01*
X109805238Y-36860476D01*
X109995714Y-36812857D01*
X110329047Y-36812857D01*
X110519523Y-36860476D01*
X110614761Y-36955714D01*
X110662380Y-37050952D01*
X110662380Y-37241428D01*
X109995714Y-35955714D02*
X110662380Y-35955714D01*
X109614761Y-36193809D02*
X110329047Y-36431904D01*
X110329047Y-35812857D01*
X114147619Y-36765238D02*
X114100000Y-36860476D01*
X114004761Y-36955714D01*
X113861904Y-37098571D01*
X113814285Y-37193809D01*
X113814285Y-37289047D01*
X114052380Y-37241428D02*
X114004761Y-37336666D01*
X113909523Y-37431904D01*
X113719047Y-37479523D01*
X113385714Y-37479523D01*
X113195238Y-37431904D01*
X113100000Y-37336666D01*
X113052380Y-37241428D01*
X113052380Y-37050952D01*
X113100000Y-36955714D01*
X113195238Y-36860476D01*
X113385714Y-36812857D01*
X113719047Y-36812857D01*
X113909523Y-36860476D01*
X114004761Y-36955714D01*
X114052380Y-37050952D01*
X114052380Y-37241428D01*
X113052380Y-35908095D02*
X113052380Y-36384285D01*
X113528571Y-36431904D01*
X113480952Y-36384285D01*
X113433333Y-36289047D01*
X113433333Y-36050952D01*
X113480952Y-35955714D01*
X113528571Y-35908095D01*
X113623809Y-35860476D01*
X113861904Y-35860476D01*
X113957142Y-35908095D01*
X114004761Y-35955714D01*
X114052380Y-36050952D01*
X114052380Y-36289047D01*
X114004761Y-36384285D01*
X113957142Y-36431904D01*
X84463333Y-79522380D02*
X84130000Y-79046190D01*
X83891904Y-79522380D02*
X83891904Y-78522380D01*
X84272857Y-78522380D01*
X84368095Y-78570000D01*
X84415714Y-78617619D01*
X84463333Y-78712857D01*
X84463333Y-78855714D01*
X84415714Y-78950952D01*
X84368095Y-78998571D01*
X84272857Y-79046190D01*
X83891904Y-79046190D01*
X85415714Y-79522380D02*
X84844285Y-79522380D01*
X85130000Y-79522380D02*
X85130000Y-78522380D01*
X85034761Y-78665238D01*
X84939523Y-78760476D01*
X84844285Y-78808095D01*
X64602380Y-74766666D02*
X64126190Y-75100000D01*
X64602380Y-75338095D02*
X63602380Y-75338095D01*
X63602380Y-74957142D01*
X63650000Y-74861904D01*
X63697619Y-74814285D01*
X63792857Y-74766666D01*
X63935714Y-74766666D01*
X64030952Y-74814285D01*
X64078571Y-74861904D01*
X64126190Y-74957142D01*
X64126190Y-75338095D01*
X63697619Y-74385714D02*
X63650000Y-74338095D01*
X63602380Y-74242857D01*
X63602380Y-74004761D01*
X63650000Y-73909523D01*
X63697619Y-73861904D01*
X63792857Y-73814285D01*
X63888095Y-73814285D01*
X64030952Y-73861904D01*
X64602380Y-74433333D01*
X64602380Y-73814285D01*
X66022380Y-68526666D02*
X65546190Y-68860000D01*
X66022380Y-69098095D02*
X65022380Y-69098095D01*
X65022380Y-68717142D01*
X65070000Y-68621904D01*
X65117619Y-68574285D01*
X65212857Y-68526666D01*
X65355714Y-68526666D01*
X65450952Y-68574285D01*
X65498571Y-68621904D01*
X65546190Y-68717142D01*
X65546190Y-69098095D01*
X65022380Y-68193333D02*
X65022380Y-67574285D01*
X65403333Y-67907619D01*
X65403333Y-67764761D01*
X65450952Y-67669523D01*
X65498571Y-67621904D01*
X65593809Y-67574285D01*
X65831904Y-67574285D01*
X65927142Y-67621904D01*
X65974761Y-67669523D01*
X66022380Y-67764761D01*
X66022380Y-68050476D01*
X65974761Y-68145714D01*
X65927142Y-68193333D01*
X74672380Y-74946666D02*
X74196190Y-75280000D01*
X74672380Y-75518095D02*
X73672380Y-75518095D01*
X73672380Y-75137142D01*
X73720000Y-75041904D01*
X73767619Y-74994285D01*
X73862857Y-74946666D01*
X74005714Y-74946666D01*
X74100952Y-74994285D01*
X74148571Y-75041904D01*
X74196190Y-75137142D01*
X74196190Y-75518095D01*
X74005714Y-74089523D02*
X74672380Y-74089523D01*
X73624761Y-74327619D02*
X74339047Y-74565714D01*
X74339047Y-73946666D01*
X44372380Y-58356666D02*
X43896190Y-58690000D01*
X44372380Y-58928095D02*
X43372380Y-58928095D01*
X43372380Y-58547142D01*
X43420000Y-58451904D01*
X43467619Y-58404285D01*
X43562857Y-58356666D01*
X43705714Y-58356666D01*
X43800952Y-58404285D01*
X43848571Y-58451904D01*
X43896190Y-58547142D01*
X43896190Y-58928095D01*
X43372380Y-57451904D02*
X43372380Y-57928095D01*
X43848571Y-57975714D01*
X43800952Y-57928095D01*
X43753333Y-57832857D01*
X43753333Y-57594761D01*
X43800952Y-57499523D01*
X43848571Y-57451904D01*
X43943809Y-57404285D01*
X44181904Y-57404285D01*
X44277142Y-57451904D01*
X44324761Y-57499523D01*
X44372380Y-57594761D01*
X44372380Y-57832857D01*
X44324761Y-57928095D01*
X44277142Y-57975714D01*
X52902380Y-74866666D02*
X52426190Y-75200000D01*
X52902380Y-75438095D02*
X51902380Y-75438095D01*
X51902380Y-75057142D01*
X51950000Y-74961904D01*
X51997619Y-74914285D01*
X52092857Y-74866666D01*
X52235714Y-74866666D01*
X52330952Y-74914285D01*
X52378571Y-74961904D01*
X52426190Y-75057142D01*
X52426190Y-75438095D01*
X51902380Y-74009523D02*
X51902380Y-74200000D01*
X51950000Y-74295238D01*
X51997619Y-74342857D01*
X52140476Y-74438095D01*
X52330952Y-74485714D01*
X52711904Y-74485714D01*
X52807142Y-74438095D01*
X52854761Y-74390476D01*
X52902380Y-74295238D01*
X52902380Y-74104761D01*
X52854761Y-74009523D01*
X52807142Y-73961904D01*
X52711904Y-73914285D01*
X52473809Y-73914285D01*
X52378571Y-73961904D01*
X52330952Y-74009523D01*
X52283333Y-74104761D01*
X52283333Y-74295238D01*
X52330952Y-74390476D01*
X52378571Y-74438095D01*
X52473809Y-74485714D01*
X99922380Y-60666666D02*
X99446190Y-61000000D01*
X99922380Y-61238095D02*
X98922380Y-61238095D01*
X98922380Y-60857142D01*
X98970000Y-60761904D01*
X99017619Y-60714285D01*
X99112857Y-60666666D01*
X99255714Y-60666666D01*
X99350952Y-60714285D01*
X99398571Y-60761904D01*
X99446190Y-60857142D01*
X99446190Y-61238095D01*
X98922380Y-60333333D02*
X98922380Y-59666666D01*
X99922380Y-60095238D01*
X59553333Y-57312380D02*
X59220000Y-56836190D01*
X58981904Y-57312380D02*
X58981904Y-56312380D01*
X59362857Y-56312380D01*
X59458095Y-56360000D01*
X59505714Y-56407619D01*
X59553333Y-56502857D01*
X59553333Y-56645714D01*
X59505714Y-56740952D01*
X59458095Y-56788571D01*
X59362857Y-56836190D01*
X58981904Y-56836190D01*
X60124761Y-56740952D02*
X60029523Y-56693333D01*
X59981904Y-56645714D01*
X59934285Y-56550476D01*
X59934285Y-56502857D01*
X59981904Y-56407619D01*
X60029523Y-56360000D01*
X60124761Y-56312380D01*
X60315238Y-56312380D01*
X60410476Y-56360000D01*
X60458095Y-56407619D01*
X60505714Y-56502857D01*
X60505714Y-56550476D01*
X60458095Y-56645714D01*
X60410476Y-56693333D01*
X60315238Y-56740952D01*
X60124761Y-56740952D01*
X60029523Y-56788571D01*
X59981904Y-56836190D01*
X59934285Y-56931428D01*
X59934285Y-57121904D01*
X59981904Y-57217142D01*
X60029523Y-57264761D01*
X60124761Y-57312380D01*
X60315238Y-57312380D01*
X60410476Y-57264761D01*
X60458095Y-57217142D01*
X60505714Y-57121904D01*
X60505714Y-56931428D01*
X60458095Y-56836190D01*
X60410476Y-56788571D01*
X60315238Y-56740952D01*
X91893333Y-36302380D02*
X91560000Y-35826190D01*
X91321904Y-36302380D02*
X91321904Y-35302380D01*
X91702857Y-35302380D01*
X91798095Y-35350000D01*
X91845714Y-35397619D01*
X91893333Y-35492857D01*
X91893333Y-35635714D01*
X91845714Y-35730952D01*
X91798095Y-35778571D01*
X91702857Y-35826190D01*
X91321904Y-35826190D01*
X92369523Y-36302380D02*
X92560000Y-36302380D01*
X92655238Y-36254761D01*
X92702857Y-36207142D01*
X92798095Y-36064285D01*
X92845714Y-35873809D01*
X92845714Y-35492857D01*
X92798095Y-35397619D01*
X92750476Y-35350000D01*
X92655238Y-35302380D01*
X92464761Y-35302380D01*
X92369523Y-35350000D01*
X92321904Y-35397619D01*
X92274285Y-35492857D01*
X92274285Y-35730952D01*
X92321904Y-35826190D01*
X92369523Y-35873809D01*
X92464761Y-35921428D01*
X92655238Y-35921428D01*
X92750476Y-35873809D01*
X92798095Y-35826190D01*
X92845714Y-35730952D01*
X88597142Y-43592380D02*
X88263809Y-43116190D01*
X88025714Y-43592380D02*
X88025714Y-42592380D01*
X88406666Y-42592380D01*
X88501904Y-42640000D01*
X88549523Y-42687619D01*
X88597142Y-42782857D01*
X88597142Y-42925714D01*
X88549523Y-43020952D01*
X88501904Y-43068571D01*
X88406666Y-43116190D01*
X88025714Y-43116190D01*
X89549523Y-43592380D02*
X88978095Y-43592380D01*
X89263809Y-43592380D02*
X89263809Y-42592380D01*
X89168571Y-42735238D01*
X89073333Y-42830476D01*
X88978095Y-42878095D01*
X90168571Y-42592380D02*
X90263809Y-42592380D01*
X90359047Y-42640000D01*
X90406666Y-42687619D01*
X90454285Y-42782857D01*
X90501904Y-42973333D01*
X90501904Y-43211428D01*
X90454285Y-43401904D01*
X90406666Y-43497142D01*
X90359047Y-43544761D01*
X90263809Y-43592380D01*
X90168571Y-43592380D01*
X90073333Y-43544761D01*
X90025714Y-43497142D01*
X89978095Y-43401904D01*
X89930476Y-43211428D01*
X89930476Y-42973333D01*
X89978095Y-42782857D01*
X90025714Y-42687619D01*
X90073333Y-42640000D01*
X90168571Y-42592380D01*
X89242380Y-60582857D02*
X88766190Y-60916190D01*
X89242380Y-61154285D02*
X88242380Y-61154285D01*
X88242380Y-60773333D01*
X88290000Y-60678095D01*
X88337619Y-60630476D01*
X88432857Y-60582857D01*
X88575714Y-60582857D01*
X88670952Y-60630476D01*
X88718571Y-60678095D01*
X88766190Y-60773333D01*
X88766190Y-61154285D01*
X89242380Y-59630476D02*
X89242380Y-60201904D01*
X89242380Y-59916190D02*
X88242380Y-59916190D01*
X88385238Y-60011428D01*
X88480476Y-60106666D01*
X88528095Y-60201904D01*
X89242380Y-58678095D02*
X89242380Y-59249523D01*
X89242380Y-58963809D02*
X88242380Y-58963809D01*
X88385238Y-59059047D01*
X88480476Y-59154285D01*
X88528095Y-59249523D01*
X47972380Y-75802857D02*
X47496190Y-76136190D01*
X47972380Y-76374285D02*
X46972380Y-76374285D01*
X46972380Y-75993333D01*
X47020000Y-75898095D01*
X47067619Y-75850476D01*
X47162857Y-75802857D01*
X47305714Y-75802857D01*
X47400952Y-75850476D01*
X47448571Y-75898095D01*
X47496190Y-75993333D01*
X47496190Y-76374285D01*
X47972380Y-74850476D02*
X47972380Y-75421904D01*
X47972380Y-75136190D02*
X46972380Y-75136190D01*
X47115238Y-75231428D01*
X47210476Y-75326666D01*
X47258095Y-75421904D01*
X47067619Y-74469523D02*
X47020000Y-74421904D01*
X46972380Y-74326666D01*
X46972380Y-74088571D01*
X47020000Y-73993333D01*
X47067619Y-73945714D01*
X47162857Y-73898095D01*
X47258095Y-73898095D01*
X47400952Y-73945714D01*
X47972380Y-74517142D01*
X47972380Y-73898095D01*
X83987142Y-89202380D02*
X83653809Y-88726190D01*
X83415714Y-89202380D02*
X83415714Y-88202380D01*
X83796666Y-88202380D01*
X83891904Y-88250000D01*
X83939523Y-88297619D01*
X83987142Y-88392857D01*
X83987142Y-88535714D01*
X83939523Y-88630952D01*
X83891904Y-88678571D01*
X83796666Y-88726190D01*
X83415714Y-88726190D01*
X84939523Y-89202380D02*
X84368095Y-89202380D01*
X84653809Y-89202380D02*
X84653809Y-88202380D01*
X84558571Y-88345238D01*
X84463333Y-88440476D01*
X84368095Y-88488095D01*
X85272857Y-88202380D02*
X85891904Y-88202380D01*
X85558571Y-88583333D01*
X85701428Y-88583333D01*
X85796666Y-88630952D01*
X85844285Y-88678571D01*
X85891904Y-88773809D01*
X85891904Y-89011904D01*
X85844285Y-89107142D01*
X85796666Y-89154761D01*
X85701428Y-89202380D01*
X85415714Y-89202380D01*
X85320476Y-89154761D01*
X85272857Y-89107142D01*
X99532380Y-77652857D02*
X99056190Y-77986190D01*
X99532380Y-78224285D02*
X98532380Y-78224285D01*
X98532380Y-77843333D01*
X98580000Y-77748095D01*
X98627619Y-77700476D01*
X98722857Y-77652857D01*
X98865714Y-77652857D01*
X98960952Y-77700476D01*
X99008571Y-77748095D01*
X99056190Y-77843333D01*
X99056190Y-78224285D01*
X99532380Y-76700476D02*
X99532380Y-77271904D01*
X99532380Y-76986190D02*
X98532380Y-76986190D01*
X98675238Y-77081428D01*
X98770476Y-77176666D01*
X98818095Y-77271904D01*
X98865714Y-75843333D02*
X99532380Y-75843333D01*
X98484761Y-76081428D02*
X99199047Y-76319523D01*
X99199047Y-75700476D01*
X89522380Y-77722857D02*
X89046190Y-78056190D01*
X89522380Y-78294285D02*
X88522380Y-78294285D01*
X88522380Y-77913333D01*
X88570000Y-77818095D01*
X88617619Y-77770476D01*
X88712857Y-77722857D01*
X88855714Y-77722857D01*
X88950952Y-77770476D01*
X88998571Y-77818095D01*
X89046190Y-77913333D01*
X89046190Y-78294285D01*
X89522380Y-76770476D02*
X89522380Y-77341904D01*
X89522380Y-77056190D02*
X88522380Y-77056190D01*
X88665238Y-77151428D01*
X88760476Y-77246666D01*
X88808095Y-77341904D01*
X88522380Y-75865714D02*
X88522380Y-76341904D01*
X88998571Y-76389523D01*
X88950952Y-76341904D01*
X88903333Y-76246666D01*
X88903333Y-76008571D01*
X88950952Y-75913333D01*
X88998571Y-75865714D01*
X89093809Y-75818095D01*
X89331904Y-75818095D01*
X89427142Y-75865714D01*
X89474761Y-75913333D01*
X89522380Y-76008571D01*
X89522380Y-76246666D01*
X89474761Y-76341904D01*
X89427142Y-76389523D01*
X59037142Y-61852380D02*
X58703809Y-61376190D01*
X58465714Y-61852380D02*
X58465714Y-60852380D01*
X58846666Y-60852380D01*
X58941904Y-60900000D01*
X58989523Y-60947619D01*
X59037142Y-61042857D01*
X59037142Y-61185714D01*
X58989523Y-61280952D01*
X58941904Y-61328571D01*
X58846666Y-61376190D01*
X58465714Y-61376190D01*
X59989523Y-61852380D02*
X59418095Y-61852380D01*
X59703809Y-61852380D02*
X59703809Y-60852380D01*
X59608571Y-60995238D01*
X59513333Y-61090476D01*
X59418095Y-61138095D01*
X60846666Y-60852380D02*
X60656190Y-60852380D01*
X60560952Y-60900000D01*
X60513333Y-60947619D01*
X60418095Y-61090476D01*
X60370476Y-61280952D01*
X60370476Y-61661904D01*
X60418095Y-61757142D01*
X60465714Y-61804761D01*
X60560952Y-61852380D01*
X60751428Y-61852380D01*
X60846666Y-61804761D01*
X60894285Y-61757142D01*
X60941904Y-61661904D01*
X60941904Y-61423809D01*
X60894285Y-61328571D01*
X60846666Y-61280952D01*
X60751428Y-61233333D01*
X60560952Y-61233333D01*
X60465714Y-61280952D01*
X60418095Y-61328571D01*
X60370476Y-61423809D01*
X41714761Y-87433333D02*
X41762380Y-87290476D01*
X41762380Y-87052380D01*
X41714761Y-86957142D01*
X41667142Y-86909523D01*
X41571904Y-86861904D01*
X41476666Y-86861904D01*
X41381428Y-86909523D01*
X41333809Y-86957142D01*
X41286190Y-87052380D01*
X41238571Y-87242857D01*
X41190952Y-87338095D01*
X41143333Y-87385714D01*
X41048095Y-87433333D01*
X40952857Y-87433333D01*
X40857619Y-87385714D01*
X40810000Y-87338095D01*
X40762380Y-87242857D01*
X40762380Y-87004761D01*
X40810000Y-86861904D01*
X40762380Y-86528571D02*
X41762380Y-86290476D01*
X41048095Y-86100000D01*
X41762380Y-85909523D01*
X40762380Y-85671428D01*
X41762380Y-84766666D02*
X41762380Y-85338095D01*
X41762380Y-85052380D02*
X40762380Y-85052380D01*
X40905238Y-85147619D01*
X41000476Y-85242857D01*
X41048095Y-85338095D01*
X57018095Y-49332380D02*
X57018095Y-50141904D01*
X57065714Y-50237142D01*
X57113333Y-50284761D01*
X57208571Y-50332380D01*
X57399047Y-50332380D01*
X57494285Y-50284761D01*
X57541904Y-50237142D01*
X57589523Y-50141904D01*
X57589523Y-49332380D01*
X58589523Y-50332380D02*
X58018095Y-50332380D01*
X58303809Y-50332380D02*
X58303809Y-49332380D01*
X58208571Y-49475238D01*
X58113333Y-49570476D01*
X58018095Y-49618095D01*
X81508095Y-50142380D02*
X81508095Y-50951904D01*
X81555714Y-51047142D01*
X81603333Y-51094761D01*
X81698571Y-51142380D01*
X81889047Y-51142380D01*
X81984285Y-51094761D01*
X82031904Y-51047142D01*
X82079523Y-50951904D01*
X82079523Y-50142380D01*
X82508095Y-50237619D02*
X82555714Y-50190000D01*
X82650952Y-50142380D01*
X82889047Y-50142380D01*
X82984285Y-50190000D01*
X83031904Y-50237619D01*
X83079523Y-50332857D01*
X83079523Y-50428095D01*
X83031904Y-50570952D01*
X82460476Y-51142380D01*
X83079523Y-51142380D01*
X81548095Y-65402380D02*
X81548095Y-66211904D01*
X81595714Y-66307142D01*
X81643333Y-66354761D01*
X81738571Y-66402380D01*
X81929047Y-66402380D01*
X82024285Y-66354761D01*
X82071904Y-66307142D01*
X82119523Y-66211904D01*
X82119523Y-65402380D01*
X82500476Y-65402380D02*
X83119523Y-65402380D01*
X82786190Y-65783333D01*
X82929047Y-65783333D01*
X83024285Y-65830952D01*
X83071904Y-65878571D01*
X83119523Y-65973809D01*
X83119523Y-66211904D01*
X83071904Y-66307142D01*
X83024285Y-66354761D01*
X82929047Y-66402380D01*
X82643333Y-66402380D01*
X82548095Y-66354761D01*
X82500476Y-66307142D01*
X38797142Y-38354380D02*
X38797142Y-37354380D01*
X39273333Y-38354380D02*
X39273333Y-37354380D01*
X39844761Y-38354380D01*
X39844761Y-37354380D01*
X40320952Y-37973428D02*
X41082857Y-37973428D01*
X40701904Y-38354380D02*
X40701904Y-37592476D01*
X41407142Y-62434380D02*
X41407142Y-61434380D01*
X41883333Y-62434380D02*
X41883333Y-61434380D01*
X42454761Y-62434380D01*
X42454761Y-61434380D01*
X42930952Y-62053428D02*
X43692857Y-62053428D01*
X129290952Y-83434380D02*
X129481428Y-83434380D01*
X129576666Y-83482000D01*
X129671904Y-83577238D01*
X129719523Y-83767714D01*
X129719523Y-84101047D01*
X129671904Y-84291523D01*
X129576666Y-84386761D01*
X129481428Y-84434380D01*
X129290952Y-84434380D01*
X129195714Y-84386761D01*
X129100476Y-84291523D01*
X129052857Y-84101047D01*
X129052857Y-83767714D01*
X129100476Y-83577238D01*
X129195714Y-83482000D01*
X129290952Y-83434380D01*
X130148095Y-83434380D02*
X130148095Y-84243904D01*
X130195714Y-84339142D01*
X130243333Y-84386761D01*
X130338571Y-84434380D01*
X130529047Y-84434380D01*
X130624285Y-84386761D01*
X130671904Y-84339142D01*
X130719523Y-84243904D01*
X130719523Y-83434380D01*
X131052857Y-83434380D02*
X131624285Y-83434380D01*
X131338571Y-84434380D02*
X131338571Y-83434380D01*
X131957619Y-84053428D02*
X132719523Y-84053428D01*
X121170952Y-74844380D02*
X121361428Y-74844380D01*
X121456666Y-74892000D01*
X121551904Y-74987238D01*
X121599523Y-75177714D01*
X121599523Y-75511047D01*
X121551904Y-75701523D01*
X121456666Y-75796761D01*
X121361428Y-75844380D01*
X121170952Y-75844380D01*
X121075714Y-75796761D01*
X120980476Y-75701523D01*
X120932857Y-75511047D01*
X120932857Y-75177714D01*
X120980476Y-74987238D01*
X121075714Y-74892000D01*
X121170952Y-74844380D01*
X122028095Y-74844380D02*
X122028095Y-75653904D01*
X122075714Y-75749142D01*
X122123333Y-75796761D01*
X122218571Y-75844380D01*
X122409047Y-75844380D01*
X122504285Y-75796761D01*
X122551904Y-75749142D01*
X122599523Y-75653904D01*
X122599523Y-74844380D01*
X122932857Y-74844380D02*
X123504285Y-74844380D01*
X123218571Y-75844380D02*
X123218571Y-74844380D01*
X123837619Y-75463428D02*
X124599523Y-75463428D01*
X124218571Y-75844380D02*
X124218571Y-75082476D01*
M02*
