G04 #@! TF.GenerationSoftware,KiCad,Pcbnew,9.0.6*
G04 #@! TF.CreationDate,2025-12-03T00:01:16+09:00*
G04 #@! TF.ProjectId,12f683MPPT,31326636-3833-44d5-9050-542e6b696361,rev?*
G04 #@! TF.SameCoordinates,Original*
G04 #@! TF.FileFunction,Copper,L2,Bot*
G04 #@! TF.FilePolarity,Positive*
%FSLAX46Y46*%
G04 Gerber Fmt 4.6, Leading zero omitted, Abs format (unit mm)*
G04 Created by KiCad (PCBNEW 9.0.6) date 2025-12-03 00:01:16*
%MOMM*%
%LPD*%
G01*
G04 APERTURE LIST*
G04 Aperture macros list*
%AMRoundRect*
0 Rectangle with rounded corners*
0 $1 Rounding radius*
0 $2 $3 $4 $5 $6 $7 $8 $9 X,Y pos of 4 corners*
0 Add a 4 corners polygon primitive as box body*
4,1,4,$2,$3,$4,$5,$6,$7,$8,$9,$2,$3,0*
0 Add four circle primitives for the rounded corners*
1,1,$1+$1,$2,$3*
1,1,$1+$1,$4,$5*
1,1,$1+$1,$6,$7*
1,1,$1+$1,$8,$9*
0 Add four rect primitives between the rounded corners*
20,1,$1+$1,$2,$3,$4,$5,0*
20,1,$1+$1,$4,$5,$6,$7,0*
20,1,$1+$1,$6,$7,$8,$9,0*
20,1,$1+$1,$8,$9,$2,$3,0*%
G04 Aperture macros list end*
G04 #@! TA.AperFunction,ComponentPad*
%ADD10RoundRect,0.249999X0.850001X0.850001X-0.850001X0.850001X-0.850001X-0.850001X0.850001X-0.850001X0*%
G04 #@! TD*
G04 #@! TA.AperFunction,ComponentPad*
%ADD11C,2.200000*%
G04 #@! TD*
G04 #@! TA.AperFunction,ComponentPad*
%ADD12RoundRect,0.249999X0.850001X-0.850001X0.850001X0.850001X-0.850001X0.850001X-0.850001X-0.850001X0*%
G04 #@! TD*
G04 #@! TA.AperFunction,ComponentPad*
%ADD13RoundRect,0.249999X-0.850001X0.850001X-0.850001X-0.850001X0.850001X-0.850001X0.850001X0.850001X0*%
G04 #@! TD*
G04 #@! TA.AperFunction,ComponentPad*
%ADD14C,7.500000*%
G04 #@! TD*
G04 #@! TA.AperFunction,ComponentPad*
%ADD15RoundRect,0.250001X-0.949999X0.949999X-0.949999X-0.949999X0.949999X-0.949999X0.949999X0.949999X0*%
G04 #@! TD*
G04 #@! TA.AperFunction,ComponentPad*
%ADD16C,2.400000*%
G04 #@! TD*
G04 #@! TA.AperFunction,ComponentPad*
%ADD17RoundRect,0.250000X-0.550000X-0.550000X0.550000X-0.550000X0.550000X0.550000X-0.550000X0.550000X0*%
G04 #@! TD*
G04 #@! TA.AperFunction,ComponentPad*
%ADD18C,1.600000*%
G04 #@! TD*
G04 #@! TA.AperFunction,ComponentPad*
%ADD19RoundRect,0.250000X0.550000X-0.550000X0.550000X0.550000X-0.550000X0.550000X-0.550000X-0.550000X0*%
G04 #@! TD*
G04 #@! TA.AperFunction,ComponentPad*
%ADD20R,1.800000X1.800000*%
G04 #@! TD*
G04 #@! TA.AperFunction,ComponentPad*
%ADD21C,1.800000*%
G04 #@! TD*
G04 #@! TA.AperFunction,ComponentPad*
%ADD22RoundRect,0.250000X1.350000X1.350000X-1.350000X1.350000X-1.350000X-1.350000X1.350000X-1.350000X0*%
G04 #@! TD*
G04 #@! TA.AperFunction,ComponentPad*
%ADD23C,3.200000*%
G04 #@! TD*
G04 #@! TA.AperFunction,ComponentPad*
%ADD24C,3.000000*%
G04 #@! TD*
G04 #@! TA.AperFunction,ComponentPad*
%ADD25R,1.500000X1.500000*%
G04 #@! TD*
G04 #@! TA.AperFunction,ComponentPad*
%ADD26C,1.500000*%
G04 #@! TD*
G04 #@! TA.AperFunction,ComponentPad*
%ADD27RoundRect,0.250000X-0.950000X-0.550000X0.950000X-0.550000X0.950000X0.550000X-0.950000X0.550000X0*%
G04 #@! TD*
G04 #@! TA.AperFunction,ComponentPad*
%ADD28O,2.400000X1.600000*%
G04 #@! TD*
G04 #@! TA.AperFunction,ComponentPad*
%ADD29R,1.905000X2.000000*%
G04 #@! TD*
G04 #@! TA.AperFunction,ComponentPad*
%ADD30O,1.905000X2.000000*%
G04 #@! TD*
G04 #@! TA.AperFunction,ComponentPad*
%ADD31RoundRect,0.250000X1.350000X-1.350000X1.350000X1.350000X-1.350000X1.350000X-1.350000X-1.350000X0*%
G04 #@! TD*
G04 #@! TA.AperFunction,ComponentPad*
%ADD32RoundRect,0.250000X-1.350000X1.350000X-1.350000X-1.350000X1.350000X-1.350000X1.350000X1.350000X0*%
G04 #@! TD*
G04 #@! TA.AperFunction,ComponentPad*
%ADD33C,2.000000*%
G04 #@! TD*
G04 #@! TA.AperFunction,ComponentPad*
%ADD34C,4.064000*%
G04 #@! TD*
G04 #@! TA.AperFunction,ComponentPad*
%ADD35RoundRect,0.249999X-0.850001X-0.850001X0.850001X-0.850001X0.850001X0.850001X-0.850001X0.850001X0*%
G04 #@! TD*
G04 #@! TA.AperFunction,Conductor*
%ADD36C,1.500000*%
G04 #@! TD*
G04 #@! TA.AperFunction,Conductor*
%ADD37C,3.000000*%
G04 #@! TD*
G04 #@! TA.AperFunction,Conductor*
%ADD38C,2.000000*%
G04 #@! TD*
G04 #@! TA.AperFunction,Conductor*
%ADD39C,2.500000*%
G04 #@! TD*
G04 #@! TA.AperFunction,Conductor*
%ADD40C,4.000000*%
G04 #@! TD*
G04 #@! TA.AperFunction,Conductor*
%ADD41C,1.000000*%
G04 #@! TD*
G04 APERTURE END LIST*
D10*
X88680000Y-42500000D03*
D11*
X78520000Y-42500000D03*
D12*
X51300000Y-56380000D03*
D11*
X51300000Y-46220000D03*
D13*
X51300000Y-60850000D03*
D11*
X51300000Y-73550000D03*
D14*
X40500000Y-30750000D03*
X40500000Y-94750000D03*
X129800000Y-94900000D03*
X129700000Y-30700000D03*
D15*
X120250000Y-86250000D03*
D16*
X120250000Y-91250000D03*
D17*
X101047349Y-48100000D03*
D18*
X103547349Y-48100000D03*
D19*
X72400000Y-51700000D03*
D18*
X72400000Y-49200000D03*
X103647349Y-58500000D03*
D17*
X101147349Y-58500000D03*
D20*
X57200000Y-89275000D03*
D21*
X57200000Y-86735000D03*
D22*
X62020000Y-39100000D03*
D23*
X46780000Y-39100000D03*
D24*
X120270000Y-62900000D03*
X127890000Y-62900000D03*
D25*
X91200000Y-50480000D03*
D26*
X91200000Y-47940000D03*
X91200000Y-45400000D03*
D25*
X107340000Y-38760000D03*
D26*
X107340000Y-41300000D03*
X107340000Y-43840000D03*
D25*
X112100000Y-38760000D03*
D26*
X112100000Y-41300000D03*
X112100000Y-43840000D03*
D18*
X74650000Y-81000000D03*
X87350000Y-81000000D03*
X67080000Y-81000000D03*
X67080000Y-68300000D03*
X71460000Y-68270000D03*
X71460000Y-80970000D03*
X47000000Y-45400000D03*
X47000000Y-58100000D03*
X57200000Y-81000000D03*
X57200000Y-68300000D03*
X55650000Y-60800000D03*
X68350000Y-60800000D03*
X78550000Y-37600000D03*
X91250000Y-37600000D03*
X103950000Y-41300000D03*
X91250000Y-41300000D03*
X68250000Y-64500000D03*
X80950000Y-64500000D03*
D27*
X78460000Y-53020000D03*
D28*
X78460000Y-55560000D03*
X78460000Y-58100000D03*
X78460000Y-60640000D03*
X86080000Y-60640000D03*
X86080000Y-58100000D03*
X86080000Y-55560000D03*
X86080000Y-53020000D03*
D18*
X47000000Y-60850000D03*
X47000000Y-73550000D03*
D29*
X59420000Y-56400000D03*
D30*
X61960000Y-56400000D03*
X64500000Y-56400000D03*
D27*
X78500000Y-68280000D03*
D28*
X78500000Y-70820000D03*
X78500000Y-73360000D03*
X78500000Y-75900000D03*
X86120000Y-75900000D03*
X86120000Y-73360000D03*
X86120000Y-70820000D03*
X86120000Y-68280000D03*
D20*
X92030000Y-84300000D03*
D21*
X94570000Y-84300000D03*
D31*
X126250000Y-51880000D03*
D23*
X126250000Y-36640000D03*
D20*
X92030000Y-89300000D03*
D21*
X94570000Y-89300000D03*
D18*
X87350000Y-86700000D03*
X74650000Y-86700000D03*
D32*
X110500000Y-70875000D03*
D23*
X110500000Y-86115000D03*
D32*
X104500000Y-70875000D03*
D23*
X104500000Y-86115000D03*
D18*
X90700000Y-80950000D03*
X90700000Y-68250000D03*
D31*
X120250000Y-51875000D03*
D23*
X120250000Y-36635000D03*
D22*
X62020000Y-33300000D03*
D23*
X46780000Y-33300000D03*
D33*
X39800000Y-48430000D03*
X39800000Y-53510000D03*
X128200000Y-79100000D03*
X128200000Y-74020000D03*
D18*
X79900000Y-48000000D03*
X84900000Y-48000000D03*
D34*
X39940000Y-40950000D03*
X39700000Y-64900000D03*
X129900000Y-87600000D03*
X120250000Y-78000000D03*
D18*
X94600000Y-68250000D03*
X94600000Y-80950000D03*
X95750000Y-64500000D03*
X83050000Y-64500000D03*
X95700000Y-47900000D03*
X95700000Y-60600000D03*
X62640000Y-68280000D03*
X62640000Y-80980000D03*
D15*
X70400000Y-33376041D03*
D16*
X70400000Y-38376041D03*
D35*
X119177818Y-32500000D03*
D11*
X124257818Y-32500000D03*
D29*
X86440000Y-92555000D03*
D30*
X83900000Y-92555000D03*
X81360000Y-92555000D03*
D29*
X107300000Y-33500000D03*
D30*
X109840000Y-33500000D03*
X112380000Y-33500000D03*
D33*
X46950000Y-85350000D03*
X46950000Y-78850000D03*
X51450000Y-85350000D03*
X51450000Y-78850000D03*
X55400000Y-48500000D03*
X55200000Y-56400000D03*
X55400000Y-44300000D03*
D36*
X47000000Y-58100000D02*
X47000000Y-60850000D01*
X47000000Y-73550000D02*
X42550000Y-73550000D01*
X42550000Y-73550000D02*
X42500000Y-73500000D01*
D37*
X42500000Y-56210000D02*
X42500000Y-73500000D01*
D36*
X51300000Y-73550000D02*
X47000000Y-73550000D01*
X55600000Y-60850000D02*
X55650000Y-60800000D01*
X51300000Y-60850000D02*
X55600000Y-60850000D01*
X47000000Y-60850000D02*
X51300000Y-60850000D01*
D37*
X44600000Y-43630000D02*
X44600000Y-43600000D01*
X39800000Y-48430000D02*
X44600000Y-43630000D01*
D36*
X96480000Y-50480000D02*
X91200000Y-50480000D01*
X103647349Y-58500000D02*
X103647349Y-57647349D01*
X103647349Y-57647349D02*
X96480000Y-50480000D01*
D37*
X42500000Y-73500000D02*
X42500000Y-84800000D01*
X39800000Y-53510000D02*
X42500000Y-56210000D01*
D36*
X116180000Y-29700000D02*
X112380000Y-33500000D01*
X121457818Y-29700000D02*
X116180000Y-29700000D01*
X124257818Y-32500000D02*
X121457818Y-29700000D01*
X59800000Y-67400000D02*
X59800000Y-70500000D01*
X62700000Y-64500000D02*
X59800000Y-67400000D01*
X59800000Y-70500000D02*
X51450000Y-78850000D01*
X68250000Y-64500000D02*
X62700000Y-64500000D01*
D38*
X51450000Y-78850000D02*
X51450000Y-85350000D01*
X46950000Y-78850000D02*
X46950000Y-85350000D01*
X46950000Y-85350000D02*
X45700000Y-86600000D01*
X45700000Y-87500000D02*
X51000000Y-92800000D01*
X45700000Y-86600000D02*
X45700000Y-87500000D01*
D37*
X51370000Y-93170000D02*
X48420000Y-93170000D01*
D38*
X42000000Y-83800000D02*
X45700000Y-87500000D01*
X42000000Y-83800000D02*
X42000000Y-85100000D01*
X45350000Y-89450000D02*
X42900000Y-87000000D01*
X81360000Y-92640000D02*
X78600000Y-95400000D01*
X81360000Y-92555000D02*
X81360000Y-92640000D01*
D37*
X77000000Y-95000000D02*
X78400000Y-95000000D01*
X50100000Y-95000000D02*
X77000000Y-95000000D01*
X48420000Y-93320000D02*
X50100000Y-95000000D01*
X48420000Y-93170000D02*
X48420000Y-93320000D01*
D38*
X42000000Y-85100000D02*
X41050000Y-86050000D01*
D37*
X41050000Y-86050000D02*
X39800000Y-84800000D01*
D38*
X42000000Y-67500000D02*
X42000000Y-83800000D01*
D37*
X39800000Y-84800000D02*
X39800000Y-78550000D01*
X48420000Y-93170000D02*
X48170000Y-93170000D01*
X48170000Y-93170000D02*
X41050000Y-86050000D01*
D38*
X126450000Y-80850000D02*
X126450000Y-87550000D01*
X128200000Y-79100000D02*
X126450000Y-80850000D01*
X126450000Y-87550000D02*
X121900000Y-92100000D01*
X128200000Y-86570000D02*
X128070000Y-86700000D01*
X128200000Y-79100000D02*
X128200000Y-86570000D01*
X127300000Y-86700000D02*
X126450000Y-87550000D01*
X128070000Y-86700000D02*
X127300000Y-86700000D01*
X128070000Y-86700000D02*
X128070000Y-88330000D01*
D37*
X128070000Y-88330000D02*
X128800000Y-87600000D01*
X128800000Y-87600000D02*
X129900000Y-87600000D01*
X122230000Y-94170000D02*
X128070000Y-88330000D01*
D38*
X115100000Y-42500000D02*
X115100000Y-38320000D01*
X113760000Y-43840000D02*
X115100000Y-42500000D01*
X115100000Y-38320000D02*
X116780000Y-36640000D01*
X112100000Y-43840000D02*
X113760000Y-43840000D01*
X103547349Y-48100000D02*
X107840000Y-48100000D01*
X107840000Y-48100000D02*
X112100000Y-43840000D01*
X107340000Y-38760000D02*
X112100000Y-38760000D01*
X107340000Y-41300000D02*
X112100000Y-41300000D01*
X103950000Y-41300000D02*
X107340000Y-41300000D01*
D36*
X101047349Y-46052651D02*
X103260000Y-43840000D01*
X103260000Y-43840000D02*
X107340000Y-43840000D01*
X101047349Y-48100000D02*
X101047349Y-46052651D01*
D39*
X100300000Y-30000000D02*
X99300000Y-31000000D01*
X108640000Y-30000000D02*
X100300000Y-30000000D01*
D38*
X104600000Y-36300000D02*
X99300000Y-31000000D01*
X109200000Y-36300000D02*
X104600000Y-36300000D01*
D40*
X72776041Y-31000000D02*
X99300000Y-31000000D01*
X70400000Y-33376041D02*
X72776041Y-31000000D01*
X70323959Y-33300000D02*
X70400000Y-33376041D01*
X62020000Y-33300000D02*
X70323959Y-33300000D01*
X62020000Y-39100000D02*
X62020000Y-33300000D01*
D36*
X93100000Y-35100000D02*
X101047349Y-43047349D01*
X90000000Y-35100000D02*
X93100000Y-35100000D01*
X88680000Y-36420000D02*
X90000000Y-35100000D01*
X88680000Y-42500000D02*
X88680000Y-36420000D01*
X101047349Y-43047349D02*
X101047349Y-48100000D01*
X101047349Y-45752651D02*
X101047349Y-48100000D01*
X91250000Y-45350000D02*
X91200000Y-45400000D01*
X91250000Y-41500000D02*
X91250000Y-45350000D01*
X91250000Y-37600000D02*
X91250000Y-41500000D01*
X83780000Y-37600000D02*
X78550000Y-37600000D01*
X88680000Y-42500000D02*
X83780000Y-37600000D01*
X95660000Y-47940000D02*
X95700000Y-47900000D01*
X91200000Y-47940000D02*
X95660000Y-47940000D01*
X87380000Y-50480000D02*
X84900000Y-48000000D01*
X91200000Y-50480000D02*
X87380000Y-50480000D01*
X91250000Y-60600000D02*
X91200000Y-60650000D01*
X95700000Y-60600000D02*
X91250000Y-60600000D01*
X95700000Y-64450000D02*
X95750000Y-64500000D01*
X95700000Y-60600000D02*
X95700000Y-64450000D01*
X94570000Y-87770000D02*
X94570000Y-89300000D01*
X92030000Y-85230000D02*
X94570000Y-87770000D01*
X92030000Y-84300000D02*
X92030000Y-85230000D01*
X92030000Y-88230000D02*
X87800000Y-84000000D01*
X92030000Y-89300000D02*
X92030000Y-88230000D01*
X80660000Y-84000000D02*
X78500000Y-86160000D01*
X87800000Y-84000000D02*
X80660000Y-84000000D01*
X94645000Y-92555000D02*
X86440000Y-92555000D01*
X97600000Y-89600000D02*
X94645000Y-92555000D01*
X97600000Y-87330000D02*
X97600000Y-89600000D01*
X94570000Y-84300000D02*
X97600000Y-87330000D01*
X94600000Y-84270000D02*
X94570000Y-84300000D01*
X94600000Y-80950000D02*
X94600000Y-84270000D01*
X83900000Y-90150000D02*
X87350000Y-86700000D01*
X83900000Y-92555000D02*
X83900000Y-90150000D01*
X97900000Y-69000000D02*
X94600000Y-72300000D01*
X97900000Y-59400000D02*
X97900000Y-69000000D01*
X94600000Y-72300000D02*
X94600000Y-80950000D01*
X96600000Y-58100000D02*
X97900000Y-59400000D01*
X86080000Y-58100000D02*
X96600000Y-58100000D01*
X88700000Y-65700000D02*
X86120000Y-68280000D01*
X92050000Y-65700000D02*
X88700000Y-65700000D01*
X94600000Y-68250000D02*
X92050000Y-65700000D01*
X88130000Y-70820000D02*
X90700000Y-68250000D01*
X86120000Y-70820000D02*
X88130000Y-70820000D01*
X89200000Y-79150000D02*
X87350000Y-81000000D01*
X89200000Y-74600000D02*
X89200000Y-79150000D01*
X87960000Y-73360000D02*
X89200000Y-74600000D01*
X86120000Y-73360000D02*
X87960000Y-73360000D01*
X78500000Y-86160000D02*
X75590000Y-89070000D01*
X78500000Y-77150000D02*
X78500000Y-86160000D01*
X78500000Y-77150000D02*
X74650000Y-81000000D01*
X78500000Y-75900000D02*
X78500000Y-77150000D01*
X87400000Y-80950000D02*
X87350000Y-81000000D01*
X90700000Y-80950000D02*
X87400000Y-80950000D01*
X81900000Y-64060000D02*
X82340000Y-64500000D01*
X81900000Y-53800000D02*
X81900000Y-64060000D01*
X78520000Y-46620000D02*
X79900000Y-48000000D01*
X78520000Y-43300000D02*
X78520000Y-46620000D01*
X72400000Y-51700000D02*
X74100000Y-51700000D01*
X77140000Y-51700000D02*
X78460000Y-53020000D01*
X74100000Y-51700000D02*
X77140000Y-51700000D01*
X72400000Y-44800000D02*
X72400000Y-49200000D01*
X76900000Y-40300000D02*
X72400000Y-44800000D01*
X84900000Y-43600000D02*
X81600000Y-40300000D01*
X84900000Y-48000000D02*
X84900000Y-43600000D01*
X81600000Y-40300000D02*
X76900000Y-40300000D01*
X91190000Y-60640000D02*
X91200000Y-60650000D01*
X86080000Y-60640000D02*
X91190000Y-60640000D01*
X84900000Y-51840000D02*
X86080000Y-53020000D01*
X84900000Y-48000000D02*
X84900000Y-51840000D01*
X79900000Y-51580000D02*
X78460000Y-53020000D01*
X79900000Y-48000000D02*
X79900000Y-51580000D01*
X101147349Y-58247349D02*
X98460000Y-55560000D01*
X101147349Y-58500000D02*
X101147349Y-58247349D01*
X98460000Y-55560000D02*
X86080000Y-55560000D01*
X82340000Y-64500000D02*
X86120000Y-68280000D01*
X80950000Y-64500000D02*
X82340000Y-64500000D01*
X81120000Y-53020000D02*
X81900000Y-53800000D01*
X78460000Y-53020000D02*
X81120000Y-53020000D01*
X69740000Y-55560000D02*
X78460000Y-55560000D01*
X64400000Y-60900000D02*
X69740000Y-55560000D01*
X57200000Y-67168630D02*
X63468630Y-60900000D01*
X57200000Y-68300000D02*
X57200000Y-67168630D01*
X63468630Y-60900000D02*
X64400000Y-60900000D01*
X69200000Y-51700000D02*
X72400000Y-51700000D01*
X64500000Y-56400000D02*
X69200000Y-51700000D01*
X72110000Y-60640000D02*
X68250000Y-64500000D01*
X78460000Y-60640000D02*
X72110000Y-60640000D01*
D37*
X46780000Y-33300000D02*
X46780000Y-34110000D01*
X46780000Y-34110000D02*
X39940000Y-40950000D01*
D38*
X66700000Y-49200000D02*
X64500000Y-51400000D01*
X72400000Y-49200000D02*
X66700000Y-49200000D01*
D37*
X70400000Y-39600000D02*
X58600000Y-51400000D01*
X70400000Y-38376041D02*
X70400000Y-39600000D01*
X46780000Y-33300000D02*
X46780000Y-39100000D01*
X120250000Y-93820000D02*
X120600000Y-94170000D01*
X120600000Y-94170000D02*
X122230000Y-94170000D01*
X120250000Y-91250000D02*
X120250000Y-93820000D01*
X118900000Y-94170000D02*
X120600000Y-94170000D01*
X75370000Y-93170000D02*
X51370000Y-93170000D01*
X48420000Y-93170000D02*
X47750000Y-92500000D01*
D36*
X75250000Y-89410000D02*
X75250000Y-93050000D01*
D38*
X57200000Y-89275000D02*
X57200000Y-93120000D01*
D37*
X47750000Y-92500000D02*
X48250000Y-93000000D01*
X43930000Y-88680000D02*
X47750000Y-92500000D01*
X120250000Y-81500000D02*
X120250000Y-86250000D01*
X120250000Y-81500000D02*
X127890000Y-73860000D01*
X127890000Y-72200000D02*
X126050000Y-72200000D01*
X127890000Y-62900000D02*
X127890000Y-72200000D01*
X126050000Y-72200000D02*
X120250000Y-78000000D01*
X127890000Y-73860000D02*
X127890000Y-72200000D01*
X120250000Y-78000000D02*
X120250000Y-81500000D01*
X103270000Y-94170000D02*
X100940000Y-96500000D01*
X110500000Y-86115000D02*
X109785000Y-86115000D01*
X100940000Y-96500000D02*
X85500000Y-96500000D01*
X104500000Y-86115000D02*
X104500000Y-92940000D01*
D36*
X83840000Y-92780000D02*
X84060000Y-92560000D01*
D37*
X109785000Y-86115000D02*
X106500000Y-89400000D01*
X106500000Y-89400000D02*
X106500000Y-92570000D01*
X103270000Y-94170000D02*
X108100000Y-94170000D01*
D38*
X83947000Y-94947000D02*
X85500000Y-96500000D01*
D37*
X106500000Y-92570000D02*
X108100000Y-94170000D01*
D38*
X83947000Y-92710000D02*
X83947000Y-94947000D01*
D37*
X104500000Y-92940000D02*
X103270000Y-94170000D01*
X112900000Y-33700000D02*
X116780000Y-36640000D01*
X116780000Y-36640000D02*
X120720000Y-36640000D01*
D36*
X124257818Y-33102182D02*
X120720000Y-36640000D01*
D41*
X126734000Y-36576000D02*
X126670000Y-36640000D01*
D37*
X120720000Y-36640000D02*
X126670000Y-36640000D01*
D36*
X124257818Y-32500000D02*
X124257818Y-33102182D01*
D37*
X39800000Y-53510000D02*
X39800000Y-71080000D01*
D38*
X55400000Y-48500000D02*
X58300000Y-51400000D01*
D37*
X49100000Y-51400000D02*
X58600000Y-51400000D01*
X39800000Y-53510000D02*
X46990000Y-53510000D01*
D36*
X62660000Y-81000000D02*
X62640000Y-80980000D01*
X75590000Y-89070000D02*
X75250000Y-89410000D01*
X80910000Y-93170000D02*
X81520000Y-92560000D01*
X61960000Y-51460000D02*
X61900000Y-51400000D01*
D37*
X75370000Y-93170000D02*
X80150000Y-93170000D01*
X39800000Y-53510000D02*
X39800000Y-58980000D01*
X41340000Y-60520000D02*
X39800000Y-58980000D01*
D39*
X61900000Y-51400000D02*
X64500000Y-51400000D01*
X58600000Y-51400000D02*
X61900000Y-51400000D01*
D37*
X41340000Y-69540000D02*
X41340000Y-68790000D01*
D36*
X67080000Y-81000000D02*
X67080000Y-92250000D01*
D37*
X46990000Y-53510000D02*
X49100000Y-51400000D01*
X41340000Y-68790000D02*
X41340000Y-60520000D01*
D36*
X61960000Y-56400000D02*
X61960000Y-51460000D01*
X80150000Y-93170000D02*
X80910000Y-93170000D01*
D37*
X39800000Y-60030000D02*
X39940000Y-60170000D01*
X39800000Y-58980000D02*
X39800000Y-60030000D01*
X39800000Y-71080000D02*
X39800000Y-78550000D01*
D36*
X67080000Y-81000000D02*
X62660000Y-81000000D01*
D38*
X58300000Y-51400000D02*
X58600000Y-51400000D01*
D39*
X64500000Y-51400000D02*
X58600000Y-51400000D01*
D37*
X39800000Y-71080000D02*
X41340000Y-69540000D01*
D38*
X109840000Y-33500000D02*
X109840000Y-35660000D01*
D36*
X109880000Y-33530000D02*
X109810000Y-33600000D01*
D38*
X109840000Y-35660000D02*
X109200000Y-36300000D01*
X109855000Y-33528000D02*
X109855000Y-31265000D01*
X109855000Y-31265000D02*
X109880000Y-31240000D01*
X109880000Y-31240000D02*
X108640000Y-30000000D01*
D37*
X117500000Y-61800000D02*
X118200000Y-61100000D01*
X123330000Y-54800000D02*
X126250000Y-51880000D01*
X110500000Y-68800000D02*
X117500000Y-61800000D01*
X120250000Y-54800000D02*
X120250000Y-60500000D01*
X110500000Y-70875000D02*
X110500000Y-68800000D01*
X120250000Y-54800000D02*
X123330000Y-54800000D01*
X120720000Y-51880000D02*
X126670000Y-51880000D01*
X118200000Y-61100000D02*
X118200000Y-52100000D01*
X120250000Y-51875000D02*
X120250000Y-54800000D01*
X112295000Y-70875000D02*
X120270000Y-62900000D01*
X120250000Y-62880000D02*
X120270000Y-62900000D01*
X120250000Y-60500000D02*
X120250000Y-62880000D01*
X110500000Y-70875000D02*
X112295000Y-70875000D01*
X104500000Y-70875000D02*
X110500000Y-70875000D01*
X39800000Y-48430000D02*
X39800000Y-44850000D01*
X39800000Y-48430000D02*
X39800000Y-41090000D01*
D38*
X51300000Y-46220000D02*
X47870000Y-46220000D01*
D37*
X45350000Y-43700000D02*
X47000000Y-45350000D01*
D38*
X47870000Y-46220000D02*
X47000000Y-45350000D01*
D37*
X39800000Y-41090000D02*
X39940000Y-40950000D01*
D38*
X55400000Y-44300000D02*
X53220000Y-44300000D01*
D37*
X39800000Y-44850000D02*
X45350000Y-39300000D01*
X45350000Y-39300000D02*
X45350000Y-43700000D01*
X40040000Y-41050000D02*
X39940000Y-40950000D01*
D38*
X53220000Y-44300000D02*
X51300000Y-46220000D01*
X57200000Y-86735000D02*
X57200000Y-80950000D01*
D36*
X62640000Y-68280000D02*
X62640000Y-69411370D01*
X62640000Y-69411370D02*
X68388630Y-75160000D01*
X75800000Y-70820000D02*
X71460000Y-75160000D01*
X71460000Y-75160000D02*
X71460000Y-79838630D01*
X78500000Y-70820000D02*
X75800000Y-70820000D01*
X68388630Y-75160000D02*
X71460000Y-75160000D01*
X71460000Y-79838630D02*
X71460000Y-80970000D01*
X83020000Y-69140000D02*
X82160000Y-68280000D01*
X71460000Y-68270000D02*
X78490000Y-68270000D01*
X78490000Y-68270000D02*
X78500000Y-68280000D01*
X86120000Y-75900000D02*
X83420000Y-75900000D01*
X83420000Y-75900000D02*
X83020000Y-75500000D01*
X83020000Y-75500000D02*
X83020000Y-69140000D01*
X82160000Y-68280000D02*
X78500000Y-68280000D01*
X71050000Y-58100000D02*
X68350000Y-60800000D01*
X78460000Y-58100000D02*
X71050000Y-58100000D01*
D38*
X51300000Y-56380000D02*
X55180000Y-56380000D01*
X55180000Y-56380000D02*
X55200000Y-56400000D01*
X55200000Y-56400000D02*
X59420000Y-56400000D01*
D37*
X108100000Y-94170000D02*
X118900000Y-94170000D01*
G04 #@! TA.AperFunction,NonConductor*
G36*
X130477551Y-38899199D02*
G01*
X130544459Y-38919321D01*
X130589868Y-38972423D01*
X130600737Y-39022449D01*
X130699739Y-55456802D01*
X130680458Y-55523959D01*
X130673363Y-55534008D01*
X119499999Y-69800000D01*
X119499998Y-69800001D01*
X114329794Y-83918639D01*
X114288258Y-83974822D01*
X114222940Y-83999629D01*
X114213356Y-84000000D01*
X100923237Y-84000000D01*
X100856198Y-83980315D01*
X100810443Y-83927511D01*
X100799239Y-83876765D01*
X100731587Y-72917112D01*
X100700775Y-67925620D01*
X100720046Y-67858463D01*
X100772566Y-67812383D01*
X100825620Y-67800860D01*
X108533278Y-67853652D01*
X108600180Y-67873795D01*
X108645573Y-67926911D01*
X108655042Y-67996136D01*
X108646989Y-68025101D01*
X108594010Y-68153003D01*
X108525865Y-68407323D01*
X108491499Y-68668348D01*
X108491499Y-68742500D01*
X108471814Y-68809539D01*
X108419010Y-68855294D01*
X108367499Y-68866500D01*
X106262402Y-68866500D01*
X106197305Y-68848038D01*
X106185890Y-68840997D01*
X106172742Y-68832887D01*
X106172739Y-68832885D01*
X106172738Y-68832885D01*
X106172735Y-68832884D01*
X106004427Y-68777113D01*
X105900545Y-68766500D01*
X103099462Y-68766500D01*
X103099446Y-68766501D01*
X102995572Y-68777113D01*
X102827264Y-68832884D01*
X102827259Y-68832886D01*
X102676346Y-68925971D01*
X102550971Y-69051346D01*
X102457886Y-69202259D01*
X102457884Y-69202264D01*
X102402113Y-69370572D01*
X102391500Y-69474447D01*
X102391500Y-72275537D01*
X102391501Y-72275553D01*
X102402113Y-72379427D01*
X102457884Y-72547735D01*
X102457886Y-72547740D01*
X102493142Y-72604898D01*
X102550970Y-72698652D01*
X102676348Y-72824030D01*
X102827262Y-72917115D01*
X102995574Y-72972887D01*
X103099455Y-72983500D01*
X105900544Y-72983499D01*
X106004426Y-72972887D01*
X106172738Y-72917115D01*
X106197305Y-72901961D01*
X106262402Y-72883500D01*
X108737598Y-72883500D01*
X108802694Y-72901961D01*
X108827262Y-72917115D01*
X108995574Y-72972887D01*
X109099455Y-72983500D01*
X111900544Y-72983499D01*
X112004426Y-72972887D01*
X112172738Y-72917115D01*
X112197307Y-72901961D01*
X112262402Y-72883501D01*
X112426637Y-72883501D01*
X112426644Y-72883501D01*
X112687680Y-72849134D01*
X112781369Y-72824030D01*
X112941997Y-72780990D01*
X113140778Y-72698652D01*
X113185234Y-72680238D01*
X113185237Y-72680236D01*
X113185243Y-72680234D01*
X113413257Y-72548590D01*
X113622138Y-72388311D01*
X113808311Y-72202138D01*
X113813675Y-72196774D01*
X113813690Y-72196756D01*
X121591756Y-64418690D01*
X121591774Y-64418675D01*
X121783306Y-64227143D01*
X121783311Y-64227138D01*
X121943590Y-64018257D01*
X122075234Y-63790243D01*
X122175990Y-63546997D01*
X122244134Y-63292680D01*
X122246767Y-63272680D01*
X122278501Y-63031644D01*
X122278501Y-62768356D01*
X122259561Y-62624495D01*
X122258500Y-62608309D01*
X122258500Y-56932500D01*
X122278185Y-56865461D01*
X122330989Y-56819706D01*
X122382500Y-56808500D01*
X123194484Y-56808500D01*
X123194516Y-56808501D01*
X123198356Y-56808501D01*
X123461637Y-56808501D01*
X123461644Y-56808501D01*
X123722680Y-56774134D01*
X123976997Y-56705990D01*
X124160099Y-56630146D01*
X124220234Y-56605238D01*
X124220237Y-56605236D01*
X124220243Y-56605234D01*
X124448257Y-56473590D01*
X124657138Y-56313311D01*
X124843311Y-56127138D01*
X124848675Y-56121774D01*
X124848690Y-56121756D01*
X126945629Y-54024818D01*
X127006952Y-53991333D01*
X127033310Y-53988499D01*
X127650537Y-53988499D01*
X127650544Y-53988499D01*
X127754426Y-53977887D01*
X127922738Y-53922115D01*
X128073652Y-53829030D01*
X128199030Y-53703652D01*
X128292115Y-53552738D01*
X128347887Y-53384426D01*
X128358500Y-53280545D01*
X128358499Y-53005656D01*
X128375111Y-52943659D01*
X128475234Y-52770243D01*
X128575990Y-52526997D01*
X128644134Y-52272680D01*
X128678500Y-52011644D01*
X128678500Y-51748356D01*
X128644134Y-51487320D01*
X128575990Y-51233003D01*
X128537300Y-51139598D01*
X128475238Y-50989765D01*
X128475230Y-50989749D01*
X128375112Y-50816340D01*
X128358499Y-50754340D01*
X128358499Y-50479462D01*
X128358498Y-50479446D01*
X128353080Y-50426409D01*
X128347887Y-50375574D01*
X128292115Y-50207262D01*
X128199030Y-50056348D01*
X128073652Y-49930970D01*
X127977236Y-49871500D01*
X127922740Y-49837886D01*
X127922735Y-49837884D01*
X127754427Y-49782113D01*
X127650545Y-49771500D01*
X124849462Y-49771500D01*
X124849446Y-49771501D01*
X124745572Y-49782113D01*
X124577264Y-49837884D01*
X124577257Y-49837887D01*
X124559383Y-49848912D01*
X124552694Y-49853038D01*
X124487598Y-49871500D01*
X122020510Y-49871500D01*
X121955414Y-49853039D01*
X121930843Y-49837884D01*
X121922738Y-49832885D01*
X121922737Y-49832884D01*
X121922736Y-49832884D01*
X121922735Y-49832883D01*
X121754428Y-49777113D01*
X121650545Y-49766500D01*
X118849462Y-49766500D01*
X118849446Y-49766501D01*
X118745572Y-49777113D01*
X118577264Y-49832884D01*
X118577259Y-49832886D01*
X118426346Y-49925971D01*
X118297137Y-50055181D01*
X118235814Y-50088666D01*
X118209456Y-50091500D01*
X118068356Y-50091500D01*
X118068350Y-50091500D01*
X118068346Y-50091501D01*
X117807321Y-50125865D01*
X117553004Y-50194009D01*
X117309765Y-50294761D01*
X117309749Y-50294769D01*
X117081743Y-50426409D01*
X116872863Y-50586687D01*
X116872856Y-50586693D01*
X116686693Y-50772856D01*
X116686687Y-50772863D01*
X116526409Y-50981743D01*
X116394769Y-51209749D01*
X116394761Y-51209765D01*
X116294009Y-51453004D01*
X116225865Y-51707321D01*
X116191501Y-51968346D01*
X116191500Y-51968362D01*
X116191500Y-60216689D01*
X116171815Y-60283728D01*
X116155181Y-60304370D01*
X115413242Y-61046308D01*
X115351919Y-61079793D01*
X115282227Y-61074809D01*
X115226294Y-61032937D01*
X115201877Y-60967473D01*
X115201568Y-60957276D01*
X115300000Y-52000000D01*
X115300000Y-44484702D01*
X115319685Y-44417663D01*
X115336316Y-44397024D01*
X116250620Y-43482722D01*
X116390185Y-43290627D01*
X116497982Y-43079063D01*
X116571356Y-42853241D01*
X116578442Y-42808500D01*
X116608500Y-42618727D01*
X116608500Y-38996203D01*
X116617143Y-38966766D01*
X116623667Y-38936777D01*
X116627422Y-38931759D01*
X116628185Y-38929164D01*
X116644813Y-38908527D01*
X116707252Y-38846088D01*
X116768571Y-38812606D01*
X116795730Y-38809776D01*
X130477551Y-38899199D01*
G37*
G04 #@! TD.AperFunction*
G04 #@! TA.AperFunction,NonConductor*
G36*
X69791394Y-35810884D02*
G01*
X69795856Y-35811177D01*
X69796821Y-35811380D01*
X69979148Y-35852995D01*
X70010608Y-35856539D01*
X70016428Y-35857769D01*
X70042153Y-35871615D01*
X70069096Y-35882936D01*
X70072562Y-35887983D01*
X70077952Y-35890884D01*
X70092109Y-35916443D01*
X70108652Y-35940530D01*
X70108839Y-35946648D01*
X70111806Y-35952004D01*
X70109897Y-35981164D01*
X70110792Y-36010367D01*
X70107641Y-36015615D01*
X70107242Y-36021725D01*
X70089870Y-36045224D01*
X70074835Y-36070274D01*
X70069347Y-36072986D01*
X70065708Y-36077909D01*
X70054910Y-36085233D01*
X64716609Y-39309567D01*
X64649048Y-39327378D01*
X64582582Y-39305835D01*
X64538315Y-39251777D01*
X64528500Y-39203426D01*
X64528500Y-35932500D01*
X64548185Y-35865461D01*
X64600989Y-35819706D01*
X64652500Y-35808500D01*
X69770229Y-35808500D01*
X69791394Y-35810884D01*
G37*
G04 #@! TD.AperFunction*
G04 #@! TA.AperFunction,NonConductor*
G36*
X84221902Y-27319685D02*
G01*
X84267657Y-27372489D01*
X84277601Y-27441647D01*
X84248576Y-27505203D01*
X84218972Y-27530141D01*
X82656886Y-28473641D01*
X82592777Y-28491500D01*
X72635162Y-28491500D01*
X72612485Y-28494055D01*
X72606815Y-28494694D01*
X72355195Y-28523043D01*
X72131547Y-28574088D01*
X72131548Y-28574089D01*
X72080515Y-28585737D01*
X72080510Y-28585738D01*
X72080504Y-28585740D01*
X71814566Y-28678796D01*
X71814562Y-28678797D01*
X71814556Y-28678800D01*
X71814550Y-28678802D01*
X71560724Y-28801038D01*
X71322157Y-28950940D01*
X71101876Y-29126609D01*
X69473306Y-30755181D01*
X69411983Y-30788666D01*
X69385625Y-30791500D01*
X61879119Y-30791500D01*
X61599161Y-30823042D01*
X61599148Y-30823045D01*
X61324464Y-30885739D01*
X61324452Y-30885743D01*
X61058532Y-30978793D01*
X61058510Y-30978802D01*
X60804686Y-31101037D01*
X60690960Y-31172495D01*
X60625003Y-31191500D01*
X60619469Y-31191500D01*
X60619445Y-31191501D01*
X60515572Y-31202113D01*
X60347264Y-31257884D01*
X60347259Y-31257886D01*
X60196346Y-31350971D01*
X60070971Y-31476346D01*
X59977886Y-31627259D01*
X59977884Y-31627264D01*
X59922113Y-31795572D01*
X59911500Y-31899447D01*
X59911500Y-31904991D01*
X59892494Y-31970963D01*
X59821038Y-32084684D01*
X59698802Y-32338510D01*
X59698793Y-32338532D01*
X59605743Y-32604452D01*
X59605739Y-32604464D01*
X59543045Y-32879148D01*
X59543042Y-32879161D01*
X59511500Y-33159119D01*
X59511500Y-39240880D01*
X59543042Y-39520838D01*
X59543045Y-39520851D01*
X59605739Y-39795535D01*
X59605743Y-39795547D01*
X59698793Y-40061467D01*
X59698802Y-40061489D01*
X59821038Y-40315315D01*
X59892494Y-40429037D01*
X59911500Y-40494995D01*
X59911500Y-40500530D01*
X59911501Y-40500554D01*
X59922113Y-40604426D01*
X59977885Y-40772738D01*
X60070970Y-40923652D01*
X60196348Y-41049030D01*
X60347262Y-41142115D01*
X60515574Y-41197887D01*
X60619455Y-41208500D01*
X60624982Y-41208499D01*
X60690964Y-41227505D01*
X60734023Y-41254561D01*
X60804668Y-41298952D01*
X60804688Y-41298963D01*
X60942235Y-41365202D01*
X60994095Y-41412024D01*
X61012408Y-41479451D01*
X60991360Y-41546075D01*
X60952543Y-41583063D01*
X59629568Y-42382141D01*
X59565459Y-42400000D01*
X49324000Y-42400000D01*
X49256961Y-42380315D01*
X49211206Y-42327511D01*
X49200000Y-42276000D01*
X49200000Y-27424000D01*
X49219685Y-27356961D01*
X49272489Y-27311206D01*
X49324000Y-27300000D01*
X84154863Y-27300000D01*
X84221902Y-27319685D01*
G37*
G04 #@! TD.AperFunction*
M02*
