M48
; DRILL file {KiCad (5.1.2)-1} date 2019-05-20 오후 2:06:06
; FORMAT={-:-/ absolute / inch / decimal}
; #@! TF.CreationDate,2019-05-20T14:06:06+09:00
; #@! TF.GenerationSoftware,Kicad,Pcbnew,(5.1.2)-1
FMAT,2
INCH
T1C0.0300
T2C0.0315
T3C0.0354
T4C0.0394
T5C0.0394
T6C0.0433
T7C0.0472
T8C0.0591
T9C0.0630
T10C0.1200
T11C0.1063
%
G90
G05
T1
X5.1634Y-2.9748
X5.1634Y-3.1748
X1.5669Y-1.9067
X1.5669Y-2.1067
T2
X3.9839Y-1.8862
X3.9839Y-1.9862
X3.9839Y-2.0862
X3.0933Y-1.8441
X3.2902Y-1.8441
X4.4776Y-1.5315
X4.4776Y-1.6315
X4.4776Y-1.7315
X1.9921Y-2.4587
X1.9921Y-2.9587
X1.8445Y-1.7898
X1.8445Y-2.2898
X3.6201Y-1.6988
X4.1201Y-1.6988
X3.7937Y-1.8858
X3.7937Y-2.3858
X2.4661Y-2.6882
X2.4661Y-3.1882
X4.2768Y-1.5315
X4.2768Y-1.6315
X4.2768Y-1.7315
X3.0894Y-3.378
X3.5894Y-3.378
X3.0906Y-3.2189
X3.5906Y-3.2189
X2.4669Y-2.2866
X2.9669Y-2.2866
X3.615Y-1.8858
X3.615Y-2.3858
X3.6146Y-2.5441
X3.6146Y-3.0441
X3.089Y-2.0874
X3.089Y-2.1874
X3.089Y-2.2874
X3.089Y-2.3874
X3.389Y-2.0874
X3.389Y-2.1874
X3.389Y-2.2874
X3.389Y-2.3874
X2.8134Y-2.6878
X2.8134Y-3.1878
X3.6205Y-1.5315
X4.1205Y-1.5315
X2.6409Y-2.689
X2.6409Y-3.189
X3.0906Y-2.6882
X3.0906Y-2.7882
X3.0906Y-2.8882
X3.0906Y-2.9882
X3.3906Y-2.6882
X3.3906Y-2.7882
X3.3906Y-2.8882
X3.3906Y-2.9882
X3.7929Y-2.5445
X3.7929Y-3.0445
X2.4673Y-2.461
X2.9673Y-2.461
X2.1697Y-2.6909
X2.1697Y-3.1909
T3
X3.7016Y-3.4122
X3.8016Y-3.4122
X2.1665Y-3.4134
X2.1665Y-3.5134
X3.7004Y-3.2205
X3.8004Y-3.2205
T4
X2.1748Y-2.1063
X2.2748Y-2.1063
X2.3748Y-2.1063
T5
X3.2094Y-3.6441
X3.3094Y-3.6441
X3.4094Y-3.6441
X4.2232Y-1.3228
X4.3232Y-1.3228
X4.4232Y-1.3228
T6
X1.9913Y-1.7902
X1.9913Y-2.1902
X1.7295Y-3.2551
X1.7295Y-3.511
X1.9067Y-3.2551
X1.9067Y-3.511
X3.0902Y-1.5276
X3.4902Y-1.5276
T7
X4.7457Y-3.4461
X4.7457Y-3.6429
X4.2283Y-2.0902
X4.4252Y-2.0902
X2.75Y-1.3177
X2.75Y-1.5146
X2.7492Y-1.848
X2.7492Y-2.0449
X4.1614Y-2.537
X4.1614Y-2.7339
T8
X4.735Y-2.4764
X5.035Y-2.4764
T9
X4.3315Y-3.1075
X4.3315Y-3.7075
X4.7528Y-1.4425
X4.7528Y-2.0425
X1.7854Y-1.6161
X2.3854Y-1.6161
X4.987Y-1.4425
X4.987Y-2.0425
X1.7854Y-1.3673
X2.3854Y-1.3673
X4.0657Y-3.1075
X4.0657Y-3.7075
T10
X1.5724Y-1.6122
X1.6752Y-2.5602
X4.8343Y-3.0882
X5.1539Y-3.4264
T11
X1.5827Y-1.2091
X5.1449Y-1.2091
X1.5827Y-3.7567
X5.148Y-3.7618
T0
M30
