%TF.GenerationSoftware,KiCad,Pcbnew,9.0.6*%
%TF.CreationDate,2025-11-25T19:15:15+09:00*%
%TF.ProjectId,12f683MPPT,31326636-3833-44d5-9050-542e6b696361,rev?*%
%TF.SameCoordinates,Original*%
%TF.FileFunction,Legend,Top*%
%TF.FilePolarity,Positive*%
%FSLAX46Y46*%
G04 Gerber Fmt 4.6, Leading zero omitted, Abs format (unit mm)*
G04 Created by KiCad (PCBNEW 9.0.6) date 2025-11-25 19:15:15*
%MOMM*%
%LPD*%
G01*
G04 APERTURE LIST*
%ADD10C,0.150000*%
%ADD11C,0.120000*%
G04 APERTURE END LIST*
D10*
X115489580Y-84826666D02*
X115537200Y-84874285D01*
X115537200Y-84874285D02*
X115584819Y-85017142D01*
X115584819Y-85017142D02*
X115584819Y-85112380D01*
X115584819Y-85112380D02*
X115537200Y-85255237D01*
X115537200Y-85255237D02*
X115441961Y-85350475D01*
X115441961Y-85350475D02*
X115346723Y-85398094D01*
X115346723Y-85398094D02*
X115156247Y-85445713D01*
X115156247Y-85445713D02*
X115013390Y-85445713D01*
X115013390Y-85445713D02*
X114822914Y-85398094D01*
X114822914Y-85398094D02*
X114727676Y-85350475D01*
X114727676Y-85350475D02*
X114632438Y-85255237D01*
X114632438Y-85255237D02*
X114584819Y-85112380D01*
X114584819Y-85112380D02*
X114584819Y-85017142D01*
X114584819Y-85017142D02*
X114632438Y-84874285D01*
X114632438Y-84874285D02*
X114680057Y-84826666D01*
X115584819Y-83874285D02*
X115584819Y-84445713D01*
X115584819Y-84159999D02*
X114584819Y-84159999D01*
X114584819Y-84159999D02*
X114727676Y-84255237D01*
X114727676Y-84255237D02*
X114822914Y-84350475D01*
X114822914Y-84350475D02*
X114870533Y-84445713D01*
X104233333Y-59069580D02*
X104185714Y-59117200D01*
X104185714Y-59117200D02*
X104042857Y-59164819D01*
X104042857Y-59164819D02*
X103947619Y-59164819D01*
X103947619Y-59164819D02*
X103804762Y-59117200D01*
X103804762Y-59117200D02*
X103709524Y-59021961D01*
X103709524Y-59021961D02*
X103661905Y-58926723D01*
X103661905Y-58926723D02*
X103614286Y-58736247D01*
X103614286Y-58736247D02*
X103614286Y-58593390D01*
X103614286Y-58593390D02*
X103661905Y-58402914D01*
X103661905Y-58402914D02*
X103709524Y-58307676D01*
X103709524Y-58307676D02*
X103804762Y-58212438D01*
X103804762Y-58212438D02*
X103947619Y-58164819D01*
X103947619Y-58164819D02*
X104042857Y-58164819D01*
X104042857Y-58164819D02*
X104185714Y-58212438D01*
X104185714Y-58212438D02*
X104233333Y-58260057D01*
X104614286Y-58260057D02*
X104661905Y-58212438D01*
X104661905Y-58212438D02*
X104757143Y-58164819D01*
X104757143Y-58164819D02*
X104995238Y-58164819D01*
X104995238Y-58164819D02*
X105090476Y-58212438D01*
X105090476Y-58212438D02*
X105138095Y-58260057D01*
X105138095Y-58260057D02*
X105185714Y-58355295D01*
X105185714Y-58355295D02*
X105185714Y-58450533D01*
X105185714Y-58450533D02*
X105138095Y-58593390D01*
X105138095Y-58593390D02*
X104566667Y-59164819D01*
X104566667Y-59164819D02*
X105185714Y-59164819D01*
X64399580Y-55036666D02*
X64447200Y-55084285D01*
X64447200Y-55084285D02*
X64494819Y-55227142D01*
X64494819Y-55227142D02*
X64494819Y-55322380D01*
X64494819Y-55322380D02*
X64447200Y-55465237D01*
X64447200Y-55465237D02*
X64351961Y-55560475D01*
X64351961Y-55560475D02*
X64256723Y-55608094D01*
X64256723Y-55608094D02*
X64066247Y-55655713D01*
X64066247Y-55655713D02*
X63923390Y-55655713D01*
X63923390Y-55655713D02*
X63732914Y-55608094D01*
X63732914Y-55608094D02*
X63637676Y-55560475D01*
X63637676Y-55560475D02*
X63542438Y-55465237D01*
X63542438Y-55465237D02*
X63494819Y-55322380D01*
X63494819Y-55322380D02*
X63494819Y-55227142D01*
X63494819Y-55227142D02*
X63542438Y-55084285D01*
X63542438Y-55084285D02*
X63590057Y-55036666D01*
X63494819Y-54703332D02*
X63494819Y-54084285D01*
X63494819Y-54084285D02*
X63875771Y-54417618D01*
X63875771Y-54417618D02*
X63875771Y-54274761D01*
X63875771Y-54274761D02*
X63923390Y-54179523D01*
X63923390Y-54179523D02*
X63971009Y-54131904D01*
X63971009Y-54131904D02*
X64066247Y-54084285D01*
X64066247Y-54084285D02*
X64304342Y-54084285D01*
X64304342Y-54084285D02*
X64399580Y-54131904D01*
X64399580Y-54131904D02*
X64447200Y-54179523D01*
X64447200Y-54179523D02*
X64494819Y-54274761D01*
X64494819Y-54274761D02*
X64494819Y-54560475D01*
X64494819Y-54560475D02*
X64447200Y-54655713D01*
X64447200Y-54655713D02*
X64399580Y-54703332D01*
X100329580Y-72836666D02*
X100377200Y-72884285D01*
X100377200Y-72884285D02*
X100424819Y-73027142D01*
X100424819Y-73027142D02*
X100424819Y-73122380D01*
X100424819Y-73122380D02*
X100377200Y-73265237D01*
X100377200Y-73265237D02*
X100281961Y-73360475D01*
X100281961Y-73360475D02*
X100186723Y-73408094D01*
X100186723Y-73408094D02*
X99996247Y-73455713D01*
X99996247Y-73455713D02*
X99853390Y-73455713D01*
X99853390Y-73455713D02*
X99662914Y-73408094D01*
X99662914Y-73408094D02*
X99567676Y-73360475D01*
X99567676Y-73360475D02*
X99472438Y-73265237D01*
X99472438Y-73265237D02*
X99424819Y-73122380D01*
X99424819Y-73122380D02*
X99424819Y-73027142D01*
X99424819Y-73027142D02*
X99472438Y-72884285D01*
X99472438Y-72884285D02*
X99520057Y-72836666D01*
X99424819Y-71931904D02*
X99424819Y-72408094D01*
X99424819Y-72408094D02*
X99901009Y-72455713D01*
X99901009Y-72455713D02*
X99853390Y-72408094D01*
X99853390Y-72408094D02*
X99805771Y-72312856D01*
X99805771Y-72312856D02*
X99805771Y-72074761D01*
X99805771Y-72074761D02*
X99853390Y-71979523D01*
X99853390Y-71979523D02*
X99901009Y-71931904D01*
X99901009Y-71931904D02*
X99996247Y-71884285D01*
X99996247Y-71884285D02*
X100234342Y-71884285D01*
X100234342Y-71884285D02*
X100329580Y-71931904D01*
X100329580Y-71931904D02*
X100377200Y-71979523D01*
X100377200Y-71979523D02*
X100424819Y-72074761D01*
X100424819Y-72074761D02*
X100424819Y-72312856D01*
X100424819Y-72312856D02*
X100377200Y-72408094D01*
X100377200Y-72408094D02*
X100329580Y-72455713D01*
X52524819Y-88708094D02*
X51524819Y-88708094D01*
X51524819Y-88708094D02*
X51524819Y-88469999D01*
X51524819Y-88469999D02*
X51572438Y-88327142D01*
X51572438Y-88327142D02*
X51667676Y-88231904D01*
X51667676Y-88231904D02*
X51762914Y-88184285D01*
X51762914Y-88184285D02*
X51953390Y-88136666D01*
X51953390Y-88136666D02*
X52096247Y-88136666D01*
X52096247Y-88136666D02*
X52286723Y-88184285D01*
X52286723Y-88184285D02*
X52381961Y-88231904D01*
X52381961Y-88231904D02*
X52477200Y-88327142D01*
X52477200Y-88327142D02*
X52524819Y-88469999D01*
X52524819Y-88469999D02*
X52524819Y-88708094D01*
X51858152Y-87279523D02*
X52524819Y-87279523D01*
X51477200Y-87517618D02*
X52191485Y-87755713D01*
X52191485Y-87755713D02*
X52191485Y-87136666D01*
X52221905Y-41434819D02*
X52221905Y-40434819D01*
X52221905Y-40434819D02*
X52460000Y-40434819D01*
X52460000Y-40434819D02*
X52602857Y-40482438D01*
X52602857Y-40482438D02*
X52698095Y-40577676D01*
X52698095Y-40577676D02*
X52745714Y-40672914D01*
X52745714Y-40672914D02*
X52793333Y-40863390D01*
X52793333Y-40863390D02*
X52793333Y-41006247D01*
X52793333Y-41006247D02*
X52745714Y-41196723D01*
X52745714Y-41196723D02*
X52698095Y-41291961D01*
X52698095Y-41291961D02*
X52602857Y-41387200D01*
X52602857Y-41387200D02*
X52460000Y-41434819D01*
X52460000Y-41434819D02*
X52221905Y-41434819D01*
X53650476Y-40434819D02*
X53460000Y-40434819D01*
X53460000Y-40434819D02*
X53364762Y-40482438D01*
X53364762Y-40482438D02*
X53317143Y-40530057D01*
X53317143Y-40530057D02*
X53221905Y-40672914D01*
X53221905Y-40672914D02*
X53174286Y-40863390D01*
X53174286Y-40863390D02*
X53174286Y-41244342D01*
X53174286Y-41244342D02*
X53221905Y-41339580D01*
X53221905Y-41339580D02*
X53269524Y-41387200D01*
X53269524Y-41387200D02*
X53364762Y-41434819D01*
X53364762Y-41434819D02*
X53555238Y-41434819D01*
X53555238Y-41434819D02*
X53650476Y-41387200D01*
X53650476Y-41387200D02*
X53698095Y-41339580D01*
X53698095Y-41339580D02*
X53745714Y-41244342D01*
X53745714Y-41244342D02*
X53745714Y-41006247D01*
X53745714Y-41006247D02*
X53698095Y-40911009D01*
X53698095Y-40911009D02*
X53650476Y-40863390D01*
X53650476Y-40863390D02*
X53555238Y-40815771D01*
X53555238Y-40815771D02*
X53364762Y-40815771D01*
X53364762Y-40815771D02*
X53269524Y-40863390D01*
X53269524Y-40863390D02*
X53221905Y-40911009D01*
X53221905Y-40911009D02*
X53174286Y-41006247D01*
X124674819Y-62796666D02*
X124674819Y-63272856D01*
X124674819Y-63272856D02*
X123674819Y-63272856D01*
X124674819Y-61939523D02*
X124674819Y-62510951D01*
X124674819Y-62225237D02*
X123674819Y-62225237D01*
X123674819Y-62225237D02*
X123817676Y-62320475D01*
X123817676Y-62320475D02*
X123912914Y-62415713D01*
X123912914Y-62415713D02*
X123960533Y-62510951D01*
X100170057Y-55265238D02*
X100122438Y-55360476D01*
X100122438Y-55360476D02*
X100027200Y-55455714D01*
X100027200Y-55455714D02*
X99884342Y-55598571D01*
X99884342Y-55598571D02*
X99836723Y-55693809D01*
X99836723Y-55693809D02*
X99836723Y-55789047D01*
X100074819Y-55741428D02*
X100027200Y-55836666D01*
X100027200Y-55836666D02*
X99931961Y-55931904D01*
X99931961Y-55931904D02*
X99741485Y-55979523D01*
X99741485Y-55979523D02*
X99408152Y-55979523D01*
X99408152Y-55979523D02*
X99217676Y-55931904D01*
X99217676Y-55931904D02*
X99122438Y-55836666D01*
X99122438Y-55836666D02*
X99074819Y-55741428D01*
X99074819Y-55741428D02*
X99074819Y-55550952D01*
X99074819Y-55550952D02*
X99122438Y-55455714D01*
X99122438Y-55455714D02*
X99217676Y-55360476D01*
X99217676Y-55360476D02*
X99408152Y-55312857D01*
X99408152Y-55312857D02*
X99741485Y-55312857D01*
X99741485Y-55312857D02*
X99931961Y-55360476D01*
X99931961Y-55360476D02*
X100027200Y-55455714D01*
X100027200Y-55455714D02*
X100074819Y-55550952D01*
X100074819Y-55550952D02*
X100074819Y-55741428D01*
X99074819Y-54979523D02*
X99074819Y-54360476D01*
X99074819Y-54360476D02*
X99455771Y-54693809D01*
X99455771Y-54693809D02*
X99455771Y-54550952D01*
X99455771Y-54550952D02*
X99503390Y-54455714D01*
X99503390Y-54455714D02*
X99551009Y-54408095D01*
X99551009Y-54408095D02*
X99646247Y-54360476D01*
X99646247Y-54360476D02*
X99884342Y-54360476D01*
X99884342Y-54360476D02*
X99979580Y-54408095D01*
X99979580Y-54408095D02*
X100027200Y-54455714D01*
X100027200Y-54455714D02*
X100074819Y-54550952D01*
X100074819Y-54550952D02*
X100074819Y-54836666D01*
X100074819Y-54836666D02*
X100027200Y-54931904D01*
X100027200Y-54931904D02*
X99979580Y-54979523D01*
X110760057Y-36765238D02*
X110712438Y-36860476D01*
X110712438Y-36860476D02*
X110617200Y-36955714D01*
X110617200Y-36955714D02*
X110474342Y-37098571D01*
X110474342Y-37098571D02*
X110426723Y-37193809D01*
X110426723Y-37193809D02*
X110426723Y-37289047D01*
X110664819Y-37241428D02*
X110617200Y-37336666D01*
X110617200Y-37336666D02*
X110521961Y-37431904D01*
X110521961Y-37431904D02*
X110331485Y-37479523D01*
X110331485Y-37479523D02*
X109998152Y-37479523D01*
X109998152Y-37479523D02*
X109807676Y-37431904D01*
X109807676Y-37431904D02*
X109712438Y-37336666D01*
X109712438Y-37336666D02*
X109664819Y-37241428D01*
X109664819Y-37241428D02*
X109664819Y-37050952D01*
X109664819Y-37050952D02*
X109712438Y-36955714D01*
X109712438Y-36955714D02*
X109807676Y-36860476D01*
X109807676Y-36860476D02*
X109998152Y-36812857D01*
X109998152Y-36812857D02*
X110331485Y-36812857D01*
X110331485Y-36812857D02*
X110521961Y-36860476D01*
X110521961Y-36860476D02*
X110617200Y-36955714D01*
X110617200Y-36955714D02*
X110664819Y-37050952D01*
X110664819Y-37050952D02*
X110664819Y-37241428D01*
X109998152Y-35955714D02*
X110664819Y-35955714D01*
X109617200Y-36193809D02*
X110331485Y-36431904D01*
X110331485Y-36431904D02*
X110331485Y-35812857D01*
X114150057Y-36765238D02*
X114102438Y-36860476D01*
X114102438Y-36860476D02*
X114007200Y-36955714D01*
X114007200Y-36955714D02*
X113864342Y-37098571D01*
X113864342Y-37098571D02*
X113816723Y-37193809D01*
X113816723Y-37193809D02*
X113816723Y-37289047D01*
X114054819Y-37241428D02*
X114007200Y-37336666D01*
X114007200Y-37336666D02*
X113911961Y-37431904D01*
X113911961Y-37431904D02*
X113721485Y-37479523D01*
X113721485Y-37479523D02*
X113388152Y-37479523D01*
X113388152Y-37479523D02*
X113197676Y-37431904D01*
X113197676Y-37431904D02*
X113102438Y-37336666D01*
X113102438Y-37336666D02*
X113054819Y-37241428D01*
X113054819Y-37241428D02*
X113054819Y-37050952D01*
X113054819Y-37050952D02*
X113102438Y-36955714D01*
X113102438Y-36955714D02*
X113197676Y-36860476D01*
X113197676Y-36860476D02*
X113388152Y-36812857D01*
X113388152Y-36812857D02*
X113721485Y-36812857D01*
X113721485Y-36812857D02*
X113911961Y-36860476D01*
X113911961Y-36860476D02*
X114007200Y-36955714D01*
X114007200Y-36955714D02*
X114054819Y-37050952D01*
X114054819Y-37050952D02*
X114054819Y-37241428D01*
X113054819Y-35908095D02*
X113054819Y-36384285D01*
X113054819Y-36384285D02*
X113531009Y-36431904D01*
X113531009Y-36431904D02*
X113483390Y-36384285D01*
X113483390Y-36384285D02*
X113435771Y-36289047D01*
X113435771Y-36289047D02*
X113435771Y-36050952D01*
X113435771Y-36050952D02*
X113483390Y-35955714D01*
X113483390Y-35955714D02*
X113531009Y-35908095D01*
X113531009Y-35908095D02*
X113626247Y-35860476D01*
X113626247Y-35860476D02*
X113864342Y-35860476D01*
X113864342Y-35860476D02*
X113959580Y-35908095D01*
X113959580Y-35908095D02*
X114007200Y-35955714D01*
X114007200Y-35955714D02*
X114054819Y-36050952D01*
X114054819Y-36050952D02*
X114054819Y-36289047D01*
X114054819Y-36289047D02*
X114007200Y-36384285D01*
X114007200Y-36384285D02*
X113959580Y-36431904D01*
X76133333Y-82444819D02*
X75800000Y-81968628D01*
X75561905Y-82444819D02*
X75561905Y-81444819D01*
X75561905Y-81444819D02*
X75942857Y-81444819D01*
X75942857Y-81444819D02*
X76038095Y-81492438D01*
X76038095Y-81492438D02*
X76085714Y-81540057D01*
X76085714Y-81540057D02*
X76133333Y-81635295D01*
X76133333Y-81635295D02*
X76133333Y-81778152D01*
X76133333Y-81778152D02*
X76085714Y-81873390D01*
X76085714Y-81873390D02*
X76038095Y-81921009D01*
X76038095Y-81921009D02*
X75942857Y-81968628D01*
X75942857Y-81968628D02*
X75561905Y-81968628D01*
X77085714Y-82444819D02*
X76514286Y-82444819D01*
X76800000Y-82444819D02*
X76800000Y-81444819D01*
X76800000Y-81444819D02*
X76704762Y-81587676D01*
X76704762Y-81587676D02*
X76609524Y-81682914D01*
X76609524Y-81682914D02*
X76514286Y-81730533D01*
X67604819Y-83386666D02*
X67128628Y-83719999D01*
X67604819Y-83958094D02*
X66604819Y-83958094D01*
X66604819Y-83958094D02*
X66604819Y-83577142D01*
X66604819Y-83577142D02*
X66652438Y-83481904D01*
X66652438Y-83481904D02*
X66700057Y-83434285D01*
X66700057Y-83434285D02*
X66795295Y-83386666D01*
X66795295Y-83386666D02*
X66938152Y-83386666D01*
X66938152Y-83386666D02*
X67033390Y-83434285D01*
X67033390Y-83434285D02*
X67081009Y-83481904D01*
X67081009Y-83481904D02*
X67128628Y-83577142D01*
X67128628Y-83577142D02*
X67128628Y-83958094D01*
X66700057Y-83005713D02*
X66652438Y-82958094D01*
X66652438Y-82958094D02*
X66604819Y-82862856D01*
X66604819Y-82862856D02*
X66604819Y-82624761D01*
X66604819Y-82624761D02*
X66652438Y-82529523D01*
X66652438Y-82529523D02*
X66700057Y-82481904D01*
X66700057Y-82481904D02*
X66795295Y-82434285D01*
X66795295Y-82434285D02*
X66890533Y-82434285D01*
X66890533Y-82434285D02*
X67033390Y-82481904D01*
X67033390Y-82481904D02*
X67604819Y-83053332D01*
X67604819Y-83053332D02*
X67604819Y-82434285D01*
X71894819Y-83356666D02*
X71418628Y-83689999D01*
X71894819Y-83928094D02*
X70894819Y-83928094D01*
X70894819Y-83928094D02*
X70894819Y-83547142D01*
X70894819Y-83547142D02*
X70942438Y-83451904D01*
X70942438Y-83451904D02*
X70990057Y-83404285D01*
X70990057Y-83404285D02*
X71085295Y-83356666D01*
X71085295Y-83356666D02*
X71228152Y-83356666D01*
X71228152Y-83356666D02*
X71323390Y-83404285D01*
X71323390Y-83404285D02*
X71371009Y-83451904D01*
X71371009Y-83451904D02*
X71418628Y-83547142D01*
X71418628Y-83547142D02*
X71418628Y-83928094D01*
X71228152Y-82499523D02*
X71894819Y-82499523D01*
X70847200Y-82737618D02*
X71561485Y-82975713D01*
X71561485Y-82975713D02*
X71561485Y-82356666D01*
X44374819Y-58356666D02*
X43898628Y-58689999D01*
X44374819Y-58928094D02*
X43374819Y-58928094D01*
X43374819Y-58928094D02*
X43374819Y-58547142D01*
X43374819Y-58547142D02*
X43422438Y-58451904D01*
X43422438Y-58451904D02*
X43470057Y-58404285D01*
X43470057Y-58404285D02*
X43565295Y-58356666D01*
X43565295Y-58356666D02*
X43708152Y-58356666D01*
X43708152Y-58356666D02*
X43803390Y-58404285D01*
X43803390Y-58404285D02*
X43851009Y-58451904D01*
X43851009Y-58451904D02*
X43898628Y-58547142D01*
X43898628Y-58547142D02*
X43898628Y-58928094D01*
X43374819Y-57451904D02*
X43374819Y-57928094D01*
X43374819Y-57928094D02*
X43851009Y-57975713D01*
X43851009Y-57975713D02*
X43803390Y-57928094D01*
X43803390Y-57928094D02*
X43755771Y-57832856D01*
X43755771Y-57832856D02*
X43755771Y-57594761D01*
X43755771Y-57594761D02*
X43803390Y-57499523D01*
X43803390Y-57499523D02*
X43851009Y-57451904D01*
X43851009Y-57451904D02*
X43946247Y-57404285D01*
X43946247Y-57404285D02*
X44184342Y-57404285D01*
X44184342Y-57404285D02*
X44279580Y-57451904D01*
X44279580Y-57451904D02*
X44327200Y-57499523D01*
X44327200Y-57499523D02*
X44374819Y-57594761D01*
X44374819Y-57594761D02*
X44374819Y-57832856D01*
X44374819Y-57832856D02*
X44327200Y-57928094D01*
X44327200Y-57928094D02*
X44279580Y-57975713D01*
X55554819Y-83806666D02*
X55078628Y-84139999D01*
X55554819Y-84378094D02*
X54554819Y-84378094D01*
X54554819Y-84378094D02*
X54554819Y-83997142D01*
X54554819Y-83997142D02*
X54602438Y-83901904D01*
X54602438Y-83901904D02*
X54650057Y-83854285D01*
X54650057Y-83854285D02*
X54745295Y-83806666D01*
X54745295Y-83806666D02*
X54888152Y-83806666D01*
X54888152Y-83806666D02*
X54983390Y-83854285D01*
X54983390Y-83854285D02*
X55031009Y-83901904D01*
X55031009Y-83901904D02*
X55078628Y-83997142D01*
X55078628Y-83997142D02*
X55078628Y-84378094D01*
X54554819Y-82949523D02*
X54554819Y-83139999D01*
X54554819Y-83139999D02*
X54602438Y-83235237D01*
X54602438Y-83235237D02*
X54650057Y-83282856D01*
X54650057Y-83282856D02*
X54792914Y-83378094D01*
X54792914Y-83378094D02*
X54983390Y-83425713D01*
X54983390Y-83425713D02*
X55364342Y-83425713D01*
X55364342Y-83425713D02*
X55459580Y-83378094D01*
X55459580Y-83378094D02*
X55507200Y-83330475D01*
X55507200Y-83330475D02*
X55554819Y-83235237D01*
X55554819Y-83235237D02*
X55554819Y-83044761D01*
X55554819Y-83044761D02*
X55507200Y-82949523D01*
X55507200Y-82949523D02*
X55459580Y-82901904D01*
X55459580Y-82901904D02*
X55364342Y-82854285D01*
X55364342Y-82854285D02*
X55126247Y-82854285D01*
X55126247Y-82854285D02*
X55031009Y-82901904D01*
X55031009Y-82901904D02*
X54983390Y-82949523D01*
X54983390Y-82949523D02*
X54935771Y-83044761D01*
X54935771Y-83044761D02*
X54935771Y-83235237D01*
X54935771Y-83235237D02*
X54983390Y-83330475D01*
X54983390Y-83330475D02*
X55031009Y-83378094D01*
X55031009Y-83378094D02*
X55126247Y-83425713D01*
X59743333Y-58544819D02*
X59410000Y-58068628D01*
X59171905Y-58544819D02*
X59171905Y-57544819D01*
X59171905Y-57544819D02*
X59552857Y-57544819D01*
X59552857Y-57544819D02*
X59648095Y-57592438D01*
X59648095Y-57592438D02*
X59695714Y-57640057D01*
X59695714Y-57640057D02*
X59743333Y-57735295D01*
X59743333Y-57735295D02*
X59743333Y-57878152D01*
X59743333Y-57878152D02*
X59695714Y-57973390D01*
X59695714Y-57973390D02*
X59648095Y-58021009D01*
X59648095Y-58021009D02*
X59552857Y-58068628D01*
X59552857Y-58068628D02*
X59171905Y-58068628D01*
X60314762Y-57973390D02*
X60219524Y-57925771D01*
X60219524Y-57925771D02*
X60171905Y-57878152D01*
X60171905Y-57878152D02*
X60124286Y-57782914D01*
X60124286Y-57782914D02*
X60124286Y-57735295D01*
X60124286Y-57735295D02*
X60171905Y-57640057D01*
X60171905Y-57640057D02*
X60219524Y-57592438D01*
X60219524Y-57592438D02*
X60314762Y-57544819D01*
X60314762Y-57544819D02*
X60505238Y-57544819D01*
X60505238Y-57544819D02*
X60600476Y-57592438D01*
X60600476Y-57592438D02*
X60648095Y-57640057D01*
X60648095Y-57640057D02*
X60695714Y-57735295D01*
X60695714Y-57735295D02*
X60695714Y-57782914D01*
X60695714Y-57782914D02*
X60648095Y-57878152D01*
X60648095Y-57878152D02*
X60600476Y-57925771D01*
X60600476Y-57925771D02*
X60505238Y-57973390D01*
X60505238Y-57973390D02*
X60314762Y-57973390D01*
X60314762Y-57973390D02*
X60219524Y-58021009D01*
X60219524Y-58021009D02*
X60171905Y-58068628D01*
X60171905Y-58068628D02*
X60124286Y-58163866D01*
X60124286Y-58163866D02*
X60124286Y-58354342D01*
X60124286Y-58354342D02*
X60171905Y-58449580D01*
X60171905Y-58449580D02*
X60219524Y-58497200D01*
X60219524Y-58497200D02*
X60314762Y-58544819D01*
X60314762Y-58544819D02*
X60505238Y-58544819D01*
X60505238Y-58544819D02*
X60600476Y-58497200D01*
X60600476Y-58497200D02*
X60648095Y-58449580D01*
X60648095Y-58449580D02*
X60695714Y-58354342D01*
X60695714Y-58354342D02*
X60695714Y-58163866D01*
X60695714Y-58163866D02*
X60648095Y-58068628D01*
X60648095Y-58068628D02*
X60600476Y-58021009D01*
X60600476Y-58021009D02*
X60505238Y-57973390D01*
X91893333Y-36304819D02*
X91560000Y-35828628D01*
X91321905Y-36304819D02*
X91321905Y-35304819D01*
X91321905Y-35304819D02*
X91702857Y-35304819D01*
X91702857Y-35304819D02*
X91798095Y-35352438D01*
X91798095Y-35352438D02*
X91845714Y-35400057D01*
X91845714Y-35400057D02*
X91893333Y-35495295D01*
X91893333Y-35495295D02*
X91893333Y-35638152D01*
X91893333Y-35638152D02*
X91845714Y-35733390D01*
X91845714Y-35733390D02*
X91798095Y-35781009D01*
X91798095Y-35781009D02*
X91702857Y-35828628D01*
X91702857Y-35828628D02*
X91321905Y-35828628D01*
X92369524Y-36304819D02*
X92560000Y-36304819D01*
X92560000Y-36304819D02*
X92655238Y-36257200D01*
X92655238Y-36257200D02*
X92702857Y-36209580D01*
X92702857Y-36209580D02*
X92798095Y-36066723D01*
X92798095Y-36066723D02*
X92845714Y-35876247D01*
X92845714Y-35876247D02*
X92845714Y-35495295D01*
X92845714Y-35495295D02*
X92798095Y-35400057D01*
X92798095Y-35400057D02*
X92750476Y-35352438D01*
X92750476Y-35352438D02*
X92655238Y-35304819D01*
X92655238Y-35304819D02*
X92464762Y-35304819D01*
X92464762Y-35304819D02*
X92369524Y-35352438D01*
X92369524Y-35352438D02*
X92321905Y-35400057D01*
X92321905Y-35400057D02*
X92274286Y-35495295D01*
X92274286Y-35495295D02*
X92274286Y-35733390D01*
X92274286Y-35733390D02*
X92321905Y-35828628D01*
X92321905Y-35828628D02*
X92369524Y-35876247D01*
X92369524Y-35876247D02*
X92464762Y-35923866D01*
X92464762Y-35923866D02*
X92655238Y-35923866D01*
X92655238Y-35923866D02*
X92750476Y-35876247D01*
X92750476Y-35876247D02*
X92798095Y-35828628D01*
X92798095Y-35828628D02*
X92845714Y-35733390D01*
X88597142Y-43594819D02*
X88263809Y-43118628D01*
X88025714Y-43594819D02*
X88025714Y-42594819D01*
X88025714Y-42594819D02*
X88406666Y-42594819D01*
X88406666Y-42594819D02*
X88501904Y-42642438D01*
X88501904Y-42642438D02*
X88549523Y-42690057D01*
X88549523Y-42690057D02*
X88597142Y-42785295D01*
X88597142Y-42785295D02*
X88597142Y-42928152D01*
X88597142Y-42928152D02*
X88549523Y-43023390D01*
X88549523Y-43023390D02*
X88501904Y-43071009D01*
X88501904Y-43071009D02*
X88406666Y-43118628D01*
X88406666Y-43118628D02*
X88025714Y-43118628D01*
X89549523Y-43594819D02*
X88978095Y-43594819D01*
X89263809Y-43594819D02*
X89263809Y-42594819D01*
X89263809Y-42594819D02*
X89168571Y-42737676D01*
X89168571Y-42737676D02*
X89073333Y-42832914D01*
X89073333Y-42832914D02*
X88978095Y-42880533D01*
X90168571Y-42594819D02*
X90263809Y-42594819D01*
X90263809Y-42594819D02*
X90359047Y-42642438D01*
X90359047Y-42642438D02*
X90406666Y-42690057D01*
X90406666Y-42690057D02*
X90454285Y-42785295D01*
X90454285Y-42785295D02*
X90501904Y-42975771D01*
X90501904Y-42975771D02*
X90501904Y-43213866D01*
X90501904Y-43213866D02*
X90454285Y-43404342D01*
X90454285Y-43404342D02*
X90406666Y-43499580D01*
X90406666Y-43499580D02*
X90359047Y-43547200D01*
X90359047Y-43547200D02*
X90263809Y-43594819D01*
X90263809Y-43594819D02*
X90168571Y-43594819D01*
X90168571Y-43594819D02*
X90073333Y-43547200D01*
X90073333Y-43547200D02*
X90025714Y-43499580D01*
X90025714Y-43499580D02*
X89978095Y-43404342D01*
X89978095Y-43404342D02*
X89930476Y-43213866D01*
X89930476Y-43213866D02*
X89930476Y-42975771D01*
X89930476Y-42975771D02*
X89978095Y-42785295D01*
X89978095Y-42785295D02*
X90025714Y-42690057D01*
X90025714Y-42690057D02*
X90073333Y-42642438D01*
X90073333Y-42642438D02*
X90168571Y-42594819D01*
X59127142Y-63074819D02*
X58793809Y-62598628D01*
X58555714Y-63074819D02*
X58555714Y-62074819D01*
X58555714Y-62074819D02*
X58936666Y-62074819D01*
X58936666Y-62074819D02*
X59031904Y-62122438D01*
X59031904Y-62122438D02*
X59079523Y-62170057D01*
X59079523Y-62170057D02*
X59127142Y-62265295D01*
X59127142Y-62265295D02*
X59127142Y-62408152D01*
X59127142Y-62408152D02*
X59079523Y-62503390D01*
X59079523Y-62503390D02*
X59031904Y-62551009D01*
X59031904Y-62551009D02*
X58936666Y-62598628D01*
X58936666Y-62598628D02*
X58555714Y-62598628D01*
X60079523Y-63074819D02*
X59508095Y-63074819D01*
X59793809Y-63074819D02*
X59793809Y-62074819D01*
X59793809Y-62074819D02*
X59698571Y-62217676D01*
X59698571Y-62217676D02*
X59603333Y-62312914D01*
X59603333Y-62312914D02*
X59508095Y-62360533D01*
X60936666Y-62074819D02*
X60746190Y-62074819D01*
X60746190Y-62074819D02*
X60650952Y-62122438D01*
X60650952Y-62122438D02*
X60603333Y-62170057D01*
X60603333Y-62170057D02*
X60508095Y-62312914D01*
X60508095Y-62312914D02*
X60460476Y-62503390D01*
X60460476Y-62503390D02*
X60460476Y-62884342D01*
X60460476Y-62884342D02*
X60508095Y-62979580D01*
X60508095Y-62979580D02*
X60555714Y-63027200D01*
X60555714Y-63027200D02*
X60650952Y-63074819D01*
X60650952Y-63074819D02*
X60841428Y-63074819D01*
X60841428Y-63074819D02*
X60936666Y-63027200D01*
X60936666Y-63027200D02*
X60984285Y-62979580D01*
X60984285Y-62979580D02*
X61031904Y-62884342D01*
X61031904Y-62884342D02*
X61031904Y-62646247D01*
X61031904Y-62646247D02*
X60984285Y-62551009D01*
X60984285Y-62551009D02*
X60936666Y-62503390D01*
X60936666Y-62503390D02*
X60841428Y-62455771D01*
X60841428Y-62455771D02*
X60650952Y-62455771D01*
X60650952Y-62455771D02*
X60555714Y-62503390D01*
X60555714Y-62503390D02*
X60508095Y-62551009D01*
X60508095Y-62551009D02*
X60460476Y-62646247D01*
X81508095Y-50144819D02*
X81508095Y-50954342D01*
X81508095Y-50954342D02*
X81555714Y-51049580D01*
X81555714Y-51049580D02*
X81603333Y-51097200D01*
X81603333Y-51097200D02*
X81698571Y-51144819D01*
X81698571Y-51144819D02*
X81889047Y-51144819D01*
X81889047Y-51144819D02*
X81984285Y-51097200D01*
X81984285Y-51097200D02*
X82031904Y-51049580D01*
X82031904Y-51049580D02*
X82079523Y-50954342D01*
X82079523Y-50954342D02*
X82079523Y-50144819D01*
X82508095Y-50240057D02*
X82555714Y-50192438D01*
X82555714Y-50192438D02*
X82650952Y-50144819D01*
X82650952Y-50144819D02*
X82889047Y-50144819D01*
X82889047Y-50144819D02*
X82984285Y-50192438D01*
X82984285Y-50192438D02*
X83031904Y-50240057D01*
X83031904Y-50240057D02*
X83079523Y-50335295D01*
X83079523Y-50335295D02*
X83079523Y-50430533D01*
X83079523Y-50430533D02*
X83031904Y-50573390D01*
X83031904Y-50573390D02*
X82460476Y-51144819D01*
X82460476Y-51144819D02*
X83079523Y-51144819D01*
X51084819Y-78862857D02*
X50608628Y-79196190D01*
X51084819Y-79434285D02*
X50084819Y-79434285D01*
X50084819Y-79434285D02*
X50084819Y-79053333D01*
X50084819Y-79053333D02*
X50132438Y-78958095D01*
X50132438Y-78958095D02*
X50180057Y-78910476D01*
X50180057Y-78910476D02*
X50275295Y-78862857D01*
X50275295Y-78862857D02*
X50418152Y-78862857D01*
X50418152Y-78862857D02*
X50513390Y-78910476D01*
X50513390Y-78910476D02*
X50561009Y-78958095D01*
X50561009Y-78958095D02*
X50608628Y-79053333D01*
X50608628Y-79053333D02*
X50608628Y-79434285D01*
X51084819Y-77910476D02*
X51084819Y-78481904D01*
X51084819Y-78196190D02*
X50084819Y-78196190D01*
X50084819Y-78196190D02*
X50227676Y-78291428D01*
X50227676Y-78291428D02*
X50322914Y-78386666D01*
X50322914Y-78386666D02*
X50370533Y-78481904D01*
X50180057Y-77529523D02*
X50132438Y-77481904D01*
X50132438Y-77481904D02*
X50084819Y-77386666D01*
X50084819Y-77386666D02*
X50084819Y-77148571D01*
X50084819Y-77148571D02*
X50132438Y-77053333D01*
X50132438Y-77053333D02*
X50180057Y-77005714D01*
X50180057Y-77005714D02*
X50275295Y-76958095D01*
X50275295Y-76958095D02*
X50370533Y-76958095D01*
X50370533Y-76958095D02*
X50513390Y-77005714D01*
X50513390Y-77005714D02*
X51084819Y-77577142D01*
X51084819Y-77577142D02*
X51084819Y-76958095D01*
X51034819Y-51318094D02*
X50034819Y-51318094D01*
X50034819Y-51318094D02*
X50034819Y-51079999D01*
X50034819Y-51079999D02*
X50082438Y-50937142D01*
X50082438Y-50937142D02*
X50177676Y-50841904D01*
X50177676Y-50841904D02*
X50272914Y-50794285D01*
X50272914Y-50794285D02*
X50463390Y-50746666D01*
X50463390Y-50746666D02*
X50606247Y-50746666D01*
X50606247Y-50746666D02*
X50796723Y-50794285D01*
X50796723Y-50794285D02*
X50891961Y-50841904D01*
X50891961Y-50841904D02*
X50987200Y-50937142D01*
X50987200Y-50937142D02*
X51034819Y-51079999D01*
X51034819Y-51079999D02*
X51034819Y-51318094D01*
X50034819Y-49841904D02*
X50034819Y-50318094D01*
X50034819Y-50318094D02*
X50511009Y-50365713D01*
X50511009Y-50365713D02*
X50463390Y-50318094D01*
X50463390Y-50318094D02*
X50415771Y-50222856D01*
X50415771Y-50222856D02*
X50415771Y-49984761D01*
X50415771Y-49984761D02*
X50463390Y-49889523D01*
X50463390Y-49889523D02*
X50511009Y-49841904D01*
X50511009Y-49841904D02*
X50606247Y-49794285D01*
X50606247Y-49794285D02*
X50844342Y-49794285D01*
X50844342Y-49794285D02*
X50939580Y-49841904D01*
X50939580Y-49841904D02*
X50987200Y-49889523D01*
X50987200Y-49889523D02*
X51034819Y-49984761D01*
X51034819Y-49984761D02*
X51034819Y-50222856D01*
X51034819Y-50222856D02*
X50987200Y-50318094D01*
X50987200Y-50318094D02*
X50939580Y-50365713D01*
X57018095Y-49334819D02*
X57018095Y-50144342D01*
X57018095Y-50144342D02*
X57065714Y-50239580D01*
X57065714Y-50239580D02*
X57113333Y-50287200D01*
X57113333Y-50287200D02*
X57208571Y-50334819D01*
X57208571Y-50334819D02*
X57399047Y-50334819D01*
X57399047Y-50334819D02*
X57494285Y-50287200D01*
X57494285Y-50287200D02*
X57541904Y-50239580D01*
X57541904Y-50239580D02*
X57589523Y-50144342D01*
X57589523Y-50144342D02*
X57589523Y-49334819D01*
X58589523Y-50334819D02*
X58018095Y-50334819D01*
X58303809Y-50334819D02*
X58303809Y-49334819D01*
X58303809Y-49334819D02*
X58208571Y-49477676D01*
X58208571Y-49477676D02*
X58113333Y-49572914D01*
X58113333Y-49572914D02*
X58018095Y-49620533D01*
X81548095Y-65404819D02*
X81548095Y-66214342D01*
X81548095Y-66214342D02*
X81595714Y-66309580D01*
X81595714Y-66309580D02*
X81643333Y-66357200D01*
X81643333Y-66357200D02*
X81738571Y-66404819D01*
X81738571Y-66404819D02*
X81929047Y-66404819D01*
X81929047Y-66404819D02*
X82024285Y-66357200D01*
X82024285Y-66357200D02*
X82071904Y-66309580D01*
X82071904Y-66309580D02*
X82119523Y-66214342D01*
X82119523Y-66214342D02*
X82119523Y-65404819D01*
X82500476Y-65404819D02*
X83119523Y-65404819D01*
X83119523Y-65404819D02*
X82786190Y-65785771D01*
X82786190Y-65785771D02*
X82929047Y-65785771D01*
X82929047Y-65785771D02*
X83024285Y-65833390D01*
X83024285Y-65833390D02*
X83071904Y-65881009D01*
X83071904Y-65881009D02*
X83119523Y-65976247D01*
X83119523Y-65976247D02*
X83119523Y-66214342D01*
X83119523Y-66214342D02*
X83071904Y-66309580D01*
X83071904Y-66309580D02*
X83024285Y-66357200D01*
X83024285Y-66357200D02*
X82929047Y-66404819D01*
X82929047Y-66404819D02*
X82643333Y-66404819D01*
X82643333Y-66404819D02*
X82548095Y-66357200D01*
X82548095Y-66357200D02*
X82500476Y-66309580D01*
X97911905Y-82464819D02*
X97911905Y-81464819D01*
X97911905Y-81464819D02*
X98150000Y-81464819D01*
X98150000Y-81464819D02*
X98292857Y-81512438D01*
X98292857Y-81512438D02*
X98388095Y-81607676D01*
X98388095Y-81607676D02*
X98435714Y-81702914D01*
X98435714Y-81702914D02*
X98483333Y-81893390D01*
X98483333Y-81893390D02*
X98483333Y-82036247D01*
X98483333Y-82036247D02*
X98435714Y-82226723D01*
X98435714Y-82226723D02*
X98388095Y-82321961D01*
X98388095Y-82321961D02*
X98292857Y-82417200D01*
X98292857Y-82417200D02*
X98150000Y-82464819D01*
X98150000Y-82464819D02*
X97911905Y-82464819D01*
X98816667Y-81464819D02*
X99483333Y-81464819D01*
X99483333Y-81464819D02*
X99054762Y-82464819D01*
X127154819Y-45088094D02*
X126154819Y-45088094D01*
X126154819Y-45088094D02*
X126154819Y-44849999D01*
X126154819Y-44849999D02*
X126202438Y-44707142D01*
X126202438Y-44707142D02*
X126297676Y-44611904D01*
X126297676Y-44611904D02*
X126392914Y-44564285D01*
X126392914Y-44564285D02*
X126583390Y-44516666D01*
X126583390Y-44516666D02*
X126726247Y-44516666D01*
X126726247Y-44516666D02*
X126916723Y-44564285D01*
X126916723Y-44564285D02*
X127011961Y-44611904D01*
X127011961Y-44611904D02*
X127107200Y-44707142D01*
X127107200Y-44707142D02*
X127154819Y-44849999D01*
X127154819Y-44849999D02*
X127154819Y-45088094D01*
X127154819Y-43564285D02*
X127154819Y-44135713D01*
X127154819Y-43849999D02*
X126154819Y-43849999D01*
X126154819Y-43849999D02*
X126297676Y-43945237D01*
X126297676Y-43945237D02*
X126392914Y-44040475D01*
X126392914Y-44040475D02*
X126440533Y-44135713D01*
X98231905Y-87134819D02*
X98231905Y-86134819D01*
X98231905Y-86134819D02*
X98470000Y-86134819D01*
X98470000Y-86134819D02*
X98612857Y-86182438D01*
X98612857Y-86182438D02*
X98708095Y-86277676D01*
X98708095Y-86277676D02*
X98755714Y-86372914D01*
X98755714Y-86372914D02*
X98803333Y-86563390D01*
X98803333Y-86563390D02*
X98803333Y-86706247D01*
X98803333Y-86706247D02*
X98755714Y-86896723D01*
X98755714Y-86896723D02*
X98708095Y-86991961D01*
X98708095Y-86991961D02*
X98612857Y-87087200D01*
X98612857Y-87087200D02*
X98470000Y-87134819D01*
X98470000Y-87134819D02*
X98231905Y-87134819D01*
X99374762Y-86563390D02*
X99279524Y-86515771D01*
X99279524Y-86515771D02*
X99231905Y-86468152D01*
X99231905Y-86468152D02*
X99184286Y-86372914D01*
X99184286Y-86372914D02*
X99184286Y-86325295D01*
X99184286Y-86325295D02*
X99231905Y-86230057D01*
X99231905Y-86230057D02*
X99279524Y-86182438D01*
X99279524Y-86182438D02*
X99374762Y-86134819D01*
X99374762Y-86134819D02*
X99565238Y-86134819D01*
X99565238Y-86134819D02*
X99660476Y-86182438D01*
X99660476Y-86182438D02*
X99708095Y-86230057D01*
X99708095Y-86230057D02*
X99755714Y-86325295D01*
X99755714Y-86325295D02*
X99755714Y-86372914D01*
X99755714Y-86372914D02*
X99708095Y-86468152D01*
X99708095Y-86468152D02*
X99660476Y-86515771D01*
X99660476Y-86515771D02*
X99565238Y-86563390D01*
X99565238Y-86563390D02*
X99374762Y-86563390D01*
X99374762Y-86563390D02*
X99279524Y-86611009D01*
X99279524Y-86611009D02*
X99231905Y-86658628D01*
X99231905Y-86658628D02*
X99184286Y-86753866D01*
X99184286Y-86753866D02*
X99184286Y-86944342D01*
X99184286Y-86944342D02*
X99231905Y-87039580D01*
X99231905Y-87039580D02*
X99279524Y-87087200D01*
X99279524Y-87087200D02*
X99374762Y-87134819D01*
X99374762Y-87134819D02*
X99565238Y-87134819D01*
X99565238Y-87134819D02*
X99660476Y-87087200D01*
X99660476Y-87087200D02*
X99708095Y-87039580D01*
X99708095Y-87039580D02*
X99755714Y-86944342D01*
X99755714Y-86944342D02*
X99755714Y-86753866D01*
X99755714Y-86753866D02*
X99708095Y-86658628D01*
X99708095Y-86658628D02*
X99660476Y-86611009D01*
X99660476Y-86611009D02*
X99565238Y-86563390D01*
X75077142Y-86224819D02*
X74743809Y-85748628D01*
X74505714Y-86224819D02*
X74505714Y-85224819D01*
X74505714Y-85224819D02*
X74886666Y-85224819D01*
X74886666Y-85224819D02*
X74981904Y-85272438D01*
X74981904Y-85272438D02*
X75029523Y-85320057D01*
X75029523Y-85320057D02*
X75077142Y-85415295D01*
X75077142Y-85415295D02*
X75077142Y-85558152D01*
X75077142Y-85558152D02*
X75029523Y-85653390D01*
X75029523Y-85653390D02*
X74981904Y-85701009D01*
X74981904Y-85701009D02*
X74886666Y-85748628D01*
X74886666Y-85748628D02*
X74505714Y-85748628D01*
X76029523Y-86224819D02*
X75458095Y-86224819D01*
X75743809Y-86224819D02*
X75743809Y-85224819D01*
X75743809Y-85224819D02*
X75648571Y-85367676D01*
X75648571Y-85367676D02*
X75553333Y-85462914D01*
X75553333Y-85462914D02*
X75458095Y-85510533D01*
X76362857Y-85224819D02*
X76981904Y-85224819D01*
X76981904Y-85224819D02*
X76648571Y-85605771D01*
X76648571Y-85605771D02*
X76791428Y-85605771D01*
X76791428Y-85605771D02*
X76886666Y-85653390D01*
X76886666Y-85653390D02*
X76934285Y-85701009D01*
X76934285Y-85701009D02*
X76981904Y-85796247D01*
X76981904Y-85796247D02*
X76981904Y-86034342D01*
X76981904Y-86034342D02*
X76934285Y-86129580D01*
X76934285Y-86129580D02*
X76886666Y-86177200D01*
X76886666Y-86177200D02*
X76791428Y-86224819D01*
X76791428Y-86224819D02*
X76505714Y-86224819D01*
X76505714Y-86224819D02*
X76410476Y-86177200D01*
X76410476Y-86177200D02*
X76362857Y-86129580D01*
X110454819Y-87268094D02*
X109454819Y-87268094D01*
X109454819Y-87268094D02*
X109454819Y-87029999D01*
X109454819Y-87029999D02*
X109502438Y-86887142D01*
X109502438Y-86887142D02*
X109597676Y-86791904D01*
X109597676Y-86791904D02*
X109692914Y-86744285D01*
X109692914Y-86744285D02*
X109883390Y-86696666D01*
X109883390Y-86696666D02*
X110026247Y-86696666D01*
X110026247Y-86696666D02*
X110216723Y-86744285D01*
X110216723Y-86744285D02*
X110311961Y-86791904D01*
X110311961Y-86791904D02*
X110407200Y-86887142D01*
X110407200Y-86887142D02*
X110454819Y-87029999D01*
X110454819Y-87029999D02*
X110454819Y-87268094D01*
X109550057Y-86315713D02*
X109502438Y-86268094D01*
X109502438Y-86268094D02*
X109454819Y-86172856D01*
X109454819Y-86172856D02*
X109454819Y-85934761D01*
X109454819Y-85934761D02*
X109502438Y-85839523D01*
X109502438Y-85839523D02*
X109550057Y-85791904D01*
X109550057Y-85791904D02*
X109645295Y-85744285D01*
X109645295Y-85744285D02*
X109740533Y-85744285D01*
X109740533Y-85744285D02*
X109883390Y-85791904D01*
X109883390Y-85791904D02*
X110454819Y-86363332D01*
X110454819Y-86363332D02*
X110454819Y-85744285D01*
X103754819Y-87308094D02*
X102754819Y-87308094D01*
X102754819Y-87308094D02*
X102754819Y-87069999D01*
X102754819Y-87069999D02*
X102802438Y-86927142D01*
X102802438Y-86927142D02*
X102897676Y-86831904D01*
X102897676Y-86831904D02*
X102992914Y-86784285D01*
X102992914Y-86784285D02*
X103183390Y-86736666D01*
X103183390Y-86736666D02*
X103326247Y-86736666D01*
X103326247Y-86736666D02*
X103516723Y-86784285D01*
X103516723Y-86784285D02*
X103611961Y-86831904D01*
X103611961Y-86831904D02*
X103707200Y-86927142D01*
X103707200Y-86927142D02*
X103754819Y-87069999D01*
X103754819Y-87069999D02*
X103754819Y-87308094D01*
X102850057Y-86355713D02*
X102802438Y-86308094D01*
X102802438Y-86308094D02*
X102754819Y-86212856D01*
X102754819Y-86212856D02*
X102754819Y-85974761D01*
X102754819Y-85974761D02*
X102802438Y-85879523D01*
X102802438Y-85879523D02*
X102850057Y-85831904D01*
X102850057Y-85831904D02*
X102945295Y-85784285D01*
X102945295Y-85784285D02*
X103040533Y-85784285D01*
X103040533Y-85784285D02*
X103183390Y-85831904D01*
X103183390Y-85831904D02*
X103754819Y-86403332D01*
X103754819Y-86403332D02*
X103754819Y-85784285D01*
X89524819Y-77722857D02*
X89048628Y-78056190D01*
X89524819Y-78294285D02*
X88524819Y-78294285D01*
X88524819Y-78294285D02*
X88524819Y-77913333D01*
X88524819Y-77913333D02*
X88572438Y-77818095D01*
X88572438Y-77818095D02*
X88620057Y-77770476D01*
X88620057Y-77770476D02*
X88715295Y-77722857D01*
X88715295Y-77722857D02*
X88858152Y-77722857D01*
X88858152Y-77722857D02*
X88953390Y-77770476D01*
X88953390Y-77770476D02*
X89001009Y-77818095D01*
X89001009Y-77818095D02*
X89048628Y-77913333D01*
X89048628Y-77913333D02*
X89048628Y-78294285D01*
X89524819Y-76770476D02*
X89524819Y-77341904D01*
X89524819Y-77056190D02*
X88524819Y-77056190D01*
X88524819Y-77056190D02*
X88667676Y-77151428D01*
X88667676Y-77151428D02*
X88762914Y-77246666D01*
X88762914Y-77246666D02*
X88810533Y-77341904D01*
X88524819Y-75865714D02*
X88524819Y-76341904D01*
X88524819Y-76341904D02*
X89001009Y-76389523D01*
X89001009Y-76389523D02*
X88953390Y-76341904D01*
X88953390Y-76341904D02*
X88905771Y-76246666D01*
X88905771Y-76246666D02*
X88905771Y-76008571D01*
X88905771Y-76008571D02*
X88953390Y-75913333D01*
X88953390Y-75913333D02*
X89001009Y-75865714D01*
X89001009Y-75865714D02*
X89096247Y-75818095D01*
X89096247Y-75818095D02*
X89334342Y-75818095D01*
X89334342Y-75818095D02*
X89429580Y-75865714D01*
X89429580Y-75865714D02*
X89477200Y-75913333D01*
X89477200Y-75913333D02*
X89524819Y-76008571D01*
X89524819Y-76008571D02*
X89524819Y-76246666D01*
X89524819Y-76246666D02*
X89477200Y-76341904D01*
X89477200Y-76341904D02*
X89429580Y-76389523D01*
X121154819Y-44998094D02*
X120154819Y-44998094D01*
X120154819Y-44998094D02*
X120154819Y-44759999D01*
X120154819Y-44759999D02*
X120202438Y-44617142D01*
X120202438Y-44617142D02*
X120297676Y-44521904D01*
X120297676Y-44521904D02*
X120392914Y-44474285D01*
X120392914Y-44474285D02*
X120583390Y-44426666D01*
X120583390Y-44426666D02*
X120726247Y-44426666D01*
X120726247Y-44426666D02*
X120916723Y-44474285D01*
X120916723Y-44474285D02*
X121011961Y-44521904D01*
X121011961Y-44521904D02*
X121107200Y-44617142D01*
X121107200Y-44617142D02*
X121154819Y-44759999D01*
X121154819Y-44759999D02*
X121154819Y-44998094D01*
X121154819Y-43474285D02*
X121154819Y-44045713D01*
X121154819Y-43759999D02*
X120154819Y-43759999D01*
X120154819Y-43759999D02*
X120297676Y-43855237D01*
X120297676Y-43855237D02*
X120392914Y-43950475D01*
X120392914Y-43950475D02*
X120440533Y-44045713D01*
X52221905Y-35224819D02*
X52221905Y-34224819D01*
X52221905Y-34224819D02*
X52460000Y-34224819D01*
X52460000Y-34224819D02*
X52602857Y-34272438D01*
X52602857Y-34272438D02*
X52698095Y-34367676D01*
X52698095Y-34367676D02*
X52745714Y-34462914D01*
X52745714Y-34462914D02*
X52793333Y-34653390D01*
X52793333Y-34653390D02*
X52793333Y-34796247D01*
X52793333Y-34796247D02*
X52745714Y-34986723D01*
X52745714Y-34986723D02*
X52698095Y-35081961D01*
X52698095Y-35081961D02*
X52602857Y-35177200D01*
X52602857Y-35177200D02*
X52460000Y-35224819D01*
X52460000Y-35224819D02*
X52221905Y-35224819D01*
X53650476Y-34224819D02*
X53460000Y-34224819D01*
X53460000Y-34224819D02*
X53364762Y-34272438D01*
X53364762Y-34272438D02*
X53317143Y-34320057D01*
X53317143Y-34320057D02*
X53221905Y-34462914D01*
X53221905Y-34462914D02*
X53174286Y-34653390D01*
X53174286Y-34653390D02*
X53174286Y-35034342D01*
X53174286Y-35034342D02*
X53221905Y-35129580D01*
X53221905Y-35129580D02*
X53269524Y-35177200D01*
X53269524Y-35177200D02*
X53364762Y-35224819D01*
X53364762Y-35224819D02*
X53555238Y-35224819D01*
X53555238Y-35224819D02*
X53650476Y-35177200D01*
X53650476Y-35177200D02*
X53698095Y-35129580D01*
X53698095Y-35129580D02*
X53745714Y-35034342D01*
X53745714Y-35034342D02*
X53745714Y-34796247D01*
X53745714Y-34796247D02*
X53698095Y-34701009D01*
X53698095Y-34701009D02*
X53650476Y-34653390D01*
X53650476Y-34653390D02*
X53555238Y-34605771D01*
X53555238Y-34605771D02*
X53364762Y-34605771D01*
X53364762Y-34605771D02*
X53269524Y-34653390D01*
X53269524Y-34653390D02*
X53221905Y-34701009D01*
X53221905Y-34701009D02*
X53174286Y-34796247D01*
X41344819Y-51889999D02*
X40344819Y-51889999D01*
X41344819Y-51413809D02*
X40344819Y-51413809D01*
X40344819Y-51413809D02*
X41344819Y-50842381D01*
X41344819Y-50842381D02*
X40344819Y-50842381D01*
X41344819Y-49842381D02*
X41344819Y-50413809D01*
X41344819Y-50128095D02*
X40344819Y-50128095D01*
X40344819Y-50128095D02*
X40487676Y-50223333D01*
X40487676Y-50223333D02*
X40582914Y-50318571D01*
X40582914Y-50318571D02*
X40630533Y-50413809D01*
X127964819Y-79706190D02*
X127964819Y-79515714D01*
X127964819Y-79515714D02*
X128012438Y-79420476D01*
X128012438Y-79420476D02*
X128107676Y-79325238D01*
X128107676Y-79325238D02*
X128298152Y-79277619D01*
X128298152Y-79277619D02*
X128631485Y-79277619D01*
X128631485Y-79277619D02*
X128821961Y-79325238D01*
X128821961Y-79325238D02*
X128917200Y-79420476D01*
X128917200Y-79420476D02*
X128964819Y-79515714D01*
X128964819Y-79515714D02*
X128964819Y-79706190D01*
X128964819Y-79706190D02*
X128917200Y-79801428D01*
X128917200Y-79801428D02*
X128821961Y-79896666D01*
X128821961Y-79896666D02*
X128631485Y-79944285D01*
X128631485Y-79944285D02*
X128298152Y-79944285D01*
X128298152Y-79944285D02*
X128107676Y-79896666D01*
X128107676Y-79896666D02*
X128012438Y-79801428D01*
X128012438Y-79801428D02*
X127964819Y-79706190D01*
X127964819Y-78849047D02*
X128774342Y-78849047D01*
X128774342Y-78849047D02*
X128869580Y-78801428D01*
X128869580Y-78801428D02*
X128917200Y-78753809D01*
X128917200Y-78753809D02*
X128964819Y-78658571D01*
X128964819Y-78658571D02*
X128964819Y-78468095D01*
X128964819Y-78468095D02*
X128917200Y-78372857D01*
X128917200Y-78372857D02*
X128869580Y-78325238D01*
X128869580Y-78325238D02*
X128774342Y-78277619D01*
X128774342Y-78277619D02*
X127964819Y-78277619D01*
X127964819Y-77944285D02*
X127964819Y-77372857D01*
X128964819Y-77658571D02*
X127964819Y-77658571D01*
X128964819Y-76515714D02*
X128964819Y-77087142D01*
X128964819Y-76801428D02*
X127964819Y-76801428D01*
X127964819Y-76801428D02*
X128107676Y-76896666D01*
X128107676Y-76896666D02*
X128202914Y-76991904D01*
X128202914Y-76991904D02*
X128250533Y-77087142D01*
X86013333Y-47289580D02*
X85965714Y-47337200D01*
X85965714Y-47337200D02*
X85822857Y-47384819D01*
X85822857Y-47384819D02*
X85727619Y-47384819D01*
X85727619Y-47384819D02*
X85584762Y-47337200D01*
X85584762Y-47337200D02*
X85489524Y-47241961D01*
X85489524Y-47241961D02*
X85441905Y-47146723D01*
X85441905Y-47146723D02*
X85394286Y-46956247D01*
X85394286Y-46956247D02*
X85394286Y-46813390D01*
X85394286Y-46813390D02*
X85441905Y-46622914D01*
X85441905Y-46622914D02*
X85489524Y-46527676D01*
X85489524Y-46527676D02*
X85584762Y-46432438D01*
X85584762Y-46432438D02*
X85727619Y-46384819D01*
X85727619Y-46384819D02*
X85822857Y-46384819D01*
X85822857Y-46384819D02*
X85965714Y-46432438D01*
X85965714Y-46432438D02*
X86013333Y-46480057D01*
X86870476Y-46718152D02*
X86870476Y-47384819D01*
X86632381Y-46337200D02*
X86394286Y-47051485D01*
X86394286Y-47051485D02*
X87013333Y-47051485D01*
X39606666Y-37356819D02*
X39606666Y-38071104D01*
X39606666Y-38071104D02*
X39559047Y-38213961D01*
X39559047Y-38213961D02*
X39463809Y-38309200D01*
X39463809Y-38309200D02*
X39320952Y-38356819D01*
X39320952Y-38356819D02*
X39225714Y-38356819D01*
X40606666Y-38356819D02*
X40035238Y-38356819D01*
X40320952Y-38356819D02*
X40320952Y-37356819D01*
X40320952Y-37356819D02*
X40225714Y-37499676D01*
X40225714Y-37499676D02*
X40130476Y-37594914D01*
X40130476Y-37594914D02*
X40035238Y-37642533D01*
X42216666Y-61436819D02*
X42216666Y-62151104D01*
X42216666Y-62151104D02*
X42169047Y-62293961D01*
X42169047Y-62293961D02*
X42073809Y-62389200D01*
X42073809Y-62389200D02*
X41930952Y-62436819D01*
X41930952Y-62436819D02*
X41835714Y-62436819D01*
X42645238Y-61532057D02*
X42692857Y-61484438D01*
X42692857Y-61484438D02*
X42788095Y-61436819D01*
X42788095Y-61436819D02*
X43026190Y-61436819D01*
X43026190Y-61436819D02*
X43121428Y-61484438D01*
X43121428Y-61484438D02*
X43169047Y-61532057D01*
X43169047Y-61532057D02*
X43216666Y-61627295D01*
X43216666Y-61627295D02*
X43216666Y-61722533D01*
X43216666Y-61722533D02*
X43169047Y-61865390D01*
X43169047Y-61865390D02*
X42597619Y-62436819D01*
X42597619Y-62436819D02*
X43216666Y-62436819D01*
X130576666Y-83436819D02*
X130576666Y-84151104D01*
X130576666Y-84151104D02*
X130529047Y-84293961D01*
X130529047Y-84293961D02*
X130433809Y-84389200D01*
X130433809Y-84389200D02*
X130290952Y-84436819D01*
X130290952Y-84436819D02*
X130195714Y-84436819D01*
X130957619Y-83436819D02*
X131576666Y-83436819D01*
X131576666Y-83436819D02*
X131243333Y-83817771D01*
X131243333Y-83817771D02*
X131386190Y-83817771D01*
X131386190Y-83817771D02*
X131481428Y-83865390D01*
X131481428Y-83865390D02*
X131529047Y-83913009D01*
X131529047Y-83913009D02*
X131576666Y-84008247D01*
X131576666Y-84008247D02*
X131576666Y-84246342D01*
X131576666Y-84246342D02*
X131529047Y-84341580D01*
X131529047Y-84341580D02*
X131481428Y-84389200D01*
X131481428Y-84389200D02*
X131386190Y-84436819D01*
X131386190Y-84436819D02*
X131100476Y-84436819D01*
X131100476Y-84436819D02*
X131005238Y-84389200D01*
X131005238Y-84389200D02*
X130957619Y-84341580D01*
X122456666Y-74846819D02*
X122456666Y-75561104D01*
X122456666Y-75561104D02*
X122409047Y-75703961D01*
X122409047Y-75703961D02*
X122313809Y-75799200D01*
X122313809Y-75799200D02*
X122170952Y-75846819D01*
X122170952Y-75846819D02*
X122075714Y-75846819D01*
X123361428Y-75180152D02*
X123361428Y-75846819D01*
X123123333Y-74799200D02*
X122885238Y-75513485D01*
X122885238Y-75513485D02*
X123504285Y-75513485D01*
X99534819Y-77652857D02*
X99058628Y-77986190D01*
X99534819Y-78224285D02*
X98534819Y-78224285D01*
X98534819Y-78224285D02*
X98534819Y-77843333D01*
X98534819Y-77843333D02*
X98582438Y-77748095D01*
X98582438Y-77748095D02*
X98630057Y-77700476D01*
X98630057Y-77700476D02*
X98725295Y-77652857D01*
X98725295Y-77652857D02*
X98868152Y-77652857D01*
X98868152Y-77652857D02*
X98963390Y-77700476D01*
X98963390Y-77700476D02*
X99011009Y-77748095D01*
X99011009Y-77748095D02*
X99058628Y-77843333D01*
X99058628Y-77843333D02*
X99058628Y-78224285D01*
X99534819Y-76700476D02*
X99534819Y-77271904D01*
X99534819Y-76986190D02*
X98534819Y-76986190D01*
X98534819Y-76986190D02*
X98677676Y-77081428D01*
X98677676Y-77081428D02*
X98772914Y-77176666D01*
X98772914Y-77176666D02*
X98820533Y-77271904D01*
X98868152Y-75843333D02*
X99534819Y-75843333D01*
X98487200Y-76081428D02*
X99201485Y-76319523D01*
X99201485Y-76319523D02*
X99201485Y-75700476D01*
X89564819Y-48922857D02*
X89088628Y-49256190D01*
X89564819Y-49494285D02*
X88564819Y-49494285D01*
X88564819Y-49494285D02*
X88564819Y-49113333D01*
X88564819Y-49113333D02*
X88612438Y-49018095D01*
X88612438Y-49018095D02*
X88660057Y-48970476D01*
X88660057Y-48970476D02*
X88755295Y-48922857D01*
X88755295Y-48922857D02*
X88898152Y-48922857D01*
X88898152Y-48922857D02*
X88993390Y-48970476D01*
X88993390Y-48970476D02*
X89041009Y-49018095D01*
X89041009Y-49018095D02*
X89088628Y-49113333D01*
X89088628Y-49113333D02*
X89088628Y-49494285D01*
X89564819Y-47970476D02*
X89564819Y-48541904D01*
X89564819Y-48256190D02*
X88564819Y-48256190D01*
X88564819Y-48256190D02*
X88707676Y-48351428D01*
X88707676Y-48351428D02*
X88802914Y-48446666D01*
X88802914Y-48446666D02*
X88850533Y-48541904D01*
X89564819Y-47018095D02*
X89564819Y-47589523D01*
X89564819Y-47303809D02*
X88564819Y-47303809D01*
X88564819Y-47303809D02*
X88707676Y-47399047D01*
X88707676Y-47399047D02*
X88802914Y-47494285D01*
X88802914Y-47494285D02*
X88850533Y-47589523D01*
X99464819Y-59306666D02*
X98988628Y-59639999D01*
X99464819Y-59878094D02*
X98464819Y-59878094D01*
X98464819Y-59878094D02*
X98464819Y-59497142D01*
X98464819Y-59497142D02*
X98512438Y-59401904D01*
X98512438Y-59401904D02*
X98560057Y-59354285D01*
X98560057Y-59354285D02*
X98655295Y-59306666D01*
X98655295Y-59306666D02*
X98798152Y-59306666D01*
X98798152Y-59306666D02*
X98893390Y-59354285D01*
X98893390Y-59354285D02*
X98941009Y-59401904D01*
X98941009Y-59401904D02*
X98988628Y-59497142D01*
X98988628Y-59497142D02*
X98988628Y-59878094D01*
X98464819Y-58973332D02*
X98464819Y-58306666D01*
X98464819Y-58306666D02*
X99464819Y-58735237D01*
X63064819Y-83516666D02*
X62588628Y-83849999D01*
X63064819Y-84088094D02*
X62064819Y-84088094D01*
X62064819Y-84088094D02*
X62064819Y-83707142D01*
X62064819Y-83707142D02*
X62112438Y-83611904D01*
X62112438Y-83611904D02*
X62160057Y-83564285D01*
X62160057Y-83564285D02*
X62255295Y-83516666D01*
X62255295Y-83516666D02*
X62398152Y-83516666D01*
X62398152Y-83516666D02*
X62493390Y-83564285D01*
X62493390Y-83564285D02*
X62541009Y-83611904D01*
X62541009Y-83611904D02*
X62588628Y-83707142D01*
X62588628Y-83707142D02*
X62588628Y-84088094D01*
X62064819Y-83183332D02*
X62064819Y-82564285D01*
X62064819Y-82564285D02*
X62445771Y-82897618D01*
X62445771Y-82897618D02*
X62445771Y-82754761D01*
X62445771Y-82754761D02*
X62493390Y-82659523D01*
X62493390Y-82659523D02*
X62541009Y-82611904D01*
X62541009Y-82611904D02*
X62636247Y-82564285D01*
X62636247Y-82564285D02*
X62874342Y-82564285D01*
X62874342Y-82564285D02*
X62969580Y-82611904D01*
X62969580Y-82611904D02*
X63017200Y-82659523D01*
X63017200Y-82659523D02*
X63064819Y-82754761D01*
X63064819Y-82754761D02*
X63064819Y-83040475D01*
X63064819Y-83040475D02*
X63017200Y-83135713D01*
X63017200Y-83135713D02*
X62969580Y-83183332D01*
X64499580Y-41446666D02*
X64547200Y-41494285D01*
X64547200Y-41494285D02*
X64594819Y-41637142D01*
X64594819Y-41637142D02*
X64594819Y-41732380D01*
X64594819Y-41732380D02*
X64547200Y-41875237D01*
X64547200Y-41875237D02*
X64451961Y-41970475D01*
X64451961Y-41970475D02*
X64356723Y-42018094D01*
X64356723Y-42018094D02*
X64166247Y-42065713D01*
X64166247Y-42065713D02*
X64023390Y-42065713D01*
X64023390Y-42065713D02*
X63832914Y-42018094D01*
X63832914Y-42018094D02*
X63737676Y-41970475D01*
X63737676Y-41970475D02*
X63642438Y-41875237D01*
X63642438Y-41875237D02*
X63594819Y-41732380D01*
X63594819Y-41732380D02*
X63594819Y-41637142D01*
X63594819Y-41637142D02*
X63642438Y-41494285D01*
X63642438Y-41494285D02*
X63690057Y-41446666D01*
X63594819Y-41113332D02*
X63594819Y-40446666D01*
X63594819Y-40446666D02*
X64594819Y-40875237D01*
X131772819Y-42394094D02*
X130772819Y-42394094D01*
X130772819Y-42394094D02*
X130772819Y-42155999D01*
X130772819Y-42155999D02*
X130820438Y-42013142D01*
X130820438Y-42013142D02*
X130915676Y-41917904D01*
X130915676Y-41917904D02*
X131010914Y-41870285D01*
X131010914Y-41870285D02*
X131201390Y-41822666D01*
X131201390Y-41822666D02*
X131344247Y-41822666D01*
X131344247Y-41822666D02*
X131534723Y-41870285D01*
X131534723Y-41870285D02*
X131629961Y-41917904D01*
X131629961Y-41917904D02*
X131725200Y-42013142D01*
X131725200Y-42013142D02*
X131772819Y-42155999D01*
X131772819Y-42155999D02*
X131772819Y-42394094D01*
X131772819Y-41346475D02*
X131772819Y-41155999D01*
X131772819Y-41155999D02*
X131725200Y-41060761D01*
X131725200Y-41060761D02*
X131677580Y-41013142D01*
X131677580Y-41013142D02*
X131534723Y-40917904D01*
X131534723Y-40917904D02*
X131344247Y-40870285D01*
X131344247Y-40870285D02*
X130963295Y-40870285D01*
X130963295Y-40870285D02*
X130868057Y-40917904D01*
X130868057Y-40917904D02*
X130820438Y-40965523D01*
X130820438Y-40965523D02*
X130772819Y-41060761D01*
X130772819Y-41060761D02*
X130772819Y-41251237D01*
X130772819Y-41251237D02*
X130820438Y-41346475D01*
X130820438Y-41346475D02*
X130868057Y-41394094D01*
X130868057Y-41394094D02*
X130963295Y-41441713D01*
X130963295Y-41441713D02*
X131201390Y-41441713D01*
X131201390Y-41441713D02*
X131296628Y-41394094D01*
X131296628Y-41394094D02*
X131344247Y-41346475D01*
X131344247Y-41346475D02*
X131391866Y-41251237D01*
X131391866Y-41251237D02*
X131391866Y-41060761D01*
X131391866Y-41060761D02*
X131344247Y-40965523D01*
X131344247Y-40965523D02*
X131296628Y-40917904D01*
X131296628Y-40917904D02*
X131201390Y-40870285D01*
X129672819Y-46997904D02*
X128672819Y-46997904D01*
X129672819Y-46426476D02*
X129101390Y-46855047D01*
X128672819Y-46426476D02*
X129244247Y-46997904D01*
X83851761Y-97530057D02*
X83756523Y-97482438D01*
X83756523Y-97482438D02*
X83661285Y-97387200D01*
X83661285Y-97387200D02*
X83518428Y-97244342D01*
X83518428Y-97244342D02*
X83423190Y-97196723D01*
X83423190Y-97196723D02*
X83327952Y-97196723D01*
X83375571Y-97434819D02*
X83280333Y-97387200D01*
X83280333Y-97387200D02*
X83185095Y-97291961D01*
X83185095Y-97291961D02*
X83137476Y-97101485D01*
X83137476Y-97101485D02*
X83137476Y-96768152D01*
X83137476Y-96768152D02*
X83185095Y-96577676D01*
X83185095Y-96577676D02*
X83280333Y-96482438D01*
X83280333Y-96482438D02*
X83375571Y-96434819D01*
X83375571Y-96434819D02*
X83566047Y-96434819D01*
X83566047Y-96434819D02*
X83661285Y-96482438D01*
X83661285Y-96482438D02*
X83756523Y-96577676D01*
X83756523Y-96577676D02*
X83804142Y-96768152D01*
X83804142Y-96768152D02*
X83804142Y-97101485D01*
X83804142Y-97101485D02*
X83756523Y-97291961D01*
X83756523Y-97291961D02*
X83661285Y-97387200D01*
X83661285Y-97387200D02*
X83566047Y-97434819D01*
X83566047Y-97434819D02*
X83375571Y-97434819D01*
X84756523Y-97434819D02*
X84185095Y-97434819D01*
X84470809Y-97434819D02*
X84470809Y-96434819D01*
X84470809Y-96434819D02*
X84375571Y-96577676D01*
X84375571Y-96577676D02*
X84280333Y-96672914D01*
X84280333Y-96672914D02*
X84185095Y-96720533D01*
X109759761Y-29808057D02*
X109664523Y-29760438D01*
X109664523Y-29760438D02*
X109569285Y-29665200D01*
X109569285Y-29665200D02*
X109426428Y-29522342D01*
X109426428Y-29522342D02*
X109331190Y-29474723D01*
X109331190Y-29474723D02*
X109235952Y-29474723D01*
X109283571Y-29712819D02*
X109188333Y-29665200D01*
X109188333Y-29665200D02*
X109093095Y-29569961D01*
X109093095Y-29569961D02*
X109045476Y-29379485D01*
X109045476Y-29379485D02*
X109045476Y-29046152D01*
X109045476Y-29046152D02*
X109093095Y-28855676D01*
X109093095Y-28855676D02*
X109188333Y-28760438D01*
X109188333Y-28760438D02*
X109283571Y-28712819D01*
X109283571Y-28712819D02*
X109474047Y-28712819D01*
X109474047Y-28712819D02*
X109569285Y-28760438D01*
X109569285Y-28760438D02*
X109664523Y-28855676D01*
X109664523Y-28855676D02*
X109712142Y-29046152D01*
X109712142Y-29046152D02*
X109712142Y-29379485D01*
X109712142Y-29379485D02*
X109664523Y-29569961D01*
X109664523Y-29569961D02*
X109569285Y-29665200D01*
X109569285Y-29665200D02*
X109474047Y-29712819D01*
X109474047Y-29712819D02*
X109283571Y-29712819D01*
X110093095Y-28808057D02*
X110140714Y-28760438D01*
X110140714Y-28760438D02*
X110235952Y-28712819D01*
X110235952Y-28712819D02*
X110474047Y-28712819D01*
X110474047Y-28712819D02*
X110569285Y-28760438D01*
X110569285Y-28760438D02*
X110616904Y-28808057D01*
X110616904Y-28808057D02*
X110664523Y-28903295D01*
X110664523Y-28903295D02*
X110664523Y-28998533D01*
X110664523Y-28998533D02*
X110616904Y-29141390D01*
X110616904Y-29141390D02*
X110045476Y-29712819D01*
X110045476Y-29712819D02*
X110664523Y-29712819D01*
X42337200Y-87263332D02*
X42384819Y-87120475D01*
X42384819Y-87120475D02*
X42384819Y-86882380D01*
X42384819Y-86882380D02*
X42337200Y-86787142D01*
X42337200Y-86787142D02*
X42289580Y-86739523D01*
X42289580Y-86739523D02*
X42194342Y-86691904D01*
X42194342Y-86691904D02*
X42099104Y-86691904D01*
X42099104Y-86691904D02*
X42003866Y-86739523D01*
X42003866Y-86739523D02*
X41956247Y-86787142D01*
X41956247Y-86787142D02*
X41908628Y-86882380D01*
X41908628Y-86882380D02*
X41861009Y-87072856D01*
X41861009Y-87072856D02*
X41813390Y-87168094D01*
X41813390Y-87168094D02*
X41765771Y-87215713D01*
X41765771Y-87215713D02*
X41670533Y-87263332D01*
X41670533Y-87263332D02*
X41575295Y-87263332D01*
X41575295Y-87263332D02*
X41480057Y-87215713D01*
X41480057Y-87215713D02*
X41432438Y-87168094D01*
X41432438Y-87168094D02*
X41384819Y-87072856D01*
X41384819Y-87072856D02*
X41384819Y-86834761D01*
X41384819Y-86834761D02*
X41432438Y-86691904D01*
X41384819Y-86358570D02*
X42384819Y-86120475D01*
X42384819Y-86120475D02*
X41670533Y-85929999D01*
X41670533Y-85929999D02*
X42384819Y-85739523D01*
X42384819Y-85739523D02*
X41384819Y-85501428D01*
X42384819Y-84596666D02*
X42384819Y-85168094D01*
X42384819Y-84882380D02*
X41384819Y-84882380D01*
X41384819Y-84882380D02*
X41527676Y-84977618D01*
X41527676Y-84977618D02*
X41622914Y-85072856D01*
X41622914Y-85072856D02*
X41670533Y-85168094D01*
X129324266Y-26734819D02*
X128990933Y-26258628D01*
X128752838Y-26734819D02*
X128752838Y-25734819D01*
X128752838Y-25734819D02*
X129133790Y-25734819D01*
X129133790Y-25734819D02*
X129229028Y-25782438D01*
X129229028Y-25782438D02*
X129276647Y-25830057D01*
X129276647Y-25830057D02*
X129324266Y-25925295D01*
X129324266Y-25925295D02*
X129324266Y-26068152D01*
X129324266Y-26068152D02*
X129276647Y-26163390D01*
X129276647Y-26163390D02*
X129229028Y-26211009D01*
X129229028Y-26211009D02*
X129133790Y-26258628D01*
X129133790Y-26258628D02*
X128752838Y-26258628D01*
X129752838Y-26211009D02*
X130086171Y-26211009D01*
X130229028Y-26734819D02*
X129752838Y-26734819D01*
X129752838Y-26734819D02*
X129752838Y-25734819D01*
X129752838Y-25734819D02*
X130229028Y-25734819D01*
X130990933Y-26211009D02*
X130657600Y-26211009D01*
X130657600Y-26734819D02*
X130657600Y-25734819D01*
X130657600Y-25734819D02*
X131133790Y-25734819D01*
X131657600Y-25734819D02*
X131657600Y-25972914D01*
X131419505Y-25877676D02*
X131657600Y-25972914D01*
X131657600Y-25972914D02*
X131895695Y-25877676D01*
X131514743Y-26163390D02*
X131657600Y-25972914D01*
X131657600Y-25972914D02*
X131800457Y-26163390D01*
X132419505Y-25734819D02*
X132419505Y-25972914D01*
X132181410Y-25877676D02*
X132419505Y-25972914D01*
X132419505Y-25972914D02*
X132657600Y-25877676D01*
X132276648Y-26163390D02*
X132419505Y-25972914D01*
X132419505Y-25972914D02*
X132562362Y-26163390D01*
X38722466Y-91454019D02*
X38389133Y-90977828D01*
X38151038Y-91454019D02*
X38151038Y-90454019D01*
X38151038Y-90454019D02*
X38531990Y-90454019D01*
X38531990Y-90454019D02*
X38627228Y-90501638D01*
X38627228Y-90501638D02*
X38674847Y-90549257D01*
X38674847Y-90549257D02*
X38722466Y-90644495D01*
X38722466Y-90644495D02*
X38722466Y-90787352D01*
X38722466Y-90787352D02*
X38674847Y-90882590D01*
X38674847Y-90882590D02*
X38627228Y-90930209D01*
X38627228Y-90930209D02*
X38531990Y-90977828D01*
X38531990Y-90977828D02*
X38151038Y-90977828D01*
X39151038Y-90930209D02*
X39484371Y-90930209D01*
X39627228Y-91454019D02*
X39151038Y-91454019D01*
X39151038Y-91454019D02*
X39151038Y-90454019D01*
X39151038Y-90454019D02*
X39627228Y-90454019D01*
X40389133Y-90930209D02*
X40055800Y-90930209D01*
X40055800Y-91454019D02*
X40055800Y-90454019D01*
X40055800Y-90454019D02*
X40531990Y-90454019D01*
X41055800Y-90454019D02*
X41055800Y-90692114D01*
X40817705Y-90596876D02*
X41055800Y-90692114D01*
X41055800Y-90692114D02*
X41293895Y-90596876D01*
X40912943Y-90882590D02*
X41055800Y-90692114D01*
X41055800Y-90692114D02*
X41198657Y-90882590D01*
X41817705Y-90454019D02*
X41817705Y-90692114D01*
X41579610Y-90596876D02*
X41817705Y-90692114D01*
X41817705Y-90692114D02*
X42055800Y-90596876D01*
X41674848Y-90882590D02*
X41817705Y-90692114D01*
X41817705Y-90692114D02*
X41960562Y-90882590D01*
X38570066Y-26506219D02*
X38236733Y-26030028D01*
X37998638Y-26506219D02*
X37998638Y-25506219D01*
X37998638Y-25506219D02*
X38379590Y-25506219D01*
X38379590Y-25506219D02*
X38474828Y-25553838D01*
X38474828Y-25553838D02*
X38522447Y-25601457D01*
X38522447Y-25601457D02*
X38570066Y-25696695D01*
X38570066Y-25696695D02*
X38570066Y-25839552D01*
X38570066Y-25839552D02*
X38522447Y-25934790D01*
X38522447Y-25934790D02*
X38474828Y-25982409D01*
X38474828Y-25982409D02*
X38379590Y-26030028D01*
X38379590Y-26030028D02*
X37998638Y-26030028D01*
X38998638Y-25982409D02*
X39331971Y-25982409D01*
X39474828Y-26506219D02*
X38998638Y-26506219D01*
X38998638Y-26506219D02*
X38998638Y-25506219D01*
X38998638Y-25506219D02*
X39474828Y-25506219D01*
X40236733Y-25982409D02*
X39903400Y-25982409D01*
X39903400Y-26506219D02*
X39903400Y-25506219D01*
X39903400Y-25506219D02*
X40379590Y-25506219D01*
X40903400Y-25506219D02*
X40903400Y-25744314D01*
X40665305Y-25649076D02*
X40903400Y-25744314D01*
X40903400Y-25744314D02*
X41141495Y-25649076D01*
X40760543Y-25934790D02*
X40903400Y-25744314D01*
X40903400Y-25744314D02*
X41046257Y-25934790D01*
X41665305Y-25506219D02*
X41665305Y-25744314D01*
X41427210Y-25649076D02*
X41665305Y-25744314D01*
X41665305Y-25744314D02*
X41903400Y-25649076D01*
X41522448Y-25934790D02*
X41665305Y-25744314D01*
X41665305Y-25744314D02*
X41808162Y-25934790D01*
X129273466Y-91530219D02*
X128940133Y-91054028D01*
X128702038Y-91530219D02*
X128702038Y-90530219D01*
X128702038Y-90530219D02*
X129082990Y-90530219D01*
X129082990Y-90530219D02*
X129178228Y-90577838D01*
X129178228Y-90577838D02*
X129225847Y-90625457D01*
X129225847Y-90625457D02*
X129273466Y-90720695D01*
X129273466Y-90720695D02*
X129273466Y-90863552D01*
X129273466Y-90863552D02*
X129225847Y-90958790D01*
X129225847Y-90958790D02*
X129178228Y-91006409D01*
X129178228Y-91006409D02*
X129082990Y-91054028D01*
X129082990Y-91054028D02*
X128702038Y-91054028D01*
X129702038Y-91006409D02*
X130035371Y-91006409D01*
X130178228Y-91530219D02*
X129702038Y-91530219D01*
X129702038Y-91530219D02*
X129702038Y-90530219D01*
X129702038Y-90530219D02*
X130178228Y-90530219D01*
X130940133Y-91006409D02*
X130606800Y-91006409D01*
X130606800Y-91530219D02*
X130606800Y-90530219D01*
X130606800Y-90530219D02*
X131082990Y-90530219D01*
X131606800Y-90530219D02*
X131606800Y-90768314D01*
X131368705Y-90673076D02*
X131606800Y-90768314D01*
X131606800Y-90768314D02*
X131844895Y-90673076D01*
X131463943Y-90958790D02*
X131606800Y-90768314D01*
X131606800Y-90768314D02*
X131749657Y-90958790D01*
X132368705Y-90530219D02*
X132368705Y-90768314D01*
X132130610Y-90673076D02*
X132368705Y-90768314D01*
X132368705Y-90768314D02*
X132606800Y-90673076D01*
X132225848Y-90958790D02*
X132368705Y-90768314D01*
X132368705Y-90768314D02*
X132511562Y-90958790D01*
X82777105Y-41964619D02*
X82777105Y-40964619D01*
X82777105Y-40964619D02*
X83015200Y-40964619D01*
X83015200Y-40964619D02*
X83158057Y-41012238D01*
X83158057Y-41012238D02*
X83253295Y-41107476D01*
X83253295Y-41107476D02*
X83300914Y-41202714D01*
X83300914Y-41202714D02*
X83348533Y-41393190D01*
X83348533Y-41393190D02*
X83348533Y-41536047D01*
X83348533Y-41536047D02*
X83300914Y-41726523D01*
X83300914Y-41726523D02*
X83253295Y-41821761D01*
X83253295Y-41821761D02*
X83158057Y-41917000D01*
X83158057Y-41917000D02*
X83015200Y-41964619D01*
X83015200Y-41964619D02*
X82777105Y-41964619D01*
X83681867Y-40964619D02*
X84300914Y-40964619D01*
X84300914Y-40964619D02*
X83967581Y-41345571D01*
X83967581Y-41345571D02*
X84110438Y-41345571D01*
X84110438Y-41345571D02*
X84205676Y-41393190D01*
X84205676Y-41393190D02*
X84253295Y-41440809D01*
X84253295Y-41440809D02*
X84300914Y-41536047D01*
X84300914Y-41536047D02*
X84300914Y-41774142D01*
X84300914Y-41774142D02*
X84253295Y-41869380D01*
X84253295Y-41869380D02*
X84205676Y-41917000D01*
X84205676Y-41917000D02*
X84110438Y-41964619D01*
X84110438Y-41964619D02*
X83824724Y-41964619D01*
X83824724Y-41964619D02*
X83729486Y-41917000D01*
X83729486Y-41917000D02*
X83681867Y-41869380D01*
X88333295Y-41594619D02*
X88333295Y-40594619D01*
X88904723Y-41594619D02*
X88476152Y-41023190D01*
X88904723Y-40594619D02*
X88333295Y-41166047D01*
D11*
X119160000Y-91151000D02*
X114339000Y-91151000D01*
X119160000Y-91191000D02*
X114347000Y-91191000D01*
X119160000Y-91231000D02*
X114354000Y-91231000D01*
X119160000Y-91271000D02*
X114362000Y-91271000D01*
X119160000Y-91311000D02*
X114370000Y-91311000D01*
X119160000Y-91351000D02*
X114378000Y-91351000D01*
X119160000Y-91391000D02*
X114387000Y-91391000D01*
X119160000Y-91431000D02*
X114396000Y-91431000D01*
X119160000Y-91471000D02*
X114405000Y-91471000D01*
X119160000Y-91511000D02*
X114415000Y-91511000D01*
X119160000Y-91551000D02*
X114424000Y-91551000D01*
X119160000Y-91591000D02*
X114434000Y-91591000D01*
X119160000Y-91631000D02*
X114445000Y-91631000D01*
X119160000Y-91671000D02*
X114455000Y-91671000D01*
X119160000Y-91711000D02*
X114466000Y-91711000D01*
X119160000Y-91751000D02*
X114477000Y-91751000D01*
X119160000Y-91791000D02*
X114489000Y-91791000D01*
X119160000Y-91831000D02*
X114500000Y-91831000D01*
X119160000Y-91871000D02*
X114512000Y-91871000D01*
X119160000Y-91911000D02*
X114525000Y-91911000D01*
X119160000Y-91951000D02*
X114537000Y-91951000D01*
X119160000Y-91991000D02*
X114550000Y-91991000D01*
X119160000Y-92031000D02*
X114563000Y-92031000D01*
X119160000Y-92071000D02*
X114577000Y-92071000D01*
X119160000Y-92111000D02*
X114590000Y-92111000D01*
X119160000Y-92151000D02*
X114604000Y-92151000D01*
X119160000Y-92191000D02*
X114619000Y-92191000D01*
X119160000Y-92231000D02*
X114633000Y-92231000D01*
X119160000Y-92271000D02*
X114648000Y-92271000D01*
X119160000Y-92311000D02*
X114664000Y-92311000D01*
X119160000Y-92351000D02*
X114679000Y-92351000D01*
X119160000Y-92391000D02*
X114695000Y-92391000D01*
X119160000Y-92431000D02*
X114711000Y-92431000D01*
X119160000Y-92471000D02*
X114728000Y-92471000D01*
X119160000Y-92511000D02*
X114745000Y-92511000D01*
X119160000Y-92551000D02*
X114762000Y-92551000D01*
X119160000Y-92591000D02*
X114779000Y-92591000D01*
X119160000Y-92631000D02*
X114797000Y-92631000D01*
X119160000Y-92671000D02*
X114815000Y-92671000D01*
X119160000Y-92711000D02*
X114834000Y-92711000D01*
X119160000Y-92751000D02*
X114853000Y-92751000D01*
X119160000Y-92791000D02*
X114872000Y-92791000D01*
X119160000Y-92831000D02*
X114891000Y-92831000D01*
X119160000Y-92871000D02*
X114911000Y-92871000D01*
X119160000Y-92911000D02*
X114931000Y-92911000D01*
X119160000Y-92951000D02*
X114952000Y-92951000D01*
X119160000Y-92991000D02*
X114973000Y-92991000D01*
X119160000Y-93031000D02*
X114994000Y-93031000D01*
X119160000Y-93071000D02*
X115016000Y-93071000D01*
X119160000Y-93111000D02*
X115038000Y-93111000D01*
X119160000Y-93151000D02*
X115060000Y-93151000D01*
X119160000Y-93191000D02*
X115083000Y-93191000D01*
X119160000Y-93231000D02*
X115106000Y-93231000D01*
X119160000Y-93271000D02*
X115130000Y-93271000D01*
X119160000Y-93311000D02*
X115154000Y-93311000D01*
X119160000Y-93351000D02*
X115178000Y-93351000D01*
X119160000Y-93391000D02*
X115203000Y-93391000D01*
X119160000Y-93431000D02*
X115228000Y-93431000D01*
X119160000Y-93471000D02*
X115254000Y-93471000D01*
X119160000Y-93511000D02*
X115280000Y-93511000D01*
X119160000Y-93551000D02*
X115306000Y-93551000D01*
X119160000Y-93591000D02*
X115333000Y-93591000D01*
X119160000Y-93631000D02*
X115361000Y-93631000D01*
X119160000Y-93671000D02*
X115389000Y-93671000D01*
X119160000Y-93711000D02*
X115417000Y-93711000D01*
X119160000Y-93751000D02*
X115446000Y-93751000D01*
X119160000Y-93791000D02*
X115475000Y-93791000D01*
X119160000Y-93831000D02*
X115505000Y-93831000D01*
X119160000Y-93871000D02*
X115535000Y-93871000D01*
X120540000Y-84330000D02*
X120540000Y-86130000D01*
X121004000Y-96351000D02*
X120076000Y-96351000D01*
X121371000Y-96311000D02*
X119709000Y-96311000D01*
X121440000Y-85230000D02*
X119640000Y-85230000D01*
X121622000Y-96271000D02*
X119458000Y-96271000D01*
X121825000Y-96231000D02*
X119255000Y-96231000D01*
X122000000Y-96191000D02*
X119080000Y-96191000D01*
X122156000Y-96151000D02*
X118924000Y-96151000D01*
X122297000Y-96111000D02*
X118783000Y-96111000D01*
X122428000Y-96071000D02*
X118652000Y-96071000D01*
X122549000Y-96031000D02*
X118531000Y-96031000D01*
X122662000Y-95991000D02*
X118418000Y-95991000D01*
X122770000Y-95951000D02*
X118310000Y-95951000D01*
X122871000Y-95911000D02*
X118209000Y-95911000D01*
X122968000Y-95871000D02*
X118112000Y-95871000D01*
X123061000Y-95831000D02*
X118019000Y-95831000D01*
X123150000Y-95791000D02*
X117930000Y-95791000D01*
X123235000Y-95751000D02*
X117845000Y-95751000D01*
X123317000Y-95711000D02*
X117763000Y-95711000D01*
X123396000Y-95671000D02*
X117684000Y-95671000D01*
X123473000Y-95631000D02*
X117607000Y-95631000D01*
X123547000Y-95591000D02*
X117533000Y-95591000D01*
X123619000Y-95551000D02*
X117461000Y-95551000D01*
X123689000Y-95511000D02*
X117391000Y-95511000D01*
X123757000Y-95471000D02*
X117323000Y-95471000D01*
X123822000Y-95431000D02*
X117258000Y-95431000D01*
X123887000Y-95391000D02*
X117193000Y-95391000D01*
X123949000Y-95351000D02*
X117131000Y-95351000D01*
X124010000Y-95311000D02*
X117070000Y-95311000D01*
X124070000Y-95271000D02*
X117010000Y-95271000D01*
X124128000Y-95231000D02*
X116952000Y-95231000D01*
X124184000Y-95191000D02*
X116896000Y-95191000D01*
X124240000Y-95151000D02*
X116840000Y-95151000D01*
X124294000Y-95111000D02*
X116786000Y-95111000D01*
X124347000Y-95071000D02*
X116733000Y-95071000D01*
X124399000Y-95031000D02*
X116681000Y-95031000D01*
X124449000Y-94991000D02*
X116631000Y-94991000D01*
X124499000Y-94951000D02*
X116581000Y-94951000D01*
X124548000Y-94911000D02*
X116532000Y-94911000D01*
X124596000Y-94871000D02*
X116484000Y-94871000D01*
X124642000Y-94831000D02*
X116438000Y-94831000D01*
X124688000Y-94791000D02*
X116392000Y-94791000D01*
X124733000Y-94751000D02*
X116347000Y-94751000D01*
X124778000Y-94711000D02*
X116302000Y-94711000D01*
X124821000Y-94671000D02*
X116259000Y-94671000D01*
X124863000Y-94631000D02*
X116217000Y-94631000D01*
X124905000Y-94591000D02*
X116175000Y-94591000D01*
X124946000Y-94551000D02*
X116134000Y-94551000D01*
X124987000Y-94511000D02*
X116093000Y-94511000D01*
X125026000Y-94471000D02*
X116054000Y-94471000D01*
X125065000Y-94431000D02*
X116015000Y-94431000D01*
X125103000Y-94391000D02*
X115977000Y-94391000D01*
X125141000Y-94351000D02*
X115939000Y-94351000D01*
X125178000Y-94311000D02*
X115902000Y-94311000D01*
X125214000Y-94271000D02*
X115866000Y-94271000D01*
X125250000Y-94231000D02*
X115830000Y-94231000D01*
X125285000Y-94191000D02*
X115795000Y-94191000D01*
X125319000Y-94151000D02*
X115761000Y-94151000D01*
X125353000Y-94111000D02*
X115727000Y-94111000D01*
X125387000Y-94071000D02*
X115693000Y-94071000D01*
X125419000Y-94031000D02*
X115661000Y-94031000D01*
X125452000Y-93991000D02*
X115628000Y-93991000D01*
X125483000Y-93951000D02*
X115597000Y-93951000D01*
X125515000Y-93911000D02*
X115565000Y-93911000D01*
X125545000Y-93871000D02*
X121920000Y-93871000D01*
X125575000Y-93831000D02*
X121920000Y-93831000D01*
X125605000Y-93791000D02*
X121920000Y-93791000D01*
X125634000Y-93751000D02*
X121920000Y-93751000D01*
X125663000Y-93711000D02*
X121920000Y-93711000D01*
X125691000Y-93671000D02*
X121920000Y-93671000D01*
X125719000Y-93631000D02*
X121920000Y-93631000D01*
X125747000Y-93591000D02*
X121920000Y-93591000D01*
X125774000Y-93551000D02*
X121920000Y-93551000D01*
X125800000Y-93511000D02*
X121920000Y-93511000D01*
X125826000Y-93471000D02*
X121920000Y-93471000D01*
X125852000Y-93431000D02*
X121920000Y-93431000D01*
X125877000Y-93391000D02*
X121920000Y-93391000D01*
X125902000Y-93351000D02*
X121920000Y-93351000D01*
X125926000Y-93311000D02*
X121920000Y-93311000D01*
X125950000Y-93271000D02*
X121920000Y-93271000D01*
X125974000Y-93231000D02*
X121920000Y-93231000D01*
X125997000Y-93191000D02*
X121920000Y-93191000D01*
X126020000Y-93151000D02*
X121920000Y-93151000D01*
X126042000Y-93111000D02*
X121920000Y-93111000D01*
X126064000Y-93071000D02*
X121920000Y-93071000D01*
X126086000Y-93031000D02*
X121920000Y-93031000D01*
X126107000Y-92991000D02*
X121920000Y-92991000D01*
X126128000Y-92951000D02*
X121920000Y-92951000D01*
X126149000Y-92911000D02*
X121920000Y-92911000D01*
X126169000Y-92871000D02*
X121920000Y-92871000D01*
X126189000Y-92831000D02*
X121920000Y-92831000D01*
X126208000Y-92791000D02*
X121920000Y-92791000D01*
X126227000Y-92751000D02*
X121920000Y-92751000D01*
X126246000Y-92711000D02*
X121920000Y-92711000D01*
X126265000Y-92671000D02*
X121920000Y-92671000D01*
X126283000Y-92631000D02*
X121920000Y-92631000D01*
X126301000Y-92591000D02*
X121920000Y-92591000D01*
X126318000Y-92551000D02*
X121920000Y-92551000D01*
X126335000Y-92511000D02*
X121920000Y-92511000D01*
X126352000Y-92471000D02*
X121920000Y-92471000D01*
X126369000Y-92431000D02*
X121920000Y-92431000D01*
X126385000Y-92391000D02*
X121920000Y-92391000D01*
X126401000Y-92351000D02*
X121920000Y-92351000D01*
X126416000Y-92311000D02*
X121920000Y-92311000D01*
X126432000Y-92271000D02*
X121920000Y-92271000D01*
X126447000Y-92231000D02*
X121920000Y-92231000D01*
X126461000Y-92191000D02*
X121920000Y-92191000D01*
X126476000Y-92151000D02*
X121920000Y-92151000D01*
X126490000Y-92111000D02*
X121920000Y-92111000D01*
X126503000Y-92071000D02*
X121920000Y-92071000D01*
X126517000Y-92031000D02*
X121920000Y-92031000D01*
X126530000Y-91991000D02*
X121920000Y-91991000D01*
X126543000Y-91951000D02*
X121920000Y-91951000D01*
X126555000Y-91911000D02*
X121920000Y-91911000D01*
X126568000Y-91871000D02*
X121920000Y-91871000D01*
X126580000Y-91831000D02*
X121920000Y-91831000D01*
X126591000Y-91791000D02*
X121920000Y-91791000D01*
X126603000Y-91751000D02*
X121920000Y-91751000D01*
X126614000Y-91711000D02*
X121920000Y-91711000D01*
X126625000Y-91671000D02*
X121920000Y-91671000D01*
X126635000Y-91631000D02*
X121920000Y-91631000D01*
X126646000Y-91591000D02*
X121920000Y-91591000D01*
X126656000Y-91551000D02*
X121920000Y-91551000D01*
X126665000Y-91511000D02*
X121920000Y-91511000D01*
X126675000Y-91471000D02*
X121920000Y-91471000D01*
X126684000Y-91431000D02*
X121920000Y-91431000D01*
X126693000Y-91391000D02*
X121920000Y-91391000D01*
X126702000Y-91351000D02*
X121920000Y-91351000D01*
X126710000Y-91311000D02*
X121920000Y-91311000D01*
X126718000Y-91271000D02*
X121920000Y-91271000D01*
X126726000Y-91231000D02*
X121920000Y-91231000D01*
X126733000Y-91191000D02*
X121920000Y-91191000D01*
X126741000Y-91151000D02*
X121920000Y-91151000D01*
X126748000Y-91111000D02*
X114332000Y-91111000D01*
X126755000Y-91071000D02*
X114325000Y-91071000D01*
X126761000Y-91031000D02*
X114319000Y-91031000D01*
X126767000Y-90991000D02*
X114313000Y-90991000D01*
X126773000Y-90951000D02*
X114307000Y-90951000D01*
X126779000Y-90911000D02*
X114301000Y-90911000D01*
X126785000Y-90871000D02*
X114295000Y-90871000D01*
X126790000Y-90831000D02*
X114290000Y-90831000D01*
X126795000Y-90791000D02*
X114285000Y-90791000D01*
X126799000Y-90751000D02*
X114281000Y-90751000D01*
X126804000Y-90710000D02*
X114276000Y-90710000D01*
X126808000Y-90670000D02*
X114272000Y-90670000D01*
X126812000Y-90630000D02*
X114268000Y-90630000D01*
X126816000Y-90590000D02*
X114264000Y-90590000D01*
X126819000Y-90550000D02*
X114261000Y-90550000D01*
X126822000Y-90510000D02*
X114258000Y-90510000D01*
X126825000Y-90470000D02*
X114255000Y-90470000D01*
X126828000Y-90430000D02*
X114252000Y-90430000D01*
X126830000Y-90390000D02*
X114250000Y-90390000D01*
X126832000Y-90350000D02*
X114248000Y-90350000D01*
X126834000Y-90310000D02*
X114246000Y-90310000D01*
X126836000Y-90270000D02*
X114244000Y-90270000D01*
X126837000Y-90230000D02*
X114243000Y-90230000D01*
X126838000Y-90190000D02*
X114242000Y-90190000D01*
X126839000Y-90150000D02*
X114241000Y-90150000D01*
X126840000Y-90030000D02*
X114240000Y-90030000D01*
X126840000Y-90070000D02*
X114240000Y-90070000D01*
X126840000Y-90110000D02*
X114240000Y-90110000D01*
X126880000Y-90030000D02*
G75*
G02*
X114200000Y-90030000I-6340000J0D01*
G01*
X114200000Y-90030000D02*
G75*
G02*
X126880000Y-90030000I6340000J0D01*
G01*
X104200000Y-53090000D02*
X106000000Y-53090000D01*
X105100000Y-52190000D02*
X105100000Y-53990000D01*
X109900000Y-46790000D02*
X109900000Y-59390000D01*
X109940000Y-46790000D02*
X109940000Y-59390000D01*
X109980000Y-46790000D02*
X109980000Y-59390000D01*
X110020000Y-46791000D02*
X110020000Y-59389000D01*
X110060000Y-46792000D02*
X110060000Y-59388000D01*
X110100000Y-46793000D02*
X110100000Y-59387000D01*
X110140000Y-46794000D02*
X110140000Y-59386000D01*
X110180000Y-46796000D02*
X110180000Y-59384000D01*
X110220000Y-46798000D02*
X110220000Y-59382000D01*
X110260000Y-46800000D02*
X110260000Y-59380000D01*
X110300000Y-46802000D02*
X110300000Y-59378000D01*
X110340000Y-46805000D02*
X110340000Y-59375000D01*
X110380000Y-46808000D02*
X110380000Y-59372000D01*
X110420000Y-46811000D02*
X110420000Y-59369000D01*
X110460000Y-46814000D02*
X110460000Y-59366000D01*
X110500000Y-46818000D02*
X110500000Y-59362000D01*
X110540000Y-46822000D02*
X110540000Y-59358000D01*
X110580000Y-46826000D02*
X110580000Y-59354000D01*
X110621000Y-46831000D02*
X110621000Y-59349000D01*
X110661000Y-46835000D02*
X110661000Y-59345000D01*
X110701000Y-46840000D02*
X110701000Y-59340000D01*
X110741000Y-46845000D02*
X110741000Y-59335000D01*
X110781000Y-46851000D02*
X110781000Y-59329000D01*
X110821000Y-46857000D02*
X110821000Y-59323000D01*
X110861000Y-46863000D02*
X110861000Y-59317000D01*
X110901000Y-46869000D02*
X110901000Y-59311000D01*
X110941000Y-46875000D02*
X110941000Y-59305000D01*
X110981000Y-46882000D02*
X110981000Y-59298000D01*
X111021000Y-46889000D02*
X111021000Y-51710000D01*
X111021000Y-54470000D02*
X111021000Y-59291000D01*
X111061000Y-46897000D02*
X111061000Y-51710000D01*
X111061000Y-54470000D02*
X111061000Y-59283000D01*
X111101000Y-46904000D02*
X111101000Y-51710000D01*
X111101000Y-54470000D02*
X111101000Y-59276000D01*
X111141000Y-46912000D02*
X111141000Y-51710000D01*
X111141000Y-54470000D02*
X111141000Y-59268000D01*
X111181000Y-46920000D02*
X111181000Y-51710000D01*
X111181000Y-54470000D02*
X111181000Y-59260000D01*
X111221000Y-46928000D02*
X111221000Y-51710000D01*
X111221000Y-54470000D02*
X111221000Y-59252000D01*
X111261000Y-46937000D02*
X111261000Y-51710000D01*
X111261000Y-54470000D02*
X111261000Y-59243000D01*
X111301000Y-46946000D02*
X111301000Y-51710000D01*
X111301000Y-54470000D02*
X111301000Y-59234000D01*
X111341000Y-46955000D02*
X111341000Y-51710000D01*
X111341000Y-54470000D02*
X111341000Y-59225000D01*
X111381000Y-46965000D02*
X111381000Y-51710000D01*
X111381000Y-54470000D02*
X111381000Y-59215000D01*
X111421000Y-46974000D02*
X111421000Y-51710000D01*
X111421000Y-54470000D02*
X111421000Y-59206000D01*
X111461000Y-46984000D02*
X111461000Y-51710000D01*
X111461000Y-54470000D02*
X111461000Y-59196000D01*
X111501000Y-46995000D02*
X111501000Y-51710000D01*
X111501000Y-54470000D02*
X111501000Y-59185000D01*
X111541000Y-47005000D02*
X111541000Y-51710000D01*
X111541000Y-54470000D02*
X111541000Y-59175000D01*
X111581000Y-47016000D02*
X111581000Y-51710000D01*
X111581000Y-54470000D02*
X111581000Y-59164000D01*
X111621000Y-47027000D02*
X111621000Y-51710000D01*
X111621000Y-54470000D02*
X111621000Y-59153000D01*
X111661000Y-47039000D02*
X111661000Y-51710000D01*
X111661000Y-54470000D02*
X111661000Y-59141000D01*
X111701000Y-47050000D02*
X111701000Y-51710000D01*
X111701000Y-54470000D02*
X111701000Y-59130000D01*
X111741000Y-47062000D02*
X111741000Y-51710000D01*
X111741000Y-54470000D02*
X111741000Y-59118000D01*
X111781000Y-47075000D02*
X111781000Y-51710000D01*
X111781000Y-54470000D02*
X111781000Y-59105000D01*
X111821000Y-47087000D02*
X111821000Y-51710000D01*
X111821000Y-54470000D02*
X111821000Y-59093000D01*
X111861000Y-47100000D02*
X111861000Y-51710000D01*
X111861000Y-54470000D02*
X111861000Y-59080000D01*
X111901000Y-47113000D02*
X111901000Y-51710000D01*
X111901000Y-54470000D02*
X111901000Y-59067000D01*
X111941000Y-47127000D02*
X111941000Y-51710000D01*
X111941000Y-54470000D02*
X111941000Y-59053000D01*
X111981000Y-47140000D02*
X111981000Y-51710000D01*
X111981000Y-54470000D02*
X111981000Y-59040000D01*
X112021000Y-47154000D02*
X112021000Y-51710000D01*
X112021000Y-54470000D02*
X112021000Y-59026000D01*
X112061000Y-47169000D02*
X112061000Y-51710000D01*
X112061000Y-54470000D02*
X112061000Y-59011000D01*
X112101000Y-47183000D02*
X112101000Y-51710000D01*
X112101000Y-54470000D02*
X112101000Y-58997000D01*
X112141000Y-47198000D02*
X112141000Y-51710000D01*
X112141000Y-54470000D02*
X112141000Y-58982000D01*
X112181000Y-47214000D02*
X112181000Y-51710000D01*
X112181000Y-54470000D02*
X112181000Y-58966000D01*
X112221000Y-47229000D02*
X112221000Y-51710000D01*
X112221000Y-54470000D02*
X112221000Y-58951000D01*
X112261000Y-47245000D02*
X112261000Y-51710000D01*
X112261000Y-54470000D02*
X112261000Y-58935000D01*
X112301000Y-47261000D02*
X112301000Y-51710000D01*
X112301000Y-54470000D02*
X112301000Y-58919000D01*
X112341000Y-47278000D02*
X112341000Y-51710000D01*
X112341000Y-54470000D02*
X112341000Y-58902000D01*
X112381000Y-47295000D02*
X112381000Y-51710000D01*
X112381000Y-54470000D02*
X112381000Y-58885000D01*
X112421000Y-47312000D02*
X112421000Y-51710000D01*
X112421000Y-54470000D02*
X112421000Y-58868000D01*
X112461000Y-47329000D02*
X112461000Y-51710000D01*
X112461000Y-54470000D02*
X112461000Y-58851000D01*
X112501000Y-47347000D02*
X112501000Y-51710000D01*
X112501000Y-54470000D02*
X112501000Y-58833000D01*
X112541000Y-47365000D02*
X112541000Y-51710000D01*
X112541000Y-54470000D02*
X112541000Y-58815000D01*
X112581000Y-47384000D02*
X112581000Y-51710000D01*
X112581000Y-54470000D02*
X112581000Y-58796000D01*
X112621000Y-47403000D02*
X112621000Y-51710000D01*
X112621000Y-54470000D02*
X112621000Y-58777000D01*
X112661000Y-47422000D02*
X112661000Y-51710000D01*
X112661000Y-54470000D02*
X112661000Y-58758000D01*
X112701000Y-47441000D02*
X112701000Y-51710000D01*
X112701000Y-54470000D02*
X112701000Y-58739000D01*
X112741000Y-47461000D02*
X112741000Y-51710000D01*
X112741000Y-54470000D02*
X112741000Y-58719000D01*
X112781000Y-47481000D02*
X112781000Y-51710000D01*
X112781000Y-54470000D02*
X112781000Y-58699000D01*
X112821000Y-47502000D02*
X112821000Y-51710000D01*
X112821000Y-54470000D02*
X112821000Y-58678000D01*
X112861000Y-47523000D02*
X112861000Y-51710000D01*
X112861000Y-54470000D02*
X112861000Y-58657000D01*
X112901000Y-47544000D02*
X112901000Y-51710000D01*
X112901000Y-54470000D02*
X112901000Y-58636000D01*
X112941000Y-47566000D02*
X112941000Y-51710000D01*
X112941000Y-54470000D02*
X112941000Y-58614000D01*
X112981000Y-47588000D02*
X112981000Y-51710000D01*
X112981000Y-54470000D02*
X112981000Y-58592000D01*
X113021000Y-47610000D02*
X113021000Y-51710000D01*
X113021000Y-54470000D02*
X113021000Y-58570000D01*
X113061000Y-47633000D02*
X113061000Y-51710000D01*
X113061000Y-54470000D02*
X113061000Y-58547000D01*
X113101000Y-47656000D02*
X113101000Y-51710000D01*
X113101000Y-54470000D02*
X113101000Y-58524000D01*
X113141000Y-47680000D02*
X113141000Y-51710000D01*
X113141000Y-54470000D02*
X113141000Y-58500000D01*
X113181000Y-47704000D02*
X113181000Y-51710000D01*
X113181000Y-54470000D02*
X113181000Y-58476000D01*
X113221000Y-47728000D02*
X113221000Y-51710000D01*
X113221000Y-54470000D02*
X113221000Y-58452000D01*
X113261000Y-47753000D02*
X113261000Y-51710000D01*
X113261000Y-54470000D02*
X113261000Y-58427000D01*
X113301000Y-47778000D02*
X113301000Y-51710000D01*
X113301000Y-54470000D02*
X113301000Y-58402000D01*
X113341000Y-47804000D02*
X113341000Y-51710000D01*
X113341000Y-54470000D02*
X113341000Y-58376000D01*
X113381000Y-47830000D02*
X113381000Y-51710000D01*
X113381000Y-54470000D02*
X113381000Y-58350000D01*
X113421000Y-47856000D02*
X113421000Y-51710000D01*
X113421000Y-54470000D02*
X113421000Y-58324000D01*
X113461000Y-47883000D02*
X113461000Y-51710000D01*
X113461000Y-54470000D02*
X113461000Y-58297000D01*
X113501000Y-47911000D02*
X113501000Y-51710000D01*
X113501000Y-54470000D02*
X113501000Y-58269000D01*
X113541000Y-47939000D02*
X113541000Y-51710000D01*
X113541000Y-54470000D02*
X113541000Y-58241000D01*
X113581000Y-47967000D02*
X113581000Y-51710000D01*
X113581000Y-54470000D02*
X113581000Y-58213000D01*
X113621000Y-47996000D02*
X113621000Y-51710000D01*
X113621000Y-54470000D02*
X113621000Y-58184000D01*
X113661000Y-48025000D02*
X113661000Y-51710000D01*
X113661000Y-54470000D02*
X113661000Y-58155000D01*
X113701000Y-48055000D02*
X113701000Y-51710000D01*
X113701000Y-54470000D02*
X113701000Y-58125000D01*
X113741000Y-48085000D02*
X113741000Y-51710000D01*
X113741000Y-54470000D02*
X113741000Y-58095000D01*
X113781000Y-48115000D02*
X113781000Y-58065000D01*
X113821000Y-48147000D02*
X113821000Y-58033000D01*
X113861000Y-48178000D02*
X113861000Y-58002000D01*
X113901000Y-48211000D02*
X113901000Y-57969000D01*
X113941000Y-48243000D02*
X113941000Y-57937000D01*
X113981000Y-48277000D02*
X113981000Y-57903000D01*
X114021000Y-48311000D02*
X114021000Y-57869000D01*
X114061000Y-48345000D02*
X114061000Y-57835000D01*
X114101000Y-48380000D02*
X114101000Y-57800000D01*
X114141000Y-48416000D02*
X114141000Y-57764000D01*
X114181000Y-48452000D02*
X114181000Y-57728000D01*
X114221000Y-48489000D02*
X114221000Y-57691000D01*
X114261000Y-48527000D02*
X114261000Y-57653000D01*
X114301000Y-48565000D02*
X114301000Y-57615000D01*
X114341000Y-48604000D02*
X114341000Y-57576000D01*
X114381000Y-48643000D02*
X114381000Y-57537000D01*
X114421000Y-48684000D02*
X114421000Y-57496000D01*
X114461000Y-48725000D02*
X114461000Y-57455000D01*
X114501000Y-48767000D02*
X114501000Y-57413000D01*
X114541000Y-48809000D02*
X114541000Y-57371000D01*
X114581000Y-48852000D02*
X114581000Y-57328000D01*
X114621000Y-48897000D02*
X114621000Y-57283000D01*
X114661000Y-48942000D02*
X114661000Y-57238000D01*
X114701000Y-48988000D02*
X114701000Y-57192000D01*
X114741000Y-49034000D02*
X114741000Y-57146000D01*
X114781000Y-49082000D02*
X114781000Y-57098000D01*
X114821000Y-49131000D02*
X114821000Y-57049000D01*
X114861000Y-49181000D02*
X114861000Y-56999000D01*
X114901000Y-49231000D02*
X114901000Y-56949000D01*
X114941000Y-49283000D02*
X114941000Y-56897000D01*
X114981000Y-49336000D02*
X114981000Y-56844000D01*
X115021000Y-49390000D02*
X115021000Y-56790000D01*
X115061000Y-49446000D02*
X115061000Y-56734000D01*
X115101000Y-49502000D02*
X115101000Y-56678000D01*
X115141000Y-49560000D02*
X115141000Y-56620000D01*
X115181000Y-49620000D02*
X115181000Y-56560000D01*
X115221000Y-49681000D02*
X115221000Y-56499000D01*
X115261000Y-49743000D02*
X115261000Y-56437000D01*
X115301000Y-49808000D02*
X115301000Y-56372000D01*
X115341000Y-49873000D02*
X115341000Y-56307000D01*
X115381000Y-49941000D02*
X115381000Y-56239000D01*
X115421000Y-50011000D02*
X115421000Y-56169000D01*
X115461000Y-50083000D02*
X115461000Y-56097000D01*
X115501000Y-50157000D02*
X115501000Y-56023000D01*
X115541000Y-50234000D02*
X115541000Y-55946000D01*
X115581000Y-50313000D02*
X115581000Y-55867000D01*
X115621000Y-50395000D02*
X115621000Y-55785000D01*
X115661000Y-50480000D02*
X115661000Y-55700000D01*
X115701000Y-50569000D02*
X115701000Y-55611000D01*
X115741000Y-50662000D02*
X115741000Y-55518000D01*
X115781000Y-50759000D02*
X115781000Y-55421000D01*
X115821000Y-50860000D02*
X115821000Y-55320000D01*
X115861000Y-50968000D02*
X115861000Y-55212000D01*
X115901000Y-51081000D02*
X115901000Y-55099000D01*
X115941000Y-51202000D02*
X115941000Y-54978000D01*
X115981000Y-51333000D02*
X115981000Y-54847000D01*
X116021000Y-51474000D02*
X116021000Y-54706000D01*
X116061000Y-51630000D02*
X116061000Y-54550000D01*
X116101000Y-51805000D02*
X116101000Y-54375000D01*
X116141000Y-52008000D02*
X116141000Y-54172000D01*
X116181000Y-52259000D02*
X116181000Y-53921000D01*
X116221000Y-52626000D02*
X116221000Y-53554000D01*
X116240000Y-53090000D02*
G75*
G02*
X103560000Y-53090000I-6340000J0D01*
G01*
X103560000Y-53090000D02*
G75*
G02*
X116240000Y-53090000I6340000J0D01*
G01*
X63530000Y-49360000D02*
X76130000Y-49360000D01*
X63530000Y-49400000D02*
X76130000Y-49400000D01*
X63530000Y-49440000D02*
X76130000Y-49440000D01*
X63531000Y-49320000D02*
X76129000Y-49320000D01*
X63532000Y-49280000D02*
X76128000Y-49280000D01*
X63533000Y-49240000D02*
X76127000Y-49240000D01*
X63534000Y-49200000D02*
X76126000Y-49200000D01*
X63536000Y-49160000D02*
X76124000Y-49160000D01*
X63538000Y-49120000D02*
X76122000Y-49120000D01*
X63540000Y-49080000D02*
X76120000Y-49080000D01*
X63542000Y-49040000D02*
X76118000Y-49040000D01*
X63545000Y-49000000D02*
X76115000Y-49000000D01*
X63548000Y-48960000D02*
X76112000Y-48960000D01*
X63551000Y-48920000D02*
X76109000Y-48920000D01*
X63554000Y-48880000D02*
X76106000Y-48880000D01*
X63558000Y-48840000D02*
X76102000Y-48840000D01*
X63562000Y-48800000D02*
X76098000Y-48800000D01*
X63566000Y-48760000D02*
X76094000Y-48760000D01*
X63571000Y-48719000D02*
X76089000Y-48719000D01*
X63575000Y-48679000D02*
X76085000Y-48679000D01*
X63580000Y-48639000D02*
X76080000Y-48639000D01*
X63585000Y-48599000D02*
X76075000Y-48599000D01*
X63591000Y-48559000D02*
X76069000Y-48559000D01*
X63597000Y-48519000D02*
X76063000Y-48519000D01*
X63603000Y-48479000D02*
X76057000Y-48479000D01*
X63609000Y-48439000D02*
X76051000Y-48439000D01*
X63615000Y-48399000D02*
X76045000Y-48399000D01*
X63622000Y-48359000D02*
X76038000Y-48359000D01*
X63629000Y-48319000D02*
X68450000Y-48319000D01*
X63637000Y-48279000D02*
X68450000Y-48279000D01*
X63644000Y-48239000D02*
X68450000Y-48239000D01*
X63652000Y-48199000D02*
X68450000Y-48199000D01*
X63660000Y-48159000D02*
X68450000Y-48159000D01*
X63668000Y-48119000D02*
X68450000Y-48119000D01*
X63677000Y-48079000D02*
X68450000Y-48079000D01*
X63686000Y-48039000D02*
X68450000Y-48039000D01*
X63695000Y-47999000D02*
X68450000Y-47999000D01*
X63705000Y-47959000D02*
X68450000Y-47959000D01*
X63714000Y-47919000D02*
X68450000Y-47919000D01*
X63724000Y-47879000D02*
X68450000Y-47879000D01*
X63735000Y-47839000D02*
X68450000Y-47839000D01*
X63745000Y-47799000D02*
X68450000Y-47799000D01*
X63756000Y-47759000D02*
X68450000Y-47759000D01*
X63767000Y-47719000D02*
X68450000Y-47719000D01*
X63779000Y-47679000D02*
X68450000Y-47679000D01*
X63790000Y-47639000D02*
X68450000Y-47639000D01*
X63802000Y-47599000D02*
X68450000Y-47599000D01*
X63815000Y-47559000D02*
X68450000Y-47559000D01*
X63827000Y-47519000D02*
X68450000Y-47519000D01*
X63840000Y-47479000D02*
X68450000Y-47479000D01*
X63853000Y-47439000D02*
X68450000Y-47439000D01*
X63867000Y-47399000D02*
X68450000Y-47399000D01*
X63880000Y-47359000D02*
X68450000Y-47359000D01*
X63894000Y-47319000D02*
X68450000Y-47319000D01*
X63909000Y-47279000D02*
X68450000Y-47279000D01*
X63923000Y-47239000D02*
X68450000Y-47239000D01*
X63938000Y-47199000D02*
X68450000Y-47199000D01*
X63954000Y-47159000D02*
X68450000Y-47159000D01*
X63969000Y-47119000D02*
X68450000Y-47119000D01*
X63985000Y-47079000D02*
X68450000Y-47079000D01*
X64001000Y-47039000D02*
X68450000Y-47039000D01*
X64018000Y-46999000D02*
X68450000Y-46999000D01*
X64035000Y-46959000D02*
X68450000Y-46959000D01*
X64052000Y-46919000D02*
X68450000Y-46919000D01*
X64069000Y-46879000D02*
X68450000Y-46879000D01*
X64087000Y-46839000D02*
X68450000Y-46839000D01*
X64105000Y-46799000D02*
X68450000Y-46799000D01*
X64124000Y-46759000D02*
X68450000Y-46759000D01*
X64143000Y-46719000D02*
X68450000Y-46719000D01*
X64162000Y-46679000D02*
X68450000Y-46679000D01*
X64181000Y-46639000D02*
X68450000Y-46639000D01*
X64201000Y-46599000D02*
X68450000Y-46599000D01*
X64221000Y-46559000D02*
X68450000Y-46559000D01*
X64242000Y-46519000D02*
X68450000Y-46519000D01*
X64263000Y-46479000D02*
X68450000Y-46479000D01*
X64284000Y-46439000D02*
X68450000Y-46439000D01*
X64306000Y-46399000D02*
X68450000Y-46399000D01*
X64328000Y-46359000D02*
X68450000Y-46359000D01*
X64350000Y-46319000D02*
X68450000Y-46319000D01*
X64373000Y-46279000D02*
X68450000Y-46279000D01*
X64396000Y-46239000D02*
X68450000Y-46239000D01*
X64420000Y-46199000D02*
X68450000Y-46199000D01*
X64444000Y-46159000D02*
X68450000Y-46159000D01*
X64468000Y-46119000D02*
X68450000Y-46119000D01*
X64493000Y-46079000D02*
X68450000Y-46079000D01*
X64518000Y-46039000D02*
X68450000Y-46039000D01*
X64544000Y-45999000D02*
X68450000Y-45999000D01*
X64570000Y-45959000D02*
X68450000Y-45959000D01*
X64596000Y-45919000D02*
X68450000Y-45919000D01*
X64623000Y-45879000D02*
X68450000Y-45879000D01*
X64651000Y-45839000D02*
X68450000Y-45839000D01*
X64679000Y-45799000D02*
X68450000Y-45799000D01*
X64707000Y-45759000D02*
X68450000Y-45759000D01*
X64736000Y-45719000D02*
X68450000Y-45719000D01*
X64765000Y-45679000D02*
X68450000Y-45679000D01*
X64795000Y-45639000D02*
X68450000Y-45639000D01*
X64825000Y-45599000D02*
X68450000Y-45599000D01*
X64855000Y-45559000D02*
X74805000Y-45559000D01*
X64887000Y-45519000D02*
X74773000Y-45519000D01*
X64918000Y-45479000D02*
X74742000Y-45479000D01*
X64951000Y-45439000D02*
X74709000Y-45439000D01*
X64983000Y-45399000D02*
X74677000Y-45399000D01*
X65017000Y-45359000D02*
X74643000Y-45359000D01*
X65051000Y-45319000D02*
X74609000Y-45319000D01*
X65085000Y-45279000D02*
X74575000Y-45279000D01*
X65120000Y-45239000D02*
X74540000Y-45239000D01*
X65156000Y-45199000D02*
X74504000Y-45199000D01*
X65192000Y-45159000D02*
X74468000Y-45159000D01*
X65229000Y-45119000D02*
X74431000Y-45119000D01*
X65267000Y-45079000D02*
X74393000Y-45079000D01*
X65305000Y-45039000D02*
X74355000Y-45039000D01*
X65344000Y-44999000D02*
X74316000Y-44999000D01*
X65383000Y-44959000D02*
X74277000Y-44959000D01*
X65424000Y-44919000D02*
X74236000Y-44919000D01*
X65465000Y-44879000D02*
X74195000Y-44879000D01*
X65507000Y-44839000D02*
X74153000Y-44839000D01*
X65549000Y-44799000D02*
X74111000Y-44799000D01*
X65592000Y-44759000D02*
X74068000Y-44759000D01*
X65637000Y-44719000D02*
X74023000Y-44719000D01*
X65682000Y-44679000D02*
X73978000Y-44679000D01*
X65728000Y-44639000D02*
X73932000Y-44639000D01*
X65774000Y-44599000D02*
X73886000Y-44599000D01*
X65822000Y-44559000D02*
X73838000Y-44559000D01*
X65871000Y-44519000D02*
X73789000Y-44519000D01*
X65921000Y-44479000D02*
X73739000Y-44479000D01*
X65971000Y-44439000D02*
X73689000Y-44439000D01*
X66023000Y-44399000D02*
X73637000Y-44399000D01*
X66076000Y-44359000D02*
X73584000Y-44359000D01*
X66130000Y-44319000D02*
X73530000Y-44319000D01*
X66186000Y-44279000D02*
X73474000Y-44279000D01*
X66242000Y-44239000D02*
X73418000Y-44239000D01*
X66300000Y-44199000D02*
X73360000Y-44199000D01*
X66360000Y-44159000D02*
X73300000Y-44159000D01*
X66421000Y-44119000D02*
X73239000Y-44119000D01*
X66483000Y-44079000D02*
X73177000Y-44079000D01*
X66548000Y-44039000D02*
X73112000Y-44039000D01*
X66613000Y-43999000D02*
X73047000Y-43999000D01*
X66681000Y-43959000D02*
X72979000Y-43959000D01*
X66751000Y-43919000D02*
X72909000Y-43919000D01*
X66823000Y-43879000D02*
X72837000Y-43879000D01*
X66897000Y-43839000D02*
X72763000Y-43839000D01*
X66974000Y-43799000D02*
X72686000Y-43799000D01*
X67053000Y-43759000D02*
X72607000Y-43759000D01*
X67135000Y-43719000D02*
X72525000Y-43719000D01*
X67220000Y-43679000D02*
X72440000Y-43679000D01*
X67309000Y-43639000D02*
X72351000Y-43639000D01*
X67402000Y-43599000D02*
X72258000Y-43599000D01*
X67499000Y-43559000D02*
X72161000Y-43559000D01*
X67600000Y-43519000D02*
X72060000Y-43519000D01*
X67708000Y-43479000D02*
X71952000Y-43479000D01*
X67821000Y-43439000D02*
X71839000Y-43439000D01*
X67942000Y-43399000D02*
X71718000Y-43399000D01*
X68073000Y-43359000D02*
X71587000Y-43359000D01*
X68214000Y-43319000D02*
X71446000Y-43319000D01*
X68370000Y-43279000D02*
X71290000Y-43279000D01*
X68545000Y-43239000D02*
X71115000Y-43239000D01*
X68748000Y-43199000D02*
X70912000Y-43199000D01*
X68930000Y-54240000D02*
X70730000Y-54240000D01*
X68999000Y-43159000D02*
X70661000Y-43159000D01*
X69366000Y-43119000D02*
X70294000Y-43119000D01*
X69830000Y-55140000D02*
X69830000Y-53340000D01*
X71210000Y-45599000D02*
X74835000Y-45599000D01*
X71210000Y-45639000D02*
X74865000Y-45639000D01*
X71210000Y-45679000D02*
X74895000Y-45679000D01*
X71210000Y-45719000D02*
X74924000Y-45719000D01*
X71210000Y-45759000D02*
X74953000Y-45759000D01*
X71210000Y-45799000D02*
X74981000Y-45799000D01*
X71210000Y-45839000D02*
X75009000Y-45839000D01*
X71210000Y-45879000D02*
X75037000Y-45879000D01*
X71210000Y-45919000D02*
X75064000Y-45919000D01*
X71210000Y-45959000D02*
X75090000Y-45959000D01*
X71210000Y-45999000D02*
X75116000Y-45999000D01*
X71210000Y-46039000D02*
X75142000Y-46039000D01*
X71210000Y-46079000D02*
X75167000Y-46079000D01*
X71210000Y-46119000D02*
X75192000Y-46119000D01*
X71210000Y-46159000D02*
X75216000Y-46159000D01*
X71210000Y-46199000D02*
X75240000Y-46199000D01*
X71210000Y-46239000D02*
X75264000Y-46239000D01*
X71210000Y-46279000D02*
X75287000Y-46279000D01*
X71210000Y-46319000D02*
X75310000Y-46319000D01*
X71210000Y-46359000D02*
X75332000Y-46359000D01*
X71210000Y-46399000D02*
X75354000Y-46399000D01*
X71210000Y-46439000D02*
X75376000Y-46439000D01*
X71210000Y-46479000D02*
X75397000Y-46479000D01*
X71210000Y-46519000D02*
X75418000Y-46519000D01*
X71210000Y-46559000D02*
X75439000Y-46559000D01*
X71210000Y-46599000D02*
X75459000Y-46599000D01*
X71210000Y-46639000D02*
X75479000Y-46639000D01*
X71210000Y-46679000D02*
X75498000Y-46679000D01*
X71210000Y-46719000D02*
X75517000Y-46719000D01*
X71210000Y-46759000D02*
X75536000Y-46759000D01*
X71210000Y-46799000D02*
X75555000Y-46799000D01*
X71210000Y-46839000D02*
X75573000Y-46839000D01*
X71210000Y-46879000D02*
X75591000Y-46879000D01*
X71210000Y-46919000D02*
X75608000Y-46919000D01*
X71210000Y-46959000D02*
X75625000Y-46959000D01*
X71210000Y-46999000D02*
X75642000Y-46999000D01*
X71210000Y-47039000D02*
X75659000Y-47039000D01*
X71210000Y-47079000D02*
X75675000Y-47079000D01*
X71210000Y-47119000D02*
X75691000Y-47119000D01*
X71210000Y-47159000D02*
X75706000Y-47159000D01*
X71210000Y-47199000D02*
X75722000Y-47199000D01*
X71210000Y-47239000D02*
X75737000Y-47239000D01*
X71210000Y-47279000D02*
X75751000Y-47279000D01*
X71210000Y-47319000D02*
X75766000Y-47319000D01*
X71210000Y-47359000D02*
X75780000Y-47359000D01*
X71210000Y-47399000D02*
X75793000Y-47399000D01*
X71210000Y-47439000D02*
X75807000Y-47439000D01*
X71210000Y-47479000D02*
X75820000Y-47479000D01*
X71210000Y-47519000D02*
X75833000Y-47519000D01*
X71210000Y-47559000D02*
X75845000Y-47559000D01*
X71210000Y-47599000D02*
X75858000Y-47599000D01*
X71210000Y-47639000D02*
X75870000Y-47639000D01*
X71210000Y-47679000D02*
X75881000Y-47679000D01*
X71210000Y-47719000D02*
X75893000Y-47719000D01*
X71210000Y-47759000D02*
X75904000Y-47759000D01*
X71210000Y-47799000D02*
X75915000Y-47799000D01*
X71210000Y-47839000D02*
X75925000Y-47839000D01*
X71210000Y-47879000D02*
X75936000Y-47879000D01*
X71210000Y-47919000D02*
X75946000Y-47919000D01*
X71210000Y-47959000D02*
X75955000Y-47959000D01*
X71210000Y-47999000D02*
X75965000Y-47999000D01*
X71210000Y-48039000D02*
X75974000Y-48039000D01*
X71210000Y-48079000D02*
X75983000Y-48079000D01*
X71210000Y-48119000D02*
X75992000Y-48119000D01*
X71210000Y-48159000D02*
X76000000Y-48159000D01*
X71210000Y-48199000D02*
X76008000Y-48199000D01*
X71210000Y-48239000D02*
X76016000Y-48239000D01*
X71210000Y-48279000D02*
X76023000Y-48279000D01*
X71210000Y-48319000D02*
X76031000Y-48319000D01*
X76170000Y-49440000D02*
G75*
G02*
X63490000Y-49440000I-6340000J0D01*
G01*
X63490000Y-49440000D02*
G75*
G02*
X76170000Y-49440000I6340000J0D01*
G01*
X99400000Y-66860000D02*
X112000000Y-66860000D01*
X99400000Y-66900000D02*
X112000000Y-66900000D01*
X99400000Y-66940000D02*
X112000000Y-66940000D01*
X99401000Y-66820000D02*
X111999000Y-66820000D01*
X99402000Y-66780000D02*
X111998000Y-66780000D01*
X99403000Y-66740000D02*
X111997000Y-66740000D01*
X99404000Y-66700000D02*
X111996000Y-66700000D01*
X99406000Y-66660000D02*
X111994000Y-66660000D01*
X99408000Y-66620000D02*
X111992000Y-66620000D01*
X99410000Y-66580000D02*
X111990000Y-66580000D01*
X99412000Y-66540000D02*
X111988000Y-66540000D01*
X99415000Y-66500000D02*
X111985000Y-66500000D01*
X99418000Y-66460000D02*
X111982000Y-66460000D01*
X99421000Y-66420000D02*
X111979000Y-66420000D01*
X99424000Y-66380000D02*
X111976000Y-66380000D01*
X99428000Y-66340000D02*
X111972000Y-66340000D01*
X99432000Y-66300000D02*
X111968000Y-66300000D01*
X99436000Y-66260000D02*
X111964000Y-66260000D01*
X99441000Y-66219000D02*
X111959000Y-66219000D01*
X99445000Y-66179000D02*
X111955000Y-66179000D01*
X99450000Y-66139000D02*
X111950000Y-66139000D01*
X99455000Y-66099000D02*
X111945000Y-66099000D01*
X99461000Y-66059000D02*
X111939000Y-66059000D01*
X99467000Y-66019000D02*
X111933000Y-66019000D01*
X99473000Y-65979000D02*
X111927000Y-65979000D01*
X99479000Y-65939000D02*
X111921000Y-65939000D01*
X99485000Y-65899000D02*
X111915000Y-65899000D01*
X99492000Y-65859000D02*
X111908000Y-65859000D01*
X99499000Y-65819000D02*
X104320000Y-65819000D01*
X99507000Y-65779000D02*
X104320000Y-65779000D01*
X99514000Y-65739000D02*
X104320000Y-65739000D01*
X99522000Y-65699000D02*
X104320000Y-65699000D01*
X99530000Y-65659000D02*
X104320000Y-65659000D01*
X99538000Y-65619000D02*
X104320000Y-65619000D01*
X99547000Y-65579000D02*
X104320000Y-65579000D01*
X99556000Y-65539000D02*
X104320000Y-65539000D01*
X99565000Y-65499000D02*
X104320000Y-65499000D01*
X99575000Y-65459000D02*
X104320000Y-65459000D01*
X99584000Y-65419000D02*
X104320000Y-65419000D01*
X99594000Y-65379000D02*
X104320000Y-65379000D01*
X99605000Y-65339000D02*
X104320000Y-65339000D01*
X99615000Y-65299000D02*
X104320000Y-65299000D01*
X99626000Y-65259000D02*
X104320000Y-65259000D01*
X99637000Y-65219000D02*
X104320000Y-65219000D01*
X99649000Y-65179000D02*
X104320000Y-65179000D01*
X99660000Y-65139000D02*
X104320000Y-65139000D01*
X99672000Y-65099000D02*
X104320000Y-65099000D01*
X99685000Y-65059000D02*
X104320000Y-65059000D01*
X99697000Y-65019000D02*
X104320000Y-65019000D01*
X99710000Y-64979000D02*
X104320000Y-64979000D01*
X99723000Y-64939000D02*
X104320000Y-64939000D01*
X99737000Y-64899000D02*
X104320000Y-64899000D01*
X99750000Y-64859000D02*
X104320000Y-64859000D01*
X99764000Y-64819000D02*
X104320000Y-64819000D01*
X99779000Y-64779000D02*
X104320000Y-64779000D01*
X99793000Y-64739000D02*
X104320000Y-64739000D01*
X99808000Y-64699000D02*
X104320000Y-64699000D01*
X99824000Y-64659000D02*
X104320000Y-64659000D01*
X99839000Y-64619000D02*
X104320000Y-64619000D01*
X99855000Y-64579000D02*
X104320000Y-64579000D01*
X99871000Y-64539000D02*
X104320000Y-64539000D01*
X99888000Y-64499000D02*
X104320000Y-64499000D01*
X99905000Y-64459000D02*
X104320000Y-64459000D01*
X99922000Y-64419000D02*
X104320000Y-64419000D01*
X99939000Y-64379000D02*
X104320000Y-64379000D01*
X99957000Y-64339000D02*
X104320000Y-64339000D01*
X99975000Y-64299000D02*
X104320000Y-64299000D01*
X99994000Y-64259000D02*
X104320000Y-64259000D01*
X100013000Y-64219000D02*
X104320000Y-64219000D01*
X100032000Y-64179000D02*
X104320000Y-64179000D01*
X100051000Y-64139000D02*
X104320000Y-64139000D01*
X100071000Y-64099000D02*
X104320000Y-64099000D01*
X100091000Y-64059000D02*
X104320000Y-64059000D01*
X100112000Y-64019000D02*
X104320000Y-64019000D01*
X100133000Y-63979000D02*
X104320000Y-63979000D01*
X100154000Y-63939000D02*
X104320000Y-63939000D01*
X100176000Y-63899000D02*
X104320000Y-63899000D01*
X100198000Y-63859000D02*
X104320000Y-63859000D01*
X100220000Y-63819000D02*
X104320000Y-63819000D01*
X100243000Y-63779000D02*
X104320000Y-63779000D01*
X100266000Y-63739000D02*
X104320000Y-63739000D01*
X100290000Y-63699000D02*
X104320000Y-63699000D01*
X100314000Y-63659000D02*
X104320000Y-63659000D01*
X100338000Y-63619000D02*
X104320000Y-63619000D01*
X100363000Y-63579000D02*
X104320000Y-63579000D01*
X100388000Y-63539000D02*
X104320000Y-63539000D01*
X100414000Y-63499000D02*
X104320000Y-63499000D01*
X100440000Y-63459000D02*
X104320000Y-63459000D01*
X100466000Y-63419000D02*
X104320000Y-63419000D01*
X100493000Y-63379000D02*
X104320000Y-63379000D01*
X100521000Y-63339000D02*
X104320000Y-63339000D01*
X100549000Y-63299000D02*
X104320000Y-63299000D01*
X100577000Y-63259000D02*
X104320000Y-63259000D01*
X100606000Y-63219000D02*
X104320000Y-63219000D01*
X100635000Y-63179000D02*
X104320000Y-63179000D01*
X100665000Y-63139000D02*
X104320000Y-63139000D01*
X100695000Y-63099000D02*
X104320000Y-63099000D01*
X100725000Y-63059000D02*
X110675000Y-63059000D01*
X100757000Y-63019000D02*
X110643000Y-63019000D01*
X100788000Y-62979000D02*
X110612000Y-62979000D01*
X100821000Y-62939000D02*
X110579000Y-62939000D01*
X100853000Y-62899000D02*
X110547000Y-62899000D01*
X100887000Y-62859000D02*
X110513000Y-62859000D01*
X100921000Y-62819000D02*
X110479000Y-62819000D01*
X100955000Y-62779000D02*
X110445000Y-62779000D01*
X100990000Y-62739000D02*
X110410000Y-62739000D01*
X101026000Y-62699000D02*
X110374000Y-62699000D01*
X101062000Y-62659000D02*
X110338000Y-62659000D01*
X101099000Y-62619000D02*
X110301000Y-62619000D01*
X101137000Y-62579000D02*
X110263000Y-62579000D01*
X101175000Y-62539000D02*
X110225000Y-62539000D01*
X101214000Y-62499000D02*
X110186000Y-62499000D01*
X101253000Y-62459000D02*
X110147000Y-62459000D01*
X101294000Y-62419000D02*
X110106000Y-62419000D01*
X101335000Y-62379000D02*
X110065000Y-62379000D01*
X101377000Y-62339000D02*
X110023000Y-62339000D01*
X101419000Y-62299000D02*
X109981000Y-62299000D01*
X101462000Y-62259000D02*
X109938000Y-62259000D01*
X101507000Y-62219000D02*
X109893000Y-62219000D01*
X101552000Y-62179000D02*
X109848000Y-62179000D01*
X101598000Y-62139000D02*
X109802000Y-62139000D01*
X101644000Y-62099000D02*
X109756000Y-62099000D01*
X101692000Y-62059000D02*
X109708000Y-62059000D01*
X101741000Y-62019000D02*
X109659000Y-62019000D01*
X101791000Y-61979000D02*
X109609000Y-61979000D01*
X101841000Y-61939000D02*
X109559000Y-61939000D01*
X101893000Y-61899000D02*
X109507000Y-61899000D01*
X101946000Y-61859000D02*
X109454000Y-61859000D01*
X102000000Y-61819000D02*
X109400000Y-61819000D01*
X102056000Y-61779000D02*
X109344000Y-61779000D01*
X102112000Y-61739000D02*
X109288000Y-61739000D01*
X102170000Y-61699000D02*
X109230000Y-61699000D01*
X102230000Y-61659000D02*
X109170000Y-61659000D01*
X102291000Y-61619000D02*
X109109000Y-61619000D01*
X102353000Y-61579000D02*
X109047000Y-61579000D01*
X102418000Y-61539000D02*
X108982000Y-61539000D01*
X102483000Y-61499000D02*
X108917000Y-61499000D01*
X102551000Y-61459000D02*
X108849000Y-61459000D01*
X102621000Y-61419000D02*
X108779000Y-61419000D01*
X102693000Y-61379000D02*
X108707000Y-61379000D01*
X102767000Y-61339000D02*
X108633000Y-61339000D01*
X102844000Y-61299000D02*
X108556000Y-61299000D01*
X102923000Y-61259000D02*
X108477000Y-61259000D01*
X103005000Y-61219000D02*
X108395000Y-61219000D01*
X103090000Y-61179000D02*
X108310000Y-61179000D01*
X103179000Y-61139000D02*
X108221000Y-61139000D01*
X103272000Y-61099000D02*
X108128000Y-61099000D01*
X103369000Y-61059000D02*
X108031000Y-61059000D01*
X103470000Y-61019000D02*
X107930000Y-61019000D01*
X103578000Y-60979000D02*
X107822000Y-60979000D01*
X103691000Y-60939000D02*
X107709000Y-60939000D01*
X103812000Y-60899000D02*
X107588000Y-60899000D01*
X103943000Y-60859000D02*
X107457000Y-60859000D01*
X104084000Y-60819000D02*
X107316000Y-60819000D01*
X104240000Y-60779000D02*
X107160000Y-60779000D01*
X104415000Y-60739000D02*
X106985000Y-60739000D01*
X104618000Y-60699000D02*
X106782000Y-60699000D01*
X104800000Y-71740000D02*
X106600000Y-71740000D01*
X104869000Y-60659000D02*
X106531000Y-60659000D01*
X105236000Y-60619000D02*
X106164000Y-60619000D01*
X105700000Y-72640000D02*
X105700000Y-70840000D01*
X107080000Y-63099000D02*
X110705000Y-63099000D01*
X107080000Y-63139000D02*
X110735000Y-63139000D01*
X107080000Y-63179000D02*
X110765000Y-63179000D01*
X107080000Y-63219000D02*
X110794000Y-63219000D01*
X107080000Y-63259000D02*
X110823000Y-63259000D01*
X107080000Y-63299000D02*
X110851000Y-63299000D01*
X107080000Y-63339000D02*
X110879000Y-63339000D01*
X107080000Y-63379000D02*
X110907000Y-63379000D01*
X107080000Y-63419000D02*
X110934000Y-63419000D01*
X107080000Y-63459000D02*
X110960000Y-63459000D01*
X107080000Y-63499000D02*
X110986000Y-63499000D01*
X107080000Y-63539000D02*
X111012000Y-63539000D01*
X107080000Y-63579000D02*
X111037000Y-63579000D01*
X107080000Y-63619000D02*
X111062000Y-63619000D01*
X107080000Y-63659000D02*
X111086000Y-63659000D01*
X107080000Y-63699000D02*
X111110000Y-63699000D01*
X107080000Y-63739000D02*
X111134000Y-63739000D01*
X107080000Y-63779000D02*
X111157000Y-63779000D01*
X107080000Y-63819000D02*
X111180000Y-63819000D01*
X107080000Y-63859000D02*
X111202000Y-63859000D01*
X107080000Y-63899000D02*
X111224000Y-63899000D01*
X107080000Y-63939000D02*
X111246000Y-63939000D01*
X107080000Y-63979000D02*
X111267000Y-63979000D01*
X107080000Y-64019000D02*
X111288000Y-64019000D01*
X107080000Y-64059000D02*
X111309000Y-64059000D01*
X107080000Y-64099000D02*
X111329000Y-64099000D01*
X107080000Y-64139000D02*
X111349000Y-64139000D01*
X107080000Y-64179000D02*
X111368000Y-64179000D01*
X107080000Y-64219000D02*
X111387000Y-64219000D01*
X107080000Y-64259000D02*
X111406000Y-64259000D01*
X107080000Y-64299000D02*
X111425000Y-64299000D01*
X107080000Y-64339000D02*
X111443000Y-64339000D01*
X107080000Y-64379000D02*
X111461000Y-64379000D01*
X107080000Y-64419000D02*
X111478000Y-64419000D01*
X107080000Y-64459000D02*
X111495000Y-64459000D01*
X107080000Y-64499000D02*
X111512000Y-64499000D01*
X107080000Y-64539000D02*
X111529000Y-64539000D01*
X107080000Y-64579000D02*
X111545000Y-64579000D01*
X107080000Y-64619000D02*
X111561000Y-64619000D01*
X107080000Y-64659000D02*
X111576000Y-64659000D01*
X107080000Y-64699000D02*
X111592000Y-64699000D01*
X107080000Y-64739000D02*
X111607000Y-64739000D01*
X107080000Y-64779000D02*
X111621000Y-64779000D01*
X107080000Y-64819000D02*
X111636000Y-64819000D01*
X107080000Y-64859000D02*
X111650000Y-64859000D01*
X107080000Y-64899000D02*
X111663000Y-64899000D01*
X107080000Y-64939000D02*
X111677000Y-64939000D01*
X107080000Y-64979000D02*
X111690000Y-64979000D01*
X107080000Y-65019000D02*
X111703000Y-65019000D01*
X107080000Y-65059000D02*
X111715000Y-65059000D01*
X107080000Y-65099000D02*
X111728000Y-65099000D01*
X107080000Y-65139000D02*
X111740000Y-65139000D01*
X107080000Y-65179000D02*
X111751000Y-65179000D01*
X107080000Y-65219000D02*
X111763000Y-65219000D01*
X107080000Y-65259000D02*
X111774000Y-65259000D01*
X107080000Y-65299000D02*
X111785000Y-65299000D01*
X107080000Y-65339000D02*
X111795000Y-65339000D01*
X107080000Y-65379000D02*
X111806000Y-65379000D01*
X107080000Y-65419000D02*
X111816000Y-65419000D01*
X107080000Y-65459000D02*
X111825000Y-65459000D01*
X107080000Y-65499000D02*
X111835000Y-65499000D01*
X107080000Y-65539000D02*
X111844000Y-65539000D01*
X107080000Y-65579000D02*
X111853000Y-65579000D01*
X107080000Y-65619000D02*
X111862000Y-65619000D01*
X107080000Y-65659000D02*
X111870000Y-65659000D01*
X107080000Y-65699000D02*
X111878000Y-65699000D01*
X107080000Y-65739000D02*
X111886000Y-65739000D01*
X107080000Y-65779000D02*
X111893000Y-65779000D01*
X107080000Y-65819000D02*
X111901000Y-65819000D01*
X112040000Y-66940000D02*
G75*
G02*
X99360000Y-66940000I-6340000J0D01*
G01*
X99360000Y-66940000D02*
G75*
G02*
X112040000Y-66940000I6340000J0D01*
G01*
X53794000Y-89530000D02*
X53950000Y-89530000D01*
X56110000Y-89530000D02*
X56266000Y-89530000D01*
X53794484Y-89530000D02*
G75*
G02*
X53951392Y-86297665I1235516J1560000D01*
G01*
X53950000Y-89010961D02*
G75*
G02*
X53950163Y-86928870I1080000J1040961D01*
G01*
X56108608Y-86297665D02*
G75*
G02*
X56265516Y-89530000I-1078608J-1672335D01*
G01*
X56109837Y-86928870D02*
G75*
G02*
X56110000Y-89010961I-1079837J-1041130D01*
G01*
X47130000Y-41050000D02*
X48160000Y-41050000D01*
X48160000Y-38390000D02*
X48160000Y-43710000D01*
X48160000Y-43710000D02*
X57780000Y-43710000D01*
X56295000Y-43710000D02*
X56295000Y-38390000D01*
X57780000Y-38390000D02*
X48160000Y-38390000D01*
X57780000Y-43710000D02*
X57780000Y-38390000D01*
X58810000Y-41050000D02*
X57780000Y-41050000D01*
X120020000Y-54840000D02*
X128140000Y-54840000D01*
X120020000Y-61205000D02*
X120020000Y-54840000D01*
X120020000Y-70960000D02*
X120020000Y-64595000D01*
X120020000Y-70960000D02*
X128140000Y-70960000D01*
X128140000Y-61205000D02*
X128140000Y-54840000D01*
X128140000Y-70960000D02*
X128140000Y-64595000D01*
X103040000Y-52250000D02*
X103040000Y-48650000D01*
X98590000Y-50450000D02*
G75*
G02*
X100091193Y-48093600I2600000J0D01*
G01*
X100091193Y-52806400D02*
G75*
G02*
X98590000Y-50450000I1098807J2356400D01*
G01*
X102312795Y-48125816D02*
G75*
G02*
X103040000Y-48650000I-1122795J-2324184D01*
G01*
X103040000Y-52250000D02*
G75*
G02*
X102312795Y-52774184I-1850000J1800000D01*
G01*
X106780000Y-39640000D02*
X106780000Y-43240000D01*
X106780000Y-39640000D02*
G75*
G02*
X107507205Y-39115816I1850000J-1800000D01*
G01*
X107507205Y-43764184D02*
G75*
G02*
X106780000Y-43240000I1122795J2324184D01*
G01*
X109728807Y-39083600D02*
G75*
G02*
X111230000Y-41440000I-1098807J-2356400D01*
G01*
X111230000Y-41440000D02*
G75*
G02*
X109728807Y-43796400I-2600000J0D01*
G01*
X111880000Y-39640000D02*
X111880000Y-43240000D01*
X111880000Y-39640000D02*
G75*
G02*
X112607205Y-39115816I1850000J-1800000D01*
G01*
X112607205Y-43764184D02*
G75*
G02*
X111880000Y-43240000I1122795J2324184D01*
G01*
X114828807Y-39083600D02*
G75*
G02*
X116330000Y-41440000I-1098807J-2356400D01*
G01*
X116330000Y-41440000D02*
G75*
G02*
X114828807Y-43796400I-2600000J0D01*
G01*
X79480000Y-81760000D02*
X80290000Y-81760000D01*
X80290000Y-80100000D02*
X80290000Y-83420000D01*
X80290000Y-83420000D02*
X89410000Y-83420000D01*
X89410000Y-80100000D02*
X80290000Y-80100000D01*
X89410000Y-83420000D02*
X89410000Y-80100000D01*
X90220000Y-81760000D02*
X89410000Y-81760000D01*
X65420000Y-70090000D02*
X65420000Y-79210000D01*
X65420000Y-79210000D02*
X68740000Y-79210000D01*
X67080000Y-69280000D02*
X67080000Y-70090000D01*
X67080000Y-80020000D02*
X67080000Y-79210000D01*
X68740000Y-70090000D02*
X65420000Y-70090000D01*
X68740000Y-79210000D02*
X68740000Y-70090000D01*
X69800000Y-70060000D02*
X69800000Y-79180000D01*
X69800000Y-79180000D02*
X73120000Y-79180000D01*
X71460000Y-69250000D02*
X71460000Y-70060000D01*
X71460000Y-79990000D02*
X71460000Y-79180000D01*
X73120000Y-70060000D02*
X69800000Y-70060000D01*
X73120000Y-79180000D02*
X73120000Y-70060000D01*
X45190000Y-47250000D02*
X45190000Y-56370000D01*
X45190000Y-56370000D02*
X48510000Y-56370000D01*
X46850000Y-46440000D02*
X46850000Y-47250000D01*
X46850000Y-57180000D02*
X46850000Y-56370000D01*
X48510000Y-47250000D02*
X45190000Y-47250000D01*
X48510000Y-56370000D02*
X48510000Y-47250000D01*
X53450000Y-70140000D02*
X53450000Y-79260000D01*
X53450000Y-79260000D02*
X56770000Y-79260000D01*
X55110000Y-69330000D02*
X55110000Y-70140000D01*
X55110000Y-80070000D02*
X55110000Y-79260000D01*
X56770000Y-70140000D02*
X53450000Y-70140000D01*
X56770000Y-79260000D02*
X56770000Y-70140000D01*
X63640000Y-58080000D02*
X64450000Y-58080000D01*
X64450000Y-56420000D02*
X64450000Y-59740000D01*
X64450000Y-59740000D02*
X73570000Y-59740000D01*
X73570000Y-56420000D02*
X64450000Y-56420000D01*
X73570000Y-59740000D02*
X73570000Y-56420000D01*
X74380000Y-58080000D02*
X73570000Y-58080000D01*
X92940000Y-38900000D02*
X93750000Y-38900000D01*
X93750000Y-37240000D02*
X93750000Y-40560000D01*
X93750000Y-40560000D02*
X102870000Y-40560000D01*
X102870000Y-37240000D02*
X93750000Y-37240000D01*
X102870000Y-40560000D02*
X102870000Y-37240000D01*
X103680000Y-38900000D02*
X102870000Y-38900000D01*
X92930000Y-43150000D02*
X93740000Y-43150000D01*
X93740000Y-41490000D02*
X93740000Y-44810000D01*
X93740000Y-44810000D02*
X102860000Y-44810000D01*
X102860000Y-41490000D02*
X93740000Y-41490000D01*
X102860000Y-44810000D02*
X102860000Y-41490000D01*
X103670000Y-43150000D02*
X102860000Y-43150000D01*
X63650000Y-62510000D02*
X64460000Y-62510000D01*
X64460000Y-60850000D02*
X64460000Y-64170000D01*
X64460000Y-64170000D02*
X73580000Y-64170000D01*
X73580000Y-60850000D02*
X64460000Y-60850000D01*
X73580000Y-64170000D02*
X73580000Y-60850000D01*
X74390000Y-62510000D02*
X73580000Y-62510000D01*
X80020000Y-51690000D02*
X80020000Y-61970000D01*
X80020000Y-61970000D02*
X84520000Y-61970000D01*
X81270000Y-51690000D02*
X80020000Y-51690000D01*
X84520000Y-51690000D02*
X83270000Y-51690000D01*
X84520000Y-61970000D02*
X84520000Y-51690000D01*
X83270000Y-51690000D02*
G75*
G02*
X81270000Y-51690000I-1000000J0D01*
G01*
X48940000Y-64240000D02*
X48940000Y-73360000D01*
X48940000Y-73360000D02*
X52260000Y-73360000D01*
X50600000Y-63430000D02*
X50600000Y-64240000D01*
X50600000Y-74170000D02*
X50600000Y-73360000D01*
X52260000Y-64240000D02*
X48940000Y-64240000D01*
X52260000Y-73360000D02*
X52260000Y-64240000D01*
X49170000Y-47890000D02*
X49170000Y-53210000D01*
X49170000Y-52370000D02*
X51990000Y-52370000D01*
X49170000Y-53210000D02*
X51990000Y-53210000D01*
X50580000Y-46750000D02*
X50580000Y-47890000D01*
X50580000Y-54350000D02*
X50580000Y-53210000D01*
X51990000Y-47890000D02*
X49170000Y-47890000D01*
X51990000Y-53210000D02*
X51990000Y-47890000D01*
X52660000Y-50880000D02*
X52660000Y-55521000D01*
X52660000Y-50880000D02*
X62900000Y-50880000D01*
X52660000Y-52390000D02*
X62900000Y-52390000D01*
X52660000Y-55521000D02*
X62900000Y-55521000D01*
X55930000Y-50880000D02*
X55930000Y-52390000D01*
X59631000Y-50880000D02*
X59631000Y-52390000D01*
X62900000Y-50880000D02*
X62900000Y-55521000D01*
X80060000Y-66950000D02*
X80060000Y-77230000D01*
X80060000Y-77230000D02*
X84560000Y-77230000D01*
X81310000Y-66950000D02*
X80060000Y-66950000D01*
X84560000Y-66950000D02*
X83310000Y-66950000D01*
X84560000Y-77230000D02*
X84560000Y-66950000D01*
X83310000Y-66950000D02*
G75*
G02*
X81310000Y-66950000I-1000000J0D01*
G01*
X93700000Y-80564000D02*
X93700000Y-80720000D01*
X93700000Y-82880000D02*
X93700000Y-83036000D01*
X93700000Y-80564484D02*
G75*
G02*
X96932335Y-80721392I1560000J-1235516D01*
G01*
X94219039Y-80720000D02*
G75*
G02*
X96301130Y-80720163I1040961J-1080000D01*
G01*
X96301130Y-82879837D02*
G75*
G02*
X94219039Y-82880000I-1041130J1079837D01*
G01*
X96932335Y-82878608D02*
G75*
G02*
X93700000Y-83035516I-1672335J1078608D01*
G01*
X124010000Y-39450000D02*
X124010000Y-49070000D01*
X124010000Y-47585000D02*
X129330000Y-47585000D01*
X124010000Y-49070000D02*
X129330000Y-49070000D01*
X126670000Y-38420000D02*
X126670000Y-39450000D01*
X126670000Y-50100000D02*
X126670000Y-49070000D01*
X129330000Y-39450000D02*
X124010000Y-39450000D01*
X129330000Y-49070000D02*
X129330000Y-39450000D01*
X96850000Y-85590000D02*
X96850000Y-85434000D01*
X96850000Y-87906000D02*
X96850000Y-87750000D01*
X93617665Y-85591392D02*
G75*
G02*
X96850000Y-85434484I1672335J-1078608D01*
G01*
X94248870Y-85590163D02*
G75*
G02*
X96330961Y-85590000I1041130J-1079837D01*
G01*
X96330961Y-87750000D02*
G75*
G02*
X94248870Y-87749837I-1040961J1080000D01*
G01*
X96850000Y-87905516D02*
G75*
G02*
X93617665Y-87748608I-1560000J1235516D01*
G01*
X79450000Y-85800000D02*
X80260000Y-85800000D01*
X80260000Y-84140000D02*
X80260000Y-87460000D01*
X80260000Y-87460000D02*
X89380000Y-87460000D01*
X89380000Y-84140000D02*
X80260000Y-84140000D01*
X89380000Y-87460000D02*
X89380000Y-84140000D01*
X90190000Y-85800000D02*
X89380000Y-85800000D01*
X107360000Y-81740000D02*
X107360000Y-91360000D01*
X107360000Y-91360000D02*
X112680000Y-91360000D01*
X110020000Y-80710000D02*
X110020000Y-81740000D01*
X110020000Y-92390000D02*
X110020000Y-91360000D01*
X112680000Y-81740000D02*
X107360000Y-81740000D01*
X112680000Y-83225000D02*
X107360000Y-83225000D01*
X112680000Y-91360000D02*
X112680000Y-81740000D01*
X100610000Y-81740000D02*
X100610000Y-91360000D01*
X100610000Y-91360000D02*
X105930000Y-91360000D01*
X103270000Y-80710000D02*
X103270000Y-81740000D01*
X103270000Y-92390000D02*
X103270000Y-91360000D01*
X105930000Y-81740000D02*
X100610000Y-81740000D01*
X105930000Y-83225000D02*
X100610000Y-83225000D01*
X105930000Y-91360000D02*
X105930000Y-81740000D01*
X90150000Y-66410000D02*
X90150000Y-75530000D01*
X90150000Y-75530000D02*
X93470000Y-75530000D01*
X91810000Y-65600000D02*
X91810000Y-66410000D01*
X91810000Y-76340000D02*
X91810000Y-75530000D01*
X93470000Y-66410000D02*
X90150000Y-66410000D01*
X93470000Y-75530000D02*
X93470000Y-66410000D01*
X118060000Y-39450000D02*
X118060000Y-49070000D01*
X118060000Y-47585000D02*
X123380000Y-47585000D01*
X118060000Y-49070000D02*
X123380000Y-49070000D01*
X120720000Y-38420000D02*
X120720000Y-39450000D01*
X120720000Y-50100000D02*
X120720000Y-49070000D01*
X123380000Y-39450000D02*
X118060000Y-39450000D01*
X123380000Y-49070000D02*
X123380000Y-39450000D01*
X47130000Y-34730000D02*
X48160000Y-34730000D01*
X48160000Y-32070000D02*
X48160000Y-37390000D01*
X48160000Y-37390000D02*
X57780000Y-37390000D01*
X56295000Y-37390000D02*
X56295000Y-32070000D01*
X57780000Y-32070000D02*
X48160000Y-32070000D01*
X57780000Y-37390000D02*
X57780000Y-32070000D01*
X58810000Y-34730000D02*
X57780000Y-34730000D01*
D10*
X37260000Y-45890000D02*
X37260000Y-56050000D01*
X37260000Y-45890000D02*
X44880000Y-45890000D01*
X37260000Y-56050000D02*
X44880000Y-56050000D01*
X44880000Y-56050000D02*
X44880000Y-45890000D01*
X126070000Y-73020000D02*
X126070000Y-83180000D01*
X133690000Y-73020000D02*
X126070000Y-73020000D01*
X133690000Y-83180000D02*
X126070000Y-83180000D01*
X133690000Y-83180000D02*
X133690000Y-73020000D01*
D11*
X77260000Y-44580000D02*
X77260000Y-49100000D01*
X77260000Y-44580000D02*
X84880000Y-44580000D01*
X77260000Y-49100000D02*
X84880000Y-49100000D01*
X84880000Y-44580000D02*
X84880000Y-49100000D01*
X42226000Y-40950000D02*
G75*
G02*
X37654000Y-40950000I-2286000J0D01*
G01*
X37654000Y-40950000D02*
G75*
G02*
X42226000Y-40950000I2286000J0D01*
G01*
X44836000Y-65030000D02*
G75*
G02*
X40264000Y-65030000I-2286000J0D01*
G01*
X40264000Y-65030000D02*
G75*
G02*
X44836000Y-65030000I2286000J0D01*
G01*
X133196000Y-87030000D02*
G75*
G02*
X128624000Y-87030000I-2286000J0D01*
G01*
X128624000Y-87030000D02*
G75*
G02*
X133196000Y-87030000I2286000J0D01*
G01*
X125076000Y-78440000D02*
G75*
G02*
X120504000Y-78440000I-2286000J0D01*
G01*
X120504000Y-78440000D02*
G75*
G02*
X125076000Y-78440000I2286000J0D01*
G01*
X94680000Y-66420000D02*
X94680000Y-75540000D01*
X94680000Y-75540000D02*
X98000000Y-75540000D01*
X96340000Y-65610000D02*
X96340000Y-66420000D01*
X96340000Y-76350000D02*
X96340000Y-75540000D01*
X98000000Y-66420000D02*
X94680000Y-66420000D01*
X98000000Y-75540000D02*
X98000000Y-66420000D01*
X90160000Y-49690000D02*
X90160000Y-58810000D01*
X90160000Y-58810000D02*
X93480000Y-58810000D01*
X91820000Y-48880000D02*
X91820000Y-49690000D01*
X91820000Y-59620000D02*
X91820000Y-58810000D01*
X93480000Y-49690000D02*
X90160000Y-49690000D01*
X93480000Y-58810000D02*
X93480000Y-49690000D01*
X94700000Y-49690000D02*
X94700000Y-58810000D01*
X94700000Y-58810000D02*
X98020000Y-58810000D01*
X96360000Y-48880000D02*
X96360000Y-49690000D01*
X96360000Y-59620000D02*
X96360000Y-58810000D01*
X98020000Y-49690000D02*
X94700000Y-49690000D01*
X98020000Y-58810000D02*
X98020000Y-49690000D01*
X60980000Y-70070000D02*
X60980000Y-79190000D01*
X60980000Y-79190000D02*
X64300000Y-79190000D01*
X62640000Y-69260000D02*
X62640000Y-70070000D01*
X62640000Y-80000000D02*
X62640000Y-79190000D01*
X64300000Y-70070000D02*
X60980000Y-70070000D01*
X64300000Y-79190000D02*
X64300000Y-70070000D01*
X68470000Y-37091000D02*
X63649000Y-37091000D01*
X68470000Y-37131000D02*
X63657000Y-37131000D01*
X68470000Y-37171000D02*
X63664000Y-37171000D01*
X68470000Y-37211000D02*
X63672000Y-37211000D01*
X68470000Y-37251000D02*
X63680000Y-37251000D01*
X68470000Y-37291000D02*
X63688000Y-37291000D01*
X68470000Y-37331000D02*
X63697000Y-37331000D01*
X68470000Y-37371000D02*
X63706000Y-37371000D01*
X68470000Y-37411000D02*
X63715000Y-37411000D01*
X68470000Y-37451000D02*
X63725000Y-37451000D01*
X68470000Y-37491000D02*
X63734000Y-37491000D01*
X68470000Y-37531000D02*
X63744000Y-37531000D01*
X68470000Y-37571000D02*
X63755000Y-37571000D01*
X68470000Y-37611000D02*
X63765000Y-37611000D01*
X68470000Y-37651000D02*
X63776000Y-37651000D01*
X68470000Y-37691000D02*
X63787000Y-37691000D01*
X68470000Y-37731000D02*
X63799000Y-37731000D01*
X68470000Y-37771000D02*
X63810000Y-37771000D01*
X68470000Y-37811000D02*
X63822000Y-37811000D01*
X68470000Y-37851000D02*
X63835000Y-37851000D01*
X68470000Y-37891000D02*
X63847000Y-37891000D01*
X68470000Y-37931000D02*
X63860000Y-37931000D01*
X68470000Y-37971000D02*
X63873000Y-37971000D01*
X68470000Y-38011000D02*
X63887000Y-38011000D01*
X68470000Y-38051000D02*
X63900000Y-38051000D01*
X68470000Y-38091000D02*
X63914000Y-38091000D01*
X68470000Y-38131000D02*
X63929000Y-38131000D01*
X68470000Y-38171000D02*
X63943000Y-38171000D01*
X68470000Y-38211000D02*
X63958000Y-38211000D01*
X68470000Y-38251000D02*
X63974000Y-38251000D01*
X68470000Y-38291000D02*
X63989000Y-38291000D01*
X68470000Y-38331000D02*
X64005000Y-38331000D01*
X68470000Y-38371000D02*
X64021000Y-38371000D01*
X68470000Y-38411000D02*
X64038000Y-38411000D01*
X68470000Y-38451000D02*
X64055000Y-38451000D01*
X68470000Y-38491000D02*
X64072000Y-38491000D01*
X68470000Y-38531000D02*
X64089000Y-38531000D01*
X68470000Y-38571000D02*
X64107000Y-38571000D01*
X68470000Y-38611000D02*
X64125000Y-38611000D01*
X68470000Y-38651000D02*
X64144000Y-38651000D01*
X68470000Y-38691000D02*
X64163000Y-38691000D01*
X68470000Y-38731000D02*
X64182000Y-38731000D01*
X68470000Y-38771000D02*
X64201000Y-38771000D01*
X68470000Y-38811000D02*
X64221000Y-38811000D01*
X68470000Y-38851000D02*
X64241000Y-38851000D01*
X68470000Y-38891000D02*
X64262000Y-38891000D01*
X68470000Y-38931000D02*
X64283000Y-38931000D01*
X68470000Y-38971000D02*
X64304000Y-38971000D01*
X68470000Y-39011000D02*
X64326000Y-39011000D01*
X68470000Y-39051000D02*
X64348000Y-39051000D01*
X68470000Y-39091000D02*
X64370000Y-39091000D01*
X68470000Y-39131000D02*
X64393000Y-39131000D01*
X68470000Y-39171000D02*
X64416000Y-39171000D01*
X68470000Y-39211000D02*
X64440000Y-39211000D01*
X68470000Y-39251000D02*
X64464000Y-39251000D01*
X68470000Y-39291000D02*
X64488000Y-39291000D01*
X68470000Y-39331000D02*
X64513000Y-39331000D01*
X68470000Y-39371000D02*
X64538000Y-39371000D01*
X68470000Y-39411000D02*
X64564000Y-39411000D01*
X68470000Y-39451000D02*
X64590000Y-39451000D01*
X68470000Y-39491000D02*
X64616000Y-39491000D01*
X68470000Y-39531000D02*
X64643000Y-39531000D01*
X68470000Y-39571000D02*
X64671000Y-39571000D01*
X68470000Y-39611000D02*
X64699000Y-39611000D01*
X68470000Y-39651000D02*
X64727000Y-39651000D01*
X68470000Y-39691000D02*
X64756000Y-39691000D01*
X68470000Y-39731000D02*
X64785000Y-39731000D01*
X68470000Y-39771000D02*
X64815000Y-39771000D01*
X68470000Y-39811000D02*
X64845000Y-39811000D01*
X69850000Y-30270000D02*
X69850000Y-32070000D01*
X70314000Y-42291000D02*
X69386000Y-42291000D01*
X70681000Y-42251000D02*
X69019000Y-42251000D01*
X70750000Y-31170000D02*
X68950000Y-31170000D01*
X70932000Y-42211000D02*
X68768000Y-42211000D01*
X71135000Y-42171000D02*
X68565000Y-42171000D01*
X71310000Y-42131000D02*
X68390000Y-42131000D01*
X71466000Y-42091000D02*
X68234000Y-42091000D01*
X71607000Y-42051000D02*
X68093000Y-42051000D01*
X71738000Y-42011000D02*
X67962000Y-42011000D01*
X71859000Y-41971000D02*
X67841000Y-41971000D01*
X71972000Y-41931000D02*
X67728000Y-41931000D01*
X72080000Y-41891000D02*
X67620000Y-41891000D01*
X72181000Y-41851000D02*
X67519000Y-41851000D01*
X72278000Y-41811000D02*
X67422000Y-41811000D01*
X72371000Y-41771000D02*
X67329000Y-41771000D01*
X72460000Y-41731000D02*
X67240000Y-41731000D01*
X72545000Y-41691000D02*
X67155000Y-41691000D01*
X72627000Y-41651000D02*
X67073000Y-41651000D01*
X72706000Y-41611000D02*
X66994000Y-41611000D01*
X72783000Y-41571000D02*
X66917000Y-41571000D01*
X72857000Y-41531000D02*
X66843000Y-41531000D01*
X72929000Y-41491000D02*
X66771000Y-41491000D01*
X72999000Y-41451000D02*
X66701000Y-41451000D01*
X73067000Y-41411000D02*
X66633000Y-41411000D01*
X73132000Y-41371000D02*
X66568000Y-41371000D01*
X73197000Y-41331000D02*
X66503000Y-41331000D01*
X73259000Y-41291000D02*
X66441000Y-41291000D01*
X73320000Y-41251000D02*
X66380000Y-41251000D01*
X73380000Y-41211000D02*
X66320000Y-41211000D01*
X73438000Y-41171000D02*
X66262000Y-41171000D01*
X73494000Y-41131000D02*
X66206000Y-41131000D01*
X73550000Y-41091000D02*
X66150000Y-41091000D01*
X73604000Y-41051000D02*
X66096000Y-41051000D01*
X73657000Y-41011000D02*
X66043000Y-41011000D01*
X73709000Y-40971000D02*
X65991000Y-40971000D01*
X73759000Y-40931000D02*
X65941000Y-40931000D01*
X73809000Y-40891000D02*
X65891000Y-40891000D01*
X73858000Y-40851000D02*
X65842000Y-40851000D01*
X73906000Y-40811000D02*
X65794000Y-40811000D01*
X73952000Y-40771000D02*
X65748000Y-40771000D01*
X73998000Y-40731000D02*
X65702000Y-40731000D01*
X74043000Y-40691000D02*
X65657000Y-40691000D01*
X74088000Y-40651000D02*
X65612000Y-40651000D01*
X74131000Y-40611000D02*
X65569000Y-40611000D01*
X74173000Y-40571000D02*
X65527000Y-40571000D01*
X74215000Y-40531000D02*
X65485000Y-40531000D01*
X74256000Y-40491000D02*
X65444000Y-40491000D01*
X74297000Y-40451000D02*
X65403000Y-40451000D01*
X74336000Y-40411000D02*
X65364000Y-40411000D01*
X74375000Y-40371000D02*
X65325000Y-40371000D01*
X74413000Y-40331000D02*
X65287000Y-40331000D01*
X74451000Y-40291000D02*
X65249000Y-40291000D01*
X74488000Y-40251000D02*
X65212000Y-40251000D01*
X74524000Y-40211000D02*
X65176000Y-40211000D01*
X74560000Y-40171000D02*
X65140000Y-40171000D01*
X74595000Y-40131000D02*
X65105000Y-40131000D01*
X74629000Y-40091000D02*
X65071000Y-40091000D01*
X74663000Y-40051000D02*
X65037000Y-40051000D01*
X74697000Y-40011000D02*
X65003000Y-40011000D01*
X74729000Y-39971000D02*
X64971000Y-39971000D01*
X74762000Y-39931000D02*
X64938000Y-39931000D01*
X74793000Y-39891000D02*
X64907000Y-39891000D01*
X74825000Y-39851000D02*
X64875000Y-39851000D01*
X74855000Y-39811000D02*
X71230000Y-39811000D01*
X74885000Y-39771000D02*
X71230000Y-39771000D01*
X74915000Y-39731000D02*
X71230000Y-39731000D01*
X74944000Y-39691000D02*
X71230000Y-39691000D01*
X74973000Y-39651000D02*
X71230000Y-39651000D01*
X75001000Y-39611000D02*
X71230000Y-39611000D01*
X75029000Y-39571000D02*
X71230000Y-39571000D01*
X75057000Y-39531000D02*
X71230000Y-39531000D01*
X75084000Y-39491000D02*
X71230000Y-39491000D01*
X75110000Y-39451000D02*
X71230000Y-39451000D01*
X75136000Y-39411000D02*
X71230000Y-39411000D01*
X75162000Y-39371000D02*
X71230000Y-39371000D01*
X75187000Y-39331000D02*
X71230000Y-39331000D01*
X75212000Y-39291000D02*
X71230000Y-39291000D01*
X75236000Y-39251000D02*
X71230000Y-39251000D01*
X75260000Y-39211000D02*
X71230000Y-39211000D01*
X75284000Y-39171000D02*
X71230000Y-39171000D01*
X75307000Y-39131000D02*
X71230000Y-39131000D01*
X75330000Y-39091000D02*
X71230000Y-39091000D01*
X75352000Y-39051000D02*
X71230000Y-39051000D01*
X75374000Y-39011000D02*
X71230000Y-39011000D01*
X75396000Y-38971000D02*
X71230000Y-38971000D01*
X75417000Y-38931000D02*
X71230000Y-38931000D01*
X75438000Y-38891000D02*
X71230000Y-38891000D01*
X75459000Y-38851000D02*
X71230000Y-38851000D01*
X75479000Y-38811000D02*
X71230000Y-38811000D01*
X75499000Y-38771000D02*
X71230000Y-38771000D01*
X75518000Y-38731000D02*
X71230000Y-38731000D01*
X75537000Y-38691000D02*
X71230000Y-38691000D01*
X75556000Y-38651000D02*
X71230000Y-38651000D01*
X75575000Y-38611000D02*
X71230000Y-38611000D01*
X75593000Y-38571000D02*
X71230000Y-38571000D01*
X75611000Y-38531000D02*
X71230000Y-38531000D01*
X75628000Y-38491000D02*
X71230000Y-38491000D01*
X75645000Y-38451000D02*
X71230000Y-38451000D01*
X75662000Y-38411000D02*
X71230000Y-38411000D01*
X75679000Y-38371000D02*
X71230000Y-38371000D01*
X75695000Y-38331000D02*
X71230000Y-38331000D01*
X75711000Y-38291000D02*
X71230000Y-38291000D01*
X75726000Y-38251000D02*
X71230000Y-38251000D01*
X75742000Y-38211000D02*
X71230000Y-38211000D01*
X75757000Y-38171000D02*
X71230000Y-38171000D01*
X75771000Y-38131000D02*
X71230000Y-38131000D01*
X75786000Y-38091000D02*
X71230000Y-38091000D01*
X75800000Y-38051000D02*
X71230000Y-38051000D01*
X75813000Y-38011000D02*
X71230000Y-38011000D01*
X75827000Y-37971000D02*
X71230000Y-37971000D01*
X75840000Y-37931000D02*
X71230000Y-37931000D01*
X75853000Y-37891000D02*
X71230000Y-37891000D01*
X75865000Y-37851000D02*
X71230000Y-37851000D01*
X75878000Y-37811000D02*
X71230000Y-37811000D01*
X75890000Y-37771000D02*
X71230000Y-37771000D01*
X75901000Y-37731000D02*
X71230000Y-37731000D01*
X75913000Y-37691000D02*
X71230000Y-37691000D01*
X75924000Y-37651000D02*
X71230000Y-37651000D01*
X75935000Y-37611000D02*
X71230000Y-37611000D01*
X75945000Y-37571000D02*
X71230000Y-37571000D01*
X75956000Y-37531000D02*
X71230000Y-37531000D01*
X75966000Y-37491000D02*
X71230000Y-37491000D01*
X75975000Y-37451000D02*
X71230000Y-37451000D01*
X75985000Y-37411000D02*
X71230000Y-37411000D01*
X75994000Y-37371000D02*
X71230000Y-37371000D01*
X76003000Y-37331000D02*
X71230000Y-37331000D01*
X76012000Y-37291000D02*
X71230000Y-37291000D01*
X76020000Y-37251000D02*
X71230000Y-37251000D01*
X76028000Y-37211000D02*
X71230000Y-37211000D01*
X76036000Y-37171000D02*
X71230000Y-37171000D01*
X76043000Y-37131000D02*
X71230000Y-37131000D01*
X76051000Y-37091000D02*
X71230000Y-37091000D01*
X76058000Y-37051000D02*
X63642000Y-37051000D01*
X76065000Y-37011000D02*
X63635000Y-37011000D01*
X76071000Y-36971000D02*
X63629000Y-36971000D01*
X76077000Y-36931000D02*
X63623000Y-36931000D01*
X76083000Y-36891000D02*
X63617000Y-36891000D01*
X76089000Y-36851000D02*
X63611000Y-36851000D01*
X76095000Y-36811000D02*
X63605000Y-36811000D01*
X76100000Y-36771000D02*
X63600000Y-36771000D01*
X76105000Y-36731000D02*
X63595000Y-36731000D01*
X76109000Y-36691000D02*
X63591000Y-36691000D01*
X76114000Y-36650000D02*
X63586000Y-36650000D01*
X76118000Y-36610000D02*
X63582000Y-36610000D01*
X76122000Y-36570000D02*
X63578000Y-36570000D01*
X76126000Y-36530000D02*
X63574000Y-36530000D01*
X76129000Y-36490000D02*
X63571000Y-36490000D01*
X76132000Y-36450000D02*
X63568000Y-36450000D01*
X76135000Y-36410000D02*
X63565000Y-36410000D01*
X76138000Y-36370000D02*
X63562000Y-36370000D01*
X76140000Y-36330000D02*
X63560000Y-36330000D01*
X76142000Y-36290000D02*
X63558000Y-36290000D01*
X76144000Y-36250000D02*
X63556000Y-36250000D01*
X76146000Y-36210000D02*
X63554000Y-36210000D01*
X76147000Y-36170000D02*
X63553000Y-36170000D01*
X76148000Y-36130000D02*
X63552000Y-36130000D01*
X76149000Y-36090000D02*
X63551000Y-36090000D01*
X76150000Y-35970000D02*
X63550000Y-35970000D01*
X76150000Y-36010000D02*
X63550000Y-36010000D01*
X76150000Y-36050000D02*
X63550000Y-36050000D01*
X76190000Y-35970000D02*
G75*
G02*
X63510000Y-35970000I-6340000J0D01*
G01*
X63510000Y-35970000D02*
G75*
G02*
X76190000Y-35970000I6340000J0D01*
G01*
X129848000Y-38936000D02*
X129848000Y-44376000D01*
X129848000Y-43356000D02*
X132788000Y-43356000D01*
X129848000Y-43476000D02*
X132788000Y-43476000D01*
X129848000Y-43596000D02*
X132788000Y-43596000D01*
X129848000Y-44376000D02*
X132788000Y-44376000D01*
X131318000Y-37916000D02*
X131318000Y-38936000D01*
X131318000Y-45396000D02*
X131318000Y-44376000D01*
X132788000Y-38936000D02*
X129848000Y-38936000D01*
X132788000Y-44376000D02*
X132788000Y-38936000D01*
X78827000Y-95980000D02*
X78827000Y-91339000D01*
X82096000Y-95980000D02*
X82096000Y-94470000D01*
X85797000Y-95980000D02*
X85797000Y-94470000D01*
X89067000Y-91339000D02*
X78827000Y-91339000D01*
X89067000Y-94470000D02*
X78827000Y-94470000D01*
X89067000Y-95980000D02*
X78827000Y-95980000D01*
X89067000Y-95980000D02*
X89067000Y-91339000D01*
X104735000Y-30258000D02*
X104735000Y-34899000D01*
X104735000Y-30258000D02*
X114975000Y-30258000D01*
X104735000Y-31768000D02*
X114975000Y-31768000D01*
X104735000Y-34899000D02*
X114975000Y-34899000D01*
X108005000Y-30258000D02*
X108005000Y-31768000D01*
X111706000Y-30258000D02*
X111706000Y-31768000D01*
X114975000Y-30258000D02*
X114975000Y-34899000D01*
X42930000Y-83680000D02*
X42930000Y-88180000D01*
X45430000Y-89430000D02*
X46930000Y-89430000D01*
X46930000Y-82430000D02*
X45430000Y-82430000D01*
X49430000Y-88180000D02*
X49430000Y-83680000D01*
X79775200Y-39039800D02*
X80795200Y-39039800D01*
X80795200Y-37569800D02*
X80795200Y-40509800D01*
X80795200Y-40509800D02*
X86235200Y-40509800D01*
X85215200Y-40509800D02*
X85215200Y-37569800D01*
X85335200Y-40509800D02*
X85335200Y-37569800D01*
X85455200Y-40509800D02*
X85455200Y-37569800D01*
X86235200Y-37569800D02*
X80795200Y-37569800D01*
X86235200Y-40509800D02*
X86235200Y-37569800D01*
X87255200Y-39039800D02*
X86235200Y-39039800D01*
M02*
