%TF.GenerationSoftware,KiCad,Pcbnew,(5.1.9)-1*%
%TF.CreationDate,2021-05-08T14:13:50+09:00*%
%TF.ProjectId,12f683MPPT,31326636-3833-44d5-9050-542e6b696361,rev?*%
%TF.SameCoordinates,Original*%
%TF.FileFunction,Soldermask,Bot*%
%TF.FilePolarity,Negative*%
%FSLAX46Y46*%
G04 Gerber Fmt 4.6, Leading zero omitted, Abs format (unit mm)*
G04 Created by KiCad (PCBNEW (5.1.9)-1) date 2021-05-08 14:13:50*
%MOMM*%
%LPD*%
G01*
G04 APERTURE LIST*
%ADD10C,6.502000*%
%ADD11C,2.102000*%
%ADD12O,3.302000X3.302000*%
%ADD13C,2.502000*%
%ADD14C,1.702000*%
%ADD15O,2.302000X2.302000*%
%ADD16C,1.902000*%
%ADD17C,3.102000*%
%ADD18C,1.622000*%
%ADD19O,1.702000X1.702000*%
%ADD20O,1.902000X1.902000*%
%ADD21O,2.502000X1.702000*%
%ADD22C,4.166000*%
%ADD23O,2.007000X2.102000*%
G04 APERTURE END LIST*
D10*
X39903400Y-30251400D03*
X40055800Y-95199200D03*
X130606800Y-95275400D03*
X130657600Y-30480000D03*
D11*
X131150000Y-75560000D03*
X131150000Y-80640000D03*
X39800000Y-48430000D03*
X39800000Y-53510000D03*
G36*
G01*
X62241000Y-33130000D02*
X62241000Y-36330000D01*
G75*
G02*
X62190000Y-36381000I-51000J0D01*
G01*
X58990000Y-36381000D01*
G75*
G02*
X58939000Y-36330000I0J51000D01*
G01*
X58939000Y-33130000D01*
G75*
G02*
X58990000Y-33079000I51000J0D01*
G01*
X62190000Y-33079000D01*
G75*
G02*
X62241000Y-33130000I0J-51000D01*
G01*
G37*
D12*
X45350000Y-34730000D03*
X126670000Y-36640000D03*
G36*
G01*
X128270000Y-53531000D02*
X125070000Y-53531000D01*
G75*
G02*
X125019000Y-53480000I0J51000D01*
G01*
X125019000Y-50280000D01*
G75*
G02*
X125070000Y-50229000I51000J0D01*
G01*
X128270000Y-50229000D01*
G75*
G02*
X128321000Y-50280000I0J-51000D01*
G01*
X128321000Y-53480000D01*
G75*
G02*
X128270000Y-53531000I-51000J0D01*
G01*
G37*
G36*
G01*
X108420000Y-77279000D02*
X111620000Y-77279000D01*
G75*
G02*
X111671000Y-77330000I0J-51000D01*
G01*
X111671000Y-80530000D01*
G75*
G02*
X111620000Y-80581000I-51000J0D01*
G01*
X108420000Y-80581000D01*
G75*
G02*
X108369000Y-80530000I0J51000D01*
G01*
X108369000Y-77330000D01*
G75*
G02*
X108420000Y-77279000I51000J0D01*
G01*
G37*
X110020000Y-94170000D03*
G36*
G01*
X119340000Y-86279000D02*
X121740000Y-86279000D01*
G75*
G02*
X121791000Y-86330000I0J-51000D01*
G01*
X121791000Y-88730000D01*
G75*
G02*
X121740000Y-88781000I-51000J0D01*
G01*
X119340000Y-88781000D01*
G75*
G02*
X119289000Y-88730000I0J51000D01*
G01*
X119289000Y-86330000D01*
G75*
G02*
X119340000Y-86279000I51000J0D01*
G01*
G37*
D13*
X120540000Y-92530000D03*
X112400000Y-53090000D03*
G36*
G01*
X106149000Y-54290000D02*
X106149000Y-51890000D01*
G75*
G02*
X106200000Y-51839000I51000J0D01*
G01*
X108600000Y-51839000D01*
G75*
G02*
X108651000Y-51890000I0J-51000D01*
G01*
X108651000Y-54290000D01*
G75*
G02*
X108600000Y-54341000I-51000J0D01*
G01*
X106200000Y-54341000D01*
G75*
G02*
X106149000Y-54290000I0J51000D01*
G01*
G37*
X69830000Y-46940000D03*
G36*
G01*
X71030000Y-53191000D02*
X68630000Y-53191000D01*
G75*
G02*
X68579000Y-53140000I0J51000D01*
G01*
X68579000Y-50740000D01*
G75*
G02*
X68630000Y-50689000I51000J0D01*
G01*
X71030000Y-50689000D01*
G75*
G02*
X71081000Y-50740000I0J-51000D01*
G01*
X71081000Y-53140000D01*
G75*
G02*
X71030000Y-53191000I-51000J0D01*
G01*
G37*
D14*
X83570000Y-46840000D03*
X78570000Y-46840000D03*
G36*
G01*
X106900000Y-70691000D02*
X104500000Y-70691000D01*
G75*
G02*
X104449000Y-70640000I0J51000D01*
G01*
X104449000Y-68240000D01*
G75*
G02*
X104500000Y-68189000I51000J0D01*
G01*
X106900000Y-68189000D01*
G75*
G02*
X106951000Y-68240000I0J-51000D01*
G01*
X106951000Y-70640000D01*
G75*
G02*
X106900000Y-70691000I-51000J0D01*
G01*
G37*
D13*
X105700000Y-64440000D03*
X69850000Y-38470000D03*
G36*
G01*
X68650000Y-32219000D02*
X71050000Y-32219000D01*
G75*
G02*
X71101000Y-32270000I0J-51000D01*
G01*
X71101000Y-34670000D01*
G75*
G02*
X71050000Y-34721000I-51000J0D01*
G01*
X68650000Y-34721000D01*
G75*
G02*
X68599000Y-34670000I0J51000D01*
G01*
X68599000Y-32270000D01*
G75*
G02*
X68650000Y-32219000I51000J0D01*
G01*
G37*
G36*
G01*
X122320000Y-53531000D02*
X119120000Y-53531000D01*
G75*
G02*
X119069000Y-53480000I0J51000D01*
G01*
X119069000Y-50280000D01*
G75*
G02*
X119120000Y-50229000I51000J0D01*
G01*
X122320000Y-50229000D01*
G75*
G02*
X122371000Y-50280000I0J-51000D01*
G01*
X122371000Y-53480000D01*
G75*
G02*
X122320000Y-53531000I-51000J0D01*
G01*
G37*
D12*
X120720000Y-36640000D03*
X103270000Y-94170000D03*
G36*
G01*
X101670000Y-77279000D02*
X104870000Y-77279000D01*
G75*
G02*
X104921000Y-77330000I0J-51000D01*
G01*
X104921000Y-80530000D01*
G75*
G02*
X104870000Y-80581000I-51000J0D01*
G01*
X101670000Y-80581000D01*
G75*
G02*
X101619000Y-80530000I0J51000D01*
G01*
X101619000Y-77330000D01*
G75*
G02*
X101670000Y-77279000I51000J0D01*
G01*
G37*
G36*
G01*
X89801000Y-37700000D02*
X89801000Y-39900000D01*
G75*
G02*
X89750000Y-39951000I-51000J0D01*
G01*
X87550000Y-39951000D01*
G75*
G02*
X87499000Y-39900000I0J51000D01*
G01*
X87499000Y-37700000D01*
G75*
G02*
X87550000Y-37649000I51000J0D01*
G01*
X89750000Y-37649000D01*
G75*
G02*
X89801000Y-37700000I0J-51000D01*
G01*
G37*
D15*
X78490000Y-38800000D03*
D16*
X55030000Y-86700000D03*
G36*
G01*
X55930000Y-90191000D02*
X54130000Y-90191000D01*
G75*
G02*
X54079000Y-90140000I0J51000D01*
G01*
X54079000Y-88340000D01*
G75*
G02*
X54130000Y-88289000I51000J0D01*
G01*
X55930000Y-88289000D01*
G75*
G02*
X55981000Y-88340000I0J-51000D01*
G01*
X55981000Y-90140000D01*
G75*
G02*
X55930000Y-90191000I-51000J0D01*
G01*
G37*
D15*
X50580000Y-45470000D03*
G36*
G01*
X51680000Y-56781000D02*
X49480000Y-56781000D01*
G75*
G02*
X49429000Y-56730000I0J51000D01*
G01*
X49429000Y-54530000D01*
G75*
G02*
X49480000Y-54479000I51000J0D01*
G01*
X51680000Y-54479000D01*
G75*
G02*
X51731000Y-54530000I0J-51000D01*
G01*
X51731000Y-56730000D01*
G75*
G02*
X51680000Y-56781000I-51000J0D01*
G01*
G37*
D12*
X45350000Y-41050000D03*
G36*
G01*
X62241000Y-39450000D02*
X62241000Y-42650000D01*
G75*
G02*
X62190000Y-42701000I-51000J0D01*
G01*
X58990000Y-42701000D01*
G75*
G02*
X58939000Y-42650000I0J51000D01*
G01*
X58939000Y-39450000D01*
G75*
G02*
X58990000Y-39399000I51000J0D01*
G01*
X62190000Y-39399000D01*
G75*
G02*
X62241000Y-39450000I0J-51000D01*
G01*
G37*
G36*
G01*
X93039000Y-82700000D02*
X93039000Y-80900000D01*
G75*
G02*
X93090000Y-80849000I51000J0D01*
G01*
X94890000Y-80849000D01*
G75*
G02*
X94941000Y-80900000I0J-51000D01*
G01*
X94941000Y-82700000D01*
G75*
G02*
X94890000Y-82751000I-51000J0D01*
G01*
X93090000Y-82751000D01*
G75*
G02*
X93039000Y-82700000I0J51000D01*
G01*
G37*
D16*
X96530000Y-81800000D03*
X94020000Y-86670000D03*
G36*
G01*
X97511000Y-85770000D02*
X97511000Y-87570000D01*
G75*
G02*
X97460000Y-87621000I-51000J0D01*
G01*
X95660000Y-87621000D01*
G75*
G02*
X95609000Y-87570000I0J51000D01*
G01*
X95609000Y-85770000D01*
G75*
G02*
X95660000Y-85719000I51000J0D01*
G01*
X97460000Y-85719000D01*
G75*
G02*
X97511000Y-85770000I0J-51000D01*
G01*
G37*
D17*
X127890000Y-62900000D03*
X120270000Y-62900000D03*
G36*
G01*
X102001000Y-52229999D02*
X102001000Y-53750001D01*
G75*
G02*
X101950001Y-53801000I-50999J0D01*
G01*
X100429999Y-53801000D01*
G75*
G02*
X100379000Y-53750001I0J50999D01*
G01*
X100379000Y-52229999D01*
G75*
G02*
X100429999Y-52179000I50999J0D01*
G01*
X101950001Y-52179000D01*
G75*
G02*
X102001000Y-52229999I0J-50999D01*
G01*
G37*
D18*
X101190000Y-47910000D03*
X101190000Y-50450000D03*
G36*
G01*
X107819000Y-39660001D02*
X107819000Y-38139999D01*
G75*
G02*
X107869999Y-38089000I50999J0D01*
G01*
X109390001Y-38089000D01*
G75*
G02*
X109441000Y-38139999I0J-50999D01*
G01*
X109441000Y-39660001D01*
G75*
G02*
X109390001Y-39711000I-50999J0D01*
G01*
X107869999Y-39711000D01*
G75*
G02*
X107819000Y-39660001I0J50999D01*
G01*
G37*
X108630000Y-43980000D03*
X108630000Y-41440000D03*
X113730000Y-41440000D03*
X113730000Y-43980000D03*
G36*
G01*
X112919000Y-39660001D02*
X112919000Y-38139999D01*
G75*
G02*
X112969999Y-38089000I50999J0D01*
G01*
X114490001Y-38089000D01*
G75*
G02*
X114541000Y-38139999I0J-50999D01*
G01*
X114541000Y-39660001D01*
G75*
G02*
X114490001Y-39711000I-50999J0D01*
G01*
X112969999Y-39711000D01*
G75*
G02*
X112919000Y-39660001I0J50999D01*
G01*
G37*
D19*
X91200000Y-81760000D03*
D14*
X78500000Y-81760000D03*
X67080000Y-81000000D03*
D19*
X67080000Y-68300000D03*
X62640000Y-80980000D03*
D14*
X62640000Y-68280000D03*
D19*
X71460000Y-80970000D03*
D14*
X71460000Y-68270000D03*
D19*
X46850000Y-58160000D03*
D14*
X46850000Y-45460000D03*
X55110000Y-81050000D03*
D19*
X55110000Y-68350000D03*
X96360000Y-60600000D03*
D14*
X96360000Y-47900000D03*
X62660000Y-58080000D03*
D19*
X75360000Y-58080000D03*
D14*
X91960000Y-38900000D03*
D19*
X104660000Y-38900000D03*
D14*
X104650000Y-43150000D03*
D19*
X91950000Y-43150000D03*
D14*
X91820000Y-47900000D03*
D19*
X91820000Y-60600000D03*
X50600000Y-75150000D03*
D14*
X50600000Y-62450000D03*
D19*
X78470000Y-85800000D03*
D14*
X91170000Y-85800000D03*
X96340000Y-64630000D03*
D19*
X96340000Y-77330000D03*
D14*
X91810000Y-77320000D03*
D19*
X91810000Y-64620000D03*
X62670000Y-62510000D03*
D14*
X75370000Y-62510000D03*
D20*
X60320000Y-53500000D03*
X57780000Y-53500000D03*
G36*
G01*
X54289000Y-54400000D02*
X54289000Y-52600000D01*
G75*
G02*
X54340000Y-52549000I51000J0D01*
G01*
X56140000Y-52549000D01*
G75*
G02*
X56191000Y-52600000I0J-51000D01*
G01*
X56191000Y-54400000D01*
G75*
G02*
X56140000Y-54451000I-51000J0D01*
G01*
X54340000Y-54451000D01*
G75*
G02*
X54289000Y-54400000I0J51000D01*
G01*
G37*
G36*
G01*
X77209000Y-53820000D02*
X77209000Y-52220000D01*
G75*
G02*
X77260000Y-52169000I51000J0D01*
G01*
X79660000Y-52169000D01*
G75*
G02*
X79711000Y-52220000I0J-51000D01*
G01*
X79711000Y-53820000D01*
G75*
G02*
X79660000Y-53871000I-51000J0D01*
G01*
X77260000Y-53871000D01*
G75*
G02*
X77209000Y-53820000I0J51000D01*
G01*
G37*
D21*
X86080000Y-60640000D03*
X78460000Y-55560000D03*
X86080000Y-58100000D03*
X78460000Y-58100000D03*
X86080000Y-55560000D03*
X78460000Y-60640000D03*
X86080000Y-53020000D03*
X86120000Y-68280000D03*
X78500000Y-75900000D03*
X86120000Y-70820000D03*
X78500000Y-73360000D03*
X86120000Y-73360000D03*
X78500000Y-70820000D03*
X86120000Y-75900000D03*
G36*
G01*
X77249000Y-69080000D02*
X77249000Y-67480000D01*
G75*
G02*
X77300000Y-67429000I51000J0D01*
G01*
X79700000Y-67429000D01*
G75*
G02*
X79751000Y-67480000I0J-51000D01*
G01*
X79751000Y-69080000D01*
G75*
G02*
X79700000Y-69131000I-51000J0D01*
G01*
X77300000Y-69131000D01*
G75*
G02*
X77249000Y-69080000I0J51000D01*
G01*
G37*
D22*
X39940000Y-40950000D03*
X42550000Y-65030000D03*
X130910000Y-87030000D03*
X122790000Y-78440000D03*
G36*
G01*
X132418000Y-47887000D02*
X130218000Y-47887000D01*
G75*
G02*
X130167000Y-47836000I0J51000D01*
G01*
X130167000Y-45636000D01*
G75*
G02*
X130218000Y-45585000I51000J0D01*
G01*
X132418000Y-45585000D01*
G75*
G02*
X132469000Y-45636000I0J-51000D01*
G01*
X132469000Y-47836000D01*
G75*
G02*
X132418000Y-47887000I-51000J0D01*
G01*
G37*
D15*
X131318000Y-36576000D03*
D23*
X81407000Y-92710000D03*
X83947000Y-92710000D03*
G36*
G01*
X87490500Y-91710000D02*
X87490500Y-93710000D01*
G75*
G02*
X87439500Y-93761000I-51000J0D01*
G01*
X85534500Y-93761000D01*
G75*
G02*
X85483500Y-93710000I0J51000D01*
G01*
X85483500Y-91710000D01*
G75*
G02*
X85534500Y-91659000I51000J0D01*
G01*
X87439500Y-91659000D01*
G75*
G02*
X87490500Y-91710000I0J-51000D01*
G01*
G37*
G36*
G01*
X106311500Y-34528000D02*
X106311500Y-32528000D01*
G75*
G02*
X106362500Y-32477000I51000J0D01*
G01*
X108267500Y-32477000D01*
G75*
G02*
X108318500Y-32528000I0J-51000D01*
G01*
X108318500Y-34528000D01*
G75*
G02*
X108267500Y-34579000I-51000J0D01*
G01*
X106362500Y-34579000D01*
G75*
G02*
X106311500Y-34528000I0J51000D01*
G01*
G37*
X109855000Y-33528000D03*
X112395000Y-33528000D03*
D11*
X48430000Y-89180000D03*
X43930000Y-89180000D03*
X48430000Y-82680000D03*
X43930000Y-82680000D03*
M02*
