G04 #@! TF.GenerationSoftware,KiCad,Pcbnew,9.0.6*
G04 #@! TF.CreationDate,2025-12-03T01:28:08+09:00*
G04 #@! TF.ProjectId,12f683MPPT,31326636-3833-44d5-9050-542e6b696361,rev?*
G04 #@! TF.SameCoordinates,Original*
G04 #@! TF.FileFunction,Soldermask,Bot*
G04 #@! TF.FilePolarity,Negative*
%FSLAX46Y46*%
G04 Gerber Fmt 4.6, Leading zero omitted, Abs format (unit mm)*
G04 Created by KiCad (PCBNEW 9.0.6) date 2025-12-03 01:28:08*
%MOMM*%
%LPD*%
G01*
G04 APERTURE LIST*
G04 APERTURE END LIST*
G36*
X130357723Y-91140140D02*
G01*
X130723568Y-91212911D01*
X131080518Y-91321191D01*
X131425137Y-91463937D01*
X131754105Y-91639774D01*
X132064253Y-91847008D01*
X132352596Y-92083645D01*
X132616355Y-92347404D01*
X132852992Y-92635747D01*
X133060226Y-92945895D01*
X133236063Y-93274863D01*
X133378809Y-93619482D01*
X133487089Y-93976432D01*
X133559860Y-94342277D01*
X133596422Y-94713494D01*
X133596422Y-95086506D01*
X133559860Y-95457723D01*
X133487089Y-95823568D01*
X133378809Y-96180518D01*
X133236063Y-96525137D01*
X133060226Y-96854105D01*
X132852992Y-97164253D01*
X132616355Y-97452596D01*
X132352596Y-97716355D01*
X132064253Y-97952992D01*
X131754105Y-98160226D01*
X131425137Y-98336063D01*
X131080518Y-98478809D01*
X130723568Y-98587089D01*
X130357723Y-98659860D01*
X129986506Y-98696422D01*
X129613494Y-98696422D01*
X129242277Y-98659860D01*
X128876432Y-98587089D01*
X128519482Y-98478809D01*
X128174863Y-98336063D01*
X127845895Y-98160226D01*
X127535747Y-97952992D01*
X127247404Y-97716355D01*
X126983645Y-97452596D01*
X126747008Y-97164253D01*
X126539774Y-96854105D01*
X126363937Y-96525137D01*
X126221191Y-96180518D01*
X126112911Y-95823568D01*
X126040140Y-95457723D01*
X126003578Y-95086506D01*
X126003578Y-94713494D01*
X126040140Y-94342277D01*
X126112911Y-93976432D01*
X126221191Y-93619482D01*
X126363937Y-93274863D01*
X126539774Y-92945895D01*
X126747008Y-92635747D01*
X126983645Y-92347404D01*
X127247404Y-92083645D01*
X127535747Y-91847008D01*
X127845895Y-91639774D01*
X128174863Y-91463937D01*
X128519482Y-91321191D01*
X128876432Y-91212911D01*
X129242277Y-91140140D01*
X129613494Y-91103578D01*
X129986506Y-91103578D01*
X130357723Y-91140140D01*
G37*
G36*
X41057723Y-90990140D02*
G01*
X41423568Y-91062911D01*
X41780518Y-91171191D01*
X42125137Y-91313937D01*
X42454105Y-91489774D01*
X42764253Y-91697008D01*
X43052596Y-91933645D01*
X43316355Y-92197404D01*
X43552992Y-92485747D01*
X43760226Y-92795895D01*
X43936063Y-93124863D01*
X44078809Y-93469482D01*
X44187089Y-93826432D01*
X44259860Y-94192277D01*
X44296422Y-94563494D01*
X44296422Y-94936506D01*
X44259860Y-95307723D01*
X44187089Y-95673568D01*
X44078809Y-96030518D01*
X43936063Y-96375137D01*
X43760226Y-96704105D01*
X43552992Y-97014253D01*
X43316355Y-97302596D01*
X43052596Y-97566355D01*
X42764253Y-97802992D01*
X42454105Y-98010226D01*
X42125137Y-98186063D01*
X41780518Y-98328809D01*
X41423568Y-98437089D01*
X41057723Y-98509860D01*
X40686506Y-98546422D01*
X40313494Y-98546422D01*
X39942277Y-98509860D01*
X39576432Y-98437089D01*
X39219482Y-98328809D01*
X38874863Y-98186063D01*
X38545895Y-98010226D01*
X38235747Y-97802992D01*
X37947404Y-97566355D01*
X37683645Y-97302596D01*
X37447008Y-97014253D01*
X37239774Y-96704105D01*
X37063937Y-96375137D01*
X36921191Y-96030518D01*
X36812911Y-95673568D01*
X36740140Y-95307723D01*
X36703578Y-94936506D01*
X36703578Y-94563494D01*
X36740140Y-94192277D01*
X36812911Y-93826432D01*
X36921191Y-93469482D01*
X37063937Y-93124863D01*
X37239774Y-92795895D01*
X37447008Y-92485747D01*
X37683645Y-92197404D01*
X37947404Y-91933645D01*
X38235747Y-91697008D01*
X38545895Y-91489774D01*
X38874863Y-91313937D01*
X39219482Y-91171191D01*
X39576432Y-91062911D01*
X39942277Y-90990140D01*
X40313494Y-90953578D01*
X40686506Y-90953578D01*
X41057723Y-90990140D01*
G37*
G36*
X87412017Y-91507882D02*
G01*
X87428562Y-91518938D01*
X87439618Y-91535483D01*
X87443500Y-91555000D01*
X87443500Y-93555000D01*
X87439618Y-93574517D01*
X87428562Y-93591062D01*
X87412017Y-93602118D01*
X87392500Y-93606000D01*
X85487500Y-93606000D01*
X85467983Y-93602118D01*
X85451438Y-93591062D01*
X85440382Y-93574517D01*
X85436500Y-93555000D01*
X85436500Y-91555000D01*
X85440382Y-91535483D01*
X85451438Y-91518938D01*
X85467983Y-91507882D01*
X85487500Y-91504000D01*
X87392500Y-91504000D01*
X87412017Y-91507882D01*
G37*
G36*
X81447247Y-91508832D02*
G01*
X81458360Y-91508832D01*
X81501786Y-91517470D01*
X81594172Y-91532102D01*
X81623886Y-91541757D01*
X81651301Y-91547210D01*
X81689989Y-91563235D01*
X81743875Y-91580744D01*
X81794360Y-91606467D01*
X81833047Y-91622492D01*
X81856286Y-91638020D01*
X81884124Y-91652204D01*
X81959790Y-91707179D01*
X81996614Y-91731784D01*
X82004473Y-91739643D01*
X82011466Y-91744724D01*
X82122775Y-91856033D01*
X82127855Y-91863025D01*
X82135716Y-91870886D01*
X82160323Y-91907713D01*
X82215295Y-91983375D01*
X82229477Y-92011210D01*
X82245008Y-92034453D01*
X82261034Y-92073145D01*
X82286755Y-92123624D01*
X82304261Y-92177503D01*
X82320290Y-92216199D01*
X82325744Y-92243618D01*
X82335397Y-92273327D01*
X82350027Y-92365702D01*
X82358668Y-92409140D01*
X82359459Y-92425252D01*
X82360406Y-92431228D01*
X82363016Y-92497649D01*
X82363500Y-92507500D01*
X82363500Y-92602500D01*
X82363015Y-92612354D01*
X82360406Y-92678771D01*
X82359459Y-92684746D01*
X82358668Y-92700860D01*
X82350026Y-92744301D01*
X82335397Y-92836672D01*
X82325744Y-92866378D01*
X82320290Y-92893801D01*
X82304260Y-92932500D01*
X82286755Y-92986375D01*
X82261037Y-93036849D01*
X82245008Y-93075547D01*
X82229475Y-93098792D01*
X82215295Y-93126624D01*
X82160331Y-93202273D01*
X82135716Y-93239114D01*
X82127852Y-93246977D01*
X82122775Y-93253966D01*
X82011466Y-93365275D01*
X82004477Y-93370352D01*
X81996614Y-93378216D01*
X81959773Y-93402831D01*
X81884124Y-93457795D01*
X81856292Y-93471975D01*
X81833047Y-93487508D01*
X81794349Y-93503537D01*
X81743875Y-93529255D01*
X81690000Y-93546760D01*
X81651301Y-93562790D01*
X81623878Y-93568244D01*
X81594172Y-93577897D01*
X81501796Y-93592527D01*
X81458360Y-93601168D01*
X81447246Y-93601168D01*
X81438704Y-93602521D01*
X81281296Y-93602521D01*
X81272754Y-93601168D01*
X81261640Y-93601168D01*
X81218204Y-93592528D01*
X81125827Y-93577897D01*
X81096118Y-93568244D01*
X81068699Y-93562790D01*
X81030003Y-93546761D01*
X80976124Y-93529255D01*
X80925645Y-93503534D01*
X80886953Y-93487508D01*
X80863710Y-93471977D01*
X80835875Y-93457795D01*
X80760213Y-93402823D01*
X80723386Y-93378216D01*
X80715525Y-93370355D01*
X80708533Y-93365275D01*
X80597224Y-93253966D01*
X80592143Y-93246973D01*
X80584284Y-93239114D01*
X80559679Y-93202290D01*
X80504704Y-93126624D01*
X80490520Y-93098786D01*
X80474992Y-93075547D01*
X80458967Y-93036860D01*
X80433244Y-92986375D01*
X80415735Y-92932489D01*
X80399710Y-92893801D01*
X80394257Y-92866386D01*
X80384602Y-92836672D01*
X80369968Y-92744277D01*
X80361332Y-92700860D01*
X80360540Y-92684755D01*
X80359593Y-92678771D01*
X80356983Y-92612338D01*
X80356500Y-92602500D01*
X80356500Y-92507500D01*
X80356983Y-92497665D01*
X80359593Y-92431228D01*
X80360540Y-92425242D01*
X80361332Y-92409140D01*
X80369967Y-92365726D01*
X80384602Y-92273327D01*
X80394257Y-92243610D01*
X80399710Y-92216199D01*
X80415733Y-92177514D01*
X80433244Y-92123624D01*
X80458969Y-92073134D01*
X80474992Y-92034453D01*
X80490518Y-92011216D01*
X80504704Y-91983375D01*
X80559687Y-91907696D01*
X80584284Y-91870886D01*
X80592141Y-91863028D01*
X80597224Y-91856033D01*
X80708533Y-91744724D01*
X80715528Y-91739641D01*
X80723386Y-91731784D01*
X80760196Y-91707187D01*
X80835875Y-91652204D01*
X80863716Y-91638018D01*
X80886953Y-91622492D01*
X80925634Y-91606469D01*
X80976124Y-91580744D01*
X81030014Y-91563233D01*
X81068699Y-91547210D01*
X81096110Y-91541757D01*
X81125827Y-91532102D01*
X81218214Y-91517469D01*
X81261640Y-91508832D01*
X81272753Y-91508832D01*
X81281296Y-91507479D01*
X81438704Y-91507479D01*
X81447247Y-91508832D01*
G37*
G36*
X83987247Y-91508832D02*
G01*
X83998360Y-91508832D01*
X84041786Y-91517470D01*
X84134172Y-91532102D01*
X84163886Y-91541757D01*
X84191301Y-91547210D01*
X84229989Y-91563235D01*
X84283875Y-91580744D01*
X84334360Y-91606467D01*
X84373047Y-91622492D01*
X84396286Y-91638020D01*
X84424124Y-91652204D01*
X84499790Y-91707179D01*
X84536614Y-91731784D01*
X84544473Y-91739643D01*
X84551466Y-91744724D01*
X84662775Y-91856033D01*
X84667855Y-91863025D01*
X84675716Y-91870886D01*
X84700323Y-91907713D01*
X84755295Y-91983375D01*
X84769477Y-92011210D01*
X84785008Y-92034453D01*
X84801034Y-92073145D01*
X84826755Y-92123624D01*
X84844261Y-92177503D01*
X84860290Y-92216199D01*
X84865744Y-92243618D01*
X84875397Y-92273327D01*
X84890027Y-92365702D01*
X84898668Y-92409140D01*
X84899459Y-92425252D01*
X84900406Y-92431228D01*
X84903016Y-92497649D01*
X84903500Y-92507500D01*
X84903500Y-92602500D01*
X84903015Y-92612354D01*
X84900406Y-92678771D01*
X84899459Y-92684746D01*
X84898668Y-92700860D01*
X84890026Y-92744301D01*
X84875397Y-92836672D01*
X84865744Y-92866378D01*
X84860290Y-92893801D01*
X84844260Y-92932500D01*
X84826755Y-92986375D01*
X84801037Y-93036849D01*
X84785008Y-93075547D01*
X84769475Y-93098792D01*
X84755295Y-93126624D01*
X84700331Y-93202273D01*
X84675716Y-93239114D01*
X84667852Y-93246977D01*
X84662775Y-93253966D01*
X84551466Y-93365275D01*
X84544477Y-93370352D01*
X84536614Y-93378216D01*
X84499773Y-93402831D01*
X84424124Y-93457795D01*
X84396292Y-93471975D01*
X84373047Y-93487508D01*
X84334349Y-93503537D01*
X84283875Y-93529255D01*
X84230000Y-93546760D01*
X84191301Y-93562790D01*
X84163878Y-93568244D01*
X84134172Y-93577897D01*
X84041796Y-93592527D01*
X83998360Y-93601168D01*
X83987246Y-93601168D01*
X83978704Y-93602521D01*
X83821296Y-93602521D01*
X83812754Y-93601168D01*
X83801640Y-93601168D01*
X83758204Y-93592528D01*
X83665827Y-93577897D01*
X83636118Y-93568244D01*
X83608699Y-93562790D01*
X83570003Y-93546761D01*
X83516124Y-93529255D01*
X83465645Y-93503534D01*
X83426953Y-93487508D01*
X83403710Y-93471977D01*
X83375875Y-93457795D01*
X83300213Y-93402823D01*
X83263386Y-93378216D01*
X83255525Y-93370355D01*
X83248533Y-93365275D01*
X83137224Y-93253966D01*
X83132143Y-93246973D01*
X83124284Y-93239114D01*
X83099679Y-93202290D01*
X83044704Y-93126624D01*
X83030520Y-93098786D01*
X83014992Y-93075547D01*
X82998967Y-93036860D01*
X82973244Y-92986375D01*
X82955735Y-92932489D01*
X82939710Y-92893801D01*
X82934257Y-92866386D01*
X82924602Y-92836672D01*
X82909968Y-92744277D01*
X82901332Y-92700860D01*
X82900540Y-92684755D01*
X82899593Y-92678771D01*
X82896983Y-92612338D01*
X82896500Y-92602500D01*
X82896500Y-92507500D01*
X82896983Y-92497665D01*
X82899593Y-92431228D01*
X82900540Y-92425242D01*
X82901332Y-92409140D01*
X82909967Y-92365726D01*
X82924602Y-92273327D01*
X82934257Y-92243610D01*
X82939710Y-92216199D01*
X82955733Y-92177514D01*
X82973244Y-92123624D01*
X82998969Y-92073134D01*
X83014992Y-92034453D01*
X83030518Y-92011216D01*
X83044704Y-91983375D01*
X83099687Y-91907696D01*
X83124284Y-91870886D01*
X83132141Y-91863028D01*
X83137224Y-91856033D01*
X83248533Y-91744724D01*
X83255528Y-91739641D01*
X83263386Y-91731784D01*
X83300196Y-91707187D01*
X83375875Y-91652204D01*
X83403716Y-91638018D01*
X83426953Y-91622492D01*
X83465634Y-91606469D01*
X83516124Y-91580744D01*
X83570014Y-91563233D01*
X83608699Y-91547210D01*
X83636110Y-91541757D01*
X83665827Y-91532102D01*
X83758214Y-91517469D01*
X83801640Y-91508832D01*
X83812753Y-91508832D01*
X83821296Y-91507479D01*
X83978704Y-91507479D01*
X83987247Y-91508832D01*
G37*
G36*
X120542040Y-90033565D02*
G01*
X120728737Y-90094227D01*
X120903646Y-90183347D01*
X121062460Y-90298732D01*
X121201268Y-90437540D01*
X121316653Y-90596354D01*
X121405773Y-90771263D01*
X121466435Y-90957960D01*
X121497144Y-91151848D01*
X121497144Y-91348152D01*
X121466435Y-91542040D01*
X121405773Y-91728737D01*
X121316653Y-91903646D01*
X121201268Y-92062460D01*
X121062460Y-92201268D01*
X120903646Y-92316653D01*
X120728737Y-92405773D01*
X120542040Y-92466435D01*
X120348152Y-92497144D01*
X120151848Y-92497144D01*
X119957960Y-92466435D01*
X119771263Y-92405773D01*
X119596354Y-92316653D01*
X119437540Y-92201268D01*
X119298732Y-92062460D01*
X119183347Y-91903646D01*
X119094227Y-91728737D01*
X119033565Y-91542040D01*
X119002856Y-91348152D01*
X119002856Y-91151848D01*
X119033565Y-90957960D01*
X119094227Y-90771263D01*
X119183347Y-90596354D01*
X119298732Y-90437540D01*
X119437540Y-90298732D01*
X119596354Y-90183347D01*
X119771263Y-90094227D01*
X119957960Y-90033565D01*
X120151848Y-90002856D01*
X120348152Y-90002856D01*
X120542040Y-90033565D01*
G37*
G36*
X92949517Y-88352882D02*
G01*
X92966062Y-88363938D01*
X92977118Y-88380483D01*
X92981000Y-88400000D01*
X92981000Y-90200000D01*
X92977118Y-90219517D01*
X92966062Y-90236062D01*
X92949517Y-90247118D01*
X92930000Y-90251000D01*
X91130000Y-90251000D01*
X91110483Y-90247118D01*
X91093938Y-90236062D01*
X91082882Y-90219517D01*
X91079000Y-90200000D01*
X91079000Y-88400000D01*
X91082882Y-88380483D01*
X91093938Y-88363938D01*
X91110483Y-88352882D01*
X91130000Y-88349000D01*
X92930000Y-88349000D01*
X92949517Y-88352882D01*
G37*
G36*
X94652553Y-88353579D02*
G01*
X94663214Y-88353579D01*
X94704865Y-88361864D01*
X94791916Y-88375651D01*
X94819918Y-88384749D01*
X94846061Y-88389950D01*
X94882956Y-88405232D01*
X94933784Y-88421748D01*
X94981399Y-88446009D01*
X95018298Y-88461293D01*
X95040463Y-88476103D01*
X95066693Y-88489468D01*
X95137990Y-88541268D01*
X95173308Y-88564867D01*
X95180846Y-88572405D01*
X95187370Y-88577145D01*
X95292854Y-88682629D01*
X95297593Y-88689152D01*
X95305133Y-88696692D01*
X95328734Y-88732014D01*
X95380531Y-88803306D01*
X95393894Y-88829533D01*
X95408707Y-88851702D01*
X95423993Y-88888605D01*
X95448251Y-88936215D01*
X95464764Y-88987035D01*
X95480050Y-89023939D01*
X95485251Y-89050086D01*
X95494348Y-89078083D01*
X95508134Y-89165125D01*
X95516421Y-89206786D01*
X95516421Y-89217447D01*
X95517683Y-89225415D01*
X95517683Y-89374584D01*
X95516421Y-89382551D01*
X95516421Y-89393214D01*
X95508133Y-89434877D01*
X95494348Y-89521916D01*
X95485251Y-89549910D01*
X95480050Y-89576061D01*
X95464762Y-89612968D01*
X95448251Y-89663784D01*
X95423995Y-89711388D01*
X95408707Y-89748298D01*
X95393892Y-89770470D01*
X95380531Y-89796693D01*
X95328742Y-89867973D01*
X95305133Y-89903308D01*
X95297591Y-89910849D01*
X95292854Y-89917370D01*
X95187370Y-90022854D01*
X95180849Y-90027591D01*
X95173308Y-90035133D01*
X95137973Y-90058742D01*
X95066693Y-90110531D01*
X95040470Y-90123892D01*
X95018298Y-90138707D01*
X94981388Y-90153995D01*
X94933784Y-90178251D01*
X94882968Y-90194762D01*
X94846061Y-90210050D01*
X94819910Y-90215251D01*
X94791916Y-90224348D01*
X94704875Y-90238133D01*
X94663214Y-90246421D01*
X94652553Y-90246421D01*
X94644585Y-90247683D01*
X94495415Y-90247683D01*
X94487447Y-90246421D01*
X94476786Y-90246421D01*
X94435125Y-90238134D01*
X94348083Y-90224348D01*
X94320086Y-90215251D01*
X94293939Y-90210050D01*
X94257035Y-90194764D01*
X94206215Y-90178251D01*
X94158605Y-90153993D01*
X94121702Y-90138707D01*
X94099533Y-90123894D01*
X94073306Y-90110531D01*
X94002014Y-90058734D01*
X93966692Y-90035133D01*
X93959152Y-90027593D01*
X93952629Y-90022854D01*
X93847145Y-89917370D01*
X93842405Y-89910846D01*
X93834867Y-89903308D01*
X93811268Y-89867990D01*
X93759468Y-89796693D01*
X93746103Y-89770463D01*
X93731293Y-89748298D01*
X93716009Y-89711399D01*
X93691748Y-89663784D01*
X93675232Y-89612956D01*
X93659950Y-89576061D01*
X93654749Y-89549918D01*
X93645651Y-89521916D01*
X93631864Y-89434867D01*
X93623579Y-89393214D01*
X93623579Y-89382552D01*
X93622317Y-89374584D01*
X93622317Y-89225415D01*
X93623579Y-89217446D01*
X93623579Y-89206786D01*
X93631863Y-89165136D01*
X93645651Y-89078083D01*
X93654750Y-89050078D01*
X93659950Y-89023939D01*
X93675231Y-88987046D01*
X93691748Y-88936215D01*
X93716011Y-88888595D01*
X93731293Y-88851702D01*
X93746101Y-88829539D01*
X93759468Y-88803306D01*
X93811277Y-88731996D01*
X93834867Y-88696692D01*
X93842402Y-88689156D01*
X93847145Y-88682629D01*
X93952629Y-88577145D01*
X93959156Y-88572402D01*
X93966692Y-88564867D01*
X94001996Y-88541277D01*
X94073306Y-88489468D01*
X94099539Y-88476101D01*
X94121702Y-88461293D01*
X94158595Y-88446011D01*
X94206215Y-88421748D01*
X94257046Y-88405231D01*
X94293939Y-88389950D01*
X94320078Y-88384750D01*
X94348083Y-88375651D01*
X94435136Y-88361863D01*
X94476786Y-88353579D01*
X94487447Y-88353579D01*
X94495415Y-88352317D01*
X94644585Y-88352317D01*
X94652553Y-88353579D01*
G37*
G36*
X58119517Y-88327882D02*
G01*
X58136062Y-88338938D01*
X58147118Y-88355483D01*
X58151000Y-88375000D01*
X58151000Y-90175000D01*
X58147118Y-90194517D01*
X58136062Y-90211062D01*
X58119517Y-90222118D01*
X58100000Y-90226000D01*
X56300000Y-90226000D01*
X56280483Y-90222118D01*
X56263938Y-90211062D01*
X56252882Y-90194517D01*
X56249000Y-90175000D01*
X56249000Y-88375000D01*
X56252882Y-88355483D01*
X56263938Y-88338938D01*
X56280483Y-88327882D01*
X56300000Y-88324000D01*
X58100000Y-88324000D01*
X58119517Y-88327882D01*
G37*
G36*
X130306373Y-85557024D02*
G01*
X130569558Y-85627545D01*
X130821287Y-85731814D01*
X131057253Y-85868049D01*
X131273417Y-86033918D01*
X131466082Y-86226583D01*
X131631951Y-86442747D01*
X131768186Y-86678713D01*
X131872455Y-86930442D01*
X131942976Y-87193627D01*
X131978540Y-87463765D01*
X131978540Y-87736235D01*
X131942976Y-88006373D01*
X131872455Y-88269558D01*
X131768186Y-88521287D01*
X131631951Y-88757253D01*
X131466082Y-88973417D01*
X131273417Y-89166082D01*
X131057253Y-89331951D01*
X130821287Y-89468186D01*
X130569558Y-89572455D01*
X130306373Y-89642976D01*
X130036235Y-89678540D01*
X129763765Y-89678540D01*
X129493627Y-89642976D01*
X129230442Y-89572455D01*
X128978713Y-89468186D01*
X128742747Y-89331951D01*
X128526583Y-89166082D01*
X128333918Y-88973417D01*
X128168049Y-88757253D01*
X128031814Y-88521287D01*
X127927545Y-88269558D01*
X127857024Y-88006373D01*
X127821460Y-87736235D01*
X127821460Y-87463765D01*
X127857024Y-87193627D01*
X127927545Y-86930442D01*
X128031814Y-86678713D01*
X128168049Y-86442747D01*
X128333918Y-86226583D01*
X128526583Y-86033918D01*
X128742747Y-85868049D01*
X128978713Y-85731814D01*
X129230442Y-85627545D01*
X129493627Y-85557024D01*
X129763765Y-85521460D01*
X130036235Y-85521460D01*
X130306373Y-85557024D01*
G37*
G36*
X104617730Y-84469089D02*
G01*
X104629536Y-84469089D01*
X104687663Y-84478295D01*
X104822042Y-84495986D01*
X104854837Y-84504773D01*
X104885418Y-84509617D01*
X104944229Y-84528726D01*
X105030611Y-84551872D01*
X105085724Y-84574700D01*
X105131810Y-84589675D01*
X105174987Y-84611674D01*
X105230099Y-84634503D01*
X105307539Y-84679213D01*
X105362645Y-84707291D01*
X105387697Y-84725492D01*
X105417096Y-84742466D01*
X105524651Y-84824995D01*
X105572239Y-84859570D01*
X105580579Y-84867910D01*
X105588401Y-84873912D01*
X105741087Y-85026598D01*
X105747088Y-85034419D01*
X105755430Y-85042761D01*
X105790008Y-85090354D01*
X105872533Y-85197903D01*
X105889505Y-85227299D01*
X105907709Y-85252355D01*
X105935789Y-85307466D01*
X105980496Y-85384900D01*
X106003321Y-85440006D01*
X106025325Y-85483190D01*
X106040301Y-85529282D01*
X106063127Y-85584388D01*
X106086269Y-85670757D01*
X106105383Y-85729582D01*
X106110227Y-85760169D01*
X106119013Y-85792957D01*
X106136703Y-85927327D01*
X106145911Y-85985464D01*
X106145911Y-85997269D01*
X106147197Y-86007038D01*
X106147197Y-86222961D01*
X106145911Y-86232729D01*
X106145911Y-86244536D01*
X106136702Y-86302677D01*
X106119013Y-86437042D01*
X106110228Y-86469827D01*
X106105383Y-86500418D01*
X106086268Y-86559246D01*
X106063127Y-86645611D01*
X106040302Y-86700713D01*
X106025325Y-86746810D01*
X106003319Y-86789997D01*
X105980496Y-86845099D01*
X105935793Y-86922525D01*
X105907709Y-86977645D01*
X105889502Y-87002704D01*
X105872533Y-87032096D01*
X105790022Y-87139627D01*
X105755430Y-87187239D01*
X105747085Y-87195583D01*
X105741087Y-87203401D01*
X105588401Y-87356087D01*
X105580583Y-87362085D01*
X105572239Y-87370430D01*
X105524627Y-87405022D01*
X105417096Y-87487533D01*
X105387704Y-87504502D01*
X105362645Y-87522709D01*
X105307525Y-87550793D01*
X105230099Y-87595496D01*
X105174997Y-87618319D01*
X105131810Y-87640325D01*
X105085713Y-87655302D01*
X105030611Y-87678127D01*
X104944246Y-87701268D01*
X104885418Y-87720383D01*
X104854827Y-87725228D01*
X104822042Y-87734013D01*
X104687677Y-87751702D01*
X104629536Y-87760911D01*
X104617729Y-87760911D01*
X104607961Y-87762197D01*
X104392039Y-87762197D01*
X104382271Y-87760911D01*
X104370464Y-87760911D01*
X104312324Y-87751702D01*
X104177957Y-87734013D01*
X104145169Y-87725227D01*
X104114582Y-87720383D01*
X104055757Y-87701269D01*
X103969388Y-87678127D01*
X103914282Y-87655301D01*
X103868190Y-87640325D01*
X103825006Y-87618321D01*
X103769900Y-87595496D01*
X103692466Y-87550789D01*
X103637355Y-87522709D01*
X103612299Y-87504505D01*
X103582903Y-87487533D01*
X103475354Y-87405008D01*
X103427761Y-87370430D01*
X103419419Y-87362088D01*
X103411598Y-87356087D01*
X103258912Y-87203401D01*
X103252910Y-87195579D01*
X103244570Y-87187239D01*
X103209995Y-87139651D01*
X103127466Y-87032096D01*
X103110492Y-87002697D01*
X103092291Y-86977645D01*
X103064213Y-86922539D01*
X103019503Y-86845099D01*
X102996674Y-86789987D01*
X102974675Y-86746810D01*
X102959700Y-86700724D01*
X102936872Y-86645611D01*
X102913726Y-86559229D01*
X102894617Y-86500418D01*
X102889773Y-86469837D01*
X102880986Y-86437042D01*
X102863295Y-86302663D01*
X102854089Y-86244536D01*
X102854089Y-86232729D01*
X102852803Y-86222961D01*
X102852803Y-86007038D01*
X102854089Y-85997269D01*
X102854089Y-85985464D01*
X102863294Y-85927341D01*
X102880986Y-85792957D01*
X102889773Y-85760160D01*
X102894617Y-85729582D01*
X102913724Y-85670775D01*
X102936872Y-85584388D01*
X102959702Y-85529271D01*
X102974675Y-85483190D01*
X102996672Y-85440016D01*
X103019503Y-85384900D01*
X103064217Y-85307451D01*
X103092291Y-85252355D01*
X103110489Y-85227306D01*
X103127466Y-85197903D01*
X103210009Y-85090329D01*
X103244570Y-85042761D01*
X103252906Y-85034424D01*
X103258912Y-85026598D01*
X103411598Y-84873912D01*
X103419424Y-84867906D01*
X103427761Y-84859570D01*
X103475329Y-84825009D01*
X103582903Y-84742466D01*
X103612306Y-84725489D01*
X103637355Y-84707291D01*
X103692451Y-84679217D01*
X103769900Y-84634503D01*
X103825016Y-84611672D01*
X103868190Y-84589675D01*
X103914271Y-84574702D01*
X103969388Y-84551872D01*
X104055775Y-84528724D01*
X104114582Y-84509617D01*
X104145160Y-84504773D01*
X104177957Y-84495986D01*
X104312338Y-84478295D01*
X104370464Y-84469089D01*
X104382270Y-84469089D01*
X104392039Y-84467803D01*
X104607961Y-84467803D01*
X104617730Y-84469089D01*
G37*
G36*
X110617730Y-84469089D02*
G01*
X110629536Y-84469089D01*
X110687663Y-84478295D01*
X110822042Y-84495986D01*
X110854837Y-84504773D01*
X110885418Y-84509617D01*
X110944229Y-84528726D01*
X111030611Y-84551872D01*
X111085724Y-84574700D01*
X111131810Y-84589675D01*
X111174987Y-84611674D01*
X111230099Y-84634503D01*
X111307539Y-84679213D01*
X111362645Y-84707291D01*
X111387697Y-84725492D01*
X111417096Y-84742466D01*
X111524651Y-84824995D01*
X111572239Y-84859570D01*
X111580579Y-84867910D01*
X111588401Y-84873912D01*
X111741087Y-85026598D01*
X111747088Y-85034419D01*
X111755430Y-85042761D01*
X111790008Y-85090354D01*
X111872533Y-85197903D01*
X111889505Y-85227299D01*
X111907709Y-85252355D01*
X111935789Y-85307466D01*
X111980496Y-85384900D01*
X112003321Y-85440006D01*
X112025325Y-85483190D01*
X112040301Y-85529282D01*
X112063127Y-85584388D01*
X112086269Y-85670757D01*
X112105383Y-85729582D01*
X112110227Y-85760169D01*
X112119013Y-85792957D01*
X112136703Y-85927327D01*
X112145911Y-85985464D01*
X112145911Y-85997269D01*
X112147197Y-86007038D01*
X112147197Y-86222961D01*
X112145911Y-86232729D01*
X112145911Y-86244536D01*
X112136702Y-86302677D01*
X112119013Y-86437042D01*
X112110228Y-86469827D01*
X112105383Y-86500418D01*
X112086268Y-86559246D01*
X112063127Y-86645611D01*
X112040302Y-86700713D01*
X112025325Y-86746810D01*
X112003319Y-86789997D01*
X111980496Y-86845099D01*
X111935793Y-86922525D01*
X111907709Y-86977645D01*
X111889502Y-87002704D01*
X111872533Y-87032096D01*
X111790022Y-87139627D01*
X111755430Y-87187239D01*
X111747085Y-87195583D01*
X111741087Y-87203401D01*
X111588401Y-87356087D01*
X111580583Y-87362085D01*
X111572239Y-87370430D01*
X111524627Y-87405022D01*
X111417096Y-87487533D01*
X111387704Y-87504502D01*
X111362645Y-87522709D01*
X111307525Y-87550793D01*
X111230099Y-87595496D01*
X111174997Y-87618319D01*
X111131810Y-87640325D01*
X111085713Y-87655302D01*
X111030611Y-87678127D01*
X110944246Y-87701268D01*
X110885418Y-87720383D01*
X110854827Y-87725228D01*
X110822042Y-87734013D01*
X110687677Y-87751702D01*
X110629536Y-87760911D01*
X110617729Y-87760911D01*
X110607961Y-87762197D01*
X110392039Y-87762197D01*
X110382271Y-87760911D01*
X110370464Y-87760911D01*
X110312324Y-87751702D01*
X110177957Y-87734013D01*
X110145169Y-87725227D01*
X110114582Y-87720383D01*
X110055757Y-87701269D01*
X109969388Y-87678127D01*
X109914282Y-87655301D01*
X109868190Y-87640325D01*
X109825006Y-87618321D01*
X109769900Y-87595496D01*
X109692466Y-87550789D01*
X109637355Y-87522709D01*
X109612299Y-87504505D01*
X109582903Y-87487533D01*
X109475354Y-87405008D01*
X109427761Y-87370430D01*
X109419419Y-87362088D01*
X109411598Y-87356087D01*
X109258912Y-87203401D01*
X109252910Y-87195579D01*
X109244570Y-87187239D01*
X109209995Y-87139651D01*
X109127466Y-87032096D01*
X109110492Y-87002697D01*
X109092291Y-86977645D01*
X109064213Y-86922539D01*
X109019503Y-86845099D01*
X108996674Y-86789987D01*
X108974675Y-86746810D01*
X108959700Y-86700724D01*
X108936872Y-86645611D01*
X108913726Y-86559229D01*
X108894617Y-86500418D01*
X108889773Y-86469837D01*
X108880986Y-86437042D01*
X108863295Y-86302663D01*
X108854089Y-86244536D01*
X108854089Y-86232729D01*
X108852803Y-86222961D01*
X108852803Y-86007038D01*
X108854089Y-85997269D01*
X108854089Y-85985464D01*
X108863294Y-85927341D01*
X108880986Y-85792957D01*
X108889773Y-85760160D01*
X108894617Y-85729582D01*
X108913724Y-85670775D01*
X108936872Y-85584388D01*
X108959702Y-85529271D01*
X108974675Y-85483190D01*
X108996672Y-85440016D01*
X109019503Y-85384900D01*
X109064217Y-85307451D01*
X109092291Y-85252355D01*
X109110489Y-85227306D01*
X109127466Y-85197903D01*
X109210009Y-85090329D01*
X109244570Y-85042761D01*
X109252906Y-85034424D01*
X109258912Y-85026598D01*
X109411598Y-84873912D01*
X109419424Y-84867906D01*
X109427761Y-84859570D01*
X109475329Y-84825009D01*
X109582903Y-84742466D01*
X109612306Y-84725489D01*
X109637355Y-84707291D01*
X109692451Y-84679217D01*
X109769900Y-84634503D01*
X109825016Y-84611672D01*
X109868190Y-84589675D01*
X109914271Y-84574702D01*
X109969388Y-84551872D01*
X110055775Y-84528724D01*
X110114582Y-84509617D01*
X110145160Y-84504773D01*
X110177957Y-84495986D01*
X110312338Y-84478295D01*
X110370464Y-84469089D01*
X110382270Y-84469089D01*
X110392039Y-84467803D01*
X110607961Y-84467803D01*
X110617730Y-84469089D01*
G37*
G36*
X57282553Y-85788579D02*
G01*
X57293214Y-85788579D01*
X57334865Y-85796864D01*
X57421916Y-85810651D01*
X57449918Y-85819749D01*
X57476061Y-85824950D01*
X57512956Y-85840232D01*
X57563784Y-85856748D01*
X57611399Y-85881009D01*
X57648298Y-85896293D01*
X57670463Y-85911103D01*
X57696693Y-85924468D01*
X57767990Y-85976268D01*
X57803308Y-85999867D01*
X57810846Y-86007405D01*
X57817370Y-86012145D01*
X57922854Y-86117629D01*
X57927593Y-86124152D01*
X57935133Y-86131692D01*
X57958734Y-86167014D01*
X58010531Y-86238306D01*
X58023894Y-86264533D01*
X58038707Y-86286702D01*
X58053993Y-86323605D01*
X58078251Y-86371215D01*
X58094764Y-86422035D01*
X58110050Y-86458939D01*
X58115251Y-86485086D01*
X58124348Y-86513083D01*
X58138134Y-86600125D01*
X58146421Y-86641786D01*
X58146421Y-86652447D01*
X58147683Y-86660415D01*
X58147683Y-86809584D01*
X58146421Y-86817551D01*
X58146421Y-86828214D01*
X58138133Y-86869877D01*
X58124348Y-86956916D01*
X58115251Y-86984910D01*
X58110050Y-87011061D01*
X58094762Y-87047968D01*
X58078251Y-87098784D01*
X58053995Y-87146388D01*
X58038707Y-87183298D01*
X58023892Y-87205470D01*
X58010531Y-87231693D01*
X57958742Y-87302973D01*
X57935133Y-87338308D01*
X57927591Y-87345849D01*
X57922854Y-87352370D01*
X57817370Y-87457854D01*
X57810849Y-87462591D01*
X57803308Y-87470133D01*
X57767973Y-87493742D01*
X57696693Y-87545531D01*
X57670470Y-87558892D01*
X57648298Y-87573707D01*
X57611388Y-87588995D01*
X57563784Y-87613251D01*
X57512968Y-87629762D01*
X57476061Y-87645050D01*
X57449910Y-87650251D01*
X57421916Y-87659348D01*
X57334875Y-87673133D01*
X57293214Y-87681421D01*
X57282553Y-87681421D01*
X57274585Y-87682683D01*
X57125415Y-87682683D01*
X57117447Y-87681421D01*
X57106786Y-87681421D01*
X57065125Y-87673134D01*
X56978083Y-87659348D01*
X56950086Y-87650251D01*
X56923939Y-87645050D01*
X56887035Y-87629764D01*
X56836215Y-87613251D01*
X56788605Y-87588993D01*
X56751702Y-87573707D01*
X56729533Y-87558894D01*
X56703306Y-87545531D01*
X56632014Y-87493734D01*
X56596692Y-87470133D01*
X56589152Y-87462593D01*
X56582629Y-87457854D01*
X56477145Y-87352370D01*
X56472405Y-87345846D01*
X56464867Y-87338308D01*
X56441268Y-87302990D01*
X56389468Y-87231693D01*
X56376103Y-87205463D01*
X56361293Y-87183298D01*
X56346009Y-87146399D01*
X56321748Y-87098784D01*
X56305232Y-87047956D01*
X56289950Y-87011061D01*
X56284749Y-86984918D01*
X56275651Y-86956916D01*
X56261864Y-86869867D01*
X56253579Y-86828214D01*
X56253579Y-86817552D01*
X56252317Y-86809584D01*
X56252317Y-86660415D01*
X56253579Y-86652446D01*
X56253579Y-86641786D01*
X56261863Y-86600136D01*
X56275651Y-86513083D01*
X56284750Y-86485078D01*
X56289950Y-86458939D01*
X56305231Y-86422046D01*
X56321748Y-86371215D01*
X56346011Y-86323595D01*
X56361293Y-86286702D01*
X56376101Y-86264539D01*
X56389468Y-86238306D01*
X56441277Y-86166996D01*
X56464867Y-86131692D01*
X56472402Y-86124156D01*
X56477145Y-86117629D01*
X56582629Y-86012145D01*
X56589156Y-86007402D01*
X56596692Y-85999867D01*
X56631996Y-85976277D01*
X56703306Y-85924468D01*
X56729539Y-85911101D01*
X56751702Y-85896293D01*
X56788595Y-85881011D01*
X56836215Y-85856748D01*
X56887046Y-85840231D01*
X56923939Y-85824950D01*
X56950078Y-85819750D01*
X56978083Y-85810651D01*
X57065136Y-85796863D01*
X57106786Y-85788579D01*
X57117447Y-85788579D01*
X57125415Y-85787317D01*
X57274585Y-85787317D01*
X57282553Y-85788579D01*
G37*
G36*
X74897032Y-85885644D02*
G01*
X75051159Y-85949485D01*
X75189869Y-86042168D01*
X75307832Y-86160131D01*
X75400515Y-86298841D01*
X75464356Y-86452968D01*
X75496902Y-86616587D01*
X75496902Y-86783413D01*
X75464356Y-86947032D01*
X75400515Y-87101159D01*
X75307832Y-87239869D01*
X75189869Y-87357832D01*
X75051159Y-87450515D01*
X74897032Y-87514356D01*
X74733413Y-87546902D01*
X74566587Y-87546902D01*
X74402968Y-87514356D01*
X74248841Y-87450515D01*
X74110131Y-87357832D01*
X73992168Y-87239869D01*
X73899485Y-87101159D01*
X73835644Y-86947032D01*
X73803098Y-86783413D01*
X73803098Y-86616587D01*
X73835644Y-86452968D01*
X73899485Y-86298841D01*
X73992168Y-86160131D01*
X74110131Y-86042168D01*
X74248841Y-85949485D01*
X74402968Y-85885644D01*
X74566587Y-85853098D01*
X74733413Y-85853098D01*
X74897032Y-85885644D01*
G37*
G36*
X87597032Y-85885644D02*
G01*
X87751159Y-85949485D01*
X87889869Y-86042168D01*
X88007832Y-86160131D01*
X88100515Y-86298841D01*
X88164356Y-86452968D01*
X88196902Y-86616587D01*
X88196902Y-86783413D01*
X88164356Y-86947032D01*
X88100515Y-87101159D01*
X88007832Y-87239869D01*
X87889869Y-87357832D01*
X87751159Y-87450515D01*
X87597032Y-87514356D01*
X87433413Y-87546902D01*
X87266587Y-87546902D01*
X87102968Y-87514356D01*
X86948841Y-87450515D01*
X86810131Y-87357832D01*
X86692168Y-87239869D01*
X86599485Y-87101159D01*
X86535644Y-86947032D01*
X86503098Y-86783413D01*
X86503098Y-86616587D01*
X86535644Y-86452968D01*
X86599485Y-86298841D01*
X86692168Y-86160131D01*
X86810131Y-86042168D01*
X86948841Y-85949485D01*
X87102968Y-85885644D01*
X87266587Y-85853098D01*
X87433413Y-85853098D01*
X87597032Y-85885644D01*
G37*
G36*
X121268913Y-85006995D02*
G01*
X121284725Y-85013976D01*
X121292531Y-85015213D01*
X121325044Y-85031779D01*
X121370106Y-85051676D01*
X121448324Y-85129894D01*
X121468223Y-85174962D01*
X121484786Y-85207468D01*
X121486022Y-85215272D01*
X121493005Y-85231087D01*
X121500999Y-85300002D01*
X121500999Y-85309831D01*
X121501000Y-85309838D01*
X121501000Y-86276899D01*
X121501000Y-87199999D01*
X121493005Y-87268913D01*
X121486021Y-87284728D01*
X121484786Y-87292531D01*
X121468226Y-87325030D01*
X121448324Y-87370106D01*
X121370106Y-87448324D01*
X121325030Y-87468226D01*
X121292531Y-87484786D01*
X121284728Y-87486021D01*
X121268913Y-87493005D01*
X121199998Y-87500999D01*
X121190168Y-87500999D01*
X121190162Y-87501000D01*
X119309838Y-87501000D01*
X119309837Y-87500999D01*
X119300001Y-87501000D01*
X119231087Y-87493005D01*
X119215272Y-87486022D01*
X119207468Y-87484786D01*
X119174962Y-87468223D01*
X119129894Y-87448324D01*
X119051676Y-87370106D01*
X119031779Y-87325044D01*
X119015213Y-87292531D01*
X119013976Y-87284725D01*
X119006995Y-87268913D01*
X118999001Y-87199998D01*
X118999000Y-87190167D01*
X118999000Y-87190161D01*
X118999000Y-85309838D01*
X118999000Y-85309837D01*
X118999000Y-85300001D01*
X119006995Y-85231087D01*
X119013976Y-85215275D01*
X119015213Y-85207468D01*
X119031782Y-85174947D01*
X119051676Y-85129894D01*
X119129894Y-85051676D01*
X119174947Y-85031782D01*
X119207468Y-85015213D01*
X119215275Y-85013976D01*
X119231087Y-85006995D01*
X119300002Y-84999001D01*
X119309831Y-84999000D01*
X119309838Y-84999000D01*
X121190162Y-84999000D01*
X121199999Y-84999000D01*
X121268913Y-85006995D01*
G37*
G36*
X47041498Y-84304061D02*
G01*
X47053016Y-84304061D01*
X47098023Y-84313013D01*
X47195260Y-84328414D01*
X47226536Y-84338576D01*
X47255089Y-84344256D01*
X47295387Y-84360948D01*
X47352052Y-84379360D01*
X47405135Y-84406407D01*
X47445438Y-84423101D01*
X47469647Y-84439277D01*
X47498943Y-84454204D01*
X47578583Y-84512066D01*
X47616747Y-84537566D01*
X47624891Y-84545710D01*
X47632315Y-84551104D01*
X47748895Y-84667684D01*
X47754288Y-84675107D01*
X47762434Y-84683253D01*
X47787936Y-84721420D01*
X47845795Y-84801056D01*
X47860720Y-84830348D01*
X47876899Y-84854562D01*
X47893594Y-84894869D01*
X47920639Y-84947947D01*
X47939048Y-85004604D01*
X47955744Y-85044911D01*
X47961424Y-85073469D01*
X47971585Y-85104739D01*
X47986984Y-85201967D01*
X47995939Y-85246984D01*
X47995939Y-85258502D01*
X47997375Y-85267569D01*
X47997375Y-85432430D01*
X47995939Y-85441496D01*
X47995939Y-85453016D01*
X47986983Y-85498035D01*
X47971585Y-85595260D01*
X47961425Y-85626528D01*
X47955744Y-85655089D01*
X47939047Y-85695398D01*
X47920639Y-85752052D01*
X47893596Y-85805125D01*
X47876899Y-85845438D01*
X47860718Y-85869654D01*
X47845795Y-85898943D01*
X47787945Y-85978566D01*
X47762434Y-86016747D01*
X47754285Y-86024895D01*
X47748895Y-86032315D01*
X47632315Y-86148895D01*
X47624895Y-86154285D01*
X47616747Y-86162434D01*
X47578566Y-86187945D01*
X47498943Y-86245795D01*
X47469654Y-86260718D01*
X47445438Y-86276899D01*
X47405125Y-86293596D01*
X47352052Y-86320639D01*
X47295398Y-86339047D01*
X47255089Y-86355744D01*
X47226528Y-86361425D01*
X47195260Y-86371585D01*
X47098033Y-86386984D01*
X47053016Y-86395939D01*
X47041497Y-86395939D01*
X47032431Y-86397375D01*
X46867569Y-86397375D01*
X46858503Y-86395939D01*
X46846984Y-86395939D01*
X46801967Y-86386984D01*
X46704739Y-86371585D01*
X46673469Y-86361424D01*
X46644911Y-86355744D01*
X46604604Y-86339048D01*
X46547947Y-86320639D01*
X46494869Y-86293594D01*
X46454562Y-86276899D01*
X46430348Y-86260720D01*
X46401056Y-86245795D01*
X46321420Y-86187936D01*
X46283253Y-86162434D01*
X46275107Y-86154288D01*
X46267684Y-86148895D01*
X46151104Y-86032315D01*
X46145710Y-86024891D01*
X46137566Y-86016747D01*
X46112066Y-85978583D01*
X46054204Y-85898943D01*
X46039277Y-85869647D01*
X46023101Y-85845438D01*
X46006407Y-85805135D01*
X45979360Y-85752052D01*
X45960948Y-85695387D01*
X45944256Y-85655089D01*
X45938576Y-85626536D01*
X45928414Y-85595260D01*
X45913014Y-85498026D01*
X45904061Y-85453016D01*
X45904061Y-85441496D01*
X45902625Y-85432430D01*
X45902625Y-85267569D01*
X45904061Y-85258502D01*
X45904061Y-85246984D01*
X45913013Y-85201977D01*
X45928414Y-85104739D01*
X45938576Y-85073461D01*
X45944256Y-85044911D01*
X45960946Y-85004616D01*
X45979360Y-84947947D01*
X46006409Y-84894858D01*
X46023101Y-84854562D01*
X46039275Y-84830355D01*
X46054204Y-84801056D01*
X46112074Y-84721403D01*
X46137566Y-84683253D01*
X46145707Y-84675111D01*
X46151104Y-84667684D01*
X46267684Y-84551104D01*
X46275111Y-84545707D01*
X46283253Y-84537566D01*
X46321403Y-84512074D01*
X46401056Y-84454204D01*
X46430355Y-84439275D01*
X46454562Y-84423101D01*
X46494858Y-84406409D01*
X46547947Y-84379360D01*
X46604616Y-84360946D01*
X46644911Y-84344256D01*
X46673461Y-84338576D01*
X46704739Y-84328414D01*
X46801977Y-84313013D01*
X46846984Y-84304061D01*
X46858502Y-84304061D01*
X46867569Y-84302625D01*
X47032431Y-84302625D01*
X47041498Y-84304061D01*
G37*
G36*
X51541498Y-84304061D02*
G01*
X51553016Y-84304061D01*
X51598023Y-84313013D01*
X51695260Y-84328414D01*
X51726536Y-84338576D01*
X51755089Y-84344256D01*
X51795387Y-84360948D01*
X51852052Y-84379360D01*
X51905135Y-84406407D01*
X51945438Y-84423101D01*
X51969647Y-84439277D01*
X51998943Y-84454204D01*
X52078583Y-84512066D01*
X52116747Y-84537566D01*
X52124891Y-84545710D01*
X52132315Y-84551104D01*
X52248895Y-84667684D01*
X52254288Y-84675107D01*
X52262434Y-84683253D01*
X52287936Y-84721420D01*
X52345795Y-84801056D01*
X52360720Y-84830348D01*
X52376899Y-84854562D01*
X52393594Y-84894869D01*
X52420639Y-84947947D01*
X52439048Y-85004604D01*
X52455744Y-85044911D01*
X52461424Y-85073469D01*
X52471585Y-85104739D01*
X52486984Y-85201967D01*
X52495939Y-85246984D01*
X52495939Y-85258502D01*
X52497375Y-85267569D01*
X52497375Y-85432430D01*
X52495939Y-85441496D01*
X52495939Y-85453016D01*
X52486983Y-85498035D01*
X52471585Y-85595260D01*
X52461425Y-85626528D01*
X52455744Y-85655089D01*
X52439047Y-85695398D01*
X52420639Y-85752052D01*
X52393596Y-85805125D01*
X52376899Y-85845438D01*
X52360718Y-85869654D01*
X52345795Y-85898943D01*
X52287945Y-85978566D01*
X52262434Y-86016747D01*
X52254285Y-86024895D01*
X52248895Y-86032315D01*
X52132315Y-86148895D01*
X52124895Y-86154285D01*
X52116747Y-86162434D01*
X52078566Y-86187945D01*
X51998943Y-86245795D01*
X51969654Y-86260718D01*
X51945438Y-86276899D01*
X51905125Y-86293596D01*
X51852052Y-86320639D01*
X51795398Y-86339047D01*
X51755089Y-86355744D01*
X51726528Y-86361425D01*
X51695260Y-86371585D01*
X51598033Y-86386984D01*
X51553016Y-86395939D01*
X51541497Y-86395939D01*
X51532431Y-86397375D01*
X51367569Y-86397375D01*
X51358503Y-86395939D01*
X51346984Y-86395939D01*
X51301967Y-86386984D01*
X51204739Y-86371585D01*
X51173469Y-86361424D01*
X51144911Y-86355744D01*
X51104604Y-86339048D01*
X51047947Y-86320639D01*
X50994869Y-86293594D01*
X50954562Y-86276899D01*
X50930348Y-86260720D01*
X50901056Y-86245795D01*
X50821420Y-86187936D01*
X50783253Y-86162434D01*
X50775107Y-86154288D01*
X50767684Y-86148895D01*
X50651104Y-86032315D01*
X50645710Y-86024891D01*
X50637566Y-86016747D01*
X50612066Y-85978583D01*
X50554204Y-85898943D01*
X50539277Y-85869647D01*
X50523101Y-85845438D01*
X50506407Y-85805135D01*
X50479360Y-85752052D01*
X50460948Y-85695387D01*
X50444256Y-85655089D01*
X50438576Y-85626536D01*
X50428414Y-85595260D01*
X50413014Y-85498026D01*
X50404061Y-85453016D01*
X50404061Y-85441496D01*
X50402625Y-85432430D01*
X50402625Y-85267569D01*
X50404061Y-85258502D01*
X50404061Y-85246984D01*
X50413013Y-85201977D01*
X50428414Y-85104739D01*
X50438576Y-85073461D01*
X50444256Y-85044911D01*
X50460946Y-85004616D01*
X50479360Y-84947947D01*
X50506409Y-84894858D01*
X50523101Y-84854562D01*
X50539275Y-84830355D01*
X50554204Y-84801056D01*
X50612074Y-84721403D01*
X50637566Y-84683253D01*
X50645707Y-84675111D01*
X50651104Y-84667684D01*
X50767684Y-84551104D01*
X50775111Y-84545707D01*
X50783253Y-84537566D01*
X50821403Y-84512074D01*
X50901056Y-84454204D01*
X50930355Y-84439275D01*
X50954562Y-84423101D01*
X50994858Y-84406409D01*
X51047947Y-84379360D01*
X51104616Y-84360946D01*
X51144911Y-84344256D01*
X51173461Y-84338576D01*
X51204739Y-84328414D01*
X51301977Y-84313013D01*
X51346984Y-84304061D01*
X51358502Y-84304061D01*
X51367569Y-84302625D01*
X51532431Y-84302625D01*
X51541498Y-84304061D01*
G37*
G36*
X92949517Y-83352882D02*
G01*
X92966062Y-83363938D01*
X92977118Y-83380483D01*
X92981000Y-83400000D01*
X92981000Y-85200000D01*
X92977118Y-85219517D01*
X92966062Y-85236062D01*
X92949517Y-85247118D01*
X92930000Y-85251000D01*
X91130000Y-85251000D01*
X91110483Y-85247118D01*
X91093938Y-85236062D01*
X91082882Y-85219517D01*
X91079000Y-85200000D01*
X91079000Y-83400000D01*
X91082882Y-83380483D01*
X91093938Y-83363938D01*
X91110483Y-83352882D01*
X91130000Y-83349000D01*
X92930000Y-83349000D01*
X92949517Y-83352882D01*
G37*
G36*
X94652553Y-83353579D02*
G01*
X94663214Y-83353579D01*
X94704865Y-83361864D01*
X94791916Y-83375651D01*
X94819918Y-83384749D01*
X94846061Y-83389950D01*
X94882956Y-83405232D01*
X94933784Y-83421748D01*
X94981399Y-83446009D01*
X95018298Y-83461293D01*
X95040463Y-83476103D01*
X95066693Y-83489468D01*
X95137990Y-83541268D01*
X95173308Y-83564867D01*
X95180846Y-83572405D01*
X95187370Y-83577145D01*
X95292854Y-83682629D01*
X95297593Y-83689152D01*
X95305133Y-83696692D01*
X95328734Y-83732014D01*
X95380531Y-83803306D01*
X95393894Y-83829533D01*
X95408707Y-83851702D01*
X95423993Y-83888605D01*
X95448251Y-83936215D01*
X95464764Y-83987035D01*
X95480050Y-84023939D01*
X95485251Y-84050086D01*
X95494348Y-84078083D01*
X95508134Y-84165125D01*
X95516421Y-84206786D01*
X95516421Y-84217447D01*
X95517683Y-84225415D01*
X95517683Y-84374584D01*
X95516421Y-84382551D01*
X95516421Y-84393214D01*
X95508133Y-84434877D01*
X95494348Y-84521916D01*
X95485251Y-84549910D01*
X95480050Y-84576061D01*
X95464762Y-84612968D01*
X95448251Y-84663784D01*
X95423995Y-84711388D01*
X95408707Y-84748298D01*
X95393892Y-84770470D01*
X95380531Y-84796693D01*
X95328742Y-84867973D01*
X95305133Y-84903308D01*
X95297591Y-84910849D01*
X95292854Y-84917370D01*
X95187370Y-85022854D01*
X95180849Y-85027591D01*
X95173308Y-85035133D01*
X95137973Y-85058742D01*
X95066693Y-85110531D01*
X95040470Y-85123892D01*
X95018298Y-85138707D01*
X94981388Y-85153995D01*
X94933784Y-85178251D01*
X94882968Y-85194762D01*
X94846061Y-85210050D01*
X94819910Y-85215251D01*
X94791916Y-85224348D01*
X94704875Y-85238133D01*
X94663214Y-85246421D01*
X94652553Y-85246421D01*
X94644585Y-85247683D01*
X94495415Y-85247683D01*
X94487447Y-85246421D01*
X94476786Y-85246421D01*
X94435125Y-85238134D01*
X94348083Y-85224348D01*
X94320086Y-85215251D01*
X94293939Y-85210050D01*
X94257035Y-85194764D01*
X94206215Y-85178251D01*
X94158605Y-85153993D01*
X94121702Y-85138707D01*
X94099533Y-85123894D01*
X94073306Y-85110531D01*
X94002014Y-85058734D01*
X93966692Y-85035133D01*
X93959152Y-85027593D01*
X93952629Y-85022854D01*
X93847145Y-84917370D01*
X93842405Y-84910846D01*
X93834867Y-84903308D01*
X93811268Y-84867990D01*
X93759468Y-84796693D01*
X93746103Y-84770463D01*
X93731293Y-84748298D01*
X93716009Y-84711399D01*
X93691748Y-84663784D01*
X93675232Y-84612956D01*
X93659950Y-84576061D01*
X93654749Y-84549918D01*
X93645651Y-84521916D01*
X93631864Y-84434867D01*
X93623579Y-84393214D01*
X93623579Y-84382552D01*
X93622317Y-84374584D01*
X93622317Y-84225415D01*
X93623579Y-84217446D01*
X93623579Y-84206786D01*
X93631863Y-84165136D01*
X93645651Y-84078083D01*
X93654750Y-84050078D01*
X93659950Y-84023939D01*
X93675231Y-83987046D01*
X93691748Y-83936215D01*
X93716011Y-83888595D01*
X93731293Y-83851702D01*
X93746101Y-83829539D01*
X93759468Y-83803306D01*
X93811277Y-83731996D01*
X93834867Y-83696692D01*
X93842402Y-83689156D01*
X93847145Y-83682629D01*
X93952629Y-83577145D01*
X93959156Y-83572402D01*
X93966692Y-83564867D01*
X94001996Y-83541277D01*
X94073306Y-83489468D01*
X94099539Y-83476101D01*
X94121702Y-83461293D01*
X94158595Y-83446011D01*
X94206215Y-83421748D01*
X94257046Y-83405231D01*
X94293939Y-83389950D01*
X94320078Y-83384750D01*
X94348083Y-83375651D01*
X94435136Y-83361863D01*
X94476786Y-83353579D01*
X94487447Y-83353579D01*
X94495415Y-83352317D01*
X94644585Y-83352317D01*
X94652553Y-83353579D01*
G37*
G36*
X57447032Y-80185644D02*
G01*
X57601159Y-80249485D01*
X57739869Y-80342168D01*
X57857832Y-80460131D01*
X57950515Y-80598841D01*
X58014356Y-80752968D01*
X58046902Y-80916587D01*
X58046902Y-81083413D01*
X58014356Y-81247032D01*
X57950515Y-81401159D01*
X57857832Y-81539869D01*
X57739869Y-81657832D01*
X57601159Y-81750515D01*
X57447032Y-81814356D01*
X57283413Y-81846902D01*
X57116587Y-81846902D01*
X56952968Y-81814356D01*
X56798841Y-81750515D01*
X56660131Y-81657832D01*
X56542168Y-81539869D01*
X56449485Y-81401159D01*
X56385644Y-81247032D01*
X56353098Y-81083413D01*
X56353098Y-80916587D01*
X56385644Y-80752968D01*
X56449485Y-80598841D01*
X56542168Y-80460131D01*
X56660131Y-80342168D01*
X56798841Y-80249485D01*
X56952968Y-80185644D01*
X57116587Y-80153098D01*
X57283413Y-80153098D01*
X57447032Y-80185644D01*
G37*
G36*
X67327032Y-80185644D02*
G01*
X67481159Y-80249485D01*
X67619869Y-80342168D01*
X67737832Y-80460131D01*
X67830515Y-80598841D01*
X67894356Y-80752968D01*
X67926902Y-80916587D01*
X67926902Y-81083413D01*
X67894356Y-81247032D01*
X67830515Y-81401159D01*
X67737832Y-81539869D01*
X67619869Y-81657832D01*
X67481159Y-81750515D01*
X67327032Y-81814356D01*
X67163413Y-81846902D01*
X66996587Y-81846902D01*
X66832968Y-81814356D01*
X66678841Y-81750515D01*
X66540131Y-81657832D01*
X66422168Y-81539869D01*
X66329485Y-81401159D01*
X66265644Y-81247032D01*
X66233098Y-81083413D01*
X66233098Y-80916587D01*
X66265644Y-80752968D01*
X66329485Y-80598841D01*
X66422168Y-80460131D01*
X66540131Y-80342168D01*
X66678841Y-80249485D01*
X66832968Y-80185644D01*
X66996587Y-80153098D01*
X67163413Y-80153098D01*
X67327032Y-80185644D01*
G37*
G36*
X74897032Y-80185644D02*
G01*
X75051159Y-80249485D01*
X75189869Y-80342168D01*
X75307832Y-80460131D01*
X75400515Y-80598841D01*
X75464356Y-80752968D01*
X75496902Y-80916587D01*
X75496902Y-81083413D01*
X75464356Y-81247032D01*
X75400515Y-81401159D01*
X75307832Y-81539869D01*
X75189869Y-81657832D01*
X75051159Y-81750515D01*
X74897032Y-81814356D01*
X74733413Y-81846902D01*
X74566587Y-81846902D01*
X74402968Y-81814356D01*
X74248841Y-81750515D01*
X74110131Y-81657832D01*
X73992168Y-81539869D01*
X73899485Y-81401159D01*
X73835644Y-81247032D01*
X73803098Y-81083413D01*
X73803098Y-80916587D01*
X73835644Y-80752968D01*
X73899485Y-80598841D01*
X73992168Y-80460131D01*
X74110131Y-80342168D01*
X74248841Y-80249485D01*
X74402968Y-80185644D01*
X74566587Y-80153098D01*
X74733413Y-80153098D01*
X74897032Y-80185644D01*
G37*
G36*
X87597032Y-80185644D02*
G01*
X87751159Y-80249485D01*
X87889869Y-80342168D01*
X88007832Y-80460131D01*
X88100515Y-80598841D01*
X88164356Y-80752968D01*
X88196902Y-80916587D01*
X88196902Y-81083413D01*
X88164356Y-81247032D01*
X88100515Y-81401159D01*
X88007832Y-81539869D01*
X87889869Y-81657832D01*
X87751159Y-81750515D01*
X87597032Y-81814356D01*
X87433413Y-81846902D01*
X87266587Y-81846902D01*
X87102968Y-81814356D01*
X86948841Y-81750515D01*
X86810131Y-81657832D01*
X86692168Y-81539869D01*
X86599485Y-81401159D01*
X86535644Y-81247032D01*
X86503098Y-81083413D01*
X86503098Y-80916587D01*
X86535644Y-80752968D01*
X86599485Y-80598841D01*
X86692168Y-80460131D01*
X86810131Y-80342168D01*
X86948841Y-80249485D01*
X87102968Y-80185644D01*
X87266587Y-80153098D01*
X87433413Y-80153098D01*
X87597032Y-80185644D01*
G37*
G36*
X62887032Y-80165644D02*
G01*
X63041159Y-80229485D01*
X63179869Y-80322168D01*
X63297832Y-80440131D01*
X63390515Y-80578841D01*
X63454356Y-80732968D01*
X63486902Y-80896587D01*
X63486902Y-81063413D01*
X63454356Y-81227032D01*
X63390515Y-81381159D01*
X63297832Y-81519869D01*
X63179869Y-81637832D01*
X63041159Y-81730515D01*
X62887032Y-81794356D01*
X62723413Y-81826902D01*
X62556587Y-81826902D01*
X62392968Y-81794356D01*
X62238841Y-81730515D01*
X62100131Y-81637832D01*
X61982168Y-81519869D01*
X61889485Y-81381159D01*
X61825644Y-81227032D01*
X61793098Y-81063413D01*
X61793098Y-80896587D01*
X61825644Y-80732968D01*
X61889485Y-80578841D01*
X61982168Y-80440131D01*
X62100131Y-80322168D01*
X62238841Y-80229485D01*
X62392968Y-80165644D01*
X62556587Y-80133098D01*
X62723413Y-80133098D01*
X62887032Y-80165644D01*
G37*
G36*
X71707032Y-80155644D02*
G01*
X71861159Y-80219485D01*
X71999869Y-80312168D01*
X72117832Y-80430131D01*
X72210515Y-80568841D01*
X72274356Y-80722968D01*
X72306902Y-80886587D01*
X72306902Y-81053413D01*
X72274356Y-81217032D01*
X72210515Y-81371159D01*
X72117832Y-81509869D01*
X71999869Y-81627832D01*
X71861159Y-81720515D01*
X71707032Y-81784356D01*
X71543413Y-81816902D01*
X71376587Y-81816902D01*
X71212968Y-81784356D01*
X71058841Y-81720515D01*
X70920131Y-81627832D01*
X70802168Y-81509869D01*
X70709485Y-81371159D01*
X70645644Y-81217032D01*
X70613098Y-81053413D01*
X70613098Y-80886587D01*
X70645644Y-80722968D01*
X70709485Y-80568841D01*
X70802168Y-80430131D01*
X70920131Y-80312168D01*
X71058841Y-80219485D01*
X71212968Y-80155644D01*
X71376587Y-80123098D01*
X71543413Y-80123098D01*
X71707032Y-80155644D01*
G37*
G36*
X90947032Y-80135644D02*
G01*
X91101159Y-80199485D01*
X91239869Y-80292168D01*
X91357832Y-80410131D01*
X91450515Y-80548841D01*
X91514356Y-80702968D01*
X91546902Y-80866587D01*
X91546902Y-81033413D01*
X91514356Y-81197032D01*
X91450515Y-81351159D01*
X91357832Y-81489869D01*
X91239869Y-81607832D01*
X91101159Y-81700515D01*
X90947032Y-81764356D01*
X90783413Y-81796902D01*
X90616587Y-81796902D01*
X90452968Y-81764356D01*
X90298841Y-81700515D01*
X90160131Y-81607832D01*
X90042168Y-81489869D01*
X89949485Y-81351159D01*
X89885644Y-81197032D01*
X89853098Y-81033413D01*
X89853098Y-80866587D01*
X89885644Y-80702968D01*
X89949485Y-80548841D01*
X90042168Y-80410131D01*
X90160131Y-80292168D01*
X90298841Y-80199485D01*
X90452968Y-80135644D01*
X90616587Y-80103098D01*
X90783413Y-80103098D01*
X90947032Y-80135644D01*
G37*
G36*
X94847032Y-80135644D02*
G01*
X95001159Y-80199485D01*
X95139869Y-80292168D01*
X95257832Y-80410131D01*
X95350515Y-80548841D01*
X95414356Y-80702968D01*
X95446902Y-80866587D01*
X95446902Y-81033413D01*
X95414356Y-81197032D01*
X95350515Y-81351159D01*
X95257832Y-81489869D01*
X95139869Y-81607832D01*
X95001159Y-81700515D01*
X94847032Y-81764356D01*
X94683413Y-81796902D01*
X94516587Y-81796902D01*
X94352968Y-81764356D01*
X94198841Y-81700515D01*
X94060131Y-81607832D01*
X93942168Y-81489869D01*
X93849485Y-81351159D01*
X93785644Y-81197032D01*
X93753098Y-81033413D01*
X93753098Y-80866587D01*
X93785644Y-80702968D01*
X93849485Y-80548841D01*
X93942168Y-80410131D01*
X94060131Y-80292168D01*
X94198841Y-80199485D01*
X94352968Y-80135644D01*
X94516587Y-80103098D01*
X94683413Y-80103098D01*
X94847032Y-80135644D01*
G37*
G36*
X128291498Y-78054061D02*
G01*
X128303016Y-78054061D01*
X128348023Y-78063013D01*
X128445260Y-78078414D01*
X128476536Y-78088576D01*
X128505089Y-78094256D01*
X128545387Y-78110948D01*
X128602052Y-78129360D01*
X128655135Y-78156407D01*
X128695438Y-78173101D01*
X128719647Y-78189277D01*
X128748943Y-78204204D01*
X128828583Y-78262066D01*
X128866747Y-78287566D01*
X128874891Y-78295710D01*
X128882315Y-78301104D01*
X128998895Y-78417684D01*
X129004288Y-78425107D01*
X129012434Y-78433253D01*
X129037936Y-78471420D01*
X129095795Y-78551056D01*
X129110720Y-78580348D01*
X129126899Y-78604562D01*
X129143594Y-78644869D01*
X129170639Y-78697947D01*
X129189048Y-78754604D01*
X129205744Y-78794911D01*
X129211424Y-78823469D01*
X129221585Y-78854739D01*
X129236984Y-78951967D01*
X129245939Y-78996984D01*
X129245939Y-79008502D01*
X129247375Y-79017569D01*
X129247375Y-79182430D01*
X129245939Y-79191496D01*
X129245939Y-79203016D01*
X129236983Y-79248035D01*
X129221585Y-79345260D01*
X129211425Y-79376528D01*
X129205744Y-79405089D01*
X129189047Y-79445398D01*
X129170639Y-79502052D01*
X129143596Y-79555125D01*
X129126899Y-79595438D01*
X129110718Y-79619654D01*
X129095795Y-79648943D01*
X129037945Y-79728566D01*
X129012434Y-79766747D01*
X129004285Y-79774895D01*
X128998895Y-79782315D01*
X128882315Y-79898895D01*
X128874895Y-79904285D01*
X128866747Y-79912434D01*
X128828566Y-79937945D01*
X128748943Y-79995795D01*
X128719654Y-80010718D01*
X128695438Y-80026899D01*
X128655125Y-80043596D01*
X128602052Y-80070639D01*
X128545398Y-80089047D01*
X128505089Y-80105744D01*
X128476528Y-80111425D01*
X128445260Y-80121585D01*
X128348033Y-80136984D01*
X128303016Y-80145939D01*
X128291497Y-80145939D01*
X128282431Y-80147375D01*
X128117569Y-80147375D01*
X128108503Y-80145939D01*
X128096984Y-80145939D01*
X128051967Y-80136984D01*
X127954739Y-80121585D01*
X127923469Y-80111424D01*
X127894911Y-80105744D01*
X127854604Y-80089048D01*
X127797947Y-80070639D01*
X127744869Y-80043594D01*
X127704562Y-80026899D01*
X127680348Y-80010720D01*
X127651056Y-79995795D01*
X127571420Y-79937936D01*
X127533253Y-79912434D01*
X127525107Y-79904288D01*
X127517684Y-79898895D01*
X127401104Y-79782315D01*
X127395710Y-79774891D01*
X127387566Y-79766747D01*
X127362066Y-79728583D01*
X127304204Y-79648943D01*
X127289277Y-79619647D01*
X127273101Y-79595438D01*
X127256407Y-79555135D01*
X127229360Y-79502052D01*
X127210948Y-79445387D01*
X127194256Y-79405089D01*
X127188576Y-79376536D01*
X127178414Y-79345260D01*
X127163014Y-79248026D01*
X127154061Y-79203016D01*
X127154061Y-79191496D01*
X127152625Y-79182430D01*
X127152625Y-79017569D01*
X127154061Y-79008502D01*
X127154061Y-78996984D01*
X127163013Y-78951977D01*
X127178414Y-78854739D01*
X127188576Y-78823461D01*
X127194256Y-78794911D01*
X127210946Y-78754616D01*
X127229360Y-78697947D01*
X127256409Y-78644858D01*
X127273101Y-78604562D01*
X127289275Y-78580355D01*
X127304204Y-78551056D01*
X127362074Y-78471403D01*
X127387566Y-78433253D01*
X127395707Y-78425111D01*
X127401104Y-78417684D01*
X127517684Y-78301104D01*
X127525111Y-78295707D01*
X127533253Y-78287566D01*
X127571403Y-78262074D01*
X127651056Y-78204204D01*
X127680355Y-78189275D01*
X127704562Y-78173101D01*
X127744858Y-78156409D01*
X127797947Y-78129360D01*
X127854616Y-78110946D01*
X127894911Y-78094256D01*
X127923461Y-78088576D01*
X127954739Y-78078414D01*
X128051977Y-78063013D01*
X128096984Y-78054061D01*
X128108502Y-78054061D01*
X128117569Y-78052625D01*
X128282431Y-78052625D01*
X128291498Y-78054061D01*
G37*
G36*
X120656373Y-75957024D02*
G01*
X120919558Y-76027545D01*
X121171287Y-76131814D01*
X121407253Y-76268049D01*
X121623417Y-76433918D01*
X121816082Y-76626583D01*
X121981951Y-76842747D01*
X122118186Y-77078713D01*
X122222455Y-77330442D01*
X122292976Y-77593627D01*
X122328540Y-77863765D01*
X122328540Y-78136235D01*
X122292976Y-78406373D01*
X122222455Y-78669558D01*
X122118186Y-78921287D01*
X121981951Y-79157253D01*
X121816082Y-79373417D01*
X121623417Y-79566082D01*
X121407253Y-79731951D01*
X121171287Y-79868186D01*
X120919558Y-79972455D01*
X120656373Y-80042976D01*
X120386235Y-80078540D01*
X120113765Y-80078540D01*
X119843627Y-80042976D01*
X119580442Y-79972455D01*
X119328713Y-79868186D01*
X119092747Y-79731951D01*
X118876583Y-79566082D01*
X118683918Y-79373417D01*
X118518049Y-79157253D01*
X118381814Y-78921287D01*
X118277545Y-78669558D01*
X118207024Y-78406373D01*
X118171460Y-78136235D01*
X118171460Y-77863765D01*
X118207024Y-77593627D01*
X118277545Y-77330442D01*
X118381814Y-77078713D01*
X118518049Y-76842747D01*
X118683918Y-76626583D01*
X118876583Y-76433918D01*
X119092747Y-76268049D01*
X119328713Y-76131814D01*
X119580442Y-76027545D01*
X119843627Y-75957024D01*
X120113765Y-75921460D01*
X120386235Y-75921460D01*
X120656373Y-75957024D01*
G37*
G36*
X47041498Y-77804061D02*
G01*
X47053016Y-77804061D01*
X47098023Y-77813013D01*
X47195260Y-77828414D01*
X47226536Y-77838576D01*
X47255089Y-77844256D01*
X47295387Y-77860948D01*
X47352052Y-77879360D01*
X47405135Y-77906407D01*
X47445438Y-77923101D01*
X47469647Y-77939277D01*
X47498943Y-77954204D01*
X47578583Y-78012066D01*
X47616747Y-78037566D01*
X47624891Y-78045710D01*
X47632315Y-78051104D01*
X47748895Y-78167684D01*
X47754288Y-78175107D01*
X47762434Y-78183253D01*
X47787936Y-78221420D01*
X47845795Y-78301056D01*
X47860720Y-78330348D01*
X47876899Y-78354562D01*
X47893594Y-78394869D01*
X47920639Y-78447947D01*
X47939048Y-78504604D01*
X47955744Y-78544911D01*
X47961424Y-78573469D01*
X47971585Y-78604739D01*
X47986984Y-78701967D01*
X47995939Y-78746984D01*
X47995939Y-78758502D01*
X47997375Y-78767569D01*
X47997375Y-78932430D01*
X47995939Y-78941496D01*
X47995939Y-78953016D01*
X47986983Y-78998035D01*
X47971585Y-79095260D01*
X47961425Y-79126528D01*
X47955744Y-79155089D01*
X47939047Y-79195398D01*
X47920639Y-79252052D01*
X47893596Y-79305125D01*
X47876899Y-79345438D01*
X47860718Y-79369654D01*
X47845795Y-79398943D01*
X47787945Y-79478566D01*
X47762434Y-79516747D01*
X47754285Y-79524895D01*
X47748895Y-79532315D01*
X47632315Y-79648895D01*
X47624895Y-79654285D01*
X47616747Y-79662434D01*
X47578566Y-79687945D01*
X47498943Y-79745795D01*
X47469654Y-79760718D01*
X47445438Y-79776899D01*
X47405125Y-79793596D01*
X47352052Y-79820639D01*
X47295398Y-79839047D01*
X47255089Y-79855744D01*
X47226528Y-79861425D01*
X47195260Y-79871585D01*
X47098033Y-79886984D01*
X47053016Y-79895939D01*
X47041497Y-79895939D01*
X47032431Y-79897375D01*
X46867569Y-79897375D01*
X46858503Y-79895939D01*
X46846984Y-79895939D01*
X46801967Y-79886984D01*
X46704739Y-79871585D01*
X46673469Y-79861424D01*
X46644911Y-79855744D01*
X46604604Y-79839048D01*
X46547947Y-79820639D01*
X46494869Y-79793594D01*
X46454562Y-79776899D01*
X46430348Y-79760720D01*
X46401056Y-79745795D01*
X46321420Y-79687936D01*
X46283253Y-79662434D01*
X46275107Y-79654288D01*
X46267684Y-79648895D01*
X46151104Y-79532315D01*
X46145710Y-79524891D01*
X46137566Y-79516747D01*
X46112066Y-79478583D01*
X46054204Y-79398943D01*
X46039277Y-79369647D01*
X46023101Y-79345438D01*
X46006407Y-79305135D01*
X45979360Y-79252052D01*
X45960948Y-79195387D01*
X45944256Y-79155089D01*
X45938576Y-79126536D01*
X45928414Y-79095260D01*
X45913014Y-78998026D01*
X45904061Y-78953016D01*
X45904061Y-78941496D01*
X45902625Y-78932430D01*
X45902625Y-78767569D01*
X45904061Y-78758502D01*
X45904061Y-78746984D01*
X45913013Y-78701977D01*
X45928414Y-78604739D01*
X45938576Y-78573461D01*
X45944256Y-78544911D01*
X45960946Y-78504616D01*
X45979360Y-78447947D01*
X46006409Y-78394858D01*
X46023101Y-78354562D01*
X46039275Y-78330355D01*
X46054204Y-78301056D01*
X46112074Y-78221403D01*
X46137566Y-78183253D01*
X46145707Y-78175111D01*
X46151104Y-78167684D01*
X46267684Y-78051104D01*
X46275111Y-78045707D01*
X46283253Y-78037566D01*
X46321403Y-78012074D01*
X46401056Y-77954204D01*
X46430355Y-77939275D01*
X46454562Y-77923101D01*
X46494858Y-77906409D01*
X46547947Y-77879360D01*
X46604616Y-77860946D01*
X46644911Y-77844256D01*
X46673461Y-77838576D01*
X46704739Y-77828414D01*
X46801977Y-77813013D01*
X46846984Y-77804061D01*
X46858502Y-77804061D01*
X46867569Y-77802625D01*
X47032431Y-77802625D01*
X47041498Y-77804061D01*
G37*
G36*
X51541498Y-77804061D02*
G01*
X51553016Y-77804061D01*
X51598023Y-77813013D01*
X51695260Y-77828414D01*
X51726536Y-77838576D01*
X51755089Y-77844256D01*
X51795387Y-77860948D01*
X51852052Y-77879360D01*
X51905135Y-77906407D01*
X51945438Y-77923101D01*
X51969647Y-77939277D01*
X51998943Y-77954204D01*
X52078583Y-78012066D01*
X52116747Y-78037566D01*
X52124891Y-78045710D01*
X52132315Y-78051104D01*
X52248895Y-78167684D01*
X52254288Y-78175107D01*
X52262434Y-78183253D01*
X52287936Y-78221420D01*
X52345795Y-78301056D01*
X52360720Y-78330348D01*
X52376899Y-78354562D01*
X52393594Y-78394869D01*
X52420639Y-78447947D01*
X52439048Y-78504604D01*
X52455744Y-78544911D01*
X52461424Y-78573469D01*
X52471585Y-78604739D01*
X52486984Y-78701967D01*
X52495939Y-78746984D01*
X52495939Y-78758502D01*
X52497375Y-78767569D01*
X52497375Y-78932430D01*
X52495939Y-78941496D01*
X52495939Y-78953016D01*
X52486983Y-78998035D01*
X52471585Y-79095260D01*
X52461425Y-79126528D01*
X52455744Y-79155089D01*
X52439047Y-79195398D01*
X52420639Y-79252052D01*
X52393596Y-79305125D01*
X52376899Y-79345438D01*
X52360718Y-79369654D01*
X52345795Y-79398943D01*
X52287945Y-79478566D01*
X52262434Y-79516747D01*
X52254285Y-79524895D01*
X52248895Y-79532315D01*
X52132315Y-79648895D01*
X52124895Y-79654285D01*
X52116747Y-79662434D01*
X52078566Y-79687945D01*
X51998943Y-79745795D01*
X51969654Y-79760718D01*
X51945438Y-79776899D01*
X51905125Y-79793596D01*
X51852052Y-79820639D01*
X51795398Y-79839047D01*
X51755089Y-79855744D01*
X51726528Y-79861425D01*
X51695260Y-79871585D01*
X51598033Y-79886984D01*
X51553016Y-79895939D01*
X51541497Y-79895939D01*
X51532431Y-79897375D01*
X51367569Y-79897375D01*
X51358503Y-79895939D01*
X51346984Y-79895939D01*
X51301967Y-79886984D01*
X51204739Y-79871585D01*
X51173469Y-79861424D01*
X51144911Y-79855744D01*
X51104604Y-79839048D01*
X51047947Y-79820639D01*
X50994869Y-79793594D01*
X50954562Y-79776899D01*
X50930348Y-79760720D01*
X50901056Y-79745795D01*
X50821420Y-79687936D01*
X50783253Y-79662434D01*
X50775107Y-79654288D01*
X50767684Y-79648895D01*
X50651104Y-79532315D01*
X50645710Y-79524891D01*
X50637566Y-79516747D01*
X50612066Y-79478583D01*
X50554204Y-79398943D01*
X50539277Y-79369647D01*
X50523101Y-79345438D01*
X50506407Y-79305135D01*
X50479360Y-79252052D01*
X50460948Y-79195387D01*
X50444256Y-79155089D01*
X50438576Y-79126536D01*
X50428414Y-79095260D01*
X50413014Y-78998026D01*
X50404061Y-78953016D01*
X50404061Y-78941496D01*
X50402625Y-78932430D01*
X50402625Y-78767569D01*
X50404061Y-78758502D01*
X50404061Y-78746984D01*
X50413013Y-78701977D01*
X50428414Y-78604739D01*
X50438576Y-78573461D01*
X50444256Y-78544911D01*
X50460946Y-78504616D01*
X50479360Y-78447947D01*
X50506409Y-78394858D01*
X50523101Y-78354562D01*
X50539275Y-78330355D01*
X50554204Y-78301056D01*
X50612074Y-78221403D01*
X50637566Y-78183253D01*
X50645707Y-78175111D01*
X50651104Y-78167684D01*
X50767684Y-78051104D01*
X50775111Y-78045707D01*
X50783253Y-78037566D01*
X50821403Y-78012074D01*
X50901056Y-77954204D01*
X50930355Y-77939275D01*
X50954562Y-77923101D01*
X50994858Y-77906409D01*
X51047947Y-77879360D01*
X51104616Y-77860946D01*
X51144911Y-77844256D01*
X51173461Y-77838576D01*
X51204739Y-77828414D01*
X51301977Y-77813013D01*
X51346984Y-77804061D01*
X51358502Y-77804061D01*
X51367569Y-77802625D01*
X51532431Y-77802625D01*
X51541498Y-77804061D01*
G37*
G36*
X78983413Y-75053098D02*
G01*
X79147032Y-75085644D01*
X79301159Y-75149485D01*
X79439869Y-75242168D01*
X79557832Y-75360131D01*
X79650515Y-75498841D01*
X79714356Y-75652968D01*
X79746902Y-75816587D01*
X79746902Y-75983413D01*
X79714356Y-76147032D01*
X79650515Y-76301159D01*
X79557832Y-76439869D01*
X79439869Y-76557832D01*
X79301159Y-76650515D01*
X79147032Y-76714356D01*
X78983413Y-76746902D01*
X78900000Y-76751000D01*
X78896939Y-76751000D01*
X78103061Y-76751000D01*
X78100000Y-76751000D01*
X78016587Y-76746902D01*
X77852968Y-76714356D01*
X77698841Y-76650515D01*
X77560131Y-76557832D01*
X77442168Y-76439869D01*
X77349485Y-76301159D01*
X77285644Y-76147032D01*
X77253098Y-75983413D01*
X77253098Y-75816587D01*
X77285644Y-75652968D01*
X77349485Y-75498841D01*
X77442168Y-75360131D01*
X77560131Y-75242168D01*
X77698841Y-75149485D01*
X77852968Y-75085644D01*
X78016587Y-75053098D01*
X78100000Y-75049000D01*
X78900000Y-75049000D01*
X78983413Y-75053098D01*
G37*
G36*
X86603413Y-75053098D02*
G01*
X86767032Y-75085644D01*
X86921159Y-75149485D01*
X87059869Y-75242168D01*
X87177832Y-75360131D01*
X87270515Y-75498841D01*
X87334356Y-75652968D01*
X87366902Y-75816587D01*
X87366902Y-75983413D01*
X87334356Y-76147032D01*
X87270515Y-76301159D01*
X87177832Y-76439869D01*
X87059869Y-76557832D01*
X86921159Y-76650515D01*
X86767032Y-76714356D01*
X86603413Y-76746902D01*
X86520000Y-76751000D01*
X86516939Y-76751000D01*
X85723061Y-76751000D01*
X85720000Y-76751000D01*
X85636587Y-76746902D01*
X85472968Y-76714356D01*
X85318841Y-76650515D01*
X85180131Y-76557832D01*
X85062168Y-76439869D01*
X84969485Y-76301159D01*
X84905644Y-76147032D01*
X84873098Y-75983413D01*
X84873098Y-75816587D01*
X84905644Y-75652968D01*
X84969485Y-75498841D01*
X85062168Y-75360131D01*
X85180131Y-75242168D01*
X85318841Y-75149485D01*
X85472968Y-75085644D01*
X85636587Y-75053098D01*
X85720000Y-75049000D01*
X86520000Y-75049000D01*
X86603413Y-75053098D01*
G37*
G36*
X128291498Y-72974061D02*
G01*
X128303016Y-72974061D01*
X128348023Y-72983013D01*
X128445260Y-72998414D01*
X128476536Y-73008576D01*
X128505089Y-73014256D01*
X128545387Y-73030948D01*
X128602052Y-73049360D01*
X128655135Y-73076407D01*
X128695438Y-73093101D01*
X128719647Y-73109277D01*
X128748943Y-73124204D01*
X128828583Y-73182066D01*
X128866747Y-73207566D01*
X128874891Y-73215710D01*
X128882315Y-73221104D01*
X128998895Y-73337684D01*
X129004288Y-73345107D01*
X129012434Y-73353253D01*
X129037936Y-73391420D01*
X129095795Y-73471056D01*
X129110720Y-73500348D01*
X129126899Y-73524562D01*
X129143594Y-73564869D01*
X129170639Y-73617947D01*
X129189048Y-73674604D01*
X129205744Y-73714911D01*
X129211424Y-73743469D01*
X129221585Y-73774739D01*
X129236984Y-73871967D01*
X129245939Y-73916984D01*
X129245939Y-73928502D01*
X129247375Y-73937569D01*
X129247375Y-74102430D01*
X129245939Y-74111496D01*
X129245939Y-74123016D01*
X129236983Y-74168035D01*
X129221585Y-74265260D01*
X129211425Y-74296528D01*
X129205744Y-74325089D01*
X129189047Y-74365398D01*
X129170639Y-74422052D01*
X129143596Y-74475125D01*
X129126899Y-74515438D01*
X129110718Y-74539654D01*
X129095795Y-74568943D01*
X129037945Y-74648566D01*
X129012434Y-74686747D01*
X129004285Y-74694895D01*
X128998895Y-74702315D01*
X128882315Y-74818895D01*
X128874895Y-74824285D01*
X128866747Y-74832434D01*
X128828566Y-74857945D01*
X128748943Y-74915795D01*
X128719654Y-74930718D01*
X128695438Y-74946899D01*
X128655125Y-74963596D01*
X128602052Y-74990639D01*
X128545398Y-75009047D01*
X128505089Y-75025744D01*
X128476528Y-75031425D01*
X128445260Y-75041585D01*
X128348033Y-75056984D01*
X128303016Y-75065939D01*
X128291497Y-75065939D01*
X128282431Y-75067375D01*
X128117569Y-75067375D01*
X128108503Y-75065939D01*
X128096984Y-75065939D01*
X128051967Y-75056984D01*
X127954739Y-75041585D01*
X127923469Y-75031424D01*
X127894911Y-75025744D01*
X127854604Y-75009048D01*
X127797947Y-74990639D01*
X127744869Y-74963594D01*
X127704562Y-74946899D01*
X127680348Y-74930720D01*
X127651056Y-74915795D01*
X127571420Y-74857936D01*
X127533253Y-74832434D01*
X127525107Y-74824288D01*
X127517684Y-74818895D01*
X127401104Y-74702315D01*
X127395710Y-74694891D01*
X127387566Y-74686747D01*
X127362066Y-74648583D01*
X127304204Y-74568943D01*
X127289277Y-74539647D01*
X127273101Y-74515438D01*
X127256407Y-74475135D01*
X127229360Y-74422052D01*
X127210948Y-74365387D01*
X127194256Y-74325089D01*
X127188576Y-74296536D01*
X127178414Y-74265260D01*
X127163014Y-74168026D01*
X127154061Y-74123016D01*
X127154061Y-74111496D01*
X127152625Y-74102430D01*
X127152625Y-73937569D01*
X127154061Y-73928502D01*
X127154061Y-73916984D01*
X127163013Y-73871977D01*
X127178414Y-73774739D01*
X127188576Y-73743461D01*
X127194256Y-73714911D01*
X127210946Y-73674616D01*
X127229360Y-73617947D01*
X127256409Y-73564858D01*
X127273101Y-73524562D01*
X127289275Y-73500355D01*
X127304204Y-73471056D01*
X127362074Y-73391403D01*
X127387566Y-73353253D01*
X127395707Y-73345111D01*
X127401104Y-73337684D01*
X127517684Y-73221104D01*
X127525111Y-73215707D01*
X127533253Y-73207566D01*
X127571403Y-73182074D01*
X127651056Y-73124204D01*
X127680355Y-73109275D01*
X127704562Y-73093101D01*
X127744858Y-73076409D01*
X127797947Y-73049360D01*
X127854616Y-73030946D01*
X127894911Y-73014256D01*
X127923461Y-73008576D01*
X127954739Y-72998414D01*
X128051977Y-72983013D01*
X128096984Y-72974061D01*
X128108502Y-72974061D01*
X128117569Y-72972625D01*
X128282431Y-72972625D01*
X128291498Y-72974061D01*
G37*
G36*
X51568696Y-72430802D02*
G01*
X51740469Y-72486615D01*
X51901396Y-72568611D01*
X52047515Y-72674773D01*
X52175227Y-72802485D01*
X52281389Y-72948604D01*
X52363385Y-73109531D01*
X52419198Y-73281304D01*
X52447452Y-73459694D01*
X52447452Y-73640306D01*
X52419198Y-73818696D01*
X52363385Y-73990469D01*
X52281389Y-74151396D01*
X52175227Y-74297515D01*
X52047515Y-74425227D01*
X51901396Y-74531389D01*
X51740469Y-74613385D01*
X51568696Y-74669198D01*
X51390306Y-74697452D01*
X51209694Y-74697452D01*
X51031304Y-74669198D01*
X50859531Y-74613385D01*
X50698604Y-74531389D01*
X50552485Y-74425227D01*
X50424773Y-74297515D01*
X50318611Y-74151396D01*
X50236615Y-73990469D01*
X50180802Y-73818696D01*
X50152548Y-73640306D01*
X50152548Y-73459694D01*
X50180802Y-73281304D01*
X50236615Y-73109531D01*
X50318611Y-72948604D01*
X50424773Y-72802485D01*
X50552485Y-72674773D01*
X50698604Y-72568611D01*
X50859531Y-72486615D01*
X51031304Y-72430802D01*
X51209694Y-72402548D01*
X51390306Y-72402548D01*
X51568696Y-72430802D01*
G37*
G36*
X47247032Y-72735644D02*
G01*
X47401159Y-72799485D01*
X47539869Y-72892168D01*
X47657832Y-73010131D01*
X47750515Y-73148841D01*
X47814356Y-73302968D01*
X47846902Y-73466587D01*
X47846902Y-73633413D01*
X47814356Y-73797032D01*
X47750515Y-73951159D01*
X47657832Y-74089869D01*
X47539869Y-74207832D01*
X47401159Y-74300515D01*
X47247032Y-74364356D01*
X47083413Y-74396902D01*
X46916587Y-74396902D01*
X46752968Y-74364356D01*
X46598841Y-74300515D01*
X46460131Y-74207832D01*
X46342168Y-74089869D01*
X46249485Y-73951159D01*
X46185644Y-73797032D01*
X46153098Y-73633413D01*
X46153098Y-73466587D01*
X46185644Y-73302968D01*
X46249485Y-73148841D01*
X46342168Y-73010131D01*
X46460131Y-72892168D01*
X46598841Y-72799485D01*
X46752968Y-72735644D01*
X46916587Y-72703098D01*
X47083413Y-72703098D01*
X47247032Y-72735644D01*
G37*
G36*
X78983413Y-72513098D02*
G01*
X79147032Y-72545644D01*
X79301159Y-72609485D01*
X79439869Y-72702168D01*
X79557832Y-72820131D01*
X79650515Y-72958841D01*
X79714356Y-73112968D01*
X79746902Y-73276587D01*
X79746902Y-73443413D01*
X79714356Y-73607032D01*
X79650515Y-73761159D01*
X79557832Y-73899869D01*
X79439869Y-74017832D01*
X79301159Y-74110515D01*
X79147032Y-74174356D01*
X78983413Y-74206902D01*
X78900000Y-74211000D01*
X78896939Y-74211000D01*
X78103061Y-74211000D01*
X78100000Y-74211000D01*
X78016587Y-74206902D01*
X77852968Y-74174356D01*
X77698841Y-74110515D01*
X77560131Y-74017832D01*
X77442168Y-73899869D01*
X77349485Y-73761159D01*
X77285644Y-73607032D01*
X77253098Y-73443413D01*
X77253098Y-73276587D01*
X77285644Y-73112968D01*
X77349485Y-72958841D01*
X77442168Y-72820131D01*
X77560131Y-72702168D01*
X77698841Y-72609485D01*
X77852968Y-72545644D01*
X78016587Y-72513098D01*
X78100000Y-72509000D01*
X78900000Y-72509000D01*
X78983413Y-72513098D01*
G37*
G36*
X86603413Y-72513098D02*
G01*
X86767032Y-72545644D01*
X86921159Y-72609485D01*
X87059869Y-72702168D01*
X87177832Y-72820131D01*
X87270515Y-72958841D01*
X87334356Y-73112968D01*
X87366902Y-73276587D01*
X87366902Y-73443413D01*
X87334356Y-73607032D01*
X87270515Y-73761159D01*
X87177832Y-73899869D01*
X87059869Y-74017832D01*
X86921159Y-74110515D01*
X86767032Y-74174356D01*
X86603413Y-74206902D01*
X86520000Y-74211000D01*
X86516939Y-74211000D01*
X85723061Y-74211000D01*
X85720000Y-74211000D01*
X85636587Y-74206902D01*
X85472968Y-74174356D01*
X85318841Y-74110515D01*
X85180131Y-74017832D01*
X85062168Y-73899869D01*
X84969485Y-73761159D01*
X84905644Y-73607032D01*
X84873098Y-73443413D01*
X84873098Y-73276587D01*
X84905644Y-73112968D01*
X84969485Y-72958841D01*
X85062168Y-72820131D01*
X85180131Y-72702168D01*
X85318841Y-72609485D01*
X85472968Y-72545644D01*
X85636587Y-72513098D01*
X85720000Y-72509000D01*
X86520000Y-72509000D01*
X86603413Y-72513098D01*
G37*
G36*
X105918914Y-69231995D02*
G01*
X105934726Y-69238976D01*
X105942531Y-69240213D01*
X105975039Y-69256776D01*
X106020106Y-69276676D01*
X106098324Y-69354894D01*
X106118226Y-69399967D01*
X106134786Y-69432468D01*
X106136021Y-69440270D01*
X106143005Y-69456086D01*
X106151000Y-69525000D01*
X106151000Y-72225000D01*
X106143005Y-72293914D01*
X106136021Y-72309729D01*
X106134786Y-72317531D01*
X106118229Y-72350024D01*
X106098324Y-72395106D01*
X106020106Y-72473324D01*
X105975024Y-72493229D01*
X105942531Y-72509786D01*
X105934729Y-72511021D01*
X105918914Y-72518005D01*
X105850000Y-72526000D01*
X103150000Y-72526000D01*
X103081086Y-72518005D01*
X103065270Y-72511021D01*
X103057468Y-72509786D01*
X103024967Y-72493226D01*
X102979894Y-72473324D01*
X102901676Y-72395106D01*
X102881776Y-72350039D01*
X102865213Y-72317531D01*
X102863976Y-72309726D01*
X102856995Y-72293914D01*
X102849000Y-72225000D01*
X102849000Y-69525000D01*
X102856995Y-69456086D01*
X102863976Y-69440274D01*
X102865213Y-69432468D01*
X102881780Y-69399953D01*
X102901676Y-69354894D01*
X102979894Y-69276676D01*
X103024953Y-69256780D01*
X103057468Y-69240213D01*
X103065274Y-69238976D01*
X103081086Y-69231995D01*
X103150000Y-69224000D01*
X105850000Y-69224000D01*
X105918914Y-69231995D01*
G37*
G36*
X111918914Y-69231995D02*
G01*
X111934726Y-69238976D01*
X111942531Y-69240213D01*
X111975039Y-69256776D01*
X112020106Y-69276676D01*
X112098324Y-69354894D01*
X112118226Y-69399967D01*
X112134786Y-69432468D01*
X112136021Y-69440270D01*
X112143005Y-69456086D01*
X112151000Y-69525000D01*
X112151000Y-72225000D01*
X112143005Y-72293914D01*
X112136021Y-72309729D01*
X112134786Y-72317531D01*
X112118229Y-72350024D01*
X112098324Y-72395106D01*
X112020106Y-72473324D01*
X111975024Y-72493229D01*
X111942531Y-72509786D01*
X111934729Y-72511021D01*
X111918914Y-72518005D01*
X111850000Y-72526000D01*
X109150000Y-72526000D01*
X109081086Y-72518005D01*
X109065270Y-72511021D01*
X109057468Y-72509786D01*
X109024967Y-72493226D01*
X108979894Y-72473324D01*
X108901676Y-72395106D01*
X108881776Y-72350039D01*
X108865213Y-72317531D01*
X108863976Y-72309726D01*
X108856995Y-72293914D01*
X108849000Y-72225000D01*
X108849000Y-69525000D01*
X108856995Y-69456086D01*
X108863976Y-69440274D01*
X108865213Y-69432468D01*
X108881780Y-69399953D01*
X108901676Y-69354894D01*
X108979894Y-69276676D01*
X109024953Y-69256780D01*
X109057468Y-69240213D01*
X109065274Y-69238976D01*
X109081086Y-69231995D01*
X109150000Y-69224000D01*
X111850000Y-69224000D01*
X111918914Y-69231995D01*
G37*
G36*
X78983413Y-69973098D02*
G01*
X79147032Y-70005644D01*
X79301159Y-70069485D01*
X79439869Y-70162168D01*
X79557832Y-70280131D01*
X79650515Y-70418841D01*
X79714356Y-70572968D01*
X79746902Y-70736587D01*
X79746902Y-70903413D01*
X79714356Y-71067032D01*
X79650515Y-71221159D01*
X79557832Y-71359869D01*
X79439869Y-71477832D01*
X79301159Y-71570515D01*
X79147032Y-71634356D01*
X78983413Y-71666902D01*
X78900000Y-71671000D01*
X78896939Y-71671000D01*
X78103061Y-71671000D01*
X78100000Y-71671000D01*
X78016587Y-71666902D01*
X77852968Y-71634356D01*
X77698841Y-71570515D01*
X77560131Y-71477832D01*
X77442168Y-71359869D01*
X77349485Y-71221159D01*
X77285644Y-71067032D01*
X77253098Y-70903413D01*
X77253098Y-70736587D01*
X77285644Y-70572968D01*
X77349485Y-70418841D01*
X77442168Y-70280131D01*
X77560131Y-70162168D01*
X77698841Y-70069485D01*
X77852968Y-70005644D01*
X78016587Y-69973098D01*
X78100000Y-69969000D01*
X78900000Y-69969000D01*
X78983413Y-69973098D01*
G37*
G36*
X86603413Y-69973098D02*
G01*
X86767032Y-70005644D01*
X86921159Y-70069485D01*
X87059869Y-70162168D01*
X87177832Y-70280131D01*
X87270515Y-70418841D01*
X87334356Y-70572968D01*
X87366902Y-70736587D01*
X87366902Y-70903413D01*
X87334356Y-71067032D01*
X87270515Y-71221159D01*
X87177832Y-71359869D01*
X87059869Y-71477832D01*
X86921159Y-71570515D01*
X86767032Y-71634356D01*
X86603413Y-71666902D01*
X86520000Y-71671000D01*
X86516939Y-71671000D01*
X85723061Y-71671000D01*
X85720000Y-71671000D01*
X85636587Y-71666902D01*
X85472968Y-71634356D01*
X85318841Y-71570515D01*
X85180131Y-71477832D01*
X85062168Y-71359869D01*
X84969485Y-71221159D01*
X84905644Y-71067032D01*
X84873098Y-70903413D01*
X84873098Y-70736587D01*
X84905644Y-70572968D01*
X84969485Y-70418841D01*
X85062168Y-70280131D01*
X85180131Y-70162168D01*
X85318841Y-70069485D01*
X85472968Y-70005644D01*
X85636587Y-69973098D01*
X85720000Y-69969000D01*
X86520000Y-69969000D01*
X86603413Y-69973098D01*
G37*
G36*
X57447032Y-67485644D02*
G01*
X57601159Y-67549485D01*
X57739869Y-67642168D01*
X57857832Y-67760131D01*
X57950515Y-67898841D01*
X58014356Y-68052968D01*
X58046902Y-68216587D01*
X58046902Y-68383413D01*
X58014356Y-68547032D01*
X57950515Y-68701159D01*
X57857832Y-68839869D01*
X57739869Y-68957832D01*
X57601159Y-69050515D01*
X57447032Y-69114356D01*
X57283413Y-69146902D01*
X57116587Y-69146902D01*
X56952968Y-69114356D01*
X56798841Y-69050515D01*
X56660131Y-68957832D01*
X56542168Y-68839869D01*
X56449485Y-68701159D01*
X56385644Y-68547032D01*
X56353098Y-68383413D01*
X56353098Y-68216587D01*
X56385644Y-68052968D01*
X56449485Y-67898841D01*
X56542168Y-67760131D01*
X56660131Y-67642168D01*
X56798841Y-67549485D01*
X56952968Y-67485644D01*
X57116587Y-67453098D01*
X57283413Y-67453098D01*
X57447032Y-67485644D01*
G37*
G36*
X67327032Y-67485644D02*
G01*
X67481159Y-67549485D01*
X67619869Y-67642168D01*
X67737832Y-67760131D01*
X67830515Y-67898841D01*
X67894356Y-68052968D01*
X67926902Y-68216587D01*
X67926902Y-68383413D01*
X67894356Y-68547032D01*
X67830515Y-68701159D01*
X67737832Y-68839869D01*
X67619869Y-68957832D01*
X67481159Y-69050515D01*
X67327032Y-69114356D01*
X67163413Y-69146902D01*
X66996587Y-69146902D01*
X66832968Y-69114356D01*
X66678841Y-69050515D01*
X66540131Y-68957832D01*
X66422168Y-68839869D01*
X66329485Y-68701159D01*
X66265644Y-68547032D01*
X66233098Y-68383413D01*
X66233098Y-68216587D01*
X66265644Y-68052968D01*
X66329485Y-67898841D01*
X66422168Y-67760131D01*
X66540131Y-67642168D01*
X66678841Y-67549485D01*
X66832968Y-67485644D01*
X66996587Y-67453098D01*
X67163413Y-67453098D01*
X67327032Y-67485644D01*
G37*
G36*
X79518914Y-67436995D02*
G01*
X79534726Y-67443976D01*
X79542531Y-67445213D01*
X79575039Y-67461776D01*
X79620106Y-67481676D01*
X79698324Y-67559894D01*
X79718226Y-67604967D01*
X79734786Y-67637468D01*
X79736021Y-67645270D01*
X79743005Y-67661086D01*
X79751000Y-67730000D01*
X79751000Y-68830000D01*
X79743005Y-68898914D01*
X79736021Y-68914729D01*
X79734786Y-68922531D01*
X79718229Y-68955024D01*
X79698324Y-69000106D01*
X79620106Y-69078324D01*
X79575024Y-69098229D01*
X79542531Y-69114786D01*
X79534729Y-69116021D01*
X79518914Y-69123005D01*
X79450000Y-69131000D01*
X77550000Y-69131000D01*
X77481086Y-69123005D01*
X77465270Y-69116021D01*
X77457468Y-69114786D01*
X77424967Y-69098226D01*
X77379894Y-69078324D01*
X77301676Y-69000106D01*
X77281776Y-68955039D01*
X77265213Y-68922531D01*
X77263976Y-68914726D01*
X77256995Y-68898914D01*
X77249000Y-68830000D01*
X77249000Y-67730000D01*
X77256995Y-67661086D01*
X77263976Y-67645274D01*
X77265213Y-67637468D01*
X77281780Y-67604953D01*
X77301676Y-67559894D01*
X77379894Y-67481676D01*
X77424953Y-67461780D01*
X77457468Y-67445213D01*
X77465274Y-67443976D01*
X77481086Y-67436995D01*
X77550000Y-67429000D01*
X79450000Y-67429000D01*
X79518914Y-67436995D01*
G37*
G36*
X86603413Y-67433098D02*
G01*
X86767032Y-67465644D01*
X86921159Y-67529485D01*
X87059869Y-67622168D01*
X87177832Y-67740131D01*
X87270515Y-67878841D01*
X87334356Y-68032968D01*
X87366902Y-68196587D01*
X87366902Y-68363413D01*
X87334356Y-68527032D01*
X87270515Y-68681159D01*
X87177832Y-68819869D01*
X87059869Y-68937832D01*
X86921159Y-69030515D01*
X86767032Y-69094356D01*
X86603413Y-69126902D01*
X86520000Y-69131000D01*
X86516939Y-69131000D01*
X85723061Y-69131000D01*
X85720000Y-69131000D01*
X85636587Y-69126902D01*
X85472968Y-69094356D01*
X85318841Y-69030515D01*
X85180131Y-68937832D01*
X85062168Y-68819869D01*
X84969485Y-68681159D01*
X84905644Y-68527032D01*
X84873098Y-68363413D01*
X84873098Y-68196587D01*
X84905644Y-68032968D01*
X84969485Y-67878841D01*
X85062168Y-67740131D01*
X85180131Y-67622168D01*
X85318841Y-67529485D01*
X85472968Y-67465644D01*
X85636587Y-67433098D01*
X85720000Y-67429000D01*
X86520000Y-67429000D01*
X86603413Y-67433098D01*
G37*
G36*
X62887032Y-67465644D02*
G01*
X63041159Y-67529485D01*
X63179869Y-67622168D01*
X63297832Y-67740131D01*
X63390515Y-67878841D01*
X63454356Y-68032968D01*
X63486902Y-68196587D01*
X63486902Y-68363413D01*
X63454356Y-68527032D01*
X63390515Y-68681159D01*
X63297832Y-68819869D01*
X63179869Y-68937832D01*
X63041159Y-69030515D01*
X62887032Y-69094356D01*
X62723413Y-69126902D01*
X62556587Y-69126902D01*
X62392968Y-69094356D01*
X62238841Y-69030515D01*
X62100131Y-68937832D01*
X61982168Y-68819869D01*
X61889485Y-68681159D01*
X61825644Y-68527032D01*
X61793098Y-68363413D01*
X61793098Y-68196587D01*
X61825644Y-68032968D01*
X61889485Y-67878841D01*
X61982168Y-67740131D01*
X62100131Y-67622168D01*
X62238841Y-67529485D01*
X62392968Y-67465644D01*
X62556587Y-67433098D01*
X62723413Y-67433098D01*
X62887032Y-67465644D01*
G37*
G36*
X71707032Y-67455644D02*
G01*
X71861159Y-67519485D01*
X71999869Y-67612168D01*
X72117832Y-67730131D01*
X72210515Y-67868841D01*
X72274356Y-68022968D01*
X72306902Y-68186587D01*
X72306902Y-68353413D01*
X72274356Y-68517032D01*
X72210515Y-68671159D01*
X72117832Y-68809869D01*
X71999869Y-68927832D01*
X71861159Y-69020515D01*
X71707032Y-69084356D01*
X71543413Y-69116902D01*
X71376587Y-69116902D01*
X71212968Y-69084356D01*
X71058841Y-69020515D01*
X70920131Y-68927832D01*
X70802168Y-68809869D01*
X70709485Y-68671159D01*
X70645644Y-68517032D01*
X70613098Y-68353413D01*
X70613098Y-68186587D01*
X70645644Y-68022968D01*
X70709485Y-67868841D01*
X70802168Y-67730131D01*
X70920131Y-67612168D01*
X71058841Y-67519485D01*
X71212968Y-67455644D01*
X71376587Y-67423098D01*
X71543413Y-67423098D01*
X71707032Y-67455644D01*
G37*
G36*
X90947032Y-67435644D02*
G01*
X91101159Y-67499485D01*
X91239869Y-67592168D01*
X91357832Y-67710131D01*
X91450515Y-67848841D01*
X91514356Y-68002968D01*
X91546902Y-68166587D01*
X91546902Y-68333413D01*
X91514356Y-68497032D01*
X91450515Y-68651159D01*
X91357832Y-68789869D01*
X91239869Y-68907832D01*
X91101159Y-69000515D01*
X90947032Y-69064356D01*
X90783413Y-69096902D01*
X90616587Y-69096902D01*
X90452968Y-69064356D01*
X90298841Y-69000515D01*
X90160131Y-68907832D01*
X90042168Y-68789869D01*
X89949485Y-68651159D01*
X89885644Y-68497032D01*
X89853098Y-68333413D01*
X89853098Y-68166587D01*
X89885644Y-68002968D01*
X89949485Y-67848841D01*
X90042168Y-67710131D01*
X90160131Y-67592168D01*
X90298841Y-67499485D01*
X90452968Y-67435644D01*
X90616587Y-67403098D01*
X90783413Y-67403098D01*
X90947032Y-67435644D01*
G37*
G36*
X94847032Y-67435644D02*
G01*
X95001159Y-67499485D01*
X95139869Y-67592168D01*
X95257832Y-67710131D01*
X95350515Y-67848841D01*
X95414356Y-68002968D01*
X95446902Y-68166587D01*
X95446902Y-68333413D01*
X95414356Y-68497032D01*
X95350515Y-68651159D01*
X95257832Y-68789869D01*
X95139869Y-68907832D01*
X95001159Y-69000515D01*
X94847032Y-69064356D01*
X94683413Y-69096902D01*
X94516587Y-69096902D01*
X94352968Y-69064356D01*
X94198841Y-69000515D01*
X94060131Y-68907832D01*
X93942168Y-68789869D01*
X93849485Y-68651159D01*
X93785644Y-68497032D01*
X93753098Y-68333413D01*
X93753098Y-68166587D01*
X93785644Y-68002968D01*
X93849485Y-67848841D01*
X93942168Y-67710131D01*
X94060131Y-67592168D01*
X94198841Y-67499485D01*
X94352968Y-67435644D01*
X94516587Y-67403098D01*
X94683413Y-67403098D01*
X94847032Y-67435644D01*
G37*
G36*
X40106373Y-62857024D02*
G01*
X40369558Y-62927545D01*
X40621287Y-63031814D01*
X40857253Y-63168049D01*
X41073417Y-63333918D01*
X41266082Y-63526583D01*
X41431951Y-63742747D01*
X41568186Y-63978713D01*
X41672455Y-64230442D01*
X41742976Y-64493627D01*
X41778540Y-64763765D01*
X41778540Y-65036235D01*
X41742976Y-65306373D01*
X41672455Y-65569558D01*
X41568186Y-65821287D01*
X41431951Y-66057253D01*
X41266082Y-66273417D01*
X41073417Y-66466082D01*
X40857253Y-66631951D01*
X40621287Y-66768186D01*
X40369558Y-66872455D01*
X40106373Y-66942976D01*
X39836235Y-66978540D01*
X39563765Y-66978540D01*
X39293627Y-66942976D01*
X39030442Y-66872455D01*
X38778713Y-66768186D01*
X38542747Y-66631951D01*
X38326583Y-66466082D01*
X38133918Y-66273417D01*
X37968049Y-66057253D01*
X37831814Y-65821287D01*
X37727545Y-65569558D01*
X37657024Y-65306373D01*
X37621460Y-65036235D01*
X37621460Y-64763765D01*
X37657024Y-64493627D01*
X37727545Y-64230442D01*
X37831814Y-63978713D01*
X37968049Y-63742747D01*
X38133918Y-63526583D01*
X38326583Y-63333918D01*
X38542747Y-63168049D01*
X38778713Y-63031814D01*
X39030442Y-62927545D01*
X39293627Y-62857024D01*
X39563765Y-62821460D01*
X39836235Y-62821460D01*
X40106373Y-62857024D01*
G37*
G36*
X68497032Y-63685644D02*
G01*
X68651159Y-63749485D01*
X68789869Y-63842168D01*
X68907832Y-63960131D01*
X69000515Y-64098841D01*
X69064356Y-64252968D01*
X69096902Y-64416587D01*
X69096902Y-64583413D01*
X69064356Y-64747032D01*
X69000515Y-64901159D01*
X68907832Y-65039869D01*
X68789869Y-65157832D01*
X68651159Y-65250515D01*
X68497032Y-65314356D01*
X68333413Y-65346902D01*
X68166587Y-65346902D01*
X68002968Y-65314356D01*
X67848841Y-65250515D01*
X67710131Y-65157832D01*
X67592168Y-65039869D01*
X67499485Y-64901159D01*
X67435644Y-64747032D01*
X67403098Y-64583413D01*
X67403098Y-64416587D01*
X67435644Y-64252968D01*
X67499485Y-64098841D01*
X67592168Y-63960131D01*
X67710131Y-63842168D01*
X67848841Y-63749485D01*
X68002968Y-63685644D01*
X68166587Y-63653098D01*
X68333413Y-63653098D01*
X68497032Y-63685644D01*
G37*
G36*
X81197032Y-63685644D02*
G01*
X81351159Y-63749485D01*
X81489869Y-63842168D01*
X81607832Y-63960131D01*
X81700515Y-64098841D01*
X81764356Y-64252968D01*
X81796902Y-64416587D01*
X81796902Y-64583413D01*
X81764356Y-64747032D01*
X81700515Y-64901159D01*
X81607832Y-65039869D01*
X81489869Y-65157832D01*
X81351159Y-65250515D01*
X81197032Y-65314356D01*
X81033413Y-65346902D01*
X80866587Y-65346902D01*
X80702968Y-65314356D01*
X80548841Y-65250515D01*
X80410131Y-65157832D01*
X80292168Y-65039869D01*
X80199485Y-64901159D01*
X80135644Y-64747032D01*
X80103098Y-64583413D01*
X80103098Y-64416587D01*
X80135644Y-64252968D01*
X80199485Y-64098841D01*
X80292168Y-63960131D01*
X80410131Y-63842168D01*
X80548841Y-63749485D01*
X80702968Y-63685644D01*
X80866587Y-63653098D01*
X81033413Y-63653098D01*
X81197032Y-63685644D01*
G37*
G36*
X83297032Y-63685644D02*
G01*
X83451159Y-63749485D01*
X83589869Y-63842168D01*
X83707832Y-63960131D01*
X83800515Y-64098841D01*
X83864356Y-64252968D01*
X83896902Y-64416587D01*
X83896902Y-64583413D01*
X83864356Y-64747032D01*
X83800515Y-64901159D01*
X83707832Y-65039869D01*
X83589869Y-65157832D01*
X83451159Y-65250515D01*
X83297032Y-65314356D01*
X83133413Y-65346902D01*
X82966587Y-65346902D01*
X82802968Y-65314356D01*
X82648841Y-65250515D01*
X82510131Y-65157832D01*
X82392168Y-65039869D01*
X82299485Y-64901159D01*
X82235644Y-64747032D01*
X82203098Y-64583413D01*
X82203098Y-64416587D01*
X82235644Y-64252968D01*
X82299485Y-64098841D01*
X82392168Y-63960131D01*
X82510131Y-63842168D01*
X82648841Y-63749485D01*
X82802968Y-63685644D01*
X82966587Y-63653098D01*
X83133413Y-63653098D01*
X83297032Y-63685644D01*
G37*
G36*
X95997032Y-63685644D02*
G01*
X96151159Y-63749485D01*
X96289869Y-63842168D01*
X96407832Y-63960131D01*
X96500515Y-64098841D01*
X96564356Y-64252968D01*
X96596902Y-64416587D01*
X96596902Y-64583413D01*
X96564356Y-64747032D01*
X96500515Y-64901159D01*
X96407832Y-65039869D01*
X96289869Y-65157832D01*
X96151159Y-65250515D01*
X95997032Y-65314356D01*
X95833413Y-65346902D01*
X95666587Y-65346902D01*
X95502968Y-65314356D01*
X95348841Y-65250515D01*
X95210131Y-65157832D01*
X95092168Y-65039869D01*
X94999485Y-64901159D01*
X94935644Y-64747032D01*
X94903098Y-64583413D01*
X94903098Y-64416587D01*
X94935644Y-64252968D01*
X94999485Y-64098841D01*
X95092168Y-63960131D01*
X95210131Y-63842168D01*
X95348841Y-63749485D01*
X95502968Y-63685644D01*
X95666587Y-63653098D01*
X95833413Y-63653098D01*
X95997032Y-63685644D01*
G37*
G36*
X120380482Y-61353781D02*
G01*
X120391690Y-61353781D01*
X120446888Y-61362523D01*
X120572534Y-61379065D01*
X120603189Y-61387279D01*
X120632074Y-61391854D01*
X120687620Y-61409902D01*
X120768467Y-61431565D01*
X120820050Y-61452931D01*
X120863542Y-61467063D01*
X120904286Y-61487823D01*
X120955870Y-61509190D01*
X121028353Y-61551038D01*
X121080395Y-61577555D01*
X121104055Y-61594745D01*
X121131539Y-61610613D01*
X121232074Y-61687756D01*
X121277294Y-61720610D01*
X121285219Y-61728535D01*
X121292466Y-61734096D01*
X121435903Y-61877533D01*
X121441463Y-61884779D01*
X121449390Y-61892706D01*
X121482247Y-61937930D01*
X121559386Y-62038460D01*
X121575252Y-62065941D01*
X121592445Y-62089605D01*
X121618964Y-62141652D01*
X121660809Y-62214129D01*
X121682173Y-62265706D01*
X121702937Y-62306458D01*
X121717070Y-62349955D01*
X121738434Y-62401532D01*
X121760093Y-62482366D01*
X121778146Y-62537926D01*
X121782721Y-62566816D01*
X121790934Y-62597465D01*
X121807474Y-62723099D01*
X121816219Y-62778310D01*
X121816219Y-62789518D01*
X121817412Y-62798580D01*
X121817412Y-63001419D01*
X121816219Y-63010480D01*
X121816219Y-63021690D01*
X121807473Y-63076905D01*
X121790934Y-63202534D01*
X121782722Y-63233180D01*
X121778146Y-63262074D01*
X121760091Y-63317638D01*
X121738434Y-63398467D01*
X121717071Y-63450039D01*
X121702937Y-63493542D01*
X121682171Y-63534297D01*
X121660809Y-63585870D01*
X121618968Y-63658338D01*
X121592445Y-63710395D01*
X121575249Y-63734062D01*
X121559386Y-63761539D01*
X121482261Y-63862050D01*
X121449390Y-63907294D01*
X121441459Y-63915224D01*
X121435903Y-63922466D01*
X121292466Y-64065903D01*
X121285224Y-64071459D01*
X121277294Y-64079390D01*
X121232050Y-64112261D01*
X121131539Y-64189386D01*
X121104062Y-64205249D01*
X121080395Y-64222445D01*
X121028338Y-64248968D01*
X120955870Y-64290809D01*
X120904297Y-64312171D01*
X120863542Y-64332937D01*
X120820039Y-64347071D01*
X120768467Y-64368434D01*
X120687638Y-64390091D01*
X120632074Y-64408146D01*
X120603180Y-64412722D01*
X120572534Y-64420934D01*
X120446902Y-64437474D01*
X120391690Y-64446219D01*
X120380481Y-64446219D01*
X120371420Y-64447412D01*
X120168580Y-64447412D01*
X120159519Y-64446219D01*
X120148310Y-64446219D01*
X120093099Y-64437474D01*
X119967465Y-64420934D01*
X119936816Y-64412721D01*
X119907926Y-64408146D01*
X119852366Y-64390093D01*
X119771532Y-64368434D01*
X119719955Y-64347070D01*
X119676458Y-64332937D01*
X119635706Y-64312173D01*
X119584129Y-64290809D01*
X119511652Y-64248964D01*
X119459605Y-64222445D01*
X119435941Y-64205252D01*
X119408460Y-64189386D01*
X119307930Y-64112247D01*
X119262706Y-64079390D01*
X119254779Y-64071463D01*
X119247533Y-64065903D01*
X119104096Y-63922466D01*
X119098535Y-63915219D01*
X119090610Y-63907294D01*
X119057756Y-63862074D01*
X118980613Y-63761539D01*
X118964745Y-63734055D01*
X118947555Y-63710395D01*
X118921038Y-63658353D01*
X118879190Y-63585870D01*
X118857823Y-63534286D01*
X118837063Y-63493542D01*
X118822931Y-63450050D01*
X118801565Y-63398467D01*
X118779902Y-63317620D01*
X118761854Y-63262074D01*
X118757279Y-63233189D01*
X118749065Y-63202534D01*
X118732524Y-63076891D01*
X118723781Y-63021690D01*
X118723781Y-63010480D01*
X118722588Y-63001419D01*
X118722588Y-62798580D01*
X118723781Y-62789518D01*
X118723781Y-62778310D01*
X118732523Y-62723113D01*
X118749065Y-62597465D01*
X118757279Y-62566807D01*
X118761854Y-62537926D01*
X118779900Y-62482383D01*
X118801565Y-62401532D01*
X118822933Y-62349944D01*
X118837063Y-62306458D01*
X118857821Y-62265717D01*
X118879190Y-62214129D01*
X118921042Y-62141637D01*
X118947555Y-62089605D01*
X118964742Y-62065948D01*
X118980613Y-62038460D01*
X119057770Y-61937906D01*
X119090610Y-61892706D01*
X119098532Y-61884783D01*
X119104096Y-61877533D01*
X119247533Y-61734096D01*
X119254783Y-61728532D01*
X119262706Y-61720610D01*
X119307906Y-61687770D01*
X119408460Y-61610613D01*
X119435948Y-61594742D01*
X119459605Y-61577555D01*
X119511637Y-61551042D01*
X119584129Y-61509190D01*
X119635717Y-61487821D01*
X119676458Y-61467063D01*
X119719944Y-61452933D01*
X119771532Y-61431565D01*
X119852383Y-61409900D01*
X119907926Y-61391854D01*
X119936807Y-61387279D01*
X119967465Y-61379065D01*
X120093113Y-61362523D01*
X120148310Y-61353781D01*
X120159518Y-61353781D01*
X120168580Y-61352588D01*
X120371420Y-61352588D01*
X120380482Y-61353781D01*
G37*
G36*
X128000482Y-61353781D02*
G01*
X128011690Y-61353781D01*
X128066888Y-61362523D01*
X128192534Y-61379065D01*
X128223189Y-61387279D01*
X128252074Y-61391854D01*
X128307620Y-61409902D01*
X128388467Y-61431565D01*
X128440050Y-61452931D01*
X128483542Y-61467063D01*
X128524286Y-61487823D01*
X128575870Y-61509190D01*
X128648353Y-61551038D01*
X128700395Y-61577555D01*
X128724055Y-61594745D01*
X128751539Y-61610613D01*
X128852074Y-61687756D01*
X128897294Y-61720610D01*
X128905219Y-61728535D01*
X128912466Y-61734096D01*
X129055903Y-61877533D01*
X129061463Y-61884779D01*
X129069390Y-61892706D01*
X129102247Y-61937930D01*
X129179386Y-62038460D01*
X129195252Y-62065941D01*
X129212445Y-62089605D01*
X129238964Y-62141652D01*
X129280809Y-62214129D01*
X129302173Y-62265706D01*
X129322937Y-62306458D01*
X129337070Y-62349955D01*
X129358434Y-62401532D01*
X129380093Y-62482366D01*
X129398146Y-62537926D01*
X129402721Y-62566816D01*
X129410934Y-62597465D01*
X129427474Y-62723099D01*
X129436219Y-62778310D01*
X129436219Y-62789518D01*
X129437412Y-62798580D01*
X129437412Y-63001419D01*
X129436219Y-63010480D01*
X129436219Y-63021690D01*
X129427473Y-63076905D01*
X129410934Y-63202534D01*
X129402722Y-63233180D01*
X129398146Y-63262074D01*
X129380091Y-63317638D01*
X129358434Y-63398467D01*
X129337071Y-63450039D01*
X129322937Y-63493542D01*
X129302171Y-63534297D01*
X129280809Y-63585870D01*
X129238968Y-63658338D01*
X129212445Y-63710395D01*
X129195249Y-63734062D01*
X129179386Y-63761539D01*
X129102261Y-63862050D01*
X129069390Y-63907294D01*
X129061459Y-63915224D01*
X129055903Y-63922466D01*
X128912466Y-64065903D01*
X128905224Y-64071459D01*
X128897294Y-64079390D01*
X128852050Y-64112261D01*
X128751539Y-64189386D01*
X128724062Y-64205249D01*
X128700395Y-64222445D01*
X128648338Y-64248968D01*
X128575870Y-64290809D01*
X128524297Y-64312171D01*
X128483542Y-64332937D01*
X128440039Y-64347071D01*
X128388467Y-64368434D01*
X128307638Y-64390091D01*
X128252074Y-64408146D01*
X128223180Y-64412722D01*
X128192534Y-64420934D01*
X128066902Y-64437474D01*
X128011690Y-64446219D01*
X128000481Y-64446219D01*
X127991420Y-64447412D01*
X127788580Y-64447412D01*
X127779519Y-64446219D01*
X127768310Y-64446219D01*
X127713099Y-64437474D01*
X127587465Y-64420934D01*
X127556816Y-64412721D01*
X127527926Y-64408146D01*
X127472366Y-64390093D01*
X127391532Y-64368434D01*
X127339955Y-64347070D01*
X127296458Y-64332937D01*
X127255706Y-64312173D01*
X127204129Y-64290809D01*
X127131652Y-64248964D01*
X127079605Y-64222445D01*
X127055941Y-64205252D01*
X127028460Y-64189386D01*
X126927930Y-64112247D01*
X126882706Y-64079390D01*
X126874779Y-64071463D01*
X126867533Y-64065903D01*
X126724096Y-63922466D01*
X126718535Y-63915219D01*
X126710610Y-63907294D01*
X126677756Y-63862074D01*
X126600613Y-63761539D01*
X126584745Y-63734055D01*
X126567555Y-63710395D01*
X126541038Y-63658353D01*
X126499190Y-63585870D01*
X126477823Y-63534286D01*
X126457063Y-63493542D01*
X126442931Y-63450050D01*
X126421565Y-63398467D01*
X126399902Y-63317620D01*
X126381854Y-63262074D01*
X126377279Y-63233189D01*
X126369065Y-63202534D01*
X126352524Y-63076891D01*
X126343781Y-63021690D01*
X126343781Y-63010480D01*
X126342588Y-63001419D01*
X126342588Y-62798580D01*
X126343781Y-62789518D01*
X126343781Y-62778310D01*
X126352523Y-62723113D01*
X126369065Y-62597465D01*
X126377279Y-62566807D01*
X126381854Y-62537926D01*
X126399900Y-62482383D01*
X126421565Y-62401532D01*
X126442933Y-62349944D01*
X126457063Y-62306458D01*
X126477821Y-62265717D01*
X126499190Y-62214129D01*
X126541042Y-62141637D01*
X126567555Y-62089605D01*
X126584742Y-62065948D01*
X126600613Y-62038460D01*
X126677770Y-61937906D01*
X126710610Y-61892706D01*
X126718532Y-61884783D01*
X126724096Y-61877533D01*
X126867533Y-61734096D01*
X126874783Y-61728532D01*
X126882706Y-61720610D01*
X126927906Y-61687770D01*
X127028460Y-61610613D01*
X127055948Y-61594742D01*
X127079605Y-61577555D01*
X127131637Y-61551042D01*
X127204129Y-61509190D01*
X127255717Y-61487821D01*
X127296458Y-61467063D01*
X127339944Y-61452933D01*
X127391532Y-61431565D01*
X127472383Y-61409900D01*
X127527926Y-61391854D01*
X127556807Y-61387279D01*
X127587465Y-61379065D01*
X127713113Y-61362523D01*
X127768310Y-61353781D01*
X127779518Y-61353781D01*
X127788580Y-61352588D01*
X127991420Y-61352588D01*
X128000482Y-61353781D01*
G37*
G36*
X52218915Y-59706995D02*
G01*
X52234726Y-59713976D01*
X52242533Y-59715213D01*
X52275054Y-59731783D01*
X52320106Y-59751676D01*
X52398324Y-59829894D01*
X52418219Y-59874953D01*
X52434786Y-59907466D01*
X52436022Y-59915270D01*
X52443005Y-59931085D01*
X52450999Y-60000000D01*
X52450999Y-60009829D01*
X52451000Y-60009836D01*
X52451000Y-60883354D01*
X52451000Y-61700001D01*
X52443005Y-61768915D01*
X52436021Y-61784729D01*
X52434786Y-61792533D01*
X52418223Y-61825039D01*
X52398324Y-61870106D01*
X52320106Y-61948324D01*
X52275039Y-61968223D01*
X52242533Y-61984786D01*
X52234729Y-61986021D01*
X52218915Y-61993005D01*
X52150000Y-62000999D01*
X52140170Y-62000999D01*
X52140164Y-62001000D01*
X50459836Y-62001000D01*
X50459835Y-62000999D01*
X50449999Y-62001000D01*
X50381085Y-61993005D01*
X50365270Y-61986022D01*
X50357466Y-61984786D01*
X50324953Y-61968219D01*
X50279894Y-61948324D01*
X50201676Y-61870106D01*
X50181783Y-61825054D01*
X50165213Y-61792533D01*
X50163976Y-61784726D01*
X50156995Y-61768915D01*
X50149001Y-61700000D01*
X50149000Y-61690169D01*
X50149000Y-61690163D01*
X50149000Y-60009836D01*
X50149000Y-60009835D01*
X50149000Y-59999999D01*
X50156995Y-59931085D01*
X50163976Y-59915273D01*
X50165213Y-59907466D01*
X50181786Y-59874938D01*
X50201676Y-59829894D01*
X50279894Y-59751676D01*
X50324938Y-59731786D01*
X50357466Y-59715213D01*
X50365273Y-59713976D01*
X50381085Y-59706995D01*
X50450000Y-59699001D01*
X50459829Y-59699000D01*
X50459836Y-59699000D01*
X52140164Y-59699000D01*
X52150001Y-59699000D01*
X52218915Y-59706995D01*
G37*
G36*
X47247032Y-60035644D02*
G01*
X47401159Y-60099485D01*
X47539869Y-60192168D01*
X47657832Y-60310131D01*
X47750515Y-60448841D01*
X47814356Y-60602968D01*
X47846902Y-60766587D01*
X47846902Y-60933413D01*
X47814356Y-61097032D01*
X47750515Y-61251159D01*
X47657832Y-61389869D01*
X47539869Y-61507832D01*
X47401159Y-61600515D01*
X47247032Y-61664356D01*
X47083413Y-61696902D01*
X46916587Y-61696902D01*
X46752968Y-61664356D01*
X46598841Y-61600515D01*
X46460131Y-61507832D01*
X46342168Y-61389869D01*
X46249485Y-61251159D01*
X46185644Y-61097032D01*
X46153098Y-60933413D01*
X46153098Y-60766587D01*
X46185644Y-60602968D01*
X46249485Y-60448841D01*
X46342168Y-60310131D01*
X46460131Y-60192168D01*
X46598841Y-60099485D01*
X46752968Y-60035644D01*
X46916587Y-60003098D01*
X47083413Y-60003098D01*
X47247032Y-60035644D01*
G37*
G36*
X55897032Y-59985644D02*
G01*
X56051159Y-60049485D01*
X56189869Y-60142168D01*
X56307832Y-60260131D01*
X56400515Y-60398841D01*
X56464356Y-60552968D01*
X56496902Y-60716587D01*
X56496902Y-60883413D01*
X56464356Y-61047032D01*
X56400515Y-61201159D01*
X56307832Y-61339869D01*
X56189869Y-61457832D01*
X56051159Y-61550515D01*
X55897032Y-61614356D01*
X55733413Y-61646902D01*
X55566587Y-61646902D01*
X55402968Y-61614356D01*
X55248841Y-61550515D01*
X55110131Y-61457832D01*
X54992168Y-61339869D01*
X54899485Y-61201159D01*
X54835644Y-61047032D01*
X54803098Y-60883413D01*
X54803098Y-60716587D01*
X54835644Y-60552968D01*
X54899485Y-60398841D01*
X54992168Y-60260131D01*
X55110131Y-60142168D01*
X55248841Y-60049485D01*
X55402968Y-59985644D01*
X55566587Y-59953098D01*
X55733413Y-59953098D01*
X55897032Y-59985644D01*
G37*
G36*
X68597032Y-59985644D02*
G01*
X68751159Y-60049485D01*
X68889869Y-60142168D01*
X69007832Y-60260131D01*
X69100515Y-60398841D01*
X69164356Y-60552968D01*
X69196902Y-60716587D01*
X69196902Y-60883413D01*
X69164356Y-61047032D01*
X69100515Y-61201159D01*
X69007832Y-61339869D01*
X68889869Y-61457832D01*
X68751159Y-61550515D01*
X68597032Y-61614356D01*
X68433413Y-61646902D01*
X68266587Y-61646902D01*
X68102968Y-61614356D01*
X67948841Y-61550515D01*
X67810131Y-61457832D01*
X67692168Y-61339869D01*
X67599485Y-61201159D01*
X67535644Y-61047032D01*
X67503098Y-60883413D01*
X67503098Y-60716587D01*
X67535644Y-60552968D01*
X67599485Y-60398841D01*
X67692168Y-60260131D01*
X67810131Y-60142168D01*
X67948841Y-60049485D01*
X68102968Y-59985644D01*
X68266587Y-59953098D01*
X68433413Y-59953098D01*
X68597032Y-59985644D01*
G37*
G36*
X78943413Y-59793098D02*
G01*
X79107032Y-59825644D01*
X79261159Y-59889485D01*
X79399869Y-59982168D01*
X79517832Y-60100131D01*
X79610515Y-60238841D01*
X79674356Y-60392968D01*
X79706902Y-60556587D01*
X79706902Y-60723413D01*
X79674356Y-60887032D01*
X79610515Y-61041159D01*
X79517832Y-61179869D01*
X79399869Y-61297832D01*
X79261159Y-61390515D01*
X79107032Y-61454356D01*
X78943413Y-61486902D01*
X78860000Y-61491000D01*
X78856939Y-61491000D01*
X78063061Y-61491000D01*
X78060000Y-61491000D01*
X77976587Y-61486902D01*
X77812968Y-61454356D01*
X77658841Y-61390515D01*
X77520131Y-61297832D01*
X77402168Y-61179869D01*
X77309485Y-61041159D01*
X77245644Y-60887032D01*
X77213098Y-60723413D01*
X77213098Y-60556587D01*
X77245644Y-60392968D01*
X77309485Y-60238841D01*
X77402168Y-60100131D01*
X77520131Y-59982168D01*
X77658841Y-59889485D01*
X77812968Y-59825644D01*
X77976587Y-59793098D01*
X78060000Y-59789000D01*
X78860000Y-59789000D01*
X78943413Y-59793098D01*
G37*
G36*
X86563413Y-59793098D02*
G01*
X86727032Y-59825644D01*
X86881159Y-59889485D01*
X87019869Y-59982168D01*
X87137832Y-60100131D01*
X87230515Y-60238841D01*
X87294356Y-60392968D01*
X87326902Y-60556587D01*
X87326902Y-60723413D01*
X87294356Y-60887032D01*
X87230515Y-61041159D01*
X87137832Y-61179869D01*
X87019869Y-61297832D01*
X86881159Y-61390515D01*
X86727032Y-61454356D01*
X86563413Y-61486902D01*
X86480000Y-61491000D01*
X86476939Y-61491000D01*
X85683061Y-61491000D01*
X85680000Y-61491000D01*
X85596587Y-61486902D01*
X85432968Y-61454356D01*
X85278841Y-61390515D01*
X85140131Y-61297832D01*
X85022168Y-61179869D01*
X84929485Y-61041159D01*
X84865644Y-60887032D01*
X84833098Y-60723413D01*
X84833098Y-60556587D01*
X84865644Y-60392968D01*
X84929485Y-60238841D01*
X85022168Y-60100131D01*
X85140131Y-59982168D01*
X85278841Y-59889485D01*
X85432968Y-59825644D01*
X85596587Y-59793098D01*
X85680000Y-59789000D01*
X86480000Y-59789000D01*
X86563413Y-59793098D01*
G37*
G36*
X95947032Y-59785644D02*
G01*
X96101159Y-59849485D01*
X96239869Y-59942168D01*
X96357832Y-60060131D01*
X96450515Y-60198841D01*
X96514356Y-60352968D01*
X96546902Y-60516587D01*
X96546902Y-60683413D01*
X96514356Y-60847032D01*
X96450515Y-61001159D01*
X96357832Y-61139869D01*
X96239869Y-61257832D01*
X96101159Y-61350515D01*
X95947032Y-61414356D01*
X95783413Y-61446902D01*
X95616587Y-61446902D01*
X95452968Y-61414356D01*
X95298841Y-61350515D01*
X95160131Y-61257832D01*
X95042168Y-61139869D01*
X94949485Y-61001159D01*
X94885644Y-60847032D01*
X94853098Y-60683413D01*
X94853098Y-60516587D01*
X94885644Y-60352968D01*
X94949485Y-60198841D01*
X95042168Y-60060131D01*
X95160131Y-59942168D01*
X95298841Y-59849485D01*
X95452968Y-59785644D01*
X95616587Y-59753098D01*
X95783413Y-59753098D01*
X95947032Y-59785644D01*
G37*
G36*
X101766263Y-57656995D02*
G01*
X101782075Y-57663976D01*
X101789880Y-57665213D01*
X101822388Y-57681776D01*
X101867455Y-57701676D01*
X101945673Y-57779894D01*
X101965575Y-57824967D01*
X101982135Y-57857468D01*
X101983370Y-57865270D01*
X101990354Y-57881086D01*
X101998349Y-57950000D01*
X101998349Y-59050000D01*
X101990354Y-59118914D01*
X101983370Y-59134729D01*
X101982135Y-59142531D01*
X101965578Y-59175024D01*
X101945673Y-59220106D01*
X101867455Y-59298324D01*
X101822373Y-59318229D01*
X101789880Y-59334786D01*
X101782078Y-59336021D01*
X101766263Y-59343005D01*
X101697349Y-59351000D01*
X100597349Y-59351000D01*
X100528435Y-59343005D01*
X100512619Y-59336021D01*
X100504817Y-59334786D01*
X100472316Y-59318226D01*
X100427243Y-59298324D01*
X100349025Y-59220106D01*
X100329125Y-59175039D01*
X100312562Y-59142531D01*
X100311325Y-59134726D01*
X100304344Y-59118914D01*
X100296349Y-59050000D01*
X100296349Y-57950000D01*
X100304344Y-57881086D01*
X100311325Y-57865274D01*
X100312562Y-57857468D01*
X100329129Y-57824953D01*
X100349025Y-57779894D01*
X100427243Y-57701676D01*
X100472302Y-57681780D01*
X100504817Y-57665213D01*
X100512623Y-57663976D01*
X100528435Y-57656995D01*
X100597349Y-57649000D01*
X101697349Y-57649000D01*
X101766263Y-57656995D01*
G37*
G36*
X103894381Y-57685644D02*
G01*
X104048508Y-57749485D01*
X104187218Y-57842168D01*
X104305181Y-57960131D01*
X104397864Y-58098841D01*
X104461705Y-58252968D01*
X104494251Y-58416587D01*
X104494251Y-58583413D01*
X104461705Y-58747032D01*
X104397864Y-58901159D01*
X104305181Y-59039869D01*
X104187218Y-59157832D01*
X104048508Y-59250515D01*
X103894381Y-59314356D01*
X103730762Y-59346902D01*
X103563936Y-59346902D01*
X103400317Y-59314356D01*
X103246190Y-59250515D01*
X103107480Y-59157832D01*
X102989517Y-59039869D01*
X102896834Y-58901159D01*
X102832993Y-58747032D01*
X102800447Y-58583413D01*
X102800447Y-58416587D01*
X102832993Y-58252968D01*
X102896834Y-58098841D01*
X102989517Y-57960131D01*
X103107480Y-57842168D01*
X103246190Y-57749485D01*
X103400317Y-57685644D01*
X103563936Y-57653098D01*
X103730762Y-57653098D01*
X103894381Y-57685644D01*
G37*
G36*
X78943413Y-57253098D02*
G01*
X79107032Y-57285644D01*
X79261159Y-57349485D01*
X79399869Y-57442168D01*
X79517832Y-57560131D01*
X79610515Y-57698841D01*
X79674356Y-57852968D01*
X79706902Y-58016587D01*
X79706902Y-58183413D01*
X79674356Y-58347032D01*
X79610515Y-58501159D01*
X79517832Y-58639869D01*
X79399869Y-58757832D01*
X79261159Y-58850515D01*
X79107032Y-58914356D01*
X78943413Y-58946902D01*
X78860000Y-58951000D01*
X78856939Y-58951000D01*
X78063061Y-58951000D01*
X78060000Y-58951000D01*
X77976587Y-58946902D01*
X77812968Y-58914356D01*
X77658841Y-58850515D01*
X77520131Y-58757832D01*
X77402168Y-58639869D01*
X77309485Y-58501159D01*
X77245644Y-58347032D01*
X77213098Y-58183413D01*
X77213098Y-58016587D01*
X77245644Y-57852968D01*
X77309485Y-57698841D01*
X77402168Y-57560131D01*
X77520131Y-57442168D01*
X77658841Y-57349485D01*
X77812968Y-57285644D01*
X77976587Y-57253098D01*
X78060000Y-57249000D01*
X78860000Y-57249000D01*
X78943413Y-57253098D01*
G37*
G36*
X86563413Y-57253098D02*
G01*
X86727032Y-57285644D01*
X86881159Y-57349485D01*
X87019869Y-57442168D01*
X87137832Y-57560131D01*
X87230515Y-57698841D01*
X87294356Y-57852968D01*
X87326902Y-58016587D01*
X87326902Y-58183413D01*
X87294356Y-58347032D01*
X87230515Y-58501159D01*
X87137832Y-58639869D01*
X87019869Y-58757832D01*
X86881159Y-58850515D01*
X86727032Y-58914356D01*
X86563413Y-58946902D01*
X86480000Y-58951000D01*
X86476939Y-58951000D01*
X85683061Y-58951000D01*
X85680000Y-58951000D01*
X85596587Y-58946902D01*
X85432968Y-58914356D01*
X85278841Y-58850515D01*
X85140131Y-58757832D01*
X85022168Y-58639869D01*
X84929485Y-58501159D01*
X84865644Y-58347032D01*
X84833098Y-58183413D01*
X84833098Y-58016587D01*
X84865644Y-57852968D01*
X84929485Y-57698841D01*
X85022168Y-57560131D01*
X85140131Y-57442168D01*
X85278841Y-57349485D01*
X85432968Y-57285644D01*
X85596587Y-57253098D01*
X85680000Y-57249000D01*
X86480000Y-57249000D01*
X86563413Y-57253098D01*
G37*
G36*
X47247032Y-57285644D02*
G01*
X47401159Y-57349485D01*
X47539869Y-57442168D01*
X47657832Y-57560131D01*
X47750515Y-57698841D01*
X47814356Y-57852968D01*
X47846902Y-58016587D01*
X47846902Y-58183413D01*
X47814356Y-58347032D01*
X47750515Y-58501159D01*
X47657832Y-58639869D01*
X47539869Y-58757832D01*
X47401159Y-58850515D01*
X47247032Y-58914356D01*
X47083413Y-58946902D01*
X46916587Y-58946902D01*
X46752968Y-58914356D01*
X46598841Y-58850515D01*
X46460131Y-58757832D01*
X46342168Y-58639869D01*
X46249485Y-58501159D01*
X46185644Y-58347032D01*
X46153098Y-58183413D01*
X46153098Y-58016587D01*
X46185644Y-57852968D01*
X46249485Y-57698841D01*
X46342168Y-57560131D01*
X46460131Y-57442168D01*
X46598841Y-57349485D01*
X46752968Y-57285644D01*
X46916587Y-57253098D01*
X47083413Y-57253098D01*
X47247032Y-57285644D01*
G37*
G36*
X52218915Y-55236995D02*
G01*
X52234726Y-55243976D01*
X52242533Y-55245213D01*
X52275054Y-55261783D01*
X52320106Y-55281676D01*
X52398324Y-55359894D01*
X52418219Y-55404953D01*
X52434786Y-55437466D01*
X52436022Y-55445270D01*
X52443005Y-55461085D01*
X52450999Y-55530000D01*
X52450999Y-55539829D01*
X52451000Y-55539836D01*
X52451000Y-56406902D01*
X52451000Y-57230001D01*
X52443005Y-57298915D01*
X52436021Y-57314729D01*
X52434786Y-57322533D01*
X52418223Y-57355039D01*
X52398324Y-57400106D01*
X52320106Y-57478324D01*
X52275039Y-57498223D01*
X52242533Y-57514786D01*
X52234729Y-57516021D01*
X52218915Y-57523005D01*
X52150000Y-57530999D01*
X52140170Y-57530999D01*
X52140164Y-57531000D01*
X50459836Y-57531000D01*
X50459835Y-57530999D01*
X50449999Y-57531000D01*
X50381085Y-57523005D01*
X50365270Y-57516022D01*
X50357466Y-57514786D01*
X50324953Y-57498219D01*
X50279894Y-57478324D01*
X50201676Y-57400106D01*
X50181783Y-57355054D01*
X50165213Y-57322533D01*
X50163976Y-57314726D01*
X50156995Y-57298915D01*
X50149001Y-57230000D01*
X50149000Y-57220169D01*
X50149000Y-57220163D01*
X50149000Y-55539836D01*
X50149000Y-55539835D01*
X50149000Y-55529999D01*
X50156995Y-55461085D01*
X50163976Y-55445273D01*
X50165213Y-55437466D01*
X50181786Y-55404938D01*
X50201676Y-55359894D01*
X50279894Y-55281676D01*
X50324938Y-55261786D01*
X50357466Y-55245213D01*
X50365273Y-55243976D01*
X50381085Y-55236995D01*
X50450000Y-55229001D01*
X50459829Y-55229000D01*
X50459836Y-55229000D01*
X52140164Y-55229000D01*
X52150001Y-55229000D01*
X52218915Y-55236995D01*
G37*
G36*
X60392017Y-55352882D02*
G01*
X60408562Y-55363938D01*
X60419618Y-55380483D01*
X60423500Y-55400000D01*
X60423500Y-57400000D01*
X60419618Y-57419517D01*
X60408562Y-57436062D01*
X60392017Y-57447118D01*
X60372500Y-57451000D01*
X58467500Y-57451000D01*
X58447983Y-57447118D01*
X58431438Y-57436062D01*
X58420382Y-57419517D01*
X58416500Y-57400000D01*
X58416500Y-55400000D01*
X58420382Y-55380483D01*
X58431438Y-55363938D01*
X58447983Y-55352882D01*
X58467500Y-55349000D01*
X60372500Y-55349000D01*
X60392017Y-55352882D01*
G37*
G36*
X62047247Y-55353832D02*
G01*
X62058360Y-55353832D01*
X62101786Y-55362470D01*
X62194172Y-55377102D01*
X62223886Y-55386757D01*
X62251301Y-55392210D01*
X62289989Y-55408235D01*
X62343875Y-55425744D01*
X62394360Y-55451467D01*
X62433047Y-55467492D01*
X62456286Y-55483020D01*
X62484124Y-55497204D01*
X62559790Y-55552179D01*
X62596614Y-55576784D01*
X62604473Y-55584643D01*
X62611466Y-55589724D01*
X62722775Y-55701033D01*
X62727855Y-55708025D01*
X62735716Y-55715886D01*
X62760323Y-55752713D01*
X62815295Y-55828375D01*
X62829477Y-55856210D01*
X62845008Y-55879453D01*
X62861034Y-55918145D01*
X62886755Y-55968624D01*
X62904261Y-56022503D01*
X62920290Y-56061199D01*
X62925744Y-56088618D01*
X62935397Y-56118327D01*
X62950027Y-56210702D01*
X62958668Y-56254140D01*
X62959459Y-56270252D01*
X62960406Y-56276228D01*
X62963016Y-56342649D01*
X62963500Y-56352500D01*
X62963500Y-56447500D01*
X62963015Y-56457354D01*
X62960406Y-56523771D01*
X62959459Y-56529746D01*
X62958668Y-56545860D01*
X62950026Y-56589301D01*
X62935397Y-56681672D01*
X62925744Y-56711378D01*
X62920290Y-56738801D01*
X62904260Y-56777500D01*
X62886755Y-56831375D01*
X62861037Y-56881849D01*
X62845008Y-56920547D01*
X62829475Y-56943792D01*
X62815295Y-56971624D01*
X62760331Y-57047273D01*
X62735716Y-57084114D01*
X62727852Y-57091977D01*
X62722775Y-57098966D01*
X62611466Y-57210275D01*
X62604477Y-57215352D01*
X62596614Y-57223216D01*
X62559773Y-57247831D01*
X62484124Y-57302795D01*
X62456292Y-57316975D01*
X62433047Y-57332508D01*
X62394349Y-57348537D01*
X62343875Y-57374255D01*
X62290000Y-57391760D01*
X62251301Y-57407790D01*
X62223878Y-57413244D01*
X62194172Y-57422897D01*
X62101796Y-57437527D01*
X62058360Y-57446168D01*
X62047246Y-57446168D01*
X62038704Y-57447521D01*
X61881296Y-57447521D01*
X61872754Y-57446168D01*
X61861640Y-57446168D01*
X61818204Y-57437528D01*
X61725827Y-57422897D01*
X61696118Y-57413244D01*
X61668699Y-57407790D01*
X61630003Y-57391761D01*
X61576124Y-57374255D01*
X61525645Y-57348534D01*
X61486953Y-57332508D01*
X61463710Y-57316977D01*
X61435875Y-57302795D01*
X61360213Y-57247823D01*
X61323386Y-57223216D01*
X61315525Y-57215355D01*
X61308533Y-57210275D01*
X61197224Y-57098966D01*
X61192143Y-57091973D01*
X61184284Y-57084114D01*
X61159679Y-57047290D01*
X61104704Y-56971624D01*
X61090520Y-56943786D01*
X61074992Y-56920547D01*
X61058967Y-56881860D01*
X61033244Y-56831375D01*
X61015735Y-56777489D01*
X60999710Y-56738801D01*
X60994257Y-56711386D01*
X60984602Y-56681672D01*
X60969968Y-56589277D01*
X60961332Y-56545860D01*
X60960540Y-56529755D01*
X60959593Y-56523771D01*
X60956983Y-56457338D01*
X60956500Y-56447500D01*
X60956500Y-56352500D01*
X60956983Y-56342665D01*
X60959593Y-56276228D01*
X60960540Y-56270242D01*
X60961332Y-56254140D01*
X60969967Y-56210726D01*
X60984602Y-56118327D01*
X60994257Y-56088610D01*
X60999710Y-56061199D01*
X61015733Y-56022514D01*
X61033244Y-55968624D01*
X61058969Y-55918134D01*
X61074992Y-55879453D01*
X61090518Y-55856216D01*
X61104704Y-55828375D01*
X61159687Y-55752696D01*
X61184284Y-55715886D01*
X61192141Y-55708028D01*
X61197224Y-55701033D01*
X61308533Y-55589724D01*
X61315528Y-55584641D01*
X61323386Y-55576784D01*
X61360196Y-55552187D01*
X61435875Y-55497204D01*
X61463716Y-55483018D01*
X61486953Y-55467492D01*
X61525634Y-55451469D01*
X61576124Y-55425744D01*
X61630014Y-55408233D01*
X61668699Y-55392210D01*
X61696110Y-55386757D01*
X61725827Y-55377102D01*
X61818214Y-55362469D01*
X61861640Y-55353832D01*
X61872753Y-55353832D01*
X61881296Y-55352479D01*
X62038704Y-55352479D01*
X62047247Y-55353832D01*
G37*
G36*
X64587247Y-55353832D02*
G01*
X64598360Y-55353832D01*
X64641786Y-55362470D01*
X64734172Y-55377102D01*
X64763886Y-55386757D01*
X64791301Y-55392210D01*
X64829989Y-55408235D01*
X64883875Y-55425744D01*
X64934360Y-55451467D01*
X64973047Y-55467492D01*
X64996286Y-55483020D01*
X65024124Y-55497204D01*
X65099790Y-55552179D01*
X65136614Y-55576784D01*
X65144473Y-55584643D01*
X65151466Y-55589724D01*
X65262775Y-55701033D01*
X65267855Y-55708025D01*
X65275716Y-55715886D01*
X65300323Y-55752713D01*
X65355295Y-55828375D01*
X65369477Y-55856210D01*
X65385008Y-55879453D01*
X65401034Y-55918145D01*
X65426755Y-55968624D01*
X65444261Y-56022503D01*
X65460290Y-56061199D01*
X65465744Y-56088618D01*
X65475397Y-56118327D01*
X65490027Y-56210702D01*
X65498668Y-56254140D01*
X65499459Y-56270252D01*
X65500406Y-56276228D01*
X65503016Y-56342649D01*
X65503500Y-56352500D01*
X65503500Y-56447500D01*
X65503015Y-56457354D01*
X65500406Y-56523771D01*
X65499459Y-56529746D01*
X65498668Y-56545860D01*
X65490026Y-56589301D01*
X65475397Y-56681672D01*
X65465744Y-56711378D01*
X65460290Y-56738801D01*
X65444260Y-56777500D01*
X65426755Y-56831375D01*
X65401037Y-56881849D01*
X65385008Y-56920547D01*
X65369475Y-56943792D01*
X65355295Y-56971624D01*
X65300331Y-57047273D01*
X65275716Y-57084114D01*
X65267852Y-57091977D01*
X65262775Y-57098966D01*
X65151466Y-57210275D01*
X65144477Y-57215352D01*
X65136614Y-57223216D01*
X65099773Y-57247831D01*
X65024124Y-57302795D01*
X64996292Y-57316975D01*
X64973047Y-57332508D01*
X64934349Y-57348537D01*
X64883875Y-57374255D01*
X64830000Y-57391760D01*
X64791301Y-57407790D01*
X64763878Y-57413244D01*
X64734172Y-57422897D01*
X64641796Y-57437527D01*
X64598360Y-57446168D01*
X64587246Y-57446168D01*
X64578704Y-57447521D01*
X64421296Y-57447521D01*
X64412754Y-57446168D01*
X64401640Y-57446168D01*
X64358204Y-57437528D01*
X64265827Y-57422897D01*
X64236118Y-57413244D01*
X64208699Y-57407790D01*
X64170003Y-57391761D01*
X64116124Y-57374255D01*
X64065645Y-57348534D01*
X64026953Y-57332508D01*
X64003710Y-57316977D01*
X63975875Y-57302795D01*
X63900213Y-57247823D01*
X63863386Y-57223216D01*
X63855525Y-57215355D01*
X63848533Y-57210275D01*
X63737224Y-57098966D01*
X63732143Y-57091973D01*
X63724284Y-57084114D01*
X63699679Y-57047290D01*
X63644704Y-56971624D01*
X63630520Y-56943786D01*
X63614992Y-56920547D01*
X63598967Y-56881860D01*
X63573244Y-56831375D01*
X63555735Y-56777489D01*
X63539710Y-56738801D01*
X63534257Y-56711386D01*
X63524602Y-56681672D01*
X63509968Y-56589277D01*
X63501332Y-56545860D01*
X63500540Y-56529755D01*
X63499593Y-56523771D01*
X63496983Y-56457338D01*
X63496500Y-56447500D01*
X63496500Y-56352500D01*
X63496983Y-56342665D01*
X63499593Y-56276228D01*
X63500540Y-56270242D01*
X63501332Y-56254140D01*
X63509967Y-56210726D01*
X63524602Y-56118327D01*
X63534257Y-56088610D01*
X63539710Y-56061199D01*
X63555733Y-56022514D01*
X63573244Y-55968624D01*
X63598969Y-55918134D01*
X63614992Y-55879453D01*
X63630518Y-55856216D01*
X63644704Y-55828375D01*
X63699687Y-55752696D01*
X63724284Y-55715886D01*
X63732141Y-55708028D01*
X63737224Y-55701033D01*
X63848533Y-55589724D01*
X63855528Y-55584641D01*
X63863386Y-55576784D01*
X63900196Y-55552187D01*
X63975875Y-55497204D01*
X64003716Y-55483018D01*
X64026953Y-55467492D01*
X64065634Y-55451469D01*
X64116124Y-55425744D01*
X64170014Y-55408233D01*
X64208699Y-55392210D01*
X64236110Y-55386757D01*
X64265827Y-55377102D01*
X64358214Y-55362469D01*
X64401640Y-55353832D01*
X64412753Y-55353832D01*
X64421296Y-55352479D01*
X64578704Y-55352479D01*
X64587247Y-55353832D01*
G37*
G36*
X55291498Y-55354061D02*
G01*
X55303016Y-55354061D01*
X55348023Y-55363013D01*
X55445260Y-55378414D01*
X55476536Y-55388576D01*
X55505089Y-55394256D01*
X55545387Y-55410948D01*
X55602052Y-55429360D01*
X55655135Y-55456407D01*
X55695438Y-55473101D01*
X55719647Y-55489277D01*
X55748943Y-55504204D01*
X55828583Y-55562066D01*
X55866747Y-55587566D01*
X55874891Y-55595710D01*
X55882315Y-55601104D01*
X55998895Y-55717684D01*
X56004288Y-55725107D01*
X56012434Y-55733253D01*
X56037936Y-55771420D01*
X56095795Y-55851056D01*
X56110720Y-55880348D01*
X56126899Y-55904562D01*
X56143594Y-55944869D01*
X56170639Y-55997947D01*
X56189048Y-56054604D01*
X56205744Y-56094911D01*
X56211424Y-56123469D01*
X56221585Y-56154739D01*
X56236984Y-56251967D01*
X56245939Y-56296984D01*
X56245939Y-56308502D01*
X56247375Y-56317569D01*
X56247375Y-56482430D01*
X56245939Y-56491496D01*
X56245939Y-56503016D01*
X56236983Y-56548035D01*
X56221585Y-56645260D01*
X56211425Y-56676528D01*
X56205744Y-56705089D01*
X56189047Y-56745398D01*
X56170639Y-56802052D01*
X56143596Y-56855125D01*
X56126899Y-56895438D01*
X56110718Y-56919654D01*
X56095795Y-56948943D01*
X56037945Y-57028566D01*
X56012434Y-57066747D01*
X56004285Y-57074895D01*
X55998895Y-57082315D01*
X55882315Y-57198895D01*
X55874895Y-57204285D01*
X55866747Y-57212434D01*
X55828566Y-57237945D01*
X55748943Y-57295795D01*
X55719654Y-57310718D01*
X55695438Y-57326899D01*
X55655125Y-57343596D01*
X55602052Y-57370639D01*
X55545398Y-57389047D01*
X55505089Y-57405744D01*
X55476528Y-57411425D01*
X55445260Y-57421585D01*
X55348033Y-57436984D01*
X55303016Y-57445939D01*
X55291497Y-57445939D01*
X55282431Y-57447375D01*
X55117569Y-57447375D01*
X55108503Y-57445939D01*
X55096984Y-57445939D01*
X55051967Y-57436984D01*
X54954739Y-57421585D01*
X54923469Y-57411424D01*
X54894911Y-57405744D01*
X54854604Y-57389048D01*
X54797947Y-57370639D01*
X54744869Y-57343594D01*
X54704562Y-57326899D01*
X54680348Y-57310720D01*
X54651056Y-57295795D01*
X54571420Y-57237936D01*
X54533253Y-57212434D01*
X54525107Y-57204288D01*
X54517684Y-57198895D01*
X54401104Y-57082315D01*
X54395710Y-57074891D01*
X54387566Y-57066747D01*
X54362066Y-57028583D01*
X54304204Y-56948943D01*
X54289277Y-56919647D01*
X54273101Y-56895438D01*
X54256407Y-56855135D01*
X54229360Y-56802052D01*
X54210948Y-56745387D01*
X54194256Y-56705089D01*
X54188576Y-56676536D01*
X54178414Y-56645260D01*
X54163014Y-56548026D01*
X54154061Y-56503016D01*
X54154061Y-56491496D01*
X54152625Y-56482430D01*
X54152625Y-56317569D01*
X54154061Y-56308502D01*
X54154061Y-56296984D01*
X54163013Y-56251977D01*
X54178414Y-56154739D01*
X54188576Y-56123461D01*
X54194256Y-56094911D01*
X54210946Y-56054616D01*
X54229360Y-55997947D01*
X54256409Y-55944858D01*
X54273101Y-55904562D01*
X54289275Y-55880355D01*
X54304204Y-55851056D01*
X54362074Y-55771403D01*
X54387566Y-55733253D01*
X54395707Y-55725111D01*
X54401104Y-55717684D01*
X54517684Y-55601104D01*
X54525111Y-55595707D01*
X54533253Y-55587566D01*
X54571403Y-55562074D01*
X54651056Y-55504204D01*
X54680355Y-55489275D01*
X54704562Y-55473101D01*
X54744858Y-55456409D01*
X54797947Y-55429360D01*
X54854616Y-55410946D01*
X54894911Y-55394256D01*
X54923461Y-55388576D01*
X54954739Y-55378414D01*
X55051977Y-55363013D01*
X55096984Y-55354061D01*
X55108502Y-55354061D01*
X55117569Y-55352625D01*
X55282431Y-55352625D01*
X55291498Y-55354061D01*
G37*
G36*
X78943413Y-54713098D02*
G01*
X79107032Y-54745644D01*
X79261159Y-54809485D01*
X79399869Y-54902168D01*
X79517832Y-55020131D01*
X79610515Y-55158841D01*
X79674356Y-55312968D01*
X79706902Y-55476587D01*
X79706902Y-55643413D01*
X79674356Y-55807032D01*
X79610515Y-55961159D01*
X79517832Y-56099869D01*
X79399869Y-56217832D01*
X79261159Y-56310515D01*
X79107032Y-56374356D01*
X78943413Y-56406902D01*
X78860000Y-56411000D01*
X78856939Y-56411000D01*
X78063061Y-56411000D01*
X78060000Y-56411000D01*
X77976587Y-56406902D01*
X77812968Y-56374356D01*
X77658841Y-56310515D01*
X77520131Y-56217832D01*
X77402168Y-56099869D01*
X77309485Y-55961159D01*
X77245644Y-55807032D01*
X77213098Y-55643413D01*
X77213098Y-55476587D01*
X77245644Y-55312968D01*
X77309485Y-55158841D01*
X77402168Y-55020131D01*
X77520131Y-54902168D01*
X77658841Y-54809485D01*
X77812968Y-54745644D01*
X77976587Y-54713098D01*
X78060000Y-54709000D01*
X78860000Y-54709000D01*
X78943413Y-54713098D01*
G37*
G36*
X86563413Y-54713098D02*
G01*
X86727032Y-54745644D01*
X86881159Y-54809485D01*
X87019869Y-54902168D01*
X87137832Y-55020131D01*
X87230515Y-55158841D01*
X87294356Y-55312968D01*
X87326902Y-55476587D01*
X87326902Y-55643413D01*
X87294356Y-55807032D01*
X87230515Y-55961159D01*
X87137832Y-56099869D01*
X87019869Y-56217832D01*
X86881159Y-56310515D01*
X86727032Y-56374356D01*
X86563413Y-56406902D01*
X86480000Y-56411000D01*
X86476939Y-56411000D01*
X85683061Y-56411000D01*
X85680000Y-56411000D01*
X85596587Y-56406902D01*
X85432968Y-56374356D01*
X85278841Y-56310515D01*
X85140131Y-56217832D01*
X85022168Y-56099869D01*
X84929485Y-55961159D01*
X84865644Y-55807032D01*
X84833098Y-55643413D01*
X84833098Y-55476587D01*
X84865644Y-55312968D01*
X84929485Y-55158841D01*
X85022168Y-55020131D01*
X85140131Y-54902168D01*
X85278841Y-54809485D01*
X85432968Y-54745644D01*
X85596587Y-54713098D01*
X85680000Y-54709000D01*
X86480000Y-54709000D01*
X86563413Y-54713098D01*
G37*
G36*
X39891498Y-52464061D02*
G01*
X39903016Y-52464061D01*
X39948023Y-52473013D01*
X40045260Y-52488414D01*
X40076536Y-52498576D01*
X40105089Y-52504256D01*
X40145387Y-52520948D01*
X40202052Y-52539360D01*
X40255135Y-52566407D01*
X40295438Y-52583101D01*
X40319647Y-52599277D01*
X40348943Y-52614204D01*
X40428583Y-52672066D01*
X40466747Y-52697566D01*
X40474891Y-52705710D01*
X40482315Y-52711104D01*
X40598895Y-52827684D01*
X40604288Y-52835107D01*
X40612434Y-52843253D01*
X40637936Y-52881420D01*
X40695795Y-52961056D01*
X40710720Y-52990348D01*
X40726899Y-53014562D01*
X40743594Y-53054869D01*
X40770639Y-53107947D01*
X40789048Y-53164604D01*
X40805744Y-53204911D01*
X40811424Y-53233469D01*
X40821585Y-53264739D01*
X40836984Y-53361967D01*
X40845939Y-53406984D01*
X40845939Y-53418502D01*
X40847375Y-53427569D01*
X40847375Y-53592430D01*
X40845939Y-53601496D01*
X40845939Y-53613016D01*
X40836983Y-53658035D01*
X40821585Y-53755260D01*
X40811425Y-53786528D01*
X40805744Y-53815089D01*
X40789047Y-53855398D01*
X40770639Y-53912052D01*
X40743596Y-53965125D01*
X40726899Y-54005438D01*
X40710718Y-54029654D01*
X40695795Y-54058943D01*
X40637945Y-54138566D01*
X40612434Y-54176747D01*
X40604285Y-54184895D01*
X40598895Y-54192315D01*
X40482315Y-54308895D01*
X40474895Y-54314285D01*
X40466747Y-54322434D01*
X40428566Y-54347945D01*
X40348943Y-54405795D01*
X40319654Y-54420718D01*
X40295438Y-54436899D01*
X40255125Y-54453596D01*
X40202052Y-54480639D01*
X40145398Y-54499047D01*
X40105089Y-54515744D01*
X40076528Y-54521425D01*
X40045260Y-54531585D01*
X39948033Y-54546984D01*
X39903016Y-54555939D01*
X39891497Y-54555939D01*
X39882431Y-54557375D01*
X39717569Y-54557375D01*
X39708503Y-54555939D01*
X39696984Y-54555939D01*
X39651967Y-54546984D01*
X39554739Y-54531585D01*
X39523469Y-54521424D01*
X39494911Y-54515744D01*
X39454604Y-54499048D01*
X39397947Y-54480639D01*
X39344869Y-54453594D01*
X39304562Y-54436899D01*
X39280348Y-54420720D01*
X39251056Y-54405795D01*
X39171420Y-54347936D01*
X39133253Y-54322434D01*
X39125107Y-54314288D01*
X39117684Y-54308895D01*
X39001104Y-54192315D01*
X38995710Y-54184891D01*
X38987566Y-54176747D01*
X38962066Y-54138583D01*
X38904204Y-54058943D01*
X38889277Y-54029647D01*
X38873101Y-54005438D01*
X38856407Y-53965135D01*
X38829360Y-53912052D01*
X38810948Y-53855387D01*
X38794256Y-53815089D01*
X38788576Y-53786536D01*
X38778414Y-53755260D01*
X38763014Y-53658026D01*
X38754061Y-53613016D01*
X38754061Y-53601496D01*
X38752625Y-53592430D01*
X38752625Y-53427569D01*
X38754061Y-53418502D01*
X38754061Y-53406984D01*
X38763013Y-53361977D01*
X38778414Y-53264739D01*
X38788576Y-53233461D01*
X38794256Y-53204911D01*
X38810946Y-53164616D01*
X38829360Y-53107947D01*
X38856409Y-53054858D01*
X38873101Y-53014562D01*
X38889275Y-52990355D01*
X38904204Y-52961056D01*
X38962074Y-52881403D01*
X38987566Y-52843253D01*
X38995707Y-52835111D01*
X39001104Y-52827684D01*
X39117684Y-52711104D01*
X39125111Y-52705707D01*
X39133253Y-52697566D01*
X39171403Y-52672074D01*
X39251056Y-52614204D01*
X39280355Y-52599275D01*
X39304562Y-52583101D01*
X39344858Y-52566409D01*
X39397947Y-52539360D01*
X39454616Y-52520946D01*
X39494911Y-52504256D01*
X39523461Y-52498576D01*
X39554739Y-52488414D01*
X39651977Y-52473013D01*
X39696984Y-52464061D01*
X39708502Y-52464061D01*
X39717569Y-52462625D01*
X39882431Y-52462625D01*
X39891498Y-52464061D01*
G37*
G36*
X79478914Y-52176995D02*
G01*
X79494726Y-52183976D01*
X79502531Y-52185213D01*
X79535039Y-52201776D01*
X79580106Y-52221676D01*
X79658324Y-52299894D01*
X79678226Y-52344967D01*
X79694786Y-52377468D01*
X79696021Y-52385270D01*
X79703005Y-52401086D01*
X79711000Y-52470000D01*
X79711000Y-53570000D01*
X79703005Y-53638914D01*
X79696021Y-53654729D01*
X79694786Y-53662531D01*
X79678229Y-53695024D01*
X79658324Y-53740106D01*
X79580106Y-53818324D01*
X79535024Y-53838229D01*
X79502531Y-53854786D01*
X79494729Y-53856021D01*
X79478914Y-53863005D01*
X79410000Y-53871000D01*
X77510000Y-53871000D01*
X77441086Y-53863005D01*
X77425270Y-53856021D01*
X77417468Y-53854786D01*
X77384967Y-53838226D01*
X77339894Y-53818324D01*
X77261676Y-53740106D01*
X77241776Y-53695039D01*
X77225213Y-53662531D01*
X77223976Y-53654726D01*
X77216995Y-53638914D01*
X77209000Y-53570000D01*
X77209000Y-52470000D01*
X77216995Y-52401086D01*
X77223976Y-52385274D01*
X77225213Y-52377468D01*
X77241780Y-52344953D01*
X77261676Y-52299894D01*
X77339894Y-52221676D01*
X77384953Y-52201780D01*
X77417468Y-52185213D01*
X77425274Y-52183976D01*
X77441086Y-52176995D01*
X77510000Y-52169000D01*
X79410000Y-52169000D01*
X79478914Y-52176995D01*
G37*
G36*
X86563413Y-52173098D02*
G01*
X86727032Y-52205644D01*
X86881159Y-52269485D01*
X87019869Y-52362168D01*
X87137832Y-52480131D01*
X87230515Y-52618841D01*
X87294356Y-52772968D01*
X87326902Y-52936587D01*
X87326902Y-53103413D01*
X87294356Y-53267032D01*
X87230515Y-53421159D01*
X87137832Y-53559869D01*
X87019869Y-53677832D01*
X86881159Y-53770515D01*
X86727032Y-53834356D01*
X86563413Y-53866902D01*
X86480000Y-53871000D01*
X86476939Y-53871000D01*
X85683061Y-53871000D01*
X85680000Y-53871000D01*
X85596587Y-53866902D01*
X85432968Y-53834356D01*
X85278841Y-53770515D01*
X85140131Y-53677832D01*
X85022168Y-53559869D01*
X84929485Y-53421159D01*
X84865644Y-53267032D01*
X84833098Y-53103413D01*
X84833098Y-52936587D01*
X84865644Y-52772968D01*
X84929485Y-52618841D01*
X85022168Y-52480131D01*
X85140131Y-52362168D01*
X85278841Y-52269485D01*
X85432968Y-52205644D01*
X85596587Y-52173098D01*
X85680000Y-52169000D01*
X86480000Y-52169000D01*
X86563413Y-52173098D01*
G37*
G36*
X127668914Y-50236995D02*
G01*
X127684726Y-50243976D01*
X127692531Y-50245213D01*
X127725039Y-50261776D01*
X127770106Y-50281676D01*
X127848324Y-50359894D01*
X127868226Y-50404967D01*
X127884786Y-50437468D01*
X127886021Y-50445270D01*
X127893005Y-50461086D01*
X127901000Y-50530000D01*
X127901000Y-53230000D01*
X127893005Y-53298914D01*
X127886021Y-53314729D01*
X127884786Y-53322531D01*
X127868229Y-53355024D01*
X127848324Y-53400106D01*
X127770106Y-53478324D01*
X127725024Y-53498229D01*
X127692531Y-53514786D01*
X127684729Y-53516021D01*
X127668914Y-53523005D01*
X127600000Y-53531000D01*
X124900000Y-53531000D01*
X124831086Y-53523005D01*
X124815270Y-53516021D01*
X124807468Y-53514786D01*
X124774967Y-53498226D01*
X124729894Y-53478324D01*
X124651676Y-53400106D01*
X124631776Y-53355039D01*
X124615213Y-53322531D01*
X124613976Y-53314726D01*
X124606995Y-53298914D01*
X124599000Y-53230000D01*
X124599000Y-50530000D01*
X124606995Y-50461086D01*
X124613976Y-50445274D01*
X124615213Y-50437468D01*
X124631780Y-50404953D01*
X124651676Y-50359894D01*
X124729894Y-50281676D01*
X124774953Y-50261780D01*
X124807468Y-50245213D01*
X124815274Y-50243976D01*
X124831086Y-50236995D01*
X124900000Y-50229000D01*
X127600000Y-50229000D01*
X127668914Y-50236995D01*
G37*
G36*
X121668914Y-50231995D02*
G01*
X121684726Y-50238976D01*
X121692531Y-50240213D01*
X121725039Y-50256776D01*
X121770106Y-50276676D01*
X121848324Y-50354894D01*
X121868226Y-50399967D01*
X121884786Y-50432468D01*
X121886021Y-50440270D01*
X121893005Y-50456086D01*
X121901000Y-50525000D01*
X121901000Y-53225000D01*
X121893005Y-53293914D01*
X121886021Y-53309729D01*
X121884786Y-53317531D01*
X121868229Y-53350024D01*
X121848324Y-53395106D01*
X121770106Y-53473324D01*
X121725024Y-53493229D01*
X121692531Y-53509786D01*
X121684729Y-53511021D01*
X121668914Y-53518005D01*
X121600000Y-53526000D01*
X118900000Y-53526000D01*
X118831086Y-53518005D01*
X118815270Y-53511021D01*
X118807468Y-53509786D01*
X118774967Y-53493226D01*
X118729894Y-53473324D01*
X118651676Y-53395106D01*
X118631776Y-53350039D01*
X118615213Y-53317531D01*
X118613976Y-53309726D01*
X118606995Y-53293914D01*
X118599000Y-53225000D01*
X118599000Y-50525000D01*
X118606995Y-50456086D01*
X118613976Y-50440274D01*
X118615213Y-50432468D01*
X118631780Y-50399953D01*
X118651676Y-50354894D01*
X118729894Y-50276676D01*
X118774953Y-50256780D01*
X118807468Y-50240213D01*
X118815274Y-50238976D01*
X118831086Y-50231995D01*
X118900000Y-50224000D01*
X121600000Y-50224000D01*
X121668914Y-50231995D01*
G37*
G36*
X73018914Y-50856995D02*
G01*
X73034726Y-50863976D01*
X73042531Y-50865213D01*
X73075039Y-50881776D01*
X73120106Y-50901676D01*
X73198324Y-50979894D01*
X73218226Y-51024967D01*
X73234786Y-51057468D01*
X73236021Y-51065270D01*
X73243005Y-51081086D01*
X73251000Y-51150000D01*
X73251000Y-52250000D01*
X73243005Y-52318914D01*
X73236021Y-52334729D01*
X73234786Y-52342531D01*
X73218229Y-52375024D01*
X73198324Y-52420106D01*
X73120106Y-52498324D01*
X73075024Y-52518229D01*
X73042531Y-52534786D01*
X73034729Y-52536021D01*
X73018914Y-52543005D01*
X72950000Y-52551000D01*
X71850000Y-52551000D01*
X71781086Y-52543005D01*
X71765270Y-52536021D01*
X71757468Y-52534786D01*
X71724967Y-52518226D01*
X71679894Y-52498324D01*
X71601676Y-52420106D01*
X71581776Y-52375039D01*
X71565213Y-52342531D01*
X71563976Y-52334726D01*
X71556995Y-52318914D01*
X71549000Y-52250000D01*
X71549000Y-51150000D01*
X71556995Y-51081086D01*
X71563976Y-51065274D01*
X71565213Y-51057468D01*
X71581780Y-51024953D01*
X71601676Y-50979894D01*
X71679894Y-50901676D01*
X71724953Y-50881780D01*
X71757468Y-50865213D01*
X71765274Y-50863976D01*
X71781086Y-50856995D01*
X71850000Y-50849000D01*
X72950000Y-50849000D01*
X73018914Y-50856995D01*
G37*
G36*
X91969517Y-49682882D02*
G01*
X91986062Y-49693938D01*
X91997118Y-49710483D01*
X92001000Y-49730000D01*
X92001000Y-51230000D01*
X91997118Y-51249517D01*
X91986062Y-51266062D01*
X91969517Y-51277118D01*
X91950000Y-51281000D01*
X90450000Y-51281000D01*
X90430483Y-51277118D01*
X90413938Y-51266062D01*
X90402882Y-51249517D01*
X90399000Y-51230000D01*
X90399000Y-49730000D01*
X90402882Y-49710483D01*
X90413938Y-49693938D01*
X90430483Y-49682882D01*
X90450000Y-49679000D01*
X91950000Y-49679000D01*
X91969517Y-49682882D01*
G37*
G36*
X72647032Y-48385644D02*
G01*
X72801159Y-48449485D01*
X72939869Y-48542168D01*
X73057832Y-48660131D01*
X73150515Y-48798841D01*
X73214356Y-48952968D01*
X73246902Y-49116587D01*
X73246902Y-49283413D01*
X73214356Y-49447032D01*
X73150515Y-49601159D01*
X73057832Y-49739869D01*
X72939869Y-49857832D01*
X72801159Y-49950515D01*
X72647032Y-50014356D01*
X72483413Y-50046902D01*
X72316587Y-50046902D01*
X72152968Y-50014356D01*
X71998841Y-49950515D01*
X71860131Y-49857832D01*
X71742168Y-49739869D01*
X71649485Y-49601159D01*
X71585644Y-49447032D01*
X71553098Y-49283413D01*
X71553098Y-49116587D01*
X71585644Y-48952968D01*
X71649485Y-48798841D01*
X71742168Y-48660131D01*
X71860131Y-48542168D01*
X71998841Y-48449485D01*
X72152968Y-48385644D01*
X72316587Y-48353098D01*
X72483413Y-48353098D01*
X72647032Y-48385644D01*
G37*
G36*
X55491498Y-47454061D02*
G01*
X55503016Y-47454061D01*
X55548023Y-47463013D01*
X55645260Y-47478414D01*
X55676536Y-47488576D01*
X55705089Y-47494256D01*
X55745387Y-47510948D01*
X55802052Y-47529360D01*
X55855135Y-47556407D01*
X55895438Y-47573101D01*
X55919647Y-47589277D01*
X55948943Y-47604204D01*
X56028583Y-47662066D01*
X56066747Y-47687566D01*
X56074891Y-47695710D01*
X56082315Y-47701104D01*
X56198895Y-47817684D01*
X56204288Y-47825107D01*
X56212434Y-47833253D01*
X56237936Y-47871420D01*
X56295795Y-47951056D01*
X56310720Y-47980348D01*
X56326899Y-48004562D01*
X56343594Y-48044869D01*
X56370639Y-48097947D01*
X56389048Y-48154604D01*
X56405744Y-48194911D01*
X56411424Y-48223469D01*
X56421585Y-48254739D01*
X56436984Y-48351967D01*
X56445939Y-48396984D01*
X56445939Y-48408502D01*
X56447375Y-48417569D01*
X56447375Y-48582430D01*
X56445939Y-48591496D01*
X56445939Y-48603016D01*
X56436983Y-48648035D01*
X56421585Y-48745260D01*
X56411425Y-48776528D01*
X56405744Y-48805089D01*
X56389047Y-48845398D01*
X56370639Y-48902052D01*
X56343596Y-48955125D01*
X56326899Y-48995438D01*
X56310718Y-49019654D01*
X56295795Y-49048943D01*
X56237945Y-49128566D01*
X56212434Y-49166747D01*
X56204285Y-49174895D01*
X56198895Y-49182315D01*
X56082315Y-49298895D01*
X56074895Y-49304285D01*
X56066747Y-49312434D01*
X56028566Y-49337945D01*
X55948943Y-49395795D01*
X55919654Y-49410718D01*
X55895438Y-49426899D01*
X55855125Y-49443596D01*
X55802052Y-49470639D01*
X55745398Y-49489047D01*
X55705089Y-49505744D01*
X55676528Y-49511425D01*
X55645260Y-49521585D01*
X55548033Y-49536984D01*
X55503016Y-49545939D01*
X55491497Y-49545939D01*
X55482431Y-49547375D01*
X55317569Y-49547375D01*
X55308503Y-49545939D01*
X55296984Y-49545939D01*
X55251967Y-49536984D01*
X55154739Y-49521585D01*
X55123469Y-49511424D01*
X55094911Y-49505744D01*
X55054604Y-49489048D01*
X54997947Y-49470639D01*
X54944869Y-49443594D01*
X54904562Y-49426899D01*
X54880348Y-49410720D01*
X54851056Y-49395795D01*
X54771420Y-49337936D01*
X54733253Y-49312434D01*
X54725107Y-49304288D01*
X54717684Y-49298895D01*
X54601104Y-49182315D01*
X54595710Y-49174891D01*
X54587566Y-49166747D01*
X54562066Y-49128583D01*
X54504204Y-49048943D01*
X54489277Y-49019647D01*
X54473101Y-48995438D01*
X54456407Y-48955135D01*
X54429360Y-48902052D01*
X54410948Y-48845387D01*
X54394256Y-48805089D01*
X54388576Y-48776536D01*
X54378414Y-48745260D01*
X54363014Y-48648026D01*
X54354061Y-48603016D01*
X54354061Y-48591496D01*
X54352625Y-48582430D01*
X54352625Y-48417569D01*
X54354061Y-48408502D01*
X54354061Y-48396984D01*
X54363013Y-48351977D01*
X54378414Y-48254739D01*
X54388576Y-48223461D01*
X54394256Y-48194911D01*
X54410946Y-48154616D01*
X54429360Y-48097947D01*
X54456409Y-48044858D01*
X54473101Y-48004562D01*
X54489275Y-47980355D01*
X54504204Y-47951056D01*
X54562074Y-47871403D01*
X54587566Y-47833253D01*
X54595707Y-47825111D01*
X54601104Y-47817684D01*
X54717684Y-47701104D01*
X54725111Y-47695707D01*
X54733253Y-47687566D01*
X54771403Y-47662074D01*
X54851056Y-47604204D01*
X54880355Y-47589275D01*
X54904562Y-47573101D01*
X54944858Y-47556409D01*
X54997947Y-47529360D01*
X55054616Y-47510946D01*
X55094911Y-47494256D01*
X55123461Y-47488576D01*
X55154739Y-47478414D01*
X55251977Y-47463013D01*
X55296984Y-47454061D01*
X55308502Y-47454061D01*
X55317569Y-47452625D01*
X55482431Y-47452625D01*
X55491498Y-47454061D01*
G37*
G36*
X39891498Y-47384061D02*
G01*
X39903016Y-47384061D01*
X39948023Y-47393013D01*
X40045260Y-47408414D01*
X40076536Y-47418576D01*
X40105089Y-47424256D01*
X40145387Y-47440948D01*
X40202052Y-47459360D01*
X40255135Y-47486407D01*
X40295438Y-47503101D01*
X40319647Y-47519277D01*
X40348943Y-47534204D01*
X40428583Y-47592066D01*
X40466747Y-47617566D01*
X40474891Y-47625710D01*
X40482315Y-47631104D01*
X40598895Y-47747684D01*
X40604288Y-47755107D01*
X40612434Y-47763253D01*
X40637936Y-47801420D01*
X40695795Y-47881056D01*
X40710720Y-47910348D01*
X40726899Y-47934562D01*
X40743594Y-47974869D01*
X40770639Y-48027947D01*
X40789048Y-48084604D01*
X40805744Y-48124911D01*
X40811424Y-48153469D01*
X40821585Y-48184739D01*
X40836984Y-48281967D01*
X40845939Y-48326984D01*
X40845939Y-48338502D01*
X40847375Y-48347569D01*
X40847375Y-48512430D01*
X40845939Y-48521496D01*
X40845939Y-48533016D01*
X40836983Y-48578035D01*
X40821585Y-48675260D01*
X40811425Y-48706528D01*
X40805744Y-48735089D01*
X40789047Y-48775398D01*
X40770639Y-48832052D01*
X40743596Y-48885125D01*
X40726899Y-48925438D01*
X40710718Y-48949654D01*
X40695795Y-48978943D01*
X40637945Y-49058566D01*
X40612434Y-49096747D01*
X40604285Y-49104895D01*
X40598895Y-49112315D01*
X40482315Y-49228895D01*
X40474895Y-49234285D01*
X40466747Y-49242434D01*
X40428566Y-49267945D01*
X40348943Y-49325795D01*
X40319654Y-49340718D01*
X40295438Y-49356899D01*
X40255125Y-49373596D01*
X40202052Y-49400639D01*
X40145398Y-49419047D01*
X40105089Y-49435744D01*
X40076528Y-49441425D01*
X40045260Y-49451585D01*
X39948033Y-49466984D01*
X39903016Y-49475939D01*
X39891497Y-49475939D01*
X39882431Y-49477375D01*
X39717569Y-49477375D01*
X39708503Y-49475939D01*
X39696984Y-49475939D01*
X39651967Y-49466984D01*
X39554739Y-49451585D01*
X39523469Y-49441424D01*
X39494911Y-49435744D01*
X39454604Y-49419048D01*
X39397947Y-49400639D01*
X39344869Y-49373594D01*
X39304562Y-49356899D01*
X39280348Y-49340720D01*
X39251056Y-49325795D01*
X39171420Y-49267936D01*
X39133253Y-49242434D01*
X39125107Y-49234288D01*
X39117684Y-49228895D01*
X39001104Y-49112315D01*
X38995710Y-49104891D01*
X38987566Y-49096747D01*
X38962066Y-49058583D01*
X38904204Y-48978943D01*
X38889277Y-48949647D01*
X38873101Y-48925438D01*
X38856407Y-48885135D01*
X38829360Y-48832052D01*
X38810948Y-48775387D01*
X38794256Y-48735089D01*
X38788576Y-48706536D01*
X38778414Y-48675260D01*
X38763014Y-48578026D01*
X38754061Y-48533016D01*
X38754061Y-48521496D01*
X38752625Y-48512430D01*
X38752625Y-48347569D01*
X38754061Y-48338502D01*
X38754061Y-48326984D01*
X38763013Y-48281977D01*
X38778414Y-48184739D01*
X38788576Y-48153461D01*
X38794256Y-48124911D01*
X38810946Y-48084616D01*
X38829360Y-48027947D01*
X38856409Y-47974858D01*
X38873101Y-47934562D01*
X38889275Y-47910355D01*
X38904204Y-47881056D01*
X38962074Y-47801403D01*
X38987566Y-47763253D01*
X38995707Y-47755111D01*
X39001104Y-47747684D01*
X39117684Y-47631104D01*
X39125111Y-47625707D01*
X39133253Y-47617566D01*
X39171403Y-47592074D01*
X39251056Y-47534204D01*
X39280355Y-47519275D01*
X39304562Y-47503101D01*
X39344858Y-47486409D01*
X39397947Y-47459360D01*
X39454616Y-47440946D01*
X39494911Y-47424256D01*
X39523461Y-47418576D01*
X39554739Y-47408414D01*
X39651977Y-47393013D01*
X39696984Y-47384061D01*
X39708502Y-47384061D01*
X39717569Y-47382625D01*
X39882431Y-47382625D01*
X39891498Y-47384061D01*
G37*
G36*
X101666263Y-47256995D02*
G01*
X101682075Y-47263976D01*
X101689880Y-47265213D01*
X101722388Y-47281776D01*
X101767455Y-47301676D01*
X101845673Y-47379894D01*
X101865575Y-47424967D01*
X101882135Y-47457468D01*
X101883370Y-47465270D01*
X101890354Y-47481086D01*
X101898349Y-47550000D01*
X101898349Y-48650000D01*
X101890354Y-48718914D01*
X101883370Y-48734729D01*
X101882135Y-48742531D01*
X101865578Y-48775024D01*
X101845673Y-48820106D01*
X101767455Y-48898324D01*
X101722373Y-48918229D01*
X101689880Y-48934786D01*
X101682078Y-48936021D01*
X101666263Y-48943005D01*
X101597349Y-48951000D01*
X100497349Y-48951000D01*
X100428435Y-48943005D01*
X100412619Y-48936021D01*
X100404817Y-48934786D01*
X100372316Y-48918226D01*
X100327243Y-48898324D01*
X100249025Y-48820106D01*
X100229125Y-48775039D01*
X100212562Y-48742531D01*
X100211325Y-48734726D01*
X100204344Y-48718914D01*
X100196349Y-48650000D01*
X100196349Y-47550000D01*
X100204344Y-47481086D01*
X100211325Y-47465274D01*
X100212562Y-47457468D01*
X100229129Y-47424953D01*
X100249025Y-47379894D01*
X100327243Y-47301676D01*
X100372302Y-47281780D01*
X100404817Y-47265213D01*
X100412623Y-47263976D01*
X100428435Y-47256995D01*
X100497349Y-47249000D01*
X101597349Y-47249000D01*
X101666263Y-47256995D01*
G37*
G36*
X103794381Y-47285644D02*
G01*
X103948508Y-47349485D01*
X104087218Y-47442168D01*
X104205181Y-47560131D01*
X104297864Y-47698841D01*
X104361705Y-47852968D01*
X104394251Y-48016587D01*
X104394251Y-48183413D01*
X104361705Y-48347032D01*
X104297864Y-48501159D01*
X104205181Y-48639869D01*
X104087218Y-48757832D01*
X103948508Y-48850515D01*
X103794381Y-48914356D01*
X103630762Y-48946902D01*
X103463936Y-48946902D01*
X103300317Y-48914356D01*
X103146190Y-48850515D01*
X103007480Y-48757832D01*
X102889517Y-48639869D01*
X102796834Y-48501159D01*
X102732993Y-48347032D01*
X102700447Y-48183413D01*
X102700447Y-48016587D01*
X102732993Y-47852968D01*
X102796834Y-47698841D01*
X102889517Y-47560131D01*
X103007480Y-47442168D01*
X103146190Y-47349485D01*
X103300317Y-47285644D01*
X103463936Y-47253098D01*
X103630762Y-47253098D01*
X103794381Y-47285644D01*
G37*
G36*
X95947032Y-47085644D02*
G01*
X96101159Y-47149485D01*
X96239869Y-47242168D01*
X96357832Y-47360131D01*
X96450515Y-47498841D01*
X96514356Y-47652968D01*
X96546902Y-47816587D01*
X96546902Y-47983413D01*
X96514356Y-48147032D01*
X96450515Y-48301159D01*
X96357832Y-48439869D01*
X96239869Y-48557832D01*
X96101159Y-48650515D01*
X95947032Y-48714356D01*
X95783413Y-48746902D01*
X95616587Y-48746902D01*
X95452968Y-48714356D01*
X95298841Y-48650515D01*
X95160131Y-48557832D01*
X95042168Y-48439869D01*
X94949485Y-48301159D01*
X94885644Y-48147032D01*
X94853098Y-47983413D01*
X94853098Y-47816587D01*
X94885644Y-47652968D01*
X94949485Y-47498841D01*
X95042168Y-47360131D01*
X95160131Y-47242168D01*
X95298841Y-47149485D01*
X95452968Y-47085644D01*
X95616587Y-47053098D01*
X95783413Y-47053098D01*
X95947032Y-47085644D01*
G37*
G36*
X91432518Y-47173491D02*
G01*
X91577589Y-47233581D01*
X91708149Y-47320819D01*
X91819181Y-47431851D01*
X91906419Y-47562411D01*
X91966509Y-47707482D01*
X91997143Y-47861488D01*
X91997143Y-48018512D01*
X91966509Y-48172518D01*
X91906419Y-48317589D01*
X91819181Y-48448149D01*
X91708149Y-48559181D01*
X91577589Y-48646419D01*
X91432518Y-48706509D01*
X91278512Y-48737143D01*
X91121488Y-48737143D01*
X90967482Y-48706509D01*
X90822411Y-48646419D01*
X90691851Y-48559181D01*
X90580819Y-48448149D01*
X90493581Y-48317589D01*
X90433491Y-48172518D01*
X90402857Y-48018512D01*
X90402857Y-47861488D01*
X90433491Y-47707482D01*
X90493581Y-47562411D01*
X90580819Y-47431851D01*
X90691851Y-47320819D01*
X90822411Y-47233581D01*
X90967482Y-47173491D01*
X91121488Y-47142857D01*
X91278512Y-47142857D01*
X91432518Y-47173491D01*
G37*
G36*
X78747032Y-46985644D02*
G01*
X78901159Y-47049485D01*
X79039869Y-47142168D01*
X79157832Y-47260131D01*
X79250515Y-47398841D01*
X79314356Y-47552968D01*
X79346902Y-47716587D01*
X79346902Y-47883413D01*
X79314356Y-48047032D01*
X79250515Y-48201159D01*
X79157832Y-48339869D01*
X79039869Y-48457832D01*
X78901159Y-48550515D01*
X78747032Y-48614356D01*
X78583413Y-48646902D01*
X78416587Y-48646902D01*
X78252968Y-48614356D01*
X78098841Y-48550515D01*
X77960131Y-48457832D01*
X77842168Y-48339869D01*
X77749485Y-48201159D01*
X77685644Y-48047032D01*
X77653098Y-47883413D01*
X77653098Y-47716587D01*
X77685644Y-47552968D01*
X77749485Y-47398841D01*
X77842168Y-47260131D01*
X77960131Y-47142168D01*
X78098841Y-47049485D01*
X78252968Y-46985644D01*
X78416587Y-46953098D01*
X78583413Y-46953098D01*
X78747032Y-46985644D01*
G37*
G36*
X83747032Y-46985644D02*
G01*
X83901159Y-47049485D01*
X84039869Y-47142168D01*
X84157832Y-47260131D01*
X84250515Y-47398841D01*
X84314356Y-47552968D01*
X84346902Y-47716587D01*
X84346902Y-47883413D01*
X84314356Y-48047032D01*
X84250515Y-48201159D01*
X84157832Y-48339869D01*
X84039869Y-48457832D01*
X83901159Y-48550515D01*
X83747032Y-48614356D01*
X83583413Y-48646902D01*
X83416587Y-48646902D01*
X83252968Y-48614356D01*
X83098841Y-48550515D01*
X82960131Y-48457832D01*
X82842168Y-48339869D01*
X82749485Y-48201159D01*
X82685644Y-48047032D01*
X82653098Y-47883413D01*
X82653098Y-47716587D01*
X82685644Y-47552968D01*
X82749485Y-47398841D01*
X82842168Y-47260131D01*
X82960131Y-47142168D01*
X83098841Y-47049485D01*
X83252968Y-46985644D01*
X83416587Y-46953098D01*
X83583413Y-46953098D01*
X83747032Y-46985644D01*
G37*
G36*
X51568696Y-45100802D02*
G01*
X51740469Y-45156615D01*
X51901396Y-45238611D01*
X52047515Y-45344773D01*
X52175227Y-45472485D01*
X52281389Y-45618604D01*
X52363385Y-45779531D01*
X52419198Y-45951304D01*
X52447452Y-46129694D01*
X52447452Y-46310306D01*
X52419198Y-46488696D01*
X52363385Y-46660469D01*
X52281389Y-46821396D01*
X52175227Y-46967515D01*
X52047515Y-47095227D01*
X51901396Y-47201389D01*
X51740469Y-47283385D01*
X51568696Y-47339198D01*
X51390306Y-47367452D01*
X51209694Y-47367452D01*
X51031304Y-47339198D01*
X50859531Y-47283385D01*
X50698604Y-47201389D01*
X50552485Y-47095227D01*
X50424773Y-46967515D01*
X50318611Y-46821396D01*
X50236615Y-46660469D01*
X50180802Y-46488696D01*
X50152548Y-46310306D01*
X50152548Y-46129694D01*
X50180802Y-45951304D01*
X50236615Y-45779531D01*
X50318611Y-45618604D01*
X50424773Y-45472485D01*
X50552485Y-45344773D01*
X50698604Y-45238611D01*
X50859531Y-45156615D01*
X51031304Y-45100802D01*
X51209694Y-45072548D01*
X51390306Y-45072548D01*
X51568696Y-45100802D01*
G37*
G36*
X47247032Y-44585644D02*
G01*
X47401159Y-44649485D01*
X47539869Y-44742168D01*
X47657832Y-44860131D01*
X47750515Y-44998841D01*
X47814356Y-45152968D01*
X47846902Y-45316587D01*
X47846902Y-45483413D01*
X47814356Y-45647032D01*
X47750515Y-45801159D01*
X47657832Y-45939869D01*
X47539869Y-46057832D01*
X47401159Y-46150515D01*
X47247032Y-46214356D01*
X47083413Y-46246902D01*
X46916587Y-46246902D01*
X46752968Y-46214356D01*
X46598841Y-46150515D01*
X46460131Y-46057832D01*
X46342168Y-45939869D01*
X46249485Y-45801159D01*
X46185644Y-45647032D01*
X46153098Y-45483413D01*
X46153098Y-45316587D01*
X46185644Y-45152968D01*
X46249485Y-44998841D01*
X46342168Y-44860131D01*
X46460131Y-44742168D01*
X46598841Y-44649485D01*
X46752968Y-44585644D01*
X46916587Y-44553098D01*
X47083413Y-44553098D01*
X47247032Y-44585644D01*
G37*
G36*
X95947032Y-44565644D02*
G01*
X96101159Y-44629485D01*
X96239869Y-44722168D01*
X96357832Y-44840131D01*
X96450515Y-44978841D01*
X96514356Y-45132968D01*
X96546902Y-45296587D01*
X96546902Y-45463413D01*
X96514356Y-45627032D01*
X96450515Y-45781159D01*
X96357832Y-45919869D01*
X96239869Y-46037832D01*
X96101159Y-46130515D01*
X95947032Y-46194356D01*
X95783413Y-46226902D01*
X95616587Y-46226902D01*
X95452968Y-46194356D01*
X95298841Y-46130515D01*
X95160131Y-46037832D01*
X95042168Y-45919869D01*
X94949485Y-45781159D01*
X94885644Y-45627032D01*
X94853098Y-45463413D01*
X94853098Y-45296587D01*
X94885644Y-45132968D01*
X94949485Y-44978841D01*
X95042168Y-44840131D01*
X95160131Y-44722168D01*
X95298841Y-44629485D01*
X95452968Y-44565644D01*
X95616587Y-44533098D01*
X95783413Y-44533098D01*
X95947032Y-44565644D01*
G37*
G36*
X91432518Y-44633491D02*
G01*
X91577589Y-44693581D01*
X91708149Y-44780819D01*
X91819181Y-44891851D01*
X91906419Y-45022411D01*
X91966509Y-45167482D01*
X91997143Y-45321488D01*
X91997143Y-45478512D01*
X91966509Y-45632518D01*
X91906419Y-45777589D01*
X91819181Y-45908149D01*
X91708149Y-46019181D01*
X91577589Y-46106419D01*
X91432518Y-46166509D01*
X91278512Y-46197143D01*
X91121488Y-46197143D01*
X90967482Y-46166509D01*
X90822411Y-46106419D01*
X90691851Y-46019181D01*
X90580819Y-45908149D01*
X90493581Y-45777589D01*
X90433491Y-45632518D01*
X90402857Y-45478512D01*
X90402857Y-45321488D01*
X90433491Y-45167482D01*
X90493581Y-45022411D01*
X90580819Y-44891851D01*
X90691851Y-44780819D01*
X90822411Y-44693581D01*
X90967482Y-44633491D01*
X91121488Y-44602857D01*
X91278512Y-44602857D01*
X91432518Y-44633491D01*
G37*
G36*
X55491498Y-43254061D02*
G01*
X55503016Y-43254061D01*
X55548023Y-43263013D01*
X55645260Y-43278414D01*
X55676536Y-43288576D01*
X55705089Y-43294256D01*
X55745387Y-43310948D01*
X55802052Y-43329360D01*
X55855135Y-43356407D01*
X55895438Y-43373101D01*
X55919647Y-43389277D01*
X55948943Y-43404204D01*
X56028583Y-43462066D01*
X56066747Y-43487566D01*
X56074891Y-43495710D01*
X56082315Y-43501104D01*
X56198895Y-43617684D01*
X56204288Y-43625107D01*
X56212434Y-43633253D01*
X56237936Y-43671420D01*
X56295795Y-43751056D01*
X56310720Y-43780348D01*
X56326899Y-43804562D01*
X56343594Y-43844869D01*
X56370639Y-43897947D01*
X56389048Y-43954604D01*
X56405744Y-43994911D01*
X56411424Y-44023469D01*
X56421585Y-44054739D01*
X56436984Y-44151967D01*
X56445939Y-44196984D01*
X56445939Y-44208502D01*
X56447375Y-44217569D01*
X56447375Y-44382430D01*
X56445939Y-44391496D01*
X56445939Y-44403016D01*
X56436983Y-44448035D01*
X56421585Y-44545260D01*
X56411425Y-44576528D01*
X56405744Y-44605089D01*
X56389047Y-44645398D01*
X56370639Y-44702052D01*
X56343596Y-44755125D01*
X56326899Y-44795438D01*
X56310718Y-44819654D01*
X56295795Y-44848943D01*
X56237945Y-44928566D01*
X56212434Y-44966747D01*
X56204285Y-44974895D01*
X56198895Y-44982315D01*
X56082315Y-45098895D01*
X56074895Y-45104285D01*
X56066747Y-45112434D01*
X56028566Y-45137945D01*
X55948943Y-45195795D01*
X55919654Y-45210718D01*
X55895438Y-45226899D01*
X55855125Y-45243596D01*
X55802052Y-45270639D01*
X55745398Y-45289047D01*
X55705089Y-45305744D01*
X55676528Y-45311425D01*
X55645260Y-45321585D01*
X55548033Y-45336984D01*
X55503016Y-45345939D01*
X55491497Y-45345939D01*
X55482431Y-45347375D01*
X55317569Y-45347375D01*
X55308503Y-45345939D01*
X55296984Y-45345939D01*
X55251967Y-45336984D01*
X55154739Y-45321585D01*
X55123469Y-45311424D01*
X55094911Y-45305744D01*
X55054604Y-45289048D01*
X54997947Y-45270639D01*
X54944869Y-45243594D01*
X54904562Y-45226899D01*
X54880348Y-45210720D01*
X54851056Y-45195795D01*
X54771420Y-45137936D01*
X54733253Y-45112434D01*
X54725107Y-45104288D01*
X54717684Y-45098895D01*
X54601104Y-44982315D01*
X54595710Y-44974891D01*
X54587566Y-44966747D01*
X54562066Y-44928583D01*
X54504204Y-44848943D01*
X54489277Y-44819647D01*
X54473101Y-44795438D01*
X54456407Y-44755135D01*
X54429360Y-44702052D01*
X54410948Y-44645387D01*
X54394256Y-44605089D01*
X54388576Y-44576536D01*
X54378414Y-44545260D01*
X54363014Y-44448026D01*
X54354061Y-44403016D01*
X54354061Y-44391496D01*
X54352625Y-44382430D01*
X54352625Y-44217569D01*
X54354061Y-44208502D01*
X54354061Y-44196984D01*
X54363013Y-44151977D01*
X54378414Y-44054739D01*
X54388576Y-44023461D01*
X54394256Y-43994911D01*
X54410946Y-43954616D01*
X54429360Y-43897947D01*
X54456409Y-43844858D01*
X54473101Y-43804562D01*
X54489275Y-43780355D01*
X54504204Y-43751056D01*
X54562074Y-43671403D01*
X54587566Y-43633253D01*
X54595707Y-43625111D01*
X54601104Y-43617684D01*
X54717684Y-43501104D01*
X54725111Y-43495707D01*
X54733253Y-43487566D01*
X54771403Y-43462074D01*
X54851056Y-43404204D01*
X54880355Y-43389275D01*
X54904562Y-43373101D01*
X54944858Y-43356409D01*
X54997947Y-43329360D01*
X55054616Y-43310946D01*
X55094911Y-43294256D01*
X55123461Y-43288576D01*
X55154739Y-43278414D01*
X55251977Y-43263013D01*
X55296984Y-43254061D01*
X55308502Y-43254061D01*
X55317569Y-43252625D01*
X55482431Y-43252625D01*
X55491498Y-43254061D01*
G37*
G36*
X107572518Y-43073491D02*
G01*
X107717589Y-43133581D01*
X107848149Y-43220819D01*
X107959181Y-43331851D01*
X108046419Y-43462411D01*
X108106509Y-43607482D01*
X108137143Y-43761488D01*
X108137143Y-43918512D01*
X108106509Y-44072518D01*
X108046419Y-44217589D01*
X107959181Y-44348149D01*
X107848149Y-44459181D01*
X107717589Y-44546419D01*
X107572518Y-44606509D01*
X107418512Y-44637143D01*
X107261488Y-44637143D01*
X107107482Y-44606509D01*
X106962411Y-44546419D01*
X106831851Y-44459181D01*
X106720819Y-44348149D01*
X106633581Y-44217589D01*
X106573491Y-44072518D01*
X106542857Y-43918512D01*
X106542857Y-43761488D01*
X106573491Y-43607482D01*
X106633581Y-43462411D01*
X106720819Y-43331851D01*
X106831851Y-43220819D01*
X106962411Y-43133581D01*
X107107482Y-43073491D01*
X107261488Y-43042857D01*
X107418512Y-43042857D01*
X107572518Y-43073491D01*
G37*
G36*
X112332518Y-43073491D02*
G01*
X112477589Y-43133581D01*
X112608149Y-43220819D01*
X112719181Y-43331851D01*
X112806419Y-43462411D01*
X112866509Y-43607482D01*
X112897143Y-43761488D01*
X112897143Y-43918512D01*
X112866509Y-44072518D01*
X112806419Y-44217589D01*
X112719181Y-44348149D01*
X112608149Y-44459181D01*
X112477589Y-44546419D01*
X112332518Y-44606509D01*
X112178512Y-44637143D01*
X112021488Y-44637143D01*
X111867482Y-44606509D01*
X111722411Y-44546419D01*
X111591851Y-44459181D01*
X111480819Y-44348149D01*
X111393581Y-44217589D01*
X111333491Y-44072518D01*
X111302857Y-43918512D01*
X111302857Y-43761488D01*
X111333491Y-43607482D01*
X111393581Y-43462411D01*
X111480819Y-43331851D01*
X111591851Y-43220819D01*
X111722411Y-43133581D01*
X111867482Y-43073491D01*
X112021488Y-43042857D01*
X112178512Y-43042857D01*
X112332518Y-43073491D01*
G37*
G36*
X40346373Y-38907024D02*
G01*
X40609558Y-38977545D01*
X40861287Y-39081814D01*
X41097253Y-39218049D01*
X41313417Y-39383918D01*
X41506082Y-39576583D01*
X41671951Y-39792747D01*
X41808186Y-40028713D01*
X41912455Y-40280442D01*
X41982976Y-40543627D01*
X42018540Y-40813765D01*
X42018540Y-41086235D01*
X41982976Y-41356373D01*
X41912455Y-41619558D01*
X41808186Y-41871287D01*
X41671951Y-42107253D01*
X41506082Y-42323417D01*
X41313417Y-42516082D01*
X41097253Y-42681951D01*
X40861287Y-42818186D01*
X40609558Y-42922455D01*
X40346373Y-42992976D01*
X40076235Y-43028540D01*
X39803765Y-43028540D01*
X39533627Y-42992976D01*
X39270442Y-42922455D01*
X39018713Y-42818186D01*
X38782747Y-42681951D01*
X38566583Y-42516082D01*
X38373918Y-42323417D01*
X38208049Y-42107253D01*
X38071814Y-41871287D01*
X37967545Y-41619558D01*
X37897024Y-41356373D01*
X37861460Y-41086235D01*
X37861460Y-40813765D01*
X37897024Y-40543627D01*
X37967545Y-40280442D01*
X38071814Y-40028713D01*
X38208049Y-39792747D01*
X38373918Y-39576583D01*
X38566583Y-39383918D01*
X38782747Y-39218049D01*
X39018713Y-39081814D01*
X39270442Y-38977545D01*
X39533627Y-38907024D01*
X39803765Y-38871460D01*
X40076235Y-38871460D01*
X40346373Y-38907024D01*
G37*
G36*
X89598915Y-40156995D02*
G01*
X89614726Y-40163976D01*
X89622533Y-40165213D01*
X89655054Y-40181783D01*
X89700106Y-40201676D01*
X89778324Y-40279894D01*
X89798219Y-40324953D01*
X89814786Y-40357466D01*
X89816022Y-40365270D01*
X89823005Y-40381085D01*
X89830999Y-40450000D01*
X89830999Y-40459829D01*
X89831000Y-40459836D01*
X89831000Y-41356322D01*
X89831000Y-42150001D01*
X89823005Y-42218915D01*
X89816021Y-42234729D01*
X89814786Y-42242533D01*
X89798223Y-42275039D01*
X89778324Y-42320106D01*
X89700106Y-42398324D01*
X89655039Y-42418223D01*
X89622533Y-42434786D01*
X89614729Y-42436021D01*
X89598915Y-42443005D01*
X89530000Y-42450999D01*
X89520170Y-42450999D01*
X89520164Y-42451000D01*
X87839836Y-42451000D01*
X87839835Y-42450999D01*
X87829999Y-42451000D01*
X87761085Y-42443005D01*
X87745270Y-42436022D01*
X87737466Y-42434786D01*
X87704953Y-42418219D01*
X87659894Y-42398324D01*
X87581676Y-42320106D01*
X87561783Y-42275054D01*
X87545213Y-42242533D01*
X87543976Y-42234726D01*
X87536995Y-42218915D01*
X87529001Y-42150000D01*
X87529000Y-42140169D01*
X87529000Y-42140163D01*
X87529000Y-40459836D01*
X87529000Y-40459835D01*
X87529000Y-40449999D01*
X87536995Y-40381085D01*
X87543976Y-40365273D01*
X87545213Y-40357466D01*
X87561786Y-40324938D01*
X87581676Y-40279894D01*
X87659894Y-40201676D01*
X87704938Y-40181786D01*
X87737466Y-40165213D01*
X87745273Y-40163976D01*
X87761085Y-40156995D01*
X87830000Y-40149001D01*
X87839829Y-40149000D01*
X87839836Y-40149000D01*
X89520164Y-40149000D01*
X89530001Y-40149000D01*
X89598915Y-40156995D01*
G37*
G36*
X78788696Y-40180802D02*
G01*
X78960469Y-40236615D01*
X79121396Y-40318611D01*
X79267515Y-40424773D01*
X79395227Y-40552485D01*
X79501389Y-40698604D01*
X79583385Y-40859531D01*
X79639198Y-41031304D01*
X79667452Y-41209694D01*
X79667452Y-41390306D01*
X79639198Y-41568696D01*
X79583385Y-41740469D01*
X79501389Y-41901396D01*
X79395227Y-42047515D01*
X79267515Y-42175227D01*
X79121396Y-42281389D01*
X78960469Y-42363385D01*
X78788696Y-42419198D01*
X78610306Y-42447452D01*
X78429694Y-42447452D01*
X78251304Y-42419198D01*
X78079531Y-42363385D01*
X77918604Y-42281389D01*
X77772485Y-42175227D01*
X77644773Y-42047515D01*
X77538611Y-41901396D01*
X77456615Y-41740469D01*
X77400802Y-41568696D01*
X77372548Y-41390306D01*
X77372548Y-41209694D01*
X77400802Y-41031304D01*
X77456615Y-40859531D01*
X77538611Y-40698604D01*
X77644773Y-40552485D01*
X77772485Y-40424773D01*
X77918604Y-40318611D01*
X78079531Y-40236615D01*
X78251304Y-40180802D01*
X78429694Y-40152548D01*
X78610306Y-40152548D01*
X78788696Y-40180802D01*
G37*
G36*
X107572518Y-40533491D02*
G01*
X107717589Y-40593581D01*
X107848149Y-40680819D01*
X107959181Y-40791851D01*
X108046419Y-40922411D01*
X108106509Y-41067482D01*
X108137143Y-41221488D01*
X108137143Y-41378512D01*
X108106509Y-41532518D01*
X108046419Y-41677589D01*
X107959181Y-41808149D01*
X107848149Y-41919181D01*
X107717589Y-42006419D01*
X107572518Y-42066509D01*
X107418512Y-42097143D01*
X107261488Y-42097143D01*
X107107482Y-42066509D01*
X106962411Y-42006419D01*
X106831851Y-41919181D01*
X106720819Y-41808149D01*
X106633581Y-41677589D01*
X106573491Y-41532518D01*
X106542857Y-41378512D01*
X106542857Y-41221488D01*
X106573491Y-41067482D01*
X106633581Y-40922411D01*
X106720819Y-40791851D01*
X106831851Y-40680819D01*
X106962411Y-40593581D01*
X107107482Y-40533491D01*
X107261488Y-40502857D01*
X107418512Y-40502857D01*
X107572518Y-40533491D01*
G37*
G36*
X112332518Y-40533491D02*
G01*
X112477589Y-40593581D01*
X112608149Y-40680819D01*
X112719181Y-40791851D01*
X112806419Y-40922411D01*
X112866509Y-41067482D01*
X112897143Y-41221488D01*
X112897143Y-41378512D01*
X112866509Y-41532518D01*
X112806419Y-41677589D01*
X112719181Y-41808149D01*
X112608149Y-41919181D01*
X112477589Y-42006419D01*
X112332518Y-42066509D01*
X112178512Y-42097143D01*
X112021488Y-42097143D01*
X111867482Y-42066509D01*
X111722411Y-42006419D01*
X111591851Y-41919181D01*
X111480819Y-41808149D01*
X111393581Y-41677589D01*
X111333491Y-41532518D01*
X111302857Y-41378512D01*
X111302857Y-41221488D01*
X111333491Y-41067482D01*
X111393581Y-40922411D01*
X111480819Y-40791851D01*
X111591851Y-40680819D01*
X111722411Y-40593581D01*
X111867482Y-40533491D01*
X112021488Y-40502857D01*
X112178512Y-40502857D01*
X112332518Y-40533491D01*
G37*
G36*
X95947032Y-39485644D02*
G01*
X96101159Y-39549485D01*
X96239869Y-39642168D01*
X96357832Y-39760131D01*
X96450515Y-39898841D01*
X96514356Y-40052968D01*
X96546902Y-40216587D01*
X96546902Y-40383413D01*
X96514356Y-40547032D01*
X96450515Y-40701159D01*
X96357832Y-40839869D01*
X96239869Y-40957832D01*
X96101159Y-41050515D01*
X95947032Y-41114356D01*
X95783413Y-41146902D01*
X95616587Y-41146902D01*
X95452968Y-41114356D01*
X95298841Y-41050515D01*
X95160131Y-40957832D01*
X95042168Y-40839869D01*
X94949485Y-40701159D01*
X94885644Y-40547032D01*
X94853098Y-40383413D01*
X94853098Y-40216587D01*
X94885644Y-40052968D01*
X94949485Y-39898841D01*
X95042168Y-39760131D01*
X95160131Y-39642168D01*
X95298841Y-39549485D01*
X95452968Y-39485644D01*
X95616587Y-39453098D01*
X95783413Y-39453098D01*
X95947032Y-39485644D01*
G37*
G36*
X63438914Y-37456995D02*
G01*
X63454726Y-37463976D01*
X63462531Y-37465213D01*
X63495039Y-37481776D01*
X63540106Y-37501676D01*
X63618324Y-37579894D01*
X63638226Y-37624967D01*
X63654786Y-37657468D01*
X63656021Y-37665270D01*
X63663005Y-37681086D01*
X63671000Y-37750000D01*
X63671000Y-40450000D01*
X63663005Y-40518914D01*
X63656021Y-40534729D01*
X63654786Y-40542531D01*
X63638229Y-40575024D01*
X63618324Y-40620106D01*
X63540106Y-40698324D01*
X63495024Y-40718229D01*
X63462531Y-40734786D01*
X63454729Y-40736021D01*
X63438914Y-40743005D01*
X63370000Y-40751000D01*
X60670000Y-40751000D01*
X60601086Y-40743005D01*
X60585270Y-40736021D01*
X60577468Y-40734786D01*
X60544967Y-40718226D01*
X60499894Y-40698324D01*
X60421676Y-40620106D01*
X60401776Y-40575039D01*
X60385213Y-40542531D01*
X60383976Y-40534726D01*
X60376995Y-40518914D01*
X60369000Y-40450000D01*
X60369000Y-37750000D01*
X60376995Y-37681086D01*
X60383976Y-37665274D01*
X60385213Y-37657468D01*
X60401780Y-37624953D01*
X60421676Y-37579894D01*
X60499894Y-37501676D01*
X60544953Y-37481780D01*
X60577468Y-37465213D01*
X60585274Y-37463976D01*
X60601086Y-37456995D01*
X60670000Y-37449000D01*
X63370000Y-37449000D01*
X63438914Y-37456995D01*
G37*
G36*
X46897730Y-37454089D02*
G01*
X46909536Y-37454089D01*
X46967663Y-37463295D01*
X47102042Y-37480986D01*
X47134837Y-37489773D01*
X47165418Y-37494617D01*
X47224229Y-37513726D01*
X47310611Y-37536872D01*
X47365724Y-37559700D01*
X47411810Y-37574675D01*
X47454987Y-37596674D01*
X47510099Y-37619503D01*
X47587539Y-37664213D01*
X47642645Y-37692291D01*
X47667697Y-37710492D01*
X47697096Y-37727466D01*
X47804651Y-37809995D01*
X47852239Y-37844570D01*
X47860579Y-37852910D01*
X47868401Y-37858912D01*
X48021087Y-38011598D01*
X48027088Y-38019419D01*
X48035430Y-38027761D01*
X48070008Y-38075354D01*
X48152533Y-38182903D01*
X48169505Y-38212299D01*
X48187709Y-38237355D01*
X48215789Y-38292466D01*
X48260496Y-38369900D01*
X48283321Y-38425006D01*
X48305325Y-38468190D01*
X48320301Y-38514282D01*
X48343127Y-38569388D01*
X48366269Y-38655757D01*
X48385383Y-38714582D01*
X48390227Y-38745169D01*
X48399013Y-38777957D01*
X48416703Y-38912327D01*
X48425911Y-38970464D01*
X48425911Y-38982269D01*
X48427197Y-38992038D01*
X48427197Y-39207961D01*
X48425911Y-39217729D01*
X48425911Y-39229536D01*
X48416702Y-39287677D01*
X48399013Y-39422042D01*
X48390228Y-39454827D01*
X48385383Y-39485418D01*
X48366268Y-39544246D01*
X48343127Y-39630611D01*
X48320302Y-39685713D01*
X48305325Y-39731810D01*
X48283319Y-39774997D01*
X48260496Y-39830099D01*
X48215793Y-39907525D01*
X48187709Y-39962645D01*
X48169502Y-39987704D01*
X48152533Y-40017096D01*
X48070022Y-40124627D01*
X48035430Y-40172239D01*
X48027085Y-40180583D01*
X48021087Y-40188401D01*
X47868401Y-40341087D01*
X47860583Y-40347085D01*
X47852239Y-40355430D01*
X47804627Y-40390022D01*
X47697096Y-40472533D01*
X47667704Y-40489502D01*
X47642645Y-40507709D01*
X47587525Y-40535793D01*
X47510099Y-40580496D01*
X47454997Y-40603319D01*
X47411810Y-40625325D01*
X47365713Y-40640302D01*
X47310611Y-40663127D01*
X47224246Y-40686268D01*
X47165418Y-40705383D01*
X47134827Y-40710228D01*
X47102042Y-40719013D01*
X46967677Y-40736702D01*
X46909536Y-40745911D01*
X46897729Y-40745911D01*
X46887961Y-40747197D01*
X46672039Y-40747197D01*
X46662271Y-40745911D01*
X46650464Y-40745911D01*
X46592324Y-40736702D01*
X46457957Y-40719013D01*
X46425169Y-40710227D01*
X46394582Y-40705383D01*
X46335757Y-40686269D01*
X46249388Y-40663127D01*
X46194282Y-40640301D01*
X46148190Y-40625325D01*
X46105006Y-40603321D01*
X46049900Y-40580496D01*
X45972466Y-40535789D01*
X45917355Y-40507709D01*
X45892299Y-40489505D01*
X45862903Y-40472533D01*
X45755354Y-40390008D01*
X45707761Y-40355430D01*
X45699419Y-40347088D01*
X45691598Y-40341087D01*
X45538912Y-40188401D01*
X45532910Y-40180579D01*
X45524570Y-40172239D01*
X45489995Y-40124651D01*
X45407466Y-40017096D01*
X45390492Y-39987697D01*
X45372291Y-39962645D01*
X45344213Y-39907539D01*
X45299503Y-39830099D01*
X45276674Y-39774987D01*
X45254675Y-39731810D01*
X45239700Y-39685724D01*
X45216872Y-39630611D01*
X45193726Y-39544229D01*
X45174617Y-39485418D01*
X45169773Y-39454837D01*
X45160986Y-39422042D01*
X45143295Y-39287663D01*
X45134089Y-39229536D01*
X45134089Y-39217729D01*
X45132803Y-39207961D01*
X45132803Y-38992038D01*
X45134089Y-38982269D01*
X45134089Y-38970464D01*
X45143294Y-38912341D01*
X45160986Y-38777957D01*
X45169773Y-38745160D01*
X45174617Y-38714582D01*
X45193724Y-38655775D01*
X45216872Y-38569388D01*
X45239702Y-38514271D01*
X45254675Y-38468190D01*
X45276672Y-38425016D01*
X45299503Y-38369900D01*
X45344217Y-38292451D01*
X45372291Y-38237355D01*
X45390489Y-38212306D01*
X45407466Y-38182903D01*
X45490009Y-38075329D01*
X45524570Y-38027761D01*
X45532906Y-38019424D01*
X45538912Y-38011598D01*
X45691598Y-37858912D01*
X45699424Y-37852906D01*
X45707761Y-37844570D01*
X45755329Y-37810009D01*
X45862903Y-37727466D01*
X45892306Y-37710489D01*
X45917355Y-37692291D01*
X45972451Y-37664217D01*
X46049900Y-37619503D01*
X46105016Y-37596672D01*
X46148190Y-37574675D01*
X46194271Y-37559702D01*
X46249388Y-37536872D01*
X46335775Y-37513724D01*
X46394582Y-37494617D01*
X46425160Y-37489773D01*
X46457957Y-37480986D01*
X46592338Y-37463295D01*
X46650464Y-37454089D01*
X46662270Y-37454089D01*
X46672039Y-37452803D01*
X46887961Y-37452803D01*
X46897730Y-37454089D01*
G37*
G36*
X70692040Y-37159606D02*
G01*
X70878737Y-37220268D01*
X71053646Y-37309388D01*
X71212460Y-37424773D01*
X71351268Y-37563581D01*
X71466653Y-37722395D01*
X71555773Y-37897304D01*
X71616435Y-38084001D01*
X71647144Y-38277889D01*
X71647144Y-38474193D01*
X71616435Y-38668081D01*
X71555773Y-38854778D01*
X71466653Y-39029687D01*
X71351268Y-39188501D01*
X71212460Y-39327309D01*
X71053646Y-39442694D01*
X70878737Y-39531814D01*
X70692040Y-39592476D01*
X70498152Y-39623185D01*
X70301848Y-39623185D01*
X70107960Y-39592476D01*
X69921263Y-39531814D01*
X69746354Y-39442694D01*
X69587540Y-39327309D01*
X69448732Y-39188501D01*
X69333347Y-39029687D01*
X69244227Y-38854778D01*
X69183565Y-38668081D01*
X69152856Y-38474193D01*
X69152856Y-38277889D01*
X69183565Y-38084001D01*
X69244227Y-37897304D01*
X69333347Y-37722395D01*
X69448732Y-37563581D01*
X69587540Y-37424773D01*
X69746354Y-37309388D01*
X69921263Y-37220268D01*
X70107960Y-37159606D01*
X70301848Y-37128897D01*
X70498152Y-37128897D01*
X70692040Y-37159606D01*
G37*
G36*
X108109517Y-37962882D02*
G01*
X108126062Y-37973938D01*
X108137118Y-37990483D01*
X108141000Y-38010000D01*
X108141000Y-39510000D01*
X108137118Y-39529517D01*
X108126062Y-39546062D01*
X108109517Y-39557118D01*
X108090000Y-39561000D01*
X106590000Y-39561000D01*
X106570483Y-39557118D01*
X106553938Y-39546062D01*
X106542882Y-39529517D01*
X106539000Y-39510000D01*
X106539000Y-38010000D01*
X106542882Y-37990483D01*
X106553938Y-37973938D01*
X106570483Y-37962882D01*
X106590000Y-37959000D01*
X108090000Y-37959000D01*
X108109517Y-37962882D01*
G37*
G36*
X112869517Y-37962882D02*
G01*
X112886062Y-37973938D01*
X112897118Y-37990483D01*
X112901000Y-38010000D01*
X112901000Y-39510000D01*
X112897118Y-39529517D01*
X112886062Y-39546062D01*
X112869517Y-39557118D01*
X112850000Y-39561000D01*
X111350000Y-39561000D01*
X111330483Y-39557118D01*
X111313938Y-39546062D01*
X111302882Y-39529517D01*
X111299000Y-39510000D01*
X111299000Y-38010000D01*
X111302882Y-37990483D01*
X111313938Y-37973938D01*
X111330483Y-37962882D01*
X111350000Y-37959000D01*
X112850000Y-37959000D01*
X112869517Y-37962882D01*
G37*
G36*
X126367730Y-34994089D02*
G01*
X126379536Y-34994089D01*
X126437663Y-35003295D01*
X126572042Y-35020986D01*
X126604837Y-35029773D01*
X126635418Y-35034617D01*
X126694229Y-35053726D01*
X126780611Y-35076872D01*
X126835724Y-35099700D01*
X126881810Y-35114675D01*
X126924987Y-35136674D01*
X126980099Y-35159503D01*
X127057539Y-35204213D01*
X127112645Y-35232291D01*
X127137697Y-35250492D01*
X127167096Y-35267466D01*
X127274651Y-35349995D01*
X127322239Y-35384570D01*
X127330579Y-35392910D01*
X127338401Y-35398912D01*
X127491087Y-35551598D01*
X127497088Y-35559419D01*
X127505430Y-35567761D01*
X127540008Y-35615354D01*
X127622533Y-35722903D01*
X127639505Y-35752299D01*
X127657709Y-35777355D01*
X127685789Y-35832466D01*
X127730496Y-35909900D01*
X127753321Y-35965006D01*
X127775325Y-36008190D01*
X127790301Y-36054282D01*
X127813127Y-36109388D01*
X127836269Y-36195757D01*
X127855383Y-36254582D01*
X127860227Y-36285169D01*
X127869013Y-36317957D01*
X127886703Y-36452327D01*
X127895911Y-36510464D01*
X127895911Y-36522269D01*
X127897197Y-36532038D01*
X127897197Y-36747961D01*
X127895911Y-36757729D01*
X127895911Y-36769536D01*
X127886702Y-36827677D01*
X127869013Y-36962042D01*
X127860228Y-36994827D01*
X127855383Y-37025418D01*
X127836268Y-37084246D01*
X127813127Y-37170611D01*
X127790302Y-37225713D01*
X127775325Y-37271810D01*
X127753319Y-37314997D01*
X127730496Y-37370099D01*
X127685793Y-37447525D01*
X127657709Y-37502645D01*
X127639502Y-37527704D01*
X127622533Y-37557096D01*
X127540022Y-37664627D01*
X127505430Y-37712239D01*
X127497085Y-37720583D01*
X127491087Y-37728401D01*
X127338401Y-37881087D01*
X127330583Y-37887085D01*
X127322239Y-37895430D01*
X127274627Y-37930022D01*
X127167096Y-38012533D01*
X127137704Y-38029502D01*
X127112645Y-38047709D01*
X127057525Y-38075793D01*
X126980099Y-38120496D01*
X126924997Y-38143319D01*
X126881810Y-38165325D01*
X126835713Y-38180302D01*
X126780611Y-38203127D01*
X126694246Y-38226268D01*
X126635418Y-38245383D01*
X126604827Y-38250228D01*
X126572042Y-38259013D01*
X126437677Y-38276702D01*
X126379536Y-38285911D01*
X126367729Y-38285911D01*
X126357961Y-38287197D01*
X126142039Y-38287197D01*
X126132271Y-38285911D01*
X126120464Y-38285911D01*
X126062324Y-38276702D01*
X125927957Y-38259013D01*
X125895169Y-38250227D01*
X125864582Y-38245383D01*
X125805757Y-38226269D01*
X125719388Y-38203127D01*
X125664282Y-38180301D01*
X125618190Y-38165325D01*
X125575006Y-38143321D01*
X125519900Y-38120496D01*
X125442466Y-38075789D01*
X125387355Y-38047709D01*
X125362299Y-38029505D01*
X125332903Y-38012533D01*
X125225354Y-37930008D01*
X125177761Y-37895430D01*
X125169419Y-37887088D01*
X125161598Y-37881087D01*
X125008912Y-37728401D01*
X125002910Y-37720579D01*
X124994570Y-37712239D01*
X124959995Y-37664651D01*
X124877466Y-37557096D01*
X124860492Y-37527697D01*
X124842291Y-37502645D01*
X124814213Y-37447539D01*
X124769503Y-37370099D01*
X124746674Y-37314987D01*
X124724675Y-37271810D01*
X124709700Y-37225724D01*
X124686872Y-37170611D01*
X124663726Y-37084229D01*
X124644617Y-37025418D01*
X124639773Y-36994837D01*
X124630986Y-36962042D01*
X124613295Y-36827663D01*
X124604089Y-36769536D01*
X124604089Y-36757729D01*
X124602803Y-36747961D01*
X124602803Y-36532038D01*
X124604089Y-36522269D01*
X124604089Y-36510464D01*
X124613294Y-36452341D01*
X124630986Y-36317957D01*
X124639773Y-36285160D01*
X124644617Y-36254582D01*
X124663724Y-36195775D01*
X124686872Y-36109388D01*
X124709702Y-36054271D01*
X124724675Y-36008190D01*
X124746672Y-35965016D01*
X124769503Y-35909900D01*
X124814217Y-35832451D01*
X124842291Y-35777355D01*
X124860489Y-35752306D01*
X124877466Y-35722903D01*
X124960009Y-35615329D01*
X124994570Y-35567761D01*
X125002906Y-35559424D01*
X125008912Y-35551598D01*
X125161598Y-35398912D01*
X125169424Y-35392906D01*
X125177761Y-35384570D01*
X125225329Y-35350009D01*
X125332903Y-35267466D01*
X125362306Y-35250489D01*
X125387355Y-35232291D01*
X125442451Y-35204217D01*
X125519900Y-35159503D01*
X125575016Y-35136672D01*
X125618190Y-35114675D01*
X125664271Y-35099702D01*
X125719388Y-35076872D01*
X125805775Y-35053724D01*
X125864582Y-35034617D01*
X125895160Y-35029773D01*
X125927957Y-35020986D01*
X126062338Y-35003295D01*
X126120464Y-34994089D01*
X126132270Y-34994089D01*
X126142039Y-34992803D01*
X126357961Y-34992803D01*
X126367730Y-34994089D01*
G37*
G36*
X120367730Y-34989089D02*
G01*
X120379536Y-34989089D01*
X120437663Y-34998295D01*
X120572042Y-35015986D01*
X120604837Y-35024773D01*
X120635418Y-35029617D01*
X120694229Y-35048726D01*
X120780611Y-35071872D01*
X120835724Y-35094700D01*
X120881810Y-35109675D01*
X120924987Y-35131674D01*
X120980099Y-35154503D01*
X121057539Y-35199213D01*
X121112645Y-35227291D01*
X121137697Y-35245492D01*
X121167096Y-35262466D01*
X121274651Y-35344995D01*
X121322239Y-35379570D01*
X121330579Y-35387910D01*
X121338401Y-35393912D01*
X121491087Y-35546598D01*
X121497088Y-35554419D01*
X121505430Y-35562761D01*
X121540008Y-35610354D01*
X121622533Y-35717903D01*
X121639505Y-35747299D01*
X121657709Y-35772355D01*
X121685789Y-35827466D01*
X121730496Y-35904900D01*
X121753321Y-35960006D01*
X121775325Y-36003190D01*
X121790301Y-36049282D01*
X121813127Y-36104388D01*
X121836269Y-36190757D01*
X121855383Y-36249582D01*
X121860227Y-36280169D01*
X121869013Y-36312957D01*
X121886703Y-36447327D01*
X121895911Y-36505464D01*
X121895911Y-36517269D01*
X121897197Y-36527038D01*
X121897197Y-36742961D01*
X121895911Y-36752729D01*
X121895911Y-36764536D01*
X121886702Y-36822677D01*
X121869013Y-36957042D01*
X121860228Y-36989827D01*
X121855383Y-37020418D01*
X121836268Y-37079246D01*
X121813127Y-37165611D01*
X121790302Y-37220713D01*
X121775325Y-37266810D01*
X121753319Y-37309997D01*
X121730496Y-37365099D01*
X121685793Y-37442525D01*
X121657709Y-37497645D01*
X121639502Y-37522704D01*
X121622533Y-37552096D01*
X121540022Y-37659627D01*
X121505430Y-37707239D01*
X121497085Y-37715583D01*
X121491087Y-37723401D01*
X121338401Y-37876087D01*
X121330583Y-37882085D01*
X121322239Y-37890430D01*
X121274627Y-37925022D01*
X121167096Y-38007533D01*
X121137704Y-38024502D01*
X121112645Y-38042709D01*
X121057525Y-38070793D01*
X120980099Y-38115496D01*
X120924997Y-38138319D01*
X120881810Y-38160325D01*
X120835713Y-38175302D01*
X120780611Y-38198127D01*
X120694246Y-38221268D01*
X120635418Y-38240383D01*
X120604827Y-38245228D01*
X120572042Y-38254013D01*
X120437677Y-38271702D01*
X120379536Y-38280911D01*
X120367729Y-38280911D01*
X120357961Y-38282197D01*
X120142039Y-38282197D01*
X120132271Y-38280911D01*
X120120464Y-38280911D01*
X120062324Y-38271702D01*
X119927957Y-38254013D01*
X119895169Y-38245227D01*
X119864582Y-38240383D01*
X119805757Y-38221269D01*
X119719388Y-38198127D01*
X119664282Y-38175301D01*
X119618190Y-38160325D01*
X119575006Y-38138321D01*
X119519900Y-38115496D01*
X119442466Y-38070789D01*
X119387355Y-38042709D01*
X119362299Y-38024505D01*
X119332903Y-38007533D01*
X119225354Y-37925008D01*
X119177761Y-37890430D01*
X119169419Y-37882088D01*
X119161598Y-37876087D01*
X119008912Y-37723401D01*
X119002910Y-37715579D01*
X118994570Y-37707239D01*
X118959995Y-37659651D01*
X118877466Y-37552096D01*
X118860492Y-37522697D01*
X118842291Y-37497645D01*
X118814213Y-37442539D01*
X118769503Y-37365099D01*
X118746674Y-37309987D01*
X118724675Y-37266810D01*
X118709700Y-37220724D01*
X118686872Y-37165611D01*
X118663726Y-37079229D01*
X118644617Y-37020418D01*
X118639773Y-36989837D01*
X118630986Y-36957042D01*
X118613295Y-36822663D01*
X118604089Y-36764536D01*
X118604089Y-36752729D01*
X118602803Y-36742961D01*
X118602803Y-36527038D01*
X118604089Y-36517269D01*
X118604089Y-36505464D01*
X118613294Y-36447341D01*
X118630986Y-36312957D01*
X118639773Y-36280160D01*
X118644617Y-36249582D01*
X118663724Y-36190775D01*
X118686872Y-36104388D01*
X118709702Y-36049271D01*
X118724675Y-36003190D01*
X118746672Y-35960016D01*
X118769503Y-35904900D01*
X118814217Y-35827451D01*
X118842291Y-35772355D01*
X118860489Y-35747306D01*
X118877466Y-35717903D01*
X118960009Y-35610329D01*
X118994570Y-35562761D01*
X119002906Y-35554424D01*
X119008912Y-35546598D01*
X119161598Y-35393912D01*
X119169424Y-35387906D01*
X119177761Y-35379570D01*
X119225329Y-35345009D01*
X119332903Y-35262466D01*
X119362306Y-35245489D01*
X119387355Y-35227291D01*
X119442451Y-35199217D01*
X119519900Y-35154503D01*
X119575016Y-35131672D01*
X119618190Y-35109675D01*
X119664271Y-35094702D01*
X119719388Y-35071872D01*
X119805775Y-35048724D01*
X119864582Y-35029617D01*
X119895160Y-35024773D01*
X119927957Y-35015986D01*
X120062338Y-34998295D01*
X120120464Y-34989089D01*
X120132270Y-34989089D01*
X120142039Y-34987803D01*
X120357961Y-34987803D01*
X120367730Y-34989089D01*
G37*
G36*
X90867032Y-35785644D02*
G01*
X91021159Y-35849485D01*
X91159869Y-35942168D01*
X91277832Y-36060131D01*
X91370515Y-36198841D01*
X91434356Y-36352968D01*
X91466902Y-36516587D01*
X91466902Y-36683413D01*
X91434356Y-36847032D01*
X91370515Y-37001159D01*
X91277832Y-37139869D01*
X91159869Y-37257832D01*
X91021159Y-37350515D01*
X90867032Y-37414356D01*
X90703413Y-37446902D01*
X90536587Y-37446902D01*
X90372968Y-37414356D01*
X90218841Y-37350515D01*
X90080131Y-37257832D01*
X89962168Y-37139869D01*
X89869485Y-37001159D01*
X89805644Y-36847032D01*
X89773098Y-36683413D01*
X89773098Y-36516587D01*
X89805644Y-36352968D01*
X89869485Y-36198841D01*
X89962168Y-36060131D01*
X90080131Y-35942168D01*
X90218841Y-35849485D01*
X90372968Y-35785644D01*
X90536587Y-35753098D01*
X90703413Y-35753098D01*
X90867032Y-35785644D01*
G37*
G36*
X95947032Y-35785644D02*
G01*
X96101159Y-35849485D01*
X96239869Y-35942168D01*
X96357832Y-36060131D01*
X96450515Y-36198841D01*
X96514356Y-36352968D01*
X96546902Y-36516587D01*
X96546902Y-36683413D01*
X96514356Y-36847032D01*
X96450515Y-37001159D01*
X96357832Y-37139869D01*
X96239869Y-37257832D01*
X96101159Y-37350515D01*
X95947032Y-37414356D01*
X95783413Y-37446902D01*
X95616587Y-37446902D01*
X95452968Y-37414356D01*
X95298841Y-37350515D01*
X95160131Y-37257832D01*
X95042168Y-37139869D01*
X94949485Y-37001159D01*
X94885644Y-36847032D01*
X94853098Y-36683413D01*
X94853098Y-36516587D01*
X94885644Y-36352968D01*
X94949485Y-36198841D01*
X95042168Y-36060131D01*
X95160131Y-35942168D01*
X95298841Y-35849485D01*
X95452968Y-35785644D01*
X95616587Y-35753098D01*
X95783413Y-35753098D01*
X95947032Y-35785644D01*
G37*
G36*
X63438914Y-31656995D02*
G01*
X63454726Y-31663976D01*
X63462531Y-31665213D01*
X63495039Y-31681776D01*
X63540106Y-31701676D01*
X63618324Y-31779894D01*
X63638226Y-31824967D01*
X63654786Y-31857468D01*
X63656021Y-31865270D01*
X63663005Y-31881086D01*
X63671000Y-31950000D01*
X63671000Y-34650000D01*
X63663005Y-34718914D01*
X63656021Y-34734729D01*
X63654786Y-34742531D01*
X63638229Y-34775024D01*
X63618324Y-34820106D01*
X63540106Y-34898324D01*
X63495024Y-34918229D01*
X63462531Y-34934786D01*
X63454729Y-34936021D01*
X63438914Y-34943005D01*
X63370000Y-34951000D01*
X60670000Y-34951000D01*
X60601086Y-34943005D01*
X60585270Y-34936021D01*
X60577468Y-34934786D01*
X60544967Y-34918226D01*
X60499894Y-34898324D01*
X60421676Y-34820106D01*
X60401776Y-34775039D01*
X60385213Y-34742531D01*
X60383976Y-34734726D01*
X60376995Y-34718914D01*
X60369000Y-34650000D01*
X60369000Y-31950000D01*
X60376995Y-31881086D01*
X60383976Y-31865274D01*
X60385213Y-31857468D01*
X60401780Y-31824953D01*
X60421676Y-31779894D01*
X60499894Y-31701676D01*
X60544953Y-31681780D01*
X60577468Y-31665213D01*
X60585274Y-31663976D01*
X60601086Y-31656995D01*
X60670000Y-31649000D01*
X63370000Y-31649000D01*
X63438914Y-31656995D01*
G37*
G36*
X46897730Y-31654089D02*
G01*
X46909536Y-31654089D01*
X46967663Y-31663295D01*
X47102042Y-31680986D01*
X47134837Y-31689773D01*
X47165418Y-31694617D01*
X47224229Y-31713726D01*
X47310611Y-31736872D01*
X47365724Y-31759700D01*
X47411810Y-31774675D01*
X47454987Y-31796674D01*
X47510099Y-31819503D01*
X47587539Y-31864213D01*
X47642645Y-31892291D01*
X47667697Y-31910492D01*
X47697096Y-31927466D01*
X47804651Y-32009995D01*
X47852239Y-32044570D01*
X47860579Y-32052910D01*
X47868401Y-32058912D01*
X48021087Y-32211598D01*
X48027088Y-32219419D01*
X48035430Y-32227761D01*
X48070008Y-32275354D01*
X48152533Y-32382903D01*
X48169505Y-32412299D01*
X48187709Y-32437355D01*
X48215789Y-32492466D01*
X48260496Y-32569900D01*
X48283321Y-32625006D01*
X48305325Y-32668190D01*
X48320301Y-32714282D01*
X48343127Y-32769388D01*
X48366269Y-32855757D01*
X48385383Y-32914582D01*
X48390227Y-32945169D01*
X48399013Y-32977957D01*
X48416703Y-33112327D01*
X48425911Y-33170464D01*
X48425911Y-33182269D01*
X48427197Y-33192038D01*
X48427197Y-33407961D01*
X48425911Y-33417729D01*
X48425911Y-33429536D01*
X48416702Y-33487677D01*
X48399013Y-33622042D01*
X48390228Y-33654827D01*
X48385383Y-33685418D01*
X48366268Y-33744246D01*
X48343127Y-33830611D01*
X48320302Y-33885713D01*
X48305325Y-33931810D01*
X48283319Y-33974997D01*
X48260496Y-34030099D01*
X48215793Y-34107525D01*
X48187709Y-34162645D01*
X48169502Y-34187704D01*
X48152533Y-34217096D01*
X48070022Y-34324627D01*
X48035430Y-34372239D01*
X48027085Y-34380583D01*
X48021087Y-34388401D01*
X47868401Y-34541087D01*
X47860583Y-34547085D01*
X47852239Y-34555430D01*
X47804627Y-34590022D01*
X47697096Y-34672533D01*
X47667704Y-34689502D01*
X47642645Y-34707709D01*
X47587525Y-34735793D01*
X47510099Y-34780496D01*
X47454997Y-34803319D01*
X47411810Y-34825325D01*
X47365713Y-34840302D01*
X47310611Y-34863127D01*
X47224246Y-34886268D01*
X47165418Y-34905383D01*
X47134827Y-34910228D01*
X47102042Y-34919013D01*
X46967677Y-34936702D01*
X46909536Y-34945911D01*
X46897729Y-34945911D01*
X46887961Y-34947197D01*
X46672039Y-34947197D01*
X46662271Y-34945911D01*
X46650464Y-34945911D01*
X46592324Y-34936702D01*
X46457957Y-34919013D01*
X46425169Y-34910227D01*
X46394582Y-34905383D01*
X46335757Y-34886269D01*
X46249388Y-34863127D01*
X46194282Y-34840301D01*
X46148190Y-34825325D01*
X46105006Y-34803321D01*
X46049900Y-34780496D01*
X45972466Y-34735789D01*
X45917355Y-34707709D01*
X45892299Y-34689505D01*
X45862903Y-34672533D01*
X45755354Y-34590008D01*
X45707761Y-34555430D01*
X45699419Y-34547088D01*
X45691598Y-34541087D01*
X45538912Y-34388401D01*
X45532910Y-34380579D01*
X45524570Y-34372239D01*
X45489995Y-34324651D01*
X45407466Y-34217096D01*
X45390492Y-34187697D01*
X45372291Y-34162645D01*
X45344213Y-34107539D01*
X45299503Y-34030099D01*
X45276674Y-33974987D01*
X45254675Y-33931810D01*
X45239700Y-33885724D01*
X45216872Y-33830611D01*
X45193726Y-33744229D01*
X45174617Y-33685418D01*
X45169773Y-33654837D01*
X45160986Y-33622042D01*
X45143295Y-33487663D01*
X45134089Y-33429536D01*
X45134089Y-33417729D01*
X45132803Y-33407961D01*
X45132803Y-33192038D01*
X45134089Y-33182269D01*
X45134089Y-33170464D01*
X45143294Y-33112341D01*
X45160986Y-32977957D01*
X45169773Y-32945160D01*
X45174617Y-32914582D01*
X45193724Y-32855775D01*
X45216872Y-32769388D01*
X45239702Y-32714271D01*
X45254675Y-32668190D01*
X45276672Y-32625016D01*
X45299503Y-32569900D01*
X45344217Y-32492451D01*
X45372291Y-32437355D01*
X45390489Y-32412306D01*
X45407466Y-32382903D01*
X45490009Y-32275329D01*
X45524570Y-32227761D01*
X45532906Y-32219424D01*
X45538912Y-32211598D01*
X45691598Y-32058912D01*
X45699424Y-32052906D01*
X45707761Y-32044570D01*
X45755329Y-32010009D01*
X45862903Y-31927466D01*
X45892306Y-31910489D01*
X45917355Y-31892291D01*
X45972451Y-31864217D01*
X46049900Y-31819503D01*
X46105016Y-31796672D01*
X46148190Y-31774675D01*
X46194271Y-31759702D01*
X46249388Y-31736872D01*
X46335775Y-31713724D01*
X46394582Y-31694617D01*
X46425160Y-31689773D01*
X46457957Y-31680986D01*
X46592338Y-31663295D01*
X46650464Y-31654089D01*
X46662270Y-31654089D01*
X46672039Y-31652803D01*
X46887961Y-31652803D01*
X46897730Y-31654089D01*
G37*
G36*
X71418913Y-32133036D02*
G01*
X71434725Y-32140017D01*
X71442531Y-32141254D01*
X71475044Y-32157820D01*
X71520106Y-32177717D01*
X71598324Y-32255935D01*
X71618223Y-32301003D01*
X71634786Y-32333509D01*
X71636022Y-32341313D01*
X71643005Y-32357128D01*
X71650999Y-32426043D01*
X71650999Y-32435872D01*
X71651000Y-32435879D01*
X71651000Y-33376228D01*
X71651000Y-34326040D01*
X71643005Y-34394954D01*
X71636021Y-34410769D01*
X71634786Y-34418572D01*
X71618226Y-34451071D01*
X71598324Y-34496147D01*
X71520106Y-34574365D01*
X71475030Y-34594267D01*
X71442531Y-34610827D01*
X71434728Y-34612062D01*
X71418913Y-34619046D01*
X71349998Y-34627040D01*
X71340168Y-34627040D01*
X71340162Y-34627041D01*
X69459838Y-34627041D01*
X69459837Y-34627040D01*
X69450001Y-34627041D01*
X69381087Y-34619046D01*
X69365272Y-34612063D01*
X69357468Y-34610827D01*
X69324962Y-34594264D01*
X69279894Y-34574365D01*
X69201676Y-34496147D01*
X69181779Y-34451085D01*
X69165213Y-34418572D01*
X69163976Y-34410766D01*
X69156995Y-34394954D01*
X69149001Y-34326039D01*
X69149000Y-34316208D01*
X69149000Y-34316202D01*
X69149000Y-32435879D01*
X69149000Y-32435878D01*
X69149000Y-32426042D01*
X69156995Y-32357128D01*
X69163976Y-32341316D01*
X69165213Y-32333509D01*
X69181782Y-32300988D01*
X69201676Y-32255935D01*
X69279894Y-32177717D01*
X69324947Y-32157823D01*
X69357468Y-32141254D01*
X69365275Y-32140017D01*
X69381087Y-32133036D01*
X69450002Y-32125042D01*
X69459831Y-32125041D01*
X69459838Y-32125041D01*
X71340162Y-32125041D01*
X71349999Y-32125041D01*
X71418913Y-32133036D01*
G37*
G36*
X108272017Y-32452882D02*
G01*
X108288562Y-32463938D01*
X108299618Y-32480483D01*
X108303500Y-32500000D01*
X108303500Y-34500000D01*
X108299618Y-34519517D01*
X108288562Y-34536062D01*
X108272017Y-34547118D01*
X108252500Y-34551000D01*
X106347500Y-34551000D01*
X106327983Y-34547118D01*
X106311438Y-34536062D01*
X106300382Y-34519517D01*
X106296500Y-34500000D01*
X106296500Y-32500000D01*
X106300382Y-32480483D01*
X106311438Y-32463938D01*
X106327983Y-32452882D01*
X106347500Y-32449000D01*
X108252500Y-32449000D01*
X108272017Y-32452882D01*
G37*
G36*
X109927247Y-32453832D02*
G01*
X109938360Y-32453832D01*
X109981786Y-32462470D01*
X110074172Y-32477102D01*
X110103886Y-32486757D01*
X110131301Y-32492210D01*
X110169989Y-32508235D01*
X110223875Y-32525744D01*
X110274360Y-32551467D01*
X110313047Y-32567492D01*
X110336286Y-32583020D01*
X110364124Y-32597204D01*
X110439790Y-32652179D01*
X110476614Y-32676784D01*
X110484473Y-32684643D01*
X110491466Y-32689724D01*
X110602775Y-32801033D01*
X110607855Y-32808025D01*
X110615716Y-32815886D01*
X110640323Y-32852713D01*
X110695295Y-32928375D01*
X110709477Y-32956210D01*
X110725008Y-32979453D01*
X110741034Y-33018145D01*
X110766755Y-33068624D01*
X110784261Y-33122503D01*
X110800290Y-33161199D01*
X110805744Y-33188618D01*
X110815397Y-33218327D01*
X110830027Y-33310702D01*
X110838668Y-33354140D01*
X110839459Y-33370252D01*
X110840406Y-33376228D01*
X110843016Y-33442649D01*
X110843500Y-33452500D01*
X110843500Y-33547500D01*
X110843015Y-33557354D01*
X110840406Y-33623771D01*
X110839459Y-33629746D01*
X110838668Y-33645860D01*
X110830026Y-33689301D01*
X110815397Y-33781672D01*
X110805744Y-33811378D01*
X110800290Y-33838801D01*
X110784260Y-33877500D01*
X110766755Y-33931375D01*
X110741037Y-33981849D01*
X110725008Y-34020547D01*
X110709475Y-34043792D01*
X110695295Y-34071624D01*
X110640331Y-34147273D01*
X110615716Y-34184114D01*
X110607852Y-34191977D01*
X110602775Y-34198966D01*
X110491466Y-34310275D01*
X110484477Y-34315352D01*
X110476614Y-34323216D01*
X110439773Y-34347831D01*
X110364124Y-34402795D01*
X110336292Y-34416975D01*
X110313047Y-34432508D01*
X110274349Y-34448537D01*
X110223875Y-34474255D01*
X110170000Y-34491760D01*
X110131301Y-34507790D01*
X110103878Y-34513244D01*
X110074172Y-34522897D01*
X109981796Y-34537527D01*
X109938360Y-34546168D01*
X109927246Y-34546168D01*
X109918704Y-34547521D01*
X109761296Y-34547521D01*
X109752754Y-34546168D01*
X109741640Y-34546168D01*
X109698204Y-34537528D01*
X109605827Y-34522897D01*
X109576118Y-34513244D01*
X109548699Y-34507790D01*
X109510003Y-34491761D01*
X109456124Y-34474255D01*
X109405645Y-34448534D01*
X109366953Y-34432508D01*
X109343710Y-34416977D01*
X109315875Y-34402795D01*
X109240213Y-34347823D01*
X109203386Y-34323216D01*
X109195525Y-34315355D01*
X109188533Y-34310275D01*
X109077224Y-34198966D01*
X109072143Y-34191973D01*
X109064284Y-34184114D01*
X109039679Y-34147290D01*
X108984704Y-34071624D01*
X108970520Y-34043786D01*
X108954992Y-34020547D01*
X108938967Y-33981860D01*
X108913244Y-33931375D01*
X108895735Y-33877489D01*
X108879710Y-33838801D01*
X108874257Y-33811386D01*
X108864602Y-33781672D01*
X108849968Y-33689277D01*
X108841332Y-33645860D01*
X108840540Y-33629755D01*
X108839593Y-33623771D01*
X108836983Y-33557338D01*
X108836500Y-33547500D01*
X108836500Y-33452500D01*
X108836983Y-33442665D01*
X108839593Y-33376228D01*
X108840540Y-33370242D01*
X108841332Y-33354140D01*
X108849967Y-33310726D01*
X108864602Y-33218327D01*
X108874257Y-33188610D01*
X108879710Y-33161199D01*
X108895733Y-33122514D01*
X108913244Y-33068624D01*
X108938969Y-33018134D01*
X108954992Y-32979453D01*
X108970518Y-32956216D01*
X108984704Y-32928375D01*
X109039687Y-32852696D01*
X109064284Y-32815886D01*
X109072141Y-32808028D01*
X109077224Y-32801033D01*
X109188533Y-32689724D01*
X109195528Y-32684641D01*
X109203386Y-32676784D01*
X109240196Y-32652187D01*
X109315875Y-32597204D01*
X109343716Y-32583018D01*
X109366953Y-32567492D01*
X109405634Y-32551469D01*
X109456124Y-32525744D01*
X109510014Y-32508233D01*
X109548699Y-32492210D01*
X109576110Y-32486757D01*
X109605827Y-32477102D01*
X109698214Y-32462469D01*
X109741640Y-32453832D01*
X109752753Y-32453832D01*
X109761296Y-32452479D01*
X109918704Y-32452479D01*
X109927247Y-32453832D01*
G37*
G36*
X112467247Y-32453832D02*
G01*
X112478360Y-32453832D01*
X112521786Y-32462470D01*
X112614172Y-32477102D01*
X112643886Y-32486757D01*
X112671301Y-32492210D01*
X112709989Y-32508235D01*
X112763875Y-32525744D01*
X112814360Y-32551467D01*
X112853047Y-32567492D01*
X112876286Y-32583020D01*
X112904124Y-32597204D01*
X112979790Y-32652179D01*
X113016614Y-32676784D01*
X113024473Y-32684643D01*
X113031466Y-32689724D01*
X113142775Y-32801033D01*
X113147855Y-32808025D01*
X113155716Y-32815886D01*
X113180323Y-32852713D01*
X113235295Y-32928375D01*
X113249477Y-32956210D01*
X113265008Y-32979453D01*
X113281034Y-33018145D01*
X113306755Y-33068624D01*
X113324261Y-33122503D01*
X113340290Y-33161199D01*
X113345744Y-33188618D01*
X113355397Y-33218327D01*
X113370027Y-33310702D01*
X113378668Y-33354140D01*
X113379459Y-33370252D01*
X113380406Y-33376228D01*
X113383016Y-33442649D01*
X113383500Y-33452500D01*
X113383500Y-33547500D01*
X113383015Y-33557354D01*
X113380406Y-33623771D01*
X113379459Y-33629746D01*
X113378668Y-33645860D01*
X113370026Y-33689301D01*
X113355397Y-33781672D01*
X113345744Y-33811378D01*
X113340290Y-33838801D01*
X113324260Y-33877500D01*
X113306755Y-33931375D01*
X113281037Y-33981849D01*
X113265008Y-34020547D01*
X113249475Y-34043792D01*
X113235295Y-34071624D01*
X113180331Y-34147273D01*
X113155716Y-34184114D01*
X113147852Y-34191977D01*
X113142775Y-34198966D01*
X113031466Y-34310275D01*
X113024477Y-34315352D01*
X113016614Y-34323216D01*
X112979773Y-34347831D01*
X112904124Y-34402795D01*
X112876292Y-34416975D01*
X112853047Y-34432508D01*
X112814349Y-34448537D01*
X112763875Y-34474255D01*
X112710000Y-34491760D01*
X112671301Y-34507790D01*
X112643878Y-34513244D01*
X112614172Y-34522897D01*
X112521796Y-34537527D01*
X112478360Y-34546168D01*
X112467246Y-34546168D01*
X112458704Y-34547521D01*
X112301296Y-34547521D01*
X112292754Y-34546168D01*
X112281640Y-34546168D01*
X112238204Y-34537528D01*
X112145827Y-34522897D01*
X112116118Y-34513244D01*
X112088699Y-34507790D01*
X112050003Y-34491761D01*
X111996124Y-34474255D01*
X111945645Y-34448534D01*
X111906953Y-34432508D01*
X111883710Y-34416977D01*
X111855875Y-34402795D01*
X111780213Y-34347823D01*
X111743386Y-34323216D01*
X111735525Y-34315355D01*
X111728533Y-34310275D01*
X111617224Y-34198966D01*
X111612143Y-34191973D01*
X111604284Y-34184114D01*
X111579679Y-34147290D01*
X111524704Y-34071624D01*
X111510520Y-34043786D01*
X111494992Y-34020547D01*
X111478967Y-33981860D01*
X111453244Y-33931375D01*
X111435735Y-33877489D01*
X111419710Y-33838801D01*
X111414257Y-33811386D01*
X111404602Y-33781672D01*
X111389968Y-33689277D01*
X111381332Y-33645860D01*
X111380540Y-33629755D01*
X111379593Y-33623771D01*
X111376983Y-33557338D01*
X111376500Y-33547500D01*
X111376500Y-33452500D01*
X111376983Y-33442665D01*
X111379593Y-33376228D01*
X111380540Y-33370242D01*
X111381332Y-33354140D01*
X111389967Y-33310726D01*
X111404602Y-33218327D01*
X111414257Y-33188610D01*
X111419710Y-33161199D01*
X111435733Y-33122514D01*
X111453244Y-33068624D01*
X111478969Y-33018134D01*
X111494992Y-32979453D01*
X111510518Y-32956216D01*
X111524704Y-32928375D01*
X111579687Y-32852696D01*
X111604284Y-32815886D01*
X111612141Y-32808028D01*
X111617224Y-32801033D01*
X111728533Y-32689724D01*
X111735528Y-32684641D01*
X111743386Y-32676784D01*
X111780196Y-32652187D01*
X111855875Y-32597204D01*
X111883716Y-32583018D01*
X111906953Y-32567492D01*
X111945634Y-32551469D01*
X111996124Y-32525744D01*
X112050014Y-32508233D01*
X112088699Y-32492210D01*
X112116110Y-32486757D01*
X112145827Y-32477102D01*
X112238214Y-32462469D01*
X112281640Y-32453832D01*
X112292753Y-32453832D01*
X112301296Y-32452479D01*
X112458704Y-32452479D01*
X112467247Y-32453832D01*
G37*
G36*
X41057723Y-26990140D02*
G01*
X41423568Y-27062911D01*
X41780518Y-27171191D01*
X42125137Y-27313937D01*
X42454105Y-27489774D01*
X42764253Y-27697008D01*
X43052596Y-27933645D01*
X43316355Y-28197404D01*
X43552992Y-28485747D01*
X43760226Y-28795895D01*
X43936063Y-29124863D01*
X44078809Y-29469482D01*
X44187089Y-29826432D01*
X44259860Y-30192277D01*
X44296422Y-30563494D01*
X44296422Y-30936506D01*
X44259860Y-31307723D01*
X44187089Y-31673568D01*
X44078809Y-32030518D01*
X43936063Y-32375137D01*
X43760226Y-32704105D01*
X43552992Y-33014253D01*
X43316355Y-33302596D01*
X43052596Y-33566355D01*
X42764253Y-33802992D01*
X42454105Y-34010226D01*
X42125137Y-34186063D01*
X41780518Y-34328809D01*
X41423568Y-34437089D01*
X41057723Y-34509860D01*
X40686506Y-34546422D01*
X40313494Y-34546422D01*
X39942277Y-34509860D01*
X39576432Y-34437089D01*
X39219482Y-34328809D01*
X38874863Y-34186063D01*
X38545895Y-34010226D01*
X38235747Y-33802992D01*
X37947404Y-33566355D01*
X37683645Y-33302596D01*
X37447008Y-33014253D01*
X37239774Y-32704105D01*
X37063937Y-32375137D01*
X36921191Y-32030518D01*
X36812911Y-31673568D01*
X36740140Y-31307723D01*
X36703578Y-30936506D01*
X36703578Y-30563494D01*
X36740140Y-30192277D01*
X36812911Y-29826432D01*
X36921191Y-29469482D01*
X37063937Y-29124863D01*
X37239774Y-28795895D01*
X37447008Y-28485747D01*
X37683645Y-28197404D01*
X37947404Y-27933645D01*
X38235747Y-27697008D01*
X38545895Y-27489774D01*
X38874863Y-27313937D01*
X39219482Y-27171191D01*
X39576432Y-27062911D01*
X39942277Y-26990140D01*
X40313494Y-26953578D01*
X40686506Y-26953578D01*
X41057723Y-26990140D01*
G37*
G36*
X130257723Y-26940140D02*
G01*
X130623568Y-27012911D01*
X130980518Y-27121191D01*
X131325137Y-27263937D01*
X131654105Y-27439774D01*
X131964253Y-27647008D01*
X132252596Y-27883645D01*
X132516355Y-28147404D01*
X132752992Y-28435747D01*
X132960226Y-28745895D01*
X133136063Y-29074863D01*
X133278809Y-29419482D01*
X133387089Y-29776432D01*
X133459860Y-30142277D01*
X133496422Y-30513494D01*
X133496422Y-30886506D01*
X133459860Y-31257723D01*
X133387089Y-31623568D01*
X133278809Y-31980518D01*
X133136063Y-32325137D01*
X132960226Y-32654105D01*
X132752992Y-32964253D01*
X132516355Y-33252596D01*
X132252596Y-33516355D01*
X131964253Y-33752992D01*
X131654105Y-33960226D01*
X131325137Y-34136063D01*
X130980518Y-34278809D01*
X130623568Y-34387089D01*
X130257723Y-34459860D01*
X129886506Y-34496422D01*
X129513494Y-34496422D01*
X129142277Y-34459860D01*
X128776432Y-34387089D01*
X128419482Y-34278809D01*
X128074863Y-34136063D01*
X127745895Y-33960226D01*
X127435747Y-33752992D01*
X127147404Y-33516355D01*
X126883645Y-33252596D01*
X126647008Y-32964253D01*
X126439774Y-32654105D01*
X126263937Y-32325137D01*
X126121191Y-31980518D01*
X126012911Y-31623568D01*
X125940140Y-31257723D01*
X125903578Y-30886506D01*
X125903578Y-30513494D01*
X125940140Y-30142277D01*
X126012911Y-29776432D01*
X126121191Y-29419482D01*
X126263937Y-29074863D01*
X126439774Y-28745895D01*
X126647008Y-28435747D01*
X126883645Y-28147404D01*
X127147404Y-27883645D01*
X127435747Y-27647008D01*
X127745895Y-27439774D01*
X128074863Y-27263937D01*
X128419482Y-27121191D01*
X128776432Y-27012911D01*
X129142277Y-26940140D01*
X129513494Y-26903578D01*
X129886506Y-26903578D01*
X130257723Y-26940140D01*
G37*
G36*
X120096733Y-31356995D02*
G01*
X120112544Y-31363976D01*
X120120351Y-31365213D01*
X120152872Y-31381783D01*
X120197924Y-31401676D01*
X120276142Y-31479894D01*
X120296037Y-31524953D01*
X120312604Y-31557466D01*
X120313840Y-31565270D01*
X120320823Y-31581085D01*
X120328817Y-31650000D01*
X120328817Y-31659829D01*
X120328818Y-31659836D01*
X120328818Y-32512310D01*
X120328818Y-33350001D01*
X120320823Y-33418915D01*
X120313839Y-33434729D01*
X120312604Y-33442533D01*
X120296041Y-33475039D01*
X120276142Y-33520106D01*
X120197924Y-33598324D01*
X120152857Y-33618223D01*
X120120351Y-33634786D01*
X120112547Y-33636021D01*
X120096733Y-33643005D01*
X120027818Y-33650999D01*
X120017988Y-33650999D01*
X120017982Y-33651000D01*
X118337654Y-33651000D01*
X118337653Y-33650999D01*
X118327817Y-33651000D01*
X118258903Y-33643005D01*
X118243088Y-33636022D01*
X118235284Y-33634786D01*
X118202771Y-33618219D01*
X118157712Y-33598324D01*
X118079494Y-33520106D01*
X118059601Y-33475054D01*
X118043031Y-33442533D01*
X118041794Y-33434726D01*
X118034813Y-33418915D01*
X118026819Y-33350000D01*
X118026818Y-33340169D01*
X118026818Y-33340163D01*
X118026818Y-31659836D01*
X118026818Y-31659835D01*
X118026818Y-31649999D01*
X118034813Y-31581085D01*
X118041794Y-31565273D01*
X118043031Y-31557466D01*
X118059604Y-31524938D01*
X118079494Y-31479894D01*
X118157712Y-31401676D01*
X118202756Y-31381786D01*
X118235284Y-31365213D01*
X118243091Y-31363976D01*
X118258903Y-31356995D01*
X118327818Y-31349001D01*
X118337647Y-31349000D01*
X118337654Y-31349000D01*
X120017982Y-31349000D01*
X120027819Y-31349000D01*
X120096733Y-31356995D01*
G37*
G36*
X124526514Y-31380802D02*
G01*
X124698287Y-31436615D01*
X124859214Y-31518611D01*
X125005333Y-31624773D01*
X125133045Y-31752485D01*
X125239207Y-31898604D01*
X125321203Y-32059531D01*
X125377016Y-32231304D01*
X125405270Y-32409694D01*
X125405270Y-32590306D01*
X125377016Y-32768696D01*
X125321203Y-32940469D01*
X125239207Y-33101396D01*
X125133045Y-33247515D01*
X125005333Y-33375227D01*
X124859214Y-33481389D01*
X124698287Y-33563385D01*
X124526514Y-33619198D01*
X124348124Y-33647452D01*
X124167512Y-33647452D01*
X123989122Y-33619198D01*
X123817349Y-33563385D01*
X123656422Y-33481389D01*
X123510303Y-33375227D01*
X123382591Y-33247515D01*
X123276429Y-33101396D01*
X123194433Y-32940469D01*
X123138620Y-32768696D01*
X123110366Y-32590306D01*
X123110366Y-32409694D01*
X123138620Y-32231304D01*
X123194433Y-32059531D01*
X123276429Y-31898604D01*
X123382591Y-31752485D01*
X123510303Y-31624773D01*
X123656422Y-31518611D01*
X123817349Y-31436615D01*
X123989122Y-31380802D01*
X124167512Y-31352548D01*
X124348124Y-31352548D01*
X124526514Y-31380802D01*
G37*
M02*
