M48
; DRILL file {KiCad 9.0.6} date 2025-11-28T21:15:11+0900
; FORMAT={-:-/ absolute / metric / decimal}
; #@! TF.CreationDate,2025-11-28T21:15:11+09:00
; #@! TF.GenerationSoftware,Kicad,Pcbnew,9.0.6
; #@! TF.FileFunction,Plated,1,2,PTH
FMAT,2
METRIC
; #@! TA.AperFunction,Plated,PTH,ComponentDrill
T1C0.800
; #@! TA.AperFunction,Plated,PTH,ComponentDrill
T2C0.900
; #@! TA.AperFunction,Plated,PTH,ComponentDrill
T3C1.000
; #@! TA.AperFunction,Plated,PTH,ComponentDrill
T4C1.100
; #@! TA.AperFunction,Plated,PTH,ComponentDrill
T5C1.200
; #@! TA.AperFunction,Plated,PTH,ComponentDrill
T6C1.500
; #@! TA.AperFunction,Plated,PTH,ComponentDrill
T7C1.600
; #@! TA.AperFunction,Plated,PTH,ComponentDrill
T8C3.048
; #@! TA.AperFunction,Plated,PTH,ComponentDrill
T9C3.200
%
G90
G05
T1
X46.85Y-45.46
X46.85Y-58.16
X50.6Y-62.45
X50.6Y-75.15
X55.11Y-68.35
X55.11Y-81.05
X62.64Y-68.28
X62.64Y-80.98
X62.66Y-58.08
X62.67Y-62.51
X67.08Y-68.3
X67.08Y-81.0
X71.46Y-68.27
X71.46Y-80.97
X75.36Y-58.08
X75.37Y-62.51
X78.46Y-53.02
X78.46Y-55.56
X78.46Y-58.1
X78.46Y-60.64
X78.47Y-85.8
X78.5Y-68.28
X78.5Y-70.82
X78.5Y-73.36
X78.5Y-75.9
X78.5Y-81.76
X78.57Y-46.84
X83.57Y-46.84
X86.08Y-53.02
X86.08Y-55.56
X86.08Y-58.1
X86.08Y-60.64
X86.12Y-68.28
X86.12Y-70.82
X86.12Y-73.36
X86.12Y-75.9
X91.17Y-85.8
X91.2Y-81.76
X91.81Y-64.62
X91.81Y-77.32
X91.82Y-47.9
X91.82Y-60.6
X91.95Y-43.15
X91.96Y-38.9
X96.34Y-64.63
X96.34Y-77.33
X96.36Y-47.9
X96.36Y-60.6
X101.19Y-47.91
X101.19Y-50.45
X101.19Y-52.99
X104.65Y-43.15
X104.66Y-38.9
X108.63Y-38.9
X108.63Y-41.44
X108.63Y-43.98
X113.73Y-38.9
X113.73Y-41.44
X113.73Y-43.98
T2
X55.03Y-86.7
X55.03Y-89.24
X93.99Y-81.8
X94.02Y-86.67
X96.53Y-81.8
X96.56Y-86.67
T3
X39.8Y-48.43
X39.8Y-53.51
X55.24Y-53.5
X57.78Y-53.5
X60.32Y-53.5
X131.15Y-75.56
X131.15Y-80.64
T4
X43.93Y-82.68
X43.93Y-89.18
X48.43Y-82.68
X48.43Y-89.18
X50.58Y-45.47
X50.58Y-55.63
X78.435Y-39.04
X81.407Y-92.71
X83.947Y-92.71
X86.487Y-92.71
X88.595Y-39.04
X107.315Y-33.528
X109.855Y-33.528
X112.395Y-33.528
X131.318Y-36.576
X131.318Y-46.736
T5
X69.83Y-46.94
X69.83Y-51.94
X69.85Y-33.47
X69.85Y-38.47
X105.7Y-64.44
X105.7Y-69.44
X107.4Y-53.09
X112.4Y-53.09
X120.54Y-87.53
X120.54Y-92.53
T6
X120.27Y-62.9
X127.89Y-62.9
T7
X45.35Y-34.73
X45.35Y-41.05
X60.59Y-34.73
X60.59Y-41.05
X103.27Y-78.93
X103.27Y-94.17
X110.02Y-78.93
X110.02Y-94.17
X120.72Y-36.64
X120.72Y-51.88
X126.67Y-36.64
X126.67Y-51.88
T8
X39.94Y-40.95
X42.55Y-65.03
X122.79Y-78.44
X130.91Y-87.03
T9
X39.903Y-30.251
X40.056Y-95.199
X130.607Y-95.275
X130.658Y-30.48
M30
