G04 #@! TF.GenerationSoftware,KiCad,Pcbnew,9.0.6*
G04 #@! TF.CreationDate,2025-12-03T00:01:17+09:00*
G04 #@! TF.ProjectId,12f683MPPT,31326636-3833-44d5-9050-542e6b696361,rev?*
G04 #@! TF.SameCoordinates,Original*
G04 #@! TF.FileFunction,Legend,Top*
G04 #@! TF.FilePolarity,Positive*
%FSLAX46Y46*%
G04 Gerber Fmt 4.6, Leading zero omitted, Abs format (unit mm)*
G04 Created by KiCad (PCBNEW 9.0.6) date 2025-12-03 00:01:17*
%MOMM*%
%LPD*%
G01*
G04 APERTURE LIST*
%ADD10C,0.150000*%
%ADD11C,0.120000*%
G04 APERTURE END LIST*
D10*
X122536779Y-97969819D02*
X122536779Y-96969819D01*
X122536779Y-96969819D02*
X122870112Y-97684104D01*
X122870112Y-97684104D02*
X123203445Y-96969819D01*
X123203445Y-96969819D02*
X123203445Y-97969819D01*
X123679636Y-97969819D02*
X123679636Y-96969819D01*
X123679636Y-96969819D02*
X124060588Y-96969819D01*
X124060588Y-96969819D02*
X124155826Y-97017438D01*
X124155826Y-97017438D02*
X124203445Y-97065057D01*
X124203445Y-97065057D02*
X124251064Y-97160295D01*
X124251064Y-97160295D02*
X124251064Y-97303152D01*
X124251064Y-97303152D02*
X124203445Y-97398390D01*
X124203445Y-97398390D02*
X124155826Y-97446009D01*
X124155826Y-97446009D02*
X124060588Y-97493628D01*
X124060588Y-97493628D02*
X123679636Y-97493628D01*
X124679636Y-97969819D02*
X124679636Y-96969819D01*
X124679636Y-96969819D02*
X125060588Y-96969819D01*
X125060588Y-96969819D02*
X125155826Y-97017438D01*
X125155826Y-97017438D02*
X125203445Y-97065057D01*
X125203445Y-97065057D02*
X125251064Y-97160295D01*
X125251064Y-97160295D02*
X125251064Y-97303152D01*
X125251064Y-97303152D02*
X125203445Y-97398390D01*
X125203445Y-97398390D02*
X125155826Y-97446009D01*
X125155826Y-97446009D02*
X125060588Y-97493628D01*
X125060588Y-97493628D02*
X124679636Y-97493628D01*
X125536779Y-96969819D02*
X126108207Y-96969819D01*
X125822493Y-97969819D02*
X125822493Y-96969819D01*
X61758095Y-36354819D02*
X61758095Y-35354819D01*
X62329523Y-36354819D02*
X61900952Y-35783390D01*
X62329523Y-35354819D02*
X61758095Y-35926247D01*
X82861905Y-42954819D02*
X82861905Y-41954819D01*
X82861905Y-41954819D02*
X83100000Y-41954819D01*
X83100000Y-41954819D02*
X83242857Y-42002438D01*
X83242857Y-42002438D02*
X83338095Y-42097676D01*
X83338095Y-42097676D02*
X83385714Y-42192914D01*
X83385714Y-42192914D02*
X83433333Y-42383390D01*
X83433333Y-42383390D02*
X83433333Y-42526247D01*
X83433333Y-42526247D02*
X83385714Y-42716723D01*
X83385714Y-42716723D02*
X83338095Y-42811961D01*
X83338095Y-42811961D02*
X83242857Y-42907200D01*
X83242857Y-42907200D02*
X83100000Y-42954819D01*
X83100000Y-42954819D02*
X82861905Y-42954819D01*
X83766667Y-41954819D02*
X84385714Y-41954819D01*
X84385714Y-41954819D02*
X84052381Y-42335771D01*
X84052381Y-42335771D02*
X84195238Y-42335771D01*
X84195238Y-42335771D02*
X84290476Y-42383390D01*
X84290476Y-42383390D02*
X84338095Y-42431009D01*
X84338095Y-42431009D02*
X84385714Y-42526247D01*
X84385714Y-42526247D02*
X84385714Y-42764342D01*
X84385714Y-42764342D02*
X84338095Y-42859580D01*
X84338095Y-42859580D02*
X84290476Y-42907200D01*
X84290476Y-42907200D02*
X84195238Y-42954819D01*
X84195238Y-42954819D02*
X83909524Y-42954819D01*
X83909524Y-42954819D02*
X83814286Y-42907200D01*
X83814286Y-42907200D02*
X83766667Y-42859580D01*
X88418095Y-45054819D02*
X88418095Y-44054819D01*
X88989523Y-45054819D02*
X88560952Y-44483390D01*
X88989523Y-44054819D02*
X88418095Y-44626247D01*
X51754819Y-52038094D02*
X50754819Y-52038094D01*
X50754819Y-52038094D02*
X50754819Y-51799999D01*
X50754819Y-51799999D02*
X50802438Y-51657142D01*
X50802438Y-51657142D02*
X50897676Y-51561904D01*
X50897676Y-51561904D02*
X50992914Y-51514285D01*
X50992914Y-51514285D02*
X51183390Y-51466666D01*
X51183390Y-51466666D02*
X51326247Y-51466666D01*
X51326247Y-51466666D02*
X51516723Y-51514285D01*
X51516723Y-51514285D02*
X51611961Y-51561904D01*
X51611961Y-51561904D02*
X51707200Y-51657142D01*
X51707200Y-51657142D02*
X51754819Y-51799999D01*
X51754819Y-51799999D02*
X51754819Y-52038094D01*
X50754819Y-50561904D02*
X50754819Y-51038094D01*
X50754819Y-51038094D02*
X51231009Y-51085713D01*
X51231009Y-51085713D02*
X51183390Y-51038094D01*
X51183390Y-51038094D02*
X51135771Y-50942856D01*
X51135771Y-50942856D02*
X51135771Y-50704761D01*
X51135771Y-50704761D02*
X51183390Y-50609523D01*
X51183390Y-50609523D02*
X51231009Y-50561904D01*
X51231009Y-50561904D02*
X51326247Y-50514285D01*
X51326247Y-50514285D02*
X51564342Y-50514285D01*
X51564342Y-50514285D02*
X51659580Y-50561904D01*
X51659580Y-50561904D02*
X51707200Y-50609523D01*
X51707200Y-50609523D02*
X51754819Y-50704761D01*
X51754819Y-50704761D02*
X51754819Y-50942856D01*
X51754819Y-50942856D02*
X51707200Y-51038094D01*
X51707200Y-51038094D02*
X51659580Y-51085713D01*
X54154819Y-53961904D02*
X53154819Y-53961904D01*
X54154819Y-53390476D02*
X53583390Y-53819047D01*
X53154819Y-53390476D02*
X53726247Y-53961904D01*
X54224819Y-68414285D02*
X53224819Y-68414285D01*
X53224819Y-68414285D02*
X53224819Y-68176190D01*
X53224819Y-68176190D02*
X53272438Y-68033333D01*
X53272438Y-68033333D02*
X53367676Y-67938095D01*
X53367676Y-67938095D02*
X53462914Y-67890476D01*
X53462914Y-67890476D02*
X53653390Y-67842857D01*
X53653390Y-67842857D02*
X53796247Y-67842857D01*
X53796247Y-67842857D02*
X53986723Y-67890476D01*
X53986723Y-67890476D02*
X54081961Y-67938095D01*
X54081961Y-67938095D02*
X54177200Y-68033333D01*
X54177200Y-68033333D02*
X54224819Y-68176190D01*
X54224819Y-68176190D02*
X54224819Y-68414285D01*
X54224819Y-66890476D02*
X54224819Y-67461904D01*
X54224819Y-67176190D02*
X53224819Y-67176190D01*
X53224819Y-67176190D02*
X53367676Y-67271428D01*
X53367676Y-67271428D02*
X53462914Y-67366666D01*
X53462914Y-67366666D02*
X53510533Y-67461904D01*
X53224819Y-66271428D02*
X53224819Y-66176190D01*
X53224819Y-66176190D02*
X53272438Y-66080952D01*
X53272438Y-66080952D02*
X53320057Y-66033333D01*
X53320057Y-66033333D02*
X53415295Y-65985714D01*
X53415295Y-65985714D02*
X53605771Y-65938095D01*
X53605771Y-65938095D02*
X53843866Y-65938095D01*
X53843866Y-65938095D02*
X54034342Y-65985714D01*
X54034342Y-65985714D02*
X54129580Y-66033333D01*
X54129580Y-66033333D02*
X54177200Y-66080952D01*
X54177200Y-66080952D02*
X54224819Y-66176190D01*
X54224819Y-66176190D02*
X54224819Y-66271428D01*
X54224819Y-66271428D02*
X54177200Y-66366666D01*
X54177200Y-66366666D02*
X54129580Y-66414285D01*
X54129580Y-66414285D02*
X54034342Y-66461904D01*
X54034342Y-66461904D02*
X53843866Y-66509523D01*
X53843866Y-66509523D02*
X53605771Y-66509523D01*
X53605771Y-66509523D02*
X53415295Y-66461904D01*
X53415295Y-66461904D02*
X53320057Y-66414285D01*
X53320057Y-66414285D02*
X53272438Y-66366666D01*
X53272438Y-66366666D02*
X53224819Y-66271428D01*
X54154819Y-63861904D02*
X53154819Y-63861904D01*
X54154819Y-63290476D02*
X53583390Y-63719047D01*
X53154819Y-63290476D02*
X53726247Y-63861904D01*
X123259580Y-86366666D02*
X123307200Y-86414285D01*
X123307200Y-86414285D02*
X123354819Y-86557142D01*
X123354819Y-86557142D02*
X123354819Y-86652380D01*
X123354819Y-86652380D02*
X123307200Y-86795237D01*
X123307200Y-86795237D02*
X123211961Y-86890475D01*
X123211961Y-86890475D02*
X123116723Y-86938094D01*
X123116723Y-86938094D02*
X122926247Y-86985713D01*
X122926247Y-86985713D02*
X122783390Y-86985713D01*
X122783390Y-86985713D02*
X122592914Y-86938094D01*
X122592914Y-86938094D02*
X122497676Y-86890475D01*
X122497676Y-86890475D02*
X122402438Y-86795237D01*
X122402438Y-86795237D02*
X122354819Y-86652380D01*
X122354819Y-86652380D02*
X122354819Y-86557142D01*
X122354819Y-86557142D02*
X122402438Y-86414285D01*
X122402438Y-86414285D02*
X122450057Y-86366666D01*
X123354819Y-85414285D02*
X123354819Y-85985713D01*
X123354819Y-85699999D02*
X122354819Y-85699999D01*
X122354819Y-85699999D02*
X122497676Y-85795237D01*
X122497676Y-85795237D02*
X122592914Y-85890475D01*
X122592914Y-85890475D02*
X122640533Y-85985713D01*
X100248493Y-50870310D02*
X100200874Y-50917930D01*
X100200874Y-50917930D02*
X100058017Y-50965549D01*
X100058017Y-50965549D02*
X99962779Y-50965549D01*
X99962779Y-50965549D02*
X99819922Y-50917930D01*
X99819922Y-50917930D02*
X99724684Y-50822691D01*
X99724684Y-50822691D02*
X99677065Y-50727453D01*
X99677065Y-50727453D02*
X99629446Y-50536977D01*
X99629446Y-50536977D02*
X99629446Y-50394120D01*
X99629446Y-50394120D02*
X99677065Y-50203644D01*
X99677065Y-50203644D02*
X99724684Y-50108406D01*
X99724684Y-50108406D02*
X99819922Y-50013168D01*
X99819922Y-50013168D02*
X99962779Y-49965549D01*
X99962779Y-49965549D02*
X100058017Y-49965549D01*
X100058017Y-49965549D02*
X100200874Y-50013168D01*
X100200874Y-50013168D02*
X100248493Y-50060787D01*
X100629446Y-50060787D02*
X100677065Y-50013168D01*
X100677065Y-50013168D02*
X100772303Y-49965549D01*
X100772303Y-49965549D02*
X101010398Y-49965549D01*
X101010398Y-49965549D02*
X101105636Y-50013168D01*
X101105636Y-50013168D02*
X101153255Y-50060787D01*
X101153255Y-50060787D02*
X101200874Y-50156025D01*
X101200874Y-50156025D02*
X101200874Y-50251263D01*
X101200874Y-50251263D02*
X101153255Y-50394120D01*
X101153255Y-50394120D02*
X100581827Y-50965549D01*
X100581827Y-50965549D02*
X101200874Y-50965549D01*
X70359580Y-52266666D02*
X70407200Y-52314285D01*
X70407200Y-52314285D02*
X70454819Y-52457142D01*
X70454819Y-52457142D02*
X70454819Y-52552380D01*
X70454819Y-52552380D02*
X70407200Y-52695237D01*
X70407200Y-52695237D02*
X70311961Y-52790475D01*
X70311961Y-52790475D02*
X70216723Y-52838094D01*
X70216723Y-52838094D02*
X70026247Y-52885713D01*
X70026247Y-52885713D02*
X69883390Y-52885713D01*
X69883390Y-52885713D02*
X69692914Y-52838094D01*
X69692914Y-52838094D02*
X69597676Y-52790475D01*
X69597676Y-52790475D02*
X69502438Y-52695237D01*
X69502438Y-52695237D02*
X69454819Y-52552380D01*
X69454819Y-52552380D02*
X69454819Y-52457142D01*
X69454819Y-52457142D02*
X69502438Y-52314285D01*
X69502438Y-52314285D02*
X69550057Y-52266666D01*
X69454819Y-51933332D02*
X69454819Y-51314285D01*
X69454819Y-51314285D02*
X69835771Y-51647618D01*
X69835771Y-51647618D02*
X69835771Y-51504761D01*
X69835771Y-51504761D02*
X69883390Y-51409523D01*
X69883390Y-51409523D02*
X69931009Y-51361904D01*
X69931009Y-51361904D02*
X70026247Y-51314285D01*
X70026247Y-51314285D02*
X70264342Y-51314285D01*
X70264342Y-51314285D02*
X70359580Y-51361904D01*
X70359580Y-51361904D02*
X70407200Y-51409523D01*
X70407200Y-51409523D02*
X70454819Y-51504761D01*
X70454819Y-51504761D02*
X70454819Y-51790475D01*
X70454819Y-51790475D02*
X70407200Y-51885713D01*
X70407200Y-51885713D02*
X70359580Y-51933332D01*
X100680682Y-61159580D02*
X100633063Y-61207200D01*
X100633063Y-61207200D02*
X100490206Y-61254819D01*
X100490206Y-61254819D02*
X100394968Y-61254819D01*
X100394968Y-61254819D02*
X100252111Y-61207200D01*
X100252111Y-61207200D02*
X100156873Y-61111961D01*
X100156873Y-61111961D02*
X100109254Y-61016723D01*
X100109254Y-61016723D02*
X100061635Y-60826247D01*
X100061635Y-60826247D02*
X100061635Y-60683390D01*
X100061635Y-60683390D02*
X100109254Y-60492914D01*
X100109254Y-60492914D02*
X100156873Y-60397676D01*
X100156873Y-60397676D02*
X100252111Y-60302438D01*
X100252111Y-60302438D02*
X100394968Y-60254819D01*
X100394968Y-60254819D02*
X100490206Y-60254819D01*
X100490206Y-60254819D02*
X100633063Y-60302438D01*
X100633063Y-60302438D02*
X100680682Y-60350057D01*
X101585444Y-60254819D02*
X101109254Y-60254819D01*
X101109254Y-60254819D02*
X101061635Y-60731009D01*
X101061635Y-60731009D02*
X101109254Y-60683390D01*
X101109254Y-60683390D02*
X101204492Y-60635771D01*
X101204492Y-60635771D02*
X101442587Y-60635771D01*
X101442587Y-60635771D02*
X101537825Y-60683390D01*
X101537825Y-60683390D02*
X101585444Y-60731009D01*
X101585444Y-60731009D02*
X101633063Y-60826247D01*
X101633063Y-60826247D02*
X101633063Y-61064342D01*
X101633063Y-61064342D02*
X101585444Y-61159580D01*
X101585444Y-61159580D02*
X101537825Y-61207200D01*
X101537825Y-61207200D02*
X101442587Y-61254819D01*
X101442587Y-61254819D02*
X101204492Y-61254819D01*
X101204492Y-61254819D02*
X101109254Y-61207200D01*
X101109254Y-61207200D02*
X101061635Y-61159580D01*
X54694819Y-88743094D02*
X53694819Y-88743094D01*
X53694819Y-88743094D02*
X53694819Y-88504999D01*
X53694819Y-88504999D02*
X53742438Y-88362142D01*
X53742438Y-88362142D02*
X53837676Y-88266904D01*
X53837676Y-88266904D02*
X53932914Y-88219285D01*
X53932914Y-88219285D02*
X54123390Y-88171666D01*
X54123390Y-88171666D02*
X54266247Y-88171666D01*
X54266247Y-88171666D02*
X54456723Y-88219285D01*
X54456723Y-88219285D02*
X54551961Y-88266904D01*
X54551961Y-88266904D02*
X54647200Y-88362142D01*
X54647200Y-88362142D02*
X54694819Y-88504999D01*
X54694819Y-88504999D02*
X54694819Y-88743094D01*
X54028152Y-87314523D02*
X54694819Y-87314523D01*
X53647200Y-87552618D02*
X54361485Y-87790713D01*
X54361485Y-87790713D02*
X54361485Y-87171666D01*
X53661905Y-39554819D02*
X53661905Y-38554819D01*
X53661905Y-38554819D02*
X53900000Y-38554819D01*
X53900000Y-38554819D02*
X54042857Y-38602438D01*
X54042857Y-38602438D02*
X54138095Y-38697676D01*
X54138095Y-38697676D02*
X54185714Y-38792914D01*
X54185714Y-38792914D02*
X54233333Y-38983390D01*
X54233333Y-38983390D02*
X54233333Y-39126247D01*
X54233333Y-39126247D02*
X54185714Y-39316723D01*
X54185714Y-39316723D02*
X54138095Y-39411961D01*
X54138095Y-39411961D02*
X54042857Y-39507200D01*
X54042857Y-39507200D02*
X53900000Y-39554819D01*
X53900000Y-39554819D02*
X53661905Y-39554819D01*
X55090476Y-38554819D02*
X54900000Y-38554819D01*
X54900000Y-38554819D02*
X54804762Y-38602438D01*
X54804762Y-38602438D02*
X54757143Y-38650057D01*
X54757143Y-38650057D02*
X54661905Y-38792914D01*
X54661905Y-38792914D02*
X54614286Y-38983390D01*
X54614286Y-38983390D02*
X54614286Y-39364342D01*
X54614286Y-39364342D02*
X54661905Y-39459580D01*
X54661905Y-39459580D02*
X54709524Y-39507200D01*
X54709524Y-39507200D02*
X54804762Y-39554819D01*
X54804762Y-39554819D02*
X54995238Y-39554819D01*
X54995238Y-39554819D02*
X55090476Y-39507200D01*
X55090476Y-39507200D02*
X55138095Y-39459580D01*
X55138095Y-39459580D02*
X55185714Y-39364342D01*
X55185714Y-39364342D02*
X55185714Y-39126247D01*
X55185714Y-39126247D02*
X55138095Y-39031009D01*
X55138095Y-39031009D02*
X55090476Y-38983390D01*
X55090476Y-38983390D02*
X54995238Y-38935771D01*
X54995238Y-38935771D02*
X54804762Y-38935771D01*
X54804762Y-38935771D02*
X54709524Y-38983390D01*
X54709524Y-38983390D02*
X54661905Y-39031009D01*
X54661905Y-39031009D02*
X54614286Y-39126247D01*
X61758095Y-42154819D02*
X61758095Y-41154819D01*
X62329523Y-42154819D02*
X61900952Y-41583390D01*
X62329523Y-41154819D02*
X61758095Y-41726247D01*
X117974819Y-63066666D02*
X117974819Y-63542856D01*
X117974819Y-63542856D02*
X116974819Y-63542856D01*
X117974819Y-62209523D02*
X117974819Y-62780951D01*
X117974819Y-62495237D02*
X116974819Y-62495237D01*
X116974819Y-62495237D02*
X117117676Y-62590475D01*
X117117676Y-62590475D02*
X117212914Y-62685713D01*
X117212914Y-62685713D02*
X117260533Y-62780951D01*
X94550057Y-45995238D02*
X94502438Y-46090476D01*
X94502438Y-46090476D02*
X94407200Y-46185714D01*
X94407200Y-46185714D02*
X94264342Y-46328571D01*
X94264342Y-46328571D02*
X94216723Y-46423809D01*
X94216723Y-46423809D02*
X94216723Y-46519047D01*
X94454819Y-46471428D02*
X94407200Y-46566666D01*
X94407200Y-46566666D02*
X94311961Y-46661904D01*
X94311961Y-46661904D02*
X94121485Y-46709523D01*
X94121485Y-46709523D02*
X93788152Y-46709523D01*
X93788152Y-46709523D02*
X93597676Y-46661904D01*
X93597676Y-46661904D02*
X93502438Y-46566666D01*
X93502438Y-46566666D02*
X93454819Y-46471428D01*
X93454819Y-46471428D02*
X93454819Y-46280952D01*
X93454819Y-46280952D02*
X93502438Y-46185714D01*
X93502438Y-46185714D02*
X93597676Y-46090476D01*
X93597676Y-46090476D02*
X93788152Y-46042857D01*
X93788152Y-46042857D02*
X94121485Y-46042857D01*
X94121485Y-46042857D02*
X94311961Y-46090476D01*
X94311961Y-46090476D02*
X94407200Y-46185714D01*
X94407200Y-46185714D02*
X94454819Y-46280952D01*
X94454819Y-46280952D02*
X94454819Y-46471428D01*
X93454819Y-45709523D02*
X93454819Y-45090476D01*
X93454819Y-45090476D02*
X93835771Y-45423809D01*
X93835771Y-45423809D02*
X93835771Y-45280952D01*
X93835771Y-45280952D02*
X93883390Y-45185714D01*
X93883390Y-45185714D02*
X93931009Y-45138095D01*
X93931009Y-45138095D02*
X94026247Y-45090476D01*
X94026247Y-45090476D02*
X94264342Y-45090476D01*
X94264342Y-45090476D02*
X94359580Y-45138095D01*
X94359580Y-45138095D02*
X94407200Y-45185714D01*
X94407200Y-45185714D02*
X94454819Y-45280952D01*
X94454819Y-45280952D02*
X94454819Y-45566666D01*
X94454819Y-45566666D02*
X94407200Y-45661904D01*
X94407200Y-45661904D02*
X94359580Y-45709523D01*
X110160057Y-44455238D02*
X110112438Y-44550476D01*
X110112438Y-44550476D02*
X110017200Y-44645714D01*
X110017200Y-44645714D02*
X109874342Y-44788571D01*
X109874342Y-44788571D02*
X109826723Y-44883809D01*
X109826723Y-44883809D02*
X109826723Y-44979047D01*
X110064819Y-44931428D02*
X110017200Y-45026666D01*
X110017200Y-45026666D02*
X109921961Y-45121904D01*
X109921961Y-45121904D02*
X109731485Y-45169523D01*
X109731485Y-45169523D02*
X109398152Y-45169523D01*
X109398152Y-45169523D02*
X109207676Y-45121904D01*
X109207676Y-45121904D02*
X109112438Y-45026666D01*
X109112438Y-45026666D02*
X109064819Y-44931428D01*
X109064819Y-44931428D02*
X109064819Y-44740952D01*
X109064819Y-44740952D02*
X109112438Y-44645714D01*
X109112438Y-44645714D02*
X109207676Y-44550476D01*
X109207676Y-44550476D02*
X109398152Y-44502857D01*
X109398152Y-44502857D02*
X109731485Y-44502857D01*
X109731485Y-44502857D02*
X109921961Y-44550476D01*
X109921961Y-44550476D02*
X110017200Y-44645714D01*
X110017200Y-44645714D02*
X110064819Y-44740952D01*
X110064819Y-44740952D02*
X110064819Y-44931428D01*
X109398152Y-43645714D02*
X110064819Y-43645714D01*
X109017200Y-43883809D02*
X109731485Y-44121904D01*
X109731485Y-44121904D02*
X109731485Y-43502857D01*
X115020057Y-44355238D02*
X114972438Y-44450476D01*
X114972438Y-44450476D02*
X114877200Y-44545714D01*
X114877200Y-44545714D02*
X114734342Y-44688571D01*
X114734342Y-44688571D02*
X114686723Y-44783809D01*
X114686723Y-44783809D02*
X114686723Y-44879047D01*
X114924819Y-44831428D02*
X114877200Y-44926666D01*
X114877200Y-44926666D02*
X114781961Y-45021904D01*
X114781961Y-45021904D02*
X114591485Y-45069523D01*
X114591485Y-45069523D02*
X114258152Y-45069523D01*
X114258152Y-45069523D02*
X114067676Y-45021904D01*
X114067676Y-45021904D02*
X113972438Y-44926666D01*
X113972438Y-44926666D02*
X113924819Y-44831428D01*
X113924819Y-44831428D02*
X113924819Y-44640952D01*
X113924819Y-44640952D02*
X113972438Y-44545714D01*
X113972438Y-44545714D02*
X114067676Y-44450476D01*
X114067676Y-44450476D02*
X114258152Y-44402857D01*
X114258152Y-44402857D02*
X114591485Y-44402857D01*
X114591485Y-44402857D02*
X114781961Y-44450476D01*
X114781961Y-44450476D02*
X114877200Y-44545714D01*
X114877200Y-44545714D02*
X114924819Y-44640952D01*
X114924819Y-44640952D02*
X114924819Y-44831428D01*
X113924819Y-43498095D02*
X113924819Y-43974285D01*
X113924819Y-43974285D02*
X114401009Y-44021904D01*
X114401009Y-44021904D02*
X114353390Y-43974285D01*
X114353390Y-43974285D02*
X114305771Y-43879047D01*
X114305771Y-43879047D02*
X114305771Y-43640952D01*
X114305771Y-43640952D02*
X114353390Y-43545714D01*
X114353390Y-43545714D02*
X114401009Y-43498095D01*
X114401009Y-43498095D02*
X114496247Y-43450476D01*
X114496247Y-43450476D02*
X114734342Y-43450476D01*
X114734342Y-43450476D02*
X114829580Y-43498095D01*
X114829580Y-43498095D02*
X114877200Y-43545714D01*
X114877200Y-43545714D02*
X114924819Y-43640952D01*
X114924819Y-43640952D02*
X114924819Y-43879047D01*
X114924819Y-43879047D02*
X114877200Y-43974285D01*
X114877200Y-43974285D02*
X114829580Y-44021904D01*
X80833333Y-81454819D02*
X80500000Y-80978628D01*
X80261905Y-81454819D02*
X80261905Y-80454819D01*
X80261905Y-80454819D02*
X80642857Y-80454819D01*
X80642857Y-80454819D02*
X80738095Y-80502438D01*
X80738095Y-80502438D02*
X80785714Y-80550057D01*
X80785714Y-80550057D02*
X80833333Y-80645295D01*
X80833333Y-80645295D02*
X80833333Y-80788152D01*
X80833333Y-80788152D02*
X80785714Y-80883390D01*
X80785714Y-80883390D02*
X80738095Y-80931009D01*
X80738095Y-80931009D02*
X80642857Y-80978628D01*
X80642857Y-80978628D02*
X80261905Y-80978628D01*
X81785714Y-81454819D02*
X81214286Y-81454819D01*
X81500000Y-81454819D02*
X81500000Y-80454819D01*
X81500000Y-80454819D02*
X81404762Y-80597676D01*
X81404762Y-80597676D02*
X81309524Y-80692914D01*
X81309524Y-80692914D02*
X81214286Y-80740533D01*
X67534819Y-74816666D02*
X67058628Y-75149999D01*
X67534819Y-75388094D02*
X66534819Y-75388094D01*
X66534819Y-75388094D02*
X66534819Y-75007142D01*
X66534819Y-75007142D02*
X66582438Y-74911904D01*
X66582438Y-74911904D02*
X66630057Y-74864285D01*
X66630057Y-74864285D02*
X66725295Y-74816666D01*
X66725295Y-74816666D02*
X66868152Y-74816666D01*
X66868152Y-74816666D02*
X66963390Y-74864285D01*
X66963390Y-74864285D02*
X67011009Y-74911904D01*
X67011009Y-74911904D02*
X67058628Y-75007142D01*
X67058628Y-75007142D02*
X67058628Y-75388094D01*
X66630057Y-74435713D02*
X66582438Y-74388094D01*
X66582438Y-74388094D02*
X66534819Y-74292856D01*
X66534819Y-74292856D02*
X66534819Y-74054761D01*
X66534819Y-74054761D02*
X66582438Y-73959523D01*
X66582438Y-73959523D02*
X66630057Y-73911904D01*
X66630057Y-73911904D02*
X66725295Y-73864285D01*
X66725295Y-73864285D02*
X66820533Y-73864285D01*
X66820533Y-73864285D02*
X66963390Y-73911904D01*
X66963390Y-73911904D02*
X67534819Y-74483332D01*
X67534819Y-74483332D02*
X67534819Y-73864285D01*
X71914819Y-74786666D02*
X71438628Y-75119999D01*
X71914819Y-75358094D02*
X70914819Y-75358094D01*
X70914819Y-75358094D02*
X70914819Y-74977142D01*
X70914819Y-74977142D02*
X70962438Y-74881904D01*
X70962438Y-74881904D02*
X71010057Y-74834285D01*
X71010057Y-74834285D02*
X71105295Y-74786666D01*
X71105295Y-74786666D02*
X71248152Y-74786666D01*
X71248152Y-74786666D02*
X71343390Y-74834285D01*
X71343390Y-74834285D02*
X71391009Y-74881904D01*
X71391009Y-74881904D02*
X71438628Y-74977142D01*
X71438628Y-74977142D02*
X71438628Y-75358094D01*
X71248152Y-73929523D02*
X71914819Y-73929523D01*
X70867200Y-74167618D02*
X71581485Y-74405713D01*
X71581485Y-74405713D02*
X71581485Y-73786666D01*
X47454819Y-51916666D02*
X46978628Y-52249999D01*
X47454819Y-52488094D02*
X46454819Y-52488094D01*
X46454819Y-52488094D02*
X46454819Y-52107142D01*
X46454819Y-52107142D02*
X46502438Y-52011904D01*
X46502438Y-52011904D02*
X46550057Y-51964285D01*
X46550057Y-51964285D02*
X46645295Y-51916666D01*
X46645295Y-51916666D02*
X46788152Y-51916666D01*
X46788152Y-51916666D02*
X46883390Y-51964285D01*
X46883390Y-51964285D02*
X46931009Y-52011904D01*
X46931009Y-52011904D02*
X46978628Y-52107142D01*
X46978628Y-52107142D02*
X46978628Y-52488094D01*
X46454819Y-51011904D02*
X46454819Y-51488094D01*
X46454819Y-51488094D02*
X46931009Y-51535713D01*
X46931009Y-51535713D02*
X46883390Y-51488094D01*
X46883390Y-51488094D02*
X46835771Y-51392856D01*
X46835771Y-51392856D02*
X46835771Y-51154761D01*
X46835771Y-51154761D02*
X46883390Y-51059523D01*
X46883390Y-51059523D02*
X46931009Y-51011904D01*
X46931009Y-51011904D02*
X47026247Y-50964285D01*
X47026247Y-50964285D02*
X47264342Y-50964285D01*
X47264342Y-50964285D02*
X47359580Y-51011904D01*
X47359580Y-51011904D02*
X47407200Y-51059523D01*
X47407200Y-51059523D02*
X47454819Y-51154761D01*
X47454819Y-51154761D02*
X47454819Y-51392856D01*
X47454819Y-51392856D02*
X47407200Y-51488094D01*
X47407200Y-51488094D02*
X47359580Y-51535713D01*
X57654819Y-74816666D02*
X57178628Y-75149999D01*
X57654819Y-75388094D02*
X56654819Y-75388094D01*
X56654819Y-75388094D02*
X56654819Y-75007142D01*
X56654819Y-75007142D02*
X56702438Y-74911904D01*
X56702438Y-74911904D02*
X56750057Y-74864285D01*
X56750057Y-74864285D02*
X56845295Y-74816666D01*
X56845295Y-74816666D02*
X56988152Y-74816666D01*
X56988152Y-74816666D02*
X57083390Y-74864285D01*
X57083390Y-74864285D02*
X57131009Y-74911904D01*
X57131009Y-74911904D02*
X57178628Y-75007142D01*
X57178628Y-75007142D02*
X57178628Y-75388094D01*
X56654819Y-73959523D02*
X56654819Y-74149999D01*
X56654819Y-74149999D02*
X56702438Y-74245237D01*
X56702438Y-74245237D02*
X56750057Y-74292856D01*
X56750057Y-74292856D02*
X56892914Y-74388094D01*
X56892914Y-74388094D02*
X57083390Y-74435713D01*
X57083390Y-74435713D02*
X57464342Y-74435713D01*
X57464342Y-74435713D02*
X57559580Y-74388094D01*
X57559580Y-74388094D02*
X57607200Y-74340475D01*
X57607200Y-74340475D02*
X57654819Y-74245237D01*
X57654819Y-74245237D02*
X57654819Y-74054761D01*
X57654819Y-74054761D02*
X57607200Y-73959523D01*
X57607200Y-73959523D02*
X57559580Y-73911904D01*
X57559580Y-73911904D02*
X57464342Y-73864285D01*
X57464342Y-73864285D02*
X57226247Y-73864285D01*
X57226247Y-73864285D02*
X57131009Y-73911904D01*
X57131009Y-73911904D02*
X57083390Y-73959523D01*
X57083390Y-73959523D02*
X57035771Y-74054761D01*
X57035771Y-74054761D02*
X57035771Y-74245237D01*
X57035771Y-74245237D02*
X57083390Y-74340475D01*
X57083390Y-74340475D02*
X57131009Y-74388094D01*
X57131009Y-74388094D02*
X57226247Y-74435713D01*
X61833333Y-61254819D02*
X61500000Y-60778628D01*
X61261905Y-61254819D02*
X61261905Y-60254819D01*
X61261905Y-60254819D02*
X61642857Y-60254819D01*
X61642857Y-60254819D02*
X61738095Y-60302438D01*
X61738095Y-60302438D02*
X61785714Y-60350057D01*
X61785714Y-60350057D02*
X61833333Y-60445295D01*
X61833333Y-60445295D02*
X61833333Y-60588152D01*
X61833333Y-60588152D02*
X61785714Y-60683390D01*
X61785714Y-60683390D02*
X61738095Y-60731009D01*
X61738095Y-60731009D02*
X61642857Y-60778628D01*
X61642857Y-60778628D02*
X61261905Y-60778628D01*
X62404762Y-60683390D02*
X62309524Y-60635771D01*
X62309524Y-60635771D02*
X62261905Y-60588152D01*
X62261905Y-60588152D02*
X62214286Y-60492914D01*
X62214286Y-60492914D02*
X62214286Y-60445295D01*
X62214286Y-60445295D02*
X62261905Y-60350057D01*
X62261905Y-60350057D02*
X62309524Y-60302438D01*
X62309524Y-60302438D02*
X62404762Y-60254819D01*
X62404762Y-60254819D02*
X62595238Y-60254819D01*
X62595238Y-60254819D02*
X62690476Y-60302438D01*
X62690476Y-60302438D02*
X62738095Y-60350057D01*
X62738095Y-60350057D02*
X62785714Y-60445295D01*
X62785714Y-60445295D02*
X62785714Y-60492914D01*
X62785714Y-60492914D02*
X62738095Y-60588152D01*
X62738095Y-60588152D02*
X62690476Y-60635771D01*
X62690476Y-60635771D02*
X62595238Y-60683390D01*
X62595238Y-60683390D02*
X62404762Y-60683390D01*
X62404762Y-60683390D02*
X62309524Y-60731009D01*
X62309524Y-60731009D02*
X62261905Y-60778628D01*
X62261905Y-60778628D02*
X62214286Y-60873866D01*
X62214286Y-60873866D02*
X62214286Y-61064342D01*
X62214286Y-61064342D02*
X62261905Y-61159580D01*
X62261905Y-61159580D02*
X62309524Y-61207200D01*
X62309524Y-61207200D02*
X62404762Y-61254819D01*
X62404762Y-61254819D02*
X62595238Y-61254819D01*
X62595238Y-61254819D02*
X62690476Y-61207200D01*
X62690476Y-61207200D02*
X62738095Y-61159580D01*
X62738095Y-61159580D02*
X62785714Y-61064342D01*
X62785714Y-61064342D02*
X62785714Y-60873866D01*
X62785714Y-60873866D02*
X62738095Y-60778628D01*
X62738095Y-60778628D02*
X62690476Y-60731009D01*
X62690476Y-60731009D02*
X62595238Y-60683390D01*
X84733333Y-38054819D02*
X84400000Y-37578628D01*
X84161905Y-38054819D02*
X84161905Y-37054819D01*
X84161905Y-37054819D02*
X84542857Y-37054819D01*
X84542857Y-37054819D02*
X84638095Y-37102438D01*
X84638095Y-37102438D02*
X84685714Y-37150057D01*
X84685714Y-37150057D02*
X84733333Y-37245295D01*
X84733333Y-37245295D02*
X84733333Y-37388152D01*
X84733333Y-37388152D02*
X84685714Y-37483390D01*
X84685714Y-37483390D02*
X84638095Y-37531009D01*
X84638095Y-37531009D02*
X84542857Y-37578628D01*
X84542857Y-37578628D02*
X84161905Y-37578628D01*
X85209524Y-38054819D02*
X85400000Y-38054819D01*
X85400000Y-38054819D02*
X85495238Y-38007200D01*
X85495238Y-38007200D02*
X85542857Y-37959580D01*
X85542857Y-37959580D02*
X85638095Y-37816723D01*
X85638095Y-37816723D02*
X85685714Y-37626247D01*
X85685714Y-37626247D02*
X85685714Y-37245295D01*
X85685714Y-37245295D02*
X85638095Y-37150057D01*
X85638095Y-37150057D02*
X85590476Y-37102438D01*
X85590476Y-37102438D02*
X85495238Y-37054819D01*
X85495238Y-37054819D02*
X85304762Y-37054819D01*
X85304762Y-37054819D02*
X85209524Y-37102438D01*
X85209524Y-37102438D02*
X85161905Y-37150057D01*
X85161905Y-37150057D02*
X85114286Y-37245295D01*
X85114286Y-37245295D02*
X85114286Y-37483390D01*
X85114286Y-37483390D02*
X85161905Y-37578628D01*
X85161905Y-37578628D02*
X85209524Y-37626247D01*
X85209524Y-37626247D02*
X85304762Y-37673866D01*
X85304762Y-37673866D02*
X85495238Y-37673866D01*
X85495238Y-37673866D02*
X85590476Y-37626247D01*
X85590476Y-37626247D02*
X85638095Y-37578628D01*
X85638095Y-37578628D02*
X85685714Y-37483390D01*
X96957142Y-41754819D02*
X96623809Y-41278628D01*
X96385714Y-41754819D02*
X96385714Y-40754819D01*
X96385714Y-40754819D02*
X96766666Y-40754819D01*
X96766666Y-40754819D02*
X96861904Y-40802438D01*
X96861904Y-40802438D02*
X96909523Y-40850057D01*
X96909523Y-40850057D02*
X96957142Y-40945295D01*
X96957142Y-40945295D02*
X96957142Y-41088152D01*
X96957142Y-41088152D02*
X96909523Y-41183390D01*
X96909523Y-41183390D02*
X96861904Y-41231009D01*
X96861904Y-41231009D02*
X96766666Y-41278628D01*
X96766666Y-41278628D02*
X96385714Y-41278628D01*
X97909523Y-41754819D02*
X97338095Y-41754819D01*
X97623809Y-41754819D02*
X97623809Y-40754819D01*
X97623809Y-40754819D02*
X97528571Y-40897676D01*
X97528571Y-40897676D02*
X97433333Y-40992914D01*
X97433333Y-40992914D02*
X97338095Y-41040533D01*
X98528571Y-40754819D02*
X98623809Y-40754819D01*
X98623809Y-40754819D02*
X98719047Y-40802438D01*
X98719047Y-40802438D02*
X98766666Y-40850057D01*
X98766666Y-40850057D02*
X98814285Y-40945295D01*
X98814285Y-40945295D02*
X98861904Y-41135771D01*
X98861904Y-41135771D02*
X98861904Y-41373866D01*
X98861904Y-41373866D02*
X98814285Y-41564342D01*
X98814285Y-41564342D02*
X98766666Y-41659580D01*
X98766666Y-41659580D02*
X98719047Y-41707200D01*
X98719047Y-41707200D02*
X98623809Y-41754819D01*
X98623809Y-41754819D02*
X98528571Y-41754819D01*
X98528571Y-41754819D02*
X98433333Y-41707200D01*
X98433333Y-41707200D02*
X98385714Y-41659580D01*
X98385714Y-41659580D02*
X98338095Y-41564342D01*
X98338095Y-41564342D02*
X98290476Y-41373866D01*
X98290476Y-41373866D02*
X98290476Y-41135771D01*
X98290476Y-41135771D02*
X98338095Y-40945295D01*
X98338095Y-40945295D02*
X98385714Y-40850057D01*
X98385714Y-40850057D02*
X98433333Y-40802438D01*
X98433333Y-40802438D02*
X98528571Y-40754819D01*
X73957142Y-64954819D02*
X73623809Y-64478628D01*
X73385714Y-64954819D02*
X73385714Y-63954819D01*
X73385714Y-63954819D02*
X73766666Y-63954819D01*
X73766666Y-63954819D02*
X73861904Y-64002438D01*
X73861904Y-64002438D02*
X73909523Y-64050057D01*
X73909523Y-64050057D02*
X73957142Y-64145295D01*
X73957142Y-64145295D02*
X73957142Y-64288152D01*
X73957142Y-64288152D02*
X73909523Y-64383390D01*
X73909523Y-64383390D02*
X73861904Y-64431009D01*
X73861904Y-64431009D02*
X73766666Y-64478628D01*
X73766666Y-64478628D02*
X73385714Y-64478628D01*
X74909523Y-64954819D02*
X74338095Y-64954819D01*
X74623809Y-64954819D02*
X74623809Y-63954819D01*
X74623809Y-63954819D02*
X74528571Y-64097676D01*
X74528571Y-64097676D02*
X74433333Y-64192914D01*
X74433333Y-64192914D02*
X74338095Y-64240533D01*
X75766666Y-63954819D02*
X75576190Y-63954819D01*
X75576190Y-63954819D02*
X75480952Y-64002438D01*
X75480952Y-64002438D02*
X75433333Y-64050057D01*
X75433333Y-64050057D02*
X75338095Y-64192914D01*
X75338095Y-64192914D02*
X75290476Y-64383390D01*
X75290476Y-64383390D02*
X75290476Y-64764342D01*
X75290476Y-64764342D02*
X75338095Y-64859580D01*
X75338095Y-64859580D02*
X75385714Y-64907200D01*
X75385714Y-64907200D02*
X75480952Y-64954819D01*
X75480952Y-64954819D02*
X75671428Y-64954819D01*
X75671428Y-64954819D02*
X75766666Y-64907200D01*
X75766666Y-64907200D02*
X75814285Y-64859580D01*
X75814285Y-64859580D02*
X75861904Y-64764342D01*
X75861904Y-64764342D02*
X75861904Y-64526247D01*
X75861904Y-64526247D02*
X75814285Y-64431009D01*
X75814285Y-64431009D02*
X75766666Y-64383390D01*
X75766666Y-64383390D02*
X75671428Y-64335771D01*
X75671428Y-64335771D02*
X75480952Y-64335771D01*
X75480952Y-64335771D02*
X75385714Y-64383390D01*
X75385714Y-64383390D02*
X75338095Y-64431009D01*
X75338095Y-64431009D02*
X75290476Y-64526247D01*
X81438095Y-50554819D02*
X81438095Y-51364342D01*
X81438095Y-51364342D02*
X81485714Y-51459580D01*
X81485714Y-51459580D02*
X81533333Y-51507200D01*
X81533333Y-51507200D02*
X81628571Y-51554819D01*
X81628571Y-51554819D02*
X81819047Y-51554819D01*
X81819047Y-51554819D02*
X81914285Y-51507200D01*
X81914285Y-51507200D02*
X81961904Y-51459580D01*
X81961904Y-51459580D02*
X82009523Y-51364342D01*
X82009523Y-51364342D02*
X82009523Y-50554819D01*
X82438095Y-50650057D02*
X82485714Y-50602438D01*
X82485714Y-50602438D02*
X82580952Y-50554819D01*
X82580952Y-50554819D02*
X82819047Y-50554819D01*
X82819047Y-50554819D02*
X82914285Y-50602438D01*
X82914285Y-50602438D02*
X82961904Y-50650057D01*
X82961904Y-50650057D02*
X83009523Y-50745295D01*
X83009523Y-50745295D02*
X83009523Y-50840533D01*
X83009523Y-50840533D02*
X82961904Y-50983390D01*
X82961904Y-50983390D02*
X82390476Y-51554819D01*
X82390476Y-51554819D02*
X83009523Y-51554819D01*
X47454819Y-67842857D02*
X46978628Y-68176190D01*
X47454819Y-68414285D02*
X46454819Y-68414285D01*
X46454819Y-68414285D02*
X46454819Y-68033333D01*
X46454819Y-68033333D02*
X46502438Y-67938095D01*
X46502438Y-67938095D02*
X46550057Y-67890476D01*
X46550057Y-67890476D02*
X46645295Y-67842857D01*
X46645295Y-67842857D02*
X46788152Y-67842857D01*
X46788152Y-67842857D02*
X46883390Y-67890476D01*
X46883390Y-67890476D02*
X46931009Y-67938095D01*
X46931009Y-67938095D02*
X46978628Y-68033333D01*
X46978628Y-68033333D02*
X46978628Y-68414285D01*
X47454819Y-66890476D02*
X47454819Y-67461904D01*
X47454819Y-67176190D02*
X46454819Y-67176190D01*
X46454819Y-67176190D02*
X46597676Y-67271428D01*
X46597676Y-67271428D02*
X46692914Y-67366666D01*
X46692914Y-67366666D02*
X46740533Y-67461904D01*
X46550057Y-66509523D02*
X46502438Y-66461904D01*
X46502438Y-66461904D02*
X46454819Y-66366666D01*
X46454819Y-66366666D02*
X46454819Y-66128571D01*
X46454819Y-66128571D02*
X46502438Y-66033333D01*
X46502438Y-66033333D02*
X46550057Y-65985714D01*
X46550057Y-65985714D02*
X46645295Y-65938095D01*
X46645295Y-65938095D02*
X46740533Y-65938095D01*
X46740533Y-65938095D02*
X46883390Y-65985714D01*
X46883390Y-65985714D02*
X47454819Y-66557142D01*
X47454819Y-66557142D02*
X47454819Y-65938095D01*
X61198095Y-51754819D02*
X61198095Y-52564342D01*
X61198095Y-52564342D02*
X61245714Y-52659580D01*
X61245714Y-52659580D02*
X61293333Y-52707200D01*
X61293333Y-52707200D02*
X61388571Y-52754819D01*
X61388571Y-52754819D02*
X61579047Y-52754819D01*
X61579047Y-52754819D02*
X61674285Y-52707200D01*
X61674285Y-52707200D02*
X61721904Y-52659580D01*
X61721904Y-52659580D02*
X61769523Y-52564342D01*
X61769523Y-52564342D02*
X61769523Y-51754819D01*
X62769523Y-52754819D02*
X62198095Y-52754819D01*
X62483809Y-52754819D02*
X62483809Y-51754819D01*
X62483809Y-51754819D02*
X62388571Y-51897676D01*
X62388571Y-51897676D02*
X62293333Y-51992914D01*
X62293333Y-51992914D02*
X62198095Y-52040533D01*
X81638095Y-65654819D02*
X81638095Y-66464342D01*
X81638095Y-66464342D02*
X81685714Y-66559580D01*
X81685714Y-66559580D02*
X81733333Y-66607200D01*
X81733333Y-66607200D02*
X81828571Y-66654819D01*
X81828571Y-66654819D02*
X82019047Y-66654819D01*
X82019047Y-66654819D02*
X82114285Y-66607200D01*
X82114285Y-66607200D02*
X82161904Y-66559580D01*
X82161904Y-66559580D02*
X82209523Y-66464342D01*
X82209523Y-66464342D02*
X82209523Y-65654819D01*
X82590476Y-65654819D02*
X83209523Y-65654819D01*
X83209523Y-65654819D02*
X82876190Y-66035771D01*
X82876190Y-66035771D02*
X83019047Y-66035771D01*
X83019047Y-66035771D02*
X83114285Y-66083390D01*
X83114285Y-66083390D02*
X83161904Y-66131009D01*
X83161904Y-66131009D02*
X83209523Y-66226247D01*
X83209523Y-66226247D02*
X83209523Y-66464342D01*
X83209523Y-66464342D02*
X83161904Y-66559580D01*
X83161904Y-66559580D02*
X83114285Y-66607200D01*
X83114285Y-66607200D02*
X83019047Y-66654819D01*
X83019047Y-66654819D02*
X82733333Y-66654819D01*
X82733333Y-66654819D02*
X82638095Y-66607200D01*
X82638095Y-66607200D02*
X82590476Y-66559580D01*
X96001905Y-84754819D02*
X96001905Y-83754819D01*
X96001905Y-83754819D02*
X96240000Y-83754819D01*
X96240000Y-83754819D02*
X96382857Y-83802438D01*
X96382857Y-83802438D02*
X96478095Y-83897676D01*
X96478095Y-83897676D02*
X96525714Y-83992914D01*
X96525714Y-83992914D02*
X96573333Y-84183390D01*
X96573333Y-84183390D02*
X96573333Y-84326247D01*
X96573333Y-84326247D02*
X96525714Y-84516723D01*
X96525714Y-84516723D02*
X96478095Y-84611961D01*
X96478095Y-84611961D02*
X96382857Y-84707200D01*
X96382857Y-84707200D02*
X96240000Y-84754819D01*
X96240000Y-84754819D02*
X96001905Y-84754819D01*
X96906667Y-83754819D02*
X97573333Y-83754819D01*
X97573333Y-83754819D02*
X97144762Y-84754819D01*
X126704819Y-44998094D02*
X125704819Y-44998094D01*
X125704819Y-44998094D02*
X125704819Y-44759999D01*
X125704819Y-44759999D02*
X125752438Y-44617142D01*
X125752438Y-44617142D02*
X125847676Y-44521904D01*
X125847676Y-44521904D02*
X125942914Y-44474285D01*
X125942914Y-44474285D02*
X126133390Y-44426666D01*
X126133390Y-44426666D02*
X126276247Y-44426666D01*
X126276247Y-44426666D02*
X126466723Y-44474285D01*
X126466723Y-44474285D02*
X126561961Y-44521904D01*
X126561961Y-44521904D02*
X126657200Y-44617142D01*
X126657200Y-44617142D02*
X126704819Y-44759999D01*
X126704819Y-44759999D02*
X126704819Y-44998094D01*
X126704819Y-43474285D02*
X126704819Y-44045713D01*
X126704819Y-43759999D02*
X125704819Y-43759999D01*
X125704819Y-43759999D02*
X125847676Y-43855237D01*
X125847676Y-43855237D02*
X125942914Y-43950475D01*
X125942914Y-43950475D02*
X125990533Y-44045713D01*
X124104819Y-52141904D02*
X123104819Y-52141904D01*
X124104819Y-51570476D02*
X123533390Y-51999047D01*
X123104819Y-51570476D02*
X123676247Y-52141904D01*
X95861905Y-89854819D02*
X95861905Y-88854819D01*
X95861905Y-88854819D02*
X96100000Y-88854819D01*
X96100000Y-88854819D02*
X96242857Y-88902438D01*
X96242857Y-88902438D02*
X96338095Y-88997676D01*
X96338095Y-88997676D02*
X96385714Y-89092914D01*
X96385714Y-89092914D02*
X96433333Y-89283390D01*
X96433333Y-89283390D02*
X96433333Y-89426247D01*
X96433333Y-89426247D02*
X96385714Y-89616723D01*
X96385714Y-89616723D02*
X96338095Y-89711961D01*
X96338095Y-89711961D02*
X96242857Y-89807200D01*
X96242857Y-89807200D02*
X96100000Y-89854819D01*
X96100000Y-89854819D02*
X95861905Y-89854819D01*
X97004762Y-89283390D02*
X96909524Y-89235771D01*
X96909524Y-89235771D02*
X96861905Y-89188152D01*
X96861905Y-89188152D02*
X96814286Y-89092914D01*
X96814286Y-89092914D02*
X96814286Y-89045295D01*
X96814286Y-89045295D02*
X96861905Y-88950057D01*
X96861905Y-88950057D02*
X96909524Y-88902438D01*
X96909524Y-88902438D02*
X97004762Y-88854819D01*
X97004762Y-88854819D02*
X97195238Y-88854819D01*
X97195238Y-88854819D02*
X97290476Y-88902438D01*
X97290476Y-88902438D02*
X97338095Y-88950057D01*
X97338095Y-88950057D02*
X97385714Y-89045295D01*
X97385714Y-89045295D02*
X97385714Y-89092914D01*
X97385714Y-89092914D02*
X97338095Y-89188152D01*
X97338095Y-89188152D02*
X97290476Y-89235771D01*
X97290476Y-89235771D02*
X97195238Y-89283390D01*
X97195238Y-89283390D02*
X97004762Y-89283390D01*
X97004762Y-89283390D02*
X96909524Y-89331009D01*
X96909524Y-89331009D02*
X96861905Y-89378628D01*
X96861905Y-89378628D02*
X96814286Y-89473866D01*
X96814286Y-89473866D02*
X96814286Y-89664342D01*
X96814286Y-89664342D02*
X96861905Y-89759580D01*
X96861905Y-89759580D02*
X96909524Y-89807200D01*
X96909524Y-89807200D02*
X97004762Y-89854819D01*
X97004762Y-89854819D02*
X97195238Y-89854819D01*
X97195238Y-89854819D02*
X97290476Y-89807200D01*
X97290476Y-89807200D02*
X97338095Y-89759580D01*
X97338095Y-89759580D02*
X97385714Y-89664342D01*
X97385714Y-89664342D02*
X97385714Y-89473866D01*
X97385714Y-89473866D02*
X97338095Y-89378628D01*
X97338095Y-89378628D02*
X97290476Y-89331009D01*
X97290476Y-89331009D02*
X97195238Y-89283390D01*
X80357142Y-87154819D02*
X80023809Y-86678628D01*
X79785714Y-87154819D02*
X79785714Y-86154819D01*
X79785714Y-86154819D02*
X80166666Y-86154819D01*
X80166666Y-86154819D02*
X80261904Y-86202438D01*
X80261904Y-86202438D02*
X80309523Y-86250057D01*
X80309523Y-86250057D02*
X80357142Y-86345295D01*
X80357142Y-86345295D02*
X80357142Y-86488152D01*
X80357142Y-86488152D02*
X80309523Y-86583390D01*
X80309523Y-86583390D02*
X80261904Y-86631009D01*
X80261904Y-86631009D02*
X80166666Y-86678628D01*
X80166666Y-86678628D02*
X79785714Y-86678628D01*
X81309523Y-87154819D02*
X80738095Y-87154819D01*
X81023809Y-87154819D02*
X81023809Y-86154819D01*
X81023809Y-86154819D02*
X80928571Y-86297676D01*
X80928571Y-86297676D02*
X80833333Y-86392914D01*
X80833333Y-86392914D02*
X80738095Y-86440533D01*
X81642857Y-86154819D02*
X82261904Y-86154819D01*
X82261904Y-86154819D02*
X81928571Y-86535771D01*
X81928571Y-86535771D02*
X82071428Y-86535771D01*
X82071428Y-86535771D02*
X82166666Y-86583390D01*
X82166666Y-86583390D02*
X82214285Y-86631009D01*
X82214285Y-86631009D02*
X82261904Y-86726247D01*
X82261904Y-86726247D02*
X82261904Y-86964342D01*
X82261904Y-86964342D02*
X82214285Y-87059580D01*
X82214285Y-87059580D02*
X82166666Y-87107200D01*
X82166666Y-87107200D02*
X82071428Y-87154819D01*
X82071428Y-87154819D02*
X81785714Y-87154819D01*
X81785714Y-87154819D02*
X81690476Y-87107200D01*
X81690476Y-87107200D02*
X81642857Y-87059580D01*
X110954819Y-79233094D02*
X109954819Y-79233094D01*
X109954819Y-79233094D02*
X109954819Y-78994999D01*
X109954819Y-78994999D02*
X110002438Y-78852142D01*
X110002438Y-78852142D02*
X110097676Y-78756904D01*
X110097676Y-78756904D02*
X110192914Y-78709285D01*
X110192914Y-78709285D02*
X110383390Y-78661666D01*
X110383390Y-78661666D02*
X110526247Y-78661666D01*
X110526247Y-78661666D02*
X110716723Y-78709285D01*
X110716723Y-78709285D02*
X110811961Y-78756904D01*
X110811961Y-78756904D02*
X110907200Y-78852142D01*
X110907200Y-78852142D02*
X110954819Y-78994999D01*
X110954819Y-78994999D02*
X110954819Y-79233094D01*
X110050057Y-78280713D02*
X110002438Y-78233094D01*
X110002438Y-78233094D02*
X109954819Y-78137856D01*
X109954819Y-78137856D02*
X109954819Y-77899761D01*
X109954819Y-77899761D02*
X110002438Y-77804523D01*
X110002438Y-77804523D02*
X110050057Y-77756904D01*
X110050057Y-77756904D02*
X110145295Y-77709285D01*
X110145295Y-77709285D02*
X110240533Y-77709285D01*
X110240533Y-77709285D02*
X110383390Y-77756904D01*
X110383390Y-77756904D02*
X110954819Y-78328332D01*
X110954819Y-78328332D02*
X110954819Y-77709285D01*
X113554819Y-71136904D02*
X112554819Y-71136904D01*
X113554819Y-70565476D02*
X112983390Y-70994047D01*
X112554819Y-70565476D02*
X113126247Y-71136904D01*
X104954819Y-79233094D02*
X103954819Y-79233094D01*
X103954819Y-79233094D02*
X103954819Y-78994999D01*
X103954819Y-78994999D02*
X104002438Y-78852142D01*
X104002438Y-78852142D02*
X104097676Y-78756904D01*
X104097676Y-78756904D02*
X104192914Y-78709285D01*
X104192914Y-78709285D02*
X104383390Y-78661666D01*
X104383390Y-78661666D02*
X104526247Y-78661666D01*
X104526247Y-78661666D02*
X104716723Y-78709285D01*
X104716723Y-78709285D02*
X104811961Y-78756904D01*
X104811961Y-78756904D02*
X104907200Y-78852142D01*
X104907200Y-78852142D02*
X104954819Y-78994999D01*
X104954819Y-78994999D02*
X104954819Y-79233094D01*
X104050057Y-78280713D02*
X104002438Y-78233094D01*
X104002438Y-78233094D02*
X103954819Y-78137856D01*
X103954819Y-78137856D02*
X103954819Y-77899761D01*
X103954819Y-77899761D02*
X104002438Y-77804523D01*
X104002438Y-77804523D02*
X104050057Y-77756904D01*
X104050057Y-77756904D02*
X104145295Y-77709285D01*
X104145295Y-77709285D02*
X104240533Y-77709285D01*
X104240533Y-77709285D02*
X104383390Y-77756904D01*
X104383390Y-77756904D02*
X104954819Y-78328332D01*
X104954819Y-78328332D02*
X104954819Y-77709285D01*
X107554819Y-71136904D02*
X106554819Y-71136904D01*
X107554819Y-70565476D02*
X106983390Y-70994047D01*
X106554819Y-70565476D02*
X107126247Y-71136904D01*
X91154819Y-75242857D02*
X90678628Y-75576190D01*
X91154819Y-75814285D02*
X90154819Y-75814285D01*
X90154819Y-75814285D02*
X90154819Y-75433333D01*
X90154819Y-75433333D02*
X90202438Y-75338095D01*
X90202438Y-75338095D02*
X90250057Y-75290476D01*
X90250057Y-75290476D02*
X90345295Y-75242857D01*
X90345295Y-75242857D02*
X90488152Y-75242857D01*
X90488152Y-75242857D02*
X90583390Y-75290476D01*
X90583390Y-75290476D02*
X90631009Y-75338095D01*
X90631009Y-75338095D02*
X90678628Y-75433333D01*
X90678628Y-75433333D02*
X90678628Y-75814285D01*
X91154819Y-74290476D02*
X91154819Y-74861904D01*
X91154819Y-74576190D02*
X90154819Y-74576190D01*
X90154819Y-74576190D02*
X90297676Y-74671428D01*
X90297676Y-74671428D02*
X90392914Y-74766666D01*
X90392914Y-74766666D02*
X90440533Y-74861904D01*
X90154819Y-73385714D02*
X90154819Y-73861904D01*
X90154819Y-73861904D02*
X90631009Y-73909523D01*
X90631009Y-73909523D02*
X90583390Y-73861904D01*
X90583390Y-73861904D02*
X90535771Y-73766666D01*
X90535771Y-73766666D02*
X90535771Y-73528571D01*
X90535771Y-73528571D02*
X90583390Y-73433333D01*
X90583390Y-73433333D02*
X90631009Y-73385714D01*
X90631009Y-73385714D02*
X90726247Y-73338095D01*
X90726247Y-73338095D02*
X90964342Y-73338095D01*
X90964342Y-73338095D02*
X91059580Y-73385714D01*
X91059580Y-73385714D02*
X91107200Y-73433333D01*
X91107200Y-73433333D02*
X91154819Y-73528571D01*
X91154819Y-73528571D02*
X91154819Y-73766666D01*
X91154819Y-73766666D02*
X91107200Y-73861904D01*
X91107200Y-73861904D02*
X91059580Y-73909523D01*
X120704819Y-44993094D02*
X119704819Y-44993094D01*
X119704819Y-44993094D02*
X119704819Y-44754999D01*
X119704819Y-44754999D02*
X119752438Y-44612142D01*
X119752438Y-44612142D02*
X119847676Y-44516904D01*
X119847676Y-44516904D02*
X119942914Y-44469285D01*
X119942914Y-44469285D02*
X120133390Y-44421666D01*
X120133390Y-44421666D02*
X120276247Y-44421666D01*
X120276247Y-44421666D02*
X120466723Y-44469285D01*
X120466723Y-44469285D02*
X120561961Y-44516904D01*
X120561961Y-44516904D02*
X120657200Y-44612142D01*
X120657200Y-44612142D02*
X120704819Y-44754999D01*
X120704819Y-44754999D02*
X120704819Y-44993094D01*
X120704819Y-43469285D02*
X120704819Y-44040713D01*
X120704819Y-43754999D02*
X119704819Y-43754999D01*
X119704819Y-43754999D02*
X119847676Y-43850237D01*
X119847676Y-43850237D02*
X119942914Y-43945475D01*
X119942914Y-43945475D02*
X119990533Y-44040713D01*
X118104819Y-52136904D02*
X117104819Y-52136904D01*
X118104819Y-51565476D02*
X117533390Y-51994047D01*
X117104819Y-51565476D02*
X117676247Y-52136904D01*
X53661905Y-33754819D02*
X53661905Y-32754819D01*
X53661905Y-32754819D02*
X53900000Y-32754819D01*
X53900000Y-32754819D02*
X54042857Y-32802438D01*
X54042857Y-32802438D02*
X54138095Y-32897676D01*
X54138095Y-32897676D02*
X54185714Y-32992914D01*
X54185714Y-32992914D02*
X54233333Y-33183390D01*
X54233333Y-33183390D02*
X54233333Y-33326247D01*
X54233333Y-33326247D02*
X54185714Y-33516723D01*
X54185714Y-33516723D02*
X54138095Y-33611961D01*
X54138095Y-33611961D02*
X54042857Y-33707200D01*
X54042857Y-33707200D02*
X53900000Y-33754819D01*
X53900000Y-33754819D02*
X53661905Y-33754819D01*
X55090476Y-32754819D02*
X54900000Y-32754819D01*
X54900000Y-32754819D02*
X54804762Y-32802438D01*
X54804762Y-32802438D02*
X54757143Y-32850057D01*
X54757143Y-32850057D02*
X54661905Y-32992914D01*
X54661905Y-32992914D02*
X54614286Y-33183390D01*
X54614286Y-33183390D02*
X54614286Y-33564342D01*
X54614286Y-33564342D02*
X54661905Y-33659580D01*
X54661905Y-33659580D02*
X54709524Y-33707200D01*
X54709524Y-33707200D02*
X54804762Y-33754819D01*
X54804762Y-33754819D02*
X54995238Y-33754819D01*
X54995238Y-33754819D02*
X55090476Y-33707200D01*
X55090476Y-33707200D02*
X55138095Y-33659580D01*
X55138095Y-33659580D02*
X55185714Y-33564342D01*
X55185714Y-33564342D02*
X55185714Y-33326247D01*
X55185714Y-33326247D02*
X55138095Y-33231009D01*
X55138095Y-33231009D02*
X55090476Y-33183390D01*
X55090476Y-33183390D02*
X54995238Y-33135771D01*
X54995238Y-33135771D02*
X54804762Y-33135771D01*
X54804762Y-33135771D02*
X54709524Y-33183390D01*
X54709524Y-33183390D02*
X54661905Y-33231009D01*
X54661905Y-33231009D02*
X54614286Y-33326247D01*
X41344819Y-51889999D02*
X40344819Y-51889999D01*
X41344819Y-51413809D02*
X40344819Y-51413809D01*
X40344819Y-51413809D02*
X41344819Y-50842381D01*
X41344819Y-50842381D02*
X40344819Y-50842381D01*
X41344819Y-49842381D02*
X41344819Y-50413809D01*
X41344819Y-50128095D02*
X40344819Y-50128095D01*
X40344819Y-50128095D02*
X40487676Y-50223333D01*
X40487676Y-50223333D02*
X40582914Y-50318571D01*
X40582914Y-50318571D02*
X40630533Y-50413809D01*
X125014819Y-78166190D02*
X125014819Y-77975714D01*
X125014819Y-77975714D02*
X125062438Y-77880476D01*
X125062438Y-77880476D02*
X125157676Y-77785238D01*
X125157676Y-77785238D02*
X125348152Y-77737619D01*
X125348152Y-77737619D02*
X125681485Y-77737619D01*
X125681485Y-77737619D02*
X125871961Y-77785238D01*
X125871961Y-77785238D02*
X125967200Y-77880476D01*
X125967200Y-77880476D02*
X126014819Y-77975714D01*
X126014819Y-77975714D02*
X126014819Y-78166190D01*
X126014819Y-78166190D02*
X125967200Y-78261428D01*
X125967200Y-78261428D02*
X125871961Y-78356666D01*
X125871961Y-78356666D02*
X125681485Y-78404285D01*
X125681485Y-78404285D02*
X125348152Y-78404285D01*
X125348152Y-78404285D02*
X125157676Y-78356666D01*
X125157676Y-78356666D02*
X125062438Y-78261428D01*
X125062438Y-78261428D02*
X125014819Y-78166190D01*
X125014819Y-77309047D02*
X125824342Y-77309047D01*
X125824342Y-77309047D02*
X125919580Y-77261428D01*
X125919580Y-77261428D02*
X125967200Y-77213809D01*
X125967200Y-77213809D02*
X126014819Y-77118571D01*
X126014819Y-77118571D02*
X126014819Y-76928095D01*
X126014819Y-76928095D02*
X125967200Y-76832857D01*
X125967200Y-76832857D02*
X125919580Y-76785238D01*
X125919580Y-76785238D02*
X125824342Y-76737619D01*
X125824342Y-76737619D02*
X125014819Y-76737619D01*
X125014819Y-76404285D02*
X125014819Y-75832857D01*
X126014819Y-76118571D02*
X125014819Y-76118571D01*
X126014819Y-74975714D02*
X126014819Y-75547142D01*
X126014819Y-75261428D02*
X125014819Y-75261428D01*
X125014819Y-75261428D02*
X125157676Y-75356666D01*
X125157676Y-75356666D02*
X125252914Y-75451904D01*
X125252914Y-75451904D02*
X125300533Y-75547142D01*
X82233333Y-47159580D02*
X82185714Y-47207200D01*
X82185714Y-47207200D02*
X82042857Y-47254819D01*
X82042857Y-47254819D02*
X81947619Y-47254819D01*
X81947619Y-47254819D02*
X81804762Y-47207200D01*
X81804762Y-47207200D02*
X81709524Y-47111961D01*
X81709524Y-47111961D02*
X81661905Y-47016723D01*
X81661905Y-47016723D02*
X81614286Y-46826247D01*
X81614286Y-46826247D02*
X81614286Y-46683390D01*
X81614286Y-46683390D02*
X81661905Y-46492914D01*
X81661905Y-46492914D02*
X81709524Y-46397676D01*
X81709524Y-46397676D02*
X81804762Y-46302438D01*
X81804762Y-46302438D02*
X81947619Y-46254819D01*
X81947619Y-46254819D02*
X82042857Y-46254819D01*
X82042857Y-46254819D02*
X82185714Y-46302438D01*
X82185714Y-46302438D02*
X82233333Y-46350057D01*
X83090476Y-46588152D02*
X83090476Y-47254819D01*
X82852381Y-46207200D02*
X82614286Y-46921485D01*
X82614286Y-46921485D02*
X83233333Y-46921485D01*
X39606666Y-37356819D02*
X39606666Y-38071104D01*
X39606666Y-38071104D02*
X39559047Y-38213961D01*
X39559047Y-38213961D02*
X39463809Y-38309200D01*
X39463809Y-38309200D02*
X39320952Y-38356819D01*
X39320952Y-38356819D02*
X39225714Y-38356819D01*
X40606666Y-38356819D02*
X40035238Y-38356819D01*
X40320952Y-38356819D02*
X40320952Y-37356819D01*
X40320952Y-37356819D02*
X40225714Y-37499676D01*
X40225714Y-37499676D02*
X40130476Y-37594914D01*
X40130476Y-37594914D02*
X40035238Y-37642533D01*
X39366666Y-61306819D02*
X39366666Y-62021104D01*
X39366666Y-62021104D02*
X39319047Y-62163961D01*
X39319047Y-62163961D02*
X39223809Y-62259200D01*
X39223809Y-62259200D02*
X39080952Y-62306819D01*
X39080952Y-62306819D02*
X38985714Y-62306819D01*
X39795238Y-61402057D02*
X39842857Y-61354438D01*
X39842857Y-61354438D02*
X39938095Y-61306819D01*
X39938095Y-61306819D02*
X40176190Y-61306819D01*
X40176190Y-61306819D02*
X40271428Y-61354438D01*
X40271428Y-61354438D02*
X40319047Y-61402057D01*
X40319047Y-61402057D02*
X40366666Y-61497295D01*
X40366666Y-61497295D02*
X40366666Y-61592533D01*
X40366666Y-61592533D02*
X40319047Y-61735390D01*
X40319047Y-61735390D02*
X39747619Y-62306819D01*
X39747619Y-62306819D02*
X40366666Y-62306819D01*
X129566666Y-84006819D02*
X129566666Y-84721104D01*
X129566666Y-84721104D02*
X129519047Y-84863961D01*
X129519047Y-84863961D02*
X129423809Y-84959200D01*
X129423809Y-84959200D02*
X129280952Y-85006819D01*
X129280952Y-85006819D02*
X129185714Y-85006819D01*
X129947619Y-84006819D02*
X130566666Y-84006819D01*
X130566666Y-84006819D02*
X130233333Y-84387771D01*
X130233333Y-84387771D02*
X130376190Y-84387771D01*
X130376190Y-84387771D02*
X130471428Y-84435390D01*
X130471428Y-84435390D02*
X130519047Y-84483009D01*
X130519047Y-84483009D02*
X130566666Y-84578247D01*
X130566666Y-84578247D02*
X130566666Y-84816342D01*
X130566666Y-84816342D02*
X130519047Y-84911580D01*
X130519047Y-84911580D02*
X130471428Y-84959200D01*
X130471428Y-84959200D02*
X130376190Y-85006819D01*
X130376190Y-85006819D02*
X130090476Y-85006819D01*
X130090476Y-85006819D02*
X129995238Y-84959200D01*
X129995238Y-84959200D02*
X129947619Y-84911580D01*
X119916666Y-74406819D02*
X119916666Y-75121104D01*
X119916666Y-75121104D02*
X119869047Y-75263961D01*
X119869047Y-75263961D02*
X119773809Y-75359200D01*
X119773809Y-75359200D02*
X119630952Y-75406819D01*
X119630952Y-75406819D02*
X119535714Y-75406819D01*
X120821428Y-74740152D02*
X120821428Y-75406819D01*
X120583333Y-74359200D02*
X120345238Y-75073485D01*
X120345238Y-75073485D02*
X120964285Y-75073485D01*
X95054819Y-75242857D02*
X94578628Y-75576190D01*
X95054819Y-75814285D02*
X94054819Y-75814285D01*
X94054819Y-75814285D02*
X94054819Y-75433333D01*
X94054819Y-75433333D02*
X94102438Y-75338095D01*
X94102438Y-75338095D02*
X94150057Y-75290476D01*
X94150057Y-75290476D02*
X94245295Y-75242857D01*
X94245295Y-75242857D02*
X94388152Y-75242857D01*
X94388152Y-75242857D02*
X94483390Y-75290476D01*
X94483390Y-75290476D02*
X94531009Y-75338095D01*
X94531009Y-75338095D02*
X94578628Y-75433333D01*
X94578628Y-75433333D02*
X94578628Y-75814285D01*
X95054819Y-74290476D02*
X95054819Y-74861904D01*
X95054819Y-74576190D02*
X94054819Y-74576190D01*
X94054819Y-74576190D02*
X94197676Y-74671428D01*
X94197676Y-74671428D02*
X94292914Y-74766666D01*
X94292914Y-74766666D02*
X94340533Y-74861904D01*
X94388152Y-73433333D02*
X95054819Y-73433333D01*
X94007200Y-73671428D02*
X94721485Y-73909523D01*
X94721485Y-73909523D02*
X94721485Y-73290476D01*
X87157142Y-64954819D02*
X86823809Y-64478628D01*
X86585714Y-64954819D02*
X86585714Y-63954819D01*
X86585714Y-63954819D02*
X86966666Y-63954819D01*
X86966666Y-63954819D02*
X87061904Y-64002438D01*
X87061904Y-64002438D02*
X87109523Y-64050057D01*
X87109523Y-64050057D02*
X87157142Y-64145295D01*
X87157142Y-64145295D02*
X87157142Y-64288152D01*
X87157142Y-64288152D02*
X87109523Y-64383390D01*
X87109523Y-64383390D02*
X87061904Y-64431009D01*
X87061904Y-64431009D02*
X86966666Y-64478628D01*
X86966666Y-64478628D02*
X86585714Y-64478628D01*
X88109523Y-64954819D02*
X87538095Y-64954819D01*
X87823809Y-64954819D02*
X87823809Y-63954819D01*
X87823809Y-63954819D02*
X87728571Y-64097676D01*
X87728571Y-64097676D02*
X87633333Y-64192914D01*
X87633333Y-64192914D02*
X87538095Y-64240533D01*
X89061904Y-64954819D02*
X88490476Y-64954819D01*
X88776190Y-64954819D02*
X88776190Y-63954819D01*
X88776190Y-63954819D02*
X88680952Y-64097676D01*
X88680952Y-64097676D02*
X88585714Y-64192914D01*
X88585714Y-64192914D02*
X88490476Y-64240533D01*
X96154819Y-54416666D02*
X95678628Y-54749999D01*
X96154819Y-54988094D02*
X95154819Y-54988094D01*
X95154819Y-54988094D02*
X95154819Y-54607142D01*
X95154819Y-54607142D02*
X95202438Y-54511904D01*
X95202438Y-54511904D02*
X95250057Y-54464285D01*
X95250057Y-54464285D02*
X95345295Y-54416666D01*
X95345295Y-54416666D02*
X95488152Y-54416666D01*
X95488152Y-54416666D02*
X95583390Y-54464285D01*
X95583390Y-54464285D02*
X95631009Y-54511904D01*
X95631009Y-54511904D02*
X95678628Y-54607142D01*
X95678628Y-54607142D02*
X95678628Y-54988094D01*
X95154819Y-54083332D02*
X95154819Y-53416666D01*
X95154819Y-53416666D02*
X96154819Y-53845237D01*
X63094819Y-74796666D02*
X62618628Y-75129999D01*
X63094819Y-75368094D02*
X62094819Y-75368094D01*
X62094819Y-75368094D02*
X62094819Y-74987142D01*
X62094819Y-74987142D02*
X62142438Y-74891904D01*
X62142438Y-74891904D02*
X62190057Y-74844285D01*
X62190057Y-74844285D02*
X62285295Y-74796666D01*
X62285295Y-74796666D02*
X62428152Y-74796666D01*
X62428152Y-74796666D02*
X62523390Y-74844285D01*
X62523390Y-74844285D02*
X62571009Y-74891904D01*
X62571009Y-74891904D02*
X62618628Y-74987142D01*
X62618628Y-74987142D02*
X62618628Y-75368094D01*
X62094819Y-74463332D02*
X62094819Y-73844285D01*
X62094819Y-73844285D02*
X62475771Y-74177618D01*
X62475771Y-74177618D02*
X62475771Y-74034761D01*
X62475771Y-74034761D02*
X62523390Y-73939523D01*
X62523390Y-73939523D02*
X62571009Y-73891904D01*
X62571009Y-73891904D02*
X62666247Y-73844285D01*
X62666247Y-73844285D02*
X62904342Y-73844285D01*
X62904342Y-73844285D02*
X62999580Y-73891904D01*
X62999580Y-73891904D02*
X63047200Y-73939523D01*
X63047200Y-73939523D02*
X63094819Y-74034761D01*
X63094819Y-74034761D02*
X63094819Y-74320475D01*
X63094819Y-74320475D02*
X63047200Y-74415713D01*
X63047200Y-74415713D02*
X62999580Y-74463332D01*
X74909580Y-34272707D02*
X74957200Y-34320326D01*
X74957200Y-34320326D02*
X75004819Y-34463183D01*
X75004819Y-34463183D02*
X75004819Y-34558421D01*
X75004819Y-34558421D02*
X74957200Y-34701278D01*
X74957200Y-34701278D02*
X74861961Y-34796516D01*
X74861961Y-34796516D02*
X74766723Y-34844135D01*
X74766723Y-34844135D02*
X74576247Y-34891754D01*
X74576247Y-34891754D02*
X74433390Y-34891754D01*
X74433390Y-34891754D02*
X74242914Y-34844135D01*
X74242914Y-34844135D02*
X74147676Y-34796516D01*
X74147676Y-34796516D02*
X74052438Y-34701278D01*
X74052438Y-34701278D02*
X74004819Y-34558421D01*
X74004819Y-34558421D02*
X74004819Y-34463183D01*
X74004819Y-34463183D02*
X74052438Y-34320326D01*
X74052438Y-34320326D02*
X74100057Y-34272707D01*
X74004819Y-33939373D02*
X74004819Y-33272707D01*
X74004819Y-33272707D02*
X75004819Y-33701278D01*
X120979723Y-30204184D02*
X120979723Y-29204184D01*
X120979723Y-29204184D02*
X121217818Y-29204184D01*
X121217818Y-29204184D02*
X121360675Y-29251803D01*
X121360675Y-29251803D02*
X121455913Y-29347041D01*
X121455913Y-29347041D02*
X121503532Y-29442279D01*
X121503532Y-29442279D02*
X121551151Y-29632755D01*
X121551151Y-29632755D02*
X121551151Y-29775612D01*
X121551151Y-29775612D02*
X121503532Y-29966088D01*
X121503532Y-29966088D02*
X121455913Y-30061326D01*
X121455913Y-30061326D02*
X121360675Y-30156565D01*
X121360675Y-30156565D02*
X121217818Y-30204184D01*
X121217818Y-30204184D02*
X120979723Y-30204184D01*
X122027342Y-30204184D02*
X122217818Y-30204184D01*
X122217818Y-30204184D02*
X122313056Y-30156565D01*
X122313056Y-30156565D02*
X122360675Y-30108945D01*
X122360675Y-30108945D02*
X122455913Y-29966088D01*
X122455913Y-29966088D02*
X122503532Y-29775612D01*
X122503532Y-29775612D02*
X122503532Y-29394660D01*
X122503532Y-29394660D02*
X122455913Y-29299422D01*
X122455913Y-29299422D02*
X122408294Y-29251803D01*
X122408294Y-29251803D02*
X122313056Y-29204184D01*
X122313056Y-29204184D02*
X122122580Y-29204184D01*
X122122580Y-29204184D02*
X122027342Y-29251803D01*
X122027342Y-29251803D02*
X121979723Y-29299422D01*
X121979723Y-29299422D02*
X121932104Y-29394660D01*
X121932104Y-29394660D02*
X121932104Y-29632755D01*
X121932104Y-29632755D02*
X121979723Y-29727993D01*
X121979723Y-29727993D02*
X122027342Y-29775612D01*
X122027342Y-29775612D02*
X122122580Y-29823231D01*
X122122580Y-29823231D02*
X122313056Y-29823231D01*
X122313056Y-29823231D02*
X122408294Y-29775612D01*
X122408294Y-29775612D02*
X122455913Y-29727993D01*
X122455913Y-29727993D02*
X122503532Y-29632755D01*
X122219723Y-33769104D02*
X122695913Y-33769104D01*
X122124485Y-34054819D02*
X122457818Y-33054819D01*
X122457818Y-33054819D02*
X122791151Y-34054819D01*
X83804761Y-97375057D02*
X83709523Y-97327438D01*
X83709523Y-97327438D02*
X83614285Y-97232200D01*
X83614285Y-97232200D02*
X83471428Y-97089342D01*
X83471428Y-97089342D02*
X83376190Y-97041723D01*
X83376190Y-97041723D02*
X83280952Y-97041723D01*
X83328571Y-97279819D02*
X83233333Y-97232200D01*
X83233333Y-97232200D02*
X83138095Y-97136961D01*
X83138095Y-97136961D02*
X83090476Y-96946485D01*
X83090476Y-96946485D02*
X83090476Y-96613152D01*
X83090476Y-96613152D02*
X83138095Y-96422676D01*
X83138095Y-96422676D02*
X83233333Y-96327438D01*
X83233333Y-96327438D02*
X83328571Y-96279819D01*
X83328571Y-96279819D02*
X83519047Y-96279819D01*
X83519047Y-96279819D02*
X83614285Y-96327438D01*
X83614285Y-96327438D02*
X83709523Y-96422676D01*
X83709523Y-96422676D02*
X83757142Y-96613152D01*
X83757142Y-96613152D02*
X83757142Y-96946485D01*
X83757142Y-96946485D02*
X83709523Y-97136961D01*
X83709523Y-97136961D02*
X83614285Y-97232200D01*
X83614285Y-97232200D02*
X83519047Y-97279819D01*
X83519047Y-97279819D02*
X83328571Y-97279819D01*
X84709523Y-97279819D02*
X84138095Y-97279819D01*
X84423809Y-97279819D02*
X84423809Y-96279819D01*
X84423809Y-96279819D02*
X84328571Y-96422676D01*
X84328571Y-96422676D02*
X84233333Y-96517914D01*
X84233333Y-96517914D02*
X84138095Y-96565533D01*
X109744761Y-29780057D02*
X109649523Y-29732438D01*
X109649523Y-29732438D02*
X109554285Y-29637200D01*
X109554285Y-29637200D02*
X109411428Y-29494342D01*
X109411428Y-29494342D02*
X109316190Y-29446723D01*
X109316190Y-29446723D02*
X109220952Y-29446723D01*
X109268571Y-29684819D02*
X109173333Y-29637200D01*
X109173333Y-29637200D02*
X109078095Y-29541961D01*
X109078095Y-29541961D02*
X109030476Y-29351485D01*
X109030476Y-29351485D02*
X109030476Y-29018152D01*
X109030476Y-29018152D02*
X109078095Y-28827676D01*
X109078095Y-28827676D02*
X109173333Y-28732438D01*
X109173333Y-28732438D02*
X109268571Y-28684819D01*
X109268571Y-28684819D02*
X109459047Y-28684819D01*
X109459047Y-28684819D02*
X109554285Y-28732438D01*
X109554285Y-28732438D02*
X109649523Y-28827676D01*
X109649523Y-28827676D02*
X109697142Y-29018152D01*
X109697142Y-29018152D02*
X109697142Y-29351485D01*
X109697142Y-29351485D02*
X109649523Y-29541961D01*
X109649523Y-29541961D02*
X109554285Y-29637200D01*
X109554285Y-29637200D02*
X109459047Y-29684819D01*
X109459047Y-29684819D02*
X109268571Y-29684819D01*
X110078095Y-28780057D02*
X110125714Y-28732438D01*
X110125714Y-28732438D02*
X110220952Y-28684819D01*
X110220952Y-28684819D02*
X110459047Y-28684819D01*
X110459047Y-28684819D02*
X110554285Y-28732438D01*
X110554285Y-28732438D02*
X110601904Y-28780057D01*
X110601904Y-28780057D02*
X110649523Y-28875295D01*
X110649523Y-28875295D02*
X110649523Y-28970533D01*
X110649523Y-28970533D02*
X110601904Y-29113390D01*
X110601904Y-29113390D02*
X110030476Y-29684819D01*
X110030476Y-29684819D02*
X110649523Y-29684819D01*
X45357200Y-83433332D02*
X45404819Y-83290475D01*
X45404819Y-83290475D02*
X45404819Y-83052380D01*
X45404819Y-83052380D02*
X45357200Y-82957142D01*
X45357200Y-82957142D02*
X45309580Y-82909523D01*
X45309580Y-82909523D02*
X45214342Y-82861904D01*
X45214342Y-82861904D02*
X45119104Y-82861904D01*
X45119104Y-82861904D02*
X45023866Y-82909523D01*
X45023866Y-82909523D02*
X44976247Y-82957142D01*
X44976247Y-82957142D02*
X44928628Y-83052380D01*
X44928628Y-83052380D02*
X44881009Y-83242856D01*
X44881009Y-83242856D02*
X44833390Y-83338094D01*
X44833390Y-83338094D02*
X44785771Y-83385713D01*
X44785771Y-83385713D02*
X44690533Y-83433332D01*
X44690533Y-83433332D02*
X44595295Y-83433332D01*
X44595295Y-83433332D02*
X44500057Y-83385713D01*
X44500057Y-83385713D02*
X44452438Y-83338094D01*
X44452438Y-83338094D02*
X44404819Y-83242856D01*
X44404819Y-83242856D02*
X44404819Y-83004761D01*
X44404819Y-83004761D02*
X44452438Y-82861904D01*
X44404819Y-82528570D02*
X45404819Y-82290475D01*
X45404819Y-82290475D02*
X44690533Y-82099999D01*
X44690533Y-82099999D02*
X45404819Y-81909523D01*
X45404819Y-81909523D02*
X44404819Y-81671428D01*
X45404819Y-80766666D02*
X45404819Y-81338094D01*
X45404819Y-81052380D02*
X44404819Y-81052380D01*
X44404819Y-81052380D02*
X44547676Y-81147618D01*
X44547676Y-81147618D02*
X44642914Y-81242856D01*
X44642914Y-81242856D02*
X44690533Y-81338094D01*
X55066666Y-50204819D02*
X55066666Y-50919104D01*
X55066666Y-50919104D02*
X55019047Y-51061961D01*
X55019047Y-51061961D02*
X54923809Y-51157200D01*
X54923809Y-51157200D02*
X54780952Y-51204819D01*
X54780952Y-51204819D02*
X54685714Y-51204819D01*
X55971428Y-50204819D02*
X55780952Y-50204819D01*
X55780952Y-50204819D02*
X55685714Y-50252438D01*
X55685714Y-50252438D02*
X55638095Y-50300057D01*
X55638095Y-50300057D02*
X55542857Y-50442914D01*
X55542857Y-50442914D02*
X55495238Y-50633390D01*
X55495238Y-50633390D02*
X55495238Y-51014342D01*
X55495238Y-51014342D02*
X55542857Y-51109580D01*
X55542857Y-51109580D02*
X55590476Y-51157200D01*
X55590476Y-51157200D02*
X55685714Y-51204819D01*
X55685714Y-51204819D02*
X55876190Y-51204819D01*
X55876190Y-51204819D02*
X55971428Y-51157200D01*
X55971428Y-51157200D02*
X56019047Y-51109580D01*
X56019047Y-51109580D02*
X56066666Y-51014342D01*
X56066666Y-51014342D02*
X56066666Y-50776247D01*
X56066666Y-50776247D02*
X56019047Y-50681009D01*
X56019047Y-50681009D02*
X55971428Y-50633390D01*
X55971428Y-50633390D02*
X55876190Y-50585771D01*
X55876190Y-50585771D02*
X55685714Y-50585771D01*
X55685714Y-50585771D02*
X55590476Y-50633390D01*
X55590476Y-50633390D02*
X55542857Y-50681009D01*
X55542857Y-50681009D02*
X55495238Y-50776247D01*
X54766666Y-57954819D02*
X54766666Y-58669104D01*
X54766666Y-58669104D02*
X54719047Y-58811961D01*
X54719047Y-58811961D02*
X54623809Y-58907200D01*
X54623809Y-58907200D02*
X54480952Y-58954819D01*
X54480952Y-58954819D02*
X54385714Y-58954819D01*
X55147619Y-57954819D02*
X55814285Y-57954819D01*
X55814285Y-57954819D02*
X55385714Y-58954819D01*
X55066666Y-46004819D02*
X55066666Y-46719104D01*
X55066666Y-46719104D02*
X55019047Y-46861961D01*
X55019047Y-46861961D02*
X54923809Y-46957200D01*
X54923809Y-46957200D02*
X54780952Y-47004819D01*
X54780952Y-47004819D02*
X54685714Y-47004819D01*
X56019047Y-46004819D02*
X55542857Y-46004819D01*
X55542857Y-46004819D02*
X55495238Y-46481009D01*
X55495238Y-46481009D02*
X55542857Y-46433390D01*
X55542857Y-46433390D02*
X55638095Y-46385771D01*
X55638095Y-46385771D02*
X55876190Y-46385771D01*
X55876190Y-46385771D02*
X55971428Y-46433390D01*
X55971428Y-46433390D02*
X56019047Y-46481009D01*
X56019047Y-46481009D02*
X56066666Y-46576247D01*
X56066666Y-46576247D02*
X56066666Y-46814342D01*
X56066666Y-46814342D02*
X56019047Y-46909580D01*
X56019047Y-46909580D02*
X55971428Y-46957200D01*
X55971428Y-46957200D02*
X55876190Y-47004819D01*
X55876190Y-47004819D02*
X55638095Y-47004819D01*
X55638095Y-47004819D02*
X55542857Y-46957200D01*
X55542857Y-46957200D02*
X55495238Y-46909580D01*
D11*
X87340000Y-42500000D02*
X86320000Y-42500000D01*
X85540000Y-43970000D02*
X85540000Y-41030000D01*
X85420000Y-43970000D02*
X85420000Y-41030000D01*
X85300000Y-43970000D02*
X85300000Y-41030000D01*
X79860000Y-42500000D02*
X80880000Y-42500000D01*
X86320000Y-43970000D02*
X80880000Y-43970000D01*
X80880000Y-41030000D01*
X86320000Y-41030000D01*
X86320000Y-43970000D01*
X51300000Y-55040000D02*
X51300000Y-54020000D01*
X49830000Y-53240000D02*
X52770000Y-53240000D01*
X49830000Y-53120000D02*
X52770000Y-53120000D01*
X49830000Y-53000000D02*
X52770000Y-53000000D01*
X51300000Y-47560000D02*
X51300000Y-48580000D01*
X49830000Y-54020000D02*
X52770000Y-54020000D01*
X52770000Y-48580000D01*
X49830000Y-48580000D01*
X49830000Y-54020000D01*
X51300000Y-62190000D02*
X51300000Y-64480000D01*
X52770000Y-65260000D02*
X49830000Y-65260000D01*
X52770000Y-65380000D02*
X49830000Y-65380000D01*
X52770000Y-65500000D02*
X49830000Y-65500000D01*
X51300000Y-72210000D02*
X51300000Y-69920000D01*
X52770000Y-64480000D02*
X49830000Y-64480000D01*
X49830000Y-69920000D01*
X52770000Y-69920000D01*
X52770000Y-64480000D01*
X118810000Y-89830000D02*
X114012000Y-89830000D01*
X118810000Y-89870000D02*
X114019000Y-89870000D01*
X118810000Y-89910000D02*
X114027000Y-89910000D01*
X118810000Y-89950000D02*
X114034000Y-89950000D01*
X118810000Y-89990000D02*
X114042000Y-89990000D01*
X118810000Y-90030000D02*
X114050000Y-90030000D01*
X118810000Y-90070000D02*
X114058000Y-90070000D01*
X118810000Y-90110000D02*
X114067000Y-90110000D01*
X118810000Y-90150000D02*
X114076000Y-90150000D01*
X118810000Y-90190000D02*
X114085000Y-90190000D01*
X118810000Y-90230000D02*
X114094000Y-90230000D01*
X118810000Y-90270000D02*
X114104000Y-90270000D01*
X118810000Y-90310000D02*
X114114000Y-90310000D01*
X118810000Y-90350000D02*
X114124000Y-90350000D01*
X118810000Y-90390000D02*
X114135000Y-90390000D01*
X118810000Y-90430000D02*
X114146000Y-90430000D01*
X118810000Y-90470000D02*
X114157000Y-90470000D01*
X118810000Y-90510000D02*
X114168000Y-90510000D01*
X118810000Y-90550000D02*
X114180000Y-90550000D01*
X118810000Y-90590000D02*
X114192000Y-90590000D01*
X118810000Y-90630000D02*
X114204000Y-90630000D01*
X118810000Y-90670000D02*
X114216000Y-90670000D01*
X118810000Y-90710000D02*
X114229000Y-90710000D01*
X118810000Y-90750000D02*
X114242000Y-90750000D01*
X118810000Y-90790000D02*
X114255000Y-90790000D01*
X118810000Y-90830000D02*
X114269000Y-90830000D01*
X118810000Y-90870000D02*
X114283000Y-90870000D01*
X118810000Y-90910000D02*
X114297000Y-90910000D01*
X118810000Y-90950000D02*
X114312000Y-90950000D01*
X118810000Y-90990000D02*
X114327000Y-90990000D01*
X118810000Y-91030000D02*
X114342000Y-91030000D01*
X118810000Y-91070000D02*
X114358000Y-91070000D01*
X118810000Y-91110000D02*
X114373000Y-91110000D01*
X118810000Y-91150000D02*
X114389000Y-91150000D01*
X118810000Y-91190000D02*
X114406000Y-91190000D01*
X118810000Y-91230000D02*
X114423000Y-91230000D01*
X118810000Y-91270000D02*
X114440000Y-91270000D01*
X118810000Y-91310000D02*
X114457000Y-91310000D01*
X118810000Y-91350000D02*
X114475000Y-91350000D01*
X118810000Y-91390000D02*
X114493000Y-91390000D01*
X118810000Y-91430000D02*
X114511000Y-91430000D01*
X118810000Y-91470000D02*
X114530000Y-91470000D01*
X118810000Y-91510000D02*
X114549000Y-91510000D01*
X118810000Y-91550000D02*
X114568000Y-91550000D01*
X118810000Y-91590000D02*
X114588000Y-91590000D01*
X118810000Y-91630000D02*
X114608000Y-91630000D01*
X118810000Y-91670000D02*
X114629000Y-91670000D01*
X118810000Y-91710000D02*
X114649000Y-91710000D01*
X118810000Y-91750000D02*
X114671000Y-91750000D01*
X118810000Y-91790000D02*
X114692000Y-91790000D01*
X118810000Y-91830000D02*
X114714000Y-91830000D01*
X118810000Y-91870000D02*
X114736000Y-91870000D01*
X118810000Y-91910000D02*
X114759000Y-91910000D01*
X118810000Y-91950000D02*
X114782000Y-91950000D01*
X118810000Y-91990000D02*
X114806000Y-91990000D01*
X118810000Y-92030000D02*
X114829000Y-92030000D01*
X118810000Y-92070000D02*
X114854000Y-92070000D01*
X118810000Y-92110000D02*
X114878000Y-92110000D01*
X118810000Y-92150000D02*
X114903000Y-92150000D01*
X118810000Y-92190000D02*
X114929000Y-92190000D01*
X118810000Y-92230000D02*
X114955000Y-92230000D01*
X118810000Y-92270000D02*
X114981000Y-92270000D01*
X118810000Y-92310000D02*
X115008000Y-92310000D01*
X118810000Y-92350000D02*
X115035000Y-92350000D01*
X118810000Y-92390000D02*
X115062000Y-92390000D01*
X118810000Y-92430000D02*
X115091000Y-92430000D01*
X118810000Y-92470000D02*
X115119000Y-92470000D01*
X118810000Y-92510000D02*
X115148000Y-92510000D01*
X118810000Y-92550000D02*
X115178000Y-92550000D01*
X118810000Y-92590000D02*
X115208000Y-92590000D01*
X118810000Y-92630000D02*
X115238000Y-92630000D01*
X118810000Y-92670000D02*
X115269000Y-92670000D01*
X120567000Y-95110000D02*
X119933000Y-95110000D01*
X121007000Y-95070000D02*
X119493000Y-95070000D01*
X121277000Y-95030000D02*
X119223000Y-95030000D01*
X121490000Y-94990000D02*
X119010000Y-94990000D01*
X121672000Y-94950000D02*
X118828000Y-94950000D01*
X121832000Y-94910000D02*
X118668000Y-94910000D01*
X121977000Y-94870000D02*
X118523000Y-94870000D01*
X122110000Y-94830000D02*
X118390000Y-94830000D01*
X122234000Y-94790000D02*
X118266000Y-94790000D01*
X122349000Y-94750000D02*
X118151000Y-94750000D01*
X122458000Y-94710000D02*
X118042000Y-94710000D01*
X122562000Y-94670000D02*
X117938000Y-94670000D01*
X122660000Y-94630000D02*
X117840000Y-94630000D01*
X122754000Y-94590000D02*
X117746000Y-94590000D01*
X122844000Y-94550000D02*
X117656000Y-94550000D01*
X122930000Y-94510000D02*
X117570000Y-94510000D01*
X123013000Y-94470000D02*
X117487000Y-94470000D01*
X123093000Y-94430000D02*
X117407000Y-94430000D01*
X123171000Y-94390000D02*
X117329000Y-94390000D01*
X123246000Y-94350000D02*
X117254000Y-94350000D01*
X123319000Y-94310000D02*
X117181000Y-94310000D01*
X123389000Y-94270000D02*
X117111000Y-94270000D01*
X123458000Y-94230000D02*
X117042000Y-94230000D01*
X123524000Y-94190000D02*
X116976000Y-94190000D01*
X123589000Y-94150000D02*
X116911000Y-94150000D01*
X123652000Y-94110000D02*
X116848000Y-94110000D01*
X123713000Y-94070000D02*
X116787000Y-94070000D01*
X123773000Y-94030000D02*
X116727000Y-94030000D01*
X123825000Y-81932918D02*
X123825000Y-83182918D01*
X123832000Y-93990000D02*
X116668000Y-93990000D01*
X123889000Y-93950000D02*
X116611000Y-93950000D01*
X123945000Y-93910000D02*
X116555000Y-93910000D01*
X124000000Y-93870000D02*
X116500000Y-93870000D01*
X124053000Y-93830000D02*
X116447000Y-93830000D01*
X124106000Y-93790000D02*
X116394000Y-93790000D01*
X124157000Y-93750000D02*
X116343000Y-93750000D01*
X124207000Y-93710000D02*
X116293000Y-93710000D01*
X124256000Y-93670000D02*
X116244000Y-93670000D01*
X124304000Y-93630000D02*
X116196000Y-93630000D01*
X124351000Y-93590000D02*
X116149000Y-93590000D01*
X124398000Y-93550000D02*
X116102000Y-93550000D01*
X124443000Y-93510000D02*
X116057000Y-93510000D01*
X124450000Y-82557918D02*
X123200000Y-82557918D01*
X124488000Y-93470000D02*
X116012000Y-93470000D01*
X124531000Y-93430000D02*
X115969000Y-93430000D01*
X124574000Y-93390000D02*
X115926000Y-93390000D01*
X124616000Y-93350000D02*
X115884000Y-93350000D01*
X124658000Y-93310000D02*
X115842000Y-93310000D01*
X124698000Y-93270000D02*
X115802000Y-93270000D01*
X124738000Y-93230000D02*
X115762000Y-93230000D01*
X124778000Y-93190000D02*
X115722000Y-93190000D01*
X124816000Y-93150000D02*
X115684000Y-93150000D01*
X124854000Y-93110000D02*
X115646000Y-93110000D01*
X124891000Y-93070000D02*
X115609000Y-93070000D01*
X124928000Y-93030000D02*
X115572000Y-93030000D01*
X124964000Y-92990000D02*
X115536000Y-92990000D01*
X124999000Y-92950000D02*
X115501000Y-92950000D01*
X125034000Y-92910000D02*
X115466000Y-92910000D01*
X125068000Y-92870000D02*
X115432000Y-92870000D01*
X125102000Y-92830000D02*
X115398000Y-92830000D01*
X125135000Y-92790000D02*
X115365000Y-92790000D01*
X125168000Y-92750000D02*
X115332000Y-92750000D01*
X125200000Y-92710000D02*
X115300000Y-92710000D01*
X125231000Y-92670000D02*
X121690000Y-92670000D01*
X125262000Y-92630000D02*
X121690000Y-92630000D01*
X125292000Y-92590000D02*
X121690000Y-92590000D01*
X125322000Y-92550000D02*
X121690000Y-92550000D01*
X125352000Y-92510000D02*
X121690000Y-92510000D01*
X125381000Y-92470000D02*
X121690000Y-92470000D01*
X125409000Y-92430000D02*
X121690000Y-92430000D01*
X125438000Y-92390000D02*
X121690000Y-92390000D01*
X125465000Y-92350000D02*
X121690000Y-92350000D01*
X125492000Y-92310000D02*
X121690000Y-92310000D01*
X125519000Y-92270000D02*
X121690000Y-92270000D01*
X125545000Y-92230000D02*
X121690000Y-92230000D01*
X125571000Y-92190000D02*
X121690000Y-92190000D01*
X125597000Y-92150000D02*
X121690000Y-92150000D01*
X125622000Y-92110000D02*
X121690000Y-92110000D01*
X125646000Y-92070000D02*
X121690000Y-92070000D01*
X125671000Y-92030000D02*
X121690000Y-92030000D01*
X125694000Y-91990000D02*
X121690000Y-91990000D01*
X125718000Y-91950000D02*
X121690000Y-91950000D01*
X125741000Y-91910000D02*
X121690000Y-91910000D01*
X125764000Y-91870000D02*
X121690000Y-91870000D01*
X125786000Y-91830000D02*
X121690000Y-91830000D01*
X125808000Y-91790000D02*
X121690000Y-91790000D01*
X125829000Y-91750000D02*
X121690000Y-91750000D01*
X125851000Y-91710000D02*
X121690000Y-91710000D01*
X125871000Y-91670000D02*
X121690000Y-91670000D01*
X125892000Y-91630000D02*
X121690000Y-91630000D01*
X125912000Y-91590000D02*
X121690000Y-91590000D01*
X125932000Y-91550000D02*
X121690000Y-91550000D01*
X125951000Y-91510000D02*
X121690000Y-91510000D01*
X125970000Y-91470000D02*
X121690000Y-91470000D01*
X125989000Y-91430000D02*
X121690000Y-91430000D01*
X126007000Y-91390000D02*
X121690000Y-91390000D01*
X126025000Y-91350000D02*
X121690000Y-91350000D01*
X126043000Y-91310000D02*
X121690000Y-91310000D01*
X126060000Y-91270000D02*
X121690000Y-91270000D01*
X126077000Y-91230000D02*
X121690000Y-91230000D01*
X126094000Y-91190000D02*
X121690000Y-91190000D01*
X126111000Y-91150000D02*
X121690000Y-91150000D01*
X126127000Y-91110000D02*
X121690000Y-91110000D01*
X126142000Y-91070000D02*
X121690000Y-91070000D01*
X126158000Y-91030000D02*
X121690000Y-91030000D01*
X126173000Y-90990000D02*
X121690000Y-90990000D01*
X126188000Y-90950000D02*
X121690000Y-90950000D01*
X126203000Y-90910000D02*
X121690000Y-90910000D01*
X126217000Y-90870000D02*
X121690000Y-90870000D01*
X126231000Y-90830000D02*
X121690000Y-90830000D01*
X126245000Y-90790000D02*
X121690000Y-90790000D01*
X126258000Y-90750000D02*
X121690000Y-90750000D01*
X126271000Y-90710000D02*
X121690000Y-90710000D01*
X126284000Y-90670000D02*
X121690000Y-90670000D01*
X126296000Y-90630000D02*
X121690000Y-90630000D01*
X126308000Y-90590000D02*
X121690000Y-90590000D01*
X126320000Y-90550000D02*
X121690000Y-90550000D01*
X126332000Y-90510000D02*
X121690000Y-90510000D01*
X126343000Y-90470000D02*
X121690000Y-90470000D01*
X126354000Y-90430000D02*
X121690000Y-90430000D01*
X126365000Y-90390000D02*
X121690000Y-90390000D01*
X126376000Y-90350000D02*
X121690000Y-90350000D01*
X126386000Y-90310000D02*
X121690000Y-90310000D01*
X126396000Y-90270000D02*
X121690000Y-90270000D01*
X126406000Y-90230000D02*
X121690000Y-90230000D01*
X126415000Y-90190000D02*
X121690000Y-90190000D01*
X126424000Y-90150000D02*
X121690000Y-90150000D01*
X126433000Y-90110000D02*
X121690000Y-90110000D01*
X126442000Y-90070000D02*
X121690000Y-90070000D01*
X126450000Y-90030000D02*
X121690000Y-90030000D01*
X126458000Y-89990000D02*
X121690000Y-89990000D01*
X126466000Y-89950000D02*
X121690000Y-89950000D01*
X126473000Y-89910000D02*
X121690000Y-89910000D01*
X126481000Y-89870000D02*
X121690000Y-89870000D01*
X126488000Y-89830000D02*
X121690000Y-89830000D01*
X126495000Y-89790000D02*
X114005000Y-89790000D01*
X126501000Y-89750000D02*
X113999000Y-89750000D01*
X126507000Y-89710000D02*
X113993000Y-89710000D01*
X126513000Y-89670000D02*
X113987000Y-89670000D01*
X126519000Y-89630000D02*
X113981000Y-89630000D01*
X126524000Y-89590000D02*
X113976000Y-89590000D01*
X126530000Y-89550000D02*
X113970000Y-89550000D01*
X126534000Y-89510000D02*
X113966000Y-89510000D01*
X126539000Y-89470000D02*
X113961000Y-89470000D01*
X126544000Y-89430000D02*
X113956000Y-89430000D01*
X126548000Y-89390000D02*
X113952000Y-89390000D01*
X126552000Y-89350000D02*
X113948000Y-89350000D01*
X126555000Y-89310000D02*
X113945000Y-89310000D01*
X126559000Y-89270000D02*
X113941000Y-89270000D01*
X126562000Y-89230000D02*
X113938000Y-89230000D01*
X126565000Y-89190000D02*
X113935000Y-89190000D01*
X126567000Y-89150000D02*
X113933000Y-89150000D01*
X126570000Y-89110000D02*
X113930000Y-89110000D01*
X126572000Y-89070000D02*
X113928000Y-89070000D01*
X126574000Y-89030000D02*
X113926000Y-89030000D01*
X126575000Y-88990000D02*
X113925000Y-88990000D01*
X126577000Y-88950000D02*
X113923000Y-88950000D01*
X126578000Y-88910000D02*
X113922000Y-88910000D01*
X126579000Y-88830000D02*
X113921000Y-88830000D01*
X126579000Y-88870000D02*
X113921000Y-88870000D01*
X126580000Y-88750000D02*
X113920000Y-88750000D01*
X126580000Y-88790000D02*
X113920000Y-88790000D01*
X126620000Y-88750000D02*
G75*
G02*
X113880000Y-88750000I-6370000J0D01*
G01*
X113880000Y-88750000D02*
G75*
G02*
X126620000Y-88750000I6370000J0D01*
G01*
X97887651Y-45785000D02*
X98687651Y-45785000D01*
X98287651Y-45385000D02*
X98287651Y-46185000D01*
X102297349Y-44020000D02*
X102297349Y-52180000D01*
X102337349Y-44020000D02*
X102337349Y-52180000D01*
X102377349Y-44021000D02*
X102377349Y-52179000D01*
X102417349Y-44022000D02*
X102417349Y-52178000D01*
X102457349Y-44023000D02*
X102457349Y-52177000D01*
X102497349Y-44025000D02*
X102497349Y-52175000D01*
X102537349Y-44027000D02*
X102537349Y-47060000D01*
X102537349Y-49140000D02*
X102537349Y-52173000D01*
X102577349Y-44030000D02*
X102577349Y-47060000D01*
X102577349Y-49140000D02*
X102577349Y-52170000D01*
X102617349Y-44032000D02*
X102617349Y-47060000D01*
X102617349Y-49140000D02*
X102617349Y-52168000D01*
X102657349Y-44036000D02*
X102657349Y-47060000D01*
X102657349Y-49140000D02*
X102657349Y-52164000D01*
X102697349Y-44039000D02*
X102697349Y-47060000D01*
X102697349Y-49140000D02*
X102697349Y-52161000D01*
X102737349Y-44044000D02*
X102737349Y-47060000D01*
X102737349Y-49140000D02*
X102737349Y-52156000D01*
X102777349Y-44048000D02*
X102777349Y-47060000D01*
X102777349Y-49140000D02*
X102777349Y-52152000D01*
X102817349Y-44053000D02*
X102817349Y-47060000D01*
X102817349Y-49140000D02*
X102817349Y-52147000D01*
X102857349Y-44058000D02*
X102857349Y-47060000D01*
X102857349Y-49140000D02*
X102857349Y-52142000D01*
X102897349Y-44064000D02*
X102897349Y-47060000D01*
X102897349Y-49140000D02*
X102897349Y-52136000D01*
X102937349Y-44070000D02*
X102937349Y-47060000D01*
X102937349Y-49140000D02*
X102937349Y-52130000D01*
X102977349Y-44077000D02*
X102977349Y-47060000D01*
X102977349Y-49140000D02*
X102977349Y-52123000D01*
X103017349Y-44083000D02*
X103017349Y-47060000D01*
X103017349Y-49140000D02*
X103017349Y-52117000D01*
X103057349Y-44091000D02*
X103057349Y-47060000D01*
X103057349Y-49140000D02*
X103057349Y-52109000D01*
X103097349Y-44098000D02*
X103097349Y-47060000D01*
X103097349Y-49140000D02*
X103097349Y-52102000D01*
X103137349Y-44107000D02*
X103137349Y-47060000D01*
X103137349Y-49140000D02*
X103137349Y-52093000D01*
X103177349Y-44115000D02*
X103177349Y-47060000D01*
X103177349Y-49140000D02*
X103177349Y-52085000D01*
X103217349Y-44124000D02*
X103217349Y-47060000D01*
X103217349Y-49140000D02*
X103217349Y-52076000D01*
X103257349Y-44133000D02*
X103257349Y-47060000D01*
X103257349Y-49140000D02*
X103257349Y-52067000D01*
X103297349Y-44143000D02*
X103297349Y-47060000D01*
X103297349Y-49140000D02*
X103297349Y-52057000D01*
X103337349Y-44153000D02*
X103337349Y-47060000D01*
X103337349Y-49140000D02*
X103337349Y-52047000D01*
X103377349Y-44164000D02*
X103377349Y-47060000D01*
X103377349Y-49140000D02*
X103377349Y-52036000D01*
X103417349Y-44175000D02*
X103417349Y-47060000D01*
X103417349Y-49140000D02*
X103417349Y-52025000D01*
X103457349Y-44187000D02*
X103457349Y-47060000D01*
X103457349Y-49140000D02*
X103457349Y-52013000D01*
X103497349Y-44199000D02*
X103497349Y-47060000D01*
X103497349Y-49140000D02*
X103497349Y-52001000D01*
X103537349Y-44211000D02*
X103537349Y-47060000D01*
X103537349Y-49140000D02*
X103537349Y-51989000D01*
X103577349Y-44224000D02*
X103577349Y-47060000D01*
X103577349Y-49140000D02*
X103577349Y-51976000D01*
X103617349Y-44237000D02*
X103617349Y-47060000D01*
X103617349Y-49140000D02*
X103617349Y-51963000D01*
X103657349Y-44251000D02*
X103657349Y-47060000D01*
X103657349Y-49140000D02*
X103657349Y-51949000D01*
X103697349Y-44265000D02*
X103697349Y-47060000D01*
X103697349Y-49140000D02*
X103697349Y-51935000D01*
X103737349Y-44280000D02*
X103737349Y-47060000D01*
X103737349Y-49140000D02*
X103737349Y-51920000D01*
X103777349Y-44295000D02*
X103777349Y-47060000D01*
X103777349Y-49140000D02*
X103777349Y-51905000D01*
X103817349Y-44311000D02*
X103817349Y-47060000D01*
X103817349Y-49140000D02*
X103817349Y-51889000D01*
X103857349Y-44327000D02*
X103857349Y-47060000D01*
X103857349Y-49140000D02*
X103857349Y-51873000D01*
X103897349Y-44343000D02*
X103897349Y-47060000D01*
X103897349Y-49140000D02*
X103897349Y-51857000D01*
X103937349Y-44360000D02*
X103937349Y-47060000D01*
X103937349Y-49140000D02*
X103937349Y-51840000D01*
X103977349Y-44378000D02*
X103977349Y-47060000D01*
X103977349Y-49140000D02*
X103977349Y-51822000D01*
X104017349Y-44396000D02*
X104017349Y-47060000D01*
X104017349Y-49140000D02*
X104017349Y-51804000D01*
X104057349Y-44415000D02*
X104057349Y-47060000D01*
X104057349Y-49140000D02*
X104057349Y-51785000D01*
X104097349Y-44434000D02*
X104097349Y-47060000D01*
X104097349Y-49140000D02*
X104097349Y-51766000D01*
X104137349Y-44454000D02*
X104137349Y-47060000D01*
X104137349Y-49140000D02*
X104137349Y-51746000D01*
X104177349Y-44474000D02*
X104177349Y-47060000D01*
X104177349Y-49140000D02*
X104177349Y-51726000D01*
X104217349Y-44495000D02*
X104217349Y-47060000D01*
X104217349Y-49140000D02*
X104217349Y-51705000D01*
X104257349Y-44516000D02*
X104257349Y-47060000D01*
X104257349Y-49140000D02*
X104257349Y-51684000D01*
X104297349Y-44538000D02*
X104297349Y-47060000D01*
X104297349Y-49140000D02*
X104297349Y-51662000D01*
X104337349Y-44561000D02*
X104337349Y-47060000D01*
X104337349Y-49140000D02*
X104337349Y-51639000D01*
X104377349Y-44584000D02*
X104377349Y-47060000D01*
X104377349Y-49140000D02*
X104377349Y-51616000D01*
X104417349Y-44607000D02*
X104417349Y-47060000D01*
X104417349Y-49140000D02*
X104417349Y-51593000D01*
X104457349Y-44632000D02*
X104457349Y-47060000D01*
X104457349Y-49140000D02*
X104457349Y-51568000D01*
X104497349Y-44657000D02*
X104497349Y-47060000D01*
X104497349Y-49140000D02*
X104497349Y-51543000D01*
X104537349Y-44682000D02*
X104537349Y-47060000D01*
X104537349Y-49140000D02*
X104537349Y-51518000D01*
X104577349Y-44708000D02*
X104577349Y-47060000D01*
X104577349Y-49140000D02*
X104577349Y-51492000D01*
X104617349Y-44735000D02*
X104617349Y-51465000D01*
X104657349Y-44763000D02*
X104657349Y-51437000D01*
X104697349Y-44791000D02*
X104697349Y-51409000D01*
X104737349Y-44820000D02*
X104737349Y-51380000D01*
X104777349Y-44850000D02*
X104777349Y-51350000D01*
X104817349Y-44881000D02*
X104817349Y-51319000D01*
X104857349Y-44912000D02*
X104857349Y-51288000D01*
X104897349Y-44944000D02*
X104897349Y-51256000D01*
X104937349Y-44977000D02*
X104937349Y-51223000D01*
X104977349Y-45011000D02*
X104977349Y-51189000D01*
X105017349Y-45045000D02*
X105017349Y-51155000D01*
X105057349Y-45081000D02*
X105057349Y-51119000D01*
X105097349Y-45118000D02*
X105097349Y-51082000D01*
X105137349Y-45155000D02*
X105137349Y-51045000D01*
X105177349Y-45194000D02*
X105177349Y-51006000D01*
X105217349Y-45233000D02*
X105217349Y-50967000D01*
X105257349Y-45274000D02*
X105257349Y-50926000D01*
X105297349Y-45316000D02*
X105297349Y-50884000D01*
X105337349Y-45359000D02*
X105337349Y-50841000D01*
X105377349Y-45404000D02*
X105377349Y-50796000D01*
X105417349Y-45449000D02*
X105417349Y-50751000D01*
X105457349Y-45496000D02*
X105457349Y-50704000D01*
X105497349Y-45545000D02*
X105497349Y-50655000D01*
X105537349Y-45595000D02*
X105537349Y-50605000D01*
X105577349Y-45647000D02*
X105577349Y-50553000D01*
X105617349Y-45700000D02*
X105617349Y-50500000D01*
X105657349Y-45756000D02*
X105657349Y-50444000D01*
X105697349Y-45813000D02*
X105697349Y-50387000D01*
X105737349Y-45873000D02*
X105737349Y-50327000D01*
X105777349Y-45935000D02*
X105777349Y-50265000D01*
X105817349Y-45999000D02*
X105817349Y-50201000D01*
X105857349Y-46066000D02*
X105857349Y-50134000D01*
X105897349Y-46136000D02*
X105897349Y-50064000D01*
X105937349Y-46210000D02*
X105937349Y-49990000D01*
X105977349Y-46287000D02*
X105977349Y-49913000D01*
X106017349Y-46369000D02*
X106017349Y-49831000D01*
X106057349Y-46456000D02*
X106057349Y-49744000D01*
X106097349Y-46548000D02*
X106097349Y-49652000D01*
X106137349Y-46647000D02*
X106137349Y-49553000D01*
X106177349Y-46754000D02*
X106177349Y-49446000D01*
X106217349Y-46872000D02*
X106217349Y-49328000D01*
X106257349Y-47003000D02*
X106257349Y-49197000D01*
X106297349Y-47153000D02*
X106297349Y-49047000D01*
X106337349Y-47332000D02*
X106337349Y-48868000D01*
X106377349Y-47567000D02*
X106377349Y-48633000D01*
X106417349Y-48100000D02*
G75*
G02*
X98177349Y-48100000I-4120000J0D01*
G01*
X98177349Y-48100000D02*
G75*
G02*
X106417349Y-48100000I4120000J0D01*
G01*
X68320000Y-50410000D02*
X76480000Y-50410000D01*
X68320000Y-50450000D02*
X76480000Y-50450000D01*
X68321000Y-50370000D02*
X76479000Y-50370000D01*
X68322000Y-50330000D02*
X76478000Y-50330000D01*
X68323000Y-50290000D02*
X76477000Y-50290000D01*
X68325000Y-50250000D02*
X76475000Y-50250000D01*
X68327000Y-50210000D02*
X71360000Y-50210000D01*
X68330000Y-50170000D02*
X71360000Y-50170000D01*
X68332000Y-50130000D02*
X71360000Y-50130000D01*
X68336000Y-50090000D02*
X71360000Y-50090000D01*
X68339000Y-50050000D02*
X71360000Y-50050000D01*
X68344000Y-50010000D02*
X71360000Y-50010000D01*
X68348000Y-49970000D02*
X71360000Y-49970000D01*
X68353000Y-49930000D02*
X71360000Y-49930000D01*
X68358000Y-49890000D02*
X71360000Y-49890000D01*
X68364000Y-49850000D02*
X71360000Y-49850000D01*
X68370000Y-49810000D02*
X71360000Y-49810000D01*
X68377000Y-49770000D02*
X71360000Y-49770000D01*
X68383000Y-49730000D02*
X71360000Y-49730000D01*
X68391000Y-49690000D02*
X71360000Y-49690000D01*
X68398000Y-49650000D02*
X71360000Y-49650000D01*
X68407000Y-49610000D02*
X71360000Y-49610000D01*
X68415000Y-49570000D02*
X71360000Y-49570000D01*
X68424000Y-49530000D02*
X71360000Y-49530000D01*
X68433000Y-49490000D02*
X71360000Y-49490000D01*
X68443000Y-49450000D02*
X71360000Y-49450000D01*
X68453000Y-49410000D02*
X71360000Y-49410000D01*
X68464000Y-49370000D02*
X71360000Y-49370000D01*
X68475000Y-49330000D02*
X71360000Y-49330000D01*
X68487000Y-49290000D02*
X71360000Y-49290000D01*
X68499000Y-49250000D02*
X71360000Y-49250000D01*
X68511000Y-49210000D02*
X71360000Y-49210000D01*
X68524000Y-49170000D02*
X71360000Y-49170000D01*
X68537000Y-49130000D02*
X71360000Y-49130000D01*
X68551000Y-49090000D02*
X71360000Y-49090000D01*
X68565000Y-49050000D02*
X71360000Y-49050000D01*
X68580000Y-49010000D02*
X71360000Y-49010000D01*
X68595000Y-48970000D02*
X71360000Y-48970000D01*
X68611000Y-48930000D02*
X71360000Y-48930000D01*
X68627000Y-48890000D02*
X71360000Y-48890000D01*
X68643000Y-48850000D02*
X71360000Y-48850000D01*
X68660000Y-48810000D02*
X71360000Y-48810000D01*
X68678000Y-48770000D02*
X71360000Y-48770000D01*
X68696000Y-48730000D02*
X71360000Y-48730000D01*
X68715000Y-48690000D02*
X71360000Y-48690000D01*
X68734000Y-48650000D02*
X71360000Y-48650000D01*
X68754000Y-48610000D02*
X71360000Y-48610000D01*
X68774000Y-48570000D02*
X71360000Y-48570000D01*
X68795000Y-48530000D02*
X71360000Y-48530000D01*
X68816000Y-48490000D02*
X71360000Y-48490000D01*
X68838000Y-48450000D02*
X71360000Y-48450000D01*
X68861000Y-48410000D02*
X71360000Y-48410000D01*
X68884000Y-48370000D02*
X71360000Y-48370000D01*
X68907000Y-48330000D02*
X71360000Y-48330000D01*
X68932000Y-48290000D02*
X71360000Y-48290000D01*
X68957000Y-48250000D02*
X71360000Y-48250000D01*
X68982000Y-48210000D02*
X71360000Y-48210000D01*
X69008000Y-48170000D02*
X71360000Y-48170000D01*
X69035000Y-48130000D02*
X75765000Y-48130000D01*
X69063000Y-48090000D02*
X75737000Y-48090000D01*
X69091000Y-48050000D02*
X75709000Y-48050000D01*
X69120000Y-48010000D02*
X75680000Y-48010000D01*
X69150000Y-47970000D02*
X75650000Y-47970000D01*
X69181000Y-47930000D02*
X75619000Y-47930000D01*
X69212000Y-47890000D02*
X75588000Y-47890000D01*
X69244000Y-47850000D02*
X75556000Y-47850000D01*
X69277000Y-47810000D02*
X75523000Y-47810000D01*
X69311000Y-47770000D02*
X75489000Y-47770000D01*
X69345000Y-47730000D02*
X75455000Y-47730000D01*
X69381000Y-47690000D02*
X75419000Y-47690000D01*
X69418000Y-47650000D02*
X75382000Y-47650000D01*
X69455000Y-47610000D02*
X75345000Y-47610000D01*
X69494000Y-47570000D02*
X75306000Y-47570000D01*
X69533000Y-47530000D02*
X75267000Y-47530000D01*
X69574000Y-47490000D02*
X75226000Y-47490000D01*
X69616000Y-47450000D02*
X75184000Y-47450000D01*
X69659000Y-47410000D02*
X75141000Y-47410000D01*
X69685000Y-54459698D02*
X70485000Y-54459698D01*
X69704000Y-47370000D02*
X75096000Y-47370000D01*
X69749000Y-47330000D02*
X75051000Y-47330000D01*
X69796000Y-47290000D02*
X75004000Y-47290000D01*
X69845000Y-47250000D02*
X74955000Y-47250000D01*
X69895000Y-47210000D02*
X74905000Y-47210000D01*
X69947000Y-47170000D02*
X74853000Y-47170000D01*
X70000000Y-47130000D02*
X74800000Y-47130000D01*
X70056000Y-47090000D02*
X74744000Y-47090000D01*
X70085000Y-54859698D02*
X70085000Y-54059698D01*
X70113000Y-47050000D02*
X74687000Y-47050000D01*
X70173000Y-47010000D02*
X74627000Y-47010000D01*
X70235000Y-46970000D02*
X74565000Y-46970000D01*
X70299000Y-46930000D02*
X74501000Y-46930000D01*
X70366000Y-46890000D02*
X74434000Y-46890000D01*
X70436000Y-46850000D02*
X74364000Y-46850000D01*
X70510000Y-46810000D02*
X74290000Y-46810000D01*
X70587000Y-46770000D02*
X74213000Y-46770000D01*
X70669000Y-46730000D02*
X74131000Y-46730000D01*
X70756000Y-46690000D02*
X74044000Y-46690000D01*
X70848000Y-46650000D02*
X73952000Y-46650000D01*
X70947000Y-46610000D02*
X73853000Y-46610000D01*
X71054000Y-46570000D02*
X73746000Y-46570000D01*
X71172000Y-46530000D02*
X73628000Y-46530000D01*
X71303000Y-46490000D02*
X73497000Y-46490000D01*
X71453000Y-46450000D02*
X73347000Y-46450000D01*
X71632000Y-46410000D02*
X73168000Y-46410000D01*
X71867000Y-46370000D02*
X72933000Y-46370000D01*
X73440000Y-48170000D02*
X75792000Y-48170000D01*
X73440000Y-48210000D02*
X75818000Y-48210000D01*
X73440000Y-48250000D02*
X75843000Y-48250000D01*
X73440000Y-48290000D02*
X75868000Y-48290000D01*
X73440000Y-48330000D02*
X75893000Y-48330000D01*
X73440000Y-48370000D02*
X75916000Y-48370000D01*
X73440000Y-48410000D02*
X75939000Y-48410000D01*
X73440000Y-48450000D02*
X75962000Y-48450000D01*
X73440000Y-48490000D02*
X75984000Y-48490000D01*
X73440000Y-48530000D02*
X76005000Y-48530000D01*
X73440000Y-48570000D02*
X76026000Y-48570000D01*
X73440000Y-48610000D02*
X76046000Y-48610000D01*
X73440000Y-48650000D02*
X76066000Y-48650000D01*
X73440000Y-48690000D02*
X76085000Y-48690000D01*
X73440000Y-48730000D02*
X76104000Y-48730000D01*
X73440000Y-48770000D02*
X76122000Y-48770000D01*
X73440000Y-48810000D02*
X76140000Y-48810000D01*
X73440000Y-48850000D02*
X76157000Y-48850000D01*
X73440000Y-48890000D02*
X76173000Y-48890000D01*
X73440000Y-48930000D02*
X76189000Y-48930000D01*
X73440000Y-48970000D02*
X76205000Y-48970000D01*
X73440000Y-49010000D02*
X76220000Y-49010000D01*
X73440000Y-49050000D02*
X76235000Y-49050000D01*
X73440000Y-49090000D02*
X76249000Y-49090000D01*
X73440000Y-49130000D02*
X76263000Y-49130000D01*
X73440000Y-49170000D02*
X76276000Y-49170000D01*
X73440000Y-49210000D02*
X76289000Y-49210000D01*
X73440000Y-49250000D02*
X76301000Y-49250000D01*
X73440000Y-49290000D02*
X76313000Y-49290000D01*
X73440000Y-49330000D02*
X76325000Y-49330000D01*
X73440000Y-49370000D02*
X76336000Y-49370000D01*
X73440000Y-49410000D02*
X76347000Y-49410000D01*
X73440000Y-49450000D02*
X76357000Y-49450000D01*
X73440000Y-49490000D02*
X76367000Y-49490000D01*
X73440000Y-49530000D02*
X76376000Y-49530000D01*
X73440000Y-49570000D02*
X76385000Y-49570000D01*
X73440000Y-49610000D02*
X76393000Y-49610000D01*
X73440000Y-49650000D02*
X76402000Y-49650000D01*
X73440000Y-49690000D02*
X76409000Y-49690000D01*
X73440000Y-49730000D02*
X76417000Y-49730000D01*
X73440000Y-49770000D02*
X76423000Y-49770000D01*
X73440000Y-49810000D02*
X76430000Y-49810000D01*
X73440000Y-49850000D02*
X76436000Y-49850000D01*
X73440000Y-49890000D02*
X76442000Y-49890000D01*
X73440000Y-49930000D02*
X76447000Y-49930000D01*
X73440000Y-49970000D02*
X76452000Y-49970000D01*
X73440000Y-50010000D02*
X76456000Y-50010000D01*
X73440000Y-50050000D02*
X76461000Y-50050000D01*
X73440000Y-50090000D02*
X76464000Y-50090000D01*
X73440000Y-50130000D02*
X76468000Y-50130000D01*
X73440000Y-50170000D02*
X76470000Y-50170000D01*
X73440000Y-50210000D02*
X76473000Y-50210000D01*
X76520000Y-50450000D02*
G75*
G02*
X68280000Y-50450000I-4120000J0D01*
G01*
X68280000Y-50450000D02*
G75*
G02*
X76520000Y-50450000I4120000J0D01*
G01*
X106517349Y-58500000D02*
G75*
G02*
X98277349Y-58500000I-4120000J0D01*
G01*
X98277349Y-58500000D02*
G75*
G02*
X106517349Y-58500000I4120000J0D01*
G01*
X102637349Y-59540000D02*
X102637349Y-62573000D01*
X102677349Y-59540000D02*
X102677349Y-62570000D01*
X102717349Y-59540000D02*
X102717349Y-62568000D01*
X102757349Y-59540000D02*
X102757349Y-62564000D01*
X102797349Y-59540000D02*
X102797349Y-62561000D01*
X102837349Y-59540000D02*
X102837349Y-62556000D01*
X102877349Y-59540000D02*
X102877349Y-62552000D01*
X102917349Y-59540000D02*
X102917349Y-62547000D01*
X102957349Y-59540000D02*
X102957349Y-62542000D01*
X102997349Y-59540000D02*
X102997349Y-62536000D01*
X103037349Y-59540000D02*
X103037349Y-62530000D01*
X103077349Y-59540000D02*
X103077349Y-62523000D01*
X103117349Y-59540000D02*
X103117349Y-62517000D01*
X103157349Y-59540000D02*
X103157349Y-62509000D01*
X103197349Y-59540000D02*
X103197349Y-62502000D01*
X103237349Y-59540000D02*
X103237349Y-62493000D01*
X103277349Y-59540000D02*
X103277349Y-62485000D01*
X103317349Y-59540000D02*
X103317349Y-62476000D01*
X103357349Y-59540000D02*
X103357349Y-62467000D01*
X103397349Y-59540000D02*
X103397349Y-62457000D01*
X103437349Y-59540000D02*
X103437349Y-62447000D01*
X103477349Y-59540000D02*
X103477349Y-62436000D01*
X103517349Y-59540000D02*
X103517349Y-62425000D01*
X103557349Y-59540000D02*
X103557349Y-62413000D01*
X103597349Y-59540000D02*
X103597349Y-62401000D01*
X103637349Y-59540000D02*
X103637349Y-62389000D01*
X103677349Y-59540000D02*
X103677349Y-62376000D01*
X103717349Y-59540000D02*
X103717349Y-62363000D01*
X103757349Y-59540000D02*
X103757349Y-62349000D01*
X103797349Y-59540000D02*
X103797349Y-62335000D01*
X103837349Y-59540000D02*
X103837349Y-62320000D01*
X103877349Y-59540000D02*
X103877349Y-62305000D01*
X103917349Y-59540000D02*
X103917349Y-62289000D01*
X103957349Y-59540000D02*
X103957349Y-62273000D01*
X103997349Y-59540000D02*
X103997349Y-62257000D01*
X104037349Y-59540000D02*
X104037349Y-62240000D01*
X104077349Y-59540000D02*
X104077349Y-62222000D01*
X104117349Y-59540000D02*
X104117349Y-62204000D01*
X104157349Y-59540000D02*
X104157349Y-62185000D01*
X104197349Y-59540000D02*
X104197349Y-62166000D01*
X104237349Y-59540000D02*
X104237349Y-62146000D01*
X104277349Y-59540000D02*
X104277349Y-62126000D01*
X104317349Y-59540000D02*
X104317349Y-62105000D01*
X104357349Y-59540000D02*
X104357349Y-62084000D01*
X104397349Y-59540000D02*
X104397349Y-62062000D01*
X104437349Y-59540000D02*
X104437349Y-62039000D01*
X104477349Y-59540000D02*
X104477349Y-62016000D01*
X104517349Y-59540000D02*
X104517349Y-61993000D01*
X104557349Y-59540000D02*
X104557349Y-61968000D01*
X104597349Y-59540000D02*
X104597349Y-61943000D01*
X104637349Y-59540000D02*
X104637349Y-61918000D01*
X104677349Y-59540000D02*
X104677349Y-61892000D01*
X106477349Y-57967000D02*
X106477349Y-59033000D01*
X106437349Y-57732000D02*
X106437349Y-59268000D01*
X106397349Y-57553000D02*
X106397349Y-59447000D01*
X106357349Y-57403000D02*
X106357349Y-59597000D01*
X106317349Y-57272000D02*
X106317349Y-59728000D01*
X106277349Y-57154000D02*
X106277349Y-59846000D01*
X106237349Y-57047000D02*
X106237349Y-59953000D01*
X106197349Y-56948000D02*
X106197349Y-60052000D01*
X106157349Y-56856000D02*
X106157349Y-60144000D01*
X106117349Y-56769000D02*
X106117349Y-60231000D01*
X106077349Y-56687000D02*
X106077349Y-60313000D01*
X106037349Y-56610000D02*
X106037349Y-60390000D01*
X105997349Y-56536000D02*
X105997349Y-60464000D01*
X105957349Y-56466000D02*
X105957349Y-60534000D01*
X105917349Y-56399000D02*
X105917349Y-60601000D01*
X105877349Y-56335000D02*
X105877349Y-60665000D01*
X105837349Y-56273000D02*
X105837349Y-60727000D01*
X105797349Y-56213000D02*
X105797349Y-60787000D01*
X97987651Y-56185000D02*
X98787651Y-56185000D01*
X105757349Y-56156000D02*
X105757349Y-60844000D01*
X105717349Y-56100000D02*
X105717349Y-60900000D01*
X105677349Y-56047000D02*
X105677349Y-60953000D01*
X105637349Y-55995000D02*
X105637349Y-61005000D01*
X105597349Y-55945000D02*
X105597349Y-61055000D01*
X105557349Y-55896000D02*
X105557349Y-61104000D01*
X105517349Y-55849000D02*
X105517349Y-61151000D01*
X105477349Y-55804000D02*
X105477349Y-61196000D01*
X98387651Y-55785000D02*
X98387651Y-56585000D01*
X105437349Y-55759000D02*
X105437349Y-61241000D01*
X105397349Y-55716000D02*
X105397349Y-61284000D01*
X105357349Y-55674000D02*
X105357349Y-61326000D01*
X105317349Y-55633000D02*
X105317349Y-61367000D01*
X105277349Y-55594000D02*
X105277349Y-61406000D01*
X105237349Y-55555000D02*
X105237349Y-61445000D01*
X105197349Y-55518000D02*
X105197349Y-61482000D01*
X105157349Y-55481000D02*
X105157349Y-61519000D01*
X105117349Y-55445000D02*
X105117349Y-61555000D01*
X105077349Y-55411000D02*
X105077349Y-61589000D01*
X105037349Y-55377000D02*
X105037349Y-61623000D01*
X104997349Y-55344000D02*
X104997349Y-61656000D01*
X104957349Y-55312000D02*
X104957349Y-61688000D01*
X104917349Y-55281000D02*
X104917349Y-61719000D01*
X104877349Y-55250000D02*
X104877349Y-61750000D01*
X104837349Y-55220000D02*
X104837349Y-61780000D01*
X104797349Y-55191000D02*
X104797349Y-61809000D01*
X104757349Y-55163000D02*
X104757349Y-61837000D01*
X104717349Y-55135000D02*
X104717349Y-61865000D01*
X104677349Y-55108000D02*
X104677349Y-57460000D01*
X104637349Y-55082000D02*
X104637349Y-57460000D01*
X104597349Y-55057000D02*
X104597349Y-57460000D01*
X104557349Y-55032000D02*
X104557349Y-57460000D01*
X104517349Y-55007000D02*
X104517349Y-57460000D01*
X104477349Y-54984000D02*
X104477349Y-57460000D01*
X104437349Y-54961000D02*
X104437349Y-57460000D01*
X104397349Y-54938000D02*
X104397349Y-57460000D01*
X104357349Y-54916000D02*
X104357349Y-57460000D01*
X104317349Y-54895000D02*
X104317349Y-57460000D01*
X104277349Y-54874000D02*
X104277349Y-57460000D01*
X104237349Y-54854000D02*
X104237349Y-57460000D01*
X104197349Y-54834000D02*
X104197349Y-57460000D01*
X104157349Y-54815000D02*
X104157349Y-57460000D01*
X104117349Y-54796000D02*
X104117349Y-57460000D01*
X104077349Y-54778000D02*
X104077349Y-57460000D01*
X104037349Y-54760000D02*
X104037349Y-57460000D01*
X103997349Y-54743000D02*
X103997349Y-57460000D01*
X103957349Y-54727000D02*
X103957349Y-57460000D01*
X103917349Y-54711000D02*
X103917349Y-57460000D01*
X103877349Y-54695000D02*
X103877349Y-57460000D01*
X103837349Y-54680000D02*
X103837349Y-57460000D01*
X103797349Y-54665000D02*
X103797349Y-57460000D01*
X103757349Y-54651000D02*
X103757349Y-57460000D01*
X103717349Y-54637000D02*
X103717349Y-57460000D01*
X103677349Y-54624000D02*
X103677349Y-57460000D01*
X103637349Y-54611000D02*
X103637349Y-57460000D01*
X103597349Y-54599000D02*
X103597349Y-57460000D01*
X103557349Y-54587000D02*
X103557349Y-57460000D01*
X103517349Y-54575000D02*
X103517349Y-57460000D01*
X103477349Y-54564000D02*
X103477349Y-57460000D01*
X103437349Y-54553000D02*
X103437349Y-57460000D01*
X103397349Y-54543000D02*
X103397349Y-57460000D01*
X103357349Y-54533000D02*
X103357349Y-57460000D01*
X103317349Y-54524000D02*
X103317349Y-57460000D01*
X103277349Y-54515000D02*
X103277349Y-57460000D01*
X103237349Y-54507000D02*
X103237349Y-57460000D01*
X103197349Y-54498000D02*
X103197349Y-57460000D01*
X103157349Y-54491000D02*
X103157349Y-57460000D01*
X103117349Y-54483000D02*
X103117349Y-57460000D01*
X103077349Y-54477000D02*
X103077349Y-57460000D01*
X103037349Y-54470000D02*
X103037349Y-57460000D01*
X102997349Y-54464000D02*
X102997349Y-57460000D01*
X102957349Y-54458000D02*
X102957349Y-57460000D01*
X102917349Y-54453000D02*
X102917349Y-57460000D01*
X102877349Y-54448000D02*
X102877349Y-57460000D01*
X102837349Y-54444000D02*
X102837349Y-57460000D01*
X102797349Y-54439000D02*
X102797349Y-57460000D01*
X102757349Y-54436000D02*
X102757349Y-57460000D01*
X102717349Y-54432000D02*
X102717349Y-57460000D01*
X102677349Y-54430000D02*
X102677349Y-57460000D01*
X102637349Y-54427000D02*
X102637349Y-57460000D01*
X102597349Y-54425000D02*
X102597349Y-62575000D01*
X102557349Y-54423000D02*
X102557349Y-62577000D01*
X102517349Y-54422000D02*
X102517349Y-62578000D01*
X102477349Y-54421000D02*
X102477349Y-62579000D01*
X102397349Y-54420000D02*
X102397349Y-62580000D01*
X102437349Y-54420000D02*
X102437349Y-62580000D01*
X55964000Y-89565000D02*
X56120000Y-89565000D01*
X58280000Y-89565000D02*
X58436000Y-89565000D01*
X55964484Y-89565000D02*
G75*
G02*
X56120000Y-86333563I1235516J1560000D01*
G01*
X56120000Y-89045961D02*
G75*
G02*
X56120000Y-86964039I1080000J1040961D01*
G01*
X58280000Y-86333563D02*
G75*
G02*
X58435516Y-89565000I-1080000J-1671437D01*
G01*
X58280000Y-86964039D02*
G75*
G02*
X58280000Y-89045961I-1080000J-1040961D01*
G01*
X48620000Y-39100000D02*
X49530000Y-39100000D01*
X57605000Y-41820000D02*
X57605000Y-36380000D01*
X57725000Y-41820000D02*
X57725000Y-36380000D01*
X57845000Y-41820000D02*
X57845000Y-36380000D01*
X60180000Y-39100000D02*
X59270000Y-39100000D01*
X59270000Y-41820000D02*
X49530000Y-41820000D01*
X49530000Y-36380000D01*
X59270000Y-36380000D01*
X59270000Y-41820000D01*
X119960000Y-54780000D02*
X128200000Y-54780000D01*
X119960000Y-61188000D02*
X119960000Y-54780000D01*
X119960000Y-71020000D02*
X119960000Y-64612000D01*
X128200000Y-54780000D02*
X128200000Y-61188000D01*
X128200000Y-64612000D02*
X128200000Y-71020000D01*
X128200000Y-71020000D02*
X119960000Y-71020000D01*
X93050000Y-49740000D02*
X93050000Y-46140000D01*
X88600000Y-47940000D02*
G75*
G02*
X90101193Y-45583600I2600000J0D01*
G01*
X90101193Y-50296400D02*
G75*
G02*
X88600000Y-47940000I1098807J2356400D01*
G01*
X92322795Y-45615816D02*
G75*
G02*
X93050000Y-46140000I-1122795J-2324184D01*
G01*
X93050000Y-49740000D02*
G75*
G02*
X92322795Y-50264184I-1850000J1800000D01*
G01*
X105490000Y-39500000D02*
X105490000Y-43100000D01*
X105490000Y-39500000D02*
G75*
G02*
X106217205Y-38975816I1850000J-1800000D01*
G01*
X106217205Y-43624184D02*
G75*
G02*
X105490000Y-43100000I1122795J2324184D01*
G01*
X108438807Y-38943600D02*
G75*
G02*
X109940000Y-41300000I-1098807J-2356400D01*
G01*
X109940000Y-41300000D02*
G75*
G02*
X108438807Y-43656400I-2600000J0D01*
G01*
X110250000Y-39500000D02*
X110250000Y-43100000D01*
X110250000Y-39500000D02*
G75*
G02*
X110977205Y-38975816I1850000J-1800000D01*
G01*
X110977205Y-43624184D02*
G75*
G02*
X110250000Y-43100000I1122795J2324184D01*
G01*
X113198807Y-38943600D02*
G75*
G02*
X114700000Y-41300000I-1098807J-2356400D01*
G01*
X114700000Y-41300000D02*
G75*
G02*
X113198807Y-43656400I-2600000J0D01*
G01*
X75690000Y-81000000D02*
X76380000Y-81000000D01*
X86310000Y-81000000D02*
X85620000Y-81000000D01*
X76380000Y-79280000D02*
X85620000Y-79280000D01*
X85620000Y-82720000D01*
X76380000Y-82720000D01*
X76380000Y-79280000D01*
X67080000Y-69340000D02*
X67080000Y-70030000D01*
X67080000Y-79960000D02*
X67080000Y-79270000D01*
X65360000Y-79270000D02*
X68800000Y-79270000D01*
X68800000Y-70030000D01*
X65360000Y-70030000D01*
X65360000Y-79270000D01*
X71460000Y-69310000D02*
X71460000Y-70000000D01*
X71460000Y-79930000D02*
X71460000Y-79240000D01*
X73180000Y-70000000D02*
X69740000Y-70000000D01*
X69740000Y-79240000D01*
X73180000Y-79240000D01*
X73180000Y-70000000D01*
X47000000Y-46440000D02*
X47000000Y-47130000D01*
X47000000Y-57060000D02*
X47000000Y-56370000D01*
X48720000Y-47130000D02*
X45280000Y-47130000D01*
X45280000Y-56370000D01*
X48720000Y-56370000D01*
X48720000Y-47130000D01*
X57200000Y-69340000D02*
X57200000Y-70030000D01*
X57200000Y-79960000D02*
X57200000Y-79270000D01*
X55480000Y-79270000D02*
X58920000Y-79270000D01*
X58920000Y-70030000D01*
X55480000Y-70030000D01*
X55480000Y-79270000D01*
X56690000Y-60800000D02*
X57380000Y-60800000D01*
X67310000Y-60800000D02*
X66620000Y-60800000D01*
X57380000Y-59080000D02*
X66620000Y-59080000D01*
X66620000Y-62520000D01*
X57380000Y-62520000D01*
X57380000Y-59080000D01*
X79590000Y-37600000D02*
X80280000Y-37600000D01*
X90210000Y-37600000D02*
X89520000Y-37600000D01*
X80280000Y-35880000D02*
X89520000Y-35880000D01*
X89520000Y-39320000D01*
X80280000Y-39320000D01*
X80280000Y-35880000D01*
X92290000Y-41300000D02*
X92980000Y-41300000D01*
X102910000Y-41300000D02*
X102220000Y-41300000D01*
X102220000Y-43020000D02*
X92980000Y-43020000D01*
X92980000Y-39580000D01*
X102220000Y-39580000D01*
X102220000Y-43020000D01*
X79910000Y-64500000D02*
X79220000Y-64500000D01*
X69290000Y-64500000D02*
X69980000Y-64500000D01*
X69980000Y-62780000D02*
X79220000Y-62780000D01*
X79220000Y-66220000D01*
X69980000Y-66220000D01*
X69980000Y-62780000D01*
X80020000Y-51690000D02*
X80020000Y-61970000D01*
X80020000Y-61970000D02*
X84520000Y-61970000D01*
X81270000Y-51690000D02*
X80020000Y-51690000D01*
X84520000Y-51690000D02*
X83270000Y-51690000D01*
X84520000Y-61970000D02*
X84520000Y-51690000D01*
X83270000Y-51690000D02*
G75*
G02*
X81270000Y-51690000I-1000000J0D01*
G01*
X47000000Y-61890000D02*
X47000000Y-62580000D01*
X47000000Y-72510000D02*
X47000000Y-71820000D01*
X48720000Y-62580000D02*
X45280000Y-62580000D01*
X45280000Y-71820000D01*
X48720000Y-71820000D01*
X48720000Y-62580000D01*
X56850000Y-53140000D02*
X67070000Y-53140000D01*
X56850000Y-54520000D02*
X67070000Y-54520000D01*
X56850000Y-57760000D02*
X56850000Y-53140000D01*
X60110000Y-53140000D02*
X60110000Y-54520000D01*
X63810000Y-53140000D02*
X63810000Y-54520000D01*
X67070000Y-53140000D02*
X67070000Y-57760000D01*
X67070000Y-57760000D02*
X56850000Y-57760000D01*
X80060000Y-66950000D02*
X80060000Y-77230000D01*
X80060000Y-77230000D02*
X84560000Y-77230000D01*
X81310000Y-66950000D02*
X80060000Y-66950000D01*
X84560000Y-66950000D02*
X83310000Y-66950000D01*
X84560000Y-77230000D02*
X84560000Y-66950000D01*
X83310000Y-66950000D02*
G75*
G02*
X81310000Y-66950000I-1000000J0D01*
G01*
X91740000Y-83064000D02*
X91740000Y-83220000D01*
X91740000Y-85380000D02*
X91740000Y-85536000D01*
X91740000Y-83064484D02*
G75*
G02*
X94971437Y-83220000I1560000J-1235516D01*
G01*
X92259039Y-83220000D02*
G75*
G02*
X94340961Y-83220000I1040961J-1080000D01*
G01*
X94340961Y-85380000D02*
G75*
G02*
X92259039Y-85380000I-1040961J1080000D01*
G01*
X94971437Y-85380000D02*
G75*
G02*
X91740000Y-85535516I-1671437J1080000D01*
G01*
X123530000Y-47465000D02*
X128970000Y-47465000D01*
X123530000Y-47585000D02*
X128970000Y-47585000D01*
X123530000Y-47705000D02*
X128970000Y-47705000D01*
X126250000Y-38480000D02*
X126250000Y-39390000D01*
X126250000Y-50040000D02*
X126250000Y-49130000D01*
X123530000Y-49130000D02*
X128970000Y-49130000D01*
X128970000Y-39390000D01*
X123530000Y-39390000D01*
X123530000Y-49130000D01*
X91740000Y-90380000D02*
X91740000Y-90536000D01*
X91740000Y-88064000D02*
X91740000Y-88220000D01*
X94971437Y-90380000D02*
G75*
G02*
X91740000Y-90535516I-1671437J1080000D01*
G01*
X94340961Y-90380000D02*
G75*
G02*
X92259039Y-90380000I-1040961J1080000D01*
G01*
X92259039Y-88220000D02*
G75*
G02*
X94340961Y-88220000I1040961J-1080000D01*
G01*
X91740000Y-88064484D02*
G75*
G02*
X94971437Y-88220000I1560000J-1235516D01*
G01*
X75690000Y-86700000D02*
X76380000Y-86700000D01*
X86310000Y-86700000D02*
X85620000Y-86700000D01*
X85620000Y-88420000D02*
X76380000Y-88420000D01*
X76380000Y-84980000D01*
X85620000Y-84980000D01*
X85620000Y-88420000D01*
X110500000Y-72715000D02*
X110500000Y-73625000D01*
X110500000Y-84275000D02*
X110500000Y-83365000D01*
X113220000Y-75050000D02*
X107780000Y-75050000D01*
X113220000Y-75170000D02*
X107780000Y-75170000D01*
X113220000Y-75290000D02*
X107780000Y-75290000D01*
X113220000Y-73625000D02*
X107780000Y-73625000D01*
X107780000Y-83365000D01*
X113220000Y-83365000D01*
X113220000Y-73625000D01*
X104500000Y-72715000D02*
X104500000Y-73625000D01*
X104500000Y-84275000D02*
X104500000Y-83365000D01*
X107220000Y-75050000D02*
X101780000Y-75050000D01*
X107220000Y-75170000D02*
X101780000Y-75170000D01*
X107220000Y-75290000D02*
X101780000Y-75290000D01*
X107220000Y-73625000D02*
X101780000Y-73625000D01*
X101780000Y-83365000D01*
X107220000Y-83365000D01*
X107220000Y-73625000D01*
X90700000Y-69290000D02*
X90700000Y-69980000D01*
X90700000Y-79910000D02*
X90700000Y-79220000D01*
X88980000Y-79220000D02*
X92420000Y-79220000D01*
X92420000Y-69980000D01*
X88980000Y-69980000D01*
X88980000Y-79220000D01*
X117530000Y-47460000D02*
X122970000Y-47460000D01*
X117530000Y-47580000D02*
X122970000Y-47580000D01*
X117530000Y-47700000D02*
X122970000Y-47700000D01*
X120250000Y-38475000D02*
X120250000Y-39385000D01*
X120250000Y-50035000D02*
X120250000Y-49125000D01*
X117530000Y-49125000D02*
X122970000Y-49125000D01*
X122970000Y-39385000D01*
X117530000Y-39385000D01*
X117530000Y-49125000D01*
X48620000Y-33300000D02*
X49530000Y-33300000D01*
X57605000Y-36020000D02*
X57605000Y-30580000D01*
X57725000Y-36020000D02*
X57725000Y-30580000D01*
X57845000Y-36020000D02*
X57845000Y-30580000D01*
X60180000Y-33300000D02*
X59270000Y-33300000D01*
X59270000Y-36020000D02*
X49530000Y-36020000D01*
X49530000Y-30580000D01*
X59270000Y-30580000D01*
X59270000Y-36020000D01*
D10*
X37260000Y-45890000D02*
X37260000Y-56050000D01*
X37260000Y-45890000D02*
X44880000Y-45890000D01*
X37260000Y-56050000D02*
X44880000Y-56050000D01*
X44880000Y-56050000D02*
X44880000Y-45890000D01*
X123120000Y-71480000D02*
X123120000Y-81640000D01*
X130740000Y-71480000D02*
X123120000Y-71480000D01*
X130740000Y-81640000D02*
X123120000Y-81640000D01*
X130740000Y-81640000D02*
X130740000Y-71480000D01*
D11*
X78530000Y-45680000D02*
X86270000Y-45680000D01*
X78530000Y-50320000D02*
X78530000Y-45680000D01*
X86270000Y-45680000D02*
X86270000Y-50320000D01*
X86270000Y-50320000D02*
X78530000Y-50320000D01*
X42226000Y-40950000D02*
G75*
G02*
X37654000Y-40950000I-2286000J0D01*
G01*
X37654000Y-40950000D02*
G75*
G02*
X42226000Y-40950000I2286000J0D01*
G01*
X41986000Y-64900000D02*
G75*
G02*
X37414000Y-64900000I-2286000J0D01*
G01*
X37414000Y-64900000D02*
G75*
G02*
X41986000Y-64900000I2286000J0D01*
G01*
X132186000Y-87600000D02*
G75*
G02*
X127614000Y-87600000I-2286000J0D01*
G01*
X127614000Y-87600000D02*
G75*
G02*
X132186000Y-87600000I2286000J0D01*
G01*
X122536000Y-78000000D02*
G75*
G02*
X117964000Y-78000000I-2286000J0D01*
G01*
X117964000Y-78000000D02*
G75*
G02*
X122536000Y-78000000I2286000J0D01*
G01*
X94600000Y-69290000D02*
X94600000Y-69980000D01*
X94600000Y-79910000D02*
X94600000Y-79220000D01*
X96320000Y-69980000D02*
X92880000Y-69980000D01*
X92880000Y-79220000D01*
X96320000Y-79220000D01*
X96320000Y-69980000D01*
X84780000Y-62780000D02*
X94020000Y-62780000D01*
X94020000Y-66220000D01*
X84780000Y-66220000D01*
X84780000Y-62780000D01*
X94710000Y-64500000D02*
X94020000Y-64500000D01*
X84090000Y-64500000D02*
X84780000Y-64500000D01*
X95700000Y-48940000D02*
X95700000Y-49630000D01*
X95700000Y-59560000D02*
X95700000Y-58870000D01*
X97420000Y-49630000D02*
X93980000Y-49630000D01*
X93980000Y-58870000D01*
X97420000Y-58870000D01*
X97420000Y-49630000D01*
X62640000Y-69320000D02*
X62640000Y-70010000D01*
X62640000Y-79940000D02*
X62640000Y-79250000D01*
X64360000Y-70010000D02*
X60920000Y-70010000D01*
X60920000Y-79250000D01*
X64360000Y-79250000D01*
X64360000Y-70010000D01*
X68960000Y-36956041D02*
X64162000Y-36956041D01*
X68960000Y-36996041D02*
X64169000Y-36996041D01*
X68960000Y-37036041D02*
X64177000Y-37036041D01*
X68960000Y-37076041D02*
X64184000Y-37076041D01*
X68960000Y-37116041D02*
X64192000Y-37116041D01*
X68960000Y-37156041D02*
X64200000Y-37156041D01*
X68960000Y-37196041D02*
X64208000Y-37196041D01*
X68960000Y-37236041D02*
X64217000Y-37236041D01*
X68960000Y-37276041D02*
X64226000Y-37276041D01*
X68960000Y-37316041D02*
X64235000Y-37316041D01*
X68960000Y-37356041D02*
X64244000Y-37356041D01*
X68960000Y-37396041D02*
X64254000Y-37396041D01*
X68960000Y-37436041D02*
X64264000Y-37436041D01*
X68960000Y-37476041D02*
X64274000Y-37476041D01*
X68960000Y-37516041D02*
X64285000Y-37516041D01*
X68960000Y-37556041D02*
X64296000Y-37556041D01*
X68960000Y-37596041D02*
X64307000Y-37596041D01*
X68960000Y-37636041D02*
X64318000Y-37636041D01*
X68960000Y-37676041D02*
X64330000Y-37676041D01*
X68960000Y-37716041D02*
X64342000Y-37716041D01*
X68960000Y-37756041D02*
X64354000Y-37756041D01*
X68960000Y-37796041D02*
X64366000Y-37796041D01*
X68960000Y-37836041D02*
X64379000Y-37836041D01*
X68960000Y-37876041D02*
X64392000Y-37876041D01*
X68960000Y-37916041D02*
X64405000Y-37916041D01*
X68960000Y-37956041D02*
X64419000Y-37956041D01*
X68960000Y-37996041D02*
X64433000Y-37996041D01*
X68960000Y-38036041D02*
X64447000Y-38036041D01*
X68960000Y-38076041D02*
X64462000Y-38076041D01*
X68960000Y-38116041D02*
X64477000Y-38116041D01*
X68960000Y-38156041D02*
X64492000Y-38156041D01*
X68960000Y-38196041D02*
X64508000Y-38196041D01*
X68960000Y-38236041D02*
X64523000Y-38236041D01*
X68960000Y-38276041D02*
X64539000Y-38276041D01*
X68960000Y-38316041D02*
X64556000Y-38316041D01*
X68960000Y-38356041D02*
X64573000Y-38356041D01*
X68960000Y-38396041D02*
X64590000Y-38396041D01*
X68960000Y-38436041D02*
X64607000Y-38436041D01*
X68960000Y-38476041D02*
X64625000Y-38476041D01*
X68960000Y-38516041D02*
X64643000Y-38516041D01*
X68960000Y-38556041D02*
X64661000Y-38556041D01*
X68960000Y-38596041D02*
X64680000Y-38596041D01*
X68960000Y-38636041D02*
X64699000Y-38636041D01*
X68960000Y-38676041D02*
X64718000Y-38676041D01*
X68960000Y-38716041D02*
X64738000Y-38716041D01*
X68960000Y-38756041D02*
X64758000Y-38756041D01*
X68960000Y-38796041D02*
X64779000Y-38796041D01*
X68960000Y-38836041D02*
X64799000Y-38836041D01*
X68960000Y-38876041D02*
X64821000Y-38876041D01*
X68960000Y-38916041D02*
X64842000Y-38916041D01*
X68960000Y-38956041D02*
X64864000Y-38956041D01*
X68960000Y-38996041D02*
X64886000Y-38996041D01*
X68960000Y-39036041D02*
X64909000Y-39036041D01*
X68960000Y-39076041D02*
X64932000Y-39076041D01*
X68960000Y-39116041D02*
X64956000Y-39116041D01*
X68960000Y-39156041D02*
X64979000Y-39156041D01*
X68960000Y-39196041D02*
X65004000Y-39196041D01*
X68960000Y-39236041D02*
X65028000Y-39236041D01*
X68960000Y-39276041D02*
X65053000Y-39276041D01*
X68960000Y-39316041D02*
X65079000Y-39316041D01*
X68960000Y-39356041D02*
X65105000Y-39356041D01*
X68960000Y-39396041D02*
X65131000Y-39396041D01*
X68960000Y-39436041D02*
X65158000Y-39436041D01*
X68960000Y-39476041D02*
X65185000Y-39476041D01*
X68960000Y-39516041D02*
X65212000Y-39516041D01*
X68960000Y-39556041D02*
X65241000Y-39556041D01*
X68960000Y-39596041D02*
X65269000Y-39596041D01*
X68960000Y-39636041D02*
X65298000Y-39636041D01*
X68960000Y-39676041D02*
X65328000Y-39676041D01*
X68960000Y-39716041D02*
X65358000Y-39716041D01*
X68960000Y-39756041D02*
X65388000Y-39756041D01*
X68960000Y-39796041D02*
X65419000Y-39796041D01*
X70717000Y-42236041D02*
X70083000Y-42236041D01*
X71157000Y-42196041D02*
X69643000Y-42196041D01*
X71427000Y-42156041D02*
X69373000Y-42156041D01*
X71640000Y-42116041D02*
X69160000Y-42116041D01*
X71822000Y-42076041D02*
X68978000Y-42076041D01*
X71982000Y-42036041D02*
X68818000Y-42036041D01*
X72127000Y-41996041D02*
X68673000Y-41996041D01*
X72260000Y-41956041D02*
X68540000Y-41956041D01*
X72384000Y-41916041D02*
X68416000Y-41916041D01*
X72499000Y-41876041D02*
X68301000Y-41876041D01*
X72608000Y-41836041D02*
X68192000Y-41836041D01*
X72712000Y-41796041D02*
X68088000Y-41796041D01*
X72810000Y-41756041D02*
X67990000Y-41756041D01*
X72904000Y-41716041D02*
X67896000Y-41716041D01*
X72994000Y-41676041D02*
X67806000Y-41676041D01*
X73080000Y-41636041D02*
X67720000Y-41636041D01*
X73163000Y-41596041D02*
X67637000Y-41596041D01*
X73243000Y-41556041D02*
X67557000Y-41556041D01*
X73321000Y-41516041D02*
X67479000Y-41516041D01*
X73396000Y-41476041D02*
X67404000Y-41476041D01*
X73469000Y-41436041D02*
X67331000Y-41436041D01*
X73539000Y-41396041D02*
X67261000Y-41396041D01*
X73608000Y-41356041D02*
X67192000Y-41356041D01*
X73674000Y-41316041D02*
X67126000Y-41316041D01*
X73739000Y-41276041D02*
X67061000Y-41276041D01*
X73802000Y-41236041D02*
X66998000Y-41236041D01*
X73863000Y-41196041D02*
X66937000Y-41196041D01*
X73923000Y-41156041D02*
X66877000Y-41156041D01*
X73975000Y-29058959D02*
X73975000Y-30308959D01*
X73982000Y-41116041D02*
X66818000Y-41116041D01*
X74039000Y-41076041D02*
X66761000Y-41076041D01*
X74095000Y-41036041D02*
X66705000Y-41036041D01*
X74150000Y-40996041D02*
X66650000Y-40996041D01*
X74203000Y-40956041D02*
X66597000Y-40956041D01*
X74256000Y-40916041D02*
X66544000Y-40916041D01*
X74307000Y-40876041D02*
X66493000Y-40876041D01*
X74357000Y-40836041D02*
X66443000Y-40836041D01*
X74406000Y-40796041D02*
X66394000Y-40796041D01*
X74454000Y-40756041D02*
X66346000Y-40756041D01*
X74501000Y-40716041D02*
X66299000Y-40716041D01*
X74548000Y-40676041D02*
X66252000Y-40676041D01*
X74593000Y-40636041D02*
X66207000Y-40636041D01*
X74600000Y-29683959D02*
X73350000Y-29683959D01*
X74638000Y-40596041D02*
X66162000Y-40596041D01*
X74681000Y-40556041D02*
X66119000Y-40556041D01*
X74724000Y-40516041D02*
X66076000Y-40516041D01*
X74766000Y-40476041D02*
X66034000Y-40476041D01*
X74808000Y-40436041D02*
X65992000Y-40436041D01*
X74848000Y-40396041D02*
X65952000Y-40396041D01*
X74888000Y-40356041D02*
X65912000Y-40356041D01*
X74928000Y-40316041D02*
X65872000Y-40316041D01*
X74966000Y-40276041D02*
X65834000Y-40276041D01*
X75004000Y-40236041D02*
X65796000Y-40236041D01*
X75041000Y-40196041D02*
X65759000Y-40196041D01*
X75078000Y-40156041D02*
X65722000Y-40156041D01*
X75114000Y-40116041D02*
X65686000Y-40116041D01*
X75149000Y-40076041D02*
X65651000Y-40076041D01*
X75184000Y-40036041D02*
X65616000Y-40036041D01*
X75218000Y-39996041D02*
X65582000Y-39996041D01*
X75252000Y-39956041D02*
X65548000Y-39956041D01*
X75285000Y-39916041D02*
X65515000Y-39916041D01*
X75318000Y-39876041D02*
X65482000Y-39876041D01*
X75350000Y-39836041D02*
X65450000Y-39836041D01*
X75381000Y-39796041D02*
X71840000Y-39796041D01*
X75412000Y-39756041D02*
X71840000Y-39756041D01*
X75442000Y-39716041D02*
X71840000Y-39716041D01*
X75472000Y-39676041D02*
X71840000Y-39676041D01*
X75502000Y-39636041D02*
X71840000Y-39636041D01*
X75531000Y-39596041D02*
X71840000Y-39596041D01*
X75559000Y-39556041D02*
X71840000Y-39556041D01*
X75588000Y-39516041D02*
X71840000Y-39516041D01*
X75615000Y-39476041D02*
X71840000Y-39476041D01*
X75642000Y-39436041D02*
X71840000Y-39436041D01*
X75669000Y-39396041D02*
X71840000Y-39396041D01*
X75695000Y-39356041D02*
X71840000Y-39356041D01*
X75721000Y-39316041D02*
X71840000Y-39316041D01*
X75747000Y-39276041D02*
X71840000Y-39276041D01*
X75772000Y-39236041D02*
X71840000Y-39236041D01*
X75796000Y-39196041D02*
X71840000Y-39196041D01*
X75821000Y-39156041D02*
X71840000Y-39156041D01*
X75844000Y-39116041D02*
X71840000Y-39116041D01*
X75868000Y-39076041D02*
X71840000Y-39076041D01*
X75891000Y-39036041D02*
X71840000Y-39036041D01*
X75914000Y-38996041D02*
X71840000Y-38996041D01*
X75936000Y-38956041D02*
X71840000Y-38956041D01*
X75958000Y-38916041D02*
X71840000Y-38916041D01*
X75979000Y-38876041D02*
X71840000Y-38876041D01*
X76001000Y-38836041D02*
X71840000Y-38836041D01*
X76021000Y-38796041D02*
X71840000Y-38796041D01*
X76042000Y-38756041D02*
X71840000Y-38756041D01*
X76062000Y-38716041D02*
X71840000Y-38716041D01*
X76082000Y-38676041D02*
X71840000Y-38676041D01*
X76101000Y-38636041D02*
X71840000Y-38636041D01*
X76120000Y-38596041D02*
X71840000Y-38596041D01*
X76139000Y-38556041D02*
X71840000Y-38556041D01*
X76157000Y-38516041D02*
X71840000Y-38516041D01*
X76175000Y-38476041D02*
X71840000Y-38476041D01*
X76193000Y-38436041D02*
X71840000Y-38436041D01*
X76210000Y-38396041D02*
X71840000Y-38396041D01*
X76227000Y-38356041D02*
X71840000Y-38356041D01*
X76244000Y-38316041D02*
X71840000Y-38316041D01*
X76261000Y-38276041D02*
X71840000Y-38276041D01*
X76277000Y-38236041D02*
X71840000Y-38236041D01*
X76292000Y-38196041D02*
X71840000Y-38196041D01*
X76308000Y-38156041D02*
X71840000Y-38156041D01*
X76323000Y-38116041D02*
X71840000Y-38116041D01*
X76338000Y-38076041D02*
X71840000Y-38076041D01*
X76353000Y-38036041D02*
X71840000Y-38036041D01*
X76367000Y-37996041D02*
X71840000Y-37996041D01*
X76381000Y-37956041D02*
X71840000Y-37956041D01*
X76395000Y-37916041D02*
X71840000Y-37916041D01*
X76408000Y-37876041D02*
X71840000Y-37876041D01*
X76421000Y-37836041D02*
X71840000Y-37836041D01*
X76434000Y-37796041D02*
X71840000Y-37796041D01*
X76446000Y-37756041D02*
X71840000Y-37756041D01*
X76458000Y-37716041D02*
X71840000Y-37716041D01*
X76470000Y-37676041D02*
X71840000Y-37676041D01*
X76482000Y-37636041D02*
X71840000Y-37636041D01*
X76493000Y-37596041D02*
X71840000Y-37596041D01*
X76504000Y-37556041D02*
X71840000Y-37556041D01*
X76515000Y-37516041D02*
X71840000Y-37516041D01*
X76526000Y-37476041D02*
X71840000Y-37476041D01*
X76536000Y-37436041D02*
X71840000Y-37436041D01*
X76546000Y-37396041D02*
X71840000Y-37396041D01*
X76556000Y-37356041D02*
X71840000Y-37356041D01*
X76565000Y-37316041D02*
X71840000Y-37316041D01*
X76574000Y-37276041D02*
X71840000Y-37276041D01*
X76583000Y-37236041D02*
X71840000Y-37236041D01*
X76592000Y-37196041D02*
X71840000Y-37196041D01*
X76600000Y-37156041D02*
X71840000Y-37156041D01*
X76608000Y-37116041D02*
X71840000Y-37116041D01*
X76616000Y-37076041D02*
X71840000Y-37076041D01*
X76623000Y-37036041D02*
X71840000Y-37036041D01*
X76631000Y-36996041D02*
X71840000Y-36996041D01*
X76638000Y-36956041D02*
X71840000Y-36956041D01*
X76645000Y-36916041D02*
X64155000Y-36916041D01*
X76651000Y-36876041D02*
X64149000Y-36876041D01*
X76657000Y-36836041D02*
X64143000Y-36836041D01*
X76663000Y-36796041D02*
X64137000Y-36796041D01*
X76669000Y-36756041D02*
X64131000Y-36756041D01*
X76674000Y-36716041D02*
X64126000Y-36716041D01*
X76680000Y-36676041D02*
X64120000Y-36676041D01*
X76684000Y-36636041D02*
X64116000Y-36636041D01*
X76689000Y-36596041D02*
X64111000Y-36596041D01*
X76694000Y-36556041D02*
X64106000Y-36556041D01*
X76698000Y-36516041D02*
X64102000Y-36516041D01*
X76702000Y-36476041D02*
X64098000Y-36476041D01*
X76705000Y-36436041D02*
X64095000Y-36436041D01*
X76709000Y-36396041D02*
X64091000Y-36396041D01*
X76712000Y-36356041D02*
X64088000Y-36356041D01*
X76715000Y-36316041D02*
X64085000Y-36316041D01*
X76717000Y-36276041D02*
X64083000Y-36276041D01*
X76720000Y-36236041D02*
X64080000Y-36236041D01*
X76722000Y-36196041D02*
X64078000Y-36196041D01*
X76724000Y-36156041D02*
X64076000Y-36156041D01*
X76725000Y-36116041D02*
X64075000Y-36116041D01*
X76727000Y-36076041D02*
X64073000Y-36076041D01*
X76728000Y-36036041D02*
X64072000Y-36036041D01*
X76729000Y-35956041D02*
X64071000Y-35956041D01*
X76729000Y-35996041D02*
X64071000Y-35996041D01*
X76730000Y-35876041D02*
X64070000Y-35876041D01*
X76730000Y-35916041D02*
X64070000Y-35916041D01*
X76770000Y-35876041D02*
G75*
G02*
X64030000Y-35876041I-6370000J0D01*
G01*
X64030000Y-35876041D02*
G75*
G02*
X76770000Y-35876041I6370000J0D01*
G01*
X120928453Y-32500000D02*
X122857818Y-32500000D01*
X120928453Y-32500000D02*
G75*
G02*
X117427183Y-32500000I-1750635J0D01*
G01*
X117427183Y-32500000D02*
G75*
G02*
X120928453Y-32500000I1750635J0D01*
G01*
X78790000Y-91195000D02*
X89010000Y-91195000D01*
X78790000Y-95815000D02*
X78790000Y-91195000D01*
X82050000Y-95815000D02*
X82050000Y-94435000D01*
X85750000Y-95815000D02*
X85750000Y-94435000D01*
X89010000Y-91195000D02*
X89010000Y-95815000D01*
X89010000Y-94435000D02*
X78790000Y-94435000D01*
X89010000Y-95815000D02*
X78790000Y-95815000D01*
X104730000Y-30240000D02*
X114950000Y-30240000D01*
X104730000Y-31620000D02*
X114950000Y-31620000D01*
X104730000Y-34860000D02*
X104730000Y-30240000D01*
X107990000Y-30240000D02*
X107990000Y-31620000D01*
X111690000Y-30240000D02*
X111690000Y-31620000D01*
X114950000Y-30240000D02*
X114950000Y-34860000D01*
X114950000Y-34860000D02*
X104730000Y-34860000D01*
X45950000Y-79850000D02*
X45950000Y-84350000D01*
X48450000Y-85600000D02*
X49950000Y-85600000D01*
X49950000Y-78600000D02*
X48450000Y-78600000D01*
X52450000Y-84350000D02*
X52450000Y-79850000D01*
X56651000Y-48500000D02*
G75*
G02*
X54149000Y-48500000I-1251000J0D01*
G01*
X54149000Y-48500000D02*
G75*
G02*
X56651000Y-48500000I1251000J0D01*
G01*
X56451000Y-56400000D02*
G75*
G02*
X53949000Y-56400000I-1251000J0D01*
G01*
X53949000Y-56400000D02*
G75*
G02*
X56451000Y-56400000I1251000J0D01*
G01*
X56651000Y-44300000D02*
G75*
G02*
X54149000Y-44300000I-1251000J0D01*
G01*
X54149000Y-44300000D02*
G75*
G02*
X56651000Y-44300000I1251000J0D01*
G01*
M02*
