G04 #@! TF.GenerationSoftware,KiCad,Pcbnew,9.0.6*
G04 #@! TF.CreationDate,2025-12-02T20:42:04+09:00*
G04 #@! TF.ProjectId,12f683MPPT,31326636-3833-44d5-9050-542e6b696361,rev?*
G04 #@! TF.SameCoordinates,Original*
G04 #@! TF.FileFunction,Soldermask,Bot*
G04 #@! TF.FilePolarity,Negative*
%FSLAX46Y46*%
G04 Gerber Fmt 4.6, Leading zero omitted, Abs format (unit mm)*
G04 Created by KiCad (PCBNEW 9.0.6) date 2025-12-02 20:42:04*
%MOMM*%
%LPD*%
G01*
G04 APERTURE LIST*
G04 APERTURE END LIST*
G36*
X131083821Y-92059587D02*
G01*
X131396729Y-92121828D01*
X131702029Y-92214440D01*
X131996782Y-92336531D01*
X132278148Y-92486924D01*
X132543418Y-92664172D01*
X132790038Y-92866568D01*
X133015632Y-93092162D01*
X133218028Y-93338782D01*
X133395276Y-93604052D01*
X133545669Y-93885418D01*
X133667760Y-94180171D01*
X133760372Y-94485471D01*
X133822613Y-94798379D01*
X133853884Y-95115881D01*
X133853884Y-95434919D01*
X133822613Y-95752421D01*
X133760372Y-96065329D01*
X133667760Y-96370629D01*
X133545669Y-96665382D01*
X133395276Y-96946748D01*
X133218028Y-97212018D01*
X133015632Y-97458638D01*
X132790038Y-97684232D01*
X132543418Y-97886628D01*
X132278148Y-98063876D01*
X131996782Y-98214269D01*
X131702029Y-98336360D01*
X131396729Y-98428972D01*
X131083821Y-98491213D01*
X130766319Y-98522484D01*
X130447281Y-98522484D01*
X130129779Y-98491213D01*
X129816871Y-98428972D01*
X129511571Y-98336360D01*
X129216818Y-98214269D01*
X128935452Y-98063876D01*
X128670182Y-97886628D01*
X128423562Y-97684232D01*
X128197968Y-97458638D01*
X127995572Y-97212018D01*
X127818324Y-96946748D01*
X127667931Y-96665382D01*
X127545840Y-96370629D01*
X127453228Y-96065329D01*
X127390987Y-95752421D01*
X127359716Y-95434919D01*
X127359716Y-95115881D01*
X127390987Y-94798379D01*
X127453228Y-94485471D01*
X127545840Y-94180171D01*
X127667931Y-93885418D01*
X127818324Y-93604052D01*
X127995572Y-93338782D01*
X128197968Y-93092162D01*
X128423562Y-92866568D01*
X128670182Y-92664172D01*
X128935452Y-92486924D01*
X129216818Y-92336531D01*
X129511571Y-92214440D01*
X129816871Y-92121828D01*
X130129779Y-92059587D01*
X130447281Y-92028316D01*
X130766319Y-92028316D01*
X131083821Y-92059587D01*
G37*
G36*
X40532821Y-91983387D02*
G01*
X40845729Y-92045628D01*
X41151029Y-92138240D01*
X41445782Y-92260331D01*
X41727148Y-92410724D01*
X41992418Y-92587972D01*
X42239038Y-92790368D01*
X42464632Y-93015962D01*
X42667028Y-93262582D01*
X42844276Y-93527852D01*
X42994669Y-93809218D01*
X43116760Y-94103971D01*
X43209372Y-94409271D01*
X43271613Y-94722179D01*
X43302884Y-95039681D01*
X43302884Y-95358719D01*
X43271613Y-95676221D01*
X43209372Y-95989129D01*
X43116760Y-96294429D01*
X42994669Y-96589182D01*
X42844276Y-96870548D01*
X42667028Y-97135818D01*
X42464632Y-97382438D01*
X42239038Y-97608032D01*
X41992418Y-97810428D01*
X41727148Y-97987676D01*
X41445782Y-98138069D01*
X41151029Y-98260160D01*
X40845729Y-98352772D01*
X40532821Y-98415013D01*
X40215319Y-98446284D01*
X39896281Y-98446284D01*
X39578779Y-98415013D01*
X39265871Y-98352772D01*
X38960571Y-98260160D01*
X38665818Y-98138069D01*
X38384452Y-97987676D01*
X38119182Y-97810428D01*
X37872562Y-97608032D01*
X37646968Y-97382438D01*
X37444572Y-97135818D01*
X37267324Y-96870548D01*
X37116931Y-96589182D01*
X36994840Y-96294429D01*
X36902228Y-95989129D01*
X36839987Y-95676221D01*
X36808716Y-95358719D01*
X36808716Y-95039681D01*
X36839987Y-94722179D01*
X36902228Y-94409271D01*
X36994840Y-94103971D01*
X37116931Y-93809218D01*
X37267324Y-93527852D01*
X37444572Y-93262582D01*
X37646968Y-93015962D01*
X37872562Y-92790368D01*
X38119182Y-92587972D01*
X38384452Y-92410724D01*
X38665818Y-92260331D01*
X38960571Y-92138240D01*
X39265871Y-92045628D01*
X39578779Y-91983387D01*
X39896281Y-91952116D01*
X40215319Y-91952116D01*
X40532821Y-91983387D01*
G37*
G36*
X87412017Y-91507882D02*
G01*
X87428562Y-91518938D01*
X87439618Y-91535483D01*
X87443500Y-91555000D01*
X87443500Y-93555000D01*
X87439618Y-93574517D01*
X87428562Y-93591062D01*
X87412017Y-93602118D01*
X87392500Y-93606000D01*
X85487500Y-93606000D01*
X85467983Y-93602118D01*
X85451438Y-93591062D01*
X85440382Y-93574517D01*
X85436500Y-93555000D01*
X85436500Y-91555000D01*
X85440382Y-91535483D01*
X85451438Y-91518938D01*
X85467983Y-91507882D01*
X85487500Y-91504000D01*
X87392500Y-91504000D01*
X87412017Y-91507882D01*
G37*
G36*
X81447247Y-91508832D02*
G01*
X81458360Y-91508832D01*
X81501786Y-91517470D01*
X81594172Y-91532102D01*
X81623886Y-91541757D01*
X81651301Y-91547210D01*
X81689989Y-91563235D01*
X81743875Y-91580744D01*
X81794360Y-91606467D01*
X81833047Y-91622492D01*
X81856286Y-91638020D01*
X81884124Y-91652204D01*
X81959790Y-91707179D01*
X81996614Y-91731784D01*
X82004473Y-91739643D01*
X82011466Y-91744724D01*
X82122775Y-91856033D01*
X82127855Y-91863025D01*
X82135716Y-91870886D01*
X82160323Y-91907713D01*
X82215295Y-91983375D01*
X82229477Y-92011210D01*
X82245008Y-92034453D01*
X82261034Y-92073145D01*
X82286755Y-92123624D01*
X82304261Y-92177503D01*
X82320290Y-92216199D01*
X82325744Y-92243618D01*
X82335397Y-92273327D01*
X82350027Y-92365702D01*
X82358668Y-92409140D01*
X82359459Y-92425252D01*
X82360406Y-92431228D01*
X82363016Y-92497649D01*
X82363500Y-92507500D01*
X82363500Y-92602500D01*
X82363015Y-92612354D01*
X82360406Y-92678771D01*
X82359459Y-92684746D01*
X82358668Y-92700860D01*
X82350026Y-92744301D01*
X82335397Y-92836672D01*
X82325744Y-92866378D01*
X82320290Y-92893801D01*
X82304260Y-92932500D01*
X82286755Y-92986375D01*
X82261037Y-93036849D01*
X82245008Y-93075547D01*
X82229475Y-93098792D01*
X82215295Y-93126624D01*
X82160331Y-93202273D01*
X82135716Y-93239114D01*
X82127852Y-93246977D01*
X82122775Y-93253966D01*
X82011466Y-93365275D01*
X82004477Y-93370352D01*
X81996614Y-93378216D01*
X81959773Y-93402831D01*
X81884124Y-93457795D01*
X81856292Y-93471975D01*
X81833047Y-93487508D01*
X81794349Y-93503537D01*
X81743875Y-93529255D01*
X81690000Y-93546760D01*
X81651301Y-93562790D01*
X81623878Y-93568244D01*
X81594172Y-93577897D01*
X81501796Y-93592527D01*
X81458360Y-93601168D01*
X81447246Y-93601168D01*
X81438704Y-93602521D01*
X81281296Y-93602521D01*
X81272754Y-93601168D01*
X81261640Y-93601168D01*
X81218204Y-93592528D01*
X81125827Y-93577897D01*
X81096118Y-93568244D01*
X81068699Y-93562790D01*
X81030003Y-93546761D01*
X80976124Y-93529255D01*
X80925645Y-93503534D01*
X80886953Y-93487508D01*
X80863710Y-93471977D01*
X80835875Y-93457795D01*
X80760213Y-93402823D01*
X80723386Y-93378216D01*
X80715525Y-93370355D01*
X80708533Y-93365275D01*
X80597224Y-93253966D01*
X80592143Y-93246973D01*
X80584284Y-93239114D01*
X80559679Y-93202290D01*
X80504704Y-93126624D01*
X80490520Y-93098786D01*
X80474992Y-93075547D01*
X80458967Y-93036860D01*
X80433244Y-92986375D01*
X80415735Y-92932489D01*
X80399710Y-92893801D01*
X80394257Y-92866386D01*
X80384602Y-92836672D01*
X80369968Y-92744277D01*
X80361332Y-92700860D01*
X80360540Y-92684755D01*
X80359593Y-92678771D01*
X80356983Y-92612338D01*
X80356500Y-92602500D01*
X80356500Y-92507500D01*
X80356983Y-92497665D01*
X80359593Y-92431228D01*
X80360540Y-92425242D01*
X80361332Y-92409140D01*
X80369967Y-92365726D01*
X80384602Y-92273327D01*
X80394257Y-92243610D01*
X80399710Y-92216199D01*
X80415733Y-92177514D01*
X80433244Y-92123624D01*
X80458969Y-92073134D01*
X80474992Y-92034453D01*
X80490518Y-92011216D01*
X80504704Y-91983375D01*
X80559687Y-91907696D01*
X80584284Y-91870886D01*
X80592141Y-91863028D01*
X80597224Y-91856033D01*
X80708533Y-91744724D01*
X80715528Y-91739641D01*
X80723386Y-91731784D01*
X80760196Y-91707187D01*
X80835875Y-91652204D01*
X80863716Y-91638018D01*
X80886953Y-91622492D01*
X80925634Y-91606469D01*
X80976124Y-91580744D01*
X81030014Y-91563233D01*
X81068699Y-91547210D01*
X81096110Y-91541757D01*
X81125827Y-91532102D01*
X81218214Y-91517469D01*
X81261640Y-91508832D01*
X81272753Y-91508832D01*
X81281296Y-91507479D01*
X81438704Y-91507479D01*
X81447247Y-91508832D01*
G37*
G36*
X83987247Y-91508832D02*
G01*
X83998360Y-91508832D01*
X84041786Y-91517470D01*
X84134172Y-91532102D01*
X84163886Y-91541757D01*
X84191301Y-91547210D01*
X84229989Y-91563235D01*
X84283875Y-91580744D01*
X84334360Y-91606467D01*
X84373047Y-91622492D01*
X84396286Y-91638020D01*
X84424124Y-91652204D01*
X84499790Y-91707179D01*
X84536614Y-91731784D01*
X84544473Y-91739643D01*
X84551466Y-91744724D01*
X84662775Y-91856033D01*
X84667855Y-91863025D01*
X84675716Y-91870886D01*
X84700323Y-91907713D01*
X84755295Y-91983375D01*
X84769477Y-92011210D01*
X84785008Y-92034453D01*
X84801034Y-92073145D01*
X84826755Y-92123624D01*
X84844261Y-92177503D01*
X84860290Y-92216199D01*
X84865744Y-92243618D01*
X84875397Y-92273327D01*
X84890027Y-92365702D01*
X84898668Y-92409140D01*
X84899459Y-92425252D01*
X84900406Y-92431228D01*
X84903016Y-92497649D01*
X84903500Y-92507500D01*
X84903500Y-92602500D01*
X84903015Y-92612354D01*
X84900406Y-92678771D01*
X84899459Y-92684746D01*
X84898668Y-92700860D01*
X84890026Y-92744301D01*
X84875397Y-92836672D01*
X84865744Y-92866378D01*
X84860290Y-92893801D01*
X84844260Y-92932500D01*
X84826755Y-92986375D01*
X84801037Y-93036849D01*
X84785008Y-93075547D01*
X84769475Y-93098792D01*
X84755295Y-93126624D01*
X84700331Y-93202273D01*
X84675716Y-93239114D01*
X84667852Y-93246977D01*
X84662775Y-93253966D01*
X84551466Y-93365275D01*
X84544477Y-93370352D01*
X84536614Y-93378216D01*
X84499773Y-93402831D01*
X84424124Y-93457795D01*
X84396292Y-93471975D01*
X84373047Y-93487508D01*
X84334349Y-93503537D01*
X84283875Y-93529255D01*
X84230000Y-93546760D01*
X84191301Y-93562790D01*
X84163878Y-93568244D01*
X84134172Y-93577897D01*
X84041796Y-93592527D01*
X83998360Y-93601168D01*
X83987246Y-93601168D01*
X83978704Y-93602521D01*
X83821296Y-93602521D01*
X83812754Y-93601168D01*
X83801640Y-93601168D01*
X83758204Y-93592528D01*
X83665827Y-93577897D01*
X83636118Y-93568244D01*
X83608699Y-93562790D01*
X83570003Y-93546761D01*
X83516124Y-93529255D01*
X83465645Y-93503534D01*
X83426953Y-93487508D01*
X83403710Y-93471977D01*
X83375875Y-93457795D01*
X83300213Y-93402823D01*
X83263386Y-93378216D01*
X83255525Y-93370355D01*
X83248533Y-93365275D01*
X83137224Y-93253966D01*
X83132143Y-93246973D01*
X83124284Y-93239114D01*
X83099679Y-93202290D01*
X83044704Y-93126624D01*
X83030520Y-93098786D01*
X83014992Y-93075547D01*
X82998967Y-93036860D01*
X82973244Y-92986375D01*
X82955735Y-92932489D01*
X82939710Y-92893801D01*
X82934257Y-92866386D01*
X82924602Y-92836672D01*
X82909968Y-92744277D01*
X82901332Y-92700860D01*
X82900540Y-92684755D01*
X82899593Y-92678771D01*
X82896983Y-92612338D01*
X82896500Y-92602500D01*
X82896500Y-92507500D01*
X82896983Y-92497665D01*
X82899593Y-92431228D01*
X82900540Y-92425242D01*
X82901332Y-92409140D01*
X82909967Y-92365726D01*
X82924602Y-92273327D01*
X82934257Y-92243610D01*
X82939710Y-92216199D01*
X82955733Y-92177514D01*
X82973244Y-92123624D01*
X82998969Y-92073134D01*
X83014992Y-92034453D01*
X83030518Y-92011216D01*
X83044704Y-91983375D01*
X83099687Y-91907696D01*
X83124284Y-91870886D01*
X83132141Y-91863028D01*
X83137224Y-91856033D01*
X83248533Y-91744724D01*
X83255528Y-91739641D01*
X83263386Y-91731784D01*
X83300196Y-91707187D01*
X83375875Y-91652204D01*
X83403716Y-91638018D01*
X83426953Y-91622492D01*
X83465634Y-91606469D01*
X83516124Y-91580744D01*
X83570014Y-91563233D01*
X83608699Y-91547210D01*
X83636110Y-91541757D01*
X83665827Y-91532102D01*
X83758214Y-91517469D01*
X83801640Y-91508832D01*
X83812753Y-91508832D01*
X83821296Y-91507479D01*
X83978704Y-91507479D01*
X83987247Y-91508832D01*
G37*
G36*
X120542040Y-90033565D02*
G01*
X120728737Y-90094227D01*
X120903646Y-90183347D01*
X121062460Y-90298732D01*
X121201268Y-90437540D01*
X121316653Y-90596354D01*
X121405773Y-90771263D01*
X121466435Y-90957960D01*
X121497144Y-91151848D01*
X121497144Y-91348152D01*
X121466435Y-91542040D01*
X121405773Y-91728737D01*
X121316653Y-91903646D01*
X121201268Y-92062460D01*
X121062460Y-92201268D01*
X120903646Y-92316653D01*
X120728737Y-92405773D01*
X120542040Y-92466435D01*
X120348152Y-92497144D01*
X120151848Y-92497144D01*
X119957960Y-92466435D01*
X119771263Y-92405773D01*
X119596354Y-92316653D01*
X119437540Y-92201268D01*
X119298732Y-92062460D01*
X119183347Y-91903646D01*
X119094227Y-91728737D01*
X119033565Y-91542040D01*
X119002856Y-91348152D01*
X119002856Y-91151848D01*
X119033565Y-90957960D01*
X119094227Y-90771263D01*
X119183347Y-90596354D01*
X119298732Y-90437540D01*
X119437540Y-90298732D01*
X119596354Y-90183347D01*
X119771263Y-90094227D01*
X119957960Y-90033565D01*
X120151848Y-90002856D01*
X120348152Y-90002856D01*
X120542040Y-90033565D01*
G37*
G36*
X45441498Y-88404061D02*
G01*
X45453016Y-88404061D01*
X45498023Y-88413013D01*
X45595260Y-88428414D01*
X45626536Y-88438576D01*
X45655089Y-88444256D01*
X45695387Y-88460948D01*
X45752052Y-88479360D01*
X45805135Y-88506407D01*
X45845438Y-88523101D01*
X45869647Y-88539277D01*
X45898943Y-88554204D01*
X45978583Y-88612066D01*
X46016747Y-88637566D01*
X46024891Y-88645710D01*
X46032315Y-88651104D01*
X46148895Y-88767684D01*
X46154288Y-88775107D01*
X46162434Y-88783253D01*
X46187936Y-88821420D01*
X46245795Y-88901056D01*
X46260720Y-88930348D01*
X46276899Y-88954562D01*
X46293594Y-88994869D01*
X46320639Y-89047947D01*
X46339048Y-89104604D01*
X46355744Y-89144911D01*
X46361424Y-89173469D01*
X46371585Y-89204739D01*
X46386984Y-89301967D01*
X46395939Y-89346984D01*
X46395939Y-89358502D01*
X46397375Y-89367569D01*
X46397375Y-89532430D01*
X46395939Y-89541496D01*
X46395939Y-89553016D01*
X46386983Y-89598035D01*
X46371585Y-89695260D01*
X46361425Y-89726528D01*
X46355744Y-89755089D01*
X46339047Y-89795398D01*
X46320639Y-89852052D01*
X46293596Y-89905125D01*
X46276899Y-89945438D01*
X46260718Y-89969654D01*
X46245795Y-89998943D01*
X46187945Y-90078566D01*
X46162434Y-90116747D01*
X46154285Y-90124895D01*
X46148895Y-90132315D01*
X46032315Y-90248895D01*
X46024895Y-90254285D01*
X46016747Y-90262434D01*
X45978566Y-90287945D01*
X45898943Y-90345795D01*
X45869654Y-90360718D01*
X45845438Y-90376899D01*
X45805125Y-90393596D01*
X45752052Y-90420639D01*
X45695398Y-90439047D01*
X45655089Y-90455744D01*
X45626528Y-90461425D01*
X45595260Y-90471585D01*
X45498033Y-90486984D01*
X45453016Y-90495939D01*
X45441497Y-90495939D01*
X45432431Y-90497375D01*
X45267569Y-90497375D01*
X45258503Y-90495939D01*
X45246984Y-90495939D01*
X45201967Y-90486984D01*
X45104739Y-90471585D01*
X45073469Y-90461424D01*
X45044911Y-90455744D01*
X45004604Y-90439048D01*
X44947947Y-90420639D01*
X44894869Y-90393594D01*
X44854562Y-90376899D01*
X44830348Y-90360720D01*
X44801056Y-90345795D01*
X44721420Y-90287936D01*
X44683253Y-90262434D01*
X44675107Y-90254288D01*
X44667684Y-90248895D01*
X44551104Y-90132315D01*
X44545710Y-90124891D01*
X44537566Y-90116747D01*
X44512066Y-90078583D01*
X44454204Y-89998943D01*
X44439277Y-89969647D01*
X44423101Y-89945438D01*
X44406407Y-89905135D01*
X44379360Y-89852052D01*
X44360948Y-89795387D01*
X44344256Y-89755089D01*
X44338576Y-89726536D01*
X44328414Y-89695260D01*
X44313014Y-89598026D01*
X44304061Y-89553016D01*
X44304061Y-89541496D01*
X44302625Y-89532430D01*
X44302625Y-89367569D01*
X44304061Y-89358502D01*
X44304061Y-89346984D01*
X44313013Y-89301977D01*
X44328414Y-89204739D01*
X44338576Y-89173461D01*
X44344256Y-89144911D01*
X44360946Y-89104616D01*
X44379360Y-89047947D01*
X44406409Y-88994858D01*
X44423101Y-88954562D01*
X44439275Y-88930355D01*
X44454204Y-88901056D01*
X44512074Y-88821403D01*
X44537566Y-88783253D01*
X44545707Y-88775111D01*
X44551104Y-88767684D01*
X44667684Y-88651104D01*
X44675111Y-88645707D01*
X44683253Y-88637566D01*
X44721403Y-88612074D01*
X44801056Y-88554204D01*
X44830355Y-88539275D01*
X44854562Y-88523101D01*
X44894858Y-88506409D01*
X44947947Y-88479360D01*
X45004616Y-88460946D01*
X45044911Y-88444256D01*
X45073461Y-88438576D01*
X45104739Y-88428414D01*
X45201977Y-88413013D01*
X45246984Y-88404061D01*
X45258502Y-88404061D01*
X45267569Y-88402625D01*
X45432431Y-88402625D01*
X45441498Y-88404061D01*
G37*
G36*
X49941498Y-88404061D02*
G01*
X49953016Y-88404061D01*
X49998023Y-88413013D01*
X50095260Y-88428414D01*
X50126536Y-88438576D01*
X50155089Y-88444256D01*
X50195387Y-88460948D01*
X50252052Y-88479360D01*
X50305135Y-88506407D01*
X50345438Y-88523101D01*
X50369647Y-88539277D01*
X50398943Y-88554204D01*
X50478583Y-88612066D01*
X50516747Y-88637566D01*
X50524891Y-88645710D01*
X50532315Y-88651104D01*
X50648895Y-88767684D01*
X50654288Y-88775107D01*
X50662434Y-88783253D01*
X50687936Y-88821420D01*
X50745795Y-88901056D01*
X50760720Y-88930348D01*
X50776899Y-88954562D01*
X50793594Y-88994869D01*
X50820639Y-89047947D01*
X50839048Y-89104604D01*
X50855744Y-89144911D01*
X50861424Y-89173469D01*
X50871585Y-89204739D01*
X50886984Y-89301967D01*
X50895939Y-89346984D01*
X50895939Y-89358502D01*
X50897375Y-89367569D01*
X50897375Y-89532430D01*
X50895939Y-89541496D01*
X50895939Y-89553016D01*
X50886983Y-89598035D01*
X50871585Y-89695260D01*
X50861425Y-89726528D01*
X50855744Y-89755089D01*
X50839047Y-89795398D01*
X50820639Y-89852052D01*
X50793596Y-89905125D01*
X50776899Y-89945438D01*
X50760718Y-89969654D01*
X50745795Y-89998943D01*
X50687945Y-90078566D01*
X50662434Y-90116747D01*
X50654285Y-90124895D01*
X50648895Y-90132315D01*
X50532315Y-90248895D01*
X50524895Y-90254285D01*
X50516747Y-90262434D01*
X50478566Y-90287945D01*
X50398943Y-90345795D01*
X50369654Y-90360718D01*
X50345438Y-90376899D01*
X50305125Y-90393596D01*
X50252052Y-90420639D01*
X50195398Y-90439047D01*
X50155089Y-90455744D01*
X50126528Y-90461425D01*
X50095260Y-90471585D01*
X49998033Y-90486984D01*
X49953016Y-90495939D01*
X49941497Y-90495939D01*
X49932431Y-90497375D01*
X49767569Y-90497375D01*
X49758503Y-90495939D01*
X49746984Y-90495939D01*
X49701967Y-90486984D01*
X49604739Y-90471585D01*
X49573469Y-90461424D01*
X49544911Y-90455744D01*
X49504604Y-90439048D01*
X49447947Y-90420639D01*
X49394869Y-90393594D01*
X49354562Y-90376899D01*
X49330348Y-90360720D01*
X49301056Y-90345795D01*
X49221420Y-90287936D01*
X49183253Y-90262434D01*
X49175107Y-90254288D01*
X49167684Y-90248895D01*
X49051104Y-90132315D01*
X49045710Y-90124891D01*
X49037566Y-90116747D01*
X49012066Y-90078583D01*
X48954204Y-89998943D01*
X48939277Y-89969647D01*
X48923101Y-89945438D01*
X48906407Y-89905135D01*
X48879360Y-89852052D01*
X48860948Y-89795387D01*
X48844256Y-89755089D01*
X48838576Y-89726536D01*
X48828414Y-89695260D01*
X48813014Y-89598026D01*
X48804061Y-89553016D01*
X48804061Y-89541496D01*
X48802625Y-89532430D01*
X48802625Y-89367569D01*
X48804061Y-89358502D01*
X48804061Y-89346984D01*
X48813013Y-89301977D01*
X48828414Y-89204739D01*
X48838576Y-89173461D01*
X48844256Y-89144911D01*
X48860946Y-89104616D01*
X48879360Y-89047947D01*
X48906409Y-88994858D01*
X48923101Y-88954562D01*
X48939275Y-88930355D01*
X48954204Y-88901056D01*
X49012074Y-88821403D01*
X49037566Y-88783253D01*
X49045707Y-88775111D01*
X49051104Y-88767684D01*
X49167684Y-88651104D01*
X49175111Y-88645707D01*
X49183253Y-88637566D01*
X49221403Y-88612074D01*
X49301056Y-88554204D01*
X49330355Y-88539275D01*
X49354562Y-88523101D01*
X49394858Y-88506409D01*
X49447947Y-88479360D01*
X49504616Y-88460946D01*
X49544911Y-88444256D01*
X49573461Y-88438576D01*
X49604739Y-88428414D01*
X49701977Y-88413013D01*
X49746984Y-88404061D01*
X49758502Y-88404061D01*
X49767569Y-88402625D01*
X49932431Y-88402625D01*
X49941498Y-88404061D01*
G37*
G36*
X58119517Y-88327882D02*
G01*
X58136062Y-88338938D01*
X58147118Y-88355483D01*
X58151000Y-88375000D01*
X58151000Y-90175000D01*
X58147118Y-90194517D01*
X58136062Y-90211062D01*
X58119517Y-90222118D01*
X58100000Y-90226000D01*
X56300000Y-90226000D01*
X56280483Y-90222118D01*
X56263938Y-90211062D01*
X56252882Y-90194517D01*
X56249000Y-90175000D01*
X56249000Y-88375000D01*
X56252882Y-88355483D01*
X56263938Y-88338938D01*
X56280483Y-88327882D01*
X56300000Y-88324000D01*
X58100000Y-88324000D01*
X58119517Y-88327882D01*
G37*
G36*
X131316373Y-84987024D02*
G01*
X131579558Y-85057545D01*
X131831287Y-85161814D01*
X132067253Y-85298049D01*
X132283417Y-85463918D01*
X132476082Y-85656583D01*
X132641951Y-85872747D01*
X132778186Y-86108713D01*
X132882455Y-86360442D01*
X132952976Y-86623627D01*
X132988540Y-86893765D01*
X132988540Y-87166235D01*
X132952976Y-87436373D01*
X132882455Y-87699558D01*
X132778186Y-87951287D01*
X132641951Y-88187253D01*
X132476082Y-88403417D01*
X132283417Y-88596082D01*
X132067253Y-88761951D01*
X131831287Y-88898186D01*
X131579558Y-89002455D01*
X131316373Y-89072976D01*
X131046235Y-89108540D01*
X130773765Y-89108540D01*
X130503627Y-89072976D01*
X130240442Y-89002455D01*
X129988713Y-88898186D01*
X129752747Y-88761951D01*
X129536583Y-88596082D01*
X129343918Y-88403417D01*
X129178049Y-88187253D01*
X129041814Y-87951287D01*
X128937545Y-87699558D01*
X128867024Y-87436373D01*
X128831460Y-87166235D01*
X128831460Y-86893765D01*
X128867024Y-86623627D01*
X128937545Y-86360442D01*
X129041814Y-86108713D01*
X129178049Y-85872747D01*
X129343918Y-85656583D01*
X129536583Y-85463918D01*
X129752747Y-85298049D01*
X129988713Y-85161814D01*
X130240442Y-85057545D01*
X130503627Y-84987024D01*
X130773765Y-84951460D01*
X131046235Y-84951460D01*
X131316373Y-84987024D01*
G37*
G36*
X104617730Y-84469089D02*
G01*
X104629536Y-84469089D01*
X104687663Y-84478295D01*
X104822042Y-84495986D01*
X104854837Y-84504773D01*
X104885418Y-84509617D01*
X104944229Y-84528726D01*
X105030611Y-84551872D01*
X105085724Y-84574700D01*
X105131810Y-84589675D01*
X105174987Y-84611674D01*
X105230099Y-84634503D01*
X105307539Y-84679213D01*
X105362645Y-84707291D01*
X105387697Y-84725492D01*
X105417096Y-84742466D01*
X105524651Y-84824995D01*
X105572239Y-84859570D01*
X105580579Y-84867910D01*
X105588401Y-84873912D01*
X105741087Y-85026598D01*
X105747088Y-85034419D01*
X105755430Y-85042761D01*
X105790008Y-85090354D01*
X105872533Y-85197903D01*
X105889505Y-85227299D01*
X105907709Y-85252355D01*
X105935789Y-85307466D01*
X105980496Y-85384900D01*
X106003321Y-85440006D01*
X106025325Y-85483190D01*
X106040301Y-85529282D01*
X106063127Y-85584388D01*
X106086269Y-85670757D01*
X106105383Y-85729582D01*
X106110227Y-85760169D01*
X106119013Y-85792957D01*
X106136703Y-85927327D01*
X106145911Y-85985464D01*
X106145911Y-85997269D01*
X106147197Y-86007038D01*
X106147197Y-86222961D01*
X106145911Y-86232729D01*
X106145911Y-86244536D01*
X106136702Y-86302677D01*
X106119013Y-86437042D01*
X106110228Y-86469827D01*
X106105383Y-86500418D01*
X106086268Y-86559246D01*
X106063127Y-86645611D01*
X106040302Y-86700713D01*
X106025325Y-86746810D01*
X106003319Y-86789997D01*
X105980496Y-86845099D01*
X105935793Y-86922525D01*
X105907709Y-86977645D01*
X105889502Y-87002704D01*
X105872533Y-87032096D01*
X105790022Y-87139627D01*
X105755430Y-87187239D01*
X105747085Y-87195583D01*
X105741087Y-87203401D01*
X105588401Y-87356087D01*
X105580583Y-87362085D01*
X105572239Y-87370430D01*
X105524627Y-87405022D01*
X105417096Y-87487533D01*
X105387704Y-87504502D01*
X105362645Y-87522709D01*
X105307525Y-87550793D01*
X105230099Y-87595496D01*
X105174997Y-87618319D01*
X105131810Y-87640325D01*
X105085713Y-87655302D01*
X105030611Y-87678127D01*
X104944246Y-87701268D01*
X104885418Y-87720383D01*
X104854827Y-87725228D01*
X104822042Y-87734013D01*
X104687677Y-87751702D01*
X104629536Y-87760911D01*
X104617729Y-87760911D01*
X104607961Y-87762197D01*
X104392039Y-87762197D01*
X104382271Y-87760911D01*
X104370464Y-87760911D01*
X104312324Y-87751702D01*
X104177957Y-87734013D01*
X104145169Y-87725227D01*
X104114582Y-87720383D01*
X104055757Y-87701269D01*
X103969388Y-87678127D01*
X103914282Y-87655301D01*
X103868190Y-87640325D01*
X103825006Y-87618321D01*
X103769900Y-87595496D01*
X103692466Y-87550789D01*
X103637355Y-87522709D01*
X103612299Y-87504505D01*
X103582903Y-87487533D01*
X103475354Y-87405008D01*
X103427761Y-87370430D01*
X103419419Y-87362088D01*
X103411598Y-87356087D01*
X103258912Y-87203401D01*
X103252910Y-87195579D01*
X103244570Y-87187239D01*
X103209995Y-87139651D01*
X103127466Y-87032096D01*
X103110492Y-87002697D01*
X103092291Y-86977645D01*
X103064213Y-86922539D01*
X103019503Y-86845099D01*
X102996674Y-86789987D01*
X102974675Y-86746810D01*
X102959700Y-86700724D01*
X102936872Y-86645611D01*
X102913726Y-86559229D01*
X102894617Y-86500418D01*
X102889773Y-86469837D01*
X102880986Y-86437042D01*
X102863295Y-86302663D01*
X102854089Y-86244536D01*
X102854089Y-86232729D01*
X102852803Y-86222961D01*
X102852803Y-86007038D01*
X102854089Y-85997269D01*
X102854089Y-85985464D01*
X102863294Y-85927341D01*
X102880986Y-85792957D01*
X102889773Y-85760160D01*
X102894617Y-85729582D01*
X102913724Y-85670775D01*
X102936872Y-85584388D01*
X102959702Y-85529271D01*
X102974675Y-85483190D01*
X102996672Y-85440016D01*
X103019503Y-85384900D01*
X103064217Y-85307451D01*
X103092291Y-85252355D01*
X103110489Y-85227306D01*
X103127466Y-85197903D01*
X103210009Y-85090329D01*
X103244570Y-85042761D01*
X103252906Y-85034424D01*
X103258912Y-85026598D01*
X103411598Y-84873912D01*
X103419424Y-84867906D01*
X103427761Y-84859570D01*
X103475329Y-84825009D01*
X103582903Y-84742466D01*
X103612306Y-84725489D01*
X103637355Y-84707291D01*
X103692451Y-84679217D01*
X103769900Y-84634503D01*
X103825016Y-84611672D01*
X103868190Y-84589675D01*
X103914271Y-84574702D01*
X103969388Y-84551872D01*
X104055775Y-84528724D01*
X104114582Y-84509617D01*
X104145160Y-84504773D01*
X104177957Y-84495986D01*
X104312338Y-84478295D01*
X104370464Y-84469089D01*
X104382270Y-84469089D01*
X104392039Y-84467803D01*
X104607961Y-84467803D01*
X104617730Y-84469089D01*
G37*
G36*
X110617730Y-84469089D02*
G01*
X110629536Y-84469089D01*
X110687663Y-84478295D01*
X110822042Y-84495986D01*
X110854837Y-84504773D01*
X110885418Y-84509617D01*
X110944229Y-84528726D01*
X111030611Y-84551872D01*
X111085724Y-84574700D01*
X111131810Y-84589675D01*
X111174987Y-84611674D01*
X111230099Y-84634503D01*
X111307539Y-84679213D01*
X111362645Y-84707291D01*
X111387697Y-84725492D01*
X111417096Y-84742466D01*
X111524651Y-84824995D01*
X111572239Y-84859570D01*
X111580579Y-84867910D01*
X111588401Y-84873912D01*
X111741087Y-85026598D01*
X111747088Y-85034419D01*
X111755430Y-85042761D01*
X111790008Y-85090354D01*
X111872533Y-85197903D01*
X111889505Y-85227299D01*
X111907709Y-85252355D01*
X111935789Y-85307466D01*
X111980496Y-85384900D01*
X112003321Y-85440006D01*
X112025325Y-85483190D01*
X112040301Y-85529282D01*
X112063127Y-85584388D01*
X112086269Y-85670757D01*
X112105383Y-85729582D01*
X112110227Y-85760169D01*
X112119013Y-85792957D01*
X112136703Y-85927327D01*
X112145911Y-85985464D01*
X112145911Y-85997269D01*
X112147197Y-86007038D01*
X112147197Y-86222961D01*
X112145911Y-86232729D01*
X112145911Y-86244536D01*
X112136702Y-86302677D01*
X112119013Y-86437042D01*
X112110228Y-86469827D01*
X112105383Y-86500418D01*
X112086268Y-86559246D01*
X112063127Y-86645611D01*
X112040302Y-86700713D01*
X112025325Y-86746810D01*
X112003319Y-86789997D01*
X111980496Y-86845099D01*
X111935793Y-86922525D01*
X111907709Y-86977645D01*
X111889502Y-87002704D01*
X111872533Y-87032096D01*
X111790022Y-87139627D01*
X111755430Y-87187239D01*
X111747085Y-87195583D01*
X111741087Y-87203401D01*
X111588401Y-87356087D01*
X111580583Y-87362085D01*
X111572239Y-87370430D01*
X111524627Y-87405022D01*
X111417096Y-87487533D01*
X111387704Y-87504502D01*
X111362645Y-87522709D01*
X111307525Y-87550793D01*
X111230099Y-87595496D01*
X111174997Y-87618319D01*
X111131810Y-87640325D01*
X111085713Y-87655302D01*
X111030611Y-87678127D01*
X110944246Y-87701268D01*
X110885418Y-87720383D01*
X110854827Y-87725228D01*
X110822042Y-87734013D01*
X110687677Y-87751702D01*
X110629536Y-87760911D01*
X110617729Y-87760911D01*
X110607961Y-87762197D01*
X110392039Y-87762197D01*
X110382271Y-87760911D01*
X110370464Y-87760911D01*
X110312324Y-87751702D01*
X110177957Y-87734013D01*
X110145169Y-87725227D01*
X110114582Y-87720383D01*
X110055757Y-87701269D01*
X109969388Y-87678127D01*
X109914282Y-87655301D01*
X109868190Y-87640325D01*
X109825006Y-87618321D01*
X109769900Y-87595496D01*
X109692466Y-87550789D01*
X109637355Y-87522709D01*
X109612299Y-87504505D01*
X109582903Y-87487533D01*
X109475354Y-87405008D01*
X109427761Y-87370430D01*
X109419419Y-87362088D01*
X109411598Y-87356087D01*
X109258912Y-87203401D01*
X109252910Y-87195579D01*
X109244570Y-87187239D01*
X109209995Y-87139651D01*
X109127466Y-87032096D01*
X109110492Y-87002697D01*
X109092291Y-86977645D01*
X109064213Y-86922539D01*
X109019503Y-86845099D01*
X108996674Y-86789987D01*
X108974675Y-86746810D01*
X108959700Y-86700724D01*
X108936872Y-86645611D01*
X108913726Y-86559229D01*
X108894617Y-86500418D01*
X108889773Y-86469837D01*
X108880986Y-86437042D01*
X108863295Y-86302663D01*
X108854089Y-86244536D01*
X108854089Y-86232729D01*
X108852803Y-86222961D01*
X108852803Y-86007038D01*
X108854089Y-85997269D01*
X108854089Y-85985464D01*
X108863294Y-85927341D01*
X108880986Y-85792957D01*
X108889773Y-85760160D01*
X108894617Y-85729582D01*
X108913724Y-85670775D01*
X108936872Y-85584388D01*
X108959702Y-85529271D01*
X108974675Y-85483190D01*
X108996672Y-85440016D01*
X109019503Y-85384900D01*
X109064217Y-85307451D01*
X109092291Y-85252355D01*
X109110489Y-85227306D01*
X109127466Y-85197903D01*
X109210009Y-85090329D01*
X109244570Y-85042761D01*
X109252906Y-85034424D01*
X109258912Y-85026598D01*
X109411598Y-84873912D01*
X109419424Y-84867906D01*
X109427761Y-84859570D01*
X109475329Y-84825009D01*
X109582903Y-84742466D01*
X109612306Y-84725489D01*
X109637355Y-84707291D01*
X109692451Y-84679217D01*
X109769900Y-84634503D01*
X109825016Y-84611672D01*
X109868190Y-84589675D01*
X109914271Y-84574702D01*
X109969388Y-84551872D01*
X110055775Y-84528724D01*
X110114582Y-84509617D01*
X110145160Y-84504773D01*
X110177957Y-84495986D01*
X110312338Y-84478295D01*
X110370464Y-84469089D01*
X110382270Y-84469089D01*
X110392039Y-84467803D01*
X110607961Y-84467803D01*
X110617730Y-84469089D01*
G37*
G36*
X57282553Y-85788579D02*
G01*
X57293214Y-85788579D01*
X57334865Y-85796864D01*
X57421916Y-85810651D01*
X57449918Y-85819749D01*
X57476061Y-85824950D01*
X57512956Y-85840232D01*
X57563784Y-85856748D01*
X57611399Y-85881009D01*
X57648298Y-85896293D01*
X57670463Y-85911103D01*
X57696693Y-85924468D01*
X57767990Y-85976268D01*
X57803308Y-85999867D01*
X57810846Y-86007405D01*
X57817370Y-86012145D01*
X57922854Y-86117629D01*
X57927593Y-86124152D01*
X57935133Y-86131692D01*
X57958734Y-86167014D01*
X58010531Y-86238306D01*
X58023894Y-86264533D01*
X58038707Y-86286702D01*
X58053993Y-86323605D01*
X58078251Y-86371215D01*
X58094764Y-86422035D01*
X58110050Y-86458939D01*
X58115251Y-86485086D01*
X58124348Y-86513083D01*
X58138134Y-86600125D01*
X58146421Y-86641786D01*
X58146421Y-86652447D01*
X58147683Y-86660415D01*
X58147683Y-86809584D01*
X58146421Y-86817551D01*
X58146421Y-86828214D01*
X58138133Y-86869877D01*
X58124348Y-86956916D01*
X58115251Y-86984910D01*
X58110050Y-87011061D01*
X58094762Y-87047968D01*
X58078251Y-87098784D01*
X58053995Y-87146388D01*
X58038707Y-87183298D01*
X58023892Y-87205470D01*
X58010531Y-87231693D01*
X57958742Y-87302973D01*
X57935133Y-87338308D01*
X57927591Y-87345849D01*
X57922854Y-87352370D01*
X57817370Y-87457854D01*
X57810849Y-87462591D01*
X57803308Y-87470133D01*
X57767973Y-87493742D01*
X57696693Y-87545531D01*
X57670470Y-87558892D01*
X57648298Y-87573707D01*
X57611388Y-87588995D01*
X57563784Y-87613251D01*
X57512968Y-87629762D01*
X57476061Y-87645050D01*
X57449910Y-87650251D01*
X57421916Y-87659348D01*
X57334875Y-87673133D01*
X57293214Y-87681421D01*
X57282553Y-87681421D01*
X57274585Y-87682683D01*
X57125415Y-87682683D01*
X57117447Y-87681421D01*
X57106786Y-87681421D01*
X57065125Y-87673134D01*
X56978083Y-87659348D01*
X56950086Y-87650251D01*
X56923939Y-87645050D01*
X56887035Y-87629764D01*
X56836215Y-87613251D01*
X56788605Y-87588993D01*
X56751702Y-87573707D01*
X56729533Y-87558894D01*
X56703306Y-87545531D01*
X56632014Y-87493734D01*
X56596692Y-87470133D01*
X56589152Y-87462593D01*
X56582629Y-87457854D01*
X56477145Y-87352370D01*
X56472405Y-87345846D01*
X56464867Y-87338308D01*
X56441268Y-87302990D01*
X56389468Y-87231693D01*
X56376103Y-87205463D01*
X56361293Y-87183298D01*
X56346009Y-87146399D01*
X56321748Y-87098784D01*
X56305232Y-87047956D01*
X56289950Y-87011061D01*
X56284749Y-86984918D01*
X56275651Y-86956916D01*
X56261864Y-86869867D01*
X56253579Y-86828214D01*
X56253579Y-86817552D01*
X56252317Y-86809584D01*
X56252317Y-86660415D01*
X56253579Y-86652446D01*
X56253579Y-86641786D01*
X56261863Y-86600136D01*
X56275651Y-86513083D01*
X56284750Y-86485078D01*
X56289950Y-86458939D01*
X56305231Y-86422046D01*
X56321748Y-86371215D01*
X56346011Y-86323595D01*
X56361293Y-86286702D01*
X56376101Y-86264539D01*
X56389468Y-86238306D01*
X56441277Y-86166996D01*
X56464867Y-86131692D01*
X56472402Y-86124156D01*
X56477145Y-86117629D01*
X56582629Y-86012145D01*
X56589156Y-86007402D01*
X56596692Y-85999867D01*
X56631996Y-85976277D01*
X56703306Y-85924468D01*
X56729539Y-85911101D01*
X56751702Y-85896293D01*
X56788595Y-85881011D01*
X56836215Y-85856748D01*
X56887046Y-85840231D01*
X56923939Y-85824950D01*
X56950078Y-85819750D01*
X56978083Y-85810651D01*
X57065136Y-85796863D01*
X57106786Y-85788579D01*
X57117447Y-85788579D01*
X57125415Y-85787317D01*
X57274585Y-85787317D01*
X57282553Y-85788579D01*
G37*
G36*
X97479517Y-85722882D02*
G01*
X97496062Y-85733938D01*
X97507118Y-85750483D01*
X97511000Y-85770000D01*
X97511000Y-87570000D01*
X97507118Y-87589517D01*
X97496062Y-87606062D01*
X97479517Y-87617118D01*
X97460000Y-87621000D01*
X95660000Y-87621000D01*
X95640483Y-87617118D01*
X95623938Y-87606062D01*
X95612882Y-87589517D01*
X95609000Y-87570000D01*
X95609000Y-85770000D01*
X95612882Y-85750483D01*
X95623938Y-85733938D01*
X95640483Y-85722882D01*
X95660000Y-85719000D01*
X97460000Y-85719000D01*
X97479517Y-85722882D01*
G37*
G36*
X94102553Y-85723579D02*
G01*
X94113214Y-85723579D01*
X94154865Y-85731864D01*
X94241916Y-85745651D01*
X94269918Y-85754749D01*
X94296061Y-85759950D01*
X94332956Y-85775232D01*
X94383784Y-85791748D01*
X94431399Y-85816009D01*
X94468298Y-85831293D01*
X94490463Y-85846103D01*
X94516693Y-85859468D01*
X94587990Y-85911268D01*
X94623308Y-85934867D01*
X94630846Y-85942405D01*
X94637370Y-85947145D01*
X94742854Y-86052629D01*
X94747593Y-86059152D01*
X94755133Y-86066692D01*
X94778734Y-86102014D01*
X94830531Y-86173306D01*
X94843894Y-86199533D01*
X94858707Y-86221702D01*
X94873993Y-86258605D01*
X94898251Y-86306215D01*
X94914764Y-86357035D01*
X94930050Y-86393939D01*
X94935251Y-86420086D01*
X94944348Y-86448083D01*
X94958134Y-86535125D01*
X94966421Y-86576786D01*
X94966421Y-86587447D01*
X94967683Y-86595415D01*
X94967683Y-86744584D01*
X94966421Y-86752551D01*
X94966421Y-86763214D01*
X94958133Y-86804877D01*
X94944348Y-86891916D01*
X94935251Y-86919910D01*
X94930050Y-86946061D01*
X94914762Y-86982968D01*
X94898251Y-87033784D01*
X94873995Y-87081388D01*
X94858707Y-87118298D01*
X94843892Y-87140470D01*
X94830531Y-87166693D01*
X94778742Y-87237973D01*
X94755133Y-87273308D01*
X94747591Y-87280849D01*
X94742854Y-87287370D01*
X94637370Y-87392854D01*
X94630849Y-87397591D01*
X94623308Y-87405133D01*
X94587973Y-87428742D01*
X94516693Y-87480531D01*
X94490470Y-87493892D01*
X94468298Y-87508707D01*
X94431388Y-87523995D01*
X94383784Y-87548251D01*
X94332968Y-87564762D01*
X94296061Y-87580050D01*
X94269910Y-87585251D01*
X94241916Y-87594348D01*
X94154875Y-87608133D01*
X94113214Y-87616421D01*
X94102553Y-87616421D01*
X94094585Y-87617683D01*
X93945415Y-87617683D01*
X93937447Y-87616421D01*
X93926786Y-87616421D01*
X93885125Y-87608134D01*
X93798083Y-87594348D01*
X93770086Y-87585251D01*
X93743939Y-87580050D01*
X93707035Y-87564764D01*
X93656215Y-87548251D01*
X93608605Y-87523993D01*
X93571702Y-87508707D01*
X93549533Y-87493894D01*
X93523306Y-87480531D01*
X93452014Y-87428734D01*
X93416692Y-87405133D01*
X93409152Y-87397593D01*
X93402629Y-87392854D01*
X93297145Y-87287370D01*
X93292405Y-87280846D01*
X93284867Y-87273308D01*
X93261268Y-87237990D01*
X93209468Y-87166693D01*
X93196103Y-87140463D01*
X93181293Y-87118298D01*
X93166009Y-87081399D01*
X93141748Y-87033784D01*
X93125232Y-86982956D01*
X93109950Y-86946061D01*
X93104749Y-86919918D01*
X93095651Y-86891916D01*
X93081864Y-86804867D01*
X93073579Y-86763214D01*
X93073579Y-86752552D01*
X93072317Y-86744584D01*
X93072317Y-86595415D01*
X93073579Y-86587446D01*
X93073579Y-86576786D01*
X93081863Y-86535136D01*
X93095651Y-86448083D01*
X93104750Y-86420078D01*
X93109950Y-86393939D01*
X93125231Y-86357046D01*
X93141748Y-86306215D01*
X93166011Y-86258595D01*
X93181293Y-86221702D01*
X93196101Y-86199539D01*
X93209468Y-86173306D01*
X93261277Y-86101996D01*
X93284867Y-86066692D01*
X93292402Y-86059156D01*
X93297145Y-86052629D01*
X93402629Y-85947145D01*
X93409156Y-85942402D01*
X93416692Y-85934867D01*
X93451996Y-85911277D01*
X93523306Y-85859468D01*
X93549539Y-85846101D01*
X93571702Y-85831293D01*
X93608595Y-85816011D01*
X93656215Y-85791748D01*
X93707046Y-85775231D01*
X93743939Y-85759950D01*
X93770078Y-85754750D01*
X93798083Y-85745651D01*
X93885136Y-85731863D01*
X93926786Y-85723579D01*
X93937447Y-85723579D01*
X93945415Y-85722317D01*
X94094585Y-85722317D01*
X94102553Y-85723579D01*
G37*
G36*
X121268913Y-85006995D02*
G01*
X121284725Y-85013976D01*
X121292531Y-85015213D01*
X121325044Y-85031779D01*
X121370106Y-85051676D01*
X121448324Y-85129894D01*
X121468223Y-85174962D01*
X121484786Y-85207468D01*
X121486022Y-85215272D01*
X121493005Y-85231087D01*
X121500999Y-85300002D01*
X121500999Y-85309831D01*
X121501000Y-85309838D01*
X121501000Y-86286702D01*
X121501000Y-87199999D01*
X121493005Y-87268913D01*
X121486021Y-87284728D01*
X121484786Y-87292531D01*
X121468226Y-87325030D01*
X121448324Y-87370106D01*
X121370106Y-87448324D01*
X121325030Y-87468226D01*
X121292531Y-87484786D01*
X121284728Y-87486021D01*
X121268913Y-87493005D01*
X121199998Y-87500999D01*
X121190168Y-87500999D01*
X121190162Y-87501000D01*
X119309838Y-87501000D01*
X119309837Y-87500999D01*
X119300001Y-87501000D01*
X119231087Y-87493005D01*
X119215272Y-87486022D01*
X119207468Y-87484786D01*
X119174962Y-87468223D01*
X119129894Y-87448324D01*
X119051676Y-87370106D01*
X119031779Y-87325044D01*
X119015213Y-87292531D01*
X119013976Y-87284725D01*
X119006995Y-87268913D01*
X118999001Y-87199998D01*
X118999000Y-87190167D01*
X118999000Y-87190161D01*
X118999000Y-85309838D01*
X118999000Y-85309837D01*
X118999000Y-85300001D01*
X119006995Y-85231087D01*
X119013976Y-85215275D01*
X119015213Y-85207468D01*
X119031782Y-85174947D01*
X119051676Y-85129894D01*
X119129894Y-85051676D01*
X119174947Y-85031782D01*
X119207468Y-85015213D01*
X119215275Y-85013976D01*
X119231087Y-85006995D01*
X119300002Y-84999001D01*
X119309831Y-84999000D01*
X119309838Y-84999000D01*
X121190162Y-84999000D01*
X121199999Y-84999000D01*
X121268913Y-85006995D01*
G37*
G36*
X78773075Y-84114674D02*
G01*
X78927202Y-84178515D01*
X79065912Y-84271198D01*
X79183875Y-84389161D01*
X79276558Y-84527871D01*
X79340399Y-84681998D01*
X79372945Y-84845617D01*
X79372945Y-85012443D01*
X79340399Y-85176062D01*
X79276558Y-85330189D01*
X79183875Y-85468899D01*
X79065912Y-85586862D01*
X78927202Y-85679545D01*
X78773075Y-85743386D01*
X78609456Y-85775932D01*
X78442630Y-85775932D01*
X78279011Y-85743386D01*
X78124884Y-85679545D01*
X77986174Y-85586862D01*
X77868211Y-85468899D01*
X77775528Y-85330189D01*
X77711687Y-85176062D01*
X77679141Y-85012443D01*
X77679141Y-84845617D01*
X77711687Y-84681998D01*
X77775528Y-84527871D01*
X77868211Y-84389161D01*
X77986174Y-84271198D01*
X78124884Y-84178515D01*
X78279011Y-84114674D01*
X78442630Y-84082128D01*
X78609456Y-84082128D01*
X78773075Y-84114674D01*
G37*
G36*
X91473075Y-84114674D02*
G01*
X91627202Y-84178515D01*
X91765912Y-84271198D01*
X91883875Y-84389161D01*
X91976558Y-84527871D01*
X92040399Y-84681998D01*
X92072945Y-84845617D01*
X92072945Y-85012443D01*
X92040399Y-85176062D01*
X91976558Y-85330189D01*
X91883875Y-85468899D01*
X91765912Y-85586862D01*
X91627202Y-85679545D01*
X91473075Y-85743386D01*
X91309456Y-85775932D01*
X91142630Y-85775932D01*
X90979011Y-85743386D01*
X90824884Y-85679545D01*
X90686174Y-85586862D01*
X90568211Y-85468899D01*
X90475528Y-85330189D01*
X90411687Y-85176062D01*
X90379141Y-85012443D01*
X90379141Y-84845617D01*
X90411687Y-84681998D01*
X90475528Y-84527871D01*
X90568211Y-84389161D01*
X90686174Y-84271198D01*
X90824884Y-84178515D01*
X90979011Y-84114674D01*
X91142630Y-84082128D01*
X91309456Y-84082128D01*
X91473075Y-84114674D01*
G37*
G36*
X45441498Y-81904061D02*
G01*
X45453016Y-81904061D01*
X45498023Y-81913013D01*
X45595260Y-81928414D01*
X45626536Y-81938576D01*
X45655089Y-81944256D01*
X45695387Y-81960948D01*
X45752052Y-81979360D01*
X45805135Y-82006407D01*
X45845438Y-82023101D01*
X45869647Y-82039277D01*
X45898943Y-82054204D01*
X45978583Y-82112066D01*
X46016747Y-82137566D01*
X46024891Y-82145710D01*
X46032315Y-82151104D01*
X46148895Y-82267684D01*
X46154288Y-82275107D01*
X46162434Y-82283253D01*
X46187936Y-82321420D01*
X46245795Y-82401056D01*
X46260720Y-82430348D01*
X46276899Y-82454562D01*
X46293594Y-82494869D01*
X46320639Y-82547947D01*
X46339048Y-82604604D01*
X46355744Y-82644911D01*
X46361424Y-82673469D01*
X46371585Y-82704739D01*
X46386984Y-82801967D01*
X46395939Y-82846984D01*
X46395939Y-82858502D01*
X46397375Y-82867569D01*
X46397375Y-83032430D01*
X46395939Y-83041496D01*
X46395939Y-83053016D01*
X46386983Y-83098035D01*
X46371585Y-83195260D01*
X46361425Y-83226528D01*
X46355744Y-83255089D01*
X46339047Y-83295398D01*
X46320639Y-83352052D01*
X46293596Y-83405125D01*
X46276899Y-83445438D01*
X46260718Y-83469654D01*
X46245795Y-83498943D01*
X46187945Y-83578566D01*
X46162434Y-83616747D01*
X46154285Y-83624895D01*
X46148895Y-83632315D01*
X46032315Y-83748895D01*
X46024895Y-83754285D01*
X46016747Y-83762434D01*
X45978566Y-83787945D01*
X45898943Y-83845795D01*
X45869654Y-83860718D01*
X45845438Y-83876899D01*
X45805125Y-83893596D01*
X45752052Y-83920639D01*
X45695398Y-83939047D01*
X45655089Y-83955744D01*
X45626528Y-83961425D01*
X45595260Y-83971585D01*
X45498033Y-83986984D01*
X45453016Y-83995939D01*
X45441497Y-83995939D01*
X45432431Y-83997375D01*
X45267569Y-83997375D01*
X45258503Y-83995939D01*
X45246984Y-83995939D01*
X45201967Y-83986984D01*
X45104739Y-83971585D01*
X45073469Y-83961424D01*
X45044911Y-83955744D01*
X45004604Y-83939048D01*
X44947947Y-83920639D01*
X44894869Y-83893594D01*
X44854562Y-83876899D01*
X44830348Y-83860720D01*
X44801056Y-83845795D01*
X44721420Y-83787936D01*
X44683253Y-83762434D01*
X44675107Y-83754288D01*
X44667684Y-83748895D01*
X44551104Y-83632315D01*
X44545710Y-83624891D01*
X44537566Y-83616747D01*
X44512066Y-83578583D01*
X44454204Y-83498943D01*
X44439277Y-83469647D01*
X44423101Y-83445438D01*
X44406407Y-83405135D01*
X44379360Y-83352052D01*
X44360948Y-83295387D01*
X44344256Y-83255089D01*
X44338576Y-83226536D01*
X44328414Y-83195260D01*
X44313014Y-83098026D01*
X44304061Y-83053016D01*
X44304061Y-83041496D01*
X44302625Y-83032430D01*
X44302625Y-82867569D01*
X44304061Y-82858502D01*
X44304061Y-82846984D01*
X44313013Y-82801977D01*
X44328414Y-82704739D01*
X44338576Y-82673461D01*
X44344256Y-82644911D01*
X44360946Y-82604616D01*
X44379360Y-82547947D01*
X44406409Y-82494858D01*
X44423101Y-82454562D01*
X44439275Y-82430355D01*
X44454204Y-82401056D01*
X44512074Y-82321403D01*
X44537566Y-82283253D01*
X44545707Y-82275111D01*
X44551104Y-82267684D01*
X44667684Y-82151104D01*
X44675111Y-82145707D01*
X44683253Y-82137566D01*
X44721403Y-82112074D01*
X44801056Y-82054204D01*
X44830355Y-82039275D01*
X44854562Y-82023101D01*
X44894858Y-82006409D01*
X44947947Y-81979360D01*
X45004616Y-81960946D01*
X45044911Y-81944256D01*
X45073461Y-81938576D01*
X45104739Y-81928414D01*
X45201977Y-81913013D01*
X45246984Y-81904061D01*
X45258502Y-81904061D01*
X45267569Y-81902625D01*
X45432431Y-81902625D01*
X45441498Y-81904061D01*
G37*
G36*
X49941498Y-81904061D02*
G01*
X49953016Y-81904061D01*
X49998023Y-81913013D01*
X50095260Y-81928414D01*
X50126536Y-81938576D01*
X50155089Y-81944256D01*
X50195387Y-81960948D01*
X50252052Y-81979360D01*
X50305135Y-82006407D01*
X50345438Y-82023101D01*
X50369647Y-82039277D01*
X50398943Y-82054204D01*
X50478583Y-82112066D01*
X50516747Y-82137566D01*
X50524891Y-82145710D01*
X50532315Y-82151104D01*
X50648895Y-82267684D01*
X50654288Y-82275107D01*
X50662434Y-82283253D01*
X50687936Y-82321420D01*
X50745795Y-82401056D01*
X50760720Y-82430348D01*
X50776899Y-82454562D01*
X50793594Y-82494869D01*
X50820639Y-82547947D01*
X50839048Y-82604604D01*
X50855744Y-82644911D01*
X50861424Y-82673469D01*
X50871585Y-82704739D01*
X50886984Y-82801967D01*
X50895939Y-82846984D01*
X50895939Y-82858502D01*
X50897375Y-82867569D01*
X50897375Y-83032430D01*
X50895939Y-83041496D01*
X50895939Y-83053016D01*
X50886983Y-83098035D01*
X50871585Y-83195260D01*
X50861425Y-83226528D01*
X50855744Y-83255089D01*
X50839047Y-83295398D01*
X50820639Y-83352052D01*
X50793596Y-83405125D01*
X50776899Y-83445438D01*
X50760718Y-83469654D01*
X50745795Y-83498943D01*
X50687945Y-83578566D01*
X50662434Y-83616747D01*
X50654285Y-83624895D01*
X50648895Y-83632315D01*
X50532315Y-83748895D01*
X50524895Y-83754285D01*
X50516747Y-83762434D01*
X50478566Y-83787945D01*
X50398943Y-83845795D01*
X50369654Y-83860718D01*
X50345438Y-83876899D01*
X50305125Y-83893596D01*
X50252052Y-83920639D01*
X50195398Y-83939047D01*
X50155089Y-83955744D01*
X50126528Y-83961425D01*
X50095260Y-83971585D01*
X49998033Y-83986984D01*
X49953016Y-83995939D01*
X49941497Y-83995939D01*
X49932431Y-83997375D01*
X49767569Y-83997375D01*
X49758503Y-83995939D01*
X49746984Y-83995939D01*
X49701967Y-83986984D01*
X49604739Y-83971585D01*
X49573469Y-83961424D01*
X49544911Y-83955744D01*
X49504604Y-83939048D01*
X49447947Y-83920639D01*
X49394869Y-83893594D01*
X49354562Y-83876899D01*
X49330348Y-83860720D01*
X49301056Y-83845795D01*
X49221420Y-83787936D01*
X49183253Y-83762434D01*
X49175107Y-83754288D01*
X49167684Y-83748895D01*
X49051104Y-83632315D01*
X49045710Y-83624891D01*
X49037566Y-83616747D01*
X49012066Y-83578583D01*
X48954204Y-83498943D01*
X48939277Y-83469647D01*
X48923101Y-83445438D01*
X48906407Y-83405135D01*
X48879360Y-83352052D01*
X48860948Y-83295387D01*
X48844256Y-83255089D01*
X48838576Y-83226536D01*
X48828414Y-83195260D01*
X48813014Y-83098026D01*
X48804061Y-83053016D01*
X48804061Y-83041496D01*
X48802625Y-83032430D01*
X48802625Y-82867569D01*
X48804061Y-82858502D01*
X48804061Y-82846984D01*
X48813013Y-82801977D01*
X48828414Y-82704739D01*
X48838576Y-82673461D01*
X48844256Y-82644911D01*
X48860946Y-82604616D01*
X48879360Y-82547947D01*
X48906409Y-82494858D01*
X48923101Y-82454562D01*
X48939275Y-82430355D01*
X48954204Y-82401056D01*
X49012074Y-82321403D01*
X49037566Y-82283253D01*
X49045707Y-82275111D01*
X49051104Y-82267684D01*
X49167684Y-82151104D01*
X49175111Y-82145707D01*
X49183253Y-82137566D01*
X49221403Y-82112074D01*
X49301056Y-82054204D01*
X49330355Y-82039275D01*
X49354562Y-82023101D01*
X49394858Y-82006409D01*
X49447947Y-81979360D01*
X49504616Y-81960946D01*
X49544911Y-81944256D01*
X49573461Y-81938576D01*
X49604739Y-81928414D01*
X49701977Y-81913013D01*
X49746984Y-81904061D01*
X49758502Y-81904061D01*
X49767569Y-81902625D01*
X49932431Y-81902625D01*
X49941498Y-81904061D01*
G37*
G36*
X94909517Y-80852882D02*
G01*
X94926062Y-80863938D01*
X94937118Y-80880483D01*
X94941000Y-80900000D01*
X94941000Y-82700000D01*
X94937118Y-82719517D01*
X94926062Y-82736062D01*
X94909517Y-82747118D01*
X94890000Y-82751000D01*
X93090000Y-82751000D01*
X93070483Y-82747118D01*
X93053938Y-82736062D01*
X93042882Y-82719517D01*
X93039000Y-82700000D01*
X93039000Y-80900000D01*
X93042882Y-80880483D01*
X93053938Y-80863938D01*
X93070483Y-80852882D01*
X93090000Y-80849000D01*
X94890000Y-80849000D01*
X94909517Y-80852882D01*
G37*
G36*
X96612553Y-80853579D02*
G01*
X96623214Y-80853579D01*
X96664865Y-80861864D01*
X96751916Y-80875651D01*
X96779918Y-80884749D01*
X96806061Y-80889950D01*
X96842956Y-80905232D01*
X96893784Y-80921748D01*
X96941399Y-80946009D01*
X96978298Y-80961293D01*
X97000463Y-80976103D01*
X97026693Y-80989468D01*
X97097990Y-81041268D01*
X97133308Y-81064867D01*
X97140846Y-81072405D01*
X97147370Y-81077145D01*
X97252854Y-81182629D01*
X97257593Y-81189152D01*
X97265133Y-81196692D01*
X97288734Y-81232014D01*
X97340531Y-81303306D01*
X97353894Y-81329533D01*
X97368707Y-81351702D01*
X97383993Y-81388605D01*
X97408251Y-81436215D01*
X97424764Y-81487035D01*
X97440050Y-81523939D01*
X97445251Y-81550086D01*
X97454348Y-81578083D01*
X97468134Y-81665125D01*
X97476421Y-81706786D01*
X97476421Y-81717447D01*
X97477683Y-81725415D01*
X97477683Y-81874584D01*
X97476421Y-81882551D01*
X97476421Y-81893214D01*
X97468133Y-81934877D01*
X97454348Y-82021916D01*
X97445251Y-82049910D01*
X97440050Y-82076061D01*
X97424762Y-82112968D01*
X97408251Y-82163784D01*
X97383995Y-82211388D01*
X97368707Y-82248298D01*
X97353892Y-82270470D01*
X97340531Y-82296693D01*
X97288742Y-82367973D01*
X97265133Y-82403308D01*
X97257591Y-82410849D01*
X97252854Y-82417370D01*
X97147370Y-82522854D01*
X97140849Y-82527591D01*
X97133308Y-82535133D01*
X97097973Y-82558742D01*
X97026693Y-82610531D01*
X97000470Y-82623892D01*
X96978298Y-82638707D01*
X96941388Y-82653995D01*
X96893784Y-82678251D01*
X96842968Y-82694762D01*
X96806061Y-82710050D01*
X96779910Y-82715251D01*
X96751916Y-82724348D01*
X96664875Y-82738133D01*
X96623214Y-82746421D01*
X96612553Y-82746421D01*
X96604585Y-82747683D01*
X96455415Y-82747683D01*
X96447447Y-82746421D01*
X96436786Y-82746421D01*
X96395125Y-82738134D01*
X96308083Y-82724348D01*
X96280086Y-82715251D01*
X96253939Y-82710050D01*
X96217035Y-82694764D01*
X96166215Y-82678251D01*
X96118605Y-82653993D01*
X96081702Y-82638707D01*
X96059533Y-82623894D01*
X96033306Y-82610531D01*
X95962014Y-82558734D01*
X95926692Y-82535133D01*
X95919152Y-82527593D01*
X95912629Y-82522854D01*
X95807145Y-82417370D01*
X95802405Y-82410846D01*
X95794867Y-82403308D01*
X95771268Y-82367990D01*
X95719468Y-82296693D01*
X95706103Y-82270463D01*
X95691293Y-82248298D01*
X95676009Y-82211399D01*
X95651748Y-82163784D01*
X95635232Y-82112956D01*
X95619950Y-82076061D01*
X95614749Y-82049918D01*
X95605651Y-82021916D01*
X95591864Y-81934867D01*
X95583579Y-81893214D01*
X95583579Y-81882552D01*
X95582317Y-81874584D01*
X95582317Y-81725415D01*
X95583579Y-81717446D01*
X95583579Y-81706786D01*
X95591863Y-81665136D01*
X95605651Y-81578083D01*
X95614750Y-81550078D01*
X95619950Y-81523939D01*
X95635231Y-81487046D01*
X95651748Y-81436215D01*
X95676011Y-81388595D01*
X95691293Y-81351702D01*
X95706101Y-81329539D01*
X95719468Y-81303306D01*
X95771277Y-81231996D01*
X95794867Y-81196692D01*
X95802402Y-81189156D01*
X95807145Y-81182629D01*
X95912629Y-81077145D01*
X95919156Y-81072402D01*
X95926692Y-81064867D01*
X95961996Y-81041277D01*
X96033306Y-80989468D01*
X96059539Y-80976101D01*
X96081702Y-80961293D01*
X96118595Y-80946011D01*
X96166215Y-80921748D01*
X96217046Y-80905231D01*
X96253939Y-80889950D01*
X96280078Y-80884750D01*
X96308083Y-80875651D01*
X96395136Y-80861863D01*
X96436786Y-80853579D01*
X96447447Y-80853579D01*
X96455415Y-80852317D01*
X96604585Y-80852317D01*
X96612553Y-80853579D01*
G37*
G36*
X67327032Y-80185644D02*
G01*
X67481159Y-80249485D01*
X67619869Y-80342168D01*
X67737832Y-80460131D01*
X67830515Y-80598841D01*
X67894356Y-80752968D01*
X67926902Y-80916587D01*
X67926902Y-81083413D01*
X67894356Y-81247032D01*
X67830515Y-81401159D01*
X67737832Y-81539869D01*
X67619869Y-81657832D01*
X67481159Y-81750515D01*
X67327032Y-81814356D01*
X67163413Y-81846902D01*
X66996587Y-81846902D01*
X66832968Y-81814356D01*
X66678841Y-81750515D01*
X66540131Y-81657832D01*
X66422168Y-81539869D01*
X66329485Y-81401159D01*
X66265644Y-81247032D01*
X66233098Y-81083413D01*
X66233098Y-80916587D01*
X66265644Y-80752968D01*
X66329485Y-80598841D01*
X66422168Y-80460131D01*
X66540131Y-80342168D01*
X66678841Y-80249485D01*
X66832968Y-80185644D01*
X66996587Y-80153098D01*
X67163413Y-80153098D01*
X67327032Y-80185644D01*
G37*
G36*
X78747224Y-80185322D02*
G01*
X78901351Y-80249163D01*
X79040061Y-80341846D01*
X79158024Y-80459809D01*
X79250707Y-80598519D01*
X79314548Y-80752646D01*
X79347094Y-80916265D01*
X79347094Y-81083091D01*
X79314548Y-81246710D01*
X79250707Y-81400837D01*
X79158024Y-81539547D01*
X79040061Y-81657510D01*
X78901351Y-81750193D01*
X78747224Y-81814034D01*
X78583605Y-81846580D01*
X78416779Y-81846580D01*
X78253160Y-81814034D01*
X78099033Y-81750193D01*
X77960323Y-81657510D01*
X77842360Y-81539547D01*
X77749677Y-81400837D01*
X77685836Y-81246710D01*
X77653290Y-81083091D01*
X77653290Y-80916265D01*
X77685836Y-80752646D01*
X77749677Y-80598519D01*
X77842360Y-80459809D01*
X77960323Y-80341846D01*
X78099033Y-80249163D01*
X78253160Y-80185322D01*
X78416779Y-80152776D01*
X78583605Y-80152776D01*
X78747224Y-80185322D01*
G37*
G36*
X91447224Y-80185322D02*
G01*
X91601351Y-80249163D01*
X91740061Y-80341846D01*
X91858024Y-80459809D01*
X91950707Y-80598519D01*
X92014548Y-80752646D01*
X92047094Y-80916265D01*
X92047094Y-81083091D01*
X92014548Y-81246710D01*
X91950707Y-81400837D01*
X91858024Y-81539547D01*
X91740061Y-81657510D01*
X91601351Y-81750193D01*
X91447224Y-81814034D01*
X91283605Y-81846580D01*
X91116779Y-81846580D01*
X90953160Y-81814034D01*
X90799033Y-81750193D01*
X90660323Y-81657510D01*
X90542360Y-81539547D01*
X90449677Y-81400837D01*
X90385836Y-81246710D01*
X90353290Y-81083091D01*
X90353290Y-80916265D01*
X90385836Y-80752646D01*
X90449677Y-80598519D01*
X90542360Y-80459809D01*
X90660323Y-80341846D01*
X90799033Y-80249163D01*
X90953160Y-80185322D01*
X91116779Y-80152776D01*
X91283605Y-80152776D01*
X91447224Y-80185322D01*
G37*
G36*
X62887032Y-80165644D02*
G01*
X63041159Y-80229485D01*
X63179869Y-80322168D01*
X63297832Y-80440131D01*
X63390515Y-80578841D01*
X63454356Y-80732968D01*
X63486902Y-80896587D01*
X63486902Y-81063413D01*
X63454356Y-81227032D01*
X63390515Y-81381159D01*
X63297832Y-81519869D01*
X63179869Y-81637832D01*
X63041159Y-81730515D01*
X62887032Y-81794356D01*
X62723413Y-81826902D01*
X62556587Y-81826902D01*
X62392968Y-81794356D01*
X62238841Y-81730515D01*
X62100131Y-81637832D01*
X61982168Y-81519869D01*
X61889485Y-81381159D01*
X61825644Y-81227032D01*
X61793098Y-81063413D01*
X61793098Y-80896587D01*
X61825644Y-80732968D01*
X61889485Y-80578841D01*
X61982168Y-80440131D01*
X62100131Y-80322168D01*
X62238841Y-80229485D01*
X62392968Y-80165644D01*
X62556587Y-80133098D01*
X62723413Y-80133098D01*
X62887032Y-80165644D01*
G37*
G36*
X71707032Y-80155644D02*
G01*
X71861159Y-80219485D01*
X71999869Y-80312168D01*
X72117832Y-80430131D01*
X72210515Y-80568841D01*
X72274356Y-80722968D01*
X72306902Y-80886587D01*
X72306902Y-81053413D01*
X72274356Y-81217032D01*
X72210515Y-81371159D01*
X72117832Y-81509869D01*
X71999869Y-81627832D01*
X71861159Y-81720515D01*
X71707032Y-81784356D01*
X71543413Y-81816902D01*
X71376587Y-81816902D01*
X71212968Y-81784356D01*
X71058841Y-81720515D01*
X70920131Y-81627832D01*
X70802168Y-81509869D01*
X70709485Y-81371159D01*
X70645644Y-81217032D01*
X70613098Y-81053413D01*
X70613098Y-80886587D01*
X70645644Y-80722968D01*
X70709485Y-80568841D01*
X70802168Y-80430131D01*
X70920131Y-80312168D01*
X71058841Y-80219485D01*
X71212968Y-80155644D01*
X71376587Y-80123098D01*
X71543413Y-80123098D01*
X71707032Y-80155644D01*
G37*
G36*
X57447032Y-80135644D02*
G01*
X57601159Y-80199485D01*
X57739869Y-80292168D01*
X57857832Y-80410131D01*
X57950515Y-80548841D01*
X58014356Y-80702968D01*
X58046902Y-80866587D01*
X58046902Y-81033413D01*
X58014356Y-81197032D01*
X57950515Y-81351159D01*
X57857832Y-81489869D01*
X57739869Y-81607832D01*
X57601159Y-81700515D01*
X57447032Y-81764356D01*
X57283413Y-81796902D01*
X57116587Y-81796902D01*
X56952968Y-81764356D01*
X56798841Y-81700515D01*
X56660131Y-81607832D01*
X56542168Y-81489869D01*
X56449485Y-81351159D01*
X56385644Y-81197032D01*
X56353098Y-81033413D01*
X56353098Y-80866587D01*
X56385644Y-80702968D01*
X56449485Y-80548841D01*
X56542168Y-80410131D01*
X56660131Y-80292168D01*
X56798841Y-80199485D01*
X56952968Y-80135644D01*
X57116587Y-80103098D01*
X57283413Y-80103098D01*
X57447032Y-80135644D01*
G37*
G36*
X131241498Y-79594061D02*
G01*
X131253016Y-79594061D01*
X131298023Y-79603013D01*
X131395260Y-79618414D01*
X131426536Y-79628576D01*
X131455089Y-79634256D01*
X131495387Y-79650948D01*
X131552052Y-79669360D01*
X131605135Y-79696407D01*
X131645438Y-79713101D01*
X131669647Y-79729277D01*
X131698943Y-79744204D01*
X131778583Y-79802066D01*
X131816747Y-79827566D01*
X131824891Y-79835710D01*
X131832315Y-79841104D01*
X131948895Y-79957684D01*
X131954288Y-79965107D01*
X131962434Y-79973253D01*
X131987936Y-80011420D01*
X132045795Y-80091056D01*
X132060720Y-80120348D01*
X132076899Y-80144562D01*
X132093594Y-80184869D01*
X132120639Y-80237947D01*
X132139048Y-80294604D01*
X132155744Y-80334911D01*
X132161424Y-80363469D01*
X132171585Y-80394739D01*
X132186984Y-80491967D01*
X132195939Y-80536984D01*
X132195939Y-80548502D01*
X132197375Y-80557569D01*
X132197375Y-80722430D01*
X132195939Y-80731496D01*
X132195939Y-80743016D01*
X132186983Y-80788035D01*
X132171585Y-80885260D01*
X132161425Y-80916528D01*
X132155744Y-80945089D01*
X132139047Y-80985398D01*
X132120639Y-81042052D01*
X132093596Y-81095125D01*
X132076899Y-81135438D01*
X132060718Y-81159654D01*
X132045795Y-81188943D01*
X131987945Y-81268566D01*
X131962434Y-81306747D01*
X131954285Y-81314895D01*
X131948895Y-81322315D01*
X131832315Y-81438895D01*
X131824895Y-81444285D01*
X131816747Y-81452434D01*
X131778566Y-81477945D01*
X131698943Y-81535795D01*
X131669654Y-81550718D01*
X131645438Y-81566899D01*
X131605125Y-81583596D01*
X131552052Y-81610639D01*
X131495398Y-81629047D01*
X131455089Y-81645744D01*
X131426528Y-81651425D01*
X131395260Y-81661585D01*
X131298033Y-81676984D01*
X131253016Y-81685939D01*
X131241497Y-81685939D01*
X131232431Y-81687375D01*
X131067569Y-81687375D01*
X131058503Y-81685939D01*
X131046984Y-81685939D01*
X131001967Y-81676984D01*
X130904739Y-81661585D01*
X130873469Y-81651424D01*
X130844911Y-81645744D01*
X130804604Y-81629048D01*
X130747947Y-81610639D01*
X130694869Y-81583594D01*
X130654562Y-81566899D01*
X130630348Y-81550720D01*
X130601056Y-81535795D01*
X130521420Y-81477936D01*
X130483253Y-81452434D01*
X130475107Y-81444288D01*
X130467684Y-81438895D01*
X130351104Y-81322315D01*
X130345710Y-81314891D01*
X130337566Y-81306747D01*
X130312066Y-81268583D01*
X130254204Y-81188943D01*
X130239277Y-81159647D01*
X130223101Y-81135438D01*
X130206407Y-81095135D01*
X130179360Y-81042052D01*
X130160948Y-80985387D01*
X130144256Y-80945089D01*
X130138576Y-80916536D01*
X130128414Y-80885260D01*
X130113014Y-80788026D01*
X130104061Y-80743016D01*
X130104061Y-80731496D01*
X130102625Y-80722430D01*
X130102625Y-80557569D01*
X130104061Y-80548502D01*
X130104061Y-80536984D01*
X130113013Y-80491977D01*
X130128414Y-80394739D01*
X130138576Y-80363461D01*
X130144256Y-80334911D01*
X130160946Y-80294616D01*
X130179360Y-80237947D01*
X130206409Y-80184858D01*
X130223101Y-80144562D01*
X130239275Y-80120355D01*
X130254204Y-80091056D01*
X130312074Y-80011403D01*
X130337566Y-79973253D01*
X130345707Y-79965111D01*
X130351104Y-79957684D01*
X130467684Y-79841104D01*
X130475111Y-79835707D01*
X130483253Y-79827566D01*
X130521403Y-79802074D01*
X130601056Y-79744204D01*
X130630355Y-79729275D01*
X130654562Y-79713101D01*
X130694858Y-79696409D01*
X130747947Y-79669360D01*
X130804616Y-79650946D01*
X130844911Y-79634256D01*
X130873461Y-79628576D01*
X130904739Y-79618414D01*
X131001977Y-79603013D01*
X131046984Y-79594061D01*
X131058502Y-79594061D01*
X131067569Y-79592625D01*
X131232431Y-79592625D01*
X131241498Y-79594061D01*
G37*
G36*
X120656373Y-75957024D02*
G01*
X120919558Y-76027545D01*
X121171287Y-76131814D01*
X121407253Y-76268049D01*
X121623417Y-76433918D01*
X121816082Y-76626583D01*
X121981951Y-76842747D01*
X122118186Y-77078713D01*
X122222455Y-77330442D01*
X122292976Y-77593627D01*
X122328540Y-77863765D01*
X122328540Y-78136235D01*
X122292976Y-78406373D01*
X122222455Y-78669558D01*
X122118186Y-78921287D01*
X121981951Y-79157253D01*
X121816082Y-79373417D01*
X121623417Y-79566082D01*
X121407253Y-79731951D01*
X121171287Y-79868186D01*
X120919558Y-79972455D01*
X120656373Y-80042976D01*
X120386235Y-80078540D01*
X120113765Y-80078540D01*
X119843627Y-80042976D01*
X119580442Y-79972455D01*
X119328713Y-79868186D01*
X119092747Y-79731951D01*
X118876583Y-79566082D01*
X118683918Y-79373417D01*
X118518049Y-79157253D01*
X118381814Y-78921287D01*
X118277545Y-78669558D01*
X118207024Y-78406373D01*
X118171460Y-78136235D01*
X118171460Y-77863765D01*
X118207024Y-77593627D01*
X118277545Y-77330442D01*
X118381814Y-77078713D01*
X118518049Y-76842747D01*
X118683918Y-76626583D01*
X118876583Y-76433918D01*
X119092747Y-76268049D01*
X119328713Y-76131814D01*
X119580442Y-76027545D01*
X119843627Y-75957024D01*
X120113765Y-75921460D01*
X120386235Y-75921460D01*
X120656373Y-75957024D01*
G37*
G36*
X96587032Y-76515644D02*
G01*
X96741159Y-76579485D01*
X96879869Y-76672168D01*
X96997832Y-76790131D01*
X97090515Y-76928841D01*
X97154356Y-77082968D01*
X97186902Y-77246587D01*
X97186902Y-77413413D01*
X97154356Y-77577032D01*
X97090515Y-77731159D01*
X96997832Y-77869869D01*
X96879869Y-77987832D01*
X96741159Y-78080515D01*
X96587032Y-78144356D01*
X96423413Y-78176902D01*
X96256587Y-78176902D01*
X96092968Y-78144356D01*
X95938841Y-78080515D01*
X95800131Y-77987832D01*
X95682168Y-77869869D01*
X95589485Y-77731159D01*
X95525644Y-77577032D01*
X95493098Y-77413413D01*
X95493098Y-77246587D01*
X95525644Y-77082968D01*
X95589485Y-76928841D01*
X95682168Y-76790131D01*
X95800131Y-76672168D01*
X95938841Y-76579485D01*
X96092968Y-76515644D01*
X96256587Y-76483098D01*
X96423413Y-76483098D01*
X96587032Y-76515644D01*
G37*
G36*
X92057032Y-76505644D02*
G01*
X92211159Y-76569485D01*
X92349869Y-76662168D01*
X92467832Y-76780131D01*
X92560515Y-76918841D01*
X92624356Y-77072968D01*
X92656902Y-77236587D01*
X92656902Y-77403413D01*
X92624356Y-77567032D01*
X92560515Y-77721159D01*
X92467832Y-77859869D01*
X92349869Y-77977832D01*
X92211159Y-78070515D01*
X92057032Y-78134356D01*
X91893413Y-78166902D01*
X91726587Y-78166902D01*
X91562968Y-78134356D01*
X91408841Y-78070515D01*
X91270131Y-77977832D01*
X91152168Y-77859869D01*
X91059485Y-77721159D01*
X90995644Y-77567032D01*
X90963098Y-77403413D01*
X90963098Y-77236587D01*
X90995644Y-77072968D01*
X91059485Y-76918841D01*
X91152168Y-76780131D01*
X91270131Y-76662168D01*
X91408841Y-76569485D01*
X91562968Y-76505644D01*
X91726587Y-76473098D01*
X91893413Y-76473098D01*
X92057032Y-76505644D01*
G37*
G36*
X78983413Y-75053098D02*
G01*
X79147032Y-75085644D01*
X79301159Y-75149485D01*
X79439869Y-75242168D01*
X79557832Y-75360131D01*
X79650515Y-75498841D01*
X79714356Y-75652968D01*
X79746902Y-75816587D01*
X79746902Y-75983413D01*
X79714356Y-76147032D01*
X79650515Y-76301159D01*
X79557832Y-76439869D01*
X79439869Y-76557832D01*
X79301159Y-76650515D01*
X79147032Y-76714356D01*
X78983413Y-76746902D01*
X78900000Y-76751000D01*
X78896939Y-76751000D01*
X78103061Y-76751000D01*
X78100000Y-76751000D01*
X78016587Y-76746902D01*
X77852968Y-76714356D01*
X77698841Y-76650515D01*
X77560131Y-76557832D01*
X77442168Y-76439869D01*
X77349485Y-76301159D01*
X77285644Y-76147032D01*
X77253098Y-75983413D01*
X77253098Y-75816587D01*
X77285644Y-75652968D01*
X77349485Y-75498841D01*
X77442168Y-75360131D01*
X77560131Y-75242168D01*
X77698841Y-75149485D01*
X77852968Y-75085644D01*
X78016587Y-75053098D01*
X78100000Y-75049000D01*
X78900000Y-75049000D01*
X78983413Y-75053098D01*
G37*
G36*
X86603413Y-75053098D02*
G01*
X86767032Y-75085644D01*
X86921159Y-75149485D01*
X87059869Y-75242168D01*
X87177832Y-75360131D01*
X87270515Y-75498841D01*
X87334356Y-75652968D01*
X87366902Y-75816587D01*
X87366902Y-75983413D01*
X87334356Y-76147032D01*
X87270515Y-76301159D01*
X87177832Y-76439869D01*
X87059869Y-76557832D01*
X86921159Y-76650515D01*
X86767032Y-76714356D01*
X86603413Y-76746902D01*
X86520000Y-76751000D01*
X86516939Y-76751000D01*
X85723061Y-76751000D01*
X85720000Y-76751000D01*
X85636587Y-76746902D01*
X85472968Y-76714356D01*
X85318841Y-76650515D01*
X85180131Y-76557832D01*
X85062168Y-76439869D01*
X84969485Y-76301159D01*
X84905644Y-76147032D01*
X84873098Y-75983413D01*
X84873098Y-75816587D01*
X84905644Y-75652968D01*
X84969485Y-75498841D01*
X85062168Y-75360131D01*
X85180131Y-75242168D01*
X85318841Y-75149485D01*
X85472968Y-75085644D01*
X85636587Y-75053098D01*
X85720000Y-75049000D01*
X86520000Y-75049000D01*
X86603413Y-75053098D01*
G37*
G36*
X131241498Y-74514061D02*
G01*
X131253016Y-74514061D01*
X131298023Y-74523013D01*
X131395260Y-74538414D01*
X131426536Y-74548576D01*
X131455089Y-74554256D01*
X131495387Y-74570948D01*
X131552052Y-74589360D01*
X131605135Y-74616407D01*
X131645438Y-74633101D01*
X131669647Y-74649277D01*
X131698943Y-74664204D01*
X131778583Y-74722066D01*
X131816747Y-74747566D01*
X131824891Y-74755710D01*
X131832315Y-74761104D01*
X131948895Y-74877684D01*
X131954288Y-74885107D01*
X131962434Y-74893253D01*
X131987936Y-74931420D01*
X132045795Y-75011056D01*
X132060720Y-75040348D01*
X132076899Y-75064562D01*
X132093594Y-75104869D01*
X132120639Y-75157947D01*
X132139048Y-75214604D01*
X132155744Y-75254911D01*
X132161424Y-75283469D01*
X132171585Y-75314739D01*
X132186984Y-75411967D01*
X132195939Y-75456984D01*
X132195939Y-75468502D01*
X132197375Y-75477569D01*
X132197375Y-75642430D01*
X132195939Y-75651496D01*
X132195939Y-75663016D01*
X132186983Y-75708035D01*
X132171585Y-75805260D01*
X132161425Y-75836528D01*
X132155744Y-75865089D01*
X132139047Y-75905398D01*
X132120639Y-75962052D01*
X132093596Y-76015125D01*
X132076899Y-76055438D01*
X132060718Y-76079654D01*
X132045795Y-76108943D01*
X131987945Y-76188566D01*
X131962434Y-76226747D01*
X131954285Y-76234895D01*
X131948895Y-76242315D01*
X131832315Y-76358895D01*
X131824895Y-76364285D01*
X131816747Y-76372434D01*
X131778566Y-76397945D01*
X131698943Y-76455795D01*
X131669654Y-76470718D01*
X131645438Y-76486899D01*
X131605125Y-76503596D01*
X131552052Y-76530639D01*
X131495398Y-76549047D01*
X131455089Y-76565744D01*
X131426528Y-76571425D01*
X131395260Y-76581585D01*
X131298033Y-76596984D01*
X131253016Y-76605939D01*
X131241497Y-76605939D01*
X131232431Y-76607375D01*
X131067569Y-76607375D01*
X131058503Y-76605939D01*
X131046984Y-76605939D01*
X131001967Y-76596984D01*
X130904739Y-76581585D01*
X130873469Y-76571424D01*
X130844911Y-76565744D01*
X130804604Y-76549048D01*
X130747947Y-76530639D01*
X130694869Y-76503594D01*
X130654562Y-76486899D01*
X130630348Y-76470720D01*
X130601056Y-76455795D01*
X130521420Y-76397936D01*
X130483253Y-76372434D01*
X130475107Y-76364288D01*
X130467684Y-76358895D01*
X130351104Y-76242315D01*
X130345710Y-76234891D01*
X130337566Y-76226747D01*
X130312066Y-76188583D01*
X130254204Y-76108943D01*
X130239277Y-76079647D01*
X130223101Y-76055438D01*
X130206407Y-76015135D01*
X130179360Y-75962052D01*
X130160948Y-75905387D01*
X130144256Y-75865089D01*
X130138576Y-75836536D01*
X130128414Y-75805260D01*
X130113014Y-75708026D01*
X130104061Y-75663016D01*
X130104061Y-75651496D01*
X130102625Y-75642430D01*
X130102625Y-75477569D01*
X130104061Y-75468502D01*
X130104061Y-75456984D01*
X130113013Y-75411977D01*
X130128414Y-75314739D01*
X130138576Y-75283461D01*
X130144256Y-75254911D01*
X130160946Y-75214616D01*
X130179360Y-75157947D01*
X130206409Y-75104858D01*
X130223101Y-75064562D01*
X130239275Y-75040355D01*
X130254204Y-75011056D01*
X130312074Y-74931403D01*
X130337566Y-74893253D01*
X130345707Y-74885111D01*
X130351104Y-74877684D01*
X130467684Y-74761104D01*
X130475111Y-74755707D01*
X130483253Y-74747566D01*
X130521403Y-74722074D01*
X130601056Y-74664204D01*
X130630355Y-74649275D01*
X130654562Y-74633101D01*
X130694858Y-74616409D01*
X130747947Y-74589360D01*
X130804616Y-74570946D01*
X130844911Y-74554256D01*
X130873461Y-74548576D01*
X130904739Y-74538414D01*
X131001977Y-74523013D01*
X131046984Y-74514061D01*
X131058502Y-74514061D01*
X131067569Y-74512625D01*
X131232431Y-74512625D01*
X131241498Y-74514061D01*
G37*
G36*
X47247032Y-73435644D02*
G01*
X47401159Y-73499485D01*
X47539869Y-73592168D01*
X47657832Y-73710131D01*
X47750515Y-73848841D01*
X47814356Y-74002968D01*
X47846902Y-74166587D01*
X47846902Y-74333413D01*
X47814356Y-74497032D01*
X47750515Y-74651159D01*
X47657832Y-74789869D01*
X47539869Y-74907832D01*
X47401159Y-75000515D01*
X47247032Y-75064356D01*
X47083413Y-75096902D01*
X46916587Y-75096902D01*
X46752968Y-75064356D01*
X46598841Y-75000515D01*
X46460131Y-74907832D01*
X46342168Y-74789869D01*
X46249485Y-74651159D01*
X46185644Y-74497032D01*
X46153098Y-74333413D01*
X46153098Y-74166587D01*
X46185644Y-74002968D01*
X46249485Y-73848841D01*
X46342168Y-73710131D01*
X46460131Y-73592168D01*
X46598841Y-73499485D01*
X46752968Y-73435644D01*
X46916587Y-73403098D01*
X47083413Y-73403098D01*
X47247032Y-73435644D01*
G37*
G36*
X78983413Y-72513098D02*
G01*
X79147032Y-72545644D01*
X79301159Y-72609485D01*
X79439869Y-72702168D01*
X79557832Y-72820131D01*
X79650515Y-72958841D01*
X79714356Y-73112968D01*
X79746902Y-73276587D01*
X79746902Y-73443413D01*
X79714356Y-73607032D01*
X79650515Y-73761159D01*
X79557832Y-73899869D01*
X79439869Y-74017832D01*
X79301159Y-74110515D01*
X79147032Y-74174356D01*
X78983413Y-74206902D01*
X78900000Y-74211000D01*
X78896939Y-74211000D01*
X78103061Y-74211000D01*
X78100000Y-74211000D01*
X78016587Y-74206902D01*
X77852968Y-74174356D01*
X77698841Y-74110515D01*
X77560131Y-74017832D01*
X77442168Y-73899869D01*
X77349485Y-73761159D01*
X77285644Y-73607032D01*
X77253098Y-73443413D01*
X77253098Y-73276587D01*
X77285644Y-73112968D01*
X77349485Y-72958841D01*
X77442168Y-72820131D01*
X77560131Y-72702168D01*
X77698841Y-72609485D01*
X77852968Y-72545644D01*
X78016587Y-72513098D01*
X78100000Y-72509000D01*
X78900000Y-72509000D01*
X78983413Y-72513098D01*
G37*
G36*
X86603413Y-72513098D02*
G01*
X86767032Y-72545644D01*
X86921159Y-72609485D01*
X87059869Y-72702168D01*
X87177832Y-72820131D01*
X87270515Y-72958841D01*
X87334356Y-73112968D01*
X87366902Y-73276587D01*
X87366902Y-73443413D01*
X87334356Y-73607032D01*
X87270515Y-73761159D01*
X87177832Y-73899869D01*
X87059869Y-74017832D01*
X86921159Y-74110515D01*
X86767032Y-74174356D01*
X86603413Y-74206902D01*
X86520000Y-74211000D01*
X86516939Y-74211000D01*
X85723061Y-74211000D01*
X85720000Y-74211000D01*
X85636587Y-74206902D01*
X85472968Y-74174356D01*
X85318841Y-74110515D01*
X85180131Y-74017832D01*
X85062168Y-73899869D01*
X84969485Y-73761159D01*
X84905644Y-73607032D01*
X84873098Y-73443413D01*
X84873098Y-73276587D01*
X84905644Y-73112968D01*
X84969485Y-72958841D01*
X85062168Y-72820131D01*
X85180131Y-72702168D01*
X85318841Y-72609485D01*
X85472968Y-72545644D01*
X85636587Y-72513098D01*
X85720000Y-72509000D01*
X86520000Y-72509000D01*
X86603413Y-72513098D01*
G37*
G36*
X105918914Y-69231995D02*
G01*
X105934726Y-69238976D01*
X105942531Y-69240213D01*
X105975039Y-69256776D01*
X106020106Y-69276676D01*
X106098324Y-69354894D01*
X106118226Y-69399967D01*
X106134786Y-69432468D01*
X106136021Y-69440270D01*
X106143005Y-69456086D01*
X106151000Y-69525000D01*
X106151000Y-72225000D01*
X106143005Y-72293914D01*
X106136021Y-72309729D01*
X106134786Y-72317531D01*
X106118229Y-72350024D01*
X106098324Y-72395106D01*
X106020106Y-72473324D01*
X105975024Y-72493229D01*
X105942531Y-72509786D01*
X105934729Y-72511021D01*
X105918914Y-72518005D01*
X105850000Y-72526000D01*
X103150000Y-72526000D01*
X103081086Y-72518005D01*
X103065270Y-72511021D01*
X103057468Y-72509786D01*
X103024967Y-72493226D01*
X102979894Y-72473324D01*
X102901676Y-72395106D01*
X102881776Y-72350039D01*
X102865213Y-72317531D01*
X102863976Y-72309726D01*
X102856995Y-72293914D01*
X102849000Y-72225000D01*
X102849000Y-69525000D01*
X102856995Y-69456086D01*
X102863976Y-69440274D01*
X102865213Y-69432468D01*
X102881780Y-69399953D01*
X102901676Y-69354894D01*
X102979894Y-69276676D01*
X103024953Y-69256780D01*
X103057468Y-69240213D01*
X103065274Y-69238976D01*
X103081086Y-69231995D01*
X103150000Y-69224000D01*
X105850000Y-69224000D01*
X105918914Y-69231995D01*
G37*
G36*
X111918914Y-69231995D02*
G01*
X111934726Y-69238976D01*
X111942531Y-69240213D01*
X111975039Y-69256776D01*
X112020106Y-69276676D01*
X112098324Y-69354894D01*
X112118226Y-69399967D01*
X112134786Y-69432468D01*
X112136021Y-69440270D01*
X112143005Y-69456086D01*
X112151000Y-69525000D01*
X112151000Y-72225000D01*
X112143005Y-72293914D01*
X112136021Y-72309729D01*
X112134786Y-72317531D01*
X112118229Y-72350024D01*
X112098324Y-72395106D01*
X112020106Y-72473324D01*
X111975024Y-72493229D01*
X111942531Y-72509786D01*
X111934729Y-72511021D01*
X111918914Y-72518005D01*
X111850000Y-72526000D01*
X109150000Y-72526000D01*
X109081086Y-72518005D01*
X109065270Y-72511021D01*
X109057468Y-72509786D01*
X109024967Y-72493226D01*
X108979894Y-72473324D01*
X108901676Y-72395106D01*
X108881776Y-72350039D01*
X108865213Y-72317531D01*
X108863976Y-72309726D01*
X108856995Y-72293914D01*
X108849000Y-72225000D01*
X108849000Y-69525000D01*
X108856995Y-69456086D01*
X108863976Y-69440274D01*
X108865213Y-69432468D01*
X108881780Y-69399953D01*
X108901676Y-69354894D01*
X108979894Y-69276676D01*
X109024953Y-69256780D01*
X109057468Y-69240213D01*
X109065274Y-69238976D01*
X109081086Y-69231995D01*
X109150000Y-69224000D01*
X111850000Y-69224000D01*
X111918914Y-69231995D01*
G37*
G36*
X78983413Y-69973098D02*
G01*
X79147032Y-70005644D01*
X79301159Y-70069485D01*
X79439869Y-70162168D01*
X79557832Y-70280131D01*
X79650515Y-70418841D01*
X79714356Y-70572968D01*
X79746902Y-70736587D01*
X79746902Y-70903413D01*
X79714356Y-71067032D01*
X79650515Y-71221159D01*
X79557832Y-71359869D01*
X79439869Y-71477832D01*
X79301159Y-71570515D01*
X79147032Y-71634356D01*
X78983413Y-71666902D01*
X78900000Y-71671000D01*
X78896939Y-71671000D01*
X78103061Y-71671000D01*
X78100000Y-71671000D01*
X78016587Y-71666902D01*
X77852968Y-71634356D01*
X77698841Y-71570515D01*
X77560131Y-71477832D01*
X77442168Y-71359869D01*
X77349485Y-71221159D01*
X77285644Y-71067032D01*
X77253098Y-70903413D01*
X77253098Y-70736587D01*
X77285644Y-70572968D01*
X77349485Y-70418841D01*
X77442168Y-70280131D01*
X77560131Y-70162168D01*
X77698841Y-70069485D01*
X77852968Y-70005644D01*
X78016587Y-69973098D01*
X78100000Y-69969000D01*
X78900000Y-69969000D01*
X78983413Y-69973098D01*
G37*
G36*
X86603413Y-69973098D02*
G01*
X86767032Y-70005644D01*
X86921159Y-70069485D01*
X87059869Y-70162168D01*
X87177832Y-70280131D01*
X87270515Y-70418841D01*
X87334356Y-70572968D01*
X87366902Y-70736587D01*
X87366902Y-70903413D01*
X87334356Y-71067032D01*
X87270515Y-71221159D01*
X87177832Y-71359869D01*
X87059869Y-71477832D01*
X86921159Y-71570515D01*
X86767032Y-71634356D01*
X86603413Y-71666902D01*
X86520000Y-71671000D01*
X86516939Y-71671000D01*
X85723061Y-71671000D01*
X85720000Y-71671000D01*
X85636587Y-71666902D01*
X85472968Y-71634356D01*
X85318841Y-71570515D01*
X85180131Y-71477832D01*
X85062168Y-71359869D01*
X84969485Y-71221159D01*
X84905644Y-71067032D01*
X84873098Y-70903413D01*
X84873098Y-70736587D01*
X84905644Y-70572968D01*
X84969485Y-70418841D01*
X85062168Y-70280131D01*
X85180131Y-70162168D01*
X85318841Y-70069485D01*
X85472968Y-70005644D01*
X85636587Y-69973098D01*
X85720000Y-69969000D01*
X86520000Y-69969000D01*
X86603413Y-69973098D01*
G37*
G36*
X42406373Y-65457024D02*
G01*
X42669558Y-65527545D01*
X42921287Y-65631814D01*
X43157253Y-65768049D01*
X43373417Y-65933918D01*
X43566082Y-66126583D01*
X43731951Y-66342747D01*
X43868186Y-66578713D01*
X43972455Y-66830442D01*
X44042976Y-67093627D01*
X44078540Y-67363765D01*
X44078540Y-67636235D01*
X44042976Y-67906373D01*
X43972455Y-68169558D01*
X43868186Y-68421287D01*
X43731951Y-68657253D01*
X43566082Y-68873417D01*
X43373417Y-69066082D01*
X43157253Y-69231951D01*
X42921287Y-69368186D01*
X42669558Y-69472455D01*
X42406373Y-69542976D01*
X42136235Y-69578540D01*
X41863765Y-69578540D01*
X41593627Y-69542976D01*
X41330442Y-69472455D01*
X41078713Y-69368186D01*
X40842747Y-69231951D01*
X40626583Y-69066082D01*
X40433918Y-68873417D01*
X40268049Y-68657253D01*
X40131814Y-68421287D01*
X40027545Y-68169558D01*
X39957024Y-67906373D01*
X39921460Y-67636235D01*
X39921460Y-67363765D01*
X39957024Y-67093627D01*
X40027545Y-66830442D01*
X40131814Y-66578713D01*
X40268049Y-66342747D01*
X40433918Y-66126583D01*
X40626583Y-65933918D01*
X40842747Y-65768049D01*
X41078713Y-65631814D01*
X41330442Y-65527545D01*
X41593627Y-65457024D01*
X41863765Y-65421460D01*
X42136235Y-65421460D01*
X42406373Y-65457024D01*
G37*
G36*
X67327032Y-67485644D02*
G01*
X67481159Y-67549485D01*
X67619869Y-67642168D01*
X67737832Y-67760131D01*
X67830515Y-67898841D01*
X67894356Y-68052968D01*
X67926902Y-68216587D01*
X67926902Y-68383413D01*
X67894356Y-68547032D01*
X67830515Y-68701159D01*
X67737832Y-68839869D01*
X67619869Y-68957832D01*
X67481159Y-69050515D01*
X67327032Y-69114356D01*
X67163413Y-69146902D01*
X66996587Y-69146902D01*
X66832968Y-69114356D01*
X66678841Y-69050515D01*
X66540131Y-68957832D01*
X66422168Y-68839869D01*
X66329485Y-68701159D01*
X66265644Y-68547032D01*
X66233098Y-68383413D01*
X66233098Y-68216587D01*
X66265644Y-68052968D01*
X66329485Y-67898841D01*
X66422168Y-67760131D01*
X66540131Y-67642168D01*
X66678841Y-67549485D01*
X66832968Y-67485644D01*
X66996587Y-67453098D01*
X67163413Y-67453098D01*
X67327032Y-67485644D01*
G37*
G36*
X79518914Y-67436995D02*
G01*
X79534726Y-67443976D01*
X79542531Y-67445213D01*
X79575039Y-67461776D01*
X79620106Y-67481676D01*
X79698324Y-67559894D01*
X79718226Y-67604967D01*
X79734786Y-67637468D01*
X79736021Y-67645270D01*
X79743005Y-67661086D01*
X79751000Y-67730000D01*
X79751000Y-68830000D01*
X79743005Y-68898914D01*
X79736021Y-68914729D01*
X79734786Y-68922531D01*
X79718229Y-68955024D01*
X79698324Y-69000106D01*
X79620106Y-69078324D01*
X79575024Y-69098229D01*
X79542531Y-69114786D01*
X79534729Y-69116021D01*
X79518914Y-69123005D01*
X79450000Y-69131000D01*
X77550000Y-69131000D01*
X77481086Y-69123005D01*
X77465270Y-69116021D01*
X77457468Y-69114786D01*
X77424967Y-69098226D01*
X77379894Y-69078324D01*
X77301676Y-69000106D01*
X77281776Y-68955039D01*
X77265213Y-68922531D01*
X77263976Y-68914726D01*
X77256995Y-68898914D01*
X77249000Y-68830000D01*
X77249000Y-67730000D01*
X77256995Y-67661086D01*
X77263976Y-67645274D01*
X77265213Y-67637468D01*
X77281780Y-67604953D01*
X77301676Y-67559894D01*
X77379894Y-67481676D01*
X77424953Y-67461780D01*
X77457468Y-67445213D01*
X77465274Y-67443976D01*
X77481086Y-67436995D01*
X77550000Y-67429000D01*
X79450000Y-67429000D01*
X79518914Y-67436995D01*
G37*
G36*
X86603413Y-67433098D02*
G01*
X86767032Y-67465644D01*
X86921159Y-67529485D01*
X87059869Y-67622168D01*
X87177832Y-67740131D01*
X87270515Y-67878841D01*
X87334356Y-68032968D01*
X87366902Y-68196587D01*
X87366902Y-68363413D01*
X87334356Y-68527032D01*
X87270515Y-68681159D01*
X87177832Y-68819869D01*
X87059869Y-68937832D01*
X86921159Y-69030515D01*
X86767032Y-69094356D01*
X86603413Y-69126902D01*
X86520000Y-69131000D01*
X86516939Y-69131000D01*
X85723061Y-69131000D01*
X85720000Y-69131000D01*
X85636587Y-69126902D01*
X85472968Y-69094356D01*
X85318841Y-69030515D01*
X85180131Y-68937832D01*
X85062168Y-68819869D01*
X84969485Y-68681159D01*
X84905644Y-68527032D01*
X84873098Y-68363413D01*
X84873098Y-68196587D01*
X84905644Y-68032968D01*
X84969485Y-67878841D01*
X85062168Y-67740131D01*
X85180131Y-67622168D01*
X85318841Y-67529485D01*
X85472968Y-67465644D01*
X85636587Y-67433098D01*
X85720000Y-67429000D01*
X86520000Y-67429000D01*
X86603413Y-67433098D01*
G37*
G36*
X62887032Y-67465644D02*
G01*
X63041159Y-67529485D01*
X63179869Y-67622168D01*
X63297832Y-67740131D01*
X63390515Y-67878841D01*
X63454356Y-68032968D01*
X63486902Y-68196587D01*
X63486902Y-68363413D01*
X63454356Y-68527032D01*
X63390515Y-68681159D01*
X63297832Y-68819869D01*
X63179869Y-68937832D01*
X63041159Y-69030515D01*
X62887032Y-69094356D01*
X62723413Y-69126902D01*
X62556587Y-69126902D01*
X62392968Y-69094356D01*
X62238841Y-69030515D01*
X62100131Y-68937832D01*
X61982168Y-68819869D01*
X61889485Y-68681159D01*
X61825644Y-68527032D01*
X61793098Y-68363413D01*
X61793098Y-68196587D01*
X61825644Y-68032968D01*
X61889485Y-67878841D01*
X61982168Y-67740131D01*
X62100131Y-67622168D01*
X62238841Y-67529485D01*
X62392968Y-67465644D01*
X62556587Y-67433098D01*
X62723413Y-67433098D01*
X62887032Y-67465644D01*
G37*
G36*
X71707032Y-67455644D02*
G01*
X71861159Y-67519485D01*
X71999869Y-67612168D01*
X72117832Y-67730131D01*
X72210515Y-67868841D01*
X72274356Y-68022968D01*
X72306902Y-68186587D01*
X72306902Y-68353413D01*
X72274356Y-68517032D01*
X72210515Y-68671159D01*
X72117832Y-68809869D01*
X71999869Y-68927832D01*
X71861159Y-69020515D01*
X71707032Y-69084356D01*
X71543413Y-69116902D01*
X71376587Y-69116902D01*
X71212968Y-69084356D01*
X71058841Y-69020515D01*
X70920131Y-68927832D01*
X70802168Y-68809869D01*
X70709485Y-68671159D01*
X70645644Y-68517032D01*
X70613098Y-68353413D01*
X70613098Y-68186587D01*
X70645644Y-68022968D01*
X70709485Y-67868841D01*
X70802168Y-67730131D01*
X70920131Y-67612168D01*
X71058841Y-67519485D01*
X71212968Y-67455644D01*
X71376587Y-67423098D01*
X71543413Y-67423098D01*
X71707032Y-67455644D01*
G37*
G36*
X57447032Y-67435644D02*
G01*
X57601159Y-67499485D01*
X57739869Y-67592168D01*
X57857832Y-67710131D01*
X57950515Y-67848841D01*
X58014356Y-68002968D01*
X58046902Y-68166587D01*
X58046902Y-68333413D01*
X58014356Y-68497032D01*
X57950515Y-68651159D01*
X57857832Y-68789869D01*
X57739869Y-68907832D01*
X57601159Y-69000515D01*
X57447032Y-69064356D01*
X57283413Y-69096902D01*
X57116587Y-69096902D01*
X56952968Y-69064356D01*
X56798841Y-69000515D01*
X56660131Y-68907832D01*
X56542168Y-68789869D01*
X56449485Y-68651159D01*
X56385644Y-68497032D01*
X56353098Y-68333413D01*
X56353098Y-68166587D01*
X56385644Y-68002968D01*
X56449485Y-67848841D01*
X56542168Y-67710131D01*
X56660131Y-67592168D01*
X56798841Y-67499485D01*
X56952968Y-67435644D01*
X57116587Y-67403098D01*
X57283413Y-67403098D01*
X57447032Y-67435644D01*
G37*
G36*
X55897032Y-63885644D02*
G01*
X56051159Y-63949485D01*
X56189869Y-64042168D01*
X56307832Y-64160131D01*
X56400515Y-64298841D01*
X56464356Y-64452968D01*
X56496902Y-64616587D01*
X56496902Y-64783413D01*
X56464356Y-64947032D01*
X56400515Y-65101159D01*
X56307832Y-65239869D01*
X56189869Y-65357832D01*
X56051159Y-65450515D01*
X55897032Y-65514356D01*
X55733413Y-65546902D01*
X55566587Y-65546902D01*
X55402968Y-65514356D01*
X55248841Y-65450515D01*
X55110131Y-65357832D01*
X54992168Y-65239869D01*
X54899485Y-65101159D01*
X54835644Y-64947032D01*
X54803098Y-64783413D01*
X54803098Y-64616587D01*
X54835644Y-64452968D01*
X54899485Y-64298841D01*
X54992168Y-64160131D01*
X55110131Y-64042168D01*
X55248841Y-63949485D01*
X55402968Y-63885644D01*
X55566587Y-63853098D01*
X55733413Y-63853098D01*
X55897032Y-63885644D01*
G37*
G36*
X68597032Y-63885644D02*
G01*
X68751159Y-63949485D01*
X68889869Y-64042168D01*
X69007832Y-64160131D01*
X69100515Y-64298841D01*
X69164356Y-64452968D01*
X69196902Y-64616587D01*
X69196902Y-64783413D01*
X69164356Y-64947032D01*
X69100515Y-65101159D01*
X69007832Y-65239869D01*
X68889869Y-65357832D01*
X68751159Y-65450515D01*
X68597032Y-65514356D01*
X68433413Y-65546902D01*
X68266587Y-65546902D01*
X68102968Y-65514356D01*
X67948841Y-65450515D01*
X67810131Y-65357832D01*
X67692168Y-65239869D01*
X67599485Y-65101159D01*
X67535644Y-64947032D01*
X67503098Y-64783413D01*
X67503098Y-64616587D01*
X67535644Y-64452968D01*
X67599485Y-64298841D01*
X67692168Y-64160131D01*
X67810131Y-64042168D01*
X67948841Y-63949485D01*
X68102968Y-63885644D01*
X68266587Y-63853098D01*
X68433413Y-63853098D01*
X68597032Y-63885644D01*
G37*
G36*
X96587032Y-63815644D02*
G01*
X96741159Y-63879485D01*
X96879869Y-63972168D01*
X96997832Y-64090131D01*
X97090515Y-64228841D01*
X97154356Y-64382968D01*
X97186902Y-64546587D01*
X97186902Y-64713413D01*
X97154356Y-64877032D01*
X97090515Y-65031159D01*
X96997832Y-65169869D01*
X96879869Y-65287832D01*
X96741159Y-65380515D01*
X96587032Y-65444356D01*
X96423413Y-65476902D01*
X96256587Y-65476902D01*
X96092968Y-65444356D01*
X95938841Y-65380515D01*
X95800131Y-65287832D01*
X95682168Y-65169869D01*
X95589485Y-65031159D01*
X95525644Y-64877032D01*
X95493098Y-64713413D01*
X95493098Y-64546587D01*
X95525644Y-64382968D01*
X95589485Y-64228841D01*
X95682168Y-64090131D01*
X95800131Y-63972168D01*
X95938841Y-63879485D01*
X96092968Y-63815644D01*
X96256587Y-63783098D01*
X96423413Y-63783098D01*
X96587032Y-63815644D01*
G37*
G36*
X92057032Y-63805644D02*
G01*
X92211159Y-63869485D01*
X92349869Y-63962168D01*
X92467832Y-64080131D01*
X92560515Y-64218841D01*
X92624356Y-64372968D01*
X92656902Y-64536587D01*
X92656902Y-64703413D01*
X92624356Y-64867032D01*
X92560515Y-65021159D01*
X92467832Y-65159869D01*
X92349869Y-65277832D01*
X92211159Y-65370515D01*
X92057032Y-65434356D01*
X91893413Y-65466902D01*
X91726587Y-65466902D01*
X91562968Y-65434356D01*
X91408841Y-65370515D01*
X91270131Y-65277832D01*
X91152168Y-65159869D01*
X91059485Y-65021159D01*
X90995644Y-64867032D01*
X90963098Y-64703413D01*
X90963098Y-64536587D01*
X90995644Y-64372968D01*
X91059485Y-64218841D01*
X91152168Y-64080131D01*
X91270131Y-63962168D01*
X91408841Y-63869485D01*
X91562968Y-63805644D01*
X91726587Y-63773098D01*
X91893413Y-63773098D01*
X92057032Y-63805644D01*
G37*
G36*
X120380482Y-61353781D02*
G01*
X120391690Y-61353781D01*
X120446888Y-61362523D01*
X120572534Y-61379065D01*
X120603189Y-61387279D01*
X120632074Y-61391854D01*
X120687620Y-61409902D01*
X120768467Y-61431565D01*
X120820050Y-61452931D01*
X120863542Y-61467063D01*
X120904286Y-61487823D01*
X120955870Y-61509190D01*
X121028353Y-61551038D01*
X121080395Y-61577555D01*
X121104055Y-61594745D01*
X121131539Y-61610613D01*
X121232074Y-61687756D01*
X121277294Y-61720610D01*
X121285219Y-61728535D01*
X121292466Y-61734096D01*
X121435903Y-61877533D01*
X121441463Y-61884779D01*
X121449390Y-61892706D01*
X121482247Y-61937930D01*
X121559386Y-62038460D01*
X121575252Y-62065941D01*
X121592445Y-62089605D01*
X121618964Y-62141652D01*
X121660809Y-62214129D01*
X121682173Y-62265706D01*
X121702937Y-62306458D01*
X121717070Y-62349955D01*
X121738434Y-62401532D01*
X121760093Y-62482366D01*
X121778146Y-62537926D01*
X121782721Y-62566816D01*
X121790934Y-62597465D01*
X121807474Y-62723099D01*
X121816219Y-62778310D01*
X121816219Y-62789518D01*
X121817412Y-62798580D01*
X121817412Y-63001419D01*
X121816219Y-63010480D01*
X121816219Y-63021690D01*
X121807473Y-63076905D01*
X121790934Y-63202534D01*
X121782722Y-63233180D01*
X121778146Y-63262074D01*
X121760091Y-63317638D01*
X121738434Y-63398467D01*
X121717071Y-63450039D01*
X121702937Y-63493542D01*
X121682171Y-63534297D01*
X121660809Y-63585870D01*
X121618968Y-63658338D01*
X121592445Y-63710395D01*
X121575249Y-63734062D01*
X121559386Y-63761539D01*
X121482261Y-63862050D01*
X121449390Y-63907294D01*
X121441459Y-63915224D01*
X121435903Y-63922466D01*
X121292466Y-64065903D01*
X121285224Y-64071459D01*
X121277294Y-64079390D01*
X121232050Y-64112261D01*
X121131539Y-64189386D01*
X121104062Y-64205249D01*
X121080395Y-64222445D01*
X121028338Y-64248968D01*
X120955870Y-64290809D01*
X120904297Y-64312171D01*
X120863542Y-64332937D01*
X120820039Y-64347071D01*
X120768467Y-64368434D01*
X120687638Y-64390091D01*
X120632074Y-64408146D01*
X120603180Y-64412722D01*
X120572534Y-64420934D01*
X120446902Y-64437474D01*
X120391690Y-64446219D01*
X120380481Y-64446219D01*
X120371420Y-64447412D01*
X120168580Y-64447412D01*
X120159519Y-64446219D01*
X120148310Y-64446219D01*
X120093099Y-64437474D01*
X119967465Y-64420934D01*
X119936816Y-64412721D01*
X119907926Y-64408146D01*
X119852366Y-64390093D01*
X119771532Y-64368434D01*
X119719955Y-64347070D01*
X119676458Y-64332937D01*
X119635706Y-64312173D01*
X119584129Y-64290809D01*
X119511652Y-64248964D01*
X119459605Y-64222445D01*
X119435941Y-64205252D01*
X119408460Y-64189386D01*
X119307930Y-64112247D01*
X119262706Y-64079390D01*
X119254779Y-64071463D01*
X119247533Y-64065903D01*
X119104096Y-63922466D01*
X119098535Y-63915219D01*
X119090610Y-63907294D01*
X119057756Y-63862074D01*
X118980613Y-63761539D01*
X118964745Y-63734055D01*
X118947555Y-63710395D01*
X118921038Y-63658353D01*
X118879190Y-63585870D01*
X118857823Y-63534286D01*
X118837063Y-63493542D01*
X118822931Y-63450050D01*
X118801565Y-63398467D01*
X118779902Y-63317620D01*
X118761854Y-63262074D01*
X118757279Y-63233189D01*
X118749065Y-63202534D01*
X118732524Y-63076891D01*
X118723781Y-63021690D01*
X118723781Y-63010480D01*
X118722588Y-63001419D01*
X118722588Y-62798580D01*
X118723781Y-62789518D01*
X118723781Y-62778310D01*
X118732523Y-62723113D01*
X118749065Y-62597465D01*
X118757279Y-62566807D01*
X118761854Y-62537926D01*
X118779900Y-62482383D01*
X118801565Y-62401532D01*
X118822933Y-62349944D01*
X118837063Y-62306458D01*
X118857821Y-62265717D01*
X118879190Y-62214129D01*
X118921042Y-62141637D01*
X118947555Y-62089605D01*
X118964742Y-62065948D01*
X118980613Y-62038460D01*
X119057770Y-61937906D01*
X119090610Y-61892706D01*
X119098532Y-61884783D01*
X119104096Y-61877533D01*
X119247533Y-61734096D01*
X119254783Y-61728532D01*
X119262706Y-61720610D01*
X119307906Y-61687770D01*
X119408460Y-61610613D01*
X119435948Y-61594742D01*
X119459605Y-61577555D01*
X119511637Y-61551042D01*
X119584129Y-61509190D01*
X119635717Y-61487821D01*
X119676458Y-61467063D01*
X119719944Y-61452933D01*
X119771532Y-61431565D01*
X119852383Y-61409900D01*
X119907926Y-61391854D01*
X119936807Y-61387279D01*
X119967465Y-61379065D01*
X120093113Y-61362523D01*
X120148310Y-61353781D01*
X120159518Y-61353781D01*
X120168580Y-61352588D01*
X120371420Y-61352588D01*
X120380482Y-61353781D01*
G37*
G36*
X128000482Y-61353781D02*
G01*
X128011690Y-61353781D01*
X128066888Y-61362523D01*
X128192534Y-61379065D01*
X128223189Y-61387279D01*
X128252074Y-61391854D01*
X128307620Y-61409902D01*
X128388467Y-61431565D01*
X128440050Y-61452931D01*
X128483542Y-61467063D01*
X128524286Y-61487823D01*
X128575870Y-61509190D01*
X128648353Y-61551038D01*
X128700395Y-61577555D01*
X128724055Y-61594745D01*
X128751539Y-61610613D01*
X128852074Y-61687756D01*
X128897294Y-61720610D01*
X128905219Y-61728535D01*
X128912466Y-61734096D01*
X129055903Y-61877533D01*
X129061463Y-61884779D01*
X129069390Y-61892706D01*
X129102247Y-61937930D01*
X129179386Y-62038460D01*
X129195252Y-62065941D01*
X129212445Y-62089605D01*
X129238964Y-62141652D01*
X129280809Y-62214129D01*
X129302173Y-62265706D01*
X129322937Y-62306458D01*
X129337070Y-62349955D01*
X129358434Y-62401532D01*
X129380093Y-62482366D01*
X129398146Y-62537926D01*
X129402721Y-62566816D01*
X129410934Y-62597465D01*
X129427474Y-62723099D01*
X129436219Y-62778310D01*
X129436219Y-62789518D01*
X129437412Y-62798580D01*
X129437412Y-63001419D01*
X129436219Y-63010480D01*
X129436219Y-63021690D01*
X129427473Y-63076905D01*
X129410934Y-63202534D01*
X129402722Y-63233180D01*
X129398146Y-63262074D01*
X129380091Y-63317638D01*
X129358434Y-63398467D01*
X129337071Y-63450039D01*
X129322937Y-63493542D01*
X129302171Y-63534297D01*
X129280809Y-63585870D01*
X129238968Y-63658338D01*
X129212445Y-63710395D01*
X129195249Y-63734062D01*
X129179386Y-63761539D01*
X129102261Y-63862050D01*
X129069390Y-63907294D01*
X129061459Y-63915224D01*
X129055903Y-63922466D01*
X128912466Y-64065903D01*
X128905224Y-64071459D01*
X128897294Y-64079390D01*
X128852050Y-64112261D01*
X128751539Y-64189386D01*
X128724062Y-64205249D01*
X128700395Y-64222445D01*
X128648338Y-64248968D01*
X128575870Y-64290809D01*
X128524297Y-64312171D01*
X128483542Y-64332937D01*
X128440039Y-64347071D01*
X128388467Y-64368434D01*
X128307638Y-64390091D01*
X128252074Y-64408146D01*
X128223180Y-64412722D01*
X128192534Y-64420934D01*
X128066902Y-64437474D01*
X128011690Y-64446219D01*
X128000481Y-64446219D01*
X127991420Y-64447412D01*
X127788580Y-64447412D01*
X127779519Y-64446219D01*
X127768310Y-64446219D01*
X127713099Y-64437474D01*
X127587465Y-64420934D01*
X127556816Y-64412721D01*
X127527926Y-64408146D01*
X127472366Y-64390093D01*
X127391532Y-64368434D01*
X127339955Y-64347070D01*
X127296458Y-64332937D01*
X127255706Y-64312173D01*
X127204129Y-64290809D01*
X127131652Y-64248964D01*
X127079605Y-64222445D01*
X127055941Y-64205252D01*
X127028460Y-64189386D01*
X126927930Y-64112247D01*
X126882706Y-64079390D01*
X126874779Y-64071463D01*
X126867533Y-64065903D01*
X126724096Y-63922466D01*
X126718535Y-63915219D01*
X126710610Y-63907294D01*
X126677756Y-63862074D01*
X126600613Y-63761539D01*
X126584745Y-63734055D01*
X126567555Y-63710395D01*
X126541038Y-63658353D01*
X126499190Y-63585870D01*
X126477823Y-63534286D01*
X126457063Y-63493542D01*
X126442931Y-63450050D01*
X126421565Y-63398467D01*
X126399902Y-63317620D01*
X126381854Y-63262074D01*
X126377279Y-63233189D01*
X126369065Y-63202534D01*
X126352524Y-63076891D01*
X126343781Y-63021690D01*
X126343781Y-63010480D01*
X126342588Y-63001419D01*
X126342588Y-62798580D01*
X126343781Y-62789518D01*
X126343781Y-62778310D01*
X126352523Y-62723113D01*
X126369065Y-62597465D01*
X126377279Y-62566807D01*
X126381854Y-62537926D01*
X126399900Y-62482383D01*
X126421565Y-62401532D01*
X126442933Y-62349944D01*
X126457063Y-62306458D01*
X126477821Y-62265717D01*
X126499190Y-62214129D01*
X126541042Y-62141637D01*
X126567555Y-62089605D01*
X126584742Y-62065948D01*
X126600613Y-62038460D01*
X126677770Y-61937906D01*
X126710610Y-61892706D01*
X126718532Y-61884783D01*
X126724096Y-61877533D01*
X126867533Y-61734096D01*
X126874783Y-61728532D01*
X126882706Y-61720610D01*
X126927906Y-61687770D01*
X127028460Y-61610613D01*
X127055948Y-61594742D01*
X127079605Y-61577555D01*
X127131637Y-61551042D01*
X127204129Y-61509190D01*
X127255717Y-61487821D01*
X127296458Y-61467063D01*
X127339944Y-61452933D01*
X127391532Y-61431565D01*
X127472383Y-61409900D01*
X127527926Y-61391854D01*
X127556807Y-61387279D01*
X127587465Y-61379065D01*
X127713113Y-61362523D01*
X127768310Y-61353781D01*
X127779518Y-61353781D01*
X127788580Y-61352588D01*
X127991420Y-61352588D01*
X128000482Y-61353781D01*
G37*
G36*
X47247032Y-60735644D02*
G01*
X47401159Y-60799485D01*
X47539869Y-60892168D01*
X47657832Y-61010131D01*
X47750515Y-61148841D01*
X47814356Y-61302968D01*
X47846902Y-61466587D01*
X47846902Y-61633413D01*
X47814356Y-61797032D01*
X47750515Y-61951159D01*
X47657832Y-62089869D01*
X47539869Y-62207832D01*
X47401159Y-62300515D01*
X47247032Y-62364356D01*
X47083413Y-62396902D01*
X46916587Y-62396902D01*
X46752968Y-62364356D01*
X46598841Y-62300515D01*
X46460131Y-62207832D01*
X46342168Y-62089869D01*
X46249485Y-61951159D01*
X46185644Y-61797032D01*
X46153098Y-61633413D01*
X46153098Y-61466587D01*
X46185644Y-61302968D01*
X46249485Y-61148841D01*
X46342168Y-61010131D01*
X46460131Y-60892168D01*
X46598841Y-60799485D01*
X46752968Y-60735644D01*
X46916587Y-60703098D01*
X47083413Y-60703098D01*
X47247032Y-60735644D01*
G37*
G36*
X55897032Y-59985644D02*
G01*
X56051159Y-60049485D01*
X56189869Y-60142168D01*
X56307832Y-60260131D01*
X56400515Y-60398841D01*
X56464356Y-60552968D01*
X56496902Y-60716587D01*
X56496902Y-60883413D01*
X56464356Y-61047032D01*
X56400515Y-61201159D01*
X56307832Y-61339869D01*
X56189869Y-61457832D01*
X56051159Y-61550515D01*
X55897032Y-61614356D01*
X55733413Y-61646902D01*
X55566587Y-61646902D01*
X55402968Y-61614356D01*
X55248841Y-61550515D01*
X55110131Y-61457832D01*
X54992168Y-61339869D01*
X54899485Y-61201159D01*
X54835644Y-61047032D01*
X54803098Y-60883413D01*
X54803098Y-60716587D01*
X54835644Y-60552968D01*
X54899485Y-60398841D01*
X54992168Y-60260131D01*
X55110131Y-60142168D01*
X55248841Y-60049485D01*
X55402968Y-59985644D01*
X55566587Y-59953098D01*
X55733413Y-59953098D01*
X55897032Y-59985644D01*
G37*
G36*
X68597032Y-59985644D02*
G01*
X68751159Y-60049485D01*
X68889869Y-60142168D01*
X69007832Y-60260131D01*
X69100515Y-60398841D01*
X69164356Y-60552968D01*
X69196902Y-60716587D01*
X69196902Y-60883413D01*
X69164356Y-61047032D01*
X69100515Y-61201159D01*
X69007832Y-61339869D01*
X68889869Y-61457832D01*
X68751159Y-61550515D01*
X68597032Y-61614356D01*
X68433413Y-61646902D01*
X68266587Y-61646902D01*
X68102968Y-61614356D01*
X67948841Y-61550515D01*
X67810131Y-61457832D01*
X67692168Y-61339869D01*
X67599485Y-61201159D01*
X67535644Y-61047032D01*
X67503098Y-60883413D01*
X67503098Y-60716587D01*
X67535644Y-60552968D01*
X67599485Y-60398841D01*
X67692168Y-60260131D01*
X67810131Y-60142168D01*
X67948841Y-60049485D01*
X68102968Y-59985644D01*
X68266587Y-59953098D01*
X68433413Y-59953098D01*
X68597032Y-59985644D01*
G37*
G36*
X78943413Y-59793098D02*
G01*
X79107032Y-59825644D01*
X79261159Y-59889485D01*
X79399869Y-59982168D01*
X79517832Y-60100131D01*
X79610515Y-60238841D01*
X79674356Y-60392968D01*
X79706902Y-60556587D01*
X79706902Y-60723413D01*
X79674356Y-60887032D01*
X79610515Y-61041159D01*
X79517832Y-61179869D01*
X79399869Y-61297832D01*
X79261159Y-61390515D01*
X79107032Y-61454356D01*
X78943413Y-61486902D01*
X78860000Y-61491000D01*
X78856939Y-61491000D01*
X78063061Y-61491000D01*
X78060000Y-61491000D01*
X77976587Y-61486902D01*
X77812968Y-61454356D01*
X77658841Y-61390515D01*
X77520131Y-61297832D01*
X77402168Y-61179869D01*
X77309485Y-61041159D01*
X77245644Y-60887032D01*
X77213098Y-60723413D01*
X77213098Y-60556587D01*
X77245644Y-60392968D01*
X77309485Y-60238841D01*
X77402168Y-60100131D01*
X77520131Y-59982168D01*
X77658841Y-59889485D01*
X77812968Y-59825644D01*
X77976587Y-59793098D01*
X78060000Y-59789000D01*
X78860000Y-59789000D01*
X78943413Y-59793098D01*
G37*
G36*
X86563413Y-59793098D02*
G01*
X86727032Y-59825644D01*
X86881159Y-59889485D01*
X87019869Y-59982168D01*
X87137832Y-60100131D01*
X87230515Y-60238841D01*
X87294356Y-60392968D01*
X87326902Y-60556587D01*
X87326902Y-60723413D01*
X87294356Y-60887032D01*
X87230515Y-61041159D01*
X87137832Y-61179869D01*
X87019869Y-61297832D01*
X86881159Y-61390515D01*
X86727032Y-61454356D01*
X86563413Y-61486902D01*
X86480000Y-61491000D01*
X86476939Y-61491000D01*
X85683061Y-61491000D01*
X85680000Y-61491000D01*
X85596587Y-61486902D01*
X85432968Y-61454356D01*
X85278841Y-61390515D01*
X85140131Y-61297832D01*
X85022168Y-61179869D01*
X84929485Y-61041159D01*
X84865644Y-60887032D01*
X84833098Y-60723413D01*
X84833098Y-60556587D01*
X84865644Y-60392968D01*
X84929485Y-60238841D01*
X85022168Y-60100131D01*
X85140131Y-59982168D01*
X85278841Y-59889485D01*
X85432968Y-59825644D01*
X85596587Y-59793098D01*
X85680000Y-59789000D01*
X86480000Y-59789000D01*
X86563413Y-59793098D01*
G37*
G36*
X92067032Y-59785644D02*
G01*
X92221159Y-59849485D01*
X92359869Y-59942168D01*
X92477832Y-60060131D01*
X92570515Y-60198841D01*
X92634356Y-60352968D01*
X92666902Y-60516587D01*
X92666902Y-60683413D01*
X92634356Y-60847032D01*
X92570515Y-61001159D01*
X92477832Y-61139869D01*
X92359869Y-61257832D01*
X92221159Y-61350515D01*
X92067032Y-61414356D01*
X91903413Y-61446902D01*
X91736587Y-61446902D01*
X91572968Y-61414356D01*
X91418841Y-61350515D01*
X91280131Y-61257832D01*
X91162168Y-61139869D01*
X91069485Y-61001159D01*
X91005644Y-60847032D01*
X90973098Y-60683413D01*
X90973098Y-60516587D01*
X91005644Y-60352968D01*
X91069485Y-60198841D01*
X91162168Y-60060131D01*
X91280131Y-59942168D01*
X91418841Y-59849485D01*
X91572968Y-59785644D01*
X91736587Y-59753098D01*
X91903413Y-59753098D01*
X92067032Y-59785644D01*
G37*
G36*
X96607032Y-59785644D02*
G01*
X96761159Y-59849485D01*
X96899869Y-59942168D01*
X97017832Y-60060131D01*
X97110515Y-60198841D01*
X97174356Y-60352968D01*
X97206902Y-60516587D01*
X97206902Y-60683413D01*
X97174356Y-60847032D01*
X97110515Y-61001159D01*
X97017832Y-61139869D01*
X96899869Y-61257832D01*
X96761159Y-61350515D01*
X96607032Y-61414356D01*
X96443413Y-61446902D01*
X96276587Y-61446902D01*
X96112968Y-61414356D01*
X95958841Y-61350515D01*
X95820131Y-61257832D01*
X95702168Y-61139869D01*
X95609485Y-61001159D01*
X95545644Y-60847032D01*
X95513098Y-60683413D01*
X95513098Y-60516587D01*
X95545644Y-60352968D01*
X95609485Y-60198841D01*
X95702168Y-60060131D01*
X95820131Y-59942168D01*
X95958841Y-59849485D01*
X96112968Y-59785644D01*
X96276587Y-59753098D01*
X96443413Y-59753098D01*
X96607032Y-59785644D01*
G37*
G36*
X105018914Y-58756995D02*
G01*
X105034726Y-58763976D01*
X105042531Y-58765213D01*
X105075039Y-58781776D01*
X105120106Y-58801676D01*
X105198324Y-58879894D01*
X105218226Y-58924967D01*
X105234786Y-58957468D01*
X105236021Y-58965270D01*
X105243005Y-58981086D01*
X105251000Y-59050000D01*
X105251000Y-60150000D01*
X105243005Y-60218914D01*
X105236021Y-60234729D01*
X105234786Y-60242531D01*
X105218229Y-60275024D01*
X105198324Y-60320106D01*
X105120106Y-60398324D01*
X105075024Y-60418229D01*
X105042531Y-60434786D01*
X105034729Y-60436021D01*
X105018914Y-60443005D01*
X104950000Y-60451000D01*
X103850000Y-60451000D01*
X103781086Y-60443005D01*
X103765270Y-60436021D01*
X103757468Y-60434786D01*
X103724967Y-60418226D01*
X103679894Y-60398324D01*
X103601676Y-60320106D01*
X103581776Y-60275039D01*
X103565213Y-60242531D01*
X103563976Y-60234726D01*
X103556995Y-60218914D01*
X103549000Y-60150000D01*
X103549000Y-59050000D01*
X103556995Y-58981086D01*
X103563976Y-58965274D01*
X103565213Y-58957468D01*
X103581780Y-58924953D01*
X103601676Y-58879894D01*
X103679894Y-58801676D01*
X103724953Y-58781780D01*
X103757468Y-58765213D01*
X103765274Y-58763976D01*
X103781086Y-58756995D01*
X103850000Y-58749000D01*
X104950000Y-58749000D01*
X105018914Y-58756995D01*
G37*
G36*
X78943413Y-57253098D02*
G01*
X79107032Y-57285644D01*
X79261159Y-57349485D01*
X79399869Y-57442168D01*
X79517832Y-57560131D01*
X79610515Y-57698841D01*
X79674356Y-57852968D01*
X79706902Y-58016587D01*
X79706902Y-58183413D01*
X79674356Y-58347032D01*
X79610515Y-58501159D01*
X79517832Y-58639869D01*
X79399869Y-58757832D01*
X79261159Y-58850515D01*
X79107032Y-58914356D01*
X78943413Y-58946902D01*
X78860000Y-58951000D01*
X78856939Y-58951000D01*
X78063061Y-58951000D01*
X78060000Y-58951000D01*
X77976587Y-58946902D01*
X77812968Y-58914356D01*
X77658841Y-58850515D01*
X77520131Y-58757832D01*
X77402168Y-58639869D01*
X77309485Y-58501159D01*
X77245644Y-58347032D01*
X77213098Y-58183413D01*
X77213098Y-58016587D01*
X77245644Y-57852968D01*
X77309485Y-57698841D01*
X77402168Y-57560131D01*
X77520131Y-57442168D01*
X77658841Y-57349485D01*
X77812968Y-57285644D01*
X77976587Y-57253098D01*
X78060000Y-57249000D01*
X78860000Y-57249000D01*
X78943413Y-57253098D01*
G37*
G36*
X86563413Y-57253098D02*
G01*
X86727032Y-57285644D01*
X86881159Y-57349485D01*
X87019869Y-57442168D01*
X87137832Y-57560131D01*
X87230515Y-57698841D01*
X87294356Y-57852968D01*
X87326902Y-58016587D01*
X87326902Y-58183413D01*
X87294356Y-58347032D01*
X87230515Y-58501159D01*
X87137832Y-58639869D01*
X87019869Y-58757832D01*
X86881159Y-58850515D01*
X86727032Y-58914356D01*
X86563413Y-58946902D01*
X86480000Y-58951000D01*
X86476939Y-58951000D01*
X85683061Y-58951000D01*
X85680000Y-58951000D01*
X85596587Y-58946902D01*
X85432968Y-58914356D01*
X85278841Y-58850515D01*
X85140131Y-58757832D01*
X85022168Y-58639869D01*
X84929485Y-58501159D01*
X84865644Y-58347032D01*
X84833098Y-58183413D01*
X84833098Y-58016587D01*
X84865644Y-57852968D01*
X84929485Y-57698841D01*
X85022168Y-57560131D01*
X85140131Y-57442168D01*
X85278841Y-57349485D01*
X85432968Y-57285644D01*
X85596587Y-57253098D01*
X85680000Y-57249000D01*
X86480000Y-57249000D01*
X86563413Y-57253098D01*
G37*
G36*
X47247032Y-57235644D02*
G01*
X47401159Y-57299485D01*
X47539869Y-57392168D01*
X47657832Y-57510131D01*
X47750515Y-57648841D01*
X47814356Y-57802968D01*
X47846902Y-57966587D01*
X47846902Y-58133413D01*
X47814356Y-58297032D01*
X47750515Y-58451159D01*
X47657832Y-58589869D01*
X47539869Y-58707832D01*
X47401159Y-58800515D01*
X47247032Y-58864356D01*
X47083413Y-58896902D01*
X46916587Y-58896902D01*
X46752968Y-58864356D01*
X46598841Y-58800515D01*
X46460131Y-58707832D01*
X46342168Y-58589869D01*
X46249485Y-58451159D01*
X46185644Y-58297032D01*
X46153098Y-58133413D01*
X46153098Y-57966587D01*
X46185644Y-57802968D01*
X46249485Y-57648841D01*
X46342168Y-57510131D01*
X46460131Y-57392168D01*
X46598841Y-57299485D01*
X46752968Y-57235644D01*
X46916587Y-57203098D01*
X47083413Y-57203098D01*
X47247032Y-57235644D01*
G37*
G36*
X104647032Y-56285644D02*
G01*
X104801159Y-56349485D01*
X104939869Y-56442168D01*
X105057832Y-56560131D01*
X105150515Y-56698841D01*
X105214356Y-56852968D01*
X105246902Y-57016587D01*
X105246902Y-57183413D01*
X105214356Y-57347032D01*
X105150515Y-57501159D01*
X105057832Y-57639869D01*
X104939869Y-57757832D01*
X104801159Y-57850515D01*
X104647032Y-57914356D01*
X104483413Y-57946902D01*
X104316587Y-57946902D01*
X104152968Y-57914356D01*
X103998841Y-57850515D01*
X103860131Y-57757832D01*
X103742168Y-57639869D01*
X103649485Y-57501159D01*
X103585644Y-57347032D01*
X103553098Y-57183413D01*
X103553098Y-57016587D01*
X103585644Y-56852968D01*
X103649485Y-56698841D01*
X103742168Y-56560131D01*
X103860131Y-56442168D01*
X103998841Y-56349485D01*
X104152968Y-56285644D01*
X104316587Y-56253098D01*
X104483413Y-56253098D01*
X104647032Y-56285644D01*
G37*
G36*
X52218915Y-55236995D02*
G01*
X52234726Y-55243976D01*
X52242533Y-55245213D01*
X52275054Y-55261783D01*
X52320106Y-55281676D01*
X52398324Y-55359894D01*
X52418219Y-55404953D01*
X52434786Y-55437466D01*
X52436022Y-55445270D01*
X52443005Y-55461085D01*
X52450999Y-55530000D01*
X52450999Y-55539829D01*
X52451000Y-55539836D01*
X52451000Y-56406902D01*
X52451000Y-57230001D01*
X52443005Y-57298915D01*
X52436021Y-57314729D01*
X52434786Y-57322533D01*
X52418223Y-57355039D01*
X52398324Y-57400106D01*
X52320106Y-57478324D01*
X52275039Y-57498223D01*
X52242533Y-57514786D01*
X52234729Y-57516021D01*
X52218915Y-57523005D01*
X52150000Y-57530999D01*
X52140170Y-57530999D01*
X52140164Y-57531000D01*
X50459836Y-57531000D01*
X50459835Y-57530999D01*
X50449999Y-57531000D01*
X50381085Y-57523005D01*
X50365270Y-57516022D01*
X50357466Y-57514786D01*
X50324953Y-57498219D01*
X50279894Y-57478324D01*
X50201676Y-57400106D01*
X50181783Y-57355054D01*
X50165213Y-57322533D01*
X50163976Y-57314726D01*
X50156995Y-57298915D01*
X50149001Y-57230000D01*
X50149000Y-57220169D01*
X50149000Y-57220163D01*
X50149000Y-55539836D01*
X50149000Y-55539835D01*
X50149000Y-55529999D01*
X50156995Y-55461085D01*
X50163976Y-55445273D01*
X50165213Y-55437466D01*
X50181786Y-55404938D01*
X50201676Y-55359894D01*
X50279894Y-55281676D01*
X50324938Y-55261786D01*
X50357466Y-55245213D01*
X50365273Y-55243976D01*
X50381085Y-55236995D01*
X50450000Y-55229001D01*
X50459829Y-55229000D01*
X50459836Y-55229000D01*
X52140164Y-55229000D01*
X52150001Y-55229000D01*
X52218915Y-55236995D01*
G37*
G36*
X60392017Y-55352882D02*
G01*
X60408562Y-55363938D01*
X60419618Y-55380483D01*
X60423500Y-55400000D01*
X60423500Y-57400000D01*
X60419618Y-57419517D01*
X60408562Y-57436062D01*
X60392017Y-57447118D01*
X60372500Y-57451000D01*
X58467500Y-57451000D01*
X58447983Y-57447118D01*
X58431438Y-57436062D01*
X58420382Y-57419517D01*
X58416500Y-57400000D01*
X58416500Y-55400000D01*
X58420382Y-55380483D01*
X58431438Y-55363938D01*
X58447983Y-55352882D01*
X58467500Y-55349000D01*
X60372500Y-55349000D01*
X60392017Y-55352882D01*
G37*
G36*
X62047247Y-55353832D02*
G01*
X62058360Y-55353832D01*
X62101786Y-55362470D01*
X62194172Y-55377102D01*
X62223886Y-55386757D01*
X62251301Y-55392210D01*
X62289989Y-55408235D01*
X62343875Y-55425744D01*
X62394360Y-55451467D01*
X62433047Y-55467492D01*
X62456286Y-55483020D01*
X62484124Y-55497204D01*
X62559790Y-55552179D01*
X62596614Y-55576784D01*
X62604473Y-55584643D01*
X62611466Y-55589724D01*
X62722775Y-55701033D01*
X62727855Y-55708025D01*
X62735716Y-55715886D01*
X62760323Y-55752713D01*
X62815295Y-55828375D01*
X62829477Y-55856210D01*
X62845008Y-55879453D01*
X62861034Y-55918145D01*
X62886755Y-55968624D01*
X62904261Y-56022503D01*
X62920290Y-56061199D01*
X62925744Y-56088618D01*
X62935397Y-56118327D01*
X62950027Y-56210702D01*
X62958668Y-56254140D01*
X62959459Y-56270252D01*
X62960406Y-56276228D01*
X62963016Y-56342649D01*
X62963500Y-56352500D01*
X62963500Y-56447500D01*
X62963015Y-56457354D01*
X62960406Y-56523771D01*
X62959459Y-56529746D01*
X62958668Y-56545860D01*
X62950026Y-56589301D01*
X62935397Y-56681672D01*
X62925744Y-56711378D01*
X62920290Y-56738801D01*
X62904260Y-56777500D01*
X62886755Y-56831375D01*
X62861037Y-56881849D01*
X62845008Y-56920547D01*
X62829475Y-56943792D01*
X62815295Y-56971624D01*
X62760331Y-57047273D01*
X62735716Y-57084114D01*
X62727852Y-57091977D01*
X62722775Y-57098966D01*
X62611466Y-57210275D01*
X62604477Y-57215352D01*
X62596614Y-57223216D01*
X62559773Y-57247831D01*
X62484124Y-57302795D01*
X62456292Y-57316975D01*
X62433047Y-57332508D01*
X62394349Y-57348537D01*
X62343875Y-57374255D01*
X62290000Y-57391760D01*
X62251301Y-57407790D01*
X62223878Y-57413244D01*
X62194172Y-57422897D01*
X62101796Y-57437527D01*
X62058360Y-57446168D01*
X62047246Y-57446168D01*
X62038704Y-57447521D01*
X61881296Y-57447521D01*
X61872754Y-57446168D01*
X61861640Y-57446168D01*
X61818204Y-57437528D01*
X61725827Y-57422897D01*
X61696118Y-57413244D01*
X61668699Y-57407790D01*
X61630003Y-57391761D01*
X61576124Y-57374255D01*
X61525645Y-57348534D01*
X61486953Y-57332508D01*
X61463710Y-57316977D01*
X61435875Y-57302795D01*
X61360213Y-57247823D01*
X61323386Y-57223216D01*
X61315525Y-57215355D01*
X61308533Y-57210275D01*
X61197224Y-57098966D01*
X61192143Y-57091973D01*
X61184284Y-57084114D01*
X61159679Y-57047290D01*
X61104704Y-56971624D01*
X61090520Y-56943786D01*
X61074992Y-56920547D01*
X61058967Y-56881860D01*
X61033244Y-56831375D01*
X61015735Y-56777489D01*
X60999710Y-56738801D01*
X60994257Y-56711386D01*
X60984602Y-56681672D01*
X60969968Y-56589277D01*
X60961332Y-56545860D01*
X60960540Y-56529755D01*
X60959593Y-56523771D01*
X60956983Y-56457338D01*
X60956500Y-56447500D01*
X60956500Y-56352500D01*
X60956983Y-56342665D01*
X60959593Y-56276228D01*
X60960540Y-56270242D01*
X60961332Y-56254140D01*
X60969967Y-56210726D01*
X60984602Y-56118327D01*
X60994257Y-56088610D01*
X60999710Y-56061199D01*
X61015733Y-56022514D01*
X61033244Y-55968624D01*
X61058969Y-55918134D01*
X61074992Y-55879453D01*
X61090518Y-55856216D01*
X61104704Y-55828375D01*
X61159687Y-55752696D01*
X61184284Y-55715886D01*
X61192141Y-55708028D01*
X61197224Y-55701033D01*
X61308533Y-55589724D01*
X61315528Y-55584641D01*
X61323386Y-55576784D01*
X61360196Y-55552187D01*
X61435875Y-55497204D01*
X61463716Y-55483018D01*
X61486953Y-55467492D01*
X61525634Y-55451469D01*
X61576124Y-55425744D01*
X61630014Y-55408233D01*
X61668699Y-55392210D01*
X61696110Y-55386757D01*
X61725827Y-55377102D01*
X61818214Y-55362469D01*
X61861640Y-55353832D01*
X61872753Y-55353832D01*
X61881296Y-55352479D01*
X62038704Y-55352479D01*
X62047247Y-55353832D01*
G37*
G36*
X64587247Y-55353832D02*
G01*
X64598360Y-55353832D01*
X64641786Y-55362470D01*
X64734172Y-55377102D01*
X64763886Y-55386757D01*
X64791301Y-55392210D01*
X64829989Y-55408235D01*
X64883875Y-55425744D01*
X64934360Y-55451467D01*
X64973047Y-55467492D01*
X64996286Y-55483020D01*
X65024124Y-55497204D01*
X65099790Y-55552179D01*
X65136614Y-55576784D01*
X65144473Y-55584643D01*
X65151466Y-55589724D01*
X65262775Y-55701033D01*
X65267855Y-55708025D01*
X65275716Y-55715886D01*
X65300323Y-55752713D01*
X65355295Y-55828375D01*
X65369477Y-55856210D01*
X65385008Y-55879453D01*
X65401034Y-55918145D01*
X65426755Y-55968624D01*
X65444261Y-56022503D01*
X65460290Y-56061199D01*
X65465744Y-56088618D01*
X65475397Y-56118327D01*
X65490027Y-56210702D01*
X65498668Y-56254140D01*
X65499459Y-56270252D01*
X65500406Y-56276228D01*
X65503016Y-56342649D01*
X65503500Y-56352500D01*
X65503500Y-56447500D01*
X65503015Y-56457354D01*
X65500406Y-56523771D01*
X65499459Y-56529746D01*
X65498668Y-56545860D01*
X65490026Y-56589301D01*
X65475397Y-56681672D01*
X65465744Y-56711378D01*
X65460290Y-56738801D01*
X65444260Y-56777500D01*
X65426755Y-56831375D01*
X65401037Y-56881849D01*
X65385008Y-56920547D01*
X65369475Y-56943792D01*
X65355295Y-56971624D01*
X65300331Y-57047273D01*
X65275716Y-57084114D01*
X65267852Y-57091977D01*
X65262775Y-57098966D01*
X65151466Y-57210275D01*
X65144477Y-57215352D01*
X65136614Y-57223216D01*
X65099773Y-57247831D01*
X65024124Y-57302795D01*
X64996292Y-57316975D01*
X64973047Y-57332508D01*
X64934349Y-57348537D01*
X64883875Y-57374255D01*
X64830000Y-57391760D01*
X64791301Y-57407790D01*
X64763878Y-57413244D01*
X64734172Y-57422897D01*
X64641796Y-57437527D01*
X64598360Y-57446168D01*
X64587246Y-57446168D01*
X64578704Y-57447521D01*
X64421296Y-57447521D01*
X64412754Y-57446168D01*
X64401640Y-57446168D01*
X64358204Y-57437528D01*
X64265827Y-57422897D01*
X64236118Y-57413244D01*
X64208699Y-57407790D01*
X64170003Y-57391761D01*
X64116124Y-57374255D01*
X64065645Y-57348534D01*
X64026953Y-57332508D01*
X64003710Y-57316977D01*
X63975875Y-57302795D01*
X63900213Y-57247823D01*
X63863386Y-57223216D01*
X63855525Y-57215355D01*
X63848533Y-57210275D01*
X63737224Y-57098966D01*
X63732143Y-57091973D01*
X63724284Y-57084114D01*
X63699679Y-57047290D01*
X63644704Y-56971624D01*
X63630520Y-56943786D01*
X63614992Y-56920547D01*
X63598967Y-56881860D01*
X63573244Y-56831375D01*
X63555735Y-56777489D01*
X63539710Y-56738801D01*
X63534257Y-56711386D01*
X63524602Y-56681672D01*
X63509968Y-56589277D01*
X63501332Y-56545860D01*
X63500540Y-56529755D01*
X63499593Y-56523771D01*
X63496983Y-56457338D01*
X63496500Y-56447500D01*
X63496500Y-56352500D01*
X63496983Y-56342665D01*
X63499593Y-56276228D01*
X63500540Y-56270242D01*
X63501332Y-56254140D01*
X63509967Y-56210726D01*
X63524602Y-56118327D01*
X63534257Y-56088610D01*
X63539710Y-56061199D01*
X63555733Y-56022514D01*
X63573244Y-55968624D01*
X63598969Y-55918134D01*
X63614992Y-55879453D01*
X63630518Y-55856216D01*
X63644704Y-55828375D01*
X63699687Y-55752696D01*
X63724284Y-55715886D01*
X63732141Y-55708028D01*
X63737224Y-55701033D01*
X63848533Y-55589724D01*
X63855528Y-55584641D01*
X63863386Y-55576784D01*
X63900196Y-55552187D01*
X63975875Y-55497204D01*
X64003716Y-55483018D01*
X64026953Y-55467492D01*
X64065634Y-55451469D01*
X64116124Y-55425744D01*
X64170014Y-55408233D01*
X64208699Y-55392210D01*
X64236110Y-55386757D01*
X64265827Y-55377102D01*
X64358214Y-55362469D01*
X64401640Y-55353832D01*
X64412753Y-55353832D01*
X64421296Y-55352479D01*
X64578704Y-55352479D01*
X64587247Y-55353832D01*
G37*
G36*
X55291498Y-55354061D02*
G01*
X55303016Y-55354061D01*
X55348023Y-55363013D01*
X55445260Y-55378414D01*
X55476536Y-55388576D01*
X55505089Y-55394256D01*
X55545387Y-55410948D01*
X55602052Y-55429360D01*
X55655135Y-55456407D01*
X55695438Y-55473101D01*
X55719647Y-55489277D01*
X55748943Y-55504204D01*
X55828583Y-55562066D01*
X55866747Y-55587566D01*
X55874891Y-55595710D01*
X55882315Y-55601104D01*
X55998895Y-55717684D01*
X56004288Y-55725107D01*
X56012434Y-55733253D01*
X56037936Y-55771420D01*
X56095795Y-55851056D01*
X56110720Y-55880348D01*
X56126899Y-55904562D01*
X56143594Y-55944869D01*
X56170639Y-55997947D01*
X56189048Y-56054604D01*
X56205744Y-56094911D01*
X56211424Y-56123469D01*
X56221585Y-56154739D01*
X56236984Y-56251967D01*
X56245939Y-56296984D01*
X56245939Y-56308502D01*
X56247375Y-56317569D01*
X56247375Y-56482430D01*
X56245939Y-56491496D01*
X56245939Y-56503016D01*
X56236983Y-56548035D01*
X56221585Y-56645260D01*
X56211425Y-56676528D01*
X56205744Y-56705089D01*
X56189047Y-56745398D01*
X56170639Y-56802052D01*
X56143596Y-56855125D01*
X56126899Y-56895438D01*
X56110718Y-56919654D01*
X56095795Y-56948943D01*
X56037945Y-57028566D01*
X56012434Y-57066747D01*
X56004285Y-57074895D01*
X55998895Y-57082315D01*
X55882315Y-57198895D01*
X55874895Y-57204285D01*
X55866747Y-57212434D01*
X55828566Y-57237945D01*
X55748943Y-57295795D01*
X55719654Y-57310718D01*
X55695438Y-57326899D01*
X55655125Y-57343596D01*
X55602052Y-57370639D01*
X55545398Y-57389047D01*
X55505089Y-57405744D01*
X55476528Y-57411425D01*
X55445260Y-57421585D01*
X55348033Y-57436984D01*
X55303016Y-57445939D01*
X55291497Y-57445939D01*
X55282431Y-57447375D01*
X55117569Y-57447375D01*
X55108503Y-57445939D01*
X55096984Y-57445939D01*
X55051967Y-57436984D01*
X54954739Y-57421585D01*
X54923469Y-57411424D01*
X54894911Y-57405744D01*
X54854604Y-57389048D01*
X54797947Y-57370639D01*
X54744869Y-57343594D01*
X54704562Y-57326899D01*
X54680348Y-57310720D01*
X54651056Y-57295795D01*
X54571420Y-57237936D01*
X54533253Y-57212434D01*
X54525107Y-57204288D01*
X54517684Y-57198895D01*
X54401104Y-57082315D01*
X54395710Y-57074891D01*
X54387566Y-57066747D01*
X54362066Y-57028583D01*
X54304204Y-56948943D01*
X54289277Y-56919647D01*
X54273101Y-56895438D01*
X54256407Y-56855135D01*
X54229360Y-56802052D01*
X54210948Y-56745387D01*
X54194256Y-56705089D01*
X54188576Y-56676536D01*
X54178414Y-56645260D01*
X54163014Y-56548026D01*
X54154061Y-56503016D01*
X54154061Y-56491496D01*
X54152625Y-56482430D01*
X54152625Y-56317569D01*
X54154061Y-56308502D01*
X54154061Y-56296984D01*
X54163013Y-56251977D01*
X54178414Y-56154739D01*
X54188576Y-56123461D01*
X54194256Y-56094911D01*
X54210946Y-56054616D01*
X54229360Y-55997947D01*
X54256409Y-55944858D01*
X54273101Y-55904562D01*
X54289275Y-55880355D01*
X54304204Y-55851056D01*
X54362074Y-55771403D01*
X54387566Y-55733253D01*
X54395707Y-55725111D01*
X54401104Y-55717684D01*
X54517684Y-55601104D01*
X54525111Y-55595707D01*
X54533253Y-55587566D01*
X54571403Y-55562074D01*
X54651056Y-55504204D01*
X54680355Y-55489275D01*
X54704562Y-55473101D01*
X54744858Y-55456409D01*
X54797947Y-55429360D01*
X54854616Y-55410946D01*
X54894911Y-55394256D01*
X54923461Y-55388576D01*
X54954739Y-55378414D01*
X55051977Y-55363013D01*
X55096984Y-55354061D01*
X55108502Y-55354061D01*
X55117569Y-55352625D01*
X55282431Y-55352625D01*
X55291498Y-55354061D01*
G37*
G36*
X78943413Y-54713098D02*
G01*
X79107032Y-54745644D01*
X79261159Y-54809485D01*
X79399869Y-54902168D01*
X79517832Y-55020131D01*
X79610515Y-55158841D01*
X79674356Y-55312968D01*
X79706902Y-55476587D01*
X79706902Y-55643413D01*
X79674356Y-55807032D01*
X79610515Y-55961159D01*
X79517832Y-56099869D01*
X79399869Y-56217832D01*
X79261159Y-56310515D01*
X79107032Y-56374356D01*
X78943413Y-56406902D01*
X78860000Y-56411000D01*
X78856939Y-56411000D01*
X78063061Y-56411000D01*
X78060000Y-56411000D01*
X77976587Y-56406902D01*
X77812968Y-56374356D01*
X77658841Y-56310515D01*
X77520131Y-56217832D01*
X77402168Y-56099869D01*
X77309485Y-55961159D01*
X77245644Y-55807032D01*
X77213098Y-55643413D01*
X77213098Y-55476587D01*
X77245644Y-55312968D01*
X77309485Y-55158841D01*
X77402168Y-55020131D01*
X77520131Y-54902168D01*
X77658841Y-54809485D01*
X77812968Y-54745644D01*
X77976587Y-54713098D01*
X78060000Y-54709000D01*
X78860000Y-54709000D01*
X78943413Y-54713098D01*
G37*
G36*
X86563413Y-54713098D02*
G01*
X86727032Y-54745644D01*
X86881159Y-54809485D01*
X87019869Y-54902168D01*
X87137832Y-55020131D01*
X87230515Y-55158841D01*
X87294356Y-55312968D01*
X87326902Y-55476587D01*
X87326902Y-55643413D01*
X87294356Y-55807032D01*
X87230515Y-55961159D01*
X87137832Y-56099869D01*
X87019869Y-56217832D01*
X86881159Y-56310515D01*
X86727032Y-56374356D01*
X86563413Y-56406902D01*
X86480000Y-56411000D01*
X86476939Y-56411000D01*
X85683061Y-56411000D01*
X85680000Y-56411000D01*
X85596587Y-56406902D01*
X85432968Y-56374356D01*
X85278841Y-56310515D01*
X85140131Y-56217832D01*
X85022168Y-56099869D01*
X84929485Y-55961159D01*
X84865644Y-55807032D01*
X84833098Y-55643413D01*
X84833098Y-55476587D01*
X84865644Y-55312968D01*
X84929485Y-55158841D01*
X85022168Y-55020131D01*
X85140131Y-54902168D01*
X85278841Y-54809485D01*
X85432968Y-54745644D01*
X85596587Y-54713098D01*
X85680000Y-54709000D01*
X86480000Y-54709000D01*
X86563413Y-54713098D01*
G37*
G36*
X39891498Y-52464061D02*
G01*
X39903016Y-52464061D01*
X39948023Y-52473013D01*
X40045260Y-52488414D01*
X40076536Y-52498576D01*
X40105089Y-52504256D01*
X40145387Y-52520948D01*
X40202052Y-52539360D01*
X40255135Y-52566407D01*
X40295438Y-52583101D01*
X40319647Y-52599277D01*
X40348943Y-52614204D01*
X40428583Y-52672066D01*
X40466747Y-52697566D01*
X40474891Y-52705710D01*
X40482315Y-52711104D01*
X40598895Y-52827684D01*
X40604288Y-52835107D01*
X40612434Y-52843253D01*
X40637936Y-52881420D01*
X40695795Y-52961056D01*
X40710720Y-52990348D01*
X40726899Y-53014562D01*
X40743594Y-53054869D01*
X40770639Y-53107947D01*
X40789048Y-53164604D01*
X40805744Y-53204911D01*
X40811424Y-53233469D01*
X40821585Y-53264739D01*
X40836984Y-53361967D01*
X40845939Y-53406984D01*
X40845939Y-53418502D01*
X40847375Y-53427569D01*
X40847375Y-53592430D01*
X40845939Y-53601496D01*
X40845939Y-53613016D01*
X40836983Y-53658035D01*
X40821585Y-53755260D01*
X40811425Y-53786528D01*
X40805744Y-53815089D01*
X40789047Y-53855398D01*
X40770639Y-53912052D01*
X40743596Y-53965125D01*
X40726899Y-54005438D01*
X40710718Y-54029654D01*
X40695795Y-54058943D01*
X40637945Y-54138566D01*
X40612434Y-54176747D01*
X40604285Y-54184895D01*
X40598895Y-54192315D01*
X40482315Y-54308895D01*
X40474895Y-54314285D01*
X40466747Y-54322434D01*
X40428566Y-54347945D01*
X40348943Y-54405795D01*
X40319654Y-54420718D01*
X40295438Y-54436899D01*
X40255125Y-54453596D01*
X40202052Y-54480639D01*
X40145398Y-54499047D01*
X40105089Y-54515744D01*
X40076528Y-54521425D01*
X40045260Y-54531585D01*
X39948033Y-54546984D01*
X39903016Y-54555939D01*
X39891497Y-54555939D01*
X39882431Y-54557375D01*
X39717569Y-54557375D01*
X39708503Y-54555939D01*
X39696984Y-54555939D01*
X39651967Y-54546984D01*
X39554739Y-54531585D01*
X39523469Y-54521424D01*
X39494911Y-54515744D01*
X39454604Y-54499048D01*
X39397947Y-54480639D01*
X39344869Y-54453594D01*
X39304562Y-54436899D01*
X39280348Y-54420720D01*
X39251056Y-54405795D01*
X39171420Y-54347936D01*
X39133253Y-54322434D01*
X39125107Y-54314288D01*
X39117684Y-54308895D01*
X39001104Y-54192315D01*
X38995710Y-54184891D01*
X38987566Y-54176747D01*
X38962066Y-54138583D01*
X38904204Y-54058943D01*
X38889277Y-54029647D01*
X38873101Y-54005438D01*
X38856407Y-53965135D01*
X38829360Y-53912052D01*
X38810948Y-53855387D01*
X38794256Y-53815089D01*
X38788576Y-53786536D01*
X38778414Y-53755260D01*
X38763014Y-53658026D01*
X38754061Y-53613016D01*
X38754061Y-53601496D01*
X38752625Y-53592430D01*
X38752625Y-53427569D01*
X38754061Y-53418502D01*
X38754061Y-53406984D01*
X38763013Y-53361977D01*
X38778414Y-53264739D01*
X38788576Y-53233461D01*
X38794256Y-53204911D01*
X38810946Y-53164616D01*
X38829360Y-53107947D01*
X38856409Y-53054858D01*
X38873101Y-53014562D01*
X38889275Y-52990355D01*
X38904204Y-52961056D01*
X38962074Y-52881403D01*
X38987566Y-52843253D01*
X38995707Y-52835111D01*
X39001104Y-52827684D01*
X39117684Y-52711104D01*
X39125111Y-52705707D01*
X39133253Y-52697566D01*
X39171403Y-52672074D01*
X39251056Y-52614204D01*
X39280355Y-52599275D01*
X39304562Y-52583101D01*
X39344858Y-52566409D01*
X39397947Y-52539360D01*
X39454616Y-52520946D01*
X39494911Y-52504256D01*
X39523461Y-52498576D01*
X39554739Y-52488414D01*
X39651977Y-52473013D01*
X39696984Y-52464061D01*
X39708502Y-52464061D01*
X39717569Y-52462625D01*
X39882431Y-52462625D01*
X39891498Y-52464061D01*
G37*
G36*
X79478914Y-52176995D02*
G01*
X79494726Y-52183976D01*
X79502531Y-52185213D01*
X79535039Y-52201776D01*
X79580106Y-52221676D01*
X79658324Y-52299894D01*
X79678226Y-52344967D01*
X79694786Y-52377468D01*
X79696021Y-52385270D01*
X79703005Y-52401086D01*
X79711000Y-52470000D01*
X79711000Y-53570000D01*
X79703005Y-53638914D01*
X79696021Y-53654729D01*
X79694786Y-53662531D01*
X79678229Y-53695024D01*
X79658324Y-53740106D01*
X79580106Y-53818324D01*
X79535024Y-53838229D01*
X79502531Y-53854786D01*
X79494729Y-53856021D01*
X79478914Y-53863005D01*
X79410000Y-53871000D01*
X77510000Y-53871000D01*
X77441086Y-53863005D01*
X77425270Y-53856021D01*
X77417468Y-53854786D01*
X77384967Y-53838226D01*
X77339894Y-53818324D01*
X77261676Y-53740106D01*
X77241776Y-53695039D01*
X77225213Y-53662531D01*
X77223976Y-53654726D01*
X77216995Y-53638914D01*
X77209000Y-53570000D01*
X77209000Y-52470000D01*
X77216995Y-52401086D01*
X77223976Y-52385274D01*
X77225213Y-52377468D01*
X77241780Y-52344953D01*
X77261676Y-52299894D01*
X77339894Y-52221676D01*
X77384953Y-52201780D01*
X77417468Y-52185213D01*
X77425274Y-52183976D01*
X77441086Y-52176995D01*
X77510000Y-52169000D01*
X79410000Y-52169000D01*
X79478914Y-52176995D01*
G37*
G36*
X86563413Y-52173098D02*
G01*
X86727032Y-52205644D01*
X86881159Y-52269485D01*
X87019869Y-52362168D01*
X87137832Y-52480131D01*
X87230515Y-52618841D01*
X87294356Y-52772968D01*
X87326902Y-52936587D01*
X87326902Y-53103413D01*
X87294356Y-53267032D01*
X87230515Y-53421159D01*
X87137832Y-53559869D01*
X87019869Y-53677832D01*
X86881159Y-53770515D01*
X86727032Y-53834356D01*
X86563413Y-53866902D01*
X86480000Y-53871000D01*
X86476939Y-53871000D01*
X85683061Y-53871000D01*
X85680000Y-53871000D01*
X85596587Y-53866902D01*
X85432968Y-53834356D01*
X85278841Y-53770515D01*
X85140131Y-53677832D01*
X85022168Y-53559869D01*
X84929485Y-53421159D01*
X84865644Y-53267032D01*
X84833098Y-53103413D01*
X84833098Y-52936587D01*
X84865644Y-52772968D01*
X84929485Y-52618841D01*
X85022168Y-52480131D01*
X85140131Y-52362168D01*
X85278841Y-52269485D01*
X85432968Y-52205644D01*
X85596587Y-52173098D01*
X85680000Y-52169000D01*
X86480000Y-52169000D01*
X86563413Y-52173098D01*
G37*
G36*
X101959517Y-52192882D02*
G01*
X101976062Y-52203938D01*
X101987118Y-52220483D01*
X101991000Y-52240000D01*
X101991000Y-53740000D01*
X101987118Y-53759517D01*
X101976062Y-53776062D01*
X101959517Y-53787118D01*
X101940000Y-53791000D01*
X100440000Y-53791000D01*
X100420483Y-53787118D01*
X100403938Y-53776062D01*
X100392882Y-53759517D01*
X100389000Y-53740000D01*
X100389000Y-52240000D01*
X100392882Y-52220483D01*
X100403938Y-52203938D01*
X100420483Y-52192882D01*
X100440000Y-52189000D01*
X101940000Y-52189000D01*
X101959517Y-52192882D01*
G37*
G36*
X127668914Y-50236995D02*
G01*
X127684726Y-50243976D01*
X127692531Y-50245213D01*
X127725039Y-50261776D01*
X127770106Y-50281676D01*
X127848324Y-50359894D01*
X127868226Y-50404967D01*
X127884786Y-50437468D01*
X127886021Y-50445270D01*
X127893005Y-50461086D01*
X127901000Y-50530000D01*
X127901000Y-53230000D01*
X127893005Y-53298914D01*
X127886021Y-53314729D01*
X127884786Y-53322531D01*
X127868229Y-53355024D01*
X127848324Y-53400106D01*
X127770106Y-53478324D01*
X127725024Y-53498229D01*
X127692531Y-53514786D01*
X127684729Y-53516021D01*
X127668914Y-53523005D01*
X127600000Y-53531000D01*
X124900000Y-53531000D01*
X124831086Y-53523005D01*
X124815270Y-53516021D01*
X124807468Y-53514786D01*
X124774967Y-53498226D01*
X124729894Y-53478324D01*
X124651676Y-53400106D01*
X124631776Y-53355039D01*
X124615213Y-53322531D01*
X124613976Y-53314726D01*
X124606995Y-53298914D01*
X124599000Y-53230000D01*
X124599000Y-50530000D01*
X124606995Y-50461086D01*
X124613976Y-50445274D01*
X124615213Y-50437468D01*
X124631780Y-50404953D01*
X124651676Y-50359894D01*
X124729894Y-50281676D01*
X124774953Y-50261780D01*
X124807468Y-50245213D01*
X124815274Y-50243976D01*
X124831086Y-50236995D01*
X124900000Y-50229000D01*
X127600000Y-50229000D01*
X127668914Y-50236995D01*
G37*
G36*
X121668914Y-50231995D02*
G01*
X121684726Y-50238976D01*
X121692531Y-50240213D01*
X121725039Y-50256776D01*
X121770106Y-50276676D01*
X121848324Y-50354894D01*
X121868226Y-50399967D01*
X121884786Y-50432468D01*
X121886021Y-50440270D01*
X121893005Y-50456086D01*
X121901000Y-50525000D01*
X121901000Y-53225000D01*
X121893005Y-53293914D01*
X121886021Y-53309729D01*
X121884786Y-53317531D01*
X121868229Y-53350024D01*
X121848324Y-53395106D01*
X121770106Y-53473324D01*
X121725024Y-53493229D01*
X121692531Y-53509786D01*
X121684729Y-53511021D01*
X121668914Y-53518005D01*
X121600000Y-53526000D01*
X118900000Y-53526000D01*
X118831086Y-53518005D01*
X118815270Y-53511021D01*
X118807468Y-53509786D01*
X118774967Y-53493226D01*
X118729894Y-53473324D01*
X118651676Y-53395106D01*
X118631776Y-53350039D01*
X118615213Y-53317531D01*
X118613976Y-53309726D01*
X118606995Y-53293914D01*
X118599000Y-53225000D01*
X118599000Y-50525000D01*
X118606995Y-50456086D01*
X118613976Y-50440274D01*
X118615213Y-50432468D01*
X118631780Y-50399953D01*
X118651676Y-50354894D01*
X118729894Y-50276676D01*
X118774953Y-50256780D01*
X118807468Y-50240213D01*
X118815274Y-50238976D01*
X118831086Y-50231995D01*
X118900000Y-50224000D01*
X121600000Y-50224000D01*
X121668914Y-50231995D01*
G37*
G36*
X73018914Y-50856995D02*
G01*
X73034726Y-50863976D01*
X73042531Y-50865213D01*
X73075039Y-50881776D01*
X73120106Y-50901676D01*
X73198324Y-50979894D01*
X73218226Y-51024967D01*
X73234786Y-51057468D01*
X73236021Y-51065270D01*
X73243005Y-51081086D01*
X73251000Y-51150000D01*
X73251000Y-52250000D01*
X73243005Y-52318914D01*
X73236021Y-52334729D01*
X73234786Y-52342531D01*
X73218229Y-52375024D01*
X73198324Y-52420106D01*
X73120106Y-52498324D01*
X73075024Y-52518229D01*
X73042531Y-52534786D01*
X73034729Y-52536021D01*
X73018914Y-52543005D01*
X72950000Y-52551000D01*
X71850000Y-52551000D01*
X71781086Y-52543005D01*
X71765270Y-52536021D01*
X71757468Y-52534786D01*
X71724967Y-52518226D01*
X71679894Y-52498324D01*
X71601676Y-52420106D01*
X71581776Y-52375039D01*
X71565213Y-52342531D01*
X71563976Y-52334726D01*
X71556995Y-52318914D01*
X71549000Y-52250000D01*
X71549000Y-51150000D01*
X71556995Y-51081086D01*
X71563976Y-51065274D01*
X71565213Y-51057468D01*
X71581780Y-51024953D01*
X71601676Y-50979894D01*
X71679894Y-50901676D01*
X71724953Y-50881780D01*
X71757468Y-50865213D01*
X71765274Y-50863976D01*
X71781086Y-50856995D01*
X71850000Y-50849000D01*
X72950000Y-50849000D01*
X73018914Y-50856995D01*
G37*
G36*
X101422518Y-49683491D02*
G01*
X101567589Y-49743581D01*
X101698149Y-49830819D01*
X101809181Y-49941851D01*
X101896419Y-50072411D01*
X101956509Y-50217482D01*
X101987143Y-50371488D01*
X101987143Y-50528512D01*
X101956509Y-50682518D01*
X101896419Y-50827589D01*
X101809181Y-50958149D01*
X101698149Y-51069181D01*
X101567589Y-51156419D01*
X101422518Y-51216509D01*
X101268512Y-51247143D01*
X101111488Y-51247143D01*
X100957482Y-51216509D01*
X100812411Y-51156419D01*
X100681851Y-51069181D01*
X100570819Y-50958149D01*
X100483581Y-50827589D01*
X100423491Y-50682518D01*
X100392857Y-50528512D01*
X100392857Y-50371488D01*
X100423491Y-50217482D01*
X100483581Y-50072411D01*
X100570819Y-49941851D01*
X100681851Y-49830819D01*
X100812411Y-49743581D01*
X100957482Y-49683491D01*
X101111488Y-49652857D01*
X101268512Y-49652857D01*
X101422518Y-49683491D01*
G37*
G36*
X107451103Y-48546265D02*
G01*
X107466915Y-48553246D01*
X107474720Y-48554483D01*
X107507228Y-48571046D01*
X107552295Y-48590946D01*
X107630513Y-48669164D01*
X107650415Y-48714237D01*
X107666975Y-48746738D01*
X107668210Y-48754540D01*
X107675194Y-48770356D01*
X107683189Y-48839270D01*
X107683189Y-49939270D01*
X107675194Y-50008184D01*
X107668210Y-50023999D01*
X107666975Y-50031801D01*
X107650418Y-50064294D01*
X107630513Y-50109376D01*
X107552295Y-50187594D01*
X107507213Y-50207499D01*
X107474720Y-50224056D01*
X107466918Y-50225291D01*
X107451103Y-50232275D01*
X107382189Y-50240270D01*
X106282189Y-50240270D01*
X106213275Y-50232275D01*
X106197459Y-50225291D01*
X106189657Y-50224056D01*
X106157156Y-50207496D01*
X106112083Y-50187594D01*
X106033865Y-50109376D01*
X106013965Y-50064309D01*
X105997402Y-50031801D01*
X105996165Y-50023996D01*
X105989184Y-50008184D01*
X105981189Y-49939270D01*
X105981189Y-48839270D01*
X105989184Y-48770356D01*
X105996165Y-48754544D01*
X105997402Y-48746738D01*
X106013969Y-48714223D01*
X106033865Y-48669164D01*
X106112083Y-48590946D01*
X106157142Y-48571050D01*
X106189657Y-48554483D01*
X106197463Y-48553246D01*
X106213275Y-48546265D01*
X106282189Y-48538270D01*
X107382189Y-48538270D01*
X107451103Y-48546265D01*
G37*
G36*
X109579221Y-48574914D02*
G01*
X109733348Y-48638755D01*
X109872058Y-48731438D01*
X109990021Y-48849401D01*
X110082704Y-48988111D01*
X110146545Y-49142238D01*
X110179091Y-49305857D01*
X110179091Y-49472683D01*
X110146545Y-49636302D01*
X110082704Y-49790429D01*
X109990021Y-49929139D01*
X109872058Y-50047102D01*
X109733348Y-50139785D01*
X109579221Y-50203626D01*
X109415602Y-50236172D01*
X109248776Y-50236172D01*
X109085157Y-50203626D01*
X108931030Y-50139785D01*
X108792320Y-50047102D01*
X108674357Y-49929139D01*
X108581674Y-49790429D01*
X108517833Y-49636302D01*
X108485287Y-49472683D01*
X108485287Y-49305857D01*
X108517833Y-49142238D01*
X108581674Y-48988111D01*
X108674357Y-48849401D01*
X108792320Y-48731438D01*
X108931030Y-48638755D01*
X109085157Y-48574914D01*
X109248776Y-48542368D01*
X109415602Y-48542368D01*
X109579221Y-48574914D01*
G37*
G36*
X72647032Y-48385644D02*
G01*
X72801159Y-48449485D01*
X72939869Y-48542168D01*
X73057832Y-48660131D01*
X73150515Y-48798841D01*
X73214356Y-48952968D01*
X73246902Y-49116587D01*
X73246902Y-49283413D01*
X73214356Y-49447032D01*
X73150515Y-49601159D01*
X73057832Y-49739869D01*
X72939869Y-49857832D01*
X72801159Y-49950515D01*
X72647032Y-50014356D01*
X72483413Y-50046902D01*
X72316587Y-50046902D01*
X72152968Y-50014356D01*
X71998841Y-49950515D01*
X71860131Y-49857832D01*
X71742168Y-49739869D01*
X71649485Y-49601159D01*
X71585644Y-49447032D01*
X71553098Y-49283413D01*
X71553098Y-49116587D01*
X71585644Y-48952968D01*
X71649485Y-48798841D01*
X71742168Y-48660131D01*
X71860131Y-48542168D01*
X71998841Y-48449485D01*
X72152968Y-48385644D01*
X72316587Y-48353098D01*
X72483413Y-48353098D01*
X72647032Y-48385644D01*
G37*
G36*
X55491498Y-47454061D02*
G01*
X55503016Y-47454061D01*
X55548023Y-47463013D01*
X55645260Y-47478414D01*
X55676536Y-47488576D01*
X55705089Y-47494256D01*
X55745387Y-47510948D01*
X55802052Y-47529360D01*
X55855135Y-47556407D01*
X55895438Y-47573101D01*
X55919647Y-47589277D01*
X55948943Y-47604204D01*
X56028583Y-47662066D01*
X56066747Y-47687566D01*
X56074891Y-47695710D01*
X56082315Y-47701104D01*
X56198895Y-47817684D01*
X56204288Y-47825107D01*
X56212434Y-47833253D01*
X56237936Y-47871420D01*
X56295795Y-47951056D01*
X56310720Y-47980348D01*
X56326899Y-48004562D01*
X56343594Y-48044869D01*
X56370639Y-48097947D01*
X56389048Y-48154604D01*
X56405744Y-48194911D01*
X56411424Y-48223469D01*
X56421585Y-48254739D01*
X56436984Y-48351967D01*
X56445939Y-48396984D01*
X56445939Y-48408502D01*
X56447375Y-48417569D01*
X56447375Y-48582430D01*
X56445939Y-48591496D01*
X56445939Y-48603016D01*
X56436983Y-48648035D01*
X56421585Y-48745260D01*
X56411425Y-48776528D01*
X56405744Y-48805089D01*
X56389047Y-48845398D01*
X56370639Y-48902052D01*
X56343596Y-48955125D01*
X56326899Y-48995438D01*
X56310718Y-49019654D01*
X56295795Y-49048943D01*
X56237945Y-49128566D01*
X56212434Y-49166747D01*
X56204285Y-49174895D01*
X56198895Y-49182315D01*
X56082315Y-49298895D01*
X56074895Y-49304285D01*
X56066747Y-49312434D01*
X56028566Y-49337945D01*
X55948943Y-49395795D01*
X55919654Y-49410718D01*
X55895438Y-49426899D01*
X55855125Y-49443596D01*
X55802052Y-49470639D01*
X55745398Y-49489047D01*
X55705089Y-49505744D01*
X55676528Y-49511425D01*
X55645260Y-49521585D01*
X55548033Y-49536984D01*
X55503016Y-49545939D01*
X55491497Y-49545939D01*
X55482431Y-49547375D01*
X55317569Y-49547375D01*
X55308503Y-49545939D01*
X55296984Y-49545939D01*
X55251967Y-49536984D01*
X55154739Y-49521585D01*
X55123469Y-49511424D01*
X55094911Y-49505744D01*
X55054604Y-49489048D01*
X54997947Y-49470639D01*
X54944869Y-49443594D01*
X54904562Y-49426899D01*
X54880348Y-49410720D01*
X54851056Y-49395795D01*
X54771420Y-49337936D01*
X54733253Y-49312434D01*
X54725107Y-49304288D01*
X54717684Y-49298895D01*
X54601104Y-49182315D01*
X54595710Y-49174891D01*
X54587566Y-49166747D01*
X54562066Y-49128583D01*
X54504204Y-49048943D01*
X54489277Y-49019647D01*
X54473101Y-48995438D01*
X54456407Y-48955135D01*
X54429360Y-48902052D01*
X54410948Y-48845387D01*
X54394256Y-48805089D01*
X54388576Y-48776536D01*
X54378414Y-48745260D01*
X54363014Y-48648026D01*
X54354061Y-48603016D01*
X54354061Y-48591496D01*
X54352625Y-48582430D01*
X54352625Y-48417569D01*
X54354061Y-48408502D01*
X54354061Y-48396984D01*
X54363013Y-48351977D01*
X54378414Y-48254739D01*
X54388576Y-48223461D01*
X54394256Y-48194911D01*
X54410946Y-48154616D01*
X54429360Y-48097947D01*
X54456409Y-48044858D01*
X54473101Y-48004562D01*
X54489275Y-47980355D01*
X54504204Y-47951056D01*
X54562074Y-47871403D01*
X54587566Y-47833253D01*
X54595707Y-47825111D01*
X54601104Y-47817684D01*
X54717684Y-47701104D01*
X54725111Y-47695707D01*
X54733253Y-47687566D01*
X54771403Y-47662074D01*
X54851056Y-47604204D01*
X54880355Y-47589275D01*
X54904562Y-47573101D01*
X54944858Y-47556409D01*
X54997947Y-47529360D01*
X55054616Y-47510946D01*
X55094911Y-47494256D01*
X55123461Y-47488576D01*
X55154739Y-47478414D01*
X55251977Y-47463013D01*
X55296984Y-47454061D01*
X55308502Y-47454061D01*
X55317569Y-47452625D01*
X55482431Y-47452625D01*
X55491498Y-47454061D01*
G37*
G36*
X39891498Y-47384061D02*
G01*
X39903016Y-47384061D01*
X39948023Y-47393013D01*
X40045260Y-47408414D01*
X40076536Y-47418576D01*
X40105089Y-47424256D01*
X40145387Y-47440948D01*
X40202052Y-47459360D01*
X40255135Y-47486407D01*
X40295438Y-47503101D01*
X40319647Y-47519277D01*
X40348943Y-47534204D01*
X40428583Y-47592066D01*
X40466747Y-47617566D01*
X40474891Y-47625710D01*
X40482315Y-47631104D01*
X40598895Y-47747684D01*
X40604288Y-47755107D01*
X40612434Y-47763253D01*
X40637936Y-47801420D01*
X40695795Y-47881056D01*
X40710720Y-47910348D01*
X40726899Y-47934562D01*
X40743594Y-47974869D01*
X40770639Y-48027947D01*
X40789048Y-48084604D01*
X40805744Y-48124911D01*
X40811424Y-48153469D01*
X40821585Y-48184739D01*
X40836984Y-48281967D01*
X40845939Y-48326984D01*
X40845939Y-48338502D01*
X40847375Y-48347569D01*
X40847375Y-48512430D01*
X40845939Y-48521496D01*
X40845939Y-48533016D01*
X40836983Y-48578035D01*
X40821585Y-48675260D01*
X40811425Y-48706528D01*
X40805744Y-48735089D01*
X40789047Y-48775398D01*
X40770639Y-48832052D01*
X40743596Y-48885125D01*
X40726899Y-48925438D01*
X40710718Y-48949654D01*
X40695795Y-48978943D01*
X40637945Y-49058566D01*
X40612434Y-49096747D01*
X40604285Y-49104895D01*
X40598895Y-49112315D01*
X40482315Y-49228895D01*
X40474895Y-49234285D01*
X40466747Y-49242434D01*
X40428566Y-49267945D01*
X40348943Y-49325795D01*
X40319654Y-49340718D01*
X40295438Y-49356899D01*
X40255125Y-49373596D01*
X40202052Y-49400639D01*
X40145398Y-49419047D01*
X40105089Y-49435744D01*
X40076528Y-49441425D01*
X40045260Y-49451585D01*
X39948033Y-49466984D01*
X39903016Y-49475939D01*
X39891497Y-49475939D01*
X39882431Y-49477375D01*
X39717569Y-49477375D01*
X39708503Y-49475939D01*
X39696984Y-49475939D01*
X39651967Y-49466984D01*
X39554739Y-49451585D01*
X39523469Y-49441424D01*
X39494911Y-49435744D01*
X39454604Y-49419048D01*
X39397947Y-49400639D01*
X39344869Y-49373594D01*
X39304562Y-49356899D01*
X39280348Y-49340720D01*
X39251056Y-49325795D01*
X39171420Y-49267936D01*
X39133253Y-49242434D01*
X39125107Y-49234288D01*
X39117684Y-49228895D01*
X39001104Y-49112315D01*
X38995710Y-49104891D01*
X38987566Y-49096747D01*
X38962066Y-49058583D01*
X38904204Y-48978943D01*
X38889277Y-48949647D01*
X38873101Y-48925438D01*
X38856407Y-48885135D01*
X38829360Y-48832052D01*
X38810948Y-48775387D01*
X38794256Y-48735089D01*
X38788576Y-48706536D01*
X38778414Y-48675260D01*
X38763014Y-48578026D01*
X38754061Y-48533016D01*
X38754061Y-48521496D01*
X38752625Y-48512430D01*
X38752625Y-48347569D01*
X38754061Y-48338502D01*
X38754061Y-48326984D01*
X38763013Y-48281977D01*
X38778414Y-48184739D01*
X38788576Y-48153461D01*
X38794256Y-48124911D01*
X38810946Y-48084616D01*
X38829360Y-48027947D01*
X38856409Y-47974858D01*
X38873101Y-47934562D01*
X38889275Y-47910355D01*
X38904204Y-47881056D01*
X38962074Y-47801403D01*
X38987566Y-47763253D01*
X38995707Y-47755111D01*
X39001104Y-47747684D01*
X39117684Y-47631104D01*
X39125111Y-47625707D01*
X39133253Y-47617566D01*
X39171403Y-47592074D01*
X39251056Y-47534204D01*
X39280355Y-47519275D01*
X39304562Y-47503101D01*
X39344858Y-47486409D01*
X39397947Y-47459360D01*
X39454616Y-47440946D01*
X39494911Y-47424256D01*
X39523461Y-47418576D01*
X39554739Y-47408414D01*
X39651977Y-47393013D01*
X39696984Y-47384061D01*
X39708502Y-47384061D01*
X39717569Y-47382625D01*
X39882431Y-47382625D01*
X39891498Y-47384061D01*
G37*
G36*
X92067032Y-47085644D02*
G01*
X92221159Y-47149485D01*
X92359869Y-47242168D01*
X92477832Y-47360131D01*
X92570515Y-47498841D01*
X92634356Y-47652968D01*
X92666902Y-47816587D01*
X92666902Y-47983413D01*
X92634356Y-48147032D01*
X92570515Y-48301159D01*
X92477832Y-48439869D01*
X92359869Y-48557832D01*
X92221159Y-48650515D01*
X92067032Y-48714356D01*
X91903413Y-48746902D01*
X91736587Y-48746902D01*
X91572968Y-48714356D01*
X91418841Y-48650515D01*
X91280131Y-48557832D01*
X91162168Y-48439869D01*
X91069485Y-48301159D01*
X91005644Y-48147032D01*
X90973098Y-47983413D01*
X90973098Y-47816587D01*
X91005644Y-47652968D01*
X91069485Y-47498841D01*
X91162168Y-47360131D01*
X91280131Y-47242168D01*
X91418841Y-47149485D01*
X91572968Y-47085644D01*
X91736587Y-47053098D01*
X91903413Y-47053098D01*
X92067032Y-47085644D01*
G37*
G36*
X96607032Y-47085644D02*
G01*
X96761159Y-47149485D01*
X96899869Y-47242168D01*
X97017832Y-47360131D01*
X97110515Y-47498841D01*
X97174356Y-47652968D01*
X97206902Y-47816587D01*
X97206902Y-47983413D01*
X97174356Y-48147032D01*
X97110515Y-48301159D01*
X97017832Y-48439869D01*
X96899869Y-48557832D01*
X96761159Y-48650515D01*
X96607032Y-48714356D01*
X96443413Y-48746902D01*
X96276587Y-48746902D01*
X96112968Y-48714356D01*
X95958841Y-48650515D01*
X95820131Y-48557832D01*
X95702168Y-48439869D01*
X95609485Y-48301159D01*
X95545644Y-48147032D01*
X95513098Y-47983413D01*
X95513098Y-47816587D01*
X95545644Y-47652968D01*
X95609485Y-47498841D01*
X95702168Y-47360131D01*
X95820131Y-47242168D01*
X95958841Y-47149485D01*
X96112968Y-47085644D01*
X96276587Y-47053098D01*
X96443413Y-47053098D01*
X96607032Y-47085644D01*
G37*
G36*
X101422518Y-47143491D02*
G01*
X101567589Y-47203581D01*
X101698149Y-47290819D01*
X101809181Y-47401851D01*
X101896419Y-47532411D01*
X101956509Y-47677482D01*
X101987143Y-47831488D01*
X101987143Y-47988512D01*
X101956509Y-48142518D01*
X101896419Y-48287589D01*
X101809181Y-48418149D01*
X101698149Y-48529181D01*
X101567589Y-48616419D01*
X101422518Y-48676509D01*
X101268512Y-48707143D01*
X101111488Y-48707143D01*
X100957482Y-48676509D01*
X100812411Y-48616419D01*
X100681851Y-48529181D01*
X100570819Y-48418149D01*
X100483581Y-48287589D01*
X100423491Y-48142518D01*
X100392857Y-47988512D01*
X100392857Y-47831488D01*
X100423491Y-47677482D01*
X100483581Y-47532411D01*
X100570819Y-47401851D01*
X100681851Y-47290819D01*
X100812411Y-47203581D01*
X100957482Y-47143491D01*
X101111488Y-47112857D01*
X101268512Y-47112857D01*
X101422518Y-47143491D01*
G37*
G36*
X78817032Y-46025644D02*
G01*
X78971159Y-46089485D01*
X79109869Y-46182168D01*
X79227832Y-46300131D01*
X79320515Y-46438841D01*
X79384356Y-46592968D01*
X79416902Y-46756587D01*
X79416902Y-46923413D01*
X79384356Y-47087032D01*
X79320515Y-47241159D01*
X79227832Y-47379869D01*
X79109869Y-47497832D01*
X78971159Y-47590515D01*
X78817032Y-47654356D01*
X78653413Y-47686902D01*
X78486587Y-47686902D01*
X78322968Y-47654356D01*
X78168841Y-47590515D01*
X78030131Y-47497832D01*
X77912168Y-47379869D01*
X77819485Y-47241159D01*
X77755644Y-47087032D01*
X77723098Y-46923413D01*
X77723098Y-46756587D01*
X77755644Y-46592968D01*
X77819485Y-46438841D01*
X77912168Y-46300131D01*
X78030131Y-46182168D01*
X78168841Y-46089485D01*
X78322968Y-46025644D01*
X78486587Y-45993098D01*
X78653413Y-45993098D01*
X78817032Y-46025644D01*
G37*
G36*
X83817032Y-46025644D02*
G01*
X83971159Y-46089485D01*
X84109869Y-46182168D01*
X84227832Y-46300131D01*
X84320515Y-46438841D01*
X84384356Y-46592968D01*
X84416902Y-46756587D01*
X84416902Y-46923413D01*
X84384356Y-47087032D01*
X84320515Y-47241159D01*
X84227832Y-47379869D01*
X84109869Y-47497832D01*
X83971159Y-47590515D01*
X83817032Y-47654356D01*
X83653413Y-47686902D01*
X83486587Y-47686902D01*
X83322968Y-47654356D01*
X83168841Y-47590515D01*
X83030131Y-47497832D01*
X82912168Y-47379869D01*
X82819485Y-47241159D01*
X82755644Y-47087032D01*
X82723098Y-46923413D01*
X82723098Y-46756587D01*
X82755644Y-46592968D01*
X82819485Y-46438841D01*
X82912168Y-46300131D01*
X83030131Y-46182168D01*
X83168841Y-46089485D01*
X83322968Y-46025644D01*
X83486587Y-45993098D01*
X83653413Y-45993098D01*
X83817032Y-46025644D01*
G37*
G36*
X51568696Y-45100802D02*
G01*
X51740469Y-45156615D01*
X51901396Y-45238611D01*
X52047515Y-45344773D01*
X52175227Y-45472485D01*
X52281389Y-45618604D01*
X52363385Y-45779531D01*
X52419198Y-45951304D01*
X52447452Y-46129694D01*
X52447452Y-46310306D01*
X52419198Y-46488696D01*
X52363385Y-46660469D01*
X52281389Y-46821396D01*
X52175227Y-46967515D01*
X52047515Y-47095227D01*
X51901396Y-47201389D01*
X51740469Y-47283385D01*
X51568696Y-47339198D01*
X51390306Y-47367452D01*
X51209694Y-47367452D01*
X51031304Y-47339198D01*
X50859531Y-47283385D01*
X50698604Y-47201389D01*
X50552485Y-47095227D01*
X50424773Y-46967515D01*
X50318611Y-46821396D01*
X50236615Y-46660469D01*
X50180802Y-46488696D01*
X50152548Y-46310306D01*
X50152548Y-46129694D01*
X50180802Y-45951304D01*
X50236615Y-45779531D01*
X50318611Y-45618604D01*
X50424773Y-45472485D01*
X50552485Y-45344773D01*
X50698604Y-45238611D01*
X50859531Y-45156615D01*
X51031304Y-45100802D01*
X51209694Y-45072548D01*
X51390306Y-45072548D01*
X51568696Y-45100802D01*
G37*
G36*
X47247032Y-44535644D02*
G01*
X47401159Y-44599485D01*
X47539869Y-44692168D01*
X47657832Y-44810131D01*
X47750515Y-44948841D01*
X47814356Y-45102968D01*
X47846902Y-45266587D01*
X47846902Y-45433413D01*
X47814356Y-45597032D01*
X47750515Y-45751159D01*
X47657832Y-45889869D01*
X47539869Y-46007832D01*
X47401159Y-46100515D01*
X47247032Y-46164356D01*
X47083413Y-46196902D01*
X46916587Y-46196902D01*
X46752968Y-46164356D01*
X46598841Y-46100515D01*
X46460131Y-46007832D01*
X46342168Y-45889869D01*
X46249485Y-45751159D01*
X46185644Y-45597032D01*
X46153098Y-45433413D01*
X46153098Y-45266587D01*
X46185644Y-45102968D01*
X46249485Y-44948841D01*
X46342168Y-44810131D01*
X46460131Y-44692168D01*
X46598841Y-44599485D01*
X46752968Y-44535644D01*
X46916587Y-44503098D01*
X47083413Y-44503098D01*
X47247032Y-44535644D01*
G37*
G36*
X55491498Y-43254061D02*
G01*
X55503016Y-43254061D01*
X55548023Y-43263013D01*
X55645260Y-43278414D01*
X55676536Y-43288576D01*
X55705089Y-43294256D01*
X55745387Y-43310948D01*
X55802052Y-43329360D01*
X55855135Y-43356407D01*
X55895438Y-43373101D01*
X55919647Y-43389277D01*
X55948943Y-43404204D01*
X56028583Y-43462066D01*
X56066747Y-43487566D01*
X56074891Y-43495710D01*
X56082315Y-43501104D01*
X56198895Y-43617684D01*
X56204288Y-43625107D01*
X56212434Y-43633253D01*
X56237936Y-43671420D01*
X56295795Y-43751056D01*
X56310720Y-43780348D01*
X56326899Y-43804562D01*
X56343594Y-43844869D01*
X56370639Y-43897947D01*
X56389048Y-43954604D01*
X56405744Y-43994911D01*
X56411424Y-44023469D01*
X56421585Y-44054739D01*
X56436984Y-44151967D01*
X56445939Y-44196984D01*
X56445939Y-44208502D01*
X56447375Y-44217569D01*
X56447375Y-44382430D01*
X56445939Y-44391496D01*
X56445939Y-44403016D01*
X56436983Y-44448035D01*
X56421585Y-44545260D01*
X56411425Y-44576528D01*
X56405744Y-44605089D01*
X56389047Y-44645398D01*
X56370639Y-44702052D01*
X56343596Y-44755125D01*
X56326899Y-44795438D01*
X56310718Y-44819654D01*
X56295795Y-44848943D01*
X56237945Y-44928566D01*
X56212434Y-44966747D01*
X56204285Y-44974895D01*
X56198895Y-44982315D01*
X56082315Y-45098895D01*
X56074895Y-45104285D01*
X56066747Y-45112434D01*
X56028566Y-45137945D01*
X55948943Y-45195795D01*
X55919654Y-45210718D01*
X55895438Y-45226899D01*
X55855125Y-45243596D01*
X55802052Y-45270639D01*
X55745398Y-45289047D01*
X55705089Y-45305744D01*
X55676528Y-45311425D01*
X55645260Y-45321585D01*
X55548033Y-45336984D01*
X55503016Y-45345939D01*
X55491497Y-45345939D01*
X55482431Y-45347375D01*
X55317569Y-45347375D01*
X55308503Y-45345939D01*
X55296984Y-45345939D01*
X55251967Y-45336984D01*
X55154739Y-45321585D01*
X55123469Y-45311424D01*
X55094911Y-45305744D01*
X55054604Y-45289048D01*
X54997947Y-45270639D01*
X54944869Y-45243594D01*
X54904562Y-45226899D01*
X54880348Y-45210720D01*
X54851056Y-45195795D01*
X54771420Y-45137936D01*
X54733253Y-45112434D01*
X54725107Y-45104288D01*
X54717684Y-45098895D01*
X54601104Y-44982315D01*
X54595710Y-44974891D01*
X54587566Y-44966747D01*
X54562066Y-44928583D01*
X54504204Y-44848943D01*
X54489277Y-44819647D01*
X54473101Y-44795438D01*
X54456407Y-44755135D01*
X54429360Y-44702052D01*
X54410948Y-44645387D01*
X54394256Y-44605089D01*
X54388576Y-44576536D01*
X54378414Y-44545260D01*
X54363014Y-44448026D01*
X54354061Y-44403016D01*
X54354061Y-44391496D01*
X54352625Y-44382430D01*
X54352625Y-44217569D01*
X54354061Y-44208502D01*
X54354061Y-44196984D01*
X54363013Y-44151977D01*
X54378414Y-44054739D01*
X54388576Y-44023461D01*
X54394256Y-43994911D01*
X54410946Y-43954616D01*
X54429360Y-43897947D01*
X54456409Y-43844858D01*
X54473101Y-43804562D01*
X54489275Y-43780355D01*
X54504204Y-43751056D01*
X54562074Y-43671403D01*
X54587566Y-43633253D01*
X54595707Y-43625111D01*
X54601104Y-43617684D01*
X54717684Y-43501104D01*
X54725111Y-43495707D01*
X54733253Y-43487566D01*
X54771403Y-43462074D01*
X54851056Y-43404204D01*
X54880355Y-43389275D01*
X54904562Y-43373101D01*
X54944858Y-43356409D01*
X54997947Y-43329360D01*
X55054616Y-43310946D01*
X55094911Y-43294256D01*
X55123461Y-43288576D01*
X55154739Y-43278414D01*
X55251977Y-43263013D01*
X55296984Y-43254061D01*
X55308502Y-43254061D01*
X55317569Y-43252625D01*
X55482431Y-43252625D01*
X55491498Y-43254061D01*
G37*
G36*
X108862518Y-43213491D02*
G01*
X109007589Y-43273581D01*
X109138149Y-43360819D01*
X109249181Y-43471851D01*
X109336419Y-43602411D01*
X109396509Y-43747482D01*
X109427143Y-43901488D01*
X109427143Y-44058512D01*
X109396509Y-44212518D01*
X109336419Y-44357589D01*
X109249181Y-44488149D01*
X109138149Y-44599181D01*
X109007589Y-44686419D01*
X108862518Y-44746509D01*
X108708512Y-44777143D01*
X108551488Y-44777143D01*
X108397482Y-44746509D01*
X108252411Y-44686419D01*
X108121851Y-44599181D01*
X108010819Y-44488149D01*
X107923581Y-44357589D01*
X107863491Y-44212518D01*
X107832857Y-44058512D01*
X107832857Y-43901488D01*
X107863491Y-43747482D01*
X107923581Y-43602411D01*
X108010819Y-43471851D01*
X108121851Y-43360819D01*
X108252411Y-43273581D01*
X108397482Y-43213491D01*
X108551488Y-43182857D01*
X108708512Y-43182857D01*
X108862518Y-43213491D01*
G37*
G36*
X113962518Y-43213491D02*
G01*
X114107589Y-43273581D01*
X114238149Y-43360819D01*
X114349181Y-43471851D01*
X114436419Y-43602411D01*
X114496509Y-43747482D01*
X114527143Y-43901488D01*
X114527143Y-44058512D01*
X114496509Y-44212518D01*
X114436419Y-44357589D01*
X114349181Y-44488149D01*
X114238149Y-44599181D01*
X114107589Y-44686419D01*
X113962518Y-44746509D01*
X113808512Y-44777143D01*
X113651488Y-44777143D01*
X113497482Y-44746509D01*
X113352411Y-44686419D01*
X113221851Y-44599181D01*
X113110819Y-44488149D01*
X113023581Y-44357589D01*
X112963491Y-44212518D01*
X112932857Y-44058512D01*
X112932857Y-43901488D01*
X112963491Y-43747482D01*
X113023581Y-43602411D01*
X113110819Y-43471851D01*
X113221851Y-43360819D01*
X113352411Y-43273581D01*
X113497482Y-43213491D01*
X113651488Y-43182857D01*
X113808512Y-43182857D01*
X113962518Y-43213491D01*
G37*
G36*
X92197032Y-42335644D02*
G01*
X92351159Y-42399485D01*
X92489869Y-42492168D01*
X92607832Y-42610131D01*
X92700515Y-42748841D01*
X92764356Y-42902968D01*
X92796902Y-43066587D01*
X92796902Y-43233413D01*
X92764356Y-43397032D01*
X92700515Y-43551159D01*
X92607832Y-43689869D01*
X92489869Y-43807832D01*
X92351159Y-43900515D01*
X92197032Y-43964356D01*
X92033413Y-43996902D01*
X91866587Y-43996902D01*
X91702968Y-43964356D01*
X91548841Y-43900515D01*
X91410131Y-43807832D01*
X91292168Y-43689869D01*
X91199485Y-43551159D01*
X91135644Y-43397032D01*
X91103098Y-43233413D01*
X91103098Y-43066587D01*
X91135644Y-42902968D01*
X91199485Y-42748841D01*
X91292168Y-42610131D01*
X91410131Y-42492168D01*
X91548841Y-42399485D01*
X91702968Y-42335644D01*
X91866587Y-42303098D01*
X92033413Y-42303098D01*
X92197032Y-42335644D01*
G37*
G36*
X104897032Y-42335644D02*
G01*
X105051159Y-42399485D01*
X105189869Y-42492168D01*
X105307832Y-42610131D01*
X105400515Y-42748841D01*
X105464356Y-42902968D01*
X105496902Y-43066587D01*
X105496902Y-43233413D01*
X105464356Y-43397032D01*
X105400515Y-43551159D01*
X105307832Y-43689869D01*
X105189869Y-43807832D01*
X105051159Y-43900515D01*
X104897032Y-43964356D01*
X104733413Y-43996902D01*
X104566587Y-43996902D01*
X104402968Y-43964356D01*
X104248841Y-43900515D01*
X104110131Y-43807832D01*
X103992168Y-43689869D01*
X103899485Y-43551159D01*
X103835644Y-43397032D01*
X103803098Y-43233413D01*
X103803098Y-43066587D01*
X103835644Y-42902968D01*
X103899485Y-42748841D01*
X103992168Y-42610131D01*
X104110131Y-42492168D01*
X104248841Y-42399485D01*
X104402968Y-42335644D01*
X104566587Y-42303098D01*
X104733413Y-42303098D01*
X104897032Y-42335644D01*
G37*
G36*
X40346373Y-38907024D02*
G01*
X40609558Y-38977545D01*
X40861287Y-39081814D01*
X41097253Y-39218049D01*
X41313417Y-39383918D01*
X41506082Y-39576583D01*
X41671951Y-39792747D01*
X41808186Y-40028713D01*
X41912455Y-40280442D01*
X41982976Y-40543627D01*
X42018540Y-40813765D01*
X42018540Y-41086235D01*
X41982976Y-41356373D01*
X41912455Y-41619558D01*
X41808186Y-41871287D01*
X41671951Y-42107253D01*
X41506082Y-42323417D01*
X41313417Y-42516082D01*
X41097253Y-42681951D01*
X40861287Y-42818186D01*
X40609558Y-42922455D01*
X40346373Y-42992976D01*
X40076235Y-43028540D01*
X39803765Y-43028540D01*
X39533627Y-42992976D01*
X39270442Y-42922455D01*
X39018713Y-42818186D01*
X38782747Y-42681951D01*
X38566583Y-42516082D01*
X38373918Y-42323417D01*
X38208049Y-42107253D01*
X38071814Y-41871287D01*
X37967545Y-41619558D01*
X37897024Y-41356373D01*
X37861460Y-41086235D01*
X37861460Y-40813765D01*
X37897024Y-40543627D01*
X37967545Y-40280442D01*
X38071814Y-40028713D01*
X38208049Y-39792747D01*
X38373918Y-39576583D01*
X38566583Y-39383918D01*
X38782747Y-39218049D01*
X39018713Y-39081814D01*
X39270442Y-38977545D01*
X39533627Y-38907024D01*
X39803765Y-38871460D01*
X40076235Y-38871460D01*
X40346373Y-38907024D01*
G37*
G36*
X108862518Y-40673491D02*
G01*
X109007589Y-40733581D01*
X109138149Y-40820819D01*
X109249181Y-40931851D01*
X109336419Y-41062411D01*
X109396509Y-41207482D01*
X109427143Y-41361488D01*
X109427143Y-41518512D01*
X109396509Y-41672518D01*
X109336419Y-41817589D01*
X109249181Y-41948149D01*
X109138149Y-42059181D01*
X109007589Y-42146419D01*
X108862518Y-42206509D01*
X108708512Y-42237143D01*
X108551488Y-42237143D01*
X108397482Y-42206509D01*
X108252411Y-42146419D01*
X108121851Y-42059181D01*
X108010819Y-41948149D01*
X107923581Y-41817589D01*
X107863491Y-41672518D01*
X107832857Y-41518512D01*
X107832857Y-41361488D01*
X107863491Y-41207482D01*
X107923581Y-41062411D01*
X108010819Y-40931851D01*
X108121851Y-40820819D01*
X108252411Y-40733581D01*
X108397482Y-40673491D01*
X108551488Y-40642857D01*
X108708512Y-40642857D01*
X108862518Y-40673491D01*
G37*
G36*
X113962518Y-40673491D02*
G01*
X114107589Y-40733581D01*
X114238149Y-40820819D01*
X114349181Y-40931851D01*
X114436419Y-41062411D01*
X114496509Y-41207482D01*
X114527143Y-41361488D01*
X114527143Y-41518512D01*
X114496509Y-41672518D01*
X114436419Y-41817589D01*
X114349181Y-41948149D01*
X114238149Y-42059181D01*
X114107589Y-42146419D01*
X113962518Y-42206509D01*
X113808512Y-42237143D01*
X113651488Y-42237143D01*
X113497482Y-42206509D01*
X113352411Y-42146419D01*
X113221851Y-42059181D01*
X113110819Y-41948149D01*
X113023581Y-41817589D01*
X112963491Y-41672518D01*
X112932857Y-41518512D01*
X112932857Y-41361488D01*
X112963491Y-41207482D01*
X113023581Y-41062411D01*
X113110819Y-40931851D01*
X113221851Y-40820819D01*
X113352411Y-40733581D01*
X113497482Y-40673491D01*
X113651488Y-40642857D01*
X113808512Y-40642857D01*
X113962518Y-40673491D01*
G37*
G36*
X62008914Y-37656995D02*
G01*
X62024726Y-37663976D01*
X62032531Y-37665213D01*
X62065039Y-37681776D01*
X62110106Y-37701676D01*
X62188324Y-37779894D01*
X62208226Y-37824967D01*
X62224786Y-37857468D01*
X62226021Y-37865270D01*
X62233005Y-37881086D01*
X62241000Y-37950000D01*
X62241000Y-40650000D01*
X62233005Y-40718914D01*
X62226021Y-40734729D01*
X62224786Y-40742531D01*
X62208229Y-40775024D01*
X62188324Y-40820106D01*
X62110106Y-40898324D01*
X62065024Y-40918229D01*
X62032531Y-40934786D01*
X62024729Y-40936021D01*
X62008914Y-40943005D01*
X61940000Y-40951000D01*
X59240000Y-40951000D01*
X59171086Y-40943005D01*
X59155270Y-40936021D01*
X59147468Y-40934786D01*
X59114967Y-40918226D01*
X59069894Y-40898324D01*
X58991676Y-40820106D01*
X58971776Y-40775039D01*
X58955213Y-40742531D01*
X58953976Y-40734726D01*
X58946995Y-40718914D01*
X58939000Y-40650000D01*
X58939000Y-37950000D01*
X58946995Y-37881086D01*
X58953976Y-37865274D01*
X58955213Y-37857468D01*
X58971780Y-37824953D01*
X58991676Y-37779894D01*
X59069894Y-37701676D01*
X59114953Y-37681780D01*
X59147468Y-37665213D01*
X59155274Y-37663976D01*
X59171086Y-37656995D01*
X59240000Y-37649000D01*
X61940000Y-37649000D01*
X62008914Y-37656995D01*
G37*
G36*
X45467730Y-37654089D02*
G01*
X45479536Y-37654089D01*
X45537663Y-37663295D01*
X45672042Y-37680986D01*
X45704837Y-37689773D01*
X45735418Y-37694617D01*
X45794229Y-37713726D01*
X45880611Y-37736872D01*
X45935724Y-37759700D01*
X45981810Y-37774675D01*
X46024987Y-37796674D01*
X46080099Y-37819503D01*
X46157539Y-37864213D01*
X46212645Y-37892291D01*
X46237697Y-37910492D01*
X46267096Y-37927466D01*
X46374651Y-38009995D01*
X46422239Y-38044570D01*
X46430579Y-38052910D01*
X46438401Y-38058912D01*
X46591087Y-38211598D01*
X46597088Y-38219419D01*
X46605430Y-38227761D01*
X46640008Y-38275354D01*
X46722533Y-38382903D01*
X46739505Y-38412299D01*
X46757709Y-38437355D01*
X46785789Y-38492466D01*
X46830496Y-38569900D01*
X46853321Y-38625006D01*
X46875325Y-38668190D01*
X46890301Y-38714282D01*
X46913127Y-38769388D01*
X46936269Y-38855757D01*
X46955383Y-38914582D01*
X46960227Y-38945169D01*
X46969013Y-38977957D01*
X46986703Y-39112327D01*
X46995911Y-39170464D01*
X46995911Y-39182269D01*
X46997197Y-39192038D01*
X46997197Y-39407961D01*
X46995911Y-39417729D01*
X46995911Y-39429536D01*
X46986702Y-39487677D01*
X46969013Y-39622042D01*
X46960228Y-39654827D01*
X46955383Y-39685418D01*
X46936268Y-39744246D01*
X46913127Y-39830611D01*
X46890302Y-39885713D01*
X46875325Y-39931810D01*
X46853319Y-39974997D01*
X46830496Y-40030099D01*
X46785793Y-40107525D01*
X46757709Y-40162645D01*
X46739502Y-40187704D01*
X46722533Y-40217096D01*
X46640022Y-40324627D01*
X46605430Y-40372239D01*
X46597085Y-40380583D01*
X46591087Y-40388401D01*
X46438401Y-40541087D01*
X46430583Y-40547085D01*
X46422239Y-40555430D01*
X46374627Y-40590022D01*
X46267096Y-40672533D01*
X46237704Y-40689502D01*
X46212645Y-40707709D01*
X46157525Y-40735793D01*
X46080099Y-40780496D01*
X46024997Y-40803319D01*
X45981810Y-40825325D01*
X45935713Y-40840302D01*
X45880611Y-40863127D01*
X45794246Y-40886268D01*
X45735418Y-40905383D01*
X45704827Y-40910228D01*
X45672042Y-40919013D01*
X45537677Y-40936702D01*
X45479536Y-40945911D01*
X45467729Y-40945911D01*
X45457961Y-40947197D01*
X45242039Y-40947197D01*
X45232271Y-40945911D01*
X45220464Y-40945911D01*
X45162324Y-40936702D01*
X45027957Y-40919013D01*
X44995169Y-40910227D01*
X44964582Y-40905383D01*
X44905757Y-40886269D01*
X44819388Y-40863127D01*
X44764282Y-40840301D01*
X44718190Y-40825325D01*
X44675006Y-40803321D01*
X44619900Y-40780496D01*
X44542466Y-40735789D01*
X44487355Y-40707709D01*
X44462299Y-40689505D01*
X44432903Y-40672533D01*
X44325354Y-40590008D01*
X44277761Y-40555430D01*
X44269419Y-40547088D01*
X44261598Y-40541087D01*
X44108912Y-40388401D01*
X44102910Y-40380579D01*
X44094570Y-40372239D01*
X44059995Y-40324651D01*
X43977466Y-40217096D01*
X43960492Y-40187697D01*
X43942291Y-40162645D01*
X43914213Y-40107539D01*
X43869503Y-40030099D01*
X43846674Y-39974987D01*
X43824675Y-39931810D01*
X43809700Y-39885724D01*
X43786872Y-39830611D01*
X43763726Y-39744229D01*
X43744617Y-39685418D01*
X43739773Y-39654837D01*
X43730986Y-39622042D01*
X43713295Y-39487663D01*
X43704089Y-39429536D01*
X43704089Y-39417729D01*
X43702803Y-39407961D01*
X43702803Y-39192038D01*
X43704089Y-39182269D01*
X43704089Y-39170464D01*
X43713294Y-39112341D01*
X43730986Y-38977957D01*
X43739773Y-38945160D01*
X43744617Y-38914582D01*
X43763724Y-38855775D01*
X43786872Y-38769388D01*
X43809702Y-38714271D01*
X43824675Y-38668190D01*
X43846672Y-38625016D01*
X43869503Y-38569900D01*
X43914217Y-38492451D01*
X43942291Y-38437355D01*
X43960489Y-38412306D01*
X43977466Y-38382903D01*
X44060009Y-38275329D01*
X44094570Y-38227761D01*
X44102906Y-38219424D01*
X44108912Y-38211598D01*
X44261598Y-38058912D01*
X44269424Y-38052906D01*
X44277761Y-38044570D01*
X44325329Y-38010009D01*
X44432903Y-37927466D01*
X44462306Y-37910489D01*
X44487355Y-37892291D01*
X44542451Y-37864217D01*
X44619900Y-37819503D01*
X44675016Y-37796672D01*
X44718190Y-37774675D01*
X44764271Y-37759702D01*
X44819388Y-37736872D01*
X44905775Y-37713724D01*
X44964582Y-37694617D01*
X44995160Y-37689773D01*
X45027957Y-37680986D01*
X45162338Y-37663295D01*
X45220464Y-37654089D01*
X45232270Y-37654089D01*
X45242039Y-37652803D01*
X45457961Y-37652803D01*
X45467730Y-37654089D01*
G37*
G36*
X89514115Y-37896795D02*
G01*
X89529926Y-37903776D01*
X89537733Y-37905013D01*
X89570254Y-37921583D01*
X89615306Y-37941476D01*
X89693524Y-38019694D01*
X89713419Y-38064753D01*
X89729986Y-38097266D01*
X89731222Y-38105070D01*
X89738205Y-38120885D01*
X89746199Y-38189800D01*
X89746199Y-38199629D01*
X89746200Y-38199636D01*
X89746200Y-39081814D01*
X89746200Y-39889801D01*
X89738205Y-39958715D01*
X89731221Y-39974529D01*
X89729986Y-39982333D01*
X89713423Y-40014839D01*
X89693524Y-40059906D01*
X89615306Y-40138124D01*
X89570239Y-40158023D01*
X89537733Y-40174586D01*
X89529929Y-40175821D01*
X89514115Y-40182805D01*
X89445200Y-40190799D01*
X89435370Y-40190799D01*
X89435364Y-40190800D01*
X87755036Y-40190800D01*
X87755035Y-40190799D01*
X87745199Y-40190800D01*
X87676285Y-40182805D01*
X87660470Y-40175822D01*
X87652666Y-40174586D01*
X87620153Y-40158019D01*
X87575094Y-40138124D01*
X87496876Y-40059906D01*
X87476983Y-40014854D01*
X87460413Y-39982333D01*
X87459176Y-39974526D01*
X87452195Y-39958715D01*
X87444201Y-39889800D01*
X87444200Y-39879969D01*
X87444200Y-39879963D01*
X87444200Y-38199636D01*
X87444200Y-38199635D01*
X87444200Y-38189799D01*
X87452195Y-38120885D01*
X87459176Y-38105073D01*
X87460413Y-38097266D01*
X87476986Y-38064738D01*
X87496876Y-38019694D01*
X87575094Y-37941476D01*
X87620138Y-37921586D01*
X87652666Y-37905013D01*
X87660473Y-37903776D01*
X87676285Y-37896795D01*
X87745200Y-37888801D01*
X87755029Y-37888800D01*
X87755036Y-37888800D01*
X89435364Y-37888800D01*
X89445201Y-37888800D01*
X89514115Y-37896795D01*
G37*
G36*
X78703896Y-37920602D02*
G01*
X78875669Y-37976415D01*
X79036596Y-38058411D01*
X79182715Y-38164573D01*
X79310427Y-38292285D01*
X79416589Y-38438404D01*
X79498585Y-38599331D01*
X79554398Y-38771104D01*
X79582652Y-38949494D01*
X79582652Y-39130106D01*
X79554398Y-39308496D01*
X79498585Y-39480269D01*
X79416589Y-39641196D01*
X79310427Y-39787315D01*
X79182715Y-39915027D01*
X79036596Y-40021189D01*
X78875669Y-40103185D01*
X78703896Y-40158998D01*
X78525506Y-40187252D01*
X78344894Y-40187252D01*
X78166504Y-40158998D01*
X77994731Y-40103185D01*
X77833804Y-40021189D01*
X77687685Y-39915027D01*
X77559973Y-39787315D01*
X77453811Y-39641196D01*
X77371815Y-39480269D01*
X77316002Y-39308496D01*
X77287748Y-39130106D01*
X77287748Y-38949494D01*
X77316002Y-38771104D01*
X77371815Y-38599331D01*
X77453811Y-38438404D01*
X77559973Y-38292285D01*
X77687685Y-38164573D01*
X77833804Y-38058411D01*
X77994731Y-37976415D01*
X78166504Y-37920602D01*
X78344894Y-37892348D01*
X78525506Y-37892348D01*
X78703896Y-37920602D01*
G37*
G36*
X92207032Y-38085644D02*
G01*
X92361159Y-38149485D01*
X92499869Y-38242168D01*
X92617832Y-38360131D01*
X92710515Y-38498841D01*
X92774356Y-38652968D01*
X92806902Y-38816587D01*
X92806902Y-38983413D01*
X92774356Y-39147032D01*
X92710515Y-39301159D01*
X92617832Y-39439869D01*
X92499869Y-39557832D01*
X92361159Y-39650515D01*
X92207032Y-39714356D01*
X92043413Y-39746902D01*
X91876587Y-39746902D01*
X91712968Y-39714356D01*
X91558841Y-39650515D01*
X91420131Y-39557832D01*
X91302168Y-39439869D01*
X91209485Y-39301159D01*
X91145644Y-39147032D01*
X91113098Y-38983413D01*
X91113098Y-38816587D01*
X91145644Y-38652968D01*
X91209485Y-38498841D01*
X91302168Y-38360131D01*
X91420131Y-38242168D01*
X91558841Y-38149485D01*
X91712968Y-38085644D01*
X91876587Y-38053098D01*
X92043413Y-38053098D01*
X92207032Y-38085644D01*
G37*
G36*
X104907032Y-38085644D02*
G01*
X105061159Y-38149485D01*
X105199869Y-38242168D01*
X105317832Y-38360131D01*
X105410515Y-38498841D01*
X105474356Y-38652968D01*
X105506902Y-38816587D01*
X105506902Y-38983413D01*
X105474356Y-39147032D01*
X105410515Y-39301159D01*
X105317832Y-39439869D01*
X105199869Y-39557832D01*
X105061159Y-39650515D01*
X104907032Y-39714356D01*
X104743413Y-39746902D01*
X104576587Y-39746902D01*
X104412968Y-39714356D01*
X104258841Y-39650515D01*
X104120131Y-39557832D01*
X104002168Y-39439869D01*
X103909485Y-39301159D01*
X103845644Y-39147032D01*
X103813098Y-38983413D01*
X103813098Y-38816587D01*
X103845644Y-38652968D01*
X103909485Y-38498841D01*
X104002168Y-38360131D01*
X104120131Y-38242168D01*
X104258841Y-38149485D01*
X104412968Y-38085644D01*
X104576587Y-38053098D01*
X104743413Y-38053098D01*
X104907032Y-38085644D01*
G37*
G36*
X70142040Y-37253565D02*
G01*
X70328737Y-37314227D01*
X70503646Y-37403347D01*
X70662460Y-37518732D01*
X70801268Y-37657540D01*
X70916653Y-37816354D01*
X71005773Y-37991263D01*
X71066435Y-38177960D01*
X71097144Y-38371848D01*
X71097144Y-38568152D01*
X71066435Y-38762040D01*
X71005773Y-38948737D01*
X70916653Y-39123646D01*
X70801268Y-39282460D01*
X70662460Y-39421268D01*
X70503646Y-39536653D01*
X70328737Y-39625773D01*
X70142040Y-39686435D01*
X69948152Y-39717144D01*
X69751848Y-39717144D01*
X69557960Y-39686435D01*
X69371263Y-39625773D01*
X69196354Y-39536653D01*
X69037540Y-39421268D01*
X68898732Y-39282460D01*
X68783347Y-39123646D01*
X68694227Y-38948737D01*
X68633565Y-38762040D01*
X68602856Y-38568152D01*
X68602856Y-38371848D01*
X68633565Y-38177960D01*
X68694227Y-37991263D01*
X68783347Y-37816354D01*
X68898732Y-37657540D01*
X69037540Y-37518732D01*
X69196354Y-37403347D01*
X69371263Y-37314227D01*
X69557960Y-37253565D01*
X69751848Y-37222856D01*
X69948152Y-37222856D01*
X70142040Y-37253565D01*
G37*
G36*
X109399517Y-38102882D02*
G01*
X109416062Y-38113938D01*
X109427118Y-38130483D01*
X109431000Y-38150000D01*
X109431000Y-39650000D01*
X109427118Y-39669517D01*
X109416062Y-39686062D01*
X109399517Y-39697118D01*
X109380000Y-39701000D01*
X107880000Y-39701000D01*
X107860483Y-39697118D01*
X107843938Y-39686062D01*
X107832882Y-39669517D01*
X107829000Y-39650000D01*
X107829000Y-38150000D01*
X107832882Y-38130483D01*
X107843938Y-38113938D01*
X107860483Y-38102882D01*
X107880000Y-38099000D01*
X109380000Y-38099000D01*
X109399517Y-38102882D01*
G37*
G36*
X114499517Y-38102882D02*
G01*
X114516062Y-38113938D01*
X114527118Y-38130483D01*
X114531000Y-38150000D01*
X114531000Y-39650000D01*
X114527118Y-39669517D01*
X114516062Y-39686062D01*
X114499517Y-39697118D01*
X114480000Y-39701000D01*
X112980000Y-39701000D01*
X112960483Y-39697118D01*
X112943938Y-39686062D01*
X112932882Y-39669517D01*
X112929000Y-39650000D01*
X112929000Y-38150000D01*
X112932882Y-38130483D01*
X112943938Y-38113938D01*
X112960483Y-38102882D01*
X112980000Y-38099000D01*
X114480000Y-38099000D01*
X114499517Y-38102882D01*
G37*
G36*
X126367730Y-34994089D02*
G01*
X126379536Y-34994089D01*
X126437663Y-35003295D01*
X126572042Y-35020986D01*
X126604837Y-35029773D01*
X126635418Y-35034617D01*
X126694229Y-35053726D01*
X126780611Y-35076872D01*
X126835724Y-35099700D01*
X126881810Y-35114675D01*
X126924987Y-35136674D01*
X126980099Y-35159503D01*
X127057539Y-35204213D01*
X127112645Y-35232291D01*
X127137697Y-35250492D01*
X127167096Y-35267466D01*
X127274651Y-35349995D01*
X127322239Y-35384570D01*
X127330579Y-35392910D01*
X127338401Y-35398912D01*
X127491087Y-35551598D01*
X127497088Y-35559419D01*
X127505430Y-35567761D01*
X127540008Y-35615354D01*
X127622533Y-35722903D01*
X127639505Y-35752299D01*
X127657709Y-35777355D01*
X127685789Y-35832466D01*
X127730496Y-35909900D01*
X127753321Y-35965006D01*
X127775325Y-36008190D01*
X127790301Y-36054282D01*
X127813127Y-36109388D01*
X127836269Y-36195757D01*
X127855383Y-36254582D01*
X127860227Y-36285169D01*
X127869013Y-36317957D01*
X127886703Y-36452327D01*
X127895911Y-36510464D01*
X127895911Y-36522269D01*
X127897197Y-36532038D01*
X127897197Y-36747961D01*
X127895911Y-36757729D01*
X127895911Y-36769536D01*
X127886702Y-36827677D01*
X127869013Y-36962042D01*
X127860228Y-36994827D01*
X127855383Y-37025418D01*
X127836268Y-37084246D01*
X127813127Y-37170611D01*
X127790302Y-37225713D01*
X127775325Y-37271810D01*
X127753319Y-37314997D01*
X127730496Y-37370099D01*
X127685793Y-37447525D01*
X127657709Y-37502645D01*
X127639502Y-37527704D01*
X127622533Y-37557096D01*
X127540022Y-37664627D01*
X127505430Y-37712239D01*
X127497085Y-37720583D01*
X127491087Y-37728401D01*
X127338401Y-37881087D01*
X127330583Y-37887085D01*
X127322239Y-37895430D01*
X127274627Y-37930022D01*
X127167096Y-38012533D01*
X127137704Y-38029502D01*
X127112645Y-38047709D01*
X127057525Y-38075793D01*
X126980099Y-38120496D01*
X126924997Y-38143319D01*
X126881810Y-38165325D01*
X126835713Y-38180302D01*
X126780611Y-38203127D01*
X126694246Y-38226268D01*
X126635418Y-38245383D01*
X126604827Y-38250228D01*
X126572042Y-38259013D01*
X126437677Y-38276702D01*
X126379536Y-38285911D01*
X126367729Y-38285911D01*
X126357961Y-38287197D01*
X126142039Y-38287197D01*
X126132271Y-38285911D01*
X126120464Y-38285911D01*
X126062324Y-38276702D01*
X125927957Y-38259013D01*
X125895169Y-38250227D01*
X125864582Y-38245383D01*
X125805757Y-38226269D01*
X125719388Y-38203127D01*
X125664282Y-38180301D01*
X125618190Y-38165325D01*
X125575006Y-38143321D01*
X125519900Y-38120496D01*
X125442466Y-38075789D01*
X125387355Y-38047709D01*
X125362299Y-38029505D01*
X125332903Y-38012533D01*
X125225354Y-37930008D01*
X125177761Y-37895430D01*
X125169419Y-37887088D01*
X125161598Y-37881087D01*
X125008912Y-37728401D01*
X125002910Y-37720579D01*
X124994570Y-37712239D01*
X124959995Y-37664651D01*
X124877466Y-37557096D01*
X124860492Y-37527697D01*
X124842291Y-37502645D01*
X124814213Y-37447539D01*
X124769503Y-37370099D01*
X124746674Y-37314987D01*
X124724675Y-37271810D01*
X124709700Y-37225724D01*
X124686872Y-37170611D01*
X124663726Y-37084229D01*
X124644617Y-37025418D01*
X124639773Y-36994837D01*
X124630986Y-36962042D01*
X124613295Y-36827663D01*
X124604089Y-36769536D01*
X124604089Y-36757729D01*
X124602803Y-36747961D01*
X124602803Y-36532038D01*
X124604089Y-36522269D01*
X124604089Y-36510464D01*
X124613294Y-36452341D01*
X124630986Y-36317957D01*
X124639773Y-36285160D01*
X124644617Y-36254582D01*
X124663724Y-36195775D01*
X124686872Y-36109388D01*
X124709702Y-36054271D01*
X124724675Y-36008190D01*
X124746672Y-35965016D01*
X124769503Y-35909900D01*
X124814217Y-35832451D01*
X124842291Y-35777355D01*
X124860489Y-35752306D01*
X124877466Y-35722903D01*
X124960009Y-35615329D01*
X124994570Y-35567761D01*
X125002906Y-35559424D01*
X125008912Y-35551598D01*
X125161598Y-35398912D01*
X125169424Y-35392906D01*
X125177761Y-35384570D01*
X125225329Y-35350009D01*
X125332903Y-35267466D01*
X125362306Y-35250489D01*
X125387355Y-35232291D01*
X125442451Y-35204217D01*
X125519900Y-35159503D01*
X125575016Y-35136672D01*
X125618190Y-35114675D01*
X125664271Y-35099702D01*
X125719388Y-35076872D01*
X125805775Y-35053724D01*
X125864582Y-35034617D01*
X125895160Y-35029773D01*
X125927957Y-35020986D01*
X126062338Y-35003295D01*
X126120464Y-34994089D01*
X126132270Y-34994089D01*
X126142039Y-34992803D01*
X126357961Y-34992803D01*
X126367730Y-34994089D01*
G37*
G36*
X120367730Y-34989089D02*
G01*
X120379536Y-34989089D01*
X120437663Y-34998295D01*
X120572042Y-35015986D01*
X120604837Y-35024773D01*
X120635418Y-35029617D01*
X120694229Y-35048726D01*
X120780611Y-35071872D01*
X120835724Y-35094700D01*
X120881810Y-35109675D01*
X120924987Y-35131674D01*
X120980099Y-35154503D01*
X121057539Y-35199213D01*
X121112645Y-35227291D01*
X121137697Y-35245492D01*
X121167096Y-35262466D01*
X121274651Y-35344995D01*
X121322239Y-35379570D01*
X121330579Y-35387910D01*
X121338401Y-35393912D01*
X121491087Y-35546598D01*
X121497088Y-35554419D01*
X121505430Y-35562761D01*
X121540008Y-35610354D01*
X121622533Y-35717903D01*
X121639505Y-35747299D01*
X121657709Y-35772355D01*
X121685789Y-35827466D01*
X121730496Y-35904900D01*
X121753321Y-35960006D01*
X121775325Y-36003190D01*
X121790301Y-36049282D01*
X121813127Y-36104388D01*
X121836269Y-36190757D01*
X121855383Y-36249582D01*
X121860227Y-36280169D01*
X121869013Y-36312957D01*
X121886703Y-36447327D01*
X121895911Y-36505464D01*
X121895911Y-36517269D01*
X121897197Y-36527038D01*
X121897197Y-36742961D01*
X121895911Y-36752729D01*
X121895911Y-36764536D01*
X121886702Y-36822677D01*
X121869013Y-36957042D01*
X121860228Y-36989827D01*
X121855383Y-37020418D01*
X121836268Y-37079246D01*
X121813127Y-37165611D01*
X121790302Y-37220713D01*
X121775325Y-37266810D01*
X121753319Y-37309997D01*
X121730496Y-37365099D01*
X121685793Y-37442525D01*
X121657709Y-37497645D01*
X121639502Y-37522704D01*
X121622533Y-37552096D01*
X121540022Y-37659627D01*
X121505430Y-37707239D01*
X121497085Y-37715583D01*
X121491087Y-37723401D01*
X121338401Y-37876087D01*
X121330583Y-37882085D01*
X121322239Y-37890430D01*
X121274627Y-37925022D01*
X121167096Y-38007533D01*
X121137704Y-38024502D01*
X121112645Y-38042709D01*
X121057525Y-38070793D01*
X120980099Y-38115496D01*
X120924997Y-38138319D01*
X120881810Y-38160325D01*
X120835713Y-38175302D01*
X120780611Y-38198127D01*
X120694246Y-38221268D01*
X120635418Y-38240383D01*
X120604827Y-38245228D01*
X120572042Y-38254013D01*
X120437677Y-38271702D01*
X120379536Y-38280911D01*
X120367729Y-38280911D01*
X120357961Y-38282197D01*
X120142039Y-38282197D01*
X120132271Y-38280911D01*
X120120464Y-38280911D01*
X120062324Y-38271702D01*
X119927957Y-38254013D01*
X119895169Y-38245227D01*
X119864582Y-38240383D01*
X119805757Y-38221269D01*
X119719388Y-38198127D01*
X119664282Y-38175301D01*
X119618190Y-38160325D01*
X119575006Y-38138321D01*
X119519900Y-38115496D01*
X119442466Y-38070789D01*
X119387355Y-38042709D01*
X119362299Y-38024505D01*
X119332903Y-38007533D01*
X119225354Y-37925008D01*
X119177761Y-37890430D01*
X119169419Y-37882088D01*
X119161598Y-37876087D01*
X119008912Y-37723401D01*
X119002910Y-37715579D01*
X118994570Y-37707239D01*
X118959995Y-37659651D01*
X118877466Y-37552096D01*
X118860492Y-37522697D01*
X118842291Y-37497645D01*
X118814213Y-37442539D01*
X118769503Y-37365099D01*
X118746674Y-37309987D01*
X118724675Y-37266810D01*
X118709700Y-37220724D01*
X118686872Y-37165611D01*
X118663726Y-37079229D01*
X118644617Y-37020418D01*
X118639773Y-36989837D01*
X118630986Y-36957042D01*
X118613295Y-36822663D01*
X118604089Y-36764536D01*
X118604089Y-36752729D01*
X118602803Y-36742961D01*
X118602803Y-36527038D01*
X118604089Y-36517269D01*
X118604089Y-36505464D01*
X118613294Y-36447341D01*
X118630986Y-36312957D01*
X118639773Y-36280160D01*
X118644617Y-36249582D01*
X118663724Y-36190775D01*
X118686872Y-36104388D01*
X118709702Y-36049271D01*
X118724675Y-36003190D01*
X118746672Y-35960016D01*
X118769503Y-35904900D01*
X118814217Y-35827451D01*
X118842291Y-35772355D01*
X118860489Y-35747306D01*
X118877466Y-35717903D01*
X118960009Y-35610329D01*
X118994570Y-35562761D01*
X119002906Y-35554424D01*
X119008912Y-35546598D01*
X119161598Y-35393912D01*
X119169424Y-35387906D01*
X119177761Y-35379570D01*
X119225329Y-35345009D01*
X119332903Y-35262466D01*
X119362306Y-35245489D01*
X119387355Y-35227291D01*
X119442451Y-35199217D01*
X119519900Y-35154503D01*
X119575016Y-35131672D01*
X119618190Y-35109675D01*
X119664271Y-35094702D01*
X119719388Y-35071872D01*
X119805775Y-35048724D01*
X119864582Y-35029617D01*
X119895160Y-35024773D01*
X119927957Y-35015986D01*
X120062338Y-34998295D01*
X120120464Y-34989089D01*
X120132270Y-34989089D01*
X120142039Y-34987803D01*
X120357961Y-34987803D01*
X120367730Y-34989089D01*
G37*
G36*
X62008914Y-31756995D02*
G01*
X62024726Y-31763976D01*
X62032531Y-31765213D01*
X62065039Y-31781776D01*
X62110106Y-31801676D01*
X62188324Y-31879894D01*
X62208226Y-31924967D01*
X62224786Y-31957468D01*
X62226021Y-31965270D01*
X62233005Y-31981086D01*
X62241000Y-32050000D01*
X62241000Y-34750000D01*
X62233005Y-34818914D01*
X62226021Y-34834729D01*
X62224786Y-34842531D01*
X62208229Y-34875024D01*
X62188324Y-34920106D01*
X62110106Y-34998324D01*
X62065024Y-35018229D01*
X62032531Y-35034786D01*
X62024729Y-35036021D01*
X62008914Y-35043005D01*
X61940000Y-35051000D01*
X59240000Y-35051000D01*
X59171086Y-35043005D01*
X59155270Y-35036021D01*
X59147468Y-35034786D01*
X59114967Y-35018226D01*
X59069894Y-34998324D01*
X58991676Y-34920106D01*
X58971776Y-34875039D01*
X58955213Y-34842531D01*
X58953976Y-34834726D01*
X58946995Y-34818914D01*
X58939000Y-34750000D01*
X58939000Y-32050000D01*
X58946995Y-31981086D01*
X58953976Y-31965274D01*
X58955213Y-31957468D01*
X58971780Y-31924953D01*
X58991676Y-31879894D01*
X59069894Y-31801676D01*
X59114953Y-31781780D01*
X59147468Y-31765213D01*
X59155274Y-31763976D01*
X59171086Y-31756995D01*
X59240000Y-31749000D01*
X61940000Y-31749000D01*
X62008914Y-31756995D01*
G37*
G36*
X45467730Y-31754089D02*
G01*
X45479536Y-31754089D01*
X45537663Y-31763295D01*
X45672042Y-31780986D01*
X45704837Y-31789773D01*
X45735418Y-31794617D01*
X45794229Y-31813726D01*
X45880611Y-31836872D01*
X45935724Y-31859700D01*
X45981810Y-31874675D01*
X46024987Y-31896674D01*
X46080099Y-31919503D01*
X46157539Y-31964213D01*
X46212645Y-31992291D01*
X46237697Y-32010492D01*
X46267096Y-32027466D01*
X46374651Y-32109995D01*
X46422239Y-32144570D01*
X46430579Y-32152910D01*
X46438401Y-32158912D01*
X46591087Y-32311598D01*
X46597088Y-32319419D01*
X46605430Y-32327761D01*
X46640008Y-32375354D01*
X46722533Y-32482903D01*
X46739505Y-32512299D01*
X46757709Y-32537355D01*
X46785789Y-32592466D01*
X46830496Y-32669900D01*
X46853321Y-32725006D01*
X46875325Y-32768190D01*
X46890301Y-32814282D01*
X46913127Y-32869388D01*
X46936269Y-32955757D01*
X46955383Y-33014582D01*
X46960227Y-33045169D01*
X46969013Y-33077957D01*
X46986703Y-33212327D01*
X46995911Y-33270464D01*
X46995911Y-33282269D01*
X46997197Y-33292038D01*
X46997197Y-33507961D01*
X46995911Y-33517729D01*
X46995911Y-33529536D01*
X46986702Y-33587677D01*
X46969013Y-33722042D01*
X46960228Y-33754827D01*
X46955383Y-33785418D01*
X46936268Y-33844246D01*
X46913127Y-33930611D01*
X46890302Y-33985713D01*
X46875325Y-34031810D01*
X46853319Y-34074997D01*
X46830496Y-34130099D01*
X46785793Y-34207525D01*
X46757709Y-34262645D01*
X46739502Y-34287704D01*
X46722533Y-34317096D01*
X46640022Y-34424627D01*
X46605430Y-34472239D01*
X46597085Y-34480583D01*
X46591087Y-34488401D01*
X46438401Y-34641087D01*
X46430583Y-34647085D01*
X46422239Y-34655430D01*
X46374627Y-34690022D01*
X46267096Y-34772533D01*
X46237704Y-34789502D01*
X46212645Y-34807709D01*
X46157525Y-34835793D01*
X46080099Y-34880496D01*
X46024997Y-34903319D01*
X45981810Y-34925325D01*
X45935713Y-34940302D01*
X45880611Y-34963127D01*
X45794246Y-34986268D01*
X45735418Y-35005383D01*
X45704827Y-35010228D01*
X45672042Y-35019013D01*
X45537677Y-35036702D01*
X45479536Y-35045911D01*
X45467729Y-35045911D01*
X45457961Y-35047197D01*
X45242039Y-35047197D01*
X45232271Y-35045911D01*
X45220464Y-35045911D01*
X45162324Y-35036702D01*
X45027957Y-35019013D01*
X44995169Y-35010227D01*
X44964582Y-35005383D01*
X44905757Y-34986269D01*
X44819388Y-34963127D01*
X44764282Y-34940301D01*
X44718190Y-34925325D01*
X44675006Y-34903321D01*
X44619900Y-34880496D01*
X44542466Y-34835789D01*
X44487355Y-34807709D01*
X44462299Y-34789505D01*
X44432903Y-34772533D01*
X44325354Y-34690008D01*
X44277761Y-34655430D01*
X44269419Y-34647088D01*
X44261598Y-34641087D01*
X44108912Y-34488401D01*
X44102910Y-34480579D01*
X44094570Y-34472239D01*
X44059995Y-34424651D01*
X43977466Y-34317096D01*
X43960492Y-34287697D01*
X43942291Y-34262645D01*
X43914213Y-34207539D01*
X43869503Y-34130099D01*
X43846674Y-34074987D01*
X43824675Y-34031810D01*
X43809700Y-33985724D01*
X43786872Y-33930611D01*
X43763726Y-33844229D01*
X43744617Y-33785418D01*
X43739773Y-33754837D01*
X43730986Y-33722042D01*
X43713295Y-33587663D01*
X43704089Y-33529536D01*
X43704089Y-33517729D01*
X43702803Y-33507961D01*
X43702803Y-33292038D01*
X43704089Y-33282269D01*
X43704089Y-33270464D01*
X43713294Y-33212341D01*
X43730986Y-33077957D01*
X43739773Y-33045160D01*
X43744617Y-33014582D01*
X43763724Y-32955775D01*
X43786872Y-32869388D01*
X43809702Y-32814271D01*
X43824675Y-32768190D01*
X43846672Y-32725016D01*
X43869503Y-32669900D01*
X43914217Y-32592451D01*
X43942291Y-32537355D01*
X43960489Y-32512306D01*
X43977466Y-32482903D01*
X44060009Y-32375329D01*
X44094570Y-32327761D01*
X44102906Y-32319424D01*
X44108912Y-32311598D01*
X44261598Y-32158912D01*
X44269424Y-32152906D01*
X44277761Y-32144570D01*
X44325329Y-32110009D01*
X44432903Y-32027466D01*
X44462306Y-32010489D01*
X44487355Y-31992291D01*
X44542451Y-31964217D01*
X44619900Y-31919503D01*
X44675016Y-31896672D01*
X44718190Y-31874675D01*
X44764271Y-31859702D01*
X44819388Y-31836872D01*
X44905775Y-31813724D01*
X44964582Y-31794617D01*
X44995160Y-31789773D01*
X45027957Y-31780986D01*
X45162338Y-31763295D01*
X45220464Y-31754089D01*
X45232270Y-31754089D01*
X45242039Y-31752803D01*
X45457961Y-31752803D01*
X45467730Y-31754089D01*
G37*
G36*
X70868913Y-32226995D02*
G01*
X70884725Y-32233976D01*
X70892531Y-32235213D01*
X70925044Y-32251779D01*
X70970106Y-32271676D01*
X71048324Y-32349894D01*
X71068223Y-32394962D01*
X71084786Y-32427468D01*
X71086022Y-32435272D01*
X71093005Y-32451087D01*
X71100999Y-32520002D01*
X71100999Y-32529831D01*
X71101000Y-32529838D01*
X71101000Y-33481059D01*
X71101000Y-34419999D01*
X71093005Y-34488913D01*
X71086021Y-34504728D01*
X71084786Y-34512531D01*
X71068226Y-34545030D01*
X71048324Y-34590106D01*
X70970106Y-34668324D01*
X70925030Y-34688226D01*
X70892531Y-34704786D01*
X70884728Y-34706021D01*
X70868913Y-34713005D01*
X70799998Y-34720999D01*
X70790168Y-34720999D01*
X70790162Y-34721000D01*
X68909838Y-34721000D01*
X68909837Y-34720999D01*
X68900001Y-34721000D01*
X68831087Y-34713005D01*
X68815272Y-34706022D01*
X68807468Y-34704786D01*
X68774962Y-34688223D01*
X68729894Y-34668324D01*
X68651676Y-34590106D01*
X68631779Y-34545044D01*
X68615213Y-34512531D01*
X68613976Y-34504725D01*
X68606995Y-34488913D01*
X68599001Y-34419998D01*
X68599000Y-34410167D01*
X68599000Y-34410161D01*
X68599000Y-32529838D01*
X68599000Y-32529837D01*
X68599000Y-32520001D01*
X68606995Y-32451087D01*
X68613976Y-32435275D01*
X68615213Y-32427468D01*
X68631782Y-32394947D01*
X68651676Y-32349894D01*
X68729894Y-32271676D01*
X68774947Y-32251782D01*
X68807468Y-32235213D01*
X68815275Y-32233976D01*
X68831087Y-32226995D01*
X68900002Y-32219001D01*
X68909831Y-32219000D01*
X68909838Y-32219000D01*
X70790162Y-32219000D01*
X70799999Y-32219000D01*
X70868913Y-32226995D01*
G37*
G36*
X108272017Y-32452882D02*
G01*
X108288562Y-32463938D01*
X108299618Y-32480483D01*
X108303500Y-32500000D01*
X108303500Y-34500000D01*
X108299618Y-34519517D01*
X108288562Y-34536062D01*
X108272017Y-34547118D01*
X108252500Y-34551000D01*
X106347500Y-34551000D01*
X106327983Y-34547118D01*
X106311438Y-34536062D01*
X106300382Y-34519517D01*
X106296500Y-34500000D01*
X106296500Y-32500000D01*
X106300382Y-32480483D01*
X106311438Y-32463938D01*
X106327983Y-32452882D01*
X106347500Y-32449000D01*
X108252500Y-32449000D01*
X108272017Y-32452882D01*
G37*
G36*
X109927247Y-32453832D02*
G01*
X109938360Y-32453832D01*
X109981786Y-32462470D01*
X110074172Y-32477102D01*
X110103886Y-32486757D01*
X110131301Y-32492210D01*
X110169989Y-32508235D01*
X110223875Y-32525744D01*
X110274360Y-32551467D01*
X110313047Y-32567492D01*
X110336286Y-32583020D01*
X110364124Y-32597204D01*
X110439790Y-32652179D01*
X110476614Y-32676784D01*
X110484473Y-32684643D01*
X110491466Y-32689724D01*
X110602775Y-32801033D01*
X110607855Y-32808025D01*
X110615716Y-32815886D01*
X110640323Y-32852713D01*
X110695295Y-32928375D01*
X110709477Y-32956210D01*
X110725008Y-32979453D01*
X110741034Y-33018145D01*
X110766755Y-33068624D01*
X110784261Y-33122503D01*
X110800290Y-33161199D01*
X110805744Y-33188618D01*
X110815397Y-33218327D01*
X110830027Y-33310702D01*
X110838668Y-33354140D01*
X110839459Y-33370252D01*
X110840406Y-33376228D01*
X110843016Y-33442649D01*
X110843500Y-33452500D01*
X110843500Y-33547500D01*
X110843015Y-33557354D01*
X110840406Y-33623771D01*
X110839459Y-33629746D01*
X110838668Y-33645860D01*
X110830026Y-33689301D01*
X110815397Y-33781672D01*
X110805744Y-33811378D01*
X110800290Y-33838801D01*
X110784260Y-33877500D01*
X110766755Y-33931375D01*
X110741037Y-33981849D01*
X110725008Y-34020547D01*
X110709475Y-34043792D01*
X110695295Y-34071624D01*
X110640331Y-34147273D01*
X110615716Y-34184114D01*
X110607852Y-34191977D01*
X110602775Y-34198966D01*
X110491466Y-34310275D01*
X110484477Y-34315352D01*
X110476614Y-34323216D01*
X110439773Y-34347831D01*
X110364124Y-34402795D01*
X110336292Y-34416975D01*
X110313047Y-34432508D01*
X110274349Y-34448537D01*
X110223875Y-34474255D01*
X110170000Y-34491760D01*
X110131301Y-34507790D01*
X110103878Y-34513244D01*
X110074172Y-34522897D01*
X109981796Y-34537527D01*
X109938360Y-34546168D01*
X109927246Y-34546168D01*
X109918704Y-34547521D01*
X109761296Y-34547521D01*
X109752754Y-34546168D01*
X109741640Y-34546168D01*
X109698204Y-34537528D01*
X109605827Y-34522897D01*
X109576118Y-34513244D01*
X109548699Y-34507790D01*
X109510003Y-34491761D01*
X109456124Y-34474255D01*
X109405645Y-34448534D01*
X109366953Y-34432508D01*
X109343710Y-34416977D01*
X109315875Y-34402795D01*
X109240213Y-34347823D01*
X109203386Y-34323216D01*
X109195525Y-34315355D01*
X109188533Y-34310275D01*
X109077224Y-34198966D01*
X109072143Y-34191973D01*
X109064284Y-34184114D01*
X109039679Y-34147290D01*
X108984704Y-34071624D01*
X108970520Y-34043786D01*
X108954992Y-34020547D01*
X108938967Y-33981860D01*
X108913244Y-33931375D01*
X108895735Y-33877489D01*
X108879710Y-33838801D01*
X108874257Y-33811386D01*
X108864602Y-33781672D01*
X108849968Y-33689277D01*
X108841332Y-33645860D01*
X108840540Y-33629755D01*
X108839593Y-33623771D01*
X108836983Y-33557338D01*
X108836500Y-33547500D01*
X108836500Y-33452500D01*
X108836983Y-33442665D01*
X108839593Y-33376228D01*
X108840540Y-33370242D01*
X108841332Y-33354140D01*
X108849967Y-33310726D01*
X108864602Y-33218327D01*
X108874257Y-33188610D01*
X108879710Y-33161199D01*
X108895733Y-33122514D01*
X108913244Y-33068624D01*
X108938969Y-33018134D01*
X108954992Y-32979453D01*
X108970518Y-32956216D01*
X108984704Y-32928375D01*
X109039687Y-32852696D01*
X109064284Y-32815886D01*
X109072141Y-32808028D01*
X109077224Y-32801033D01*
X109188533Y-32689724D01*
X109195528Y-32684641D01*
X109203386Y-32676784D01*
X109240196Y-32652187D01*
X109315875Y-32597204D01*
X109343716Y-32583018D01*
X109366953Y-32567492D01*
X109405634Y-32551469D01*
X109456124Y-32525744D01*
X109510014Y-32508233D01*
X109548699Y-32492210D01*
X109576110Y-32486757D01*
X109605827Y-32477102D01*
X109698214Y-32462469D01*
X109741640Y-32453832D01*
X109752753Y-32453832D01*
X109761296Y-32452479D01*
X109918704Y-32452479D01*
X109927247Y-32453832D01*
G37*
G36*
X112467247Y-32453832D02*
G01*
X112478360Y-32453832D01*
X112521786Y-32462470D01*
X112614172Y-32477102D01*
X112643886Y-32486757D01*
X112671301Y-32492210D01*
X112709989Y-32508235D01*
X112763875Y-32525744D01*
X112814360Y-32551467D01*
X112853047Y-32567492D01*
X112876286Y-32583020D01*
X112904124Y-32597204D01*
X112979790Y-32652179D01*
X113016614Y-32676784D01*
X113024473Y-32684643D01*
X113031466Y-32689724D01*
X113142775Y-32801033D01*
X113147855Y-32808025D01*
X113155716Y-32815886D01*
X113180323Y-32852713D01*
X113235295Y-32928375D01*
X113249477Y-32956210D01*
X113265008Y-32979453D01*
X113281034Y-33018145D01*
X113306755Y-33068624D01*
X113324261Y-33122503D01*
X113340290Y-33161199D01*
X113345744Y-33188618D01*
X113355397Y-33218327D01*
X113370027Y-33310702D01*
X113378668Y-33354140D01*
X113379459Y-33370252D01*
X113380406Y-33376228D01*
X113383016Y-33442649D01*
X113383500Y-33452500D01*
X113383500Y-33547500D01*
X113383015Y-33557354D01*
X113380406Y-33623771D01*
X113379459Y-33629746D01*
X113378668Y-33645860D01*
X113370026Y-33689301D01*
X113355397Y-33781672D01*
X113345744Y-33811378D01*
X113340290Y-33838801D01*
X113324260Y-33877500D01*
X113306755Y-33931375D01*
X113281037Y-33981849D01*
X113265008Y-34020547D01*
X113249475Y-34043792D01*
X113235295Y-34071624D01*
X113180331Y-34147273D01*
X113155716Y-34184114D01*
X113147852Y-34191977D01*
X113142775Y-34198966D01*
X113031466Y-34310275D01*
X113024477Y-34315352D01*
X113016614Y-34323216D01*
X112979773Y-34347831D01*
X112904124Y-34402795D01*
X112876292Y-34416975D01*
X112853047Y-34432508D01*
X112814349Y-34448537D01*
X112763875Y-34474255D01*
X112710000Y-34491760D01*
X112671301Y-34507790D01*
X112643878Y-34513244D01*
X112614172Y-34522897D01*
X112521796Y-34537527D01*
X112478360Y-34546168D01*
X112467246Y-34546168D01*
X112458704Y-34547521D01*
X112301296Y-34547521D01*
X112292754Y-34546168D01*
X112281640Y-34546168D01*
X112238204Y-34537528D01*
X112145827Y-34522897D01*
X112116118Y-34513244D01*
X112088699Y-34507790D01*
X112050003Y-34491761D01*
X111996124Y-34474255D01*
X111945645Y-34448534D01*
X111906953Y-34432508D01*
X111883710Y-34416977D01*
X111855875Y-34402795D01*
X111780213Y-34347823D01*
X111743386Y-34323216D01*
X111735525Y-34315355D01*
X111728533Y-34310275D01*
X111617224Y-34198966D01*
X111612143Y-34191973D01*
X111604284Y-34184114D01*
X111579679Y-34147290D01*
X111524704Y-34071624D01*
X111510520Y-34043786D01*
X111494992Y-34020547D01*
X111478967Y-33981860D01*
X111453244Y-33931375D01*
X111435735Y-33877489D01*
X111419710Y-33838801D01*
X111414257Y-33811386D01*
X111404602Y-33781672D01*
X111389968Y-33689277D01*
X111381332Y-33645860D01*
X111380540Y-33629755D01*
X111379593Y-33623771D01*
X111376983Y-33557338D01*
X111376500Y-33547500D01*
X111376500Y-33452500D01*
X111376983Y-33442665D01*
X111379593Y-33376228D01*
X111380540Y-33370242D01*
X111381332Y-33354140D01*
X111389967Y-33310726D01*
X111404602Y-33218327D01*
X111414257Y-33188610D01*
X111419710Y-33161199D01*
X111435733Y-33122514D01*
X111453244Y-33068624D01*
X111478969Y-33018134D01*
X111494992Y-32979453D01*
X111510518Y-32956216D01*
X111524704Y-32928375D01*
X111579687Y-32852696D01*
X111604284Y-32815886D01*
X111612141Y-32808028D01*
X111617224Y-32801033D01*
X111728533Y-32689724D01*
X111735528Y-32684641D01*
X111743386Y-32676784D01*
X111780196Y-32652187D01*
X111855875Y-32597204D01*
X111883716Y-32583018D01*
X111906953Y-32567492D01*
X111945634Y-32551469D01*
X111996124Y-32525744D01*
X112050014Y-32508233D01*
X112088699Y-32492210D01*
X112116110Y-32486757D01*
X112145827Y-32477102D01*
X112238214Y-32462469D01*
X112281640Y-32453832D01*
X112292753Y-32453832D01*
X112301296Y-32452479D01*
X112458704Y-32452479D01*
X112467247Y-32453832D01*
G37*
G36*
X131134621Y-27264187D02*
G01*
X131447529Y-27326428D01*
X131752829Y-27419040D01*
X132047582Y-27541131D01*
X132328948Y-27691524D01*
X132594218Y-27868772D01*
X132840838Y-28071168D01*
X133066432Y-28296762D01*
X133268828Y-28543382D01*
X133446076Y-28808652D01*
X133596469Y-29090018D01*
X133718560Y-29384771D01*
X133811172Y-29690071D01*
X133873413Y-30002979D01*
X133904684Y-30320481D01*
X133904684Y-30639519D01*
X133873413Y-30957021D01*
X133811172Y-31269929D01*
X133718560Y-31575229D01*
X133596469Y-31869982D01*
X133446076Y-32151348D01*
X133268828Y-32416618D01*
X133066432Y-32663238D01*
X132840838Y-32888832D01*
X132594218Y-33091228D01*
X132328948Y-33268476D01*
X132047582Y-33418869D01*
X131752829Y-33540960D01*
X131447529Y-33633572D01*
X131134621Y-33695813D01*
X130817119Y-33727084D01*
X130498081Y-33727084D01*
X130180579Y-33695813D01*
X129867671Y-33633572D01*
X129562371Y-33540960D01*
X129267618Y-33418869D01*
X128986252Y-33268476D01*
X128720982Y-33091228D01*
X128474362Y-32888832D01*
X128248768Y-32663238D01*
X128046372Y-32416618D01*
X127869124Y-32151348D01*
X127718731Y-31869982D01*
X127596640Y-31575229D01*
X127504028Y-31269929D01*
X127441787Y-30957021D01*
X127410516Y-30639519D01*
X127410516Y-30320481D01*
X127441787Y-30002979D01*
X127504028Y-29690071D01*
X127596640Y-29384771D01*
X127718731Y-29090018D01*
X127869124Y-28808652D01*
X128046372Y-28543382D01*
X128248768Y-28296762D01*
X128474362Y-28071168D01*
X128720982Y-27868772D01*
X128986252Y-27691524D01*
X129267618Y-27541131D01*
X129562371Y-27419040D01*
X129867671Y-27326428D01*
X130180579Y-27264187D01*
X130498081Y-27232916D01*
X130817119Y-27232916D01*
X131134621Y-27264187D01*
G37*
G36*
X120096733Y-31356995D02*
G01*
X120112544Y-31363976D01*
X120120351Y-31365213D01*
X120152872Y-31381783D01*
X120197924Y-31401676D01*
X120276142Y-31479894D01*
X120296037Y-31524953D01*
X120312604Y-31557466D01*
X120313840Y-31565270D01*
X120320823Y-31581085D01*
X120328817Y-31650000D01*
X120328817Y-31659829D01*
X120328818Y-31659836D01*
X120328818Y-32512310D01*
X120328818Y-33350001D01*
X120320823Y-33418915D01*
X120313839Y-33434729D01*
X120312604Y-33442533D01*
X120296041Y-33475039D01*
X120276142Y-33520106D01*
X120197924Y-33598324D01*
X120152857Y-33618223D01*
X120120351Y-33634786D01*
X120112547Y-33636021D01*
X120096733Y-33643005D01*
X120027818Y-33650999D01*
X120017988Y-33650999D01*
X120017982Y-33651000D01*
X118337654Y-33651000D01*
X118337653Y-33650999D01*
X118327817Y-33651000D01*
X118258903Y-33643005D01*
X118243088Y-33636022D01*
X118235284Y-33634786D01*
X118202771Y-33618219D01*
X118157712Y-33598324D01*
X118079494Y-33520106D01*
X118059601Y-33475054D01*
X118043031Y-33442533D01*
X118041794Y-33434726D01*
X118034813Y-33418915D01*
X118026819Y-33350000D01*
X118026818Y-33340169D01*
X118026818Y-33340163D01*
X118026818Y-31659836D01*
X118026818Y-31659835D01*
X118026818Y-31649999D01*
X118034813Y-31581085D01*
X118041794Y-31565273D01*
X118043031Y-31557466D01*
X118059604Y-31524938D01*
X118079494Y-31479894D01*
X118157712Y-31401676D01*
X118202756Y-31381786D01*
X118235284Y-31365213D01*
X118243091Y-31363976D01*
X118258903Y-31356995D01*
X118327818Y-31349001D01*
X118337647Y-31349000D01*
X118337654Y-31349000D01*
X120017982Y-31349000D01*
X120027819Y-31349000D01*
X120096733Y-31356995D01*
G37*
G36*
X124526514Y-31380802D02*
G01*
X124698287Y-31436615D01*
X124859214Y-31518611D01*
X125005333Y-31624773D01*
X125133045Y-31752485D01*
X125239207Y-31898604D01*
X125321203Y-32059531D01*
X125377016Y-32231304D01*
X125405270Y-32409694D01*
X125405270Y-32590306D01*
X125377016Y-32768696D01*
X125321203Y-32940469D01*
X125239207Y-33101396D01*
X125133045Y-33247515D01*
X125005333Y-33375227D01*
X124859214Y-33481389D01*
X124698287Y-33563385D01*
X124526514Y-33619198D01*
X124348124Y-33647452D01*
X124167512Y-33647452D01*
X123989122Y-33619198D01*
X123817349Y-33563385D01*
X123656422Y-33481389D01*
X123510303Y-33375227D01*
X123382591Y-33247515D01*
X123276429Y-33101396D01*
X123194433Y-32940469D01*
X123138620Y-32768696D01*
X123110366Y-32590306D01*
X123110366Y-32409694D01*
X123138620Y-32231304D01*
X123194433Y-32059531D01*
X123276429Y-31898604D01*
X123382591Y-31752485D01*
X123510303Y-31624773D01*
X123656422Y-31518611D01*
X123817349Y-31436615D01*
X123989122Y-31380802D01*
X124167512Y-31352548D01*
X124348124Y-31352548D01*
X124526514Y-31380802D01*
G37*
G36*
X40380421Y-27035587D02*
G01*
X40693329Y-27097828D01*
X40998629Y-27190440D01*
X41293382Y-27312531D01*
X41574748Y-27462924D01*
X41840018Y-27640172D01*
X42086638Y-27842568D01*
X42312232Y-28068162D01*
X42514628Y-28314782D01*
X42691876Y-28580052D01*
X42842269Y-28861418D01*
X42964360Y-29156171D01*
X43056972Y-29461471D01*
X43119213Y-29774379D01*
X43150484Y-30091881D01*
X43150484Y-30410919D01*
X43119213Y-30728421D01*
X43056972Y-31041329D01*
X42964360Y-31346629D01*
X42842269Y-31641382D01*
X42691876Y-31922748D01*
X42514628Y-32188018D01*
X42312232Y-32434638D01*
X42086638Y-32660232D01*
X41840018Y-32862628D01*
X41574748Y-33039876D01*
X41293382Y-33190269D01*
X40998629Y-33312360D01*
X40693329Y-33404972D01*
X40380421Y-33467213D01*
X40062919Y-33498484D01*
X39743881Y-33498484D01*
X39426379Y-33467213D01*
X39113471Y-33404972D01*
X38808171Y-33312360D01*
X38513418Y-33190269D01*
X38232052Y-33039876D01*
X37966782Y-32862628D01*
X37720162Y-32660232D01*
X37494568Y-32434638D01*
X37292172Y-32188018D01*
X37114924Y-31922748D01*
X36964531Y-31641382D01*
X36842440Y-31346629D01*
X36749828Y-31041329D01*
X36687587Y-30728421D01*
X36656316Y-30410919D01*
X36656316Y-30091881D01*
X36687587Y-29774379D01*
X36749828Y-29461471D01*
X36842440Y-29156171D01*
X36964531Y-28861418D01*
X37114924Y-28580052D01*
X37292172Y-28314782D01*
X37494568Y-28068162D01*
X37720162Y-27842568D01*
X37966782Y-27640172D01*
X38232052Y-27462924D01*
X38513418Y-27312531D01*
X38808171Y-27190440D01*
X39113471Y-27097828D01*
X39426379Y-27035587D01*
X39743881Y-27004316D01*
X40062919Y-27004316D01*
X40380421Y-27035587D01*
G37*
M02*
