G04 #@! TF.GenerationSoftware,KiCad,Pcbnew,9.0.6*
G04 #@! TF.CreationDate,2025-12-03T01:28:08+09:00*
G04 #@! TF.ProjectId,12f683MPPT,31326636-3833-44d5-9050-542e6b696361,rev?*
G04 #@! TF.SameCoordinates,Original*
G04 #@! TF.FileFunction,Copper,L1,Top*
G04 #@! TF.FilePolarity,Positive*
%FSLAX46Y46*%
G04 Gerber Fmt 4.6, Leading zero omitted, Abs format (unit mm)*
G04 Created by KiCad (PCBNEW 9.0.6) date 2025-12-03 01:28:08*
%MOMM*%
%LPD*%
G01*
G04 APERTURE LIST*
G04 Aperture macros list*
%AMRoundRect*
0 Rectangle with rounded corners*
0 $1 Rounding radius*
0 $2 $3 $4 $5 $6 $7 $8 $9 X,Y pos of 4 corners*
0 Add a 4 corners polygon primitive as box body*
4,1,4,$2,$3,$4,$5,$6,$7,$8,$9,$2,$3,0*
0 Add four circle primitives for the rounded corners*
1,1,$1+$1,$2,$3*
1,1,$1+$1,$4,$5*
1,1,$1+$1,$6,$7*
1,1,$1+$1,$8,$9*
0 Add four rect primitives between the rounded corners*
20,1,$1+$1,$2,$3,$4,$5,0*
20,1,$1+$1,$4,$5,$6,$7,0*
20,1,$1+$1,$6,$7,$8,$9,0*
20,1,$1+$1,$8,$9,$2,$3,0*%
G04 Aperture macros list end*
G04 #@! TA.AperFunction,ComponentPad*
%ADD10C,1.600000*%
G04 #@! TD*
G04 #@! TA.AperFunction,ComponentPad*
%ADD11RoundRect,0.250001X-0.949999X0.949999X-0.949999X-0.949999X0.949999X-0.949999X0.949999X0.949999X0*%
G04 #@! TD*
G04 #@! TA.AperFunction,ComponentPad*
%ADD12C,2.400000*%
G04 #@! TD*
G04 #@! TA.AperFunction,ComponentPad*
%ADD13RoundRect,0.250000X-0.550000X-0.550000X0.550000X-0.550000X0.550000X0.550000X-0.550000X0.550000X0*%
G04 #@! TD*
G04 #@! TA.AperFunction,ComponentPad*
%ADD14RoundRect,0.250000X0.550000X-0.550000X0.550000X0.550000X-0.550000X0.550000X-0.550000X-0.550000X0*%
G04 #@! TD*
G04 #@! TA.AperFunction,ComponentPad*
%ADD15R,1.800000X1.800000*%
G04 #@! TD*
G04 #@! TA.AperFunction,ComponentPad*
%ADD16C,1.800000*%
G04 #@! TD*
G04 #@! TA.AperFunction,ComponentPad*
%ADD17RoundRect,0.250000X1.350000X1.350000X-1.350000X1.350000X-1.350000X-1.350000X1.350000X-1.350000X0*%
G04 #@! TD*
G04 #@! TA.AperFunction,ComponentPad*
%ADD18C,3.200000*%
G04 #@! TD*
G04 #@! TA.AperFunction,ComponentPad*
%ADD19C,3.000000*%
G04 #@! TD*
G04 #@! TA.AperFunction,ComponentPad*
%ADD20R,1.500000X1.500000*%
G04 #@! TD*
G04 #@! TA.AperFunction,ComponentPad*
%ADD21C,1.500000*%
G04 #@! TD*
G04 #@! TA.AperFunction,ComponentPad*
%ADD22RoundRect,0.250000X-0.950000X-0.550000X0.950000X-0.550000X0.950000X0.550000X-0.950000X0.550000X0*%
G04 #@! TD*
G04 #@! TA.AperFunction,ComponentPad*
%ADD23O,2.400000X1.600000*%
G04 #@! TD*
G04 #@! TA.AperFunction,ComponentPad*
%ADD24RoundRect,0.249999X0.850001X-0.850001X0.850001X0.850001X-0.850001X0.850001X-0.850001X-0.850001X0*%
G04 #@! TD*
G04 #@! TA.AperFunction,ComponentPad*
%ADD25C,2.200000*%
G04 #@! TD*
G04 #@! TA.AperFunction,ComponentPad*
%ADD26R,1.905000X2.000000*%
G04 #@! TD*
G04 #@! TA.AperFunction,ComponentPad*
%ADD27O,1.905000X2.000000*%
G04 #@! TD*
G04 #@! TA.AperFunction,ComponentPad*
%ADD28RoundRect,0.250000X1.350000X-1.350000X1.350000X1.350000X-1.350000X1.350000X-1.350000X-1.350000X0*%
G04 #@! TD*
G04 #@! TA.AperFunction,ComponentPad*
%ADD29RoundRect,0.250000X-1.350000X1.350000X-1.350000X-1.350000X1.350000X-1.350000X1.350000X1.350000X0*%
G04 #@! TD*
G04 #@! TA.AperFunction,ComponentPad*
%ADD30C,2.000000*%
G04 #@! TD*
G04 #@! TA.AperFunction,ComponentPad*
%ADD31C,4.064000*%
G04 #@! TD*
G04 #@! TA.AperFunction,ComponentPad*
%ADD32RoundRect,0.249999X-0.850001X-0.850001X0.850001X-0.850001X0.850001X0.850001X-0.850001X0.850001X0*%
G04 #@! TD*
G04 #@! TA.AperFunction,ComponentPad*
%ADD33C,7.500000*%
G04 #@! TD*
G04 #@! TA.AperFunction,ComponentPad*
%ADD34RoundRect,0.249999X0.850001X0.850001X-0.850001X0.850001X-0.850001X-0.850001X0.850001X-0.850001X0*%
G04 #@! TD*
G04 #@! TA.AperFunction,ComponentPad*
%ADD35RoundRect,0.249999X-0.850001X0.850001X-0.850001X-0.850001X0.850001X-0.850001X0.850001X0.850001X0*%
G04 #@! TD*
G04 #@! TA.AperFunction,Conductor*
%ADD36C,1.500000*%
G04 #@! TD*
G04 #@! TA.AperFunction,Conductor*
%ADD37C,2.000000*%
G04 #@! TD*
G04 APERTURE END LIST*
D10*
X95700000Y-36600000D03*
X90620000Y-36600000D03*
X95700000Y-40300000D03*
X95700000Y-45380000D03*
D11*
X120250000Y-86250000D03*
D12*
X120250000Y-91250000D03*
D13*
X101047349Y-48100000D03*
D10*
X103547349Y-48100000D03*
D14*
X72400000Y-51700000D03*
D10*
X72400000Y-49200000D03*
D13*
X101147349Y-58500000D03*
D10*
X103647349Y-58500000D03*
D15*
X57200000Y-89275000D03*
D16*
X57200000Y-86735000D03*
D17*
X62020000Y-39100000D03*
D18*
X46780000Y-39100000D03*
D19*
X120270000Y-62900000D03*
X127890000Y-62900000D03*
D20*
X91200000Y-50480000D03*
D21*
X91200000Y-47940000D03*
X91200000Y-45400000D03*
D20*
X107340000Y-38760000D03*
D21*
X107340000Y-41300000D03*
X107340000Y-43840000D03*
D20*
X112100000Y-38760000D03*
D21*
X112100000Y-41300000D03*
X112100000Y-43840000D03*
D10*
X74650000Y-81000000D03*
X87350000Y-81000000D03*
X67080000Y-81000000D03*
X67080000Y-68300000D03*
X71460000Y-68270000D03*
X71460000Y-80970000D03*
X47000000Y-45400000D03*
X47000000Y-58100000D03*
X57200000Y-81000000D03*
X57200000Y-68300000D03*
X55650000Y-60800000D03*
X68350000Y-60800000D03*
X68250000Y-64500000D03*
X80950000Y-64500000D03*
D22*
X78460000Y-53020000D03*
D23*
X78460000Y-55560000D03*
X78460000Y-58100000D03*
X78460000Y-60640000D03*
X86080000Y-60640000D03*
X86080000Y-58100000D03*
X86080000Y-55560000D03*
X86080000Y-53020000D03*
D10*
X47000000Y-60850000D03*
X47000000Y-73550000D03*
D24*
X51300000Y-56380000D03*
D25*
X51300000Y-46220000D03*
D26*
X59420000Y-56400000D03*
D27*
X61960000Y-56400000D03*
X64500000Y-56400000D03*
D22*
X78500000Y-68280000D03*
D23*
X78500000Y-70820000D03*
X78500000Y-73360000D03*
X78500000Y-75900000D03*
X86120000Y-75900000D03*
X86120000Y-73360000D03*
X86120000Y-70820000D03*
X86120000Y-68280000D03*
D15*
X92030000Y-84300000D03*
D16*
X94570000Y-84300000D03*
D28*
X126250000Y-51880000D03*
D18*
X126250000Y-36640000D03*
D15*
X92030000Y-89300000D03*
D16*
X94570000Y-89300000D03*
D10*
X87350000Y-86700000D03*
X74650000Y-86700000D03*
D29*
X110500000Y-70875000D03*
D18*
X110500000Y-86115000D03*
D29*
X104500000Y-70875000D03*
D18*
X104500000Y-86115000D03*
D10*
X90700000Y-80950000D03*
X90700000Y-68250000D03*
D28*
X120250000Y-51875000D03*
D18*
X120250000Y-36635000D03*
D17*
X62020000Y-33300000D03*
D18*
X46780000Y-33300000D03*
D30*
X39800000Y-48430000D03*
X39800000Y-53510000D03*
X128200000Y-79100000D03*
X128200000Y-74020000D03*
D10*
X78500000Y-47800000D03*
X83500000Y-47800000D03*
D31*
X39940000Y-40950000D03*
X39700000Y-64900000D03*
X129900000Y-87600000D03*
X120250000Y-78000000D03*
D10*
X94600000Y-68250000D03*
X94600000Y-80950000D03*
X83050000Y-64500000D03*
X95750000Y-64500000D03*
X95700000Y-47900000D03*
X95700000Y-60600000D03*
X62640000Y-68280000D03*
X62640000Y-80980000D03*
D11*
X70400000Y-33376041D03*
D12*
X70400000Y-38376041D03*
D32*
X119177818Y-32500000D03*
D25*
X124257818Y-32500000D03*
D26*
X86440000Y-92555000D03*
D27*
X83900000Y-92555000D03*
X81360000Y-92555000D03*
D26*
X107300000Y-33500000D03*
D27*
X109840000Y-33500000D03*
X112380000Y-33500000D03*
D30*
X46950000Y-85350000D03*
X46950000Y-78850000D03*
X51450000Y-85350000D03*
X51450000Y-78850000D03*
D33*
X129700000Y-30700000D03*
X40500000Y-94750000D03*
X40500000Y-30750000D03*
X129800000Y-94900000D03*
D34*
X88680000Y-41300000D03*
D25*
X78520000Y-41300000D03*
D30*
X55400000Y-48500000D03*
X55200000Y-56400000D03*
D35*
X51300000Y-60850000D03*
D25*
X51300000Y-73550000D03*
D30*
X55400000Y-44300000D03*
D36*
X104500000Y-86115000D02*
X110500000Y-86115000D01*
X87350000Y-89150000D02*
X90700000Y-92500000D01*
X87350000Y-86700000D02*
X87350000Y-89150000D01*
X98115000Y-92500000D02*
X104500000Y-86115000D01*
X90700000Y-92500000D02*
X98115000Y-92500000D01*
X90700000Y-68250000D02*
X90700000Y-57800000D01*
X88460000Y-55560000D02*
X86080000Y-55560000D01*
X90700000Y-57800000D02*
X88460000Y-55560000D01*
D37*
X112917818Y-38760000D02*
X119177818Y-32500000D01*
X112100000Y-38760000D02*
X112917818Y-38760000D01*
X107340000Y-33540000D02*
X107300000Y-33500000D01*
X107340000Y-38760000D02*
X107340000Y-33540000D01*
D36*
X74650000Y-84700000D02*
X74650000Y-86700000D01*
X78500000Y-73360000D02*
X72140000Y-73360000D01*
X79760000Y-73360000D02*
X81300000Y-74900000D01*
X72140000Y-73360000D02*
X67080000Y-68300000D01*
X81300000Y-78050000D02*
X74650000Y-84700000D01*
X78500000Y-73360000D02*
X79760000Y-73360000D01*
X81300000Y-74900000D02*
X81300000Y-78050000D01*
G04 #@! TA.AperFunction,NonConductor*
G36*
X84221902Y-27319685D02*
G01*
X84267657Y-27372489D01*
X84277601Y-27441647D01*
X84248576Y-27505203D01*
X84218972Y-27530141D01*
X72231709Y-34770446D01*
X72164148Y-34788257D01*
X72097682Y-34766714D01*
X72053415Y-34712656D01*
X72045401Y-34643248D01*
X72049892Y-34625308D01*
X72097887Y-34480466D01*
X72108500Y-34376585D01*
X72108500Y-32375497D01*
X72097887Y-32271616D01*
X72042115Y-32103303D01*
X72042115Y-32103302D01*
X71949032Y-31952393D01*
X71949029Y-31952389D01*
X71823651Y-31827011D01*
X71823647Y-31827008D01*
X71672738Y-31733925D01*
X71672735Y-31733924D01*
X71504428Y-31678154D01*
X71400551Y-31667541D01*
X71400544Y-31667541D01*
X69399456Y-31667541D01*
X69399448Y-31667541D01*
X69295571Y-31678154D01*
X69127264Y-31733924D01*
X69127261Y-31733925D01*
X68976352Y-31827008D01*
X68976348Y-31827011D01*
X68850970Y-31952389D01*
X68850967Y-31952393D01*
X68757884Y-32103302D01*
X68757883Y-32103305D01*
X68702113Y-32271612D01*
X68691500Y-32375489D01*
X68691500Y-34376592D01*
X68702113Y-34480469D01*
X68757883Y-34648776D01*
X68757884Y-34648779D01*
X68850967Y-34799688D01*
X68850970Y-34799692D01*
X68976348Y-34925070D01*
X68976352Y-34925073D01*
X69127261Y-35018156D01*
X69127264Y-35018157D01*
X69295571Y-35073927D01*
X69295572Y-35073927D01*
X69295575Y-35073928D01*
X69399456Y-35084541D01*
X69399461Y-35084541D01*
X71266549Y-35084541D01*
X71333588Y-35104226D01*
X71379343Y-35157030D01*
X71389287Y-35226188D01*
X71360262Y-35289744D01*
X71330658Y-35314682D01*
X64316608Y-39551168D01*
X64249047Y-39568979D01*
X64182581Y-39547436D01*
X64138314Y-39493378D01*
X64128499Y-39445030D01*
X64128499Y-37699456D01*
X64117887Y-37595574D01*
X64062115Y-37427262D01*
X63969030Y-37276348D01*
X63843652Y-37150970D01*
X63692738Y-37057885D01*
X63692735Y-37057884D01*
X63524427Y-37002113D01*
X63420545Y-36991500D01*
X60619462Y-36991500D01*
X60619446Y-36991501D01*
X60515572Y-37002113D01*
X60347264Y-37057884D01*
X60347259Y-37057886D01*
X60196346Y-37150971D01*
X60070971Y-37276346D01*
X59977886Y-37427259D01*
X59977884Y-37427264D01*
X59922113Y-37595572D01*
X59911500Y-37699447D01*
X59911500Y-40500537D01*
X59911501Y-40500553D01*
X59922113Y-40604426D01*
X59977885Y-40772738D01*
X60070970Y-40923652D01*
X60196348Y-41049030D01*
X60347262Y-41142115D01*
X60515574Y-41197887D01*
X60619455Y-41208500D01*
X61127546Y-41208499D01*
X61194583Y-41228183D01*
X61240338Y-41280987D01*
X61250282Y-41350146D01*
X61221257Y-41413702D01*
X61191653Y-41438640D01*
X59629568Y-42382141D01*
X59565459Y-42400000D01*
X49324000Y-42400000D01*
X49256961Y-42380315D01*
X49211206Y-42327511D01*
X49200000Y-42276000D01*
X49200000Y-31899447D01*
X59911500Y-31899447D01*
X59911500Y-34700537D01*
X59911501Y-34700553D01*
X59920461Y-34788257D01*
X59922113Y-34804426D01*
X59977885Y-34972738D01*
X60070970Y-35123652D01*
X60196348Y-35249030D01*
X60347262Y-35342115D01*
X60515574Y-35397887D01*
X60619455Y-35408500D01*
X63420544Y-35408499D01*
X63524426Y-35397887D01*
X63692738Y-35342115D01*
X63843652Y-35249030D01*
X63969030Y-35123652D01*
X64062115Y-34972738D01*
X64117887Y-34804426D01*
X64128500Y-34700545D01*
X64128499Y-31899456D01*
X64117887Y-31795574D01*
X64062115Y-31627262D01*
X63969030Y-31476348D01*
X63843652Y-31350970D01*
X63692738Y-31257885D01*
X63692735Y-31257884D01*
X63524427Y-31202113D01*
X63420545Y-31191500D01*
X60619462Y-31191500D01*
X60619446Y-31191501D01*
X60515572Y-31202113D01*
X60347264Y-31257884D01*
X60347259Y-31257886D01*
X60196346Y-31350971D01*
X60070971Y-31476346D01*
X59977886Y-31627259D01*
X59977884Y-31627264D01*
X59922113Y-31795572D01*
X59911500Y-31899447D01*
X49200000Y-31899447D01*
X49200000Y-27424000D01*
X49219685Y-27356961D01*
X49272489Y-27311206D01*
X49324000Y-27300000D01*
X84154863Y-27300000D01*
X84221902Y-27319685D01*
G37*
G04 #@! TD.AperFunction*
G04 #@! TA.AperFunction,NonConductor*
G36*
X130477551Y-38899199D02*
G01*
X130544459Y-38919321D01*
X130589868Y-38972423D01*
X130600737Y-39022449D01*
X130699739Y-55456802D01*
X130680458Y-55523959D01*
X130673363Y-55534008D01*
X119499999Y-69800000D01*
X119499998Y-69800001D01*
X114329794Y-83918639D01*
X114288258Y-83974822D01*
X114222940Y-83999629D01*
X114213356Y-84000000D01*
X100923237Y-84000000D01*
X100856198Y-83980315D01*
X100810443Y-83927511D01*
X100799239Y-83876765D01*
X100731587Y-72917113D01*
X100710336Y-69474447D01*
X102391500Y-69474447D01*
X102391500Y-72275537D01*
X102391501Y-72275553D01*
X102402113Y-72379426D01*
X102457885Y-72547738D01*
X102550970Y-72698652D01*
X102676348Y-72824030D01*
X102827262Y-72917115D01*
X102995574Y-72972887D01*
X103099455Y-72983500D01*
X105900544Y-72983499D01*
X106004426Y-72972887D01*
X106172738Y-72917115D01*
X106323652Y-72824030D01*
X106449030Y-72698652D01*
X106542115Y-72547738D01*
X106597887Y-72379426D01*
X106608500Y-72275545D01*
X106608499Y-69474456D01*
X106608498Y-69474447D01*
X108391500Y-69474447D01*
X108391500Y-72275537D01*
X108391501Y-72275553D01*
X108402113Y-72379426D01*
X108457885Y-72547738D01*
X108550970Y-72698652D01*
X108676348Y-72824030D01*
X108827262Y-72917115D01*
X108995574Y-72972887D01*
X109099455Y-72983500D01*
X111900544Y-72983499D01*
X112004426Y-72972887D01*
X112172738Y-72917115D01*
X112323652Y-72824030D01*
X112449030Y-72698652D01*
X112542115Y-72547738D01*
X112597887Y-72379426D01*
X112608500Y-72275545D01*
X112608499Y-69474456D01*
X112597887Y-69370574D01*
X112542115Y-69202262D01*
X112449030Y-69051348D01*
X112323652Y-68925970D01*
X112172738Y-68832885D01*
X112172735Y-68832884D01*
X112004427Y-68777113D01*
X111900545Y-68766500D01*
X109099462Y-68766500D01*
X109099446Y-68766501D01*
X108995572Y-68777113D01*
X108827264Y-68832884D01*
X108827259Y-68832886D01*
X108676346Y-68925971D01*
X108550971Y-69051346D01*
X108457886Y-69202259D01*
X108457884Y-69202264D01*
X108402113Y-69370572D01*
X108391500Y-69474447D01*
X106608498Y-69474447D01*
X106597887Y-69370574D01*
X106542115Y-69202262D01*
X106449030Y-69051348D01*
X106323652Y-68925970D01*
X106172738Y-68832885D01*
X106172735Y-68832884D01*
X106004427Y-68777113D01*
X105900545Y-68766500D01*
X103099462Y-68766500D01*
X103099446Y-68766501D01*
X102995572Y-68777113D01*
X102827264Y-68832884D01*
X102827259Y-68832886D01*
X102676346Y-68925971D01*
X102550971Y-69051346D01*
X102457886Y-69202259D01*
X102457884Y-69202264D01*
X102402113Y-69370572D01*
X102391500Y-69474447D01*
X100710336Y-69474447D01*
X100700775Y-67925620D01*
X100720046Y-67858463D01*
X100772566Y-67812383D01*
X100825620Y-67800860D01*
X115300000Y-67900000D01*
X115224534Y-62768362D01*
X118261500Y-62768362D01*
X118261500Y-63031637D01*
X118261501Y-63031653D01*
X118295865Y-63292678D01*
X118364009Y-63546995D01*
X118464761Y-63790234D01*
X118464769Y-63790250D01*
X118596409Y-64018256D01*
X118756687Y-64227136D01*
X118756693Y-64227143D01*
X118942856Y-64413306D01*
X118942863Y-64413312D01*
X119151743Y-64573590D01*
X119379749Y-64705230D01*
X119379765Y-64705238D01*
X119531451Y-64768068D01*
X119623003Y-64805990D01*
X119877320Y-64874134D01*
X120138356Y-64908500D01*
X120138363Y-64908500D01*
X120401637Y-64908500D01*
X120401644Y-64908500D01*
X120662680Y-64874134D01*
X120916997Y-64805990D01*
X121100099Y-64730146D01*
X121160234Y-64705238D01*
X121160237Y-64705236D01*
X121160243Y-64705234D01*
X121388257Y-64573590D01*
X121597138Y-64413311D01*
X121783311Y-64227138D01*
X121943590Y-64018257D01*
X122075234Y-63790243D01*
X122175990Y-63546997D01*
X122244134Y-63292680D01*
X122278500Y-63031644D01*
X122278500Y-62768356D01*
X122244134Y-62507320D01*
X122175990Y-62253003D01*
X122138068Y-62161451D01*
X122075238Y-62009765D01*
X122075230Y-62009749D01*
X121943590Y-61781743D01*
X121783312Y-61572863D01*
X121783306Y-61572856D01*
X121597143Y-61386693D01*
X121597136Y-61386687D01*
X121388256Y-61226409D01*
X121160250Y-61094769D01*
X121160234Y-61094761D01*
X120916995Y-60994009D01*
X120662678Y-60925865D01*
X120401653Y-60891501D01*
X120401650Y-60891500D01*
X120401644Y-60891500D01*
X120138356Y-60891500D01*
X120138350Y-60891500D01*
X120138346Y-60891501D01*
X119877321Y-60925865D01*
X119623004Y-60994009D01*
X119379765Y-61094761D01*
X119379749Y-61094769D01*
X119151743Y-61226409D01*
X118942863Y-61386687D01*
X118942856Y-61386693D01*
X118756693Y-61572856D01*
X118756687Y-61572863D01*
X118596409Y-61781743D01*
X118464769Y-62009749D01*
X118464761Y-62009765D01*
X118364009Y-62253004D01*
X118295865Y-62507321D01*
X118261501Y-62768346D01*
X118261500Y-62768362D01*
X115224534Y-62768362D01*
X115200022Y-61101559D01*
X115200017Y-61098410D01*
X115200057Y-61094769D01*
X115300000Y-52000000D01*
X115300000Y-50474447D01*
X118141500Y-50474447D01*
X118141500Y-53275537D01*
X118141501Y-53275553D01*
X118152113Y-53379427D01*
X118153770Y-53384427D01*
X118207885Y-53547738D01*
X118300970Y-53698652D01*
X118426348Y-53824030D01*
X118577262Y-53917115D01*
X118745574Y-53972887D01*
X118849455Y-53983500D01*
X121650544Y-53983499D01*
X121754426Y-53972887D01*
X121922738Y-53917115D01*
X122073652Y-53824030D01*
X122199030Y-53698652D01*
X122292115Y-53547738D01*
X122347887Y-53379426D01*
X122358500Y-53275545D01*
X122358499Y-50479447D01*
X124141500Y-50479447D01*
X124141500Y-53280537D01*
X124141501Y-53280553D01*
X124151602Y-53379426D01*
X124152113Y-53384426D01*
X124207885Y-53552738D01*
X124300970Y-53703652D01*
X124426348Y-53829030D01*
X124577262Y-53922115D01*
X124745574Y-53977887D01*
X124849455Y-53988500D01*
X127650544Y-53988499D01*
X127754426Y-53977887D01*
X127922738Y-53922115D01*
X128073652Y-53829030D01*
X128199030Y-53703652D01*
X128292115Y-53552738D01*
X128347887Y-53384426D01*
X128358500Y-53280545D01*
X128358499Y-50479456D01*
X128347887Y-50375574D01*
X128292115Y-50207262D01*
X128199030Y-50056348D01*
X128073652Y-49930970D01*
X127922738Y-49837885D01*
X127907646Y-49832884D01*
X127754427Y-49782113D01*
X127650545Y-49771500D01*
X124849462Y-49771500D01*
X124849446Y-49771501D01*
X124745572Y-49782113D01*
X124577264Y-49837884D01*
X124577259Y-49837886D01*
X124426346Y-49930971D01*
X124300971Y-50056346D01*
X124207886Y-50207259D01*
X124207884Y-50207264D01*
X124152113Y-50375572D01*
X124141500Y-50479447D01*
X122358499Y-50479447D01*
X122358499Y-50474456D01*
X122347887Y-50370574D01*
X122292115Y-50202262D01*
X122199030Y-50051348D01*
X122073652Y-49925970D01*
X121930846Y-49837886D01*
X121922740Y-49832886D01*
X121922735Y-49832884D01*
X121754427Y-49777113D01*
X121650545Y-49766500D01*
X118849462Y-49766500D01*
X118849446Y-49766501D01*
X118745572Y-49777113D01*
X118577264Y-49832884D01*
X118577259Y-49832886D01*
X118426346Y-49925971D01*
X118300971Y-50051346D01*
X118207886Y-50202259D01*
X118207884Y-50202264D01*
X118152113Y-50370572D01*
X118141500Y-50474447D01*
X115300000Y-50474447D01*
X115300000Y-38924812D01*
X115319685Y-38857773D01*
X115372489Y-38812018D01*
X115424806Y-38800815D01*
X130477551Y-38899199D01*
G37*
G04 #@! TD.AperFunction*
M02*
