%TF.GenerationSoftware,KiCad,Pcbnew,9.0.6*%
%TF.CreationDate,2025-12-03T01:28:10+09:00*%
%TF.ProjectId,12f683MPPT,31326636-3833-44d5-9050-542e6b696361,rev?*%
%TF.SameCoordinates,Original*%
%TF.FileFunction,Drillmap*%
%TF.FilePolarity,Positive*%
%FSLAX45Y45*%
G04 Gerber Fmt 4.5, Leading zero omitted, Abs format (unit mm)*
G04 Created by KiCad (PCBNEW 9.0.6) date 2025-12-03 01:28:10*
%MOMM*%
%LPD*%
G01*
G04 APERTURE LIST*
%ADD10C,0.050000*%
%ADD11C,0.200000*%
%ADD12C,0.100000*%
%ADD13C,0.110000*%
%ADD14C,0.120000*%
%ADD15C,0.150000*%
%ADD16C,0.160000*%
%ADD17C,0.304800*%
%ADD18C,0.430000*%
G04 APERTURE END LIST*
D10*
X13400000Y-2650000D02*
X3621000Y-2651000D01*
X3621000Y-2651000D02*
X3624000Y-9911000D01*
X13400000Y-9910000D02*
X13400000Y-2650000D01*
X3624000Y-9911000D02*
X13400000Y-9910000D01*
D11*
D12*
X4660000Y-4500000D02*
X4740000Y-4580000D01*
X4740000Y-4500000D02*
X4660000Y-4580000D01*
X4660000Y-5770000D02*
X4740000Y-5850000D01*
X4740000Y-5770000D02*
X4660000Y-5850000D01*
X4660000Y-6045000D02*
X4740000Y-6125000D01*
X4740000Y-6045000D02*
X4660000Y-6125000D01*
X4660000Y-7315000D02*
X4740000Y-7395000D01*
X4740000Y-7315000D02*
X4660000Y-7395000D01*
X5525000Y-6040000D02*
X5605000Y-6120000D01*
X5605000Y-6040000D02*
X5525000Y-6120000D01*
X5680000Y-6790000D02*
X5760000Y-6870000D01*
X5760000Y-6790000D02*
X5680000Y-6870000D01*
X5680000Y-8060000D02*
X5760000Y-8140000D01*
X5760000Y-8060000D02*
X5680000Y-8140000D01*
X6224000Y-6788000D02*
X6304000Y-6868000D01*
X6304000Y-6788000D02*
X6224000Y-6868000D01*
X6224000Y-8058000D02*
X6304000Y-8138000D01*
X6304000Y-8058000D02*
X6224000Y-8138000D01*
X6668000Y-6790000D02*
X6748000Y-6870000D01*
X6748000Y-6790000D02*
X6668000Y-6870000D01*
X6668000Y-8060000D02*
X6748000Y-8140000D01*
X6748000Y-8060000D02*
X6668000Y-8140000D01*
X6785000Y-6410000D02*
X6865000Y-6490000D01*
X6865000Y-6410000D02*
X6785000Y-6490000D01*
X6795000Y-6040000D02*
X6875000Y-6120000D01*
X6875000Y-6040000D02*
X6795000Y-6120000D01*
X7106000Y-6787000D02*
X7186000Y-6867000D01*
X7186000Y-6787000D02*
X7106000Y-6867000D01*
X7106000Y-8057000D02*
X7186000Y-8137000D01*
X7186000Y-8057000D02*
X7106000Y-8137000D01*
X7200000Y-4880000D02*
X7280000Y-4960000D01*
X7280000Y-4880000D02*
X7200000Y-4960000D01*
X7200000Y-5130000D02*
X7280000Y-5210000D01*
X7280000Y-5130000D02*
X7200000Y-5210000D01*
X7425000Y-8060000D02*
X7505000Y-8140000D01*
X7505000Y-8060000D02*
X7425000Y-8140000D01*
X7425000Y-8630000D02*
X7505000Y-8710000D01*
X7505000Y-8630000D02*
X7425000Y-8710000D01*
X7806000Y-5262000D02*
X7886000Y-5342000D01*
X7886000Y-5262000D02*
X7806000Y-5342000D01*
X7806000Y-5516000D02*
X7886000Y-5596000D01*
X7886000Y-5516000D02*
X7806000Y-5596000D01*
X7806000Y-5770000D02*
X7886000Y-5850000D01*
X7886000Y-5770000D02*
X7806000Y-5850000D01*
X7806000Y-6024000D02*
X7886000Y-6104000D01*
X7886000Y-6024000D02*
X7806000Y-6104000D01*
X7810000Y-4740000D02*
X7890000Y-4820000D01*
X7890000Y-4740000D02*
X7810000Y-4820000D01*
X7810000Y-6788000D02*
X7890000Y-6868000D01*
X7890000Y-6788000D02*
X7810000Y-6868000D01*
X7810000Y-7042000D02*
X7890000Y-7122000D01*
X7890000Y-7042000D02*
X7810000Y-7122000D01*
X7810000Y-7296000D02*
X7890000Y-7376000D01*
X7890000Y-7296000D02*
X7810000Y-7376000D01*
X7810000Y-7550000D02*
X7890000Y-7630000D01*
X7890000Y-7550000D02*
X7810000Y-7630000D01*
X8055000Y-6410000D02*
X8135000Y-6490000D01*
X8135000Y-6410000D02*
X8055000Y-6490000D01*
X8265000Y-6410000D02*
X8345000Y-6490000D01*
X8345000Y-6410000D02*
X8265000Y-6490000D01*
X8310000Y-4740000D02*
X8390000Y-4820000D01*
X8390000Y-4740000D02*
X8310000Y-4820000D01*
X8568000Y-5262000D02*
X8648000Y-5342000D01*
X8648000Y-5262000D02*
X8568000Y-5342000D01*
X8568000Y-5516000D02*
X8648000Y-5596000D01*
X8648000Y-5516000D02*
X8568000Y-5596000D01*
X8568000Y-5770000D02*
X8648000Y-5850000D01*
X8648000Y-5770000D02*
X8568000Y-5850000D01*
X8568000Y-6024000D02*
X8648000Y-6104000D01*
X8648000Y-6024000D02*
X8568000Y-6104000D01*
X8572000Y-6788000D02*
X8652000Y-6868000D01*
X8652000Y-6788000D02*
X8572000Y-6868000D01*
X8572000Y-7042000D02*
X8652000Y-7122000D01*
X8652000Y-7042000D02*
X8572000Y-7122000D01*
X8572000Y-7296000D02*
X8652000Y-7376000D01*
X8652000Y-7296000D02*
X8572000Y-7376000D01*
X8572000Y-7550000D02*
X8652000Y-7630000D01*
X8652000Y-7550000D02*
X8572000Y-7630000D01*
X8695000Y-8060000D02*
X8775000Y-8140000D01*
X8775000Y-8060000D02*
X8695000Y-8140000D01*
X8695000Y-8630000D02*
X8775000Y-8710000D01*
X8775000Y-8630000D02*
X8695000Y-8710000D01*
X9022000Y-3620000D02*
X9102000Y-3700000D01*
X9102000Y-3620000D02*
X9022000Y-3700000D01*
X9030000Y-6785000D02*
X9110000Y-6865000D01*
X9110000Y-6785000D02*
X9030000Y-6865000D01*
X9030000Y-8055000D02*
X9110000Y-8135000D01*
X9110000Y-8055000D02*
X9030000Y-8135000D01*
X9080000Y-4500000D02*
X9160000Y-4580000D01*
X9160000Y-4500000D02*
X9080000Y-4580000D01*
X9080000Y-4754000D02*
X9160000Y-4834000D01*
X9160000Y-4754000D02*
X9080000Y-4834000D01*
X9080000Y-5008000D02*
X9160000Y-5088000D01*
X9160000Y-5008000D02*
X9080000Y-5088000D01*
X9420000Y-6785000D02*
X9500000Y-6865000D01*
X9500000Y-6785000D02*
X9420000Y-6865000D01*
X9420000Y-8055000D02*
X9500000Y-8135000D01*
X9500000Y-8055000D02*
X9420000Y-8135000D01*
X9530000Y-3620000D02*
X9610000Y-3700000D01*
X9610000Y-3620000D02*
X9530000Y-3700000D01*
X9530000Y-3990000D02*
X9610000Y-4070000D01*
X9610000Y-3990000D02*
X9530000Y-4070000D01*
X9530000Y-4498000D02*
X9610000Y-4578000D01*
X9610000Y-4498000D02*
X9530000Y-4578000D01*
X9530000Y-4750000D02*
X9610000Y-4830000D01*
X9610000Y-4750000D02*
X9530000Y-4830000D01*
X9530000Y-6020000D02*
X9610000Y-6100000D01*
X9610000Y-6020000D02*
X9530000Y-6100000D01*
X9535000Y-6410000D02*
X9615000Y-6490000D01*
X9615000Y-6410000D02*
X9535000Y-6490000D01*
X10064735Y-4770000D02*
X10144735Y-4850000D01*
X10144735Y-4770000D02*
X10064735Y-4850000D01*
X10074735Y-5810000D02*
X10154735Y-5890000D01*
X10154735Y-5810000D02*
X10074735Y-5890000D01*
X10314735Y-4770000D02*
X10394735Y-4850000D01*
X10394735Y-4770000D02*
X10314735Y-4850000D01*
X10324735Y-5810000D02*
X10404735Y-5890000D01*
X10404735Y-5810000D02*
X10324735Y-5890000D01*
X10694000Y-3836000D02*
X10774000Y-3916000D01*
X10774000Y-3836000D02*
X10694000Y-3916000D01*
X10694000Y-4090000D02*
X10774000Y-4170000D01*
X10774000Y-4090000D02*
X10694000Y-4170000D01*
X10694000Y-4344000D02*
X10774000Y-4424000D01*
X10774000Y-4344000D02*
X10694000Y-4424000D01*
X11170000Y-3836000D02*
X11250000Y-3916000D01*
X11250000Y-3836000D02*
X11170000Y-3916000D01*
X11170000Y-4090000D02*
X11250000Y-4170000D01*
X11250000Y-4090000D02*
X11170000Y-4170000D01*
X11170000Y-4344000D02*
X11250000Y-4424000D01*
X11250000Y-4344000D02*
X11170000Y-4424000D01*
X5765000Y-8673500D02*
G75*
G02*
X5675000Y-8673500I-45000J0D01*
G01*
X5675000Y-8673500D02*
G75*
G02*
X5765000Y-8673500I45000J0D01*
G01*
X5765000Y-8927500D02*
G75*
G02*
X5675000Y-8927500I-45000J0D01*
G01*
X5675000Y-8927500D02*
G75*
G02*
X5765000Y-8927500I45000J0D01*
G01*
X9248000Y-8430000D02*
G75*
G02*
X9158000Y-8430000I-45000J0D01*
G01*
X9158000Y-8430000D02*
G75*
G02*
X9248000Y-8430000I45000J0D01*
G01*
X9248000Y-8930000D02*
G75*
G02*
X9158000Y-8930000I-45000J0D01*
G01*
X9158000Y-8930000D02*
G75*
G02*
X9248000Y-8930000I45000J0D01*
G01*
X9502000Y-8430000D02*
G75*
G02*
X9412000Y-8430000I-45000J0D01*
G01*
X9412000Y-8430000D02*
G75*
G02*
X9502000Y-8430000I45000J0D01*
G01*
X9502000Y-8930000D02*
G75*
G02*
X9412000Y-8930000I-45000J0D01*
G01*
X9412000Y-8930000D02*
G75*
G02*
X9502000Y-8930000I45000J0D01*
G01*
X3980000Y-4793000D02*
X3980000Y-4893000D01*
X3930000Y-4843000D02*
X4030000Y-4843000D01*
X3980000Y-5301000D02*
X3980000Y-5401000D01*
X3930000Y-5351000D02*
X4030000Y-5351000D01*
X5520000Y-5590000D02*
X5520000Y-5690000D01*
X5470000Y-5640000D02*
X5570000Y-5640000D01*
X5540000Y-4380000D02*
X5540000Y-4480000D01*
X5490000Y-4430000D02*
X5590000Y-4430000D01*
X5540000Y-4800000D02*
X5540000Y-4900000D01*
X5490000Y-4850000D02*
X5590000Y-4850000D01*
X12820000Y-7352000D02*
X12820000Y-7452000D01*
X12770000Y-7402000D02*
X12870000Y-7402000D01*
X12820000Y-7860000D02*
X12820000Y-7960000D01*
X12770000Y-7910000D02*
X12870000Y-7910000D01*
D13*
X4733891Y-7923891D02*
X4733891Y-7846109D01*
X4656109Y-7846109D01*
X4656109Y-7923891D01*
X4733891Y-7923891D01*
X4733891Y-8573891D02*
X4733891Y-8496109D01*
X4656109Y-8496109D01*
X4656109Y-8573891D01*
X4733891Y-8573891D01*
X5168891Y-4660891D02*
X5168891Y-4583109D01*
X5091109Y-4583109D01*
X5091109Y-4660891D01*
X5168891Y-4660891D01*
X5168891Y-5676891D02*
X5168891Y-5599109D01*
X5091109Y-5599109D01*
X5091109Y-5676891D01*
X5168891Y-5676891D01*
X5168891Y-6123891D02*
X5168891Y-6046109D01*
X5091109Y-6046109D01*
X5091109Y-6123891D01*
X5168891Y-6123891D01*
X5168891Y-7393891D02*
X5168891Y-7316109D01*
X5091109Y-7316109D01*
X5091109Y-7393891D01*
X5168891Y-7393891D01*
X5183891Y-7923891D02*
X5183891Y-7846109D01*
X5106109Y-7846109D01*
X5106109Y-7923891D01*
X5183891Y-7923891D01*
X5183891Y-8573891D02*
X5183891Y-8496109D01*
X5106109Y-8496109D01*
X5106109Y-8573891D01*
X5183891Y-8573891D01*
X5980891Y-5678891D02*
X5980891Y-5601109D01*
X5903109Y-5601109D01*
X5903109Y-5678891D01*
X5980891Y-5678891D01*
X6234891Y-5678891D02*
X6234891Y-5601109D01*
X6157109Y-5601109D01*
X6157109Y-5678891D01*
X6234891Y-5678891D01*
X6488891Y-5678891D02*
X6488891Y-5601109D01*
X6411109Y-5601109D01*
X6411109Y-5678891D01*
X6488891Y-5678891D01*
X7890891Y-4168891D02*
X7890891Y-4091109D01*
X7813109Y-4091109D01*
X7813109Y-4168891D01*
X7890891Y-4168891D01*
X8174891Y-9294391D02*
X8174891Y-9216609D01*
X8097109Y-9216609D01*
X8097109Y-9294391D01*
X8174891Y-9294391D01*
X8428891Y-9294391D02*
X8428891Y-9216609D01*
X8351109Y-9216609D01*
X8351109Y-9294391D01*
X8428891Y-9294391D01*
X8682891Y-9294391D02*
X8682891Y-9216609D01*
X8605109Y-9216609D01*
X8605109Y-9294391D01*
X8682891Y-9294391D01*
X8906891Y-4168891D02*
X8906891Y-4091109D01*
X8829109Y-4091109D01*
X8829109Y-4168891D01*
X8906891Y-4168891D01*
X10768891Y-3388891D02*
X10768891Y-3311109D01*
X10691109Y-3311109D01*
X10691109Y-3388891D01*
X10768891Y-3388891D01*
X11022891Y-3388891D02*
X11022891Y-3311109D01*
X10945109Y-3311109D01*
X10945109Y-3388891D01*
X11022891Y-3388891D01*
X11276891Y-3388891D02*
X11276891Y-3311109D01*
X11199109Y-3311109D01*
X11199109Y-3388891D01*
X11276891Y-3388891D01*
X11956673Y-3288891D02*
X11956673Y-3211109D01*
X11878891Y-3211109D01*
X11878891Y-3288891D01*
X11956673Y-3288891D01*
X12464673Y-3288891D02*
X12464673Y-3211109D01*
X12386891Y-3211109D01*
X12386891Y-3288891D01*
X12464673Y-3288891D01*
D14*
X7040000Y-3397604D02*
X7100000Y-3337604D01*
X7040000Y-3277604D01*
X6980000Y-3337604D01*
X7040000Y-3397604D01*
X7040000Y-3897604D02*
X7100000Y-3837604D01*
X7040000Y-3777604D01*
X6980000Y-3837604D01*
X7040000Y-3897604D01*
X12025000Y-8685000D02*
X12085000Y-8625000D01*
X12025000Y-8565000D01*
X11965000Y-8625000D01*
X12025000Y-8685000D01*
X12025000Y-9185000D02*
X12085000Y-9125000D01*
X12025000Y-9065000D01*
X11965000Y-9125000D01*
X12025000Y-9185000D01*
D15*
X11952000Y-6215000D02*
X12102000Y-6365000D01*
X12102000Y-6215000D02*
X11952000Y-6365000D01*
X12102000Y-6290000D02*
G75*
G02*
X11952000Y-6290000I-75000J0D01*
G01*
X11952000Y-6290000D02*
G75*
G02*
X12102000Y-6290000I75000J0D01*
G01*
X12714000Y-6215000D02*
X12864000Y-6365000D01*
X12864000Y-6215000D02*
X12714000Y-6365000D01*
X12864000Y-6290000D02*
G75*
G02*
X12714000Y-6290000I-75000J0D01*
G01*
X12714000Y-6290000D02*
G75*
G02*
X12864000Y-6290000I75000J0D01*
G01*
D16*
X4598000Y-3250000D02*
X4758000Y-3410000D01*
X4758000Y-3250000D02*
X4598000Y-3410000D01*
X4678000Y-3250000D02*
X4678000Y-3410000D01*
X4598000Y-3330000D02*
X4758000Y-3330000D01*
X4598000Y-3830000D02*
X4758000Y-3990000D01*
X4758000Y-3830000D02*
X4598000Y-3990000D01*
X4678000Y-3830000D02*
X4678000Y-3990000D01*
X4598000Y-3910000D02*
X4758000Y-3910000D01*
X6122000Y-3250000D02*
X6282000Y-3410000D01*
X6282000Y-3250000D02*
X6122000Y-3410000D01*
X6202000Y-3250000D02*
X6202000Y-3410000D01*
X6122000Y-3330000D02*
X6282000Y-3330000D01*
X6122000Y-3830000D02*
X6282000Y-3990000D01*
X6282000Y-3830000D02*
X6122000Y-3990000D01*
X6202000Y-3830000D02*
X6202000Y-3990000D01*
X6122000Y-3910000D02*
X6282000Y-3910000D01*
X10370000Y-7007500D02*
X10530000Y-7167500D01*
X10530000Y-7007500D02*
X10370000Y-7167500D01*
X10450000Y-7007500D02*
X10450000Y-7167500D01*
X10370000Y-7087500D02*
X10530000Y-7087500D01*
X10370000Y-8531500D02*
X10530000Y-8691500D01*
X10530000Y-8531500D02*
X10370000Y-8691500D01*
X10450000Y-8531500D02*
X10450000Y-8691500D01*
X10370000Y-8611500D02*
X10530000Y-8611500D01*
X10970000Y-7007500D02*
X11130000Y-7167500D01*
X11130000Y-7007500D02*
X10970000Y-7167500D01*
X11050000Y-7007500D02*
X11050000Y-7167500D01*
X10970000Y-7087500D02*
X11130000Y-7087500D01*
X10970000Y-8531500D02*
X11130000Y-8691500D01*
X11130000Y-8531500D02*
X10970000Y-8691500D01*
X11050000Y-8531500D02*
X11050000Y-8691500D01*
X10970000Y-8611500D02*
X11130000Y-8611500D01*
X11945000Y-3583500D02*
X12105000Y-3743500D01*
X12105000Y-3583500D02*
X11945000Y-3743500D01*
X12025000Y-3583500D02*
X12025000Y-3743500D01*
X11945000Y-3663500D02*
X12105000Y-3663500D01*
X11945000Y-5107500D02*
X12105000Y-5267500D01*
X12105000Y-5107500D02*
X11945000Y-5267500D01*
X12025000Y-5107500D02*
X12025000Y-5267500D01*
X11945000Y-5187500D02*
X12105000Y-5187500D01*
X12545000Y-3584000D02*
X12705000Y-3744000D01*
X12705000Y-3584000D02*
X12545000Y-3744000D01*
X12625000Y-3584000D02*
X12625000Y-3744000D01*
X12545000Y-3664000D02*
X12705000Y-3664000D01*
X12545000Y-5108000D02*
X12705000Y-5268000D01*
X12705000Y-5108000D02*
X12545000Y-5268000D01*
X12625000Y-5108000D02*
X12625000Y-5268000D01*
X12545000Y-5188000D02*
X12705000Y-5188000D01*
D17*
X3817600Y-6337600D02*
X4122400Y-6642400D01*
X4122400Y-6337600D02*
X3817600Y-6642400D01*
X4077764Y-6597764D02*
X4077764Y-6382236D01*
X3862236Y-6382236D01*
X3862236Y-6597764D01*
X4077764Y-6597764D01*
X3841600Y-3942600D02*
X4146400Y-4247400D01*
X4146400Y-3942600D02*
X3841600Y-4247400D01*
X4101764Y-4202764D02*
X4101764Y-3987236D01*
X3886236Y-3987236D01*
X3886236Y-4202764D01*
X4101764Y-4202764D01*
X11872600Y-7647600D02*
X12177400Y-7952400D01*
X12177400Y-7647600D02*
X11872600Y-7952400D01*
X12132764Y-7907764D02*
X12132764Y-7692236D01*
X11917236Y-7692236D01*
X11917236Y-7907764D01*
X12132764Y-7907764D01*
X12837600Y-8607600D02*
X13142400Y-8912400D01*
X13142400Y-8607600D02*
X12837600Y-8912400D01*
X13097764Y-8867764D02*
X13097764Y-8652236D01*
X12882236Y-8652236D01*
X12882236Y-8867764D01*
X13097764Y-8867764D01*
D18*
X3835000Y-2860000D02*
X4265000Y-3290000D01*
X4265000Y-2860000D02*
X3835000Y-3290000D01*
X4050000Y-3290000D02*
X4265000Y-3075000D01*
X4050000Y-2860000D01*
X3835000Y-3075000D01*
X4050000Y-3290000D01*
X3835000Y-9260000D02*
X4265000Y-9690000D01*
X4265000Y-9260000D02*
X3835000Y-9690000D01*
X4050000Y-9690000D02*
X4265000Y-9475000D01*
X4050000Y-9260000D01*
X3835000Y-9475000D01*
X4050000Y-9690000D01*
X12755000Y-2855000D02*
X13185000Y-3285000D01*
X13185000Y-2855000D02*
X12755000Y-3285000D01*
X12970000Y-3285000D02*
X13185000Y-3070000D01*
X12970000Y-2855000D01*
X12755000Y-3070000D01*
X12970000Y-3285000D01*
X12765000Y-9275000D02*
X13195000Y-9705000D01*
X13195000Y-9275000D02*
X12765000Y-9705000D01*
X12980000Y-9705000D02*
X13195000Y-9490000D01*
X12980000Y-9275000D01*
X12765000Y-9490000D01*
X12980000Y-9705000D01*
D11*
X3879277Y-10224984D02*
X3879277Y-10024984D01*
X3879277Y-10024984D02*
X3926896Y-10024984D01*
X3926896Y-10024984D02*
X3955467Y-10034508D01*
X3955467Y-10034508D02*
X3974515Y-10053555D01*
X3974515Y-10053555D02*
X3984039Y-10072603D01*
X3984039Y-10072603D02*
X3993562Y-10110698D01*
X3993562Y-10110698D02*
X3993562Y-10139270D01*
X3993562Y-10139270D02*
X3984039Y-10177365D01*
X3984039Y-10177365D02*
X3974515Y-10196412D01*
X3974515Y-10196412D02*
X3955467Y-10215460D01*
X3955467Y-10215460D02*
X3926896Y-10224984D01*
X3926896Y-10224984D02*
X3879277Y-10224984D01*
X4079277Y-10224984D02*
X4079277Y-10091650D01*
X4079277Y-10129746D02*
X4088801Y-10110698D01*
X4088801Y-10110698D02*
X4098324Y-10101174D01*
X4098324Y-10101174D02*
X4117372Y-10091650D01*
X4117372Y-10091650D02*
X4136420Y-10091650D01*
X4203086Y-10224984D02*
X4203086Y-10091650D01*
X4203086Y-10024984D02*
X4193562Y-10034508D01*
X4193562Y-10034508D02*
X4203086Y-10044031D01*
X4203086Y-10044031D02*
X4212610Y-10034508D01*
X4212610Y-10034508D02*
X4203086Y-10024984D01*
X4203086Y-10024984D02*
X4203086Y-10044031D01*
X4326896Y-10224984D02*
X4307848Y-10215460D01*
X4307848Y-10215460D02*
X4298324Y-10196412D01*
X4298324Y-10196412D02*
X4298324Y-10024984D01*
X4431658Y-10224984D02*
X4412610Y-10215460D01*
X4412610Y-10215460D02*
X4403086Y-10196412D01*
X4403086Y-10196412D02*
X4403086Y-10024984D01*
X4660229Y-10224984D02*
X4660229Y-10024984D01*
X4660229Y-10024984D02*
X4726896Y-10167841D01*
X4726896Y-10167841D02*
X4793563Y-10024984D01*
X4793563Y-10024984D02*
X4793563Y-10224984D01*
X4974515Y-10224984D02*
X4974515Y-10120222D01*
X4974515Y-10120222D02*
X4964991Y-10101174D01*
X4964991Y-10101174D02*
X4945944Y-10091650D01*
X4945944Y-10091650D02*
X4907848Y-10091650D01*
X4907848Y-10091650D02*
X4888801Y-10101174D01*
X4974515Y-10215460D02*
X4955467Y-10224984D01*
X4955467Y-10224984D02*
X4907848Y-10224984D01*
X4907848Y-10224984D02*
X4888801Y-10215460D01*
X4888801Y-10215460D02*
X4879277Y-10196412D01*
X4879277Y-10196412D02*
X4879277Y-10177365D01*
X4879277Y-10177365D02*
X4888801Y-10158317D01*
X4888801Y-10158317D02*
X4907848Y-10148793D01*
X4907848Y-10148793D02*
X4955467Y-10148793D01*
X4955467Y-10148793D02*
X4974515Y-10139270D01*
X5069753Y-10091650D02*
X5069753Y-10291650D01*
X5069753Y-10101174D02*
X5088801Y-10091650D01*
X5088801Y-10091650D02*
X5126896Y-10091650D01*
X5126896Y-10091650D02*
X5145944Y-10101174D01*
X5145944Y-10101174D02*
X5155467Y-10110698D01*
X5155467Y-10110698D02*
X5164991Y-10129746D01*
X5164991Y-10129746D02*
X5164991Y-10186889D01*
X5164991Y-10186889D02*
X5155467Y-10205936D01*
X5155467Y-10205936D02*
X5145944Y-10215460D01*
X5145944Y-10215460D02*
X5126896Y-10224984D01*
X5126896Y-10224984D02*
X5088801Y-10224984D01*
X5088801Y-10224984D02*
X5069753Y-10215460D01*
X5250705Y-10205936D02*
X5260229Y-10215460D01*
X5260229Y-10215460D02*
X5250705Y-10224984D01*
X5250705Y-10224984D02*
X5241182Y-10215460D01*
X5241182Y-10215460D02*
X5250705Y-10205936D01*
X5250705Y-10205936D02*
X5250705Y-10224984D01*
X5250705Y-10101174D02*
X5260229Y-10110698D01*
X5260229Y-10110698D02*
X5250705Y-10120222D01*
X5250705Y-10120222D02*
X5241182Y-10110698D01*
X5241182Y-10110698D02*
X5250705Y-10101174D01*
X5250705Y-10101174D02*
X5250705Y-10120222D01*
D12*
X3538500Y-10513500D02*
X3618500Y-10593500D01*
X3618500Y-10513500D02*
X3538500Y-10593500D01*
D11*
X3917372Y-10444984D02*
X3936420Y-10444984D01*
X3936420Y-10444984D02*
X3955467Y-10454508D01*
X3955467Y-10454508D02*
X3964991Y-10464031D01*
X3964991Y-10464031D02*
X3974515Y-10483079D01*
X3974515Y-10483079D02*
X3984039Y-10521174D01*
X3984039Y-10521174D02*
X3984039Y-10568793D01*
X3984039Y-10568793D02*
X3974515Y-10606889D01*
X3974515Y-10606889D02*
X3964991Y-10625936D01*
X3964991Y-10625936D02*
X3955467Y-10635460D01*
X3955467Y-10635460D02*
X3936420Y-10644984D01*
X3936420Y-10644984D02*
X3917372Y-10644984D01*
X3917372Y-10644984D02*
X3898324Y-10635460D01*
X3898324Y-10635460D02*
X3888801Y-10625936D01*
X3888801Y-10625936D02*
X3879277Y-10606889D01*
X3879277Y-10606889D02*
X3869753Y-10568793D01*
X3869753Y-10568793D02*
X3869753Y-10521174D01*
X3869753Y-10521174D02*
X3879277Y-10483079D01*
X3879277Y-10483079D02*
X3888801Y-10464031D01*
X3888801Y-10464031D02*
X3898324Y-10454508D01*
X3898324Y-10454508D02*
X3917372Y-10444984D01*
X4069753Y-10625936D02*
X4079277Y-10635460D01*
X4079277Y-10635460D02*
X4069753Y-10644984D01*
X4069753Y-10644984D02*
X4060229Y-10635460D01*
X4060229Y-10635460D02*
X4069753Y-10625936D01*
X4069753Y-10625936D02*
X4069753Y-10644984D01*
X4193562Y-10530698D02*
X4174515Y-10521174D01*
X4174515Y-10521174D02*
X4164991Y-10511650D01*
X4164991Y-10511650D02*
X4155467Y-10492603D01*
X4155467Y-10492603D02*
X4155467Y-10483079D01*
X4155467Y-10483079D02*
X4164991Y-10464031D01*
X4164991Y-10464031D02*
X4174515Y-10454508D01*
X4174515Y-10454508D02*
X4193562Y-10444984D01*
X4193562Y-10444984D02*
X4231658Y-10444984D01*
X4231658Y-10444984D02*
X4250705Y-10454508D01*
X4250705Y-10454508D02*
X4260229Y-10464031D01*
X4260229Y-10464031D02*
X4269753Y-10483079D01*
X4269753Y-10483079D02*
X4269753Y-10492603D01*
X4269753Y-10492603D02*
X4260229Y-10511650D01*
X4260229Y-10511650D02*
X4250705Y-10521174D01*
X4250705Y-10521174D02*
X4231658Y-10530698D01*
X4231658Y-10530698D02*
X4193562Y-10530698D01*
X4193562Y-10530698D02*
X4174515Y-10540222D01*
X4174515Y-10540222D02*
X4164991Y-10549746D01*
X4164991Y-10549746D02*
X4155467Y-10568793D01*
X4155467Y-10568793D02*
X4155467Y-10606889D01*
X4155467Y-10606889D02*
X4164991Y-10625936D01*
X4164991Y-10625936D02*
X4174515Y-10635460D01*
X4174515Y-10635460D02*
X4193562Y-10644984D01*
X4193562Y-10644984D02*
X4231658Y-10644984D01*
X4231658Y-10644984D02*
X4250705Y-10635460D01*
X4250705Y-10635460D02*
X4260229Y-10625936D01*
X4260229Y-10625936D02*
X4269753Y-10606889D01*
X4269753Y-10606889D02*
X4269753Y-10568793D01*
X4269753Y-10568793D02*
X4260229Y-10549746D01*
X4260229Y-10549746D02*
X4250705Y-10540222D01*
X4250705Y-10540222D02*
X4231658Y-10530698D01*
X4393563Y-10444984D02*
X4412610Y-10444984D01*
X4412610Y-10444984D02*
X4431658Y-10454508D01*
X4431658Y-10454508D02*
X4441182Y-10464031D01*
X4441182Y-10464031D02*
X4450705Y-10483079D01*
X4450705Y-10483079D02*
X4460229Y-10521174D01*
X4460229Y-10521174D02*
X4460229Y-10568793D01*
X4460229Y-10568793D02*
X4450705Y-10606889D01*
X4450705Y-10606889D02*
X4441182Y-10625936D01*
X4441182Y-10625936D02*
X4431658Y-10635460D01*
X4431658Y-10635460D02*
X4412610Y-10644984D01*
X4412610Y-10644984D02*
X4393563Y-10644984D01*
X4393563Y-10644984D02*
X4374515Y-10635460D01*
X4374515Y-10635460D02*
X4364991Y-10625936D01*
X4364991Y-10625936D02*
X4355467Y-10606889D01*
X4355467Y-10606889D02*
X4345944Y-10568793D01*
X4345944Y-10568793D02*
X4345944Y-10521174D01*
X4345944Y-10521174D02*
X4355467Y-10483079D01*
X4355467Y-10483079D02*
X4364991Y-10464031D01*
X4364991Y-10464031D02*
X4374515Y-10454508D01*
X4374515Y-10454508D02*
X4393563Y-10444984D01*
X4584039Y-10444984D02*
X4603086Y-10444984D01*
X4603086Y-10444984D02*
X4622134Y-10454508D01*
X4622134Y-10454508D02*
X4631658Y-10464031D01*
X4631658Y-10464031D02*
X4641182Y-10483079D01*
X4641182Y-10483079D02*
X4650705Y-10521174D01*
X4650705Y-10521174D02*
X4650705Y-10568793D01*
X4650705Y-10568793D02*
X4641182Y-10606889D01*
X4641182Y-10606889D02*
X4631658Y-10625936D01*
X4631658Y-10625936D02*
X4622134Y-10635460D01*
X4622134Y-10635460D02*
X4603086Y-10644984D01*
X4603086Y-10644984D02*
X4584039Y-10644984D01*
X4584039Y-10644984D02*
X4564991Y-10635460D01*
X4564991Y-10635460D02*
X4555467Y-10625936D01*
X4555467Y-10625936D02*
X4545944Y-10606889D01*
X4545944Y-10606889D02*
X4536420Y-10568793D01*
X4536420Y-10568793D02*
X4536420Y-10521174D01*
X4536420Y-10521174D02*
X4545944Y-10483079D01*
X4545944Y-10483079D02*
X4555467Y-10464031D01*
X4555467Y-10464031D02*
X4564991Y-10454508D01*
X4564991Y-10454508D02*
X4584039Y-10444984D01*
X4736420Y-10644984D02*
X4736420Y-10511650D01*
X4736420Y-10530698D02*
X4745944Y-10521174D01*
X4745944Y-10521174D02*
X4764991Y-10511650D01*
X4764991Y-10511650D02*
X4793563Y-10511650D01*
X4793563Y-10511650D02*
X4812610Y-10521174D01*
X4812610Y-10521174D02*
X4822134Y-10540222D01*
X4822134Y-10540222D02*
X4822134Y-10644984D01*
X4822134Y-10540222D02*
X4831658Y-10521174D01*
X4831658Y-10521174D02*
X4850705Y-10511650D01*
X4850705Y-10511650D02*
X4879277Y-10511650D01*
X4879277Y-10511650D02*
X4898325Y-10521174D01*
X4898325Y-10521174D02*
X4907848Y-10540222D01*
X4907848Y-10540222D02*
X4907848Y-10644984D01*
X5003086Y-10644984D02*
X5003086Y-10511650D01*
X5003086Y-10530698D02*
X5012610Y-10521174D01*
X5012610Y-10521174D02*
X5031658Y-10511650D01*
X5031658Y-10511650D02*
X5060229Y-10511650D01*
X5060229Y-10511650D02*
X5079277Y-10521174D01*
X5079277Y-10521174D02*
X5088801Y-10540222D01*
X5088801Y-10540222D02*
X5088801Y-10644984D01*
X5088801Y-10540222D02*
X5098325Y-10521174D01*
X5098325Y-10521174D02*
X5117372Y-10511650D01*
X5117372Y-10511650D02*
X5145944Y-10511650D01*
X5145944Y-10511650D02*
X5164991Y-10521174D01*
X5164991Y-10521174D02*
X5174515Y-10540222D01*
X5174515Y-10540222D02*
X5174515Y-10644984D01*
X5564991Y-10435460D02*
X5393563Y-10692603D01*
X5822134Y-10444984D02*
X5841182Y-10444984D01*
X5841182Y-10444984D02*
X5860229Y-10454508D01*
X5860229Y-10454508D02*
X5869753Y-10464031D01*
X5869753Y-10464031D02*
X5879277Y-10483079D01*
X5879277Y-10483079D02*
X5888801Y-10521174D01*
X5888801Y-10521174D02*
X5888801Y-10568793D01*
X5888801Y-10568793D02*
X5879277Y-10606889D01*
X5879277Y-10606889D02*
X5869753Y-10625936D01*
X5869753Y-10625936D02*
X5860229Y-10635460D01*
X5860229Y-10635460D02*
X5841182Y-10644984D01*
X5841182Y-10644984D02*
X5822134Y-10644984D01*
X5822134Y-10644984D02*
X5803086Y-10635460D01*
X5803086Y-10635460D02*
X5793563Y-10625936D01*
X5793563Y-10625936D02*
X5784039Y-10606889D01*
X5784039Y-10606889D02*
X5774515Y-10568793D01*
X5774515Y-10568793D02*
X5774515Y-10521174D01*
X5774515Y-10521174D02*
X5784039Y-10483079D01*
X5784039Y-10483079D02*
X5793563Y-10464031D01*
X5793563Y-10464031D02*
X5803086Y-10454508D01*
X5803086Y-10454508D02*
X5822134Y-10444984D01*
X5974515Y-10625936D02*
X5984039Y-10635460D01*
X5984039Y-10635460D02*
X5974515Y-10644984D01*
X5974515Y-10644984D02*
X5964991Y-10635460D01*
X5964991Y-10635460D02*
X5974515Y-10625936D01*
X5974515Y-10625936D02*
X5974515Y-10644984D01*
X6107848Y-10444984D02*
X6126896Y-10444984D01*
X6126896Y-10444984D02*
X6145944Y-10454508D01*
X6145944Y-10454508D02*
X6155467Y-10464031D01*
X6155467Y-10464031D02*
X6164991Y-10483079D01*
X6164991Y-10483079D02*
X6174515Y-10521174D01*
X6174515Y-10521174D02*
X6174515Y-10568793D01*
X6174515Y-10568793D02*
X6164991Y-10606889D01*
X6164991Y-10606889D02*
X6155467Y-10625936D01*
X6155467Y-10625936D02*
X6145944Y-10635460D01*
X6145944Y-10635460D02*
X6126896Y-10644984D01*
X6126896Y-10644984D02*
X6107848Y-10644984D01*
X6107848Y-10644984D02*
X6088801Y-10635460D01*
X6088801Y-10635460D02*
X6079277Y-10625936D01*
X6079277Y-10625936D02*
X6069753Y-10606889D01*
X6069753Y-10606889D02*
X6060229Y-10568793D01*
X6060229Y-10568793D02*
X6060229Y-10521174D01*
X6060229Y-10521174D02*
X6069753Y-10483079D01*
X6069753Y-10483079D02*
X6079277Y-10464031D01*
X6079277Y-10464031D02*
X6088801Y-10454508D01*
X6088801Y-10454508D02*
X6107848Y-10444984D01*
X6241182Y-10444984D02*
X6364991Y-10444984D01*
X6364991Y-10444984D02*
X6298325Y-10521174D01*
X6298325Y-10521174D02*
X6326896Y-10521174D01*
X6326896Y-10521174D02*
X6345944Y-10530698D01*
X6345944Y-10530698D02*
X6355467Y-10540222D01*
X6355467Y-10540222D02*
X6364991Y-10559270D01*
X6364991Y-10559270D02*
X6364991Y-10606889D01*
X6364991Y-10606889D02*
X6355467Y-10625936D01*
X6355467Y-10625936D02*
X6345944Y-10635460D01*
X6345944Y-10635460D02*
X6326896Y-10644984D01*
X6326896Y-10644984D02*
X6269753Y-10644984D01*
X6269753Y-10644984D02*
X6250706Y-10635460D01*
X6250706Y-10635460D02*
X6241182Y-10625936D01*
X6555467Y-10644984D02*
X6441182Y-10644984D01*
X6498325Y-10644984D02*
X6498325Y-10444984D01*
X6498325Y-10444984D02*
X6479277Y-10473555D01*
X6479277Y-10473555D02*
X6460229Y-10492603D01*
X6460229Y-10492603D02*
X6441182Y-10502127D01*
X6736420Y-10444984D02*
X6641182Y-10444984D01*
X6641182Y-10444984D02*
X6631658Y-10540222D01*
X6631658Y-10540222D02*
X6641182Y-10530698D01*
X6641182Y-10530698D02*
X6660229Y-10521174D01*
X6660229Y-10521174D02*
X6707848Y-10521174D01*
X6707848Y-10521174D02*
X6726896Y-10530698D01*
X6726896Y-10530698D02*
X6736420Y-10540222D01*
X6736420Y-10540222D02*
X6745944Y-10559270D01*
X6745944Y-10559270D02*
X6745944Y-10606889D01*
X6745944Y-10606889D02*
X6736420Y-10625936D01*
X6736420Y-10625936D02*
X6726896Y-10635460D01*
X6726896Y-10635460D02*
X6707848Y-10644984D01*
X6707848Y-10644984D02*
X6660229Y-10644984D01*
X6660229Y-10644984D02*
X6641182Y-10635460D01*
X6641182Y-10635460D02*
X6631658Y-10625936D01*
X6822134Y-10444984D02*
X6822134Y-10483079D01*
X6898325Y-10444984D02*
X6898325Y-10483079D01*
X7193563Y-10721174D02*
X7184039Y-10711650D01*
X7184039Y-10711650D02*
X7164991Y-10683079D01*
X7164991Y-10683079D02*
X7155468Y-10664031D01*
X7155468Y-10664031D02*
X7145944Y-10635460D01*
X7145944Y-10635460D02*
X7136420Y-10587841D01*
X7136420Y-10587841D02*
X7136420Y-10549746D01*
X7136420Y-10549746D02*
X7145944Y-10502127D01*
X7145944Y-10502127D02*
X7155468Y-10473555D01*
X7155468Y-10473555D02*
X7164991Y-10454508D01*
X7164991Y-10454508D02*
X7184039Y-10425936D01*
X7184039Y-10425936D02*
X7193563Y-10416412D01*
X7355468Y-10444984D02*
X7317372Y-10444984D01*
X7317372Y-10444984D02*
X7298325Y-10454508D01*
X7298325Y-10454508D02*
X7288801Y-10464031D01*
X7288801Y-10464031D02*
X7269753Y-10492603D01*
X7269753Y-10492603D02*
X7260229Y-10530698D01*
X7260229Y-10530698D02*
X7260229Y-10606889D01*
X7260229Y-10606889D02*
X7269753Y-10625936D01*
X7269753Y-10625936D02*
X7279277Y-10635460D01*
X7279277Y-10635460D02*
X7298325Y-10644984D01*
X7298325Y-10644984D02*
X7336420Y-10644984D01*
X7336420Y-10644984D02*
X7355468Y-10635460D01*
X7355468Y-10635460D02*
X7364991Y-10625936D01*
X7364991Y-10625936D02*
X7374515Y-10606889D01*
X7374515Y-10606889D02*
X7374515Y-10559270D01*
X7374515Y-10559270D02*
X7364991Y-10540222D01*
X7364991Y-10540222D02*
X7355468Y-10530698D01*
X7355468Y-10530698D02*
X7336420Y-10521174D01*
X7336420Y-10521174D02*
X7298325Y-10521174D01*
X7298325Y-10521174D02*
X7279277Y-10530698D01*
X7279277Y-10530698D02*
X7269753Y-10540222D01*
X7269753Y-10540222D02*
X7260229Y-10559270D01*
X7555468Y-10444984D02*
X7460229Y-10444984D01*
X7460229Y-10444984D02*
X7450706Y-10540222D01*
X7450706Y-10540222D02*
X7460229Y-10530698D01*
X7460229Y-10530698D02*
X7479277Y-10521174D01*
X7479277Y-10521174D02*
X7526896Y-10521174D01*
X7526896Y-10521174D02*
X7545944Y-10530698D01*
X7545944Y-10530698D02*
X7555468Y-10540222D01*
X7555468Y-10540222D02*
X7564991Y-10559270D01*
X7564991Y-10559270D02*
X7564991Y-10606889D01*
X7564991Y-10606889D02*
X7555468Y-10625936D01*
X7555468Y-10625936D02*
X7545944Y-10635460D01*
X7545944Y-10635460D02*
X7526896Y-10644984D01*
X7526896Y-10644984D02*
X7479277Y-10644984D01*
X7479277Y-10644984D02*
X7460229Y-10635460D01*
X7460229Y-10635460D02*
X7450706Y-10625936D01*
X7803087Y-10644984D02*
X7803087Y-10444984D01*
X7888801Y-10644984D02*
X7888801Y-10540222D01*
X7888801Y-10540222D02*
X7879277Y-10521174D01*
X7879277Y-10521174D02*
X7860230Y-10511650D01*
X7860230Y-10511650D02*
X7831658Y-10511650D01*
X7831658Y-10511650D02*
X7812610Y-10521174D01*
X7812610Y-10521174D02*
X7803087Y-10530698D01*
X8012610Y-10644984D02*
X7993563Y-10635460D01*
X7993563Y-10635460D02*
X7984039Y-10625936D01*
X7984039Y-10625936D02*
X7974515Y-10606889D01*
X7974515Y-10606889D02*
X7974515Y-10549746D01*
X7974515Y-10549746D02*
X7984039Y-10530698D01*
X7984039Y-10530698D02*
X7993563Y-10521174D01*
X7993563Y-10521174D02*
X8012610Y-10511650D01*
X8012610Y-10511650D02*
X8041182Y-10511650D01*
X8041182Y-10511650D02*
X8060230Y-10521174D01*
X8060230Y-10521174D02*
X8069753Y-10530698D01*
X8069753Y-10530698D02*
X8079277Y-10549746D01*
X8079277Y-10549746D02*
X8079277Y-10606889D01*
X8079277Y-10606889D02*
X8069753Y-10625936D01*
X8069753Y-10625936D02*
X8060230Y-10635460D01*
X8060230Y-10635460D02*
X8041182Y-10644984D01*
X8041182Y-10644984D02*
X8012610Y-10644984D01*
X8193563Y-10644984D02*
X8174515Y-10635460D01*
X8174515Y-10635460D02*
X8164991Y-10616412D01*
X8164991Y-10616412D02*
X8164991Y-10444984D01*
X8345944Y-10635460D02*
X8326896Y-10644984D01*
X8326896Y-10644984D02*
X8288801Y-10644984D01*
X8288801Y-10644984D02*
X8269753Y-10635460D01*
X8269753Y-10635460D02*
X8260230Y-10616412D01*
X8260230Y-10616412D02*
X8260230Y-10540222D01*
X8260230Y-10540222D02*
X8269753Y-10521174D01*
X8269753Y-10521174D02*
X8288801Y-10511650D01*
X8288801Y-10511650D02*
X8326896Y-10511650D01*
X8326896Y-10511650D02*
X8345944Y-10521174D01*
X8345944Y-10521174D02*
X8355468Y-10540222D01*
X8355468Y-10540222D02*
X8355468Y-10559270D01*
X8355468Y-10559270D02*
X8260230Y-10578317D01*
X8431658Y-10635460D02*
X8450706Y-10644984D01*
X8450706Y-10644984D02*
X8488801Y-10644984D01*
X8488801Y-10644984D02*
X8507849Y-10635460D01*
X8507849Y-10635460D02*
X8517373Y-10616412D01*
X8517373Y-10616412D02*
X8517373Y-10606889D01*
X8517373Y-10606889D02*
X8507849Y-10587841D01*
X8507849Y-10587841D02*
X8488801Y-10578317D01*
X8488801Y-10578317D02*
X8460230Y-10578317D01*
X8460230Y-10578317D02*
X8441182Y-10568793D01*
X8441182Y-10568793D02*
X8431658Y-10549746D01*
X8431658Y-10549746D02*
X8431658Y-10540222D01*
X8431658Y-10540222D02*
X8441182Y-10521174D01*
X8441182Y-10521174D02*
X8460230Y-10511650D01*
X8460230Y-10511650D02*
X8488801Y-10511650D01*
X8488801Y-10511650D02*
X8507849Y-10521174D01*
X8584039Y-10721174D02*
X8593563Y-10711650D01*
X8593563Y-10711650D02*
X8612611Y-10683079D01*
X8612611Y-10683079D02*
X8622134Y-10664031D01*
X8622134Y-10664031D02*
X8631658Y-10635460D01*
X8631658Y-10635460D02*
X8641182Y-10587841D01*
X8641182Y-10587841D02*
X8641182Y-10549746D01*
X8641182Y-10549746D02*
X8631658Y-10502127D01*
X8631658Y-10502127D02*
X8622134Y-10473555D01*
X8622134Y-10473555D02*
X8612611Y-10454508D01*
X8612611Y-10454508D02*
X8593563Y-10425936D01*
X8593563Y-10425936D02*
X8584039Y-10416412D01*
D12*
X3618500Y-10817500D02*
G75*
G02*
X3528500Y-10817500I-45000J0D01*
G01*
X3528500Y-10817500D02*
G75*
G02*
X3618500Y-10817500I45000J0D01*
G01*
D11*
X3917372Y-10708984D02*
X3936420Y-10708984D01*
X3936420Y-10708984D02*
X3955467Y-10718508D01*
X3955467Y-10718508D02*
X3964991Y-10728031D01*
X3964991Y-10728031D02*
X3974515Y-10747079D01*
X3974515Y-10747079D02*
X3984039Y-10785174D01*
X3984039Y-10785174D02*
X3984039Y-10832793D01*
X3984039Y-10832793D02*
X3974515Y-10870889D01*
X3974515Y-10870889D02*
X3964991Y-10889936D01*
X3964991Y-10889936D02*
X3955467Y-10899460D01*
X3955467Y-10899460D02*
X3936420Y-10908984D01*
X3936420Y-10908984D02*
X3917372Y-10908984D01*
X3917372Y-10908984D02*
X3898324Y-10899460D01*
X3898324Y-10899460D02*
X3888801Y-10889936D01*
X3888801Y-10889936D02*
X3879277Y-10870889D01*
X3879277Y-10870889D02*
X3869753Y-10832793D01*
X3869753Y-10832793D02*
X3869753Y-10785174D01*
X3869753Y-10785174D02*
X3879277Y-10747079D01*
X3879277Y-10747079D02*
X3888801Y-10728031D01*
X3888801Y-10728031D02*
X3898324Y-10718508D01*
X3898324Y-10718508D02*
X3917372Y-10708984D01*
X4069753Y-10889936D02*
X4079277Y-10899460D01*
X4079277Y-10899460D02*
X4069753Y-10908984D01*
X4069753Y-10908984D02*
X4060229Y-10899460D01*
X4060229Y-10899460D02*
X4069753Y-10889936D01*
X4069753Y-10889936D02*
X4069753Y-10908984D01*
X4174515Y-10908984D02*
X4212610Y-10908984D01*
X4212610Y-10908984D02*
X4231658Y-10899460D01*
X4231658Y-10899460D02*
X4241182Y-10889936D01*
X4241182Y-10889936D02*
X4260229Y-10861365D01*
X4260229Y-10861365D02*
X4269753Y-10823270D01*
X4269753Y-10823270D02*
X4269753Y-10747079D01*
X4269753Y-10747079D02*
X4260229Y-10728031D01*
X4260229Y-10728031D02*
X4250705Y-10718508D01*
X4250705Y-10718508D02*
X4231658Y-10708984D01*
X4231658Y-10708984D02*
X4193562Y-10708984D01*
X4193562Y-10708984D02*
X4174515Y-10718508D01*
X4174515Y-10718508D02*
X4164991Y-10728031D01*
X4164991Y-10728031D02*
X4155467Y-10747079D01*
X4155467Y-10747079D02*
X4155467Y-10794698D01*
X4155467Y-10794698D02*
X4164991Y-10813746D01*
X4164991Y-10813746D02*
X4174515Y-10823270D01*
X4174515Y-10823270D02*
X4193562Y-10832793D01*
X4193562Y-10832793D02*
X4231658Y-10832793D01*
X4231658Y-10832793D02*
X4250705Y-10823270D01*
X4250705Y-10823270D02*
X4260229Y-10813746D01*
X4260229Y-10813746D02*
X4269753Y-10794698D01*
X4393563Y-10708984D02*
X4412610Y-10708984D01*
X4412610Y-10708984D02*
X4431658Y-10718508D01*
X4431658Y-10718508D02*
X4441182Y-10728031D01*
X4441182Y-10728031D02*
X4450705Y-10747079D01*
X4450705Y-10747079D02*
X4460229Y-10785174D01*
X4460229Y-10785174D02*
X4460229Y-10832793D01*
X4460229Y-10832793D02*
X4450705Y-10870889D01*
X4450705Y-10870889D02*
X4441182Y-10889936D01*
X4441182Y-10889936D02*
X4431658Y-10899460D01*
X4431658Y-10899460D02*
X4412610Y-10908984D01*
X4412610Y-10908984D02*
X4393563Y-10908984D01*
X4393563Y-10908984D02*
X4374515Y-10899460D01*
X4374515Y-10899460D02*
X4364991Y-10889936D01*
X4364991Y-10889936D02*
X4355467Y-10870889D01*
X4355467Y-10870889D02*
X4345944Y-10832793D01*
X4345944Y-10832793D02*
X4345944Y-10785174D01*
X4345944Y-10785174D02*
X4355467Y-10747079D01*
X4355467Y-10747079D02*
X4364991Y-10728031D01*
X4364991Y-10728031D02*
X4374515Y-10718508D01*
X4374515Y-10718508D02*
X4393563Y-10708984D01*
X4584039Y-10708984D02*
X4603086Y-10708984D01*
X4603086Y-10708984D02*
X4622134Y-10718508D01*
X4622134Y-10718508D02*
X4631658Y-10728031D01*
X4631658Y-10728031D02*
X4641182Y-10747079D01*
X4641182Y-10747079D02*
X4650705Y-10785174D01*
X4650705Y-10785174D02*
X4650705Y-10832793D01*
X4650705Y-10832793D02*
X4641182Y-10870889D01*
X4641182Y-10870889D02*
X4631658Y-10889936D01*
X4631658Y-10889936D02*
X4622134Y-10899460D01*
X4622134Y-10899460D02*
X4603086Y-10908984D01*
X4603086Y-10908984D02*
X4584039Y-10908984D01*
X4584039Y-10908984D02*
X4564991Y-10899460D01*
X4564991Y-10899460D02*
X4555467Y-10889936D01*
X4555467Y-10889936D02*
X4545944Y-10870889D01*
X4545944Y-10870889D02*
X4536420Y-10832793D01*
X4536420Y-10832793D02*
X4536420Y-10785174D01*
X4536420Y-10785174D02*
X4545944Y-10747079D01*
X4545944Y-10747079D02*
X4555467Y-10728031D01*
X4555467Y-10728031D02*
X4564991Y-10718508D01*
X4564991Y-10718508D02*
X4584039Y-10708984D01*
X4736420Y-10908984D02*
X4736420Y-10775650D01*
X4736420Y-10794698D02*
X4745944Y-10785174D01*
X4745944Y-10785174D02*
X4764991Y-10775650D01*
X4764991Y-10775650D02*
X4793563Y-10775650D01*
X4793563Y-10775650D02*
X4812610Y-10785174D01*
X4812610Y-10785174D02*
X4822134Y-10804222D01*
X4822134Y-10804222D02*
X4822134Y-10908984D01*
X4822134Y-10804222D02*
X4831658Y-10785174D01*
X4831658Y-10785174D02*
X4850705Y-10775650D01*
X4850705Y-10775650D02*
X4879277Y-10775650D01*
X4879277Y-10775650D02*
X4898325Y-10785174D01*
X4898325Y-10785174D02*
X4907848Y-10804222D01*
X4907848Y-10804222D02*
X4907848Y-10908984D01*
X5003086Y-10908984D02*
X5003086Y-10775650D01*
X5003086Y-10794698D02*
X5012610Y-10785174D01*
X5012610Y-10785174D02*
X5031658Y-10775650D01*
X5031658Y-10775650D02*
X5060229Y-10775650D01*
X5060229Y-10775650D02*
X5079277Y-10785174D01*
X5079277Y-10785174D02*
X5088801Y-10804222D01*
X5088801Y-10804222D02*
X5088801Y-10908984D01*
X5088801Y-10804222D02*
X5098325Y-10785174D01*
X5098325Y-10785174D02*
X5117372Y-10775650D01*
X5117372Y-10775650D02*
X5145944Y-10775650D01*
X5145944Y-10775650D02*
X5164991Y-10785174D01*
X5164991Y-10785174D02*
X5174515Y-10804222D01*
X5174515Y-10804222D02*
X5174515Y-10908984D01*
X5564991Y-10699460D02*
X5393563Y-10956603D01*
X5822134Y-10708984D02*
X5841182Y-10708984D01*
X5841182Y-10708984D02*
X5860229Y-10718508D01*
X5860229Y-10718508D02*
X5869753Y-10728031D01*
X5869753Y-10728031D02*
X5879277Y-10747079D01*
X5879277Y-10747079D02*
X5888801Y-10785174D01*
X5888801Y-10785174D02*
X5888801Y-10832793D01*
X5888801Y-10832793D02*
X5879277Y-10870889D01*
X5879277Y-10870889D02*
X5869753Y-10889936D01*
X5869753Y-10889936D02*
X5860229Y-10899460D01*
X5860229Y-10899460D02*
X5841182Y-10908984D01*
X5841182Y-10908984D02*
X5822134Y-10908984D01*
X5822134Y-10908984D02*
X5803086Y-10899460D01*
X5803086Y-10899460D02*
X5793563Y-10889936D01*
X5793563Y-10889936D02*
X5784039Y-10870889D01*
X5784039Y-10870889D02*
X5774515Y-10832793D01*
X5774515Y-10832793D02*
X5774515Y-10785174D01*
X5774515Y-10785174D02*
X5784039Y-10747079D01*
X5784039Y-10747079D02*
X5793563Y-10728031D01*
X5793563Y-10728031D02*
X5803086Y-10718508D01*
X5803086Y-10718508D02*
X5822134Y-10708984D01*
X5974515Y-10889936D02*
X5984039Y-10899460D01*
X5984039Y-10899460D02*
X5974515Y-10908984D01*
X5974515Y-10908984D02*
X5964991Y-10899460D01*
X5964991Y-10899460D02*
X5974515Y-10889936D01*
X5974515Y-10889936D02*
X5974515Y-10908984D01*
X6107848Y-10708984D02*
X6126896Y-10708984D01*
X6126896Y-10708984D02*
X6145944Y-10718508D01*
X6145944Y-10718508D02*
X6155467Y-10728031D01*
X6155467Y-10728031D02*
X6164991Y-10747079D01*
X6164991Y-10747079D02*
X6174515Y-10785174D01*
X6174515Y-10785174D02*
X6174515Y-10832793D01*
X6174515Y-10832793D02*
X6164991Y-10870889D01*
X6164991Y-10870889D02*
X6155467Y-10889936D01*
X6155467Y-10889936D02*
X6145944Y-10899460D01*
X6145944Y-10899460D02*
X6126896Y-10908984D01*
X6126896Y-10908984D02*
X6107848Y-10908984D01*
X6107848Y-10908984D02*
X6088801Y-10899460D01*
X6088801Y-10899460D02*
X6079277Y-10889936D01*
X6079277Y-10889936D02*
X6069753Y-10870889D01*
X6069753Y-10870889D02*
X6060229Y-10832793D01*
X6060229Y-10832793D02*
X6060229Y-10785174D01*
X6060229Y-10785174D02*
X6069753Y-10747079D01*
X6069753Y-10747079D02*
X6079277Y-10728031D01*
X6079277Y-10728031D02*
X6088801Y-10718508D01*
X6088801Y-10718508D02*
X6107848Y-10708984D01*
X6241182Y-10708984D02*
X6364991Y-10708984D01*
X6364991Y-10708984D02*
X6298325Y-10785174D01*
X6298325Y-10785174D02*
X6326896Y-10785174D01*
X6326896Y-10785174D02*
X6345944Y-10794698D01*
X6345944Y-10794698D02*
X6355467Y-10804222D01*
X6355467Y-10804222D02*
X6364991Y-10823270D01*
X6364991Y-10823270D02*
X6364991Y-10870889D01*
X6364991Y-10870889D02*
X6355467Y-10889936D01*
X6355467Y-10889936D02*
X6345944Y-10899460D01*
X6345944Y-10899460D02*
X6326896Y-10908984D01*
X6326896Y-10908984D02*
X6269753Y-10908984D01*
X6269753Y-10908984D02*
X6250706Y-10899460D01*
X6250706Y-10899460D02*
X6241182Y-10889936D01*
X6545944Y-10708984D02*
X6450706Y-10708984D01*
X6450706Y-10708984D02*
X6441182Y-10804222D01*
X6441182Y-10804222D02*
X6450706Y-10794698D01*
X6450706Y-10794698D02*
X6469753Y-10785174D01*
X6469753Y-10785174D02*
X6517372Y-10785174D01*
X6517372Y-10785174D02*
X6536420Y-10794698D01*
X6536420Y-10794698D02*
X6545944Y-10804222D01*
X6545944Y-10804222D02*
X6555467Y-10823270D01*
X6555467Y-10823270D02*
X6555467Y-10870889D01*
X6555467Y-10870889D02*
X6545944Y-10889936D01*
X6545944Y-10889936D02*
X6536420Y-10899460D01*
X6536420Y-10899460D02*
X6517372Y-10908984D01*
X6517372Y-10908984D02*
X6469753Y-10908984D01*
X6469753Y-10908984D02*
X6450706Y-10899460D01*
X6450706Y-10899460D02*
X6441182Y-10889936D01*
X6726896Y-10775650D02*
X6726896Y-10908984D01*
X6679277Y-10699460D02*
X6631658Y-10842317D01*
X6631658Y-10842317D02*
X6755467Y-10842317D01*
X6822134Y-10708984D02*
X6822134Y-10747079D01*
X6898325Y-10708984D02*
X6898325Y-10747079D01*
X7193563Y-10985174D02*
X7184039Y-10975650D01*
X7184039Y-10975650D02*
X7164991Y-10947079D01*
X7164991Y-10947079D02*
X7155468Y-10928031D01*
X7155468Y-10928031D02*
X7145944Y-10899460D01*
X7145944Y-10899460D02*
X7136420Y-10851841D01*
X7136420Y-10851841D02*
X7136420Y-10813746D01*
X7136420Y-10813746D02*
X7145944Y-10766127D01*
X7145944Y-10766127D02*
X7155468Y-10737555D01*
X7155468Y-10737555D02*
X7164991Y-10718508D01*
X7164991Y-10718508D02*
X7184039Y-10689936D01*
X7184039Y-10689936D02*
X7193563Y-10680412D01*
X7355468Y-10708984D02*
X7317372Y-10708984D01*
X7317372Y-10708984D02*
X7298325Y-10718508D01*
X7298325Y-10718508D02*
X7288801Y-10728031D01*
X7288801Y-10728031D02*
X7269753Y-10756603D01*
X7269753Y-10756603D02*
X7260229Y-10794698D01*
X7260229Y-10794698D02*
X7260229Y-10870889D01*
X7260229Y-10870889D02*
X7269753Y-10889936D01*
X7269753Y-10889936D02*
X7279277Y-10899460D01*
X7279277Y-10899460D02*
X7298325Y-10908984D01*
X7298325Y-10908984D02*
X7336420Y-10908984D01*
X7336420Y-10908984D02*
X7355468Y-10899460D01*
X7355468Y-10899460D02*
X7364991Y-10889936D01*
X7364991Y-10889936D02*
X7374515Y-10870889D01*
X7374515Y-10870889D02*
X7374515Y-10823270D01*
X7374515Y-10823270D02*
X7364991Y-10804222D01*
X7364991Y-10804222D02*
X7355468Y-10794698D01*
X7355468Y-10794698D02*
X7336420Y-10785174D01*
X7336420Y-10785174D02*
X7298325Y-10785174D01*
X7298325Y-10785174D02*
X7279277Y-10794698D01*
X7279277Y-10794698D02*
X7269753Y-10804222D01*
X7269753Y-10804222D02*
X7260229Y-10823270D01*
X7612610Y-10908984D02*
X7612610Y-10708984D01*
X7698325Y-10908984D02*
X7698325Y-10804222D01*
X7698325Y-10804222D02*
X7688801Y-10785174D01*
X7688801Y-10785174D02*
X7669753Y-10775650D01*
X7669753Y-10775650D02*
X7641182Y-10775650D01*
X7641182Y-10775650D02*
X7622134Y-10785174D01*
X7622134Y-10785174D02*
X7612610Y-10794698D01*
X7822134Y-10908984D02*
X7803087Y-10899460D01*
X7803087Y-10899460D02*
X7793563Y-10889936D01*
X7793563Y-10889936D02*
X7784039Y-10870889D01*
X7784039Y-10870889D02*
X7784039Y-10813746D01*
X7784039Y-10813746D02*
X7793563Y-10794698D01*
X7793563Y-10794698D02*
X7803087Y-10785174D01*
X7803087Y-10785174D02*
X7822134Y-10775650D01*
X7822134Y-10775650D02*
X7850706Y-10775650D01*
X7850706Y-10775650D02*
X7869753Y-10785174D01*
X7869753Y-10785174D02*
X7879277Y-10794698D01*
X7879277Y-10794698D02*
X7888801Y-10813746D01*
X7888801Y-10813746D02*
X7888801Y-10870889D01*
X7888801Y-10870889D02*
X7879277Y-10889936D01*
X7879277Y-10889936D02*
X7869753Y-10899460D01*
X7869753Y-10899460D02*
X7850706Y-10908984D01*
X7850706Y-10908984D02*
X7822134Y-10908984D01*
X8003087Y-10908984D02*
X7984039Y-10899460D01*
X7984039Y-10899460D02*
X7974515Y-10880412D01*
X7974515Y-10880412D02*
X7974515Y-10708984D01*
X8155468Y-10899460D02*
X8136420Y-10908984D01*
X8136420Y-10908984D02*
X8098325Y-10908984D01*
X8098325Y-10908984D02*
X8079277Y-10899460D01*
X8079277Y-10899460D02*
X8069753Y-10880412D01*
X8069753Y-10880412D02*
X8069753Y-10804222D01*
X8069753Y-10804222D02*
X8079277Y-10785174D01*
X8079277Y-10785174D02*
X8098325Y-10775650D01*
X8098325Y-10775650D02*
X8136420Y-10775650D01*
X8136420Y-10775650D02*
X8155468Y-10785174D01*
X8155468Y-10785174D02*
X8164991Y-10804222D01*
X8164991Y-10804222D02*
X8164991Y-10823270D01*
X8164991Y-10823270D02*
X8069753Y-10842317D01*
X8241182Y-10899460D02*
X8260230Y-10908984D01*
X8260230Y-10908984D02*
X8298325Y-10908984D01*
X8298325Y-10908984D02*
X8317372Y-10899460D01*
X8317372Y-10899460D02*
X8326896Y-10880412D01*
X8326896Y-10880412D02*
X8326896Y-10870889D01*
X8326896Y-10870889D02*
X8317372Y-10851841D01*
X8317372Y-10851841D02*
X8298325Y-10842317D01*
X8298325Y-10842317D02*
X8269753Y-10842317D01*
X8269753Y-10842317D02*
X8250706Y-10832793D01*
X8250706Y-10832793D02*
X8241182Y-10813746D01*
X8241182Y-10813746D02*
X8241182Y-10804222D01*
X8241182Y-10804222D02*
X8250706Y-10785174D01*
X8250706Y-10785174D02*
X8269753Y-10775650D01*
X8269753Y-10775650D02*
X8298325Y-10775650D01*
X8298325Y-10775650D02*
X8317372Y-10785174D01*
X8393563Y-10985174D02*
X8403087Y-10975650D01*
X8403087Y-10975650D02*
X8422134Y-10947079D01*
X8422134Y-10947079D02*
X8431658Y-10928031D01*
X8431658Y-10928031D02*
X8441182Y-10899460D01*
X8441182Y-10899460D02*
X8450706Y-10851841D01*
X8450706Y-10851841D02*
X8450706Y-10813746D01*
X8450706Y-10813746D02*
X8441182Y-10766127D01*
X8441182Y-10766127D02*
X8431658Y-10737555D01*
X8431658Y-10737555D02*
X8422134Y-10718508D01*
X8422134Y-10718508D02*
X8403087Y-10689936D01*
X8403087Y-10689936D02*
X8393563Y-10680412D01*
D12*
X3568500Y-11031500D02*
X3568500Y-11131500D01*
X3518500Y-11081500D02*
X3618500Y-11081500D01*
D11*
X3984039Y-11172984D02*
X3869753Y-11172984D01*
X3926896Y-11172984D02*
X3926896Y-10972984D01*
X3926896Y-10972984D02*
X3907848Y-11001555D01*
X3907848Y-11001555D02*
X3888801Y-11020603D01*
X3888801Y-11020603D02*
X3869753Y-11030127D01*
X4069753Y-11153936D02*
X4079277Y-11163460D01*
X4079277Y-11163460D02*
X4069753Y-11172984D01*
X4069753Y-11172984D02*
X4060229Y-11163460D01*
X4060229Y-11163460D02*
X4069753Y-11153936D01*
X4069753Y-11153936D02*
X4069753Y-11172984D01*
X4203086Y-10972984D02*
X4222134Y-10972984D01*
X4222134Y-10972984D02*
X4241182Y-10982508D01*
X4241182Y-10982508D02*
X4250705Y-10992031D01*
X4250705Y-10992031D02*
X4260229Y-11011079D01*
X4260229Y-11011079D02*
X4269753Y-11049174D01*
X4269753Y-11049174D02*
X4269753Y-11096793D01*
X4269753Y-11096793D02*
X4260229Y-11134889D01*
X4260229Y-11134889D02*
X4250705Y-11153936D01*
X4250705Y-11153936D02*
X4241182Y-11163460D01*
X4241182Y-11163460D02*
X4222134Y-11172984D01*
X4222134Y-11172984D02*
X4203086Y-11172984D01*
X4203086Y-11172984D02*
X4184039Y-11163460D01*
X4184039Y-11163460D02*
X4174515Y-11153936D01*
X4174515Y-11153936D02*
X4164991Y-11134889D01*
X4164991Y-11134889D02*
X4155467Y-11096793D01*
X4155467Y-11096793D02*
X4155467Y-11049174D01*
X4155467Y-11049174D02*
X4164991Y-11011079D01*
X4164991Y-11011079D02*
X4174515Y-10992031D01*
X4174515Y-10992031D02*
X4184039Y-10982508D01*
X4184039Y-10982508D02*
X4203086Y-10972984D01*
X4393563Y-10972984D02*
X4412610Y-10972984D01*
X4412610Y-10972984D02*
X4431658Y-10982508D01*
X4431658Y-10982508D02*
X4441182Y-10992031D01*
X4441182Y-10992031D02*
X4450705Y-11011079D01*
X4450705Y-11011079D02*
X4460229Y-11049174D01*
X4460229Y-11049174D02*
X4460229Y-11096793D01*
X4460229Y-11096793D02*
X4450705Y-11134889D01*
X4450705Y-11134889D02*
X4441182Y-11153936D01*
X4441182Y-11153936D02*
X4431658Y-11163460D01*
X4431658Y-11163460D02*
X4412610Y-11172984D01*
X4412610Y-11172984D02*
X4393563Y-11172984D01*
X4393563Y-11172984D02*
X4374515Y-11163460D01*
X4374515Y-11163460D02*
X4364991Y-11153936D01*
X4364991Y-11153936D02*
X4355467Y-11134889D01*
X4355467Y-11134889D02*
X4345944Y-11096793D01*
X4345944Y-11096793D02*
X4345944Y-11049174D01*
X4345944Y-11049174D02*
X4355467Y-11011079D01*
X4355467Y-11011079D02*
X4364991Y-10992031D01*
X4364991Y-10992031D02*
X4374515Y-10982508D01*
X4374515Y-10982508D02*
X4393563Y-10972984D01*
X4584039Y-10972984D02*
X4603086Y-10972984D01*
X4603086Y-10972984D02*
X4622134Y-10982508D01*
X4622134Y-10982508D02*
X4631658Y-10992031D01*
X4631658Y-10992031D02*
X4641182Y-11011079D01*
X4641182Y-11011079D02*
X4650705Y-11049174D01*
X4650705Y-11049174D02*
X4650705Y-11096793D01*
X4650705Y-11096793D02*
X4641182Y-11134889D01*
X4641182Y-11134889D02*
X4631658Y-11153936D01*
X4631658Y-11153936D02*
X4622134Y-11163460D01*
X4622134Y-11163460D02*
X4603086Y-11172984D01*
X4603086Y-11172984D02*
X4584039Y-11172984D01*
X4584039Y-11172984D02*
X4564991Y-11163460D01*
X4564991Y-11163460D02*
X4555467Y-11153936D01*
X4555467Y-11153936D02*
X4545944Y-11134889D01*
X4545944Y-11134889D02*
X4536420Y-11096793D01*
X4536420Y-11096793D02*
X4536420Y-11049174D01*
X4536420Y-11049174D02*
X4545944Y-11011079D01*
X4545944Y-11011079D02*
X4555467Y-10992031D01*
X4555467Y-10992031D02*
X4564991Y-10982508D01*
X4564991Y-10982508D02*
X4584039Y-10972984D01*
X4736420Y-11172984D02*
X4736420Y-11039650D01*
X4736420Y-11058698D02*
X4745944Y-11049174D01*
X4745944Y-11049174D02*
X4764991Y-11039650D01*
X4764991Y-11039650D02*
X4793563Y-11039650D01*
X4793563Y-11039650D02*
X4812610Y-11049174D01*
X4812610Y-11049174D02*
X4822134Y-11068222D01*
X4822134Y-11068222D02*
X4822134Y-11172984D01*
X4822134Y-11068222D02*
X4831658Y-11049174D01*
X4831658Y-11049174D02*
X4850705Y-11039650D01*
X4850705Y-11039650D02*
X4879277Y-11039650D01*
X4879277Y-11039650D02*
X4898325Y-11049174D01*
X4898325Y-11049174D02*
X4907848Y-11068222D01*
X4907848Y-11068222D02*
X4907848Y-11172984D01*
X5003086Y-11172984D02*
X5003086Y-11039650D01*
X5003086Y-11058698D02*
X5012610Y-11049174D01*
X5012610Y-11049174D02*
X5031658Y-11039650D01*
X5031658Y-11039650D02*
X5060229Y-11039650D01*
X5060229Y-11039650D02*
X5079277Y-11049174D01*
X5079277Y-11049174D02*
X5088801Y-11068222D01*
X5088801Y-11068222D02*
X5088801Y-11172984D01*
X5088801Y-11068222D02*
X5098325Y-11049174D01*
X5098325Y-11049174D02*
X5117372Y-11039650D01*
X5117372Y-11039650D02*
X5145944Y-11039650D01*
X5145944Y-11039650D02*
X5164991Y-11049174D01*
X5164991Y-11049174D02*
X5174515Y-11068222D01*
X5174515Y-11068222D02*
X5174515Y-11172984D01*
X5564991Y-10963460D02*
X5393563Y-11220603D01*
X5822134Y-10972984D02*
X5841182Y-10972984D01*
X5841182Y-10972984D02*
X5860229Y-10982508D01*
X5860229Y-10982508D02*
X5869753Y-10992031D01*
X5869753Y-10992031D02*
X5879277Y-11011079D01*
X5879277Y-11011079D02*
X5888801Y-11049174D01*
X5888801Y-11049174D02*
X5888801Y-11096793D01*
X5888801Y-11096793D02*
X5879277Y-11134889D01*
X5879277Y-11134889D02*
X5869753Y-11153936D01*
X5869753Y-11153936D02*
X5860229Y-11163460D01*
X5860229Y-11163460D02*
X5841182Y-11172984D01*
X5841182Y-11172984D02*
X5822134Y-11172984D01*
X5822134Y-11172984D02*
X5803086Y-11163460D01*
X5803086Y-11163460D02*
X5793563Y-11153936D01*
X5793563Y-11153936D02*
X5784039Y-11134889D01*
X5784039Y-11134889D02*
X5774515Y-11096793D01*
X5774515Y-11096793D02*
X5774515Y-11049174D01*
X5774515Y-11049174D02*
X5784039Y-11011079D01*
X5784039Y-11011079D02*
X5793563Y-10992031D01*
X5793563Y-10992031D02*
X5803086Y-10982508D01*
X5803086Y-10982508D02*
X5822134Y-10972984D01*
X5974515Y-11153936D02*
X5984039Y-11163460D01*
X5984039Y-11163460D02*
X5974515Y-11172984D01*
X5974515Y-11172984D02*
X5964991Y-11163460D01*
X5964991Y-11163460D02*
X5974515Y-11153936D01*
X5974515Y-11153936D02*
X5974515Y-11172984D01*
X6107848Y-10972984D02*
X6126896Y-10972984D01*
X6126896Y-10972984D02*
X6145944Y-10982508D01*
X6145944Y-10982508D02*
X6155467Y-10992031D01*
X6155467Y-10992031D02*
X6164991Y-11011079D01*
X6164991Y-11011079D02*
X6174515Y-11049174D01*
X6174515Y-11049174D02*
X6174515Y-11096793D01*
X6174515Y-11096793D02*
X6164991Y-11134889D01*
X6164991Y-11134889D02*
X6155467Y-11153936D01*
X6155467Y-11153936D02*
X6145944Y-11163460D01*
X6145944Y-11163460D02*
X6126896Y-11172984D01*
X6126896Y-11172984D02*
X6107848Y-11172984D01*
X6107848Y-11172984D02*
X6088801Y-11163460D01*
X6088801Y-11163460D02*
X6079277Y-11153936D01*
X6079277Y-11153936D02*
X6069753Y-11134889D01*
X6069753Y-11134889D02*
X6060229Y-11096793D01*
X6060229Y-11096793D02*
X6060229Y-11049174D01*
X6060229Y-11049174D02*
X6069753Y-11011079D01*
X6069753Y-11011079D02*
X6079277Y-10992031D01*
X6079277Y-10992031D02*
X6088801Y-10982508D01*
X6088801Y-10982508D02*
X6107848Y-10972984D01*
X6241182Y-10972984D02*
X6364991Y-10972984D01*
X6364991Y-10972984D02*
X6298325Y-11049174D01*
X6298325Y-11049174D02*
X6326896Y-11049174D01*
X6326896Y-11049174D02*
X6345944Y-11058698D01*
X6345944Y-11058698D02*
X6355467Y-11068222D01*
X6355467Y-11068222D02*
X6364991Y-11087270D01*
X6364991Y-11087270D02*
X6364991Y-11134889D01*
X6364991Y-11134889D02*
X6355467Y-11153936D01*
X6355467Y-11153936D02*
X6345944Y-11163460D01*
X6345944Y-11163460D02*
X6326896Y-11172984D01*
X6326896Y-11172984D02*
X6269753Y-11172984D01*
X6269753Y-11172984D02*
X6250706Y-11163460D01*
X6250706Y-11163460D02*
X6241182Y-11153936D01*
X6460229Y-11172984D02*
X6498325Y-11172984D01*
X6498325Y-11172984D02*
X6517372Y-11163460D01*
X6517372Y-11163460D02*
X6526896Y-11153936D01*
X6526896Y-11153936D02*
X6545944Y-11125365D01*
X6545944Y-11125365D02*
X6555467Y-11087270D01*
X6555467Y-11087270D02*
X6555467Y-11011079D01*
X6555467Y-11011079D02*
X6545944Y-10992031D01*
X6545944Y-10992031D02*
X6536420Y-10982508D01*
X6536420Y-10982508D02*
X6517372Y-10972984D01*
X6517372Y-10972984D02*
X6479277Y-10972984D01*
X6479277Y-10972984D02*
X6460229Y-10982508D01*
X6460229Y-10982508D02*
X6450706Y-10992031D01*
X6450706Y-10992031D02*
X6441182Y-11011079D01*
X6441182Y-11011079D02*
X6441182Y-11058698D01*
X6441182Y-11058698D02*
X6450706Y-11077746D01*
X6450706Y-11077746D02*
X6460229Y-11087270D01*
X6460229Y-11087270D02*
X6479277Y-11096793D01*
X6479277Y-11096793D02*
X6517372Y-11096793D01*
X6517372Y-11096793D02*
X6536420Y-11087270D01*
X6536420Y-11087270D02*
X6545944Y-11077746D01*
X6545944Y-11077746D02*
X6555467Y-11058698D01*
X6726896Y-11039650D02*
X6726896Y-11172984D01*
X6679277Y-10963460D02*
X6631658Y-11106317D01*
X6631658Y-11106317D02*
X6755467Y-11106317D01*
X6822134Y-10972984D02*
X6822134Y-11011079D01*
X6898325Y-10972984D02*
X6898325Y-11011079D01*
X7193563Y-11249174D02*
X7184039Y-11239650D01*
X7184039Y-11239650D02*
X7164991Y-11211079D01*
X7164991Y-11211079D02*
X7155468Y-11192031D01*
X7155468Y-11192031D02*
X7145944Y-11163460D01*
X7145944Y-11163460D02*
X7136420Y-11115841D01*
X7136420Y-11115841D02*
X7136420Y-11077746D01*
X7136420Y-11077746D02*
X7145944Y-11030127D01*
X7145944Y-11030127D02*
X7155468Y-11001555D01*
X7155468Y-11001555D02*
X7164991Y-10982508D01*
X7164991Y-10982508D02*
X7184039Y-10953936D01*
X7184039Y-10953936D02*
X7193563Y-10944412D01*
X7250706Y-10972984D02*
X7384039Y-10972984D01*
X7384039Y-10972984D02*
X7298325Y-11172984D01*
X7612610Y-11172984D02*
X7612610Y-10972984D01*
X7698325Y-11172984D02*
X7698325Y-11068222D01*
X7698325Y-11068222D02*
X7688801Y-11049174D01*
X7688801Y-11049174D02*
X7669753Y-11039650D01*
X7669753Y-11039650D02*
X7641182Y-11039650D01*
X7641182Y-11039650D02*
X7622134Y-11049174D01*
X7622134Y-11049174D02*
X7612610Y-11058698D01*
X7822134Y-11172984D02*
X7803087Y-11163460D01*
X7803087Y-11163460D02*
X7793563Y-11153936D01*
X7793563Y-11153936D02*
X7784039Y-11134889D01*
X7784039Y-11134889D02*
X7784039Y-11077746D01*
X7784039Y-11077746D02*
X7793563Y-11058698D01*
X7793563Y-11058698D02*
X7803087Y-11049174D01*
X7803087Y-11049174D02*
X7822134Y-11039650D01*
X7822134Y-11039650D02*
X7850706Y-11039650D01*
X7850706Y-11039650D02*
X7869753Y-11049174D01*
X7869753Y-11049174D02*
X7879277Y-11058698D01*
X7879277Y-11058698D02*
X7888801Y-11077746D01*
X7888801Y-11077746D02*
X7888801Y-11134889D01*
X7888801Y-11134889D02*
X7879277Y-11153936D01*
X7879277Y-11153936D02*
X7869753Y-11163460D01*
X7869753Y-11163460D02*
X7850706Y-11172984D01*
X7850706Y-11172984D02*
X7822134Y-11172984D01*
X8003087Y-11172984D02*
X7984039Y-11163460D01*
X7984039Y-11163460D02*
X7974515Y-11144412D01*
X7974515Y-11144412D02*
X7974515Y-10972984D01*
X8155468Y-11163460D02*
X8136420Y-11172984D01*
X8136420Y-11172984D02*
X8098325Y-11172984D01*
X8098325Y-11172984D02*
X8079277Y-11163460D01*
X8079277Y-11163460D02*
X8069753Y-11144412D01*
X8069753Y-11144412D02*
X8069753Y-11068222D01*
X8069753Y-11068222D02*
X8079277Y-11049174D01*
X8079277Y-11049174D02*
X8098325Y-11039650D01*
X8098325Y-11039650D02*
X8136420Y-11039650D01*
X8136420Y-11039650D02*
X8155468Y-11049174D01*
X8155468Y-11049174D02*
X8164991Y-11068222D01*
X8164991Y-11068222D02*
X8164991Y-11087270D01*
X8164991Y-11087270D02*
X8069753Y-11106317D01*
X8241182Y-11163460D02*
X8260230Y-11172984D01*
X8260230Y-11172984D02*
X8298325Y-11172984D01*
X8298325Y-11172984D02*
X8317372Y-11163460D01*
X8317372Y-11163460D02*
X8326896Y-11144412D01*
X8326896Y-11144412D02*
X8326896Y-11134889D01*
X8326896Y-11134889D02*
X8317372Y-11115841D01*
X8317372Y-11115841D02*
X8298325Y-11106317D01*
X8298325Y-11106317D02*
X8269753Y-11106317D01*
X8269753Y-11106317D02*
X8250706Y-11096793D01*
X8250706Y-11096793D02*
X8241182Y-11077746D01*
X8241182Y-11077746D02*
X8241182Y-11068222D01*
X8241182Y-11068222D02*
X8250706Y-11049174D01*
X8250706Y-11049174D02*
X8269753Y-11039650D01*
X8269753Y-11039650D02*
X8298325Y-11039650D01*
X8298325Y-11039650D02*
X8317372Y-11049174D01*
X8393563Y-11249174D02*
X8403087Y-11239650D01*
X8403087Y-11239650D02*
X8422134Y-11211079D01*
X8422134Y-11211079D02*
X8431658Y-11192031D01*
X8431658Y-11192031D02*
X8441182Y-11163460D01*
X8441182Y-11163460D02*
X8450706Y-11115841D01*
X8450706Y-11115841D02*
X8450706Y-11077746D01*
X8450706Y-11077746D02*
X8441182Y-11030127D01*
X8441182Y-11030127D02*
X8431658Y-11001555D01*
X8431658Y-11001555D02*
X8422134Y-10982508D01*
X8422134Y-10982508D02*
X8403087Y-10953936D01*
X8403087Y-10953936D02*
X8393563Y-10944412D01*
D13*
X3602391Y-11384391D02*
X3602391Y-11306609D01*
X3524609Y-11306609D01*
X3524609Y-11384391D01*
X3602391Y-11384391D01*
D11*
X3984039Y-11436984D02*
X3869753Y-11436984D01*
X3926896Y-11436984D02*
X3926896Y-11236984D01*
X3926896Y-11236984D02*
X3907848Y-11265555D01*
X3907848Y-11265555D02*
X3888801Y-11284603D01*
X3888801Y-11284603D02*
X3869753Y-11294127D01*
X4069753Y-11417936D02*
X4079277Y-11427460D01*
X4079277Y-11427460D02*
X4069753Y-11436984D01*
X4069753Y-11436984D02*
X4060229Y-11427460D01*
X4060229Y-11427460D02*
X4069753Y-11417936D01*
X4069753Y-11417936D02*
X4069753Y-11436984D01*
X4269753Y-11436984D02*
X4155467Y-11436984D01*
X4212610Y-11436984D02*
X4212610Y-11236984D01*
X4212610Y-11236984D02*
X4193562Y-11265555D01*
X4193562Y-11265555D02*
X4174515Y-11284603D01*
X4174515Y-11284603D02*
X4155467Y-11294127D01*
X4393563Y-11236984D02*
X4412610Y-11236984D01*
X4412610Y-11236984D02*
X4431658Y-11246508D01*
X4431658Y-11246508D02*
X4441182Y-11256031D01*
X4441182Y-11256031D02*
X4450705Y-11275079D01*
X4450705Y-11275079D02*
X4460229Y-11313174D01*
X4460229Y-11313174D02*
X4460229Y-11360793D01*
X4460229Y-11360793D02*
X4450705Y-11398888D01*
X4450705Y-11398888D02*
X4441182Y-11417936D01*
X4441182Y-11417936D02*
X4431658Y-11427460D01*
X4431658Y-11427460D02*
X4412610Y-11436984D01*
X4412610Y-11436984D02*
X4393563Y-11436984D01*
X4393563Y-11436984D02*
X4374515Y-11427460D01*
X4374515Y-11427460D02*
X4364991Y-11417936D01*
X4364991Y-11417936D02*
X4355467Y-11398888D01*
X4355467Y-11398888D02*
X4345944Y-11360793D01*
X4345944Y-11360793D02*
X4345944Y-11313174D01*
X4345944Y-11313174D02*
X4355467Y-11275079D01*
X4355467Y-11275079D02*
X4364991Y-11256031D01*
X4364991Y-11256031D02*
X4374515Y-11246508D01*
X4374515Y-11246508D02*
X4393563Y-11236984D01*
X4584039Y-11236984D02*
X4603086Y-11236984D01*
X4603086Y-11236984D02*
X4622134Y-11246508D01*
X4622134Y-11246508D02*
X4631658Y-11256031D01*
X4631658Y-11256031D02*
X4641182Y-11275079D01*
X4641182Y-11275079D02*
X4650705Y-11313174D01*
X4650705Y-11313174D02*
X4650705Y-11360793D01*
X4650705Y-11360793D02*
X4641182Y-11398888D01*
X4641182Y-11398888D02*
X4631658Y-11417936D01*
X4631658Y-11417936D02*
X4622134Y-11427460D01*
X4622134Y-11427460D02*
X4603086Y-11436984D01*
X4603086Y-11436984D02*
X4584039Y-11436984D01*
X4584039Y-11436984D02*
X4564991Y-11427460D01*
X4564991Y-11427460D02*
X4555467Y-11417936D01*
X4555467Y-11417936D02*
X4545944Y-11398888D01*
X4545944Y-11398888D02*
X4536420Y-11360793D01*
X4536420Y-11360793D02*
X4536420Y-11313174D01*
X4536420Y-11313174D02*
X4545944Y-11275079D01*
X4545944Y-11275079D02*
X4555467Y-11256031D01*
X4555467Y-11256031D02*
X4564991Y-11246508D01*
X4564991Y-11246508D02*
X4584039Y-11236984D01*
X4736420Y-11436984D02*
X4736420Y-11303650D01*
X4736420Y-11322698D02*
X4745944Y-11313174D01*
X4745944Y-11313174D02*
X4764991Y-11303650D01*
X4764991Y-11303650D02*
X4793563Y-11303650D01*
X4793563Y-11303650D02*
X4812610Y-11313174D01*
X4812610Y-11313174D02*
X4822134Y-11332222D01*
X4822134Y-11332222D02*
X4822134Y-11436984D01*
X4822134Y-11332222D02*
X4831658Y-11313174D01*
X4831658Y-11313174D02*
X4850705Y-11303650D01*
X4850705Y-11303650D02*
X4879277Y-11303650D01*
X4879277Y-11303650D02*
X4898325Y-11313174D01*
X4898325Y-11313174D02*
X4907848Y-11332222D01*
X4907848Y-11332222D02*
X4907848Y-11436984D01*
X5003086Y-11436984D02*
X5003086Y-11303650D01*
X5003086Y-11322698D02*
X5012610Y-11313174D01*
X5012610Y-11313174D02*
X5031658Y-11303650D01*
X5031658Y-11303650D02*
X5060229Y-11303650D01*
X5060229Y-11303650D02*
X5079277Y-11313174D01*
X5079277Y-11313174D02*
X5088801Y-11332222D01*
X5088801Y-11332222D02*
X5088801Y-11436984D01*
X5088801Y-11332222D02*
X5098325Y-11313174D01*
X5098325Y-11313174D02*
X5117372Y-11303650D01*
X5117372Y-11303650D02*
X5145944Y-11303650D01*
X5145944Y-11303650D02*
X5164991Y-11313174D01*
X5164991Y-11313174D02*
X5174515Y-11332222D01*
X5174515Y-11332222D02*
X5174515Y-11436984D01*
X5564991Y-11227460D02*
X5393563Y-11484603D01*
X5822134Y-11236984D02*
X5841182Y-11236984D01*
X5841182Y-11236984D02*
X5860229Y-11246508D01*
X5860229Y-11246508D02*
X5869753Y-11256031D01*
X5869753Y-11256031D02*
X5879277Y-11275079D01*
X5879277Y-11275079D02*
X5888801Y-11313174D01*
X5888801Y-11313174D02*
X5888801Y-11360793D01*
X5888801Y-11360793D02*
X5879277Y-11398888D01*
X5879277Y-11398888D02*
X5869753Y-11417936D01*
X5869753Y-11417936D02*
X5860229Y-11427460D01*
X5860229Y-11427460D02*
X5841182Y-11436984D01*
X5841182Y-11436984D02*
X5822134Y-11436984D01*
X5822134Y-11436984D02*
X5803086Y-11427460D01*
X5803086Y-11427460D02*
X5793563Y-11417936D01*
X5793563Y-11417936D02*
X5784039Y-11398888D01*
X5784039Y-11398888D02*
X5774515Y-11360793D01*
X5774515Y-11360793D02*
X5774515Y-11313174D01*
X5774515Y-11313174D02*
X5784039Y-11275079D01*
X5784039Y-11275079D02*
X5793563Y-11256031D01*
X5793563Y-11256031D02*
X5803086Y-11246508D01*
X5803086Y-11246508D02*
X5822134Y-11236984D01*
X5974515Y-11417936D02*
X5984039Y-11427460D01*
X5984039Y-11427460D02*
X5974515Y-11436984D01*
X5974515Y-11436984D02*
X5964991Y-11427460D01*
X5964991Y-11427460D02*
X5974515Y-11417936D01*
X5974515Y-11417936D02*
X5974515Y-11436984D01*
X6107848Y-11236984D02*
X6126896Y-11236984D01*
X6126896Y-11236984D02*
X6145944Y-11246508D01*
X6145944Y-11246508D02*
X6155467Y-11256031D01*
X6155467Y-11256031D02*
X6164991Y-11275079D01*
X6164991Y-11275079D02*
X6174515Y-11313174D01*
X6174515Y-11313174D02*
X6174515Y-11360793D01*
X6174515Y-11360793D02*
X6164991Y-11398888D01*
X6164991Y-11398888D02*
X6155467Y-11417936D01*
X6155467Y-11417936D02*
X6145944Y-11427460D01*
X6145944Y-11427460D02*
X6126896Y-11436984D01*
X6126896Y-11436984D02*
X6107848Y-11436984D01*
X6107848Y-11436984D02*
X6088801Y-11427460D01*
X6088801Y-11427460D02*
X6079277Y-11417936D01*
X6079277Y-11417936D02*
X6069753Y-11398888D01*
X6069753Y-11398888D02*
X6060229Y-11360793D01*
X6060229Y-11360793D02*
X6060229Y-11313174D01*
X6060229Y-11313174D02*
X6069753Y-11275079D01*
X6069753Y-11275079D02*
X6079277Y-11256031D01*
X6079277Y-11256031D02*
X6088801Y-11246508D01*
X6088801Y-11246508D02*
X6107848Y-11236984D01*
X6345944Y-11303650D02*
X6345944Y-11436984D01*
X6298325Y-11227460D02*
X6250706Y-11370317D01*
X6250706Y-11370317D02*
X6374515Y-11370317D01*
X6431658Y-11236984D02*
X6555467Y-11236984D01*
X6555467Y-11236984D02*
X6488801Y-11313174D01*
X6488801Y-11313174D02*
X6517372Y-11313174D01*
X6517372Y-11313174D02*
X6536420Y-11322698D01*
X6536420Y-11322698D02*
X6545944Y-11332222D01*
X6545944Y-11332222D02*
X6555467Y-11351269D01*
X6555467Y-11351269D02*
X6555467Y-11398888D01*
X6555467Y-11398888D02*
X6545944Y-11417936D01*
X6545944Y-11417936D02*
X6536420Y-11427460D01*
X6536420Y-11427460D02*
X6517372Y-11436984D01*
X6517372Y-11436984D02*
X6460229Y-11436984D01*
X6460229Y-11436984D02*
X6441182Y-11427460D01*
X6441182Y-11427460D02*
X6431658Y-11417936D01*
X6622134Y-11236984D02*
X6745944Y-11236984D01*
X6745944Y-11236984D02*
X6679277Y-11313174D01*
X6679277Y-11313174D02*
X6707848Y-11313174D01*
X6707848Y-11313174D02*
X6726896Y-11322698D01*
X6726896Y-11322698D02*
X6736420Y-11332222D01*
X6736420Y-11332222D02*
X6745944Y-11351269D01*
X6745944Y-11351269D02*
X6745944Y-11398888D01*
X6745944Y-11398888D02*
X6736420Y-11417936D01*
X6736420Y-11417936D02*
X6726896Y-11427460D01*
X6726896Y-11427460D02*
X6707848Y-11436984D01*
X6707848Y-11436984D02*
X6650706Y-11436984D01*
X6650706Y-11436984D02*
X6631658Y-11427460D01*
X6631658Y-11427460D02*
X6622134Y-11417936D01*
X6822134Y-11236984D02*
X6822134Y-11275079D01*
X6898325Y-11236984D02*
X6898325Y-11275079D01*
X7193563Y-11513174D02*
X7184039Y-11503650D01*
X7184039Y-11503650D02*
X7164991Y-11475079D01*
X7164991Y-11475079D02*
X7155468Y-11456031D01*
X7155468Y-11456031D02*
X7145944Y-11427460D01*
X7145944Y-11427460D02*
X7136420Y-11379841D01*
X7136420Y-11379841D02*
X7136420Y-11341746D01*
X7136420Y-11341746D02*
X7145944Y-11294127D01*
X7145944Y-11294127D02*
X7155468Y-11265555D01*
X7155468Y-11265555D02*
X7164991Y-11246508D01*
X7164991Y-11246508D02*
X7184039Y-11217936D01*
X7184039Y-11217936D02*
X7193563Y-11208412D01*
X7260229Y-11256031D02*
X7269753Y-11246508D01*
X7269753Y-11246508D02*
X7288801Y-11236984D01*
X7288801Y-11236984D02*
X7336420Y-11236984D01*
X7336420Y-11236984D02*
X7355468Y-11246508D01*
X7355468Y-11246508D02*
X7364991Y-11256031D01*
X7364991Y-11256031D02*
X7374515Y-11275079D01*
X7374515Y-11275079D02*
X7374515Y-11294127D01*
X7374515Y-11294127D02*
X7364991Y-11322698D01*
X7364991Y-11322698D02*
X7250706Y-11436984D01*
X7250706Y-11436984D02*
X7374515Y-11436984D01*
X7564991Y-11436984D02*
X7450706Y-11436984D01*
X7507848Y-11436984D02*
X7507848Y-11236984D01*
X7507848Y-11236984D02*
X7488801Y-11265555D01*
X7488801Y-11265555D02*
X7469753Y-11284603D01*
X7469753Y-11284603D02*
X7450706Y-11294127D01*
X7803087Y-11436984D02*
X7803087Y-11236984D01*
X7888801Y-11436984D02*
X7888801Y-11332222D01*
X7888801Y-11332222D02*
X7879277Y-11313174D01*
X7879277Y-11313174D02*
X7860230Y-11303650D01*
X7860230Y-11303650D02*
X7831658Y-11303650D01*
X7831658Y-11303650D02*
X7812610Y-11313174D01*
X7812610Y-11313174D02*
X7803087Y-11322698D01*
X8012610Y-11436984D02*
X7993563Y-11427460D01*
X7993563Y-11427460D02*
X7984039Y-11417936D01*
X7984039Y-11417936D02*
X7974515Y-11398888D01*
X7974515Y-11398888D02*
X7974515Y-11341746D01*
X7974515Y-11341746D02*
X7984039Y-11322698D01*
X7984039Y-11322698D02*
X7993563Y-11313174D01*
X7993563Y-11313174D02*
X8012610Y-11303650D01*
X8012610Y-11303650D02*
X8041182Y-11303650D01*
X8041182Y-11303650D02*
X8060230Y-11313174D01*
X8060230Y-11313174D02*
X8069753Y-11322698D01*
X8069753Y-11322698D02*
X8079277Y-11341746D01*
X8079277Y-11341746D02*
X8079277Y-11398888D01*
X8079277Y-11398888D02*
X8069753Y-11417936D01*
X8069753Y-11417936D02*
X8060230Y-11427460D01*
X8060230Y-11427460D02*
X8041182Y-11436984D01*
X8041182Y-11436984D02*
X8012610Y-11436984D01*
X8193563Y-11436984D02*
X8174515Y-11427460D01*
X8174515Y-11427460D02*
X8164991Y-11408412D01*
X8164991Y-11408412D02*
X8164991Y-11236984D01*
X8345944Y-11427460D02*
X8326896Y-11436984D01*
X8326896Y-11436984D02*
X8288801Y-11436984D01*
X8288801Y-11436984D02*
X8269753Y-11427460D01*
X8269753Y-11427460D02*
X8260230Y-11408412D01*
X8260230Y-11408412D02*
X8260230Y-11332222D01*
X8260230Y-11332222D02*
X8269753Y-11313174D01*
X8269753Y-11313174D02*
X8288801Y-11303650D01*
X8288801Y-11303650D02*
X8326896Y-11303650D01*
X8326896Y-11303650D02*
X8345944Y-11313174D01*
X8345944Y-11313174D02*
X8355468Y-11332222D01*
X8355468Y-11332222D02*
X8355468Y-11351269D01*
X8355468Y-11351269D02*
X8260230Y-11370317D01*
X8431658Y-11427460D02*
X8450706Y-11436984D01*
X8450706Y-11436984D02*
X8488801Y-11436984D01*
X8488801Y-11436984D02*
X8507849Y-11427460D01*
X8507849Y-11427460D02*
X8517373Y-11408412D01*
X8517373Y-11408412D02*
X8517373Y-11398888D01*
X8517373Y-11398888D02*
X8507849Y-11379841D01*
X8507849Y-11379841D02*
X8488801Y-11370317D01*
X8488801Y-11370317D02*
X8460230Y-11370317D01*
X8460230Y-11370317D02*
X8441182Y-11360793D01*
X8441182Y-11360793D02*
X8431658Y-11341746D01*
X8431658Y-11341746D02*
X8431658Y-11332222D01*
X8431658Y-11332222D02*
X8441182Y-11313174D01*
X8441182Y-11313174D02*
X8460230Y-11303650D01*
X8460230Y-11303650D02*
X8488801Y-11303650D01*
X8488801Y-11303650D02*
X8507849Y-11313174D01*
X8584039Y-11513174D02*
X8593563Y-11503650D01*
X8593563Y-11503650D02*
X8612611Y-11475079D01*
X8612611Y-11475079D02*
X8622134Y-11456031D01*
X8622134Y-11456031D02*
X8631658Y-11427460D01*
X8631658Y-11427460D02*
X8641182Y-11379841D01*
X8641182Y-11379841D02*
X8641182Y-11341746D01*
X8641182Y-11341746D02*
X8631658Y-11294127D01*
X8631658Y-11294127D02*
X8622134Y-11265555D01*
X8622134Y-11265555D02*
X8612611Y-11246508D01*
X8612611Y-11246508D02*
X8593563Y-11217936D01*
X8593563Y-11217936D02*
X8584039Y-11208412D01*
D14*
X3558500Y-11669500D02*
X3618500Y-11609500D01*
X3558500Y-11549500D01*
X3498500Y-11609500D01*
X3558500Y-11669500D01*
D11*
X3984039Y-11700984D02*
X3869753Y-11700984D01*
X3926896Y-11700984D02*
X3926896Y-11500984D01*
X3926896Y-11500984D02*
X3907848Y-11529555D01*
X3907848Y-11529555D02*
X3888801Y-11548603D01*
X3888801Y-11548603D02*
X3869753Y-11558127D01*
X4069753Y-11681936D02*
X4079277Y-11691460D01*
X4079277Y-11691460D02*
X4069753Y-11700984D01*
X4069753Y-11700984D02*
X4060229Y-11691460D01*
X4060229Y-11691460D02*
X4069753Y-11681936D01*
X4069753Y-11681936D02*
X4069753Y-11700984D01*
X4155467Y-11520031D02*
X4164991Y-11510508D01*
X4164991Y-11510508D02*
X4184039Y-11500984D01*
X4184039Y-11500984D02*
X4231658Y-11500984D01*
X4231658Y-11500984D02*
X4250705Y-11510508D01*
X4250705Y-11510508D02*
X4260229Y-11520031D01*
X4260229Y-11520031D02*
X4269753Y-11539079D01*
X4269753Y-11539079D02*
X4269753Y-11558127D01*
X4269753Y-11558127D02*
X4260229Y-11586698D01*
X4260229Y-11586698D02*
X4145943Y-11700984D01*
X4145943Y-11700984D02*
X4269753Y-11700984D01*
X4393563Y-11500984D02*
X4412610Y-11500984D01*
X4412610Y-11500984D02*
X4431658Y-11510508D01*
X4431658Y-11510508D02*
X4441182Y-11520031D01*
X4441182Y-11520031D02*
X4450705Y-11539079D01*
X4450705Y-11539079D02*
X4460229Y-11577174D01*
X4460229Y-11577174D02*
X4460229Y-11624793D01*
X4460229Y-11624793D02*
X4450705Y-11662888D01*
X4450705Y-11662888D02*
X4441182Y-11681936D01*
X4441182Y-11681936D02*
X4431658Y-11691460D01*
X4431658Y-11691460D02*
X4412610Y-11700984D01*
X4412610Y-11700984D02*
X4393563Y-11700984D01*
X4393563Y-11700984D02*
X4374515Y-11691460D01*
X4374515Y-11691460D02*
X4364991Y-11681936D01*
X4364991Y-11681936D02*
X4355467Y-11662888D01*
X4355467Y-11662888D02*
X4345944Y-11624793D01*
X4345944Y-11624793D02*
X4345944Y-11577174D01*
X4345944Y-11577174D02*
X4355467Y-11539079D01*
X4355467Y-11539079D02*
X4364991Y-11520031D01*
X4364991Y-11520031D02*
X4374515Y-11510508D01*
X4374515Y-11510508D02*
X4393563Y-11500984D01*
X4584039Y-11500984D02*
X4603086Y-11500984D01*
X4603086Y-11500984D02*
X4622134Y-11510508D01*
X4622134Y-11510508D02*
X4631658Y-11520031D01*
X4631658Y-11520031D02*
X4641182Y-11539079D01*
X4641182Y-11539079D02*
X4650705Y-11577174D01*
X4650705Y-11577174D02*
X4650705Y-11624793D01*
X4650705Y-11624793D02*
X4641182Y-11662888D01*
X4641182Y-11662888D02*
X4631658Y-11681936D01*
X4631658Y-11681936D02*
X4622134Y-11691460D01*
X4622134Y-11691460D02*
X4603086Y-11700984D01*
X4603086Y-11700984D02*
X4584039Y-11700984D01*
X4584039Y-11700984D02*
X4564991Y-11691460D01*
X4564991Y-11691460D02*
X4555467Y-11681936D01*
X4555467Y-11681936D02*
X4545944Y-11662888D01*
X4545944Y-11662888D02*
X4536420Y-11624793D01*
X4536420Y-11624793D02*
X4536420Y-11577174D01*
X4536420Y-11577174D02*
X4545944Y-11539079D01*
X4545944Y-11539079D02*
X4555467Y-11520031D01*
X4555467Y-11520031D02*
X4564991Y-11510508D01*
X4564991Y-11510508D02*
X4584039Y-11500984D01*
X4736420Y-11700984D02*
X4736420Y-11567650D01*
X4736420Y-11586698D02*
X4745944Y-11577174D01*
X4745944Y-11577174D02*
X4764991Y-11567650D01*
X4764991Y-11567650D02*
X4793563Y-11567650D01*
X4793563Y-11567650D02*
X4812610Y-11577174D01*
X4812610Y-11577174D02*
X4822134Y-11596222D01*
X4822134Y-11596222D02*
X4822134Y-11700984D01*
X4822134Y-11596222D02*
X4831658Y-11577174D01*
X4831658Y-11577174D02*
X4850705Y-11567650D01*
X4850705Y-11567650D02*
X4879277Y-11567650D01*
X4879277Y-11567650D02*
X4898325Y-11577174D01*
X4898325Y-11577174D02*
X4907848Y-11596222D01*
X4907848Y-11596222D02*
X4907848Y-11700984D01*
X5003086Y-11700984D02*
X5003086Y-11567650D01*
X5003086Y-11586698D02*
X5012610Y-11577174D01*
X5012610Y-11577174D02*
X5031658Y-11567650D01*
X5031658Y-11567650D02*
X5060229Y-11567650D01*
X5060229Y-11567650D02*
X5079277Y-11577174D01*
X5079277Y-11577174D02*
X5088801Y-11596222D01*
X5088801Y-11596222D02*
X5088801Y-11700984D01*
X5088801Y-11596222D02*
X5098325Y-11577174D01*
X5098325Y-11577174D02*
X5117372Y-11567650D01*
X5117372Y-11567650D02*
X5145944Y-11567650D01*
X5145944Y-11567650D02*
X5164991Y-11577174D01*
X5164991Y-11577174D02*
X5174515Y-11596222D01*
X5174515Y-11596222D02*
X5174515Y-11700984D01*
X5564991Y-11491460D02*
X5393563Y-11748603D01*
X5822134Y-11500984D02*
X5841182Y-11500984D01*
X5841182Y-11500984D02*
X5860229Y-11510508D01*
X5860229Y-11510508D02*
X5869753Y-11520031D01*
X5869753Y-11520031D02*
X5879277Y-11539079D01*
X5879277Y-11539079D02*
X5888801Y-11577174D01*
X5888801Y-11577174D02*
X5888801Y-11624793D01*
X5888801Y-11624793D02*
X5879277Y-11662888D01*
X5879277Y-11662888D02*
X5869753Y-11681936D01*
X5869753Y-11681936D02*
X5860229Y-11691460D01*
X5860229Y-11691460D02*
X5841182Y-11700984D01*
X5841182Y-11700984D02*
X5822134Y-11700984D01*
X5822134Y-11700984D02*
X5803086Y-11691460D01*
X5803086Y-11691460D02*
X5793563Y-11681936D01*
X5793563Y-11681936D02*
X5784039Y-11662888D01*
X5784039Y-11662888D02*
X5774515Y-11624793D01*
X5774515Y-11624793D02*
X5774515Y-11577174D01*
X5774515Y-11577174D02*
X5784039Y-11539079D01*
X5784039Y-11539079D02*
X5793563Y-11520031D01*
X5793563Y-11520031D02*
X5803086Y-11510508D01*
X5803086Y-11510508D02*
X5822134Y-11500984D01*
X5974515Y-11681936D02*
X5984039Y-11691460D01*
X5984039Y-11691460D02*
X5974515Y-11700984D01*
X5974515Y-11700984D02*
X5964991Y-11691460D01*
X5964991Y-11691460D02*
X5974515Y-11681936D01*
X5974515Y-11681936D02*
X5974515Y-11700984D01*
X6107848Y-11500984D02*
X6126896Y-11500984D01*
X6126896Y-11500984D02*
X6145944Y-11510508D01*
X6145944Y-11510508D02*
X6155467Y-11520031D01*
X6155467Y-11520031D02*
X6164991Y-11539079D01*
X6164991Y-11539079D02*
X6174515Y-11577174D01*
X6174515Y-11577174D02*
X6174515Y-11624793D01*
X6174515Y-11624793D02*
X6164991Y-11662888D01*
X6164991Y-11662888D02*
X6155467Y-11681936D01*
X6155467Y-11681936D02*
X6145944Y-11691460D01*
X6145944Y-11691460D02*
X6126896Y-11700984D01*
X6126896Y-11700984D02*
X6107848Y-11700984D01*
X6107848Y-11700984D02*
X6088801Y-11691460D01*
X6088801Y-11691460D02*
X6079277Y-11681936D01*
X6079277Y-11681936D02*
X6069753Y-11662888D01*
X6069753Y-11662888D02*
X6060229Y-11624793D01*
X6060229Y-11624793D02*
X6060229Y-11577174D01*
X6060229Y-11577174D02*
X6069753Y-11539079D01*
X6069753Y-11539079D02*
X6079277Y-11520031D01*
X6079277Y-11520031D02*
X6088801Y-11510508D01*
X6088801Y-11510508D02*
X6107848Y-11500984D01*
X6345944Y-11567650D02*
X6345944Y-11700984D01*
X6298325Y-11491460D02*
X6250706Y-11634317D01*
X6250706Y-11634317D02*
X6374515Y-11634317D01*
X6431658Y-11500984D02*
X6564991Y-11500984D01*
X6564991Y-11500984D02*
X6479277Y-11700984D01*
X6631658Y-11520031D02*
X6641182Y-11510508D01*
X6641182Y-11510508D02*
X6660229Y-11500984D01*
X6660229Y-11500984D02*
X6707848Y-11500984D01*
X6707848Y-11500984D02*
X6726896Y-11510508D01*
X6726896Y-11510508D02*
X6736420Y-11520031D01*
X6736420Y-11520031D02*
X6745944Y-11539079D01*
X6745944Y-11539079D02*
X6745944Y-11558127D01*
X6745944Y-11558127D02*
X6736420Y-11586698D01*
X6736420Y-11586698D02*
X6622134Y-11700984D01*
X6622134Y-11700984D02*
X6745944Y-11700984D01*
X6822134Y-11500984D02*
X6822134Y-11539079D01*
X6898325Y-11500984D02*
X6898325Y-11539079D01*
X7193563Y-11777174D02*
X7184039Y-11767650D01*
X7184039Y-11767650D02*
X7164991Y-11739079D01*
X7164991Y-11739079D02*
X7155468Y-11720031D01*
X7155468Y-11720031D02*
X7145944Y-11691460D01*
X7145944Y-11691460D02*
X7136420Y-11643841D01*
X7136420Y-11643841D02*
X7136420Y-11605746D01*
X7136420Y-11605746D02*
X7145944Y-11558127D01*
X7145944Y-11558127D02*
X7155468Y-11529555D01*
X7155468Y-11529555D02*
X7164991Y-11510508D01*
X7164991Y-11510508D02*
X7184039Y-11481936D01*
X7184039Y-11481936D02*
X7193563Y-11472412D01*
X7355468Y-11567650D02*
X7355468Y-11700984D01*
X7307848Y-11491460D02*
X7260229Y-11634317D01*
X7260229Y-11634317D02*
X7384039Y-11634317D01*
X7612610Y-11700984D02*
X7612610Y-11500984D01*
X7698325Y-11700984D02*
X7698325Y-11596222D01*
X7698325Y-11596222D02*
X7688801Y-11577174D01*
X7688801Y-11577174D02*
X7669753Y-11567650D01*
X7669753Y-11567650D02*
X7641182Y-11567650D01*
X7641182Y-11567650D02*
X7622134Y-11577174D01*
X7622134Y-11577174D02*
X7612610Y-11586698D01*
X7822134Y-11700984D02*
X7803087Y-11691460D01*
X7803087Y-11691460D02*
X7793563Y-11681936D01*
X7793563Y-11681936D02*
X7784039Y-11662888D01*
X7784039Y-11662888D02*
X7784039Y-11605746D01*
X7784039Y-11605746D02*
X7793563Y-11586698D01*
X7793563Y-11586698D02*
X7803087Y-11577174D01*
X7803087Y-11577174D02*
X7822134Y-11567650D01*
X7822134Y-11567650D02*
X7850706Y-11567650D01*
X7850706Y-11567650D02*
X7869753Y-11577174D01*
X7869753Y-11577174D02*
X7879277Y-11586698D01*
X7879277Y-11586698D02*
X7888801Y-11605746D01*
X7888801Y-11605746D02*
X7888801Y-11662888D01*
X7888801Y-11662888D02*
X7879277Y-11681936D01*
X7879277Y-11681936D02*
X7869753Y-11691460D01*
X7869753Y-11691460D02*
X7850706Y-11700984D01*
X7850706Y-11700984D02*
X7822134Y-11700984D01*
X8003087Y-11700984D02*
X7984039Y-11691460D01*
X7984039Y-11691460D02*
X7974515Y-11672412D01*
X7974515Y-11672412D02*
X7974515Y-11500984D01*
X8155468Y-11691460D02*
X8136420Y-11700984D01*
X8136420Y-11700984D02*
X8098325Y-11700984D01*
X8098325Y-11700984D02*
X8079277Y-11691460D01*
X8079277Y-11691460D02*
X8069753Y-11672412D01*
X8069753Y-11672412D02*
X8069753Y-11596222D01*
X8069753Y-11596222D02*
X8079277Y-11577174D01*
X8079277Y-11577174D02*
X8098325Y-11567650D01*
X8098325Y-11567650D02*
X8136420Y-11567650D01*
X8136420Y-11567650D02*
X8155468Y-11577174D01*
X8155468Y-11577174D02*
X8164991Y-11596222D01*
X8164991Y-11596222D02*
X8164991Y-11615269D01*
X8164991Y-11615269D02*
X8069753Y-11634317D01*
X8241182Y-11691460D02*
X8260230Y-11700984D01*
X8260230Y-11700984D02*
X8298325Y-11700984D01*
X8298325Y-11700984D02*
X8317372Y-11691460D01*
X8317372Y-11691460D02*
X8326896Y-11672412D01*
X8326896Y-11672412D02*
X8326896Y-11662888D01*
X8326896Y-11662888D02*
X8317372Y-11643841D01*
X8317372Y-11643841D02*
X8298325Y-11634317D01*
X8298325Y-11634317D02*
X8269753Y-11634317D01*
X8269753Y-11634317D02*
X8250706Y-11624793D01*
X8250706Y-11624793D02*
X8241182Y-11605746D01*
X8241182Y-11605746D02*
X8241182Y-11596222D01*
X8241182Y-11596222D02*
X8250706Y-11577174D01*
X8250706Y-11577174D02*
X8269753Y-11567650D01*
X8269753Y-11567650D02*
X8298325Y-11567650D01*
X8298325Y-11567650D02*
X8317372Y-11577174D01*
X8393563Y-11777174D02*
X8403087Y-11767650D01*
X8403087Y-11767650D02*
X8422134Y-11739079D01*
X8422134Y-11739079D02*
X8431658Y-11720031D01*
X8431658Y-11720031D02*
X8441182Y-11691460D01*
X8441182Y-11691460D02*
X8450706Y-11643841D01*
X8450706Y-11643841D02*
X8450706Y-11605746D01*
X8450706Y-11605746D02*
X8441182Y-11558127D01*
X8441182Y-11558127D02*
X8431658Y-11529555D01*
X8431658Y-11529555D02*
X8422134Y-11510508D01*
X8422134Y-11510508D02*
X8403087Y-11481936D01*
X8403087Y-11481936D02*
X8393563Y-11472412D01*
D15*
X3468500Y-11798500D02*
X3618500Y-11948500D01*
X3618500Y-11798500D02*
X3468500Y-11948500D01*
X3618500Y-11873500D02*
G75*
G02*
X3468500Y-11873500I-75000J0D01*
G01*
X3468500Y-11873500D02*
G75*
G02*
X3618500Y-11873500I75000J0D01*
G01*
D11*
X3984039Y-11964984D02*
X3869753Y-11964984D01*
X3926896Y-11964984D02*
X3926896Y-11764984D01*
X3926896Y-11764984D02*
X3907848Y-11793555D01*
X3907848Y-11793555D02*
X3888801Y-11812603D01*
X3888801Y-11812603D02*
X3869753Y-11822127D01*
X4069753Y-11945936D02*
X4079277Y-11955460D01*
X4079277Y-11955460D02*
X4069753Y-11964984D01*
X4069753Y-11964984D02*
X4060229Y-11955460D01*
X4060229Y-11955460D02*
X4069753Y-11945936D01*
X4069753Y-11945936D02*
X4069753Y-11964984D01*
X4260229Y-11764984D02*
X4164991Y-11764984D01*
X4164991Y-11764984D02*
X4155467Y-11860222D01*
X4155467Y-11860222D02*
X4164991Y-11850698D01*
X4164991Y-11850698D02*
X4184039Y-11841174D01*
X4184039Y-11841174D02*
X4231658Y-11841174D01*
X4231658Y-11841174D02*
X4250705Y-11850698D01*
X4250705Y-11850698D02*
X4260229Y-11860222D01*
X4260229Y-11860222D02*
X4269753Y-11879269D01*
X4269753Y-11879269D02*
X4269753Y-11926888D01*
X4269753Y-11926888D02*
X4260229Y-11945936D01*
X4260229Y-11945936D02*
X4250705Y-11955460D01*
X4250705Y-11955460D02*
X4231658Y-11964984D01*
X4231658Y-11964984D02*
X4184039Y-11964984D01*
X4184039Y-11964984D02*
X4164991Y-11955460D01*
X4164991Y-11955460D02*
X4155467Y-11945936D01*
X4393563Y-11764984D02*
X4412610Y-11764984D01*
X4412610Y-11764984D02*
X4431658Y-11774508D01*
X4431658Y-11774508D02*
X4441182Y-11784031D01*
X4441182Y-11784031D02*
X4450705Y-11803079D01*
X4450705Y-11803079D02*
X4460229Y-11841174D01*
X4460229Y-11841174D02*
X4460229Y-11888793D01*
X4460229Y-11888793D02*
X4450705Y-11926888D01*
X4450705Y-11926888D02*
X4441182Y-11945936D01*
X4441182Y-11945936D02*
X4431658Y-11955460D01*
X4431658Y-11955460D02*
X4412610Y-11964984D01*
X4412610Y-11964984D02*
X4393563Y-11964984D01*
X4393563Y-11964984D02*
X4374515Y-11955460D01*
X4374515Y-11955460D02*
X4364991Y-11945936D01*
X4364991Y-11945936D02*
X4355467Y-11926888D01*
X4355467Y-11926888D02*
X4345944Y-11888793D01*
X4345944Y-11888793D02*
X4345944Y-11841174D01*
X4345944Y-11841174D02*
X4355467Y-11803079D01*
X4355467Y-11803079D02*
X4364991Y-11784031D01*
X4364991Y-11784031D02*
X4374515Y-11774508D01*
X4374515Y-11774508D02*
X4393563Y-11764984D01*
X4584039Y-11764984D02*
X4603086Y-11764984D01*
X4603086Y-11764984D02*
X4622134Y-11774508D01*
X4622134Y-11774508D02*
X4631658Y-11784031D01*
X4631658Y-11784031D02*
X4641182Y-11803079D01*
X4641182Y-11803079D02*
X4650705Y-11841174D01*
X4650705Y-11841174D02*
X4650705Y-11888793D01*
X4650705Y-11888793D02*
X4641182Y-11926888D01*
X4641182Y-11926888D02*
X4631658Y-11945936D01*
X4631658Y-11945936D02*
X4622134Y-11955460D01*
X4622134Y-11955460D02*
X4603086Y-11964984D01*
X4603086Y-11964984D02*
X4584039Y-11964984D01*
X4584039Y-11964984D02*
X4564991Y-11955460D01*
X4564991Y-11955460D02*
X4555467Y-11945936D01*
X4555467Y-11945936D02*
X4545944Y-11926888D01*
X4545944Y-11926888D02*
X4536420Y-11888793D01*
X4536420Y-11888793D02*
X4536420Y-11841174D01*
X4536420Y-11841174D02*
X4545944Y-11803079D01*
X4545944Y-11803079D02*
X4555467Y-11784031D01*
X4555467Y-11784031D02*
X4564991Y-11774508D01*
X4564991Y-11774508D02*
X4584039Y-11764984D01*
X4736420Y-11964984D02*
X4736420Y-11831650D01*
X4736420Y-11850698D02*
X4745944Y-11841174D01*
X4745944Y-11841174D02*
X4764991Y-11831650D01*
X4764991Y-11831650D02*
X4793563Y-11831650D01*
X4793563Y-11831650D02*
X4812610Y-11841174D01*
X4812610Y-11841174D02*
X4822134Y-11860222D01*
X4822134Y-11860222D02*
X4822134Y-11964984D01*
X4822134Y-11860222D02*
X4831658Y-11841174D01*
X4831658Y-11841174D02*
X4850705Y-11831650D01*
X4850705Y-11831650D02*
X4879277Y-11831650D01*
X4879277Y-11831650D02*
X4898325Y-11841174D01*
X4898325Y-11841174D02*
X4907848Y-11860222D01*
X4907848Y-11860222D02*
X4907848Y-11964984D01*
X5003086Y-11964984D02*
X5003086Y-11831650D01*
X5003086Y-11850698D02*
X5012610Y-11841174D01*
X5012610Y-11841174D02*
X5031658Y-11831650D01*
X5031658Y-11831650D02*
X5060229Y-11831650D01*
X5060229Y-11831650D02*
X5079277Y-11841174D01*
X5079277Y-11841174D02*
X5088801Y-11860222D01*
X5088801Y-11860222D02*
X5088801Y-11964984D01*
X5088801Y-11860222D02*
X5098325Y-11841174D01*
X5098325Y-11841174D02*
X5117372Y-11831650D01*
X5117372Y-11831650D02*
X5145944Y-11831650D01*
X5145944Y-11831650D02*
X5164991Y-11841174D01*
X5164991Y-11841174D02*
X5174515Y-11860222D01*
X5174515Y-11860222D02*
X5174515Y-11964984D01*
X5564991Y-11755460D02*
X5393563Y-12012603D01*
X5822134Y-11764984D02*
X5841182Y-11764984D01*
X5841182Y-11764984D02*
X5860229Y-11774508D01*
X5860229Y-11774508D02*
X5869753Y-11784031D01*
X5869753Y-11784031D02*
X5879277Y-11803079D01*
X5879277Y-11803079D02*
X5888801Y-11841174D01*
X5888801Y-11841174D02*
X5888801Y-11888793D01*
X5888801Y-11888793D02*
X5879277Y-11926888D01*
X5879277Y-11926888D02*
X5869753Y-11945936D01*
X5869753Y-11945936D02*
X5860229Y-11955460D01*
X5860229Y-11955460D02*
X5841182Y-11964984D01*
X5841182Y-11964984D02*
X5822134Y-11964984D01*
X5822134Y-11964984D02*
X5803086Y-11955460D01*
X5803086Y-11955460D02*
X5793563Y-11945936D01*
X5793563Y-11945936D02*
X5784039Y-11926888D01*
X5784039Y-11926888D02*
X5774515Y-11888793D01*
X5774515Y-11888793D02*
X5774515Y-11841174D01*
X5774515Y-11841174D02*
X5784039Y-11803079D01*
X5784039Y-11803079D02*
X5793563Y-11784031D01*
X5793563Y-11784031D02*
X5803086Y-11774508D01*
X5803086Y-11774508D02*
X5822134Y-11764984D01*
X5974515Y-11945936D02*
X5984039Y-11955460D01*
X5984039Y-11955460D02*
X5974515Y-11964984D01*
X5974515Y-11964984D02*
X5964991Y-11955460D01*
X5964991Y-11955460D02*
X5974515Y-11945936D01*
X5974515Y-11945936D02*
X5974515Y-11964984D01*
X6107848Y-11764984D02*
X6126896Y-11764984D01*
X6126896Y-11764984D02*
X6145944Y-11774508D01*
X6145944Y-11774508D02*
X6155467Y-11784031D01*
X6155467Y-11784031D02*
X6164991Y-11803079D01*
X6164991Y-11803079D02*
X6174515Y-11841174D01*
X6174515Y-11841174D02*
X6174515Y-11888793D01*
X6174515Y-11888793D02*
X6164991Y-11926888D01*
X6164991Y-11926888D02*
X6155467Y-11945936D01*
X6155467Y-11945936D02*
X6145944Y-11955460D01*
X6145944Y-11955460D02*
X6126896Y-11964984D01*
X6126896Y-11964984D02*
X6107848Y-11964984D01*
X6107848Y-11964984D02*
X6088801Y-11955460D01*
X6088801Y-11955460D02*
X6079277Y-11945936D01*
X6079277Y-11945936D02*
X6069753Y-11926888D01*
X6069753Y-11926888D02*
X6060229Y-11888793D01*
X6060229Y-11888793D02*
X6060229Y-11841174D01*
X6060229Y-11841174D02*
X6069753Y-11803079D01*
X6069753Y-11803079D02*
X6079277Y-11784031D01*
X6079277Y-11784031D02*
X6088801Y-11774508D01*
X6088801Y-11774508D02*
X6107848Y-11764984D01*
X6355467Y-11764984D02*
X6260229Y-11764984D01*
X6260229Y-11764984D02*
X6250706Y-11860222D01*
X6250706Y-11860222D02*
X6260229Y-11850698D01*
X6260229Y-11850698D02*
X6279277Y-11841174D01*
X6279277Y-11841174D02*
X6326896Y-11841174D01*
X6326896Y-11841174D02*
X6345944Y-11850698D01*
X6345944Y-11850698D02*
X6355467Y-11860222D01*
X6355467Y-11860222D02*
X6364991Y-11879269D01*
X6364991Y-11879269D02*
X6364991Y-11926888D01*
X6364991Y-11926888D02*
X6355467Y-11945936D01*
X6355467Y-11945936D02*
X6345944Y-11955460D01*
X6345944Y-11955460D02*
X6326896Y-11964984D01*
X6326896Y-11964984D02*
X6279277Y-11964984D01*
X6279277Y-11964984D02*
X6260229Y-11955460D01*
X6260229Y-11955460D02*
X6250706Y-11945936D01*
X6460229Y-11964984D02*
X6498325Y-11964984D01*
X6498325Y-11964984D02*
X6517372Y-11955460D01*
X6517372Y-11955460D02*
X6526896Y-11945936D01*
X6526896Y-11945936D02*
X6545944Y-11917365D01*
X6545944Y-11917365D02*
X6555467Y-11879269D01*
X6555467Y-11879269D02*
X6555467Y-11803079D01*
X6555467Y-11803079D02*
X6545944Y-11784031D01*
X6545944Y-11784031D02*
X6536420Y-11774508D01*
X6536420Y-11774508D02*
X6517372Y-11764984D01*
X6517372Y-11764984D02*
X6479277Y-11764984D01*
X6479277Y-11764984D02*
X6460229Y-11774508D01*
X6460229Y-11774508D02*
X6450706Y-11784031D01*
X6450706Y-11784031D02*
X6441182Y-11803079D01*
X6441182Y-11803079D02*
X6441182Y-11850698D01*
X6441182Y-11850698D02*
X6450706Y-11869746D01*
X6450706Y-11869746D02*
X6460229Y-11879269D01*
X6460229Y-11879269D02*
X6479277Y-11888793D01*
X6479277Y-11888793D02*
X6517372Y-11888793D01*
X6517372Y-11888793D02*
X6536420Y-11879269D01*
X6536420Y-11879269D02*
X6545944Y-11869746D01*
X6545944Y-11869746D02*
X6555467Y-11850698D01*
X6745944Y-11964984D02*
X6631658Y-11964984D01*
X6688801Y-11964984D02*
X6688801Y-11764984D01*
X6688801Y-11764984D02*
X6669753Y-11793555D01*
X6669753Y-11793555D02*
X6650706Y-11812603D01*
X6650706Y-11812603D02*
X6631658Y-11822127D01*
X6822134Y-11764984D02*
X6822134Y-11803079D01*
X6898325Y-11764984D02*
X6898325Y-11803079D01*
X7193563Y-12041174D02*
X7184039Y-12031650D01*
X7184039Y-12031650D02*
X7164991Y-12003079D01*
X7164991Y-12003079D02*
X7155468Y-11984031D01*
X7155468Y-11984031D02*
X7145944Y-11955460D01*
X7145944Y-11955460D02*
X7136420Y-11907841D01*
X7136420Y-11907841D02*
X7136420Y-11869746D01*
X7136420Y-11869746D02*
X7145944Y-11822127D01*
X7145944Y-11822127D02*
X7155468Y-11793555D01*
X7155468Y-11793555D02*
X7164991Y-11774508D01*
X7164991Y-11774508D02*
X7184039Y-11745936D01*
X7184039Y-11745936D02*
X7193563Y-11736412D01*
X7260229Y-11784031D02*
X7269753Y-11774508D01*
X7269753Y-11774508D02*
X7288801Y-11764984D01*
X7288801Y-11764984D02*
X7336420Y-11764984D01*
X7336420Y-11764984D02*
X7355468Y-11774508D01*
X7355468Y-11774508D02*
X7364991Y-11784031D01*
X7364991Y-11784031D02*
X7374515Y-11803079D01*
X7374515Y-11803079D02*
X7374515Y-11822127D01*
X7374515Y-11822127D02*
X7364991Y-11850698D01*
X7364991Y-11850698D02*
X7250706Y-11964984D01*
X7250706Y-11964984D02*
X7374515Y-11964984D01*
X7612610Y-11964984D02*
X7612610Y-11764984D01*
X7698325Y-11964984D02*
X7698325Y-11860222D01*
X7698325Y-11860222D02*
X7688801Y-11841174D01*
X7688801Y-11841174D02*
X7669753Y-11831650D01*
X7669753Y-11831650D02*
X7641182Y-11831650D01*
X7641182Y-11831650D02*
X7622134Y-11841174D01*
X7622134Y-11841174D02*
X7612610Y-11850698D01*
X7822134Y-11964984D02*
X7803087Y-11955460D01*
X7803087Y-11955460D02*
X7793563Y-11945936D01*
X7793563Y-11945936D02*
X7784039Y-11926888D01*
X7784039Y-11926888D02*
X7784039Y-11869746D01*
X7784039Y-11869746D02*
X7793563Y-11850698D01*
X7793563Y-11850698D02*
X7803087Y-11841174D01*
X7803087Y-11841174D02*
X7822134Y-11831650D01*
X7822134Y-11831650D02*
X7850706Y-11831650D01*
X7850706Y-11831650D02*
X7869753Y-11841174D01*
X7869753Y-11841174D02*
X7879277Y-11850698D01*
X7879277Y-11850698D02*
X7888801Y-11869746D01*
X7888801Y-11869746D02*
X7888801Y-11926888D01*
X7888801Y-11926888D02*
X7879277Y-11945936D01*
X7879277Y-11945936D02*
X7869753Y-11955460D01*
X7869753Y-11955460D02*
X7850706Y-11964984D01*
X7850706Y-11964984D02*
X7822134Y-11964984D01*
X8003087Y-11964984D02*
X7984039Y-11955460D01*
X7984039Y-11955460D02*
X7974515Y-11936412D01*
X7974515Y-11936412D02*
X7974515Y-11764984D01*
X8155468Y-11955460D02*
X8136420Y-11964984D01*
X8136420Y-11964984D02*
X8098325Y-11964984D01*
X8098325Y-11964984D02*
X8079277Y-11955460D01*
X8079277Y-11955460D02*
X8069753Y-11936412D01*
X8069753Y-11936412D02*
X8069753Y-11860222D01*
X8069753Y-11860222D02*
X8079277Y-11841174D01*
X8079277Y-11841174D02*
X8098325Y-11831650D01*
X8098325Y-11831650D02*
X8136420Y-11831650D01*
X8136420Y-11831650D02*
X8155468Y-11841174D01*
X8155468Y-11841174D02*
X8164991Y-11860222D01*
X8164991Y-11860222D02*
X8164991Y-11879269D01*
X8164991Y-11879269D02*
X8069753Y-11898317D01*
X8241182Y-11955460D02*
X8260230Y-11964984D01*
X8260230Y-11964984D02*
X8298325Y-11964984D01*
X8298325Y-11964984D02*
X8317372Y-11955460D01*
X8317372Y-11955460D02*
X8326896Y-11936412D01*
X8326896Y-11936412D02*
X8326896Y-11926888D01*
X8326896Y-11926888D02*
X8317372Y-11907841D01*
X8317372Y-11907841D02*
X8298325Y-11898317D01*
X8298325Y-11898317D02*
X8269753Y-11898317D01*
X8269753Y-11898317D02*
X8250706Y-11888793D01*
X8250706Y-11888793D02*
X8241182Y-11869746D01*
X8241182Y-11869746D02*
X8241182Y-11860222D01*
X8241182Y-11860222D02*
X8250706Y-11841174D01*
X8250706Y-11841174D02*
X8269753Y-11831650D01*
X8269753Y-11831650D02*
X8298325Y-11831650D01*
X8298325Y-11831650D02*
X8317372Y-11841174D01*
X8393563Y-12041174D02*
X8403087Y-12031650D01*
X8403087Y-12031650D02*
X8422134Y-12003079D01*
X8422134Y-12003079D02*
X8431658Y-11984031D01*
X8431658Y-11984031D02*
X8441182Y-11955460D01*
X8441182Y-11955460D02*
X8450706Y-11907841D01*
X8450706Y-11907841D02*
X8450706Y-11869746D01*
X8450706Y-11869746D02*
X8441182Y-11822127D01*
X8441182Y-11822127D02*
X8431658Y-11793555D01*
X8431658Y-11793555D02*
X8422134Y-11774508D01*
X8422134Y-11774508D02*
X8403087Y-11745936D01*
X8403087Y-11745936D02*
X8393563Y-11736412D01*
D16*
X3458500Y-12063500D02*
X3618500Y-12223500D01*
X3618500Y-12063500D02*
X3458500Y-12223500D01*
X3538500Y-12063500D02*
X3538500Y-12223500D01*
X3458500Y-12143500D02*
X3618500Y-12143500D01*
D11*
X3984039Y-12234984D02*
X3869753Y-12234984D01*
X3926896Y-12234984D02*
X3926896Y-12034984D01*
X3926896Y-12034984D02*
X3907848Y-12063555D01*
X3907848Y-12063555D02*
X3888801Y-12082603D01*
X3888801Y-12082603D02*
X3869753Y-12092127D01*
X4069753Y-12215936D02*
X4079277Y-12225460D01*
X4079277Y-12225460D02*
X4069753Y-12234984D01*
X4069753Y-12234984D02*
X4060229Y-12225460D01*
X4060229Y-12225460D02*
X4069753Y-12215936D01*
X4069753Y-12215936D02*
X4069753Y-12234984D01*
X4250705Y-12034984D02*
X4212610Y-12034984D01*
X4212610Y-12034984D02*
X4193562Y-12044508D01*
X4193562Y-12044508D02*
X4184039Y-12054031D01*
X4184039Y-12054031D02*
X4164991Y-12082603D01*
X4164991Y-12082603D02*
X4155467Y-12120698D01*
X4155467Y-12120698D02*
X4155467Y-12196888D01*
X4155467Y-12196888D02*
X4164991Y-12215936D01*
X4164991Y-12215936D02*
X4174515Y-12225460D01*
X4174515Y-12225460D02*
X4193562Y-12234984D01*
X4193562Y-12234984D02*
X4231658Y-12234984D01*
X4231658Y-12234984D02*
X4250705Y-12225460D01*
X4250705Y-12225460D02*
X4260229Y-12215936D01*
X4260229Y-12215936D02*
X4269753Y-12196888D01*
X4269753Y-12196888D02*
X4269753Y-12149269D01*
X4269753Y-12149269D02*
X4260229Y-12130222D01*
X4260229Y-12130222D02*
X4250705Y-12120698D01*
X4250705Y-12120698D02*
X4231658Y-12111174D01*
X4231658Y-12111174D02*
X4193562Y-12111174D01*
X4193562Y-12111174D02*
X4174515Y-12120698D01*
X4174515Y-12120698D02*
X4164991Y-12130222D01*
X4164991Y-12130222D02*
X4155467Y-12149269D01*
X4393563Y-12034984D02*
X4412610Y-12034984D01*
X4412610Y-12034984D02*
X4431658Y-12044508D01*
X4431658Y-12044508D02*
X4441182Y-12054031D01*
X4441182Y-12054031D02*
X4450705Y-12073079D01*
X4450705Y-12073079D02*
X4460229Y-12111174D01*
X4460229Y-12111174D02*
X4460229Y-12158793D01*
X4460229Y-12158793D02*
X4450705Y-12196888D01*
X4450705Y-12196888D02*
X4441182Y-12215936D01*
X4441182Y-12215936D02*
X4431658Y-12225460D01*
X4431658Y-12225460D02*
X4412610Y-12234984D01*
X4412610Y-12234984D02*
X4393563Y-12234984D01*
X4393563Y-12234984D02*
X4374515Y-12225460D01*
X4374515Y-12225460D02*
X4364991Y-12215936D01*
X4364991Y-12215936D02*
X4355467Y-12196888D01*
X4355467Y-12196888D02*
X4345944Y-12158793D01*
X4345944Y-12158793D02*
X4345944Y-12111174D01*
X4345944Y-12111174D02*
X4355467Y-12073079D01*
X4355467Y-12073079D02*
X4364991Y-12054031D01*
X4364991Y-12054031D02*
X4374515Y-12044508D01*
X4374515Y-12044508D02*
X4393563Y-12034984D01*
X4584039Y-12034984D02*
X4603086Y-12034984D01*
X4603086Y-12034984D02*
X4622134Y-12044508D01*
X4622134Y-12044508D02*
X4631658Y-12054031D01*
X4631658Y-12054031D02*
X4641182Y-12073079D01*
X4641182Y-12073079D02*
X4650705Y-12111174D01*
X4650705Y-12111174D02*
X4650705Y-12158793D01*
X4650705Y-12158793D02*
X4641182Y-12196888D01*
X4641182Y-12196888D02*
X4631658Y-12215936D01*
X4631658Y-12215936D02*
X4622134Y-12225460D01*
X4622134Y-12225460D02*
X4603086Y-12234984D01*
X4603086Y-12234984D02*
X4584039Y-12234984D01*
X4584039Y-12234984D02*
X4564991Y-12225460D01*
X4564991Y-12225460D02*
X4555467Y-12215936D01*
X4555467Y-12215936D02*
X4545944Y-12196888D01*
X4545944Y-12196888D02*
X4536420Y-12158793D01*
X4536420Y-12158793D02*
X4536420Y-12111174D01*
X4536420Y-12111174D02*
X4545944Y-12073079D01*
X4545944Y-12073079D02*
X4555467Y-12054031D01*
X4555467Y-12054031D02*
X4564991Y-12044508D01*
X4564991Y-12044508D02*
X4584039Y-12034984D01*
X4736420Y-12234984D02*
X4736420Y-12101650D01*
X4736420Y-12120698D02*
X4745944Y-12111174D01*
X4745944Y-12111174D02*
X4764991Y-12101650D01*
X4764991Y-12101650D02*
X4793563Y-12101650D01*
X4793563Y-12101650D02*
X4812610Y-12111174D01*
X4812610Y-12111174D02*
X4822134Y-12130222D01*
X4822134Y-12130222D02*
X4822134Y-12234984D01*
X4822134Y-12130222D02*
X4831658Y-12111174D01*
X4831658Y-12111174D02*
X4850705Y-12101650D01*
X4850705Y-12101650D02*
X4879277Y-12101650D01*
X4879277Y-12101650D02*
X4898325Y-12111174D01*
X4898325Y-12111174D02*
X4907848Y-12130222D01*
X4907848Y-12130222D02*
X4907848Y-12234984D01*
X5003086Y-12234984D02*
X5003086Y-12101650D01*
X5003086Y-12120698D02*
X5012610Y-12111174D01*
X5012610Y-12111174D02*
X5031658Y-12101650D01*
X5031658Y-12101650D02*
X5060229Y-12101650D01*
X5060229Y-12101650D02*
X5079277Y-12111174D01*
X5079277Y-12111174D02*
X5088801Y-12130222D01*
X5088801Y-12130222D02*
X5088801Y-12234984D01*
X5088801Y-12130222D02*
X5098325Y-12111174D01*
X5098325Y-12111174D02*
X5117372Y-12101650D01*
X5117372Y-12101650D02*
X5145944Y-12101650D01*
X5145944Y-12101650D02*
X5164991Y-12111174D01*
X5164991Y-12111174D02*
X5174515Y-12130222D01*
X5174515Y-12130222D02*
X5174515Y-12234984D01*
X5564991Y-12025460D02*
X5393563Y-12282603D01*
X5822134Y-12034984D02*
X5841182Y-12034984D01*
X5841182Y-12034984D02*
X5860229Y-12044508D01*
X5860229Y-12044508D02*
X5869753Y-12054031D01*
X5869753Y-12054031D02*
X5879277Y-12073079D01*
X5879277Y-12073079D02*
X5888801Y-12111174D01*
X5888801Y-12111174D02*
X5888801Y-12158793D01*
X5888801Y-12158793D02*
X5879277Y-12196888D01*
X5879277Y-12196888D02*
X5869753Y-12215936D01*
X5869753Y-12215936D02*
X5860229Y-12225460D01*
X5860229Y-12225460D02*
X5841182Y-12234984D01*
X5841182Y-12234984D02*
X5822134Y-12234984D01*
X5822134Y-12234984D02*
X5803086Y-12225460D01*
X5803086Y-12225460D02*
X5793563Y-12215936D01*
X5793563Y-12215936D02*
X5784039Y-12196888D01*
X5784039Y-12196888D02*
X5774515Y-12158793D01*
X5774515Y-12158793D02*
X5774515Y-12111174D01*
X5774515Y-12111174D02*
X5784039Y-12073079D01*
X5784039Y-12073079D02*
X5793563Y-12054031D01*
X5793563Y-12054031D02*
X5803086Y-12044508D01*
X5803086Y-12044508D02*
X5822134Y-12034984D01*
X5974515Y-12215936D02*
X5984039Y-12225460D01*
X5984039Y-12225460D02*
X5974515Y-12234984D01*
X5974515Y-12234984D02*
X5964991Y-12225460D01*
X5964991Y-12225460D02*
X5974515Y-12215936D01*
X5974515Y-12215936D02*
X5974515Y-12234984D01*
X6107848Y-12034984D02*
X6126896Y-12034984D01*
X6126896Y-12034984D02*
X6145944Y-12044508D01*
X6145944Y-12044508D02*
X6155467Y-12054031D01*
X6155467Y-12054031D02*
X6164991Y-12073079D01*
X6164991Y-12073079D02*
X6174515Y-12111174D01*
X6174515Y-12111174D02*
X6174515Y-12158793D01*
X6174515Y-12158793D02*
X6164991Y-12196888D01*
X6164991Y-12196888D02*
X6155467Y-12215936D01*
X6155467Y-12215936D02*
X6145944Y-12225460D01*
X6145944Y-12225460D02*
X6126896Y-12234984D01*
X6126896Y-12234984D02*
X6107848Y-12234984D01*
X6107848Y-12234984D02*
X6088801Y-12225460D01*
X6088801Y-12225460D02*
X6079277Y-12215936D01*
X6079277Y-12215936D02*
X6069753Y-12196888D01*
X6069753Y-12196888D02*
X6060229Y-12158793D01*
X6060229Y-12158793D02*
X6060229Y-12111174D01*
X6060229Y-12111174D02*
X6069753Y-12073079D01*
X6069753Y-12073079D02*
X6079277Y-12054031D01*
X6079277Y-12054031D02*
X6088801Y-12044508D01*
X6088801Y-12044508D02*
X6107848Y-12034984D01*
X6345944Y-12034984D02*
X6307848Y-12034984D01*
X6307848Y-12034984D02*
X6288801Y-12044508D01*
X6288801Y-12044508D02*
X6279277Y-12054031D01*
X6279277Y-12054031D02*
X6260229Y-12082603D01*
X6260229Y-12082603D02*
X6250706Y-12120698D01*
X6250706Y-12120698D02*
X6250706Y-12196888D01*
X6250706Y-12196888D02*
X6260229Y-12215936D01*
X6260229Y-12215936D02*
X6269753Y-12225460D01*
X6269753Y-12225460D02*
X6288801Y-12234984D01*
X6288801Y-12234984D02*
X6326896Y-12234984D01*
X6326896Y-12234984D02*
X6345944Y-12225460D01*
X6345944Y-12225460D02*
X6355467Y-12215936D01*
X6355467Y-12215936D02*
X6364991Y-12196888D01*
X6364991Y-12196888D02*
X6364991Y-12149269D01*
X6364991Y-12149269D02*
X6355467Y-12130222D01*
X6355467Y-12130222D02*
X6345944Y-12120698D01*
X6345944Y-12120698D02*
X6326896Y-12111174D01*
X6326896Y-12111174D02*
X6288801Y-12111174D01*
X6288801Y-12111174D02*
X6269753Y-12120698D01*
X6269753Y-12120698D02*
X6260229Y-12130222D01*
X6260229Y-12130222D02*
X6250706Y-12149269D01*
X6431658Y-12034984D02*
X6555467Y-12034984D01*
X6555467Y-12034984D02*
X6488801Y-12111174D01*
X6488801Y-12111174D02*
X6517372Y-12111174D01*
X6517372Y-12111174D02*
X6536420Y-12120698D01*
X6536420Y-12120698D02*
X6545944Y-12130222D01*
X6545944Y-12130222D02*
X6555467Y-12149269D01*
X6555467Y-12149269D02*
X6555467Y-12196888D01*
X6555467Y-12196888D02*
X6545944Y-12215936D01*
X6545944Y-12215936D02*
X6536420Y-12225460D01*
X6536420Y-12225460D02*
X6517372Y-12234984D01*
X6517372Y-12234984D02*
X6460229Y-12234984D01*
X6460229Y-12234984D02*
X6441182Y-12225460D01*
X6441182Y-12225460D02*
X6431658Y-12215936D01*
X6679277Y-12034984D02*
X6698325Y-12034984D01*
X6698325Y-12034984D02*
X6717372Y-12044508D01*
X6717372Y-12044508D02*
X6726896Y-12054031D01*
X6726896Y-12054031D02*
X6736420Y-12073079D01*
X6736420Y-12073079D02*
X6745944Y-12111174D01*
X6745944Y-12111174D02*
X6745944Y-12158793D01*
X6745944Y-12158793D02*
X6736420Y-12196888D01*
X6736420Y-12196888D02*
X6726896Y-12215936D01*
X6726896Y-12215936D02*
X6717372Y-12225460D01*
X6717372Y-12225460D02*
X6698325Y-12234984D01*
X6698325Y-12234984D02*
X6679277Y-12234984D01*
X6679277Y-12234984D02*
X6660229Y-12225460D01*
X6660229Y-12225460D02*
X6650706Y-12215936D01*
X6650706Y-12215936D02*
X6641182Y-12196888D01*
X6641182Y-12196888D02*
X6631658Y-12158793D01*
X6631658Y-12158793D02*
X6631658Y-12111174D01*
X6631658Y-12111174D02*
X6641182Y-12073079D01*
X6641182Y-12073079D02*
X6650706Y-12054031D01*
X6650706Y-12054031D02*
X6660229Y-12044508D01*
X6660229Y-12044508D02*
X6679277Y-12034984D01*
X6822134Y-12034984D02*
X6822134Y-12073079D01*
X6898325Y-12034984D02*
X6898325Y-12073079D01*
X7193563Y-12311174D02*
X7184039Y-12301650D01*
X7184039Y-12301650D02*
X7164991Y-12273079D01*
X7164991Y-12273079D02*
X7155468Y-12254031D01*
X7155468Y-12254031D02*
X7145944Y-12225460D01*
X7145944Y-12225460D02*
X7136420Y-12177841D01*
X7136420Y-12177841D02*
X7136420Y-12139746D01*
X7136420Y-12139746D02*
X7145944Y-12092127D01*
X7145944Y-12092127D02*
X7155468Y-12063555D01*
X7155468Y-12063555D02*
X7164991Y-12044508D01*
X7164991Y-12044508D02*
X7184039Y-12015936D01*
X7184039Y-12015936D02*
X7193563Y-12006412D01*
X7374515Y-12234984D02*
X7260229Y-12234984D01*
X7317372Y-12234984D02*
X7317372Y-12034984D01*
X7317372Y-12034984D02*
X7298325Y-12063555D01*
X7298325Y-12063555D02*
X7279277Y-12082603D01*
X7279277Y-12082603D02*
X7260229Y-12092127D01*
X7450706Y-12054031D02*
X7460229Y-12044508D01*
X7460229Y-12044508D02*
X7479277Y-12034984D01*
X7479277Y-12034984D02*
X7526896Y-12034984D01*
X7526896Y-12034984D02*
X7545944Y-12044508D01*
X7545944Y-12044508D02*
X7555468Y-12054031D01*
X7555468Y-12054031D02*
X7564991Y-12073079D01*
X7564991Y-12073079D02*
X7564991Y-12092127D01*
X7564991Y-12092127D02*
X7555468Y-12120698D01*
X7555468Y-12120698D02*
X7441182Y-12234984D01*
X7441182Y-12234984D02*
X7564991Y-12234984D01*
X7803087Y-12234984D02*
X7803087Y-12034984D01*
X7888801Y-12234984D02*
X7888801Y-12130222D01*
X7888801Y-12130222D02*
X7879277Y-12111174D01*
X7879277Y-12111174D02*
X7860230Y-12101650D01*
X7860230Y-12101650D02*
X7831658Y-12101650D01*
X7831658Y-12101650D02*
X7812610Y-12111174D01*
X7812610Y-12111174D02*
X7803087Y-12120698D01*
X8012610Y-12234984D02*
X7993563Y-12225460D01*
X7993563Y-12225460D02*
X7984039Y-12215936D01*
X7984039Y-12215936D02*
X7974515Y-12196888D01*
X7974515Y-12196888D02*
X7974515Y-12139746D01*
X7974515Y-12139746D02*
X7984039Y-12120698D01*
X7984039Y-12120698D02*
X7993563Y-12111174D01*
X7993563Y-12111174D02*
X8012610Y-12101650D01*
X8012610Y-12101650D02*
X8041182Y-12101650D01*
X8041182Y-12101650D02*
X8060230Y-12111174D01*
X8060230Y-12111174D02*
X8069753Y-12120698D01*
X8069753Y-12120698D02*
X8079277Y-12139746D01*
X8079277Y-12139746D02*
X8079277Y-12196888D01*
X8079277Y-12196888D02*
X8069753Y-12215936D01*
X8069753Y-12215936D02*
X8060230Y-12225460D01*
X8060230Y-12225460D02*
X8041182Y-12234984D01*
X8041182Y-12234984D02*
X8012610Y-12234984D01*
X8193563Y-12234984D02*
X8174515Y-12225460D01*
X8174515Y-12225460D02*
X8164991Y-12206412D01*
X8164991Y-12206412D02*
X8164991Y-12034984D01*
X8345944Y-12225460D02*
X8326896Y-12234984D01*
X8326896Y-12234984D02*
X8288801Y-12234984D01*
X8288801Y-12234984D02*
X8269753Y-12225460D01*
X8269753Y-12225460D02*
X8260230Y-12206412D01*
X8260230Y-12206412D02*
X8260230Y-12130222D01*
X8260230Y-12130222D02*
X8269753Y-12111174D01*
X8269753Y-12111174D02*
X8288801Y-12101650D01*
X8288801Y-12101650D02*
X8326896Y-12101650D01*
X8326896Y-12101650D02*
X8345944Y-12111174D01*
X8345944Y-12111174D02*
X8355468Y-12130222D01*
X8355468Y-12130222D02*
X8355468Y-12149269D01*
X8355468Y-12149269D02*
X8260230Y-12168317D01*
X8431658Y-12225460D02*
X8450706Y-12234984D01*
X8450706Y-12234984D02*
X8488801Y-12234984D01*
X8488801Y-12234984D02*
X8507849Y-12225460D01*
X8507849Y-12225460D02*
X8517373Y-12206412D01*
X8517373Y-12206412D02*
X8517373Y-12196888D01*
X8517373Y-12196888D02*
X8507849Y-12177841D01*
X8507849Y-12177841D02*
X8488801Y-12168317D01*
X8488801Y-12168317D02*
X8460230Y-12168317D01*
X8460230Y-12168317D02*
X8441182Y-12158793D01*
X8441182Y-12158793D02*
X8431658Y-12139746D01*
X8431658Y-12139746D02*
X8431658Y-12130222D01*
X8431658Y-12130222D02*
X8441182Y-12111174D01*
X8441182Y-12111174D02*
X8460230Y-12101650D01*
X8460230Y-12101650D02*
X8488801Y-12101650D01*
X8488801Y-12101650D02*
X8507849Y-12111174D01*
X8584039Y-12311174D02*
X8593563Y-12301650D01*
X8593563Y-12301650D02*
X8612611Y-12273079D01*
X8612611Y-12273079D02*
X8622134Y-12254031D01*
X8622134Y-12254031D02*
X8631658Y-12225460D01*
X8631658Y-12225460D02*
X8641182Y-12177841D01*
X8641182Y-12177841D02*
X8641182Y-12139746D01*
X8641182Y-12139746D02*
X8631658Y-12092127D01*
X8631658Y-12092127D02*
X8622134Y-12063555D01*
X8622134Y-12063555D02*
X8612611Y-12044508D01*
X8612611Y-12044508D02*
X8593563Y-12015936D01*
X8593563Y-12015936D02*
X8584039Y-12006412D01*
X3418500Y-12323500D02*
X3618500Y-12523500D01*
X3618500Y-12323500D02*
X3418500Y-12523500D01*
X3589211Y-12494211D02*
X3589211Y-12352789D01*
X3447789Y-12352789D01*
X3447789Y-12494211D01*
X3589211Y-12494211D01*
X3860229Y-12314984D02*
X3984039Y-12314984D01*
X3984039Y-12314984D02*
X3917372Y-12391174D01*
X3917372Y-12391174D02*
X3945943Y-12391174D01*
X3945943Y-12391174D02*
X3964991Y-12400698D01*
X3964991Y-12400698D02*
X3974515Y-12410222D01*
X3974515Y-12410222D02*
X3984039Y-12429269D01*
X3984039Y-12429269D02*
X3984039Y-12476888D01*
X3984039Y-12476888D02*
X3974515Y-12495936D01*
X3974515Y-12495936D02*
X3964991Y-12505460D01*
X3964991Y-12505460D02*
X3945943Y-12514984D01*
X3945943Y-12514984D02*
X3888801Y-12514984D01*
X3888801Y-12514984D02*
X3869753Y-12505460D01*
X3869753Y-12505460D02*
X3860229Y-12495936D01*
X4069753Y-12495936D02*
X4079277Y-12505460D01*
X4079277Y-12505460D02*
X4069753Y-12514984D01*
X4069753Y-12514984D02*
X4060229Y-12505460D01*
X4060229Y-12505460D02*
X4069753Y-12495936D01*
X4069753Y-12495936D02*
X4069753Y-12514984D01*
X4203086Y-12314984D02*
X4222134Y-12314984D01*
X4222134Y-12314984D02*
X4241182Y-12324508D01*
X4241182Y-12324508D02*
X4250705Y-12334031D01*
X4250705Y-12334031D02*
X4260229Y-12353079D01*
X4260229Y-12353079D02*
X4269753Y-12391174D01*
X4269753Y-12391174D02*
X4269753Y-12438793D01*
X4269753Y-12438793D02*
X4260229Y-12476888D01*
X4260229Y-12476888D02*
X4250705Y-12495936D01*
X4250705Y-12495936D02*
X4241182Y-12505460D01*
X4241182Y-12505460D02*
X4222134Y-12514984D01*
X4222134Y-12514984D02*
X4203086Y-12514984D01*
X4203086Y-12514984D02*
X4184039Y-12505460D01*
X4184039Y-12505460D02*
X4174515Y-12495936D01*
X4174515Y-12495936D02*
X4164991Y-12476888D01*
X4164991Y-12476888D02*
X4155467Y-12438793D01*
X4155467Y-12438793D02*
X4155467Y-12391174D01*
X4155467Y-12391174D02*
X4164991Y-12353079D01*
X4164991Y-12353079D02*
X4174515Y-12334031D01*
X4174515Y-12334031D02*
X4184039Y-12324508D01*
X4184039Y-12324508D02*
X4203086Y-12314984D01*
X4441182Y-12381650D02*
X4441182Y-12514984D01*
X4393563Y-12305460D02*
X4345944Y-12448317D01*
X4345944Y-12448317D02*
X4469753Y-12448317D01*
X4574515Y-12400698D02*
X4555467Y-12391174D01*
X4555467Y-12391174D02*
X4545944Y-12381650D01*
X4545944Y-12381650D02*
X4536420Y-12362603D01*
X4536420Y-12362603D02*
X4536420Y-12353079D01*
X4536420Y-12353079D02*
X4545944Y-12334031D01*
X4545944Y-12334031D02*
X4555467Y-12324508D01*
X4555467Y-12324508D02*
X4574515Y-12314984D01*
X4574515Y-12314984D02*
X4612610Y-12314984D01*
X4612610Y-12314984D02*
X4631658Y-12324508D01*
X4631658Y-12324508D02*
X4641182Y-12334031D01*
X4641182Y-12334031D02*
X4650705Y-12353079D01*
X4650705Y-12353079D02*
X4650705Y-12362603D01*
X4650705Y-12362603D02*
X4641182Y-12381650D01*
X4641182Y-12381650D02*
X4631658Y-12391174D01*
X4631658Y-12391174D02*
X4612610Y-12400698D01*
X4612610Y-12400698D02*
X4574515Y-12400698D01*
X4574515Y-12400698D02*
X4555467Y-12410222D01*
X4555467Y-12410222D02*
X4545944Y-12419746D01*
X4545944Y-12419746D02*
X4536420Y-12438793D01*
X4536420Y-12438793D02*
X4536420Y-12476888D01*
X4536420Y-12476888D02*
X4545944Y-12495936D01*
X4545944Y-12495936D02*
X4555467Y-12505460D01*
X4555467Y-12505460D02*
X4574515Y-12514984D01*
X4574515Y-12514984D02*
X4612610Y-12514984D01*
X4612610Y-12514984D02*
X4631658Y-12505460D01*
X4631658Y-12505460D02*
X4641182Y-12495936D01*
X4641182Y-12495936D02*
X4650705Y-12476888D01*
X4650705Y-12476888D02*
X4650705Y-12438793D01*
X4650705Y-12438793D02*
X4641182Y-12419746D01*
X4641182Y-12419746D02*
X4631658Y-12410222D01*
X4631658Y-12410222D02*
X4612610Y-12400698D01*
X4736420Y-12514984D02*
X4736420Y-12381650D01*
X4736420Y-12400698D02*
X4745944Y-12391174D01*
X4745944Y-12391174D02*
X4764991Y-12381650D01*
X4764991Y-12381650D02*
X4793563Y-12381650D01*
X4793563Y-12381650D02*
X4812610Y-12391174D01*
X4812610Y-12391174D02*
X4822134Y-12410222D01*
X4822134Y-12410222D02*
X4822134Y-12514984D01*
X4822134Y-12410222D02*
X4831658Y-12391174D01*
X4831658Y-12391174D02*
X4850705Y-12381650D01*
X4850705Y-12381650D02*
X4879277Y-12381650D01*
X4879277Y-12381650D02*
X4898325Y-12391174D01*
X4898325Y-12391174D02*
X4907848Y-12410222D01*
X4907848Y-12410222D02*
X4907848Y-12514984D01*
X5003086Y-12514984D02*
X5003086Y-12381650D01*
X5003086Y-12400698D02*
X5012610Y-12391174D01*
X5012610Y-12391174D02*
X5031658Y-12381650D01*
X5031658Y-12381650D02*
X5060229Y-12381650D01*
X5060229Y-12381650D02*
X5079277Y-12391174D01*
X5079277Y-12391174D02*
X5088801Y-12410222D01*
X5088801Y-12410222D02*
X5088801Y-12514984D01*
X5088801Y-12410222D02*
X5098325Y-12391174D01*
X5098325Y-12391174D02*
X5117372Y-12381650D01*
X5117372Y-12381650D02*
X5145944Y-12381650D01*
X5145944Y-12381650D02*
X5164991Y-12391174D01*
X5164991Y-12391174D02*
X5174515Y-12410222D01*
X5174515Y-12410222D02*
X5174515Y-12514984D01*
X5564991Y-12305460D02*
X5393563Y-12562603D01*
X5822134Y-12314984D02*
X5841182Y-12314984D01*
X5841182Y-12314984D02*
X5860229Y-12324508D01*
X5860229Y-12324508D02*
X5869753Y-12334031D01*
X5869753Y-12334031D02*
X5879277Y-12353079D01*
X5879277Y-12353079D02*
X5888801Y-12391174D01*
X5888801Y-12391174D02*
X5888801Y-12438793D01*
X5888801Y-12438793D02*
X5879277Y-12476888D01*
X5879277Y-12476888D02*
X5869753Y-12495936D01*
X5869753Y-12495936D02*
X5860229Y-12505460D01*
X5860229Y-12505460D02*
X5841182Y-12514984D01*
X5841182Y-12514984D02*
X5822134Y-12514984D01*
X5822134Y-12514984D02*
X5803086Y-12505460D01*
X5803086Y-12505460D02*
X5793563Y-12495936D01*
X5793563Y-12495936D02*
X5784039Y-12476888D01*
X5784039Y-12476888D02*
X5774515Y-12438793D01*
X5774515Y-12438793D02*
X5774515Y-12391174D01*
X5774515Y-12391174D02*
X5784039Y-12353079D01*
X5784039Y-12353079D02*
X5793563Y-12334031D01*
X5793563Y-12334031D02*
X5803086Y-12324508D01*
X5803086Y-12324508D02*
X5822134Y-12314984D01*
X5974515Y-12495936D02*
X5984039Y-12505460D01*
X5984039Y-12505460D02*
X5974515Y-12514984D01*
X5974515Y-12514984D02*
X5964991Y-12505460D01*
X5964991Y-12505460D02*
X5974515Y-12495936D01*
X5974515Y-12495936D02*
X5974515Y-12514984D01*
X6174515Y-12514984D02*
X6060229Y-12514984D01*
X6117372Y-12514984D02*
X6117372Y-12314984D01*
X6117372Y-12314984D02*
X6098325Y-12343555D01*
X6098325Y-12343555D02*
X6079277Y-12362603D01*
X6079277Y-12362603D02*
X6060229Y-12372127D01*
X6250706Y-12334031D02*
X6260229Y-12324508D01*
X6260229Y-12324508D02*
X6279277Y-12314984D01*
X6279277Y-12314984D02*
X6326896Y-12314984D01*
X6326896Y-12314984D02*
X6345944Y-12324508D01*
X6345944Y-12324508D02*
X6355467Y-12334031D01*
X6355467Y-12334031D02*
X6364991Y-12353079D01*
X6364991Y-12353079D02*
X6364991Y-12372127D01*
X6364991Y-12372127D02*
X6355467Y-12400698D01*
X6355467Y-12400698D02*
X6241182Y-12514984D01*
X6241182Y-12514984D02*
X6364991Y-12514984D01*
X6488801Y-12314984D02*
X6507848Y-12314984D01*
X6507848Y-12314984D02*
X6526896Y-12324508D01*
X6526896Y-12324508D02*
X6536420Y-12334031D01*
X6536420Y-12334031D02*
X6545944Y-12353079D01*
X6545944Y-12353079D02*
X6555467Y-12391174D01*
X6555467Y-12391174D02*
X6555467Y-12438793D01*
X6555467Y-12438793D02*
X6545944Y-12476888D01*
X6545944Y-12476888D02*
X6536420Y-12495936D01*
X6536420Y-12495936D02*
X6526896Y-12505460D01*
X6526896Y-12505460D02*
X6507848Y-12514984D01*
X6507848Y-12514984D02*
X6488801Y-12514984D01*
X6488801Y-12514984D02*
X6469753Y-12505460D01*
X6469753Y-12505460D02*
X6460229Y-12495936D01*
X6460229Y-12495936D02*
X6450706Y-12476888D01*
X6450706Y-12476888D02*
X6441182Y-12438793D01*
X6441182Y-12438793D02*
X6441182Y-12391174D01*
X6441182Y-12391174D02*
X6450706Y-12353079D01*
X6450706Y-12353079D02*
X6460229Y-12334031D01*
X6460229Y-12334031D02*
X6469753Y-12324508D01*
X6469753Y-12324508D02*
X6488801Y-12314984D01*
X6679277Y-12314984D02*
X6698325Y-12314984D01*
X6698325Y-12314984D02*
X6717372Y-12324508D01*
X6717372Y-12324508D02*
X6726896Y-12334031D01*
X6726896Y-12334031D02*
X6736420Y-12353079D01*
X6736420Y-12353079D02*
X6745944Y-12391174D01*
X6745944Y-12391174D02*
X6745944Y-12438793D01*
X6745944Y-12438793D02*
X6736420Y-12476888D01*
X6736420Y-12476888D02*
X6726896Y-12495936D01*
X6726896Y-12495936D02*
X6717372Y-12505460D01*
X6717372Y-12505460D02*
X6698325Y-12514984D01*
X6698325Y-12514984D02*
X6679277Y-12514984D01*
X6679277Y-12514984D02*
X6660229Y-12505460D01*
X6660229Y-12505460D02*
X6650706Y-12495936D01*
X6650706Y-12495936D02*
X6641182Y-12476888D01*
X6641182Y-12476888D02*
X6631658Y-12438793D01*
X6631658Y-12438793D02*
X6631658Y-12391174D01*
X6631658Y-12391174D02*
X6641182Y-12353079D01*
X6641182Y-12353079D02*
X6650706Y-12334031D01*
X6650706Y-12334031D02*
X6660229Y-12324508D01*
X6660229Y-12324508D02*
X6679277Y-12314984D01*
X6822134Y-12314984D02*
X6822134Y-12353079D01*
X6898325Y-12314984D02*
X6898325Y-12353079D01*
X7193563Y-12591174D02*
X7184039Y-12581650D01*
X7184039Y-12581650D02*
X7164991Y-12553079D01*
X7164991Y-12553079D02*
X7155468Y-12534031D01*
X7155468Y-12534031D02*
X7145944Y-12505460D01*
X7145944Y-12505460D02*
X7136420Y-12457841D01*
X7136420Y-12457841D02*
X7136420Y-12419746D01*
X7136420Y-12419746D02*
X7145944Y-12372127D01*
X7145944Y-12372127D02*
X7155468Y-12343555D01*
X7155468Y-12343555D02*
X7164991Y-12324508D01*
X7164991Y-12324508D02*
X7184039Y-12295936D01*
X7184039Y-12295936D02*
X7193563Y-12286412D01*
X7355468Y-12381650D02*
X7355468Y-12514984D01*
X7307848Y-12305460D02*
X7260229Y-12448317D01*
X7260229Y-12448317D02*
X7384039Y-12448317D01*
X7612610Y-12514984D02*
X7612610Y-12314984D01*
X7698325Y-12514984D02*
X7698325Y-12410222D01*
X7698325Y-12410222D02*
X7688801Y-12391174D01*
X7688801Y-12391174D02*
X7669753Y-12381650D01*
X7669753Y-12381650D02*
X7641182Y-12381650D01*
X7641182Y-12381650D02*
X7622134Y-12391174D01*
X7622134Y-12391174D02*
X7612610Y-12400698D01*
X7822134Y-12514984D02*
X7803087Y-12505460D01*
X7803087Y-12505460D02*
X7793563Y-12495936D01*
X7793563Y-12495936D02*
X7784039Y-12476888D01*
X7784039Y-12476888D02*
X7784039Y-12419746D01*
X7784039Y-12419746D02*
X7793563Y-12400698D01*
X7793563Y-12400698D02*
X7803087Y-12391174D01*
X7803087Y-12391174D02*
X7822134Y-12381650D01*
X7822134Y-12381650D02*
X7850706Y-12381650D01*
X7850706Y-12381650D02*
X7869753Y-12391174D01*
X7869753Y-12391174D02*
X7879277Y-12400698D01*
X7879277Y-12400698D02*
X7888801Y-12419746D01*
X7888801Y-12419746D02*
X7888801Y-12476888D01*
X7888801Y-12476888D02*
X7879277Y-12495936D01*
X7879277Y-12495936D02*
X7869753Y-12505460D01*
X7869753Y-12505460D02*
X7850706Y-12514984D01*
X7850706Y-12514984D02*
X7822134Y-12514984D01*
X8003087Y-12514984D02*
X7984039Y-12505460D01*
X7984039Y-12505460D02*
X7974515Y-12486412D01*
X7974515Y-12486412D02*
X7974515Y-12314984D01*
X8155468Y-12505460D02*
X8136420Y-12514984D01*
X8136420Y-12514984D02*
X8098325Y-12514984D01*
X8098325Y-12514984D02*
X8079277Y-12505460D01*
X8079277Y-12505460D02*
X8069753Y-12486412D01*
X8069753Y-12486412D02*
X8069753Y-12410222D01*
X8069753Y-12410222D02*
X8079277Y-12391174D01*
X8079277Y-12391174D02*
X8098325Y-12381650D01*
X8098325Y-12381650D02*
X8136420Y-12381650D01*
X8136420Y-12381650D02*
X8155468Y-12391174D01*
X8155468Y-12391174D02*
X8164991Y-12410222D01*
X8164991Y-12410222D02*
X8164991Y-12429269D01*
X8164991Y-12429269D02*
X8069753Y-12448317D01*
X8241182Y-12505460D02*
X8260230Y-12514984D01*
X8260230Y-12514984D02*
X8298325Y-12514984D01*
X8298325Y-12514984D02*
X8317372Y-12505460D01*
X8317372Y-12505460D02*
X8326896Y-12486412D01*
X8326896Y-12486412D02*
X8326896Y-12476888D01*
X8326896Y-12476888D02*
X8317372Y-12457841D01*
X8317372Y-12457841D02*
X8298325Y-12448317D01*
X8298325Y-12448317D02*
X8269753Y-12448317D01*
X8269753Y-12448317D02*
X8250706Y-12438793D01*
X8250706Y-12438793D02*
X8241182Y-12419746D01*
X8241182Y-12419746D02*
X8241182Y-12410222D01*
X8241182Y-12410222D02*
X8250706Y-12391174D01*
X8250706Y-12391174D02*
X8269753Y-12381650D01*
X8269753Y-12381650D02*
X8298325Y-12381650D01*
X8298325Y-12381650D02*
X8317372Y-12391174D01*
X8393563Y-12591174D02*
X8403087Y-12581650D01*
X8403087Y-12581650D02*
X8422134Y-12553079D01*
X8422134Y-12553079D02*
X8431658Y-12534031D01*
X8431658Y-12534031D02*
X8441182Y-12505460D01*
X8441182Y-12505460D02*
X8450706Y-12457841D01*
X8450706Y-12457841D02*
X8450706Y-12419746D01*
X8450706Y-12419746D02*
X8441182Y-12372127D01*
X8441182Y-12372127D02*
X8431658Y-12343555D01*
X8431658Y-12343555D02*
X8422134Y-12324508D01*
X8422134Y-12324508D02*
X8403087Y-12295936D01*
X8403087Y-12295936D02*
X8393563Y-12286412D01*
X3418500Y-12643500D02*
X3618500Y-12843500D01*
X3618500Y-12643500D02*
X3418500Y-12843500D01*
X3518500Y-12843500D02*
X3618500Y-12743500D01*
X3518500Y-12643500D01*
X3418500Y-12743500D01*
X3518500Y-12843500D01*
X3964991Y-12701650D02*
X3964991Y-12834984D01*
X3917372Y-12625460D02*
X3869753Y-12768317D01*
X3869753Y-12768317D02*
X3993562Y-12768317D01*
X4069753Y-12815936D02*
X4079277Y-12825460D01*
X4079277Y-12825460D02*
X4069753Y-12834984D01*
X4069753Y-12834984D02*
X4060229Y-12825460D01*
X4060229Y-12825460D02*
X4069753Y-12815936D01*
X4069753Y-12815936D02*
X4069753Y-12834984D01*
X4145943Y-12634984D02*
X4269753Y-12634984D01*
X4269753Y-12634984D02*
X4203086Y-12711174D01*
X4203086Y-12711174D02*
X4231658Y-12711174D01*
X4231658Y-12711174D02*
X4250705Y-12720698D01*
X4250705Y-12720698D02*
X4260229Y-12730222D01*
X4260229Y-12730222D02*
X4269753Y-12749269D01*
X4269753Y-12749269D02*
X4269753Y-12796888D01*
X4269753Y-12796888D02*
X4260229Y-12815936D01*
X4260229Y-12815936D02*
X4250705Y-12825460D01*
X4250705Y-12825460D02*
X4231658Y-12834984D01*
X4231658Y-12834984D02*
X4174515Y-12834984D01*
X4174515Y-12834984D02*
X4155467Y-12825460D01*
X4155467Y-12825460D02*
X4145943Y-12815936D01*
X4393563Y-12634984D02*
X4412610Y-12634984D01*
X4412610Y-12634984D02*
X4431658Y-12644508D01*
X4431658Y-12644508D02*
X4441182Y-12654031D01*
X4441182Y-12654031D02*
X4450705Y-12673079D01*
X4450705Y-12673079D02*
X4460229Y-12711174D01*
X4460229Y-12711174D02*
X4460229Y-12758793D01*
X4460229Y-12758793D02*
X4450705Y-12796888D01*
X4450705Y-12796888D02*
X4441182Y-12815936D01*
X4441182Y-12815936D02*
X4431658Y-12825460D01*
X4431658Y-12825460D02*
X4412610Y-12834984D01*
X4412610Y-12834984D02*
X4393563Y-12834984D01*
X4393563Y-12834984D02*
X4374515Y-12825460D01*
X4374515Y-12825460D02*
X4364991Y-12815936D01*
X4364991Y-12815936D02*
X4355467Y-12796888D01*
X4355467Y-12796888D02*
X4345944Y-12758793D01*
X4345944Y-12758793D02*
X4345944Y-12711174D01*
X4345944Y-12711174D02*
X4355467Y-12673079D01*
X4355467Y-12673079D02*
X4364991Y-12654031D01*
X4364991Y-12654031D02*
X4374515Y-12644508D01*
X4374515Y-12644508D02*
X4393563Y-12634984D01*
X4584039Y-12634984D02*
X4603086Y-12634984D01*
X4603086Y-12634984D02*
X4622134Y-12644508D01*
X4622134Y-12644508D02*
X4631658Y-12654031D01*
X4631658Y-12654031D02*
X4641182Y-12673079D01*
X4641182Y-12673079D02*
X4650705Y-12711174D01*
X4650705Y-12711174D02*
X4650705Y-12758793D01*
X4650705Y-12758793D02*
X4641182Y-12796888D01*
X4641182Y-12796888D02*
X4631658Y-12815936D01*
X4631658Y-12815936D02*
X4622134Y-12825460D01*
X4622134Y-12825460D02*
X4603086Y-12834984D01*
X4603086Y-12834984D02*
X4584039Y-12834984D01*
X4584039Y-12834984D02*
X4564991Y-12825460D01*
X4564991Y-12825460D02*
X4555467Y-12815936D01*
X4555467Y-12815936D02*
X4545944Y-12796888D01*
X4545944Y-12796888D02*
X4536420Y-12758793D01*
X4536420Y-12758793D02*
X4536420Y-12711174D01*
X4536420Y-12711174D02*
X4545944Y-12673079D01*
X4545944Y-12673079D02*
X4555467Y-12654031D01*
X4555467Y-12654031D02*
X4564991Y-12644508D01*
X4564991Y-12644508D02*
X4584039Y-12634984D01*
X4736420Y-12834984D02*
X4736420Y-12701650D01*
X4736420Y-12720698D02*
X4745944Y-12711174D01*
X4745944Y-12711174D02*
X4764991Y-12701650D01*
X4764991Y-12701650D02*
X4793563Y-12701650D01*
X4793563Y-12701650D02*
X4812610Y-12711174D01*
X4812610Y-12711174D02*
X4822134Y-12730222D01*
X4822134Y-12730222D02*
X4822134Y-12834984D01*
X4822134Y-12730222D02*
X4831658Y-12711174D01*
X4831658Y-12711174D02*
X4850705Y-12701650D01*
X4850705Y-12701650D02*
X4879277Y-12701650D01*
X4879277Y-12701650D02*
X4898325Y-12711174D01*
X4898325Y-12711174D02*
X4907848Y-12730222D01*
X4907848Y-12730222D02*
X4907848Y-12834984D01*
X5003086Y-12834984D02*
X5003086Y-12701650D01*
X5003086Y-12720698D02*
X5012610Y-12711174D01*
X5012610Y-12711174D02*
X5031658Y-12701650D01*
X5031658Y-12701650D02*
X5060229Y-12701650D01*
X5060229Y-12701650D02*
X5079277Y-12711174D01*
X5079277Y-12711174D02*
X5088801Y-12730222D01*
X5088801Y-12730222D02*
X5088801Y-12834984D01*
X5088801Y-12730222D02*
X5098325Y-12711174D01*
X5098325Y-12711174D02*
X5117372Y-12701650D01*
X5117372Y-12701650D02*
X5145944Y-12701650D01*
X5145944Y-12701650D02*
X5164991Y-12711174D01*
X5164991Y-12711174D02*
X5174515Y-12730222D01*
X5174515Y-12730222D02*
X5174515Y-12834984D01*
X5564991Y-12625460D02*
X5393563Y-12882603D01*
X5822134Y-12634984D02*
X5841182Y-12634984D01*
X5841182Y-12634984D02*
X5860229Y-12644508D01*
X5860229Y-12644508D02*
X5869753Y-12654031D01*
X5869753Y-12654031D02*
X5879277Y-12673079D01*
X5879277Y-12673079D02*
X5888801Y-12711174D01*
X5888801Y-12711174D02*
X5888801Y-12758793D01*
X5888801Y-12758793D02*
X5879277Y-12796888D01*
X5879277Y-12796888D02*
X5869753Y-12815936D01*
X5869753Y-12815936D02*
X5860229Y-12825460D01*
X5860229Y-12825460D02*
X5841182Y-12834984D01*
X5841182Y-12834984D02*
X5822134Y-12834984D01*
X5822134Y-12834984D02*
X5803086Y-12825460D01*
X5803086Y-12825460D02*
X5793563Y-12815936D01*
X5793563Y-12815936D02*
X5784039Y-12796888D01*
X5784039Y-12796888D02*
X5774515Y-12758793D01*
X5774515Y-12758793D02*
X5774515Y-12711174D01*
X5774515Y-12711174D02*
X5784039Y-12673079D01*
X5784039Y-12673079D02*
X5793563Y-12654031D01*
X5793563Y-12654031D02*
X5803086Y-12644508D01*
X5803086Y-12644508D02*
X5822134Y-12634984D01*
X5974515Y-12815936D02*
X5984039Y-12825460D01*
X5984039Y-12825460D02*
X5974515Y-12834984D01*
X5974515Y-12834984D02*
X5964991Y-12825460D01*
X5964991Y-12825460D02*
X5974515Y-12815936D01*
X5974515Y-12815936D02*
X5974515Y-12834984D01*
X6174515Y-12834984D02*
X6060229Y-12834984D01*
X6117372Y-12834984D02*
X6117372Y-12634984D01*
X6117372Y-12634984D02*
X6098325Y-12663555D01*
X6098325Y-12663555D02*
X6079277Y-12682603D01*
X6079277Y-12682603D02*
X6060229Y-12692127D01*
X6345944Y-12634984D02*
X6307848Y-12634984D01*
X6307848Y-12634984D02*
X6288801Y-12644508D01*
X6288801Y-12644508D02*
X6279277Y-12654031D01*
X6279277Y-12654031D02*
X6260229Y-12682603D01*
X6260229Y-12682603D02*
X6250706Y-12720698D01*
X6250706Y-12720698D02*
X6250706Y-12796888D01*
X6250706Y-12796888D02*
X6260229Y-12815936D01*
X6260229Y-12815936D02*
X6269753Y-12825460D01*
X6269753Y-12825460D02*
X6288801Y-12834984D01*
X6288801Y-12834984D02*
X6326896Y-12834984D01*
X6326896Y-12834984D02*
X6345944Y-12825460D01*
X6345944Y-12825460D02*
X6355467Y-12815936D01*
X6355467Y-12815936D02*
X6364991Y-12796888D01*
X6364991Y-12796888D02*
X6364991Y-12749269D01*
X6364991Y-12749269D02*
X6355467Y-12730222D01*
X6355467Y-12730222D02*
X6345944Y-12720698D01*
X6345944Y-12720698D02*
X6326896Y-12711174D01*
X6326896Y-12711174D02*
X6288801Y-12711174D01*
X6288801Y-12711174D02*
X6269753Y-12720698D01*
X6269753Y-12720698D02*
X6260229Y-12730222D01*
X6260229Y-12730222D02*
X6250706Y-12749269D01*
X6460229Y-12834984D02*
X6498325Y-12834984D01*
X6498325Y-12834984D02*
X6517372Y-12825460D01*
X6517372Y-12825460D02*
X6526896Y-12815936D01*
X6526896Y-12815936D02*
X6545944Y-12787365D01*
X6545944Y-12787365D02*
X6555467Y-12749269D01*
X6555467Y-12749269D02*
X6555467Y-12673079D01*
X6555467Y-12673079D02*
X6545944Y-12654031D01*
X6545944Y-12654031D02*
X6536420Y-12644508D01*
X6536420Y-12644508D02*
X6517372Y-12634984D01*
X6517372Y-12634984D02*
X6479277Y-12634984D01*
X6479277Y-12634984D02*
X6460229Y-12644508D01*
X6460229Y-12644508D02*
X6450706Y-12654031D01*
X6450706Y-12654031D02*
X6441182Y-12673079D01*
X6441182Y-12673079D02*
X6441182Y-12720698D01*
X6441182Y-12720698D02*
X6450706Y-12739746D01*
X6450706Y-12739746D02*
X6460229Y-12749269D01*
X6460229Y-12749269D02*
X6479277Y-12758793D01*
X6479277Y-12758793D02*
X6517372Y-12758793D01*
X6517372Y-12758793D02*
X6536420Y-12749269D01*
X6536420Y-12749269D02*
X6545944Y-12739746D01*
X6545944Y-12739746D02*
X6555467Y-12720698D01*
X6622134Y-12634984D02*
X6745944Y-12634984D01*
X6745944Y-12634984D02*
X6679277Y-12711174D01*
X6679277Y-12711174D02*
X6707848Y-12711174D01*
X6707848Y-12711174D02*
X6726896Y-12720698D01*
X6726896Y-12720698D02*
X6736420Y-12730222D01*
X6736420Y-12730222D02*
X6745944Y-12749269D01*
X6745944Y-12749269D02*
X6745944Y-12796888D01*
X6745944Y-12796888D02*
X6736420Y-12815936D01*
X6736420Y-12815936D02*
X6726896Y-12825460D01*
X6726896Y-12825460D02*
X6707848Y-12834984D01*
X6707848Y-12834984D02*
X6650706Y-12834984D01*
X6650706Y-12834984D02*
X6631658Y-12825460D01*
X6631658Y-12825460D02*
X6622134Y-12815936D01*
X6822134Y-12634984D02*
X6822134Y-12673079D01*
X6898325Y-12634984D02*
X6898325Y-12673079D01*
X7193563Y-12911174D02*
X7184039Y-12901650D01*
X7184039Y-12901650D02*
X7164991Y-12873079D01*
X7164991Y-12873079D02*
X7155468Y-12854031D01*
X7155468Y-12854031D02*
X7145944Y-12825460D01*
X7145944Y-12825460D02*
X7136420Y-12777841D01*
X7136420Y-12777841D02*
X7136420Y-12739746D01*
X7136420Y-12739746D02*
X7145944Y-12692127D01*
X7145944Y-12692127D02*
X7155468Y-12663555D01*
X7155468Y-12663555D02*
X7164991Y-12644508D01*
X7164991Y-12644508D02*
X7184039Y-12615936D01*
X7184039Y-12615936D02*
X7193563Y-12606412D01*
X7355468Y-12701650D02*
X7355468Y-12834984D01*
X7307848Y-12625460D02*
X7260229Y-12768317D01*
X7260229Y-12768317D02*
X7384039Y-12768317D01*
X7612610Y-12834984D02*
X7612610Y-12634984D01*
X7698325Y-12834984D02*
X7698325Y-12730222D01*
X7698325Y-12730222D02*
X7688801Y-12711174D01*
X7688801Y-12711174D02*
X7669753Y-12701650D01*
X7669753Y-12701650D02*
X7641182Y-12701650D01*
X7641182Y-12701650D02*
X7622134Y-12711174D01*
X7622134Y-12711174D02*
X7612610Y-12720698D01*
X7822134Y-12834984D02*
X7803087Y-12825460D01*
X7803087Y-12825460D02*
X7793563Y-12815936D01*
X7793563Y-12815936D02*
X7784039Y-12796888D01*
X7784039Y-12796888D02*
X7784039Y-12739746D01*
X7784039Y-12739746D02*
X7793563Y-12720698D01*
X7793563Y-12720698D02*
X7803087Y-12711174D01*
X7803087Y-12711174D02*
X7822134Y-12701650D01*
X7822134Y-12701650D02*
X7850706Y-12701650D01*
X7850706Y-12701650D02*
X7869753Y-12711174D01*
X7869753Y-12711174D02*
X7879277Y-12720698D01*
X7879277Y-12720698D02*
X7888801Y-12739746D01*
X7888801Y-12739746D02*
X7888801Y-12796888D01*
X7888801Y-12796888D02*
X7879277Y-12815936D01*
X7879277Y-12815936D02*
X7869753Y-12825460D01*
X7869753Y-12825460D02*
X7850706Y-12834984D01*
X7850706Y-12834984D02*
X7822134Y-12834984D01*
X8003087Y-12834984D02*
X7984039Y-12825460D01*
X7984039Y-12825460D02*
X7974515Y-12806412D01*
X7974515Y-12806412D02*
X7974515Y-12634984D01*
X8155468Y-12825460D02*
X8136420Y-12834984D01*
X8136420Y-12834984D02*
X8098325Y-12834984D01*
X8098325Y-12834984D02*
X8079277Y-12825460D01*
X8079277Y-12825460D02*
X8069753Y-12806412D01*
X8069753Y-12806412D02*
X8069753Y-12730222D01*
X8069753Y-12730222D02*
X8079277Y-12711174D01*
X8079277Y-12711174D02*
X8098325Y-12701650D01*
X8098325Y-12701650D02*
X8136420Y-12701650D01*
X8136420Y-12701650D02*
X8155468Y-12711174D01*
X8155468Y-12711174D02*
X8164991Y-12730222D01*
X8164991Y-12730222D02*
X8164991Y-12749269D01*
X8164991Y-12749269D02*
X8069753Y-12768317D01*
X8241182Y-12825460D02*
X8260230Y-12834984D01*
X8260230Y-12834984D02*
X8298325Y-12834984D01*
X8298325Y-12834984D02*
X8317372Y-12825460D01*
X8317372Y-12825460D02*
X8326896Y-12806412D01*
X8326896Y-12806412D02*
X8326896Y-12796888D01*
X8326896Y-12796888D02*
X8317372Y-12777841D01*
X8317372Y-12777841D02*
X8298325Y-12768317D01*
X8298325Y-12768317D02*
X8269753Y-12768317D01*
X8269753Y-12768317D02*
X8250706Y-12758793D01*
X8250706Y-12758793D02*
X8241182Y-12739746D01*
X8241182Y-12739746D02*
X8241182Y-12730222D01*
X8241182Y-12730222D02*
X8250706Y-12711174D01*
X8250706Y-12711174D02*
X8269753Y-12701650D01*
X8269753Y-12701650D02*
X8298325Y-12701650D01*
X8298325Y-12701650D02*
X8317372Y-12711174D01*
X8393563Y-12911174D02*
X8403087Y-12901650D01*
X8403087Y-12901650D02*
X8422134Y-12873079D01*
X8422134Y-12873079D02*
X8431658Y-12854031D01*
X8431658Y-12854031D02*
X8441182Y-12825460D01*
X8441182Y-12825460D02*
X8450706Y-12777841D01*
X8450706Y-12777841D02*
X8450706Y-12739746D01*
X8450706Y-12739746D02*
X8441182Y-12692127D01*
X8441182Y-12692127D02*
X8431658Y-12663555D01*
X8431658Y-12663555D02*
X8422134Y-12644508D01*
X8422134Y-12644508D02*
X8403087Y-12615936D01*
X8403087Y-12615936D02*
X8393563Y-12606412D01*
M02*
