M48
; DRILL file {KiCad 9.0.6} date 2025-12-03T01:28:10+0900
; FORMAT={-:-/ absolute / metric / decimal}
; #@! TF.CreationDate,2025-12-03T01:28:10+09:00
; #@! TF.GenerationSoftware,Kicad,Pcbnew,9.0.6
; #@! TF.FileFunction,Plated,1,2,PTH
FMAT,2
METRIC
; #@! TA.AperFunction,Plated,PTH,ComponentDrill
T1C0.800
; #@! TA.AperFunction,Plated,PTH,ComponentDrill
T2C0.900
; #@! TA.AperFunction,Plated,PTH,ComponentDrill
T3C1.000
; #@! TA.AperFunction,Plated,PTH,ComponentDrill
T4C1.100
; #@! TA.AperFunction,Plated,PTH,ComponentDrill
T5C1.200
; #@! TA.AperFunction,Plated,PTH,ComponentDrill
T6C1.500
; #@! TA.AperFunction,Plated,PTH,ComponentDrill
T7C1.600
; #@! TA.AperFunction,Plated,PTH,ComponentDrill
T8C3.048
; #@! TA.AperFunction,Plated,PTH,ComponentDrill
T9C4.300
%
G90
G05
T1
X47.0Y-45.4
X47.0Y-58.1
X47.0Y-60.85
X47.0Y-73.55
X55.65Y-60.8
X57.2Y-68.3
X57.2Y-81.0
X62.64Y-68.28
X62.64Y-80.98
X67.08Y-68.3
X67.08Y-81.0
X68.25Y-64.5
X68.35Y-60.8
X71.46Y-68.27
X71.46Y-80.97
X72.4Y-49.2
X72.4Y-51.7
X74.65Y-81.0
X74.65Y-86.7
X78.46Y-53.02
X78.46Y-55.56
X78.46Y-58.1
X78.46Y-60.64
X78.5Y-47.8
X78.5Y-68.28
X78.5Y-70.82
X78.5Y-73.36
X78.5Y-75.9
X80.95Y-64.5
X83.05Y-64.5
X83.5Y-47.8
X86.08Y-53.02
X86.08Y-55.56
X86.08Y-58.1
X86.08Y-60.64
X86.12Y-68.28
X86.12Y-70.82
X86.12Y-73.36
X86.12Y-75.9
X87.35Y-81.0
X87.35Y-86.7
X90.62Y-36.6
X90.7Y-68.25
X90.7Y-80.95
X91.2Y-45.4
X91.2Y-47.94
X91.2Y-50.48
X94.6Y-68.25
X94.6Y-80.95
X95.7Y-36.6
X95.7Y-40.3
X95.7Y-45.38
X95.7Y-47.9
X95.7Y-60.6
X95.75Y-64.5
X101.047Y-48.1
X101.147Y-58.5
X103.547Y-48.1
X103.647Y-58.5
X107.34Y-38.76
X107.34Y-41.3
X107.34Y-43.84
X112.1Y-38.76
X112.1Y-41.3
X112.1Y-43.84
T2
X57.2Y-86.735
X57.2Y-89.275
X92.03Y-84.3
X92.03Y-89.3
X94.57Y-84.3
X94.57Y-89.3
T3
X39.8Y-48.43
X39.8Y-53.51
X55.2Y-56.4
X55.4Y-44.3
X55.4Y-48.5
X128.2Y-74.02
X128.2Y-79.1
T4
X46.95Y-78.85
X46.95Y-85.35
X51.3Y-46.22
X51.3Y-56.38
X51.3Y-60.85
X51.3Y-73.55
X51.45Y-78.85
X51.45Y-85.35
X59.42Y-56.4
X61.96Y-56.4
X64.5Y-56.4
X78.52Y-41.3
X81.36Y-92.555
X83.9Y-92.555
X86.44Y-92.555
X88.68Y-41.3
X107.3Y-33.5
X109.84Y-33.5
X112.38Y-33.5
X119.178Y-32.5
X124.258Y-32.5
T5
X70.4Y-33.376
X70.4Y-38.376
X120.25Y-86.25
X120.25Y-91.25
T6
X120.27Y-62.9
X127.89Y-62.9
T7
X46.78Y-33.3
X46.78Y-39.1
X62.02Y-33.3
X62.02Y-39.1
X104.5Y-70.875
X104.5Y-86.115
X110.5Y-70.875
X110.5Y-86.115
X120.25Y-36.635
X120.25Y-51.875
X126.25Y-36.64
X126.25Y-51.88
T8
X39.7Y-64.9
X39.94Y-40.95
X120.25Y-78.0
X129.9Y-87.6
T9
X40.5Y-30.75
X40.5Y-94.75
X129.7Y-30.7
X129.8Y-94.9
M30
