G04 #@! TF.GenerationSoftware,KiCad,Pcbnew,9.0.6*
G04 #@! TF.CreationDate,2025-12-02T20:42:03+09:00*
G04 #@! TF.ProjectId,12f683MPPT,31326636-3833-44d5-9050-542e6b696361,rev?*
G04 #@! TF.SameCoordinates,Original*
G04 #@! TF.FileFunction,Copper,L1,Top*
G04 #@! TF.FilePolarity,Positive*
%FSLAX46Y46*%
G04 Gerber Fmt 4.6, Leading zero omitted, Abs format (unit mm)*
G04 Created by KiCad (PCBNEW 9.0.6) date 2025-12-02 20:42:03*
%MOMM*%
%LPD*%
G01*
G04 APERTURE LIST*
G04 Aperture macros list*
%AMRoundRect*
0 Rectangle with rounded corners*
0 $1 Rounding radius*
0 $2 $3 $4 $5 $6 $7 $8 $9 X,Y pos of 4 corners*
0 Add a 4 corners polygon primitive as box body*
4,1,4,$2,$3,$4,$5,$6,$7,$8,$9,$2,$3,0*
0 Add four circle primitives for the rounded corners*
1,1,$1+$1,$2,$3*
1,1,$1+$1,$4,$5*
1,1,$1+$1,$6,$7*
1,1,$1+$1,$8,$9*
0 Add four rect primitives between the rounded corners*
20,1,$1+$1,$2,$3,$4,$5,0*
20,1,$1+$1,$4,$5,$6,$7,0*
20,1,$1+$1,$6,$7,$8,$9,0*
20,1,$1+$1,$8,$9,$2,$3,0*%
G04 Aperture macros list end*
G04 #@! TA.AperFunction,ComponentPad*
%ADD10RoundRect,0.250001X-0.949999X0.949999X-0.949999X-0.949999X0.949999X-0.949999X0.949999X0.949999X0*%
G04 #@! TD*
G04 #@! TA.AperFunction,ComponentPad*
%ADD11C,2.400000*%
G04 #@! TD*
G04 #@! TA.AperFunction,ComponentPad*
%ADD12RoundRect,0.250000X-0.550000X-0.550000X0.550000X-0.550000X0.550000X0.550000X-0.550000X0.550000X0*%
G04 #@! TD*
G04 #@! TA.AperFunction,ComponentPad*
%ADD13C,1.600000*%
G04 #@! TD*
G04 #@! TA.AperFunction,ComponentPad*
%ADD14RoundRect,0.250000X0.550000X-0.550000X0.550000X0.550000X-0.550000X0.550000X-0.550000X-0.550000X0*%
G04 #@! TD*
G04 #@! TA.AperFunction,ComponentPad*
%ADD15R,1.800000X1.800000*%
G04 #@! TD*
G04 #@! TA.AperFunction,ComponentPad*
%ADD16C,1.800000*%
G04 #@! TD*
G04 #@! TA.AperFunction,ComponentPad*
%ADD17RoundRect,0.250000X1.350000X1.350000X-1.350000X1.350000X-1.350000X-1.350000X1.350000X-1.350000X0*%
G04 #@! TD*
G04 #@! TA.AperFunction,ComponentPad*
%ADD18C,3.200000*%
G04 #@! TD*
G04 #@! TA.AperFunction,ComponentPad*
%ADD19C,3.000000*%
G04 #@! TD*
G04 #@! TA.AperFunction,ComponentPad*
%ADD20R,1.500000X1.500000*%
G04 #@! TD*
G04 #@! TA.AperFunction,ComponentPad*
%ADD21C,1.500000*%
G04 #@! TD*
G04 #@! TA.AperFunction,ComponentPad*
%ADD22RoundRect,0.250000X-0.950000X-0.550000X0.950000X-0.550000X0.950000X0.550000X-0.950000X0.550000X0*%
G04 #@! TD*
G04 #@! TA.AperFunction,ComponentPad*
%ADD23O,2.400000X1.600000*%
G04 #@! TD*
G04 #@! TA.AperFunction,ComponentPad*
%ADD24RoundRect,0.249999X0.850001X-0.850001X0.850001X0.850001X-0.850001X0.850001X-0.850001X-0.850001X0*%
G04 #@! TD*
G04 #@! TA.AperFunction,ComponentPad*
%ADD25C,2.200000*%
G04 #@! TD*
G04 #@! TA.AperFunction,ComponentPad*
%ADD26R,1.905000X2.000000*%
G04 #@! TD*
G04 #@! TA.AperFunction,ComponentPad*
%ADD27O,1.905000X2.000000*%
G04 #@! TD*
G04 #@! TA.AperFunction,ComponentPad*
%ADD28RoundRect,0.250000X1.350000X-1.350000X1.350000X1.350000X-1.350000X1.350000X-1.350000X-1.350000X0*%
G04 #@! TD*
G04 #@! TA.AperFunction,ComponentPad*
%ADD29RoundRect,0.250000X-1.350000X1.350000X-1.350000X-1.350000X1.350000X-1.350000X1.350000X1.350000X0*%
G04 #@! TD*
G04 #@! TA.AperFunction,ComponentPad*
%ADD30C,2.000000*%
G04 #@! TD*
G04 #@! TA.AperFunction,ComponentPad*
%ADD31C,4.064000*%
G04 #@! TD*
G04 #@! TA.AperFunction,ComponentPad*
%ADD32RoundRect,0.249999X-0.850001X-0.850001X0.850001X-0.850001X0.850001X0.850001X-0.850001X0.850001X0*%
G04 #@! TD*
G04 #@! TA.AperFunction,ComponentPad*
%ADD33C,6.400000*%
G04 #@! TD*
G04 #@! TA.AperFunction,ComponentPad*
%ADD34RoundRect,0.249999X0.850001X0.850001X-0.850001X0.850001X-0.850001X-0.850001X0.850001X-0.850001X0*%
G04 #@! TD*
G04 #@! TA.AperFunction,Conductor*
%ADD35C,1.500000*%
G04 #@! TD*
G04 #@! TA.AperFunction,Conductor*
%ADD36C,2.000000*%
G04 #@! TD*
G04 APERTURE END LIST*
D10*
X120250000Y-86250000D03*
D11*
X120250000Y-91250000D03*
D12*
X106832189Y-49389270D03*
D13*
X109332189Y-49389270D03*
D14*
X72400000Y-51700000D03*
D13*
X72400000Y-49200000D03*
D14*
X104400000Y-59600000D03*
D13*
X104400000Y-57100000D03*
D15*
X57200000Y-89275000D03*
D16*
X57200000Y-86735000D03*
D17*
X60590000Y-39300000D03*
D18*
X45350000Y-39300000D03*
D19*
X120270000Y-62900000D03*
X127890000Y-62900000D03*
D20*
X101190000Y-52990000D03*
D21*
X101190000Y-50450000D03*
X101190000Y-47910000D03*
D20*
X108630000Y-38900000D03*
D21*
X108630000Y-41440000D03*
X108630000Y-43980000D03*
D20*
X113730000Y-38900000D03*
D21*
X113730000Y-41440000D03*
X113730000Y-43980000D03*
D13*
X78500192Y-80999678D03*
X91200192Y-80999678D03*
X67080000Y-81000000D03*
X67080000Y-68300000D03*
X71460000Y-68270000D03*
X71460000Y-80970000D03*
X47000000Y-45350000D03*
X47000000Y-58050000D03*
X57200000Y-80950000D03*
X57200000Y-68250000D03*
X55650000Y-60800000D03*
X68350000Y-60800000D03*
X91960000Y-38900000D03*
X104660000Y-38900000D03*
X104650000Y-43150000D03*
X91950000Y-43150000D03*
X68350000Y-64700000D03*
X55650000Y-64700000D03*
D22*
X78460000Y-53020000D03*
D23*
X78460000Y-55560000D03*
X78460000Y-58100000D03*
X78460000Y-60640000D03*
X86080000Y-60640000D03*
X86080000Y-58100000D03*
X86080000Y-55560000D03*
X86080000Y-53020000D03*
D13*
X47000000Y-61550000D03*
X47000000Y-74250000D03*
D24*
X51300000Y-56380000D03*
D25*
X51300000Y-46220000D03*
D26*
X59420000Y-56400000D03*
D27*
X61960000Y-56400000D03*
X64500000Y-56400000D03*
D22*
X78500000Y-68280000D03*
D23*
X78500000Y-70820000D03*
X78500000Y-73360000D03*
X78500000Y-75900000D03*
X86120000Y-75900000D03*
X86120000Y-73360000D03*
X86120000Y-70820000D03*
X86120000Y-68280000D03*
D15*
X93990000Y-81800000D03*
D16*
X96530000Y-81800000D03*
D28*
X126250000Y-51880000D03*
D18*
X126250000Y-36640000D03*
D15*
X96560000Y-86670000D03*
D16*
X94020000Y-86670000D03*
D13*
X91226043Y-84929030D03*
X78526043Y-84929030D03*
D29*
X110500000Y-70875000D03*
D18*
X110500000Y-86115000D03*
D29*
X104500000Y-70875000D03*
D18*
X104500000Y-86115000D03*
D13*
X91810000Y-77320000D03*
X91810000Y-64620000D03*
D28*
X120250000Y-51875000D03*
D18*
X120250000Y-36635000D03*
D17*
X60590000Y-33400000D03*
D18*
X45350000Y-33400000D03*
D30*
X39800000Y-48430000D03*
X39800000Y-53510000D03*
X131150000Y-80640000D03*
X131150000Y-75560000D03*
D13*
X78570000Y-46840000D03*
X83570000Y-46840000D03*
D31*
X39940000Y-40950000D03*
X42000000Y-67500000D03*
X130910000Y-87030000D03*
X120250000Y-78000000D03*
D13*
X96340000Y-64630000D03*
X96340000Y-77330000D03*
X91820000Y-47900000D03*
X91820000Y-60600000D03*
X96360000Y-47900000D03*
X96360000Y-60600000D03*
X62640000Y-68280000D03*
X62640000Y-80980000D03*
D10*
X69850000Y-33470000D03*
D11*
X69850000Y-38470000D03*
D32*
X119177818Y-32500000D03*
D25*
X124257818Y-32500000D03*
D26*
X86440000Y-92555000D03*
D27*
X83900000Y-92555000D03*
X81360000Y-92555000D03*
D26*
X107300000Y-33500000D03*
D27*
X109840000Y-33500000D03*
X112380000Y-33500000D03*
D30*
X45350000Y-89450000D03*
X45350000Y-82950000D03*
X49850000Y-89450000D03*
X49850000Y-82950000D03*
D33*
X130657600Y-30480000D03*
X40055800Y-95199200D03*
X39903400Y-30251400D03*
X130606800Y-95275400D03*
D34*
X88595200Y-39039800D03*
D25*
X78435200Y-39039800D03*
D30*
X55400000Y-48500000D03*
X55200000Y-56400000D03*
X55400000Y-44300000D03*
D35*
X107300000Y-37570000D02*
X107300000Y-33500000D01*
X108630000Y-38900000D02*
X107300000Y-37570000D01*
X113730000Y-38900000D02*
X108630000Y-38900000D01*
X101000000Y-91000000D02*
X92000000Y-91000000D01*
X91226043Y-84929030D02*
X87420970Y-84929030D01*
X92000000Y-91000000D02*
X89403000Y-88403000D01*
D36*
X83947000Y-88403000D02*
X87420970Y-84929030D01*
D35*
X104500000Y-87500000D02*
X101000000Y-91000000D01*
X104500000Y-86115000D02*
X104500000Y-87500000D01*
X89403000Y-88403000D02*
X83947000Y-88403000D01*
D36*
X83947000Y-92710000D02*
X83947000Y-88403000D01*
D35*
X83570000Y-46840000D02*
X80230000Y-43500000D01*
X80230000Y-43500000D02*
X74880000Y-43500000D01*
X74880000Y-43500000D02*
X69850000Y-38470000D01*
X97960001Y-44900001D02*
X102590001Y-44900001D01*
X91960000Y-38900000D02*
X97960001Y-44900001D01*
X103700000Y-46010000D02*
X106600000Y-46010000D01*
X106600000Y-46010000D02*
X108630000Y-43980000D01*
X102590001Y-44900001D02*
X103700000Y-46010000D01*
X83380000Y-55560000D02*
X82530000Y-56410000D01*
X91810000Y-67830000D02*
X97170000Y-67830000D01*
X97170000Y-67830000D02*
X104400000Y-60600000D01*
X88820000Y-70820000D02*
X91810000Y-67830000D01*
X83330000Y-70910000D02*
X82530000Y-70910000D01*
X86120000Y-70820000D02*
X88820000Y-70820000D01*
X91810000Y-65751370D02*
X91810000Y-64620000D01*
X91810000Y-67830000D02*
X91810000Y-65751370D01*
X82530000Y-56410000D02*
X82530000Y-70910000D01*
X86120000Y-70820000D02*
X83420000Y-70820000D01*
X83420000Y-70820000D02*
X83330000Y-70910000D01*
X86080000Y-55560000D02*
X83380000Y-55560000D01*
X104400000Y-60600000D02*
X104400000Y-59600000D01*
X119177818Y-32500000D02*
X118500000Y-32500000D01*
X113730000Y-37270000D02*
X113730000Y-38900000D01*
X118500000Y-32500000D02*
X113730000Y-37270000D01*
X78500000Y-73360000D02*
X81200000Y-73360000D01*
X78500000Y-73360000D02*
X72140000Y-73360000D01*
X82060000Y-74220000D02*
X82060000Y-81395073D01*
X72140000Y-73360000D02*
X67080000Y-68300000D01*
X81200000Y-73360000D02*
X82060000Y-74220000D01*
X82060000Y-81395073D02*
X78526043Y-84929030D01*
G04 #@! TA.AperFunction,NonConductor*
G36*
X130477551Y-38899199D02*
G01*
X130544459Y-38919321D01*
X130589868Y-38972423D01*
X130600737Y-39022449D01*
X130699739Y-55456802D01*
X130680458Y-55523959D01*
X130673363Y-55534008D01*
X119499999Y-69800000D01*
X119499998Y-69800001D01*
X114329794Y-83918639D01*
X114288258Y-83974822D01*
X114222940Y-83999629D01*
X114213356Y-84000000D01*
X100923237Y-84000000D01*
X100856198Y-83980315D01*
X100810443Y-83927511D01*
X100799239Y-83876765D01*
X100731587Y-72917113D01*
X100710336Y-69474447D01*
X102391500Y-69474447D01*
X102391500Y-72275537D01*
X102391501Y-72275553D01*
X102402113Y-72379426D01*
X102457885Y-72547738D01*
X102550970Y-72698652D01*
X102676348Y-72824030D01*
X102827262Y-72917115D01*
X102995574Y-72972887D01*
X103099455Y-72983500D01*
X105900544Y-72983499D01*
X106004426Y-72972887D01*
X106172738Y-72917115D01*
X106323652Y-72824030D01*
X106449030Y-72698652D01*
X106542115Y-72547738D01*
X106597887Y-72379426D01*
X106608500Y-72275545D01*
X106608499Y-69474456D01*
X106608498Y-69474447D01*
X108391500Y-69474447D01*
X108391500Y-72275537D01*
X108391501Y-72275553D01*
X108402113Y-72379426D01*
X108457885Y-72547738D01*
X108550970Y-72698652D01*
X108676348Y-72824030D01*
X108827262Y-72917115D01*
X108995574Y-72972887D01*
X109099455Y-72983500D01*
X111900544Y-72983499D01*
X112004426Y-72972887D01*
X112172738Y-72917115D01*
X112323652Y-72824030D01*
X112449030Y-72698652D01*
X112542115Y-72547738D01*
X112597887Y-72379426D01*
X112608500Y-72275545D01*
X112608499Y-69474456D01*
X112597887Y-69370574D01*
X112542115Y-69202262D01*
X112449030Y-69051348D01*
X112323652Y-68925970D01*
X112172738Y-68832885D01*
X112172735Y-68832884D01*
X112004427Y-68777113D01*
X111900545Y-68766500D01*
X109099462Y-68766500D01*
X109099446Y-68766501D01*
X108995572Y-68777113D01*
X108827264Y-68832884D01*
X108827259Y-68832886D01*
X108676346Y-68925971D01*
X108550971Y-69051346D01*
X108457886Y-69202259D01*
X108457884Y-69202264D01*
X108402113Y-69370572D01*
X108391500Y-69474447D01*
X106608498Y-69474447D01*
X106597887Y-69370574D01*
X106542115Y-69202262D01*
X106449030Y-69051348D01*
X106323652Y-68925970D01*
X106172738Y-68832885D01*
X106172735Y-68832884D01*
X106004427Y-68777113D01*
X105900545Y-68766500D01*
X103099462Y-68766500D01*
X103099446Y-68766501D01*
X102995572Y-68777113D01*
X102827264Y-68832884D01*
X102827259Y-68832886D01*
X102676346Y-68925971D01*
X102550971Y-69051346D01*
X102457886Y-69202259D01*
X102457884Y-69202264D01*
X102402113Y-69370572D01*
X102391500Y-69474447D01*
X100710336Y-69474447D01*
X100700775Y-67925620D01*
X100720046Y-67858463D01*
X100772566Y-67812383D01*
X100825620Y-67800860D01*
X115300000Y-67900000D01*
X115224534Y-62768362D01*
X118261500Y-62768362D01*
X118261500Y-63031637D01*
X118261501Y-63031653D01*
X118295865Y-63292678D01*
X118364009Y-63546995D01*
X118464761Y-63790234D01*
X118464769Y-63790250D01*
X118596409Y-64018256D01*
X118756687Y-64227136D01*
X118756693Y-64227143D01*
X118942856Y-64413306D01*
X118942863Y-64413312D01*
X119151743Y-64573590D01*
X119379749Y-64705230D01*
X119379765Y-64705238D01*
X119531451Y-64768068D01*
X119623003Y-64805990D01*
X119877320Y-64874134D01*
X120138356Y-64908500D01*
X120138363Y-64908500D01*
X120401637Y-64908500D01*
X120401644Y-64908500D01*
X120662680Y-64874134D01*
X120916997Y-64805990D01*
X121100099Y-64730146D01*
X121160234Y-64705238D01*
X121160237Y-64705236D01*
X121160243Y-64705234D01*
X121388257Y-64573590D01*
X121597138Y-64413311D01*
X121783311Y-64227138D01*
X121943590Y-64018257D01*
X122075234Y-63790243D01*
X122175990Y-63546997D01*
X122244134Y-63292680D01*
X122278500Y-63031644D01*
X122278500Y-62768356D01*
X122244134Y-62507320D01*
X122175990Y-62253003D01*
X122138068Y-62161451D01*
X122075238Y-62009765D01*
X122075230Y-62009749D01*
X121943590Y-61781743D01*
X121783312Y-61572863D01*
X121783306Y-61572856D01*
X121597143Y-61386693D01*
X121597136Y-61386687D01*
X121388256Y-61226409D01*
X121160250Y-61094769D01*
X121160234Y-61094761D01*
X120916995Y-60994009D01*
X120662678Y-60925865D01*
X120401653Y-60891501D01*
X120401650Y-60891500D01*
X120401644Y-60891500D01*
X120138356Y-60891500D01*
X120138350Y-60891500D01*
X120138346Y-60891501D01*
X119877321Y-60925865D01*
X119623004Y-60994009D01*
X119379765Y-61094761D01*
X119379749Y-61094769D01*
X119151743Y-61226409D01*
X118942863Y-61386687D01*
X118942856Y-61386693D01*
X118756693Y-61572856D01*
X118756687Y-61572863D01*
X118596409Y-61781743D01*
X118464769Y-62009749D01*
X118464761Y-62009765D01*
X118364009Y-62253004D01*
X118295865Y-62507321D01*
X118261501Y-62768346D01*
X118261500Y-62768362D01*
X115224534Y-62768362D01*
X115200022Y-61101559D01*
X115200017Y-61098410D01*
X115200057Y-61094769D01*
X115300000Y-52000000D01*
X115300000Y-50474447D01*
X118141500Y-50474447D01*
X118141500Y-53275537D01*
X118141501Y-53275553D01*
X118152113Y-53379427D01*
X118153770Y-53384427D01*
X118207885Y-53547738D01*
X118300970Y-53698652D01*
X118426348Y-53824030D01*
X118577262Y-53917115D01*
X118745574Y-53972887D01*
X118849455Y-53983500D01*
X121650544Y-53983499D01*
X121754426Y-53972887D01*
X121922738Y-53917115D01*
X122073652Y-53824030D01*
X122199030Y-53698652D01*
X122292115Y-53547738D01*
X122347887Y-53379426D01*
X122358500Y-53275545D01*
X122358499Y-50479447D01*
X124141500Y-50479447D01*
X124141500Y-53280537D01*
X124141501Y-53280553D01*
X124151602Y-53379426D01*
X124152113Y-53384426D01*
X124207885Y-53552738D01*
X124300970Y-53703652D01*
X124426348Y-53829030D01*
X124577262Y-53922115D01*
X124745574Y-53977887D01*
X124849455Y-53988500D01*
X127650544Y-53988499D01*
X127754426Y-53977887D01*
X127922738Y-53922115D01*
X128073652Y-53829030D01*
X128199030Y-53703652D01*
X128292115Y-53552738D01*
X128347887Y-53384426D01*
X128358500Y-53280545D01*
X128358499Y-50479456D01*
X128347887Y-50375574D01*
X128292115Y-50207262D01*
X128199030Y-50056348D01*
X128073652Y-49930970D01*
X127922738Y-49837885D01*
X127907646Y-49832884D01*
X127754427Y-49782113D01*
X127650545Y-49771500D01*
X124849462Y-49771500D01*
X124849446Y-49771501D01*
X124745572Y-49782113D01*
X124577264Y-49837884D01*
X124577259Y-49837886D01*
X124426346Y-49930971D01*
X124300971Y-50056346D01*
X124207886Y-50207259D01*
X124207884Y-50207264D01*
X124152113Y-50375572D01*
X124141500Y-50479447D01*
X122358499Y-50479447D01*
X122358499Y-50474456D01*
X122347887Y-50370574D01*
X122292115Y-50202262D01*
X122199030Y-50051348D01*
X122073652Y-49925970D01*
X121930846Y-49837886D01*
X121922740Y-49832886D01*
X121922735Y-49832884D01*
X121754427Y-49777113D01*
X121650545Y-49766500D01*
X118849462Y-49766500D01*
X118849446Y-49766501D01*
X118745572Y-49777113D01*
X118577264Y-49832884D01*
X118577259Y-49832886D01*
X118426346Y-49925971D01*
X118300971Y-50051346D01*
X118207886Y-50202259D01*
X118207884Y-50202264D01*
X118152113Y-50370572D01*
X118141500Y-50474447D01*
X115300000Y-50474447D01*
X115300000Y-38924812D01*
X115319685Y-38857773D01*
X115372489Y-38812018D01*
X115424806Y-38800815D01*
X130477551Y-38899199D01*
G37*
G04 #@! TD.AperFunction*
M02*
