G04 #@! TF.GenerationSoftware,KiCad,Pcbnew,9.0.6*
G04 #@! TF.CreationDate,2025-12-02T20:54:42+09:00*
G04 #@! TF.ProjectId,12f683MPPT,31326636-3833-44d5-9050-542e6b696361,rev?*
G04 #@! TF.SameCoordinates,Original*
G04 #@! TF.FileFunction,Legend,Top*
G04 #@! TF.FilePolarity,Positive*
%FSLAX46Y46*%
G04 Gerber Fmt 4.6, Leading zero omitted, Abs format (unit mm)*
G04 Created by KiCad (PCBNEW 9.0.6) date 2025-12-02 20:54:42*
%MOMM*%
%LPD*%
G01*
G04 APERTURE LIST*
%ADD10C,0.150000*%
%ADD11C,0.120000*%
G04 APERTURE END LIST*
D10*
X122536779Y-97969819D02*
X122536779Y-96969819D01*
X122536779Y-96969819D02*
X122870112Y-97684104D01*
X122870112Y-97684104D02*
X123203445Y-96969819D01*
X123203445Y-96969819D02*
X123203445Y-97969819D01*
X123679636Y-97969819D02*
X123679636Y-96969819D01*
X123679636Y-96969819D02*
X124060588Y-96969819D01*
X124060588Y-96969819D02*
X124155826Y-97017438D01*
X124155826Y-97017438D02*
X124203445Y-97065057D01*
X124203445Y-97065057D02*
X124251064Y-97160295D01*
X124251064Y-97160295D02*
X124251064Y-97303152D01*
X124251064Y-97303152D02*
X124203445Y-97398390D01*
X124203445Y-97398390D02*
X124155826Y-97446009D01*
X124155826Y-97446009D02*
X124060588Y-97493628D01*
X124060588Y-97493628D02*
X123679636Y-97493628D01*
X124679636Y-97969819D02*
X124679636Y-96969819D01*
X124679636Y-96969819D02*
X125060588Y-96969819D01*
X125060588Y-96969819D02*
X125155826Y-97017438D01*
X125155826Y-97017438D02*
X125203445Y-97065057D01*
X125203445Y-97065057D02*
X125251064Y-97160295D01*
X125251064Y-97160295D02*
X125251064Y-97303152D01*
X125251064Y-97303152D02*
X125203445Y-97398390D01*
X125203445Y-97398390D02*
X125155826Y-97446009D01*
X125155826Y-97446009D02*
X125060588Y-97493628D01*
X125060588Y-97493628D02*
X124679636Y-97493628D01*
X125536779Y-96969819D02*
X126108207Y-96969819D01*
X125822493Y-97969819D02*
X125822493Y-96969819D01*
X54124819Y-71614285D02*
X53124819Y-71614285D01*
X53124819Y-71614285D02*
X53124819Y-71376190D01*
X53124819Y-71376190D02*
X53172438Y-71233333D01*
X53172438Y-71233333D02*
X53267676Y-71138095D01*
X53267676Y-71138095D02*
X53362914Y-71090476D01*
X53362914Y-71090476D02*
X53553390Y-71042857D01*
X53553390Y-71042857D02*
X53696247Y-71042857D01*
X53696247Y-71042857D02*
X53886723Y-71090476D01*
X53886723Y-71090476D02*
X53981961Y-71138095D01*
X53981961Y-71138095D02*
X54077200Y-71233333D01*
X54077200Y-71233333D02*
X54124819Y-71376190D01*
X54124819Y-71376190D02*
X54124819Y-71614285D01*
X54124819Y-70090476D02*
X54124819Y-70661904D01*
X54124819Y-70376190D02*
X53124819Y-70376190D01*
X53124819Y-70376190D02*
X53267676Y-70471428D01*
X53267676Y-70471428D02*
X53362914Y-70566666D01*
X53362914Y-70566666D02*
X53410533Y-70661904D01*
X53124819Y-69471428D02*
X53124819Y-69376190D01*
X53124819Y-69376190D02*
X53172438Y-69280952D01*
X53172438Y-69280952D02*
X53220057Y-69233333D01*
X53220057Y-69233333D02*
X53315295Y-69185714D01*
X53315295Y-69185714D02*
X53505771Y-69138095D01*
X53505771Y-69138095D02*
X53743866Y-69138095D01*
X53743866Y-69138095D02*
X53934342Y-69185714D01*
X53934342Y-69185714D02*
X54029580Y-69233333D01*
X54029580Y-69233333D02*
X54077200Y-69280952D01*
X54077200Y-69280952D02*
X54124819Y-69376190D01*
X54124819Y-69376190D02*
X54124819Y-69471428D01*
X54124819Y-69471428D02*
X54077200Y-69566666D01*
X54077200Y-69566666D02*
X54029580Y-69614285D01*
X54029580Y-69614285D02*
X53934342Y-69661904D01*
X53934342Y-69661904D02*
X53743866Y-69709523D01*
X53743866Y-69709523D02*
X53505771Y-69709523D01*
X53505771Y-69709523D02*
X53315295Y-69661904D01*
X53315295Y-69661904D02*
X53220057Y-69614285D01*
X53220057Y-69614285D02*
X53172438Y-69566666D01*
X53172438Y-69566666D02*
X53124819Y-69471428D01*
X53754819Y-66851904D02*
X52754819Y-66851904D01*
X53754819Y-66280476D02*
X53183390Y-66709047D01*
X52754819Y-66280476D02*
X53326247Y-66851904D01*
X128109580Y-88916666D02*
X128157200Y-88964285D01*
X128157200Y-88964285D02*
X128204819Y-89107142D01*
X128204819Y-89107142D02*
X128204819Y-89202380D01*
X128204819Y-89202380D02*
X128157200Y-89345237D01*
X128157200Y-89345237D02*
X128061961Y-89440475D01*
X128061961Y-89440475D02*
X127966723Y-89488094D01*
X127966723Y-89488094D02*
X127776247Y-89535713D01*
X127776247Y-89535713D02*
X127633390Y-89535713D01*
X127633390Y-89535713D02*
X127442914Y-89488094D01*
X127442914Y-89488094D02*
X127347676Y-89440475D01*
X127347676Y-89440475D02*
X127252438Y-89345237D01*
X127252438Y-89345237D02*
X127204819Y-89202380D01*
X127204819Y-89202380D02*
X127204819Y-89107142D01*
X127204819Y-89107142D02*
X127252438Y-88964285D01*
X127252438Y-88964285D02*
X127300057Y-88916666D01*
X128204819Y-87964285D02*
X128204819Y-88535713D01*
X128204819Y-88249999D02*
X127204819Y-88249999D01*
X127204819Y-88249999D02*
X127347676Y-88345237D01*
X127347676Y-88345237D02*
X127442914Y-88440475D01*
X127442914Y-88440475D02*
X127490533Y-88535713D01*
X106033333Y-52159580D02*
X105985714Y-52207200D01*
X105985714Y-52207200D02*
X105842857Y-52254819D01*
X105842857Y-52254819D02*
X105747619Y-52254819D01*
X105747619Y-52254819D02*
X105604762Y-52207200D01*
X105604762Y-52207200D02*
X105509524Y-52111961D01*
X105509524Y-52111961D02*
X105461905Y-52016723D01*
X105461905Y-52016723D02*
X105414286Y-51826247D01*
X105414286Y-51826247D02*
X105414286Y-51683390D01*
X105414286Y-51683390D02*
X105461905Y-51492914D01*
X105461905Y-51492914D02*
X105509524Y-51397676D01*
X105509524Y-51397676D02*
X105604762Y-51302438D01*
X105604762Y-51302438D02*
X105747619Y-51254819D01*
X105747619Y-51254819D02*
X105842857Y-51254819D01*
X105842857Y-51254819D02*
X105985714Y-51302438D01*
X105985714Y-51302438D02*
X106033333Y-51350057D01*
X106414286Y-51350057D02*
X106461905Y-51302438D01*
X106461905Y-51302438D02*
X106557143Y-51254819D01*
X106557143Y-51254819D02*
X106795238Y-51254819D01*
X106795238Y-51254819D02*
X106890476Y-51302438D01*
X106890476Y-51302438D02*
X106938095Y-51350057D01*
X106938095Y-51350057D02*
X106985714Y-51445295D01*
X106985714Y-51445295D02*
X106985714Y-51540533D01*
X106985714Y-51540533D02*
X106938095Y-51683390D01*
X106938095Y-51683390D02*
X106366667Y-52254819D01*
X106366667Y-52254819D02*
X106985714Y-52254819D01*
X70359580Y-52266666D02*
X70407200Y-52314285D01*
X70407200Y-52314285D02*
X70454819Y-52457142D01*
X70454819Y-52457142D02*
X70454819Y-52552380D01*
X70454819Y-52552380D02*
X70407200Y-52695237D01*
X70407200Y-52695237D02*
X70311961Y-52790475D01*
X70311961Y-52790475D02*
X70216723Y-52838094D01*
X70216723Y-52838094D02*
X70026247Y-52885713D01*
X70026247Y-52885713D02*
X69883390Y-52885713D01*
X69883390Y-52885713D02*
X69692914Y-52838094D01*
X69692914Y-52838094D02*
X69597676Y-52790475D01*
X69597676Y-52790475D02*
X69502438Y-52695237D01*
X69502438Y-52695237D02*
X69454819Y-52552380D01*
X69454819Y-52552380D02*
X69454819Y-52457142D01*
X69454819Y-52457142D02*
X69502438Y-52314285D01*
X69502438Y-52314285D02*
X69550057Y-52266666D01*
X69454819Y-51933332D02*
X69454819Y-51314285D01*
X69454819Y-51314285D02*
X69835771Y-51647618D01*
X69835771Y-51647618D02*
X69835771Y-51504761D01*
X69835771Y-51504761D02*
X69883390Y-51409523D01*
X69883390Y-51409523D02*
X69931009Y-51361904D01*
X69931009Y-51361904D02*
X70026247Y-51314285D01*
X70026247Y-51314285D02*
X70264342Y-51314285D01*
X70264342Y-51314285D02*
X70359580Y-51361904D01*
X70359580Y-51361904D02*
X70407200Y-51409523D01*
X70407200Y-51409523D02*
X70454819Y-51504761D01*
X70454819Y-51504761D02*
X70454819Y-51790475D01*
X70454819Y-51790475D02*
X70407200Y-51885713D01*
X70407200Y-51885713D02*
X70359580Y-51933332D01*
X107059580Y-60066666D02*
X107107200Y-60114285D01*
X107107200Y-60114285D02*
X107154819Y-60257142D01*
X107154819Y-60257142D02*
X107154819Y-60352380D01*
X107154819Y-60352380D02*
X107107200Y-60495237D01*
X107107200Y-60495237D02*
X107011961Y-60590475D01*
X107011961Y-60590475D02*
X106916723Y-60638094D01*
X106916723Y-60638094D02*
X106726247Y-60685713D01*
X106726247Y-60685713D02*
X106583390Y-60685713D01*
X106583390Y-60685713D02*
X106392914Y-60638094D01*
X106392914Y-60638094D02*
X106297676Y-60590475D01*
X106297676Y-60590475D02*
X106202438Y-60495237D01*
X106202438Y-60495237D02*
X106154819Y-60352380D01*
X106154819Y-60352380D02*
X106154819Y-60257142D01*
X106154819Y-60257142D02*
X106202438Y-60114285D01*
X106202438Y-60114285D02*
X106250057Y-60066666D01*
X106154819Y-59161904D02*
X106154819Y-59638094D01*
X106154819Y-59638094D02*
X106631009Y-59685713D01*
X106631009Y-59685713D02*
X106583390Y-59638094D01*
X106583390Y-59638094D02*
X106535771Y-59542856D01*
X106535771Y-59542856D02*
X106535771Y-59304761D01*
X106535771Y-59304761D02*
X106583390Y-59209523D01*
X106583390Y-59209523D02*
X106631009Y-59161904D01*
X106631009Y-59161904D02*
X106726247Y-59114285D01*
X106726247Y-59114285D02*
X106964342Y-59114285D01*
X106964342Y-59114285D02*
X107059580Y-59161904D01*
X107059580Y-59161904D02*
X107107200Y-59209523D01*
X107107200Y-59209523D02*
X107154819Y-59304761D01*
X107154819Y-59304761D02*
X107154819Y-59542856D01*
X107154819Y-59542856D02*
X107107200Y-59638094D01*
X107107200Y-59638094D02*
X107059580Y-59685713D01*
X54694819Y-88743094D02*
X53694819Y-88743094D01*
X53694819Y-88743094D02*
X53694819Y-88504999D01*
X53694819Y-88504999D02*
X53742438Y-88362142D01*
X53742438Y-88362142D02*
X53837676Y-88266904D01*
X53837676Y-88266904D02*
X53932914Y-88219285D01*
X53932914Y-88219285D02*
X54123390Y-88171666D01*
X54123390Y-88171666D02*
X54266247Y-88171666D01*
X54266247Y-88171666D02*
X54456723Y-88219285D01*
X54456723Y-88219285D02*
X54551961Y-88266904D01*
X54551961Y-88266904D02*
X54647200Y-88362142D01*
X54647200Y-88362142D02*
X54694819Y-88504999D01*
X54694819Y-88504999D02*
X54694819Y-88743094D01*
X54028152Y-87314523D02*
X54694819Y-87314523D01*
X53647200Y-87552618D02*
X54361485Y-87790713D01*
X54361485Y-87790713D02*
X54361485Y-87171666D01*
X52231905Y-39754819D02*
X52231905Y-38754819D01*
X52231905Y-38754819D02*
X52470000Y-38754819D01*
X52470000Y-38754819D02*
X52612857Y-38802438D01*
X52612857Y-38802438D02*
X52708095Y-38897676D01*
X52708095Y-38897676D02*
X52755714Y-38992914D01*
X52755714Y-38992914D02*
X52803333Y-39183390D01*
X52803333Y-39183390D02*
X52803333Y-39326247D01*
X52803333Y-39326247D02*
X52755714Y-39516723D01*
X52755714Y-39516723D02*
X52708095Y-39611961D01*
X52708095Y-39611961D02*
X52612857Y-39707200D01*
X52612857Y-39707200D02*
X52470000Y-39754819D01*
X52470000Y-39754819D02*
X52231905Y-39754819D01*
X53660476Y-38754819D02*
X53470000Y-38754819D01*
X53470000Y-38754819D02*
X53374762Y-38802438D01*
X53374762Y-38802438D02*
X53327143Y-38850057D01*
X53327143Y-38850057D02*
X53231905Y-38992914D01*
X53231905Y-38992914D02*
X53184286Y-39183390D01*
X53184286Y-39183390D02*
X53184286Y-39564342D01*
X53184286Y-39564342D02*
X53231905Y-39659580D01*
X53231905Y-39659580D02*
X53279524Y-39707200D01*
X53279524Y-39707200D02*
X53374762Y-39754819D01*
X53374762Y-39754819D02*
X53565238Y-39754819D01*
X53565238Y-39754819D02*
X53660476Y-39707200D01*
X53660476Y-39707200D02*
X53708095Y-39659580D01*
X53708095Y-39659580D02*
X53755714Y-39564342D01*
X53755714Y-39564342D02*
X53755714Y-39326247D01*
X53755714Y-39326247D02*
X53708095Y-39231009D01*
X53708095Y-39231009D02*
X53660476Y-39183390D01*
X53660476Y-39183390D02*
X53565238Y-39135771D01*
X53565238Y-39135771D02*
X53374762Y-39135771D01*
X53374762Y-39135771D02*
X53279524Y-39183390D01*
X53279524Y-39183390D02*
X53231905Y-39231009D01*
X53231905Y-39231009D02*
X53184286Y-39326247D01*
X60328095Y-42354819D02*
X60328095Y-41354819D01*
X60899523Y-42354819D02*
X60470952Y-41783390D01*
X60899523Y-41354819D02*
X60328095Y-41926247D01*
X117974819Y-63066666D02*
X117974819Y-63542856D01*
X117974819Y-63542856D02*
X116974819Y-63542856D01*
X117974819Y-62209523D02*
X117974819Y-62780951D01*
X117974819Y-62495237D02*
X116974819Y-62495237D01*
X116974819Y-62495237D02*
X117117676Y-62590475D01*
X117117676Y-62590475D02*
X117212914Y-62685713D01*
X117212914Y-62685713D02*
X117260533Y-62780951D01*
X99350057Y-47595238D02*
X99302438Y-47690476D01*
X99302438Y-47690476D02*
X99207200Y-47785714D01*
X99207200Y-47785714D02*
X99064342Y-47928571D01*
X99064342Y-47928571D02*
X99016723Y-48023809D01*
X99016723Y-48023809D02*
X99016723Y-48119047D01*
X99254819Y-48071428D02*
X99207200Y-48166666D01*
X99207200Y-48166666D02*
X99111961Y-48261904D01*
X99111961Y-48261904D02*
X98921485Y-48309523D01*
X98921485Y-48309523D02*
X98588152Y-48309523D01*
X98588152Y-48309523D02*
X98397676Y-48261904D01*
X98397676Y-48261904D02*
X98302438Y-48166666D01*
X98302438Y-48166666D02*
X98254819Y-48071428D01*
X98254819Y-48071428D02*
X98254819Y-47880952D01*
X98254819Y-47880952D02*
X98302438Y-47785714D01*
X98302438Y-47785714D02*
X98397676Y-47690476D01*
X98397676Y-47690476D02*
X98588152Y-47642857D01*
X98588152Y-47642857D02*
X98921485Y-47642857D01*
X98921485Y-47642857D02*
X99111961Y-47690476D01*
X99111961Y-47690476D02*
X99207200Y-47785714D01*
X99207200Y-47785714D02*
X99254819Y-47880952D01*
X99254819Y-47880952D02*
X99254819Y-48071428D01*
X98254819Y-47309523D02*
X98254819Y-46690476D01*
X98254819Y-46690476D02*
X98635771Y-47023809D01*
X98635771Y-47023809D02*
X98635771Y-46880952D01*
X98635771Y-46880952D02*
X98683390Y-46785714D01*
X98683390Y-46785714D02*
X98731009Y-46738095D01*
X98731009Y-46738095D02*
X98826247Y-46690476D01*
X98826247Y-46690476D02*
X99064342Y-46690476D01*
X99064342Y-46690476D02*
X99159580Y-46738095D01*
X99159580Y-46738095D02*
X99207200Y-46785714D01*
X99207200Y-46785714D02*
X99254819Y-46880952D01*
X99254819Y-46880952D02*
X99254819Y-47166666D01*
X99254819Y-47166666D02*
X99207200Y-47261904D01*
X99207200Y-47261904D02*
X99159580Y-47309523D01*
X111450057Y-44595238D02*
X111402438Y-44690476D01*
X111402438Y-44690476D02*
X111307200Y-44785714D01*
X111307200Y-44785714D02*
X111164342Y-44928571D01*
X111164342Y-44928571D02*
X111116723Y-45023809D01*
X111116723Y-45023809D02*
X111116723Y-45119047D01*
X111354819Y-45071428D02*
X111307200Y-45166666D01*
X111307200Y-45166666D02*
X111211961Y-45261904D01*
X111211961Y-45261904D02*
X111021485Y-45309523D01*
X111021485Y-45309523D02*
X110688152Y-45309523D01*
X110688152Y-45309523D02*
X110497676Y-45261904D01*
X110497676Y-45261904D02*
X110402438Y-45166666D01*
X110402438Y-45166666D02*
X110354819Y-45071428D01*
X110354819Y-45071428D02*
X110354819Y-44880952D01*
X110354819Y-44880952D02*
X110402438Y-44785714D01*
X110402438Y-44785714D02*
X110497676Y-44690476D01*
X110497676Y-44690476D02*
X110688152Y-44642857D01*
X110688152Y-44642857D02*
X111021485Y-44642857D01*
X111021485Y-44642857D02*
X111211961Y-44690476D01*
X111211961Y-44690476D02*
X111307200Y-44785714D01*
X111307200Y-44785714D02*
X111354819Y-44880952D01*
X111354819Y-44880952D02*
X111354819Y-45071428D01*
X110688152Y-43785714D02*
X111354819Y-43785714D01*
X110307200Y-44023809D02*
X111021485Y-44261904D01*
X111021485Y-44261904D02*
X111021485Y-43642857D01*
X116650057Y-44495238D02*
X116602438Y-44590476D01*
X116602438Y-44590476D02*
X116507200Y-44685714D01*
X116507200Y-44685714D02*
X116364342Y-44828571D01*
X116364342Y-44828571D02*
X116316723Y-44923809D01*
X116316723Y-44923809D02*
X116316723Y-45019047D01*
X116554819Y-44971428D02*
X116507200Y-45066666D01*
X116507200Y-45066666D02*
X116411961Y-45161904D01*
X116411961Y-45161904D02*
X116221485Y-45209523D01*
X116221485Y-45209523D02*
X115888152Y-45209523D01*
X115888152Y-45209523D02*
X115697676Y-45161904D01*
X115697676Y-45161904D02*
X115602438Y-45066666D01*
X115602438Y-45066666D02*
X115554819Y-44971428D01*
X115554819Y-44971428D02*
X115554819Y-44780952D01*
X115554819Y-44780952D02*
X115602438Y-44685714D01*
X115602438Y-44685714D02*
X115697676Y-44590476D01*
X115697676Y-44590476D02*
X115888152Y-44542857D01*
X115888152Y-44542857D02*
X116221485Y-44542857D01*
X116221485Y-44542857D02*
X116411961Y-44590476D01*
X116411961Y-44590476D02*
X116507200Y-44685714D01*
X116507200Y-44685714D02*
X116554819Y-44780952D01*
X116554819Y-44780952D02*
X116554819Y-44971428D01*
X115554819Y-43638095D02*
X115554819Y-44114285D01*
X115554819Y-44114285D02*
X116031009Y-44161904D01*
X116031009Y-44161904D02*
X115983390Y-44114285D01*
X115983390Y-44114285D02*
X115935771Y-44019047D01*
X115935771Y-44019047D02*
X115935771Y-43780952D01*
X115935771Y-43780952D02*
X115983390Y-43685714D01*
X115983390Y-43685714D02*
X116031009Y-43638095D01*
X116031009Y-43638095D02*
X116126247Y-43590476D01*
X116126247Y-43590476D02*
X116364342Y-43590476D01*
X116364342Y-43590476D02*
X116459580Y-43638095D01*
X116459580Y-43638095D02*
X116507200Y-43685714D01*
X116507200Y-43685714D02*
X116554819Y-43780952D01*
X116554819Y-43780952D02*
X116554819Y-44019047D01*
X116554819Y-44019047D02*
X116507200Y-44114285D01*
X116507200Y-44114285D02*
X116459580Y-44161904D01*
X84683525Y-81454497D02*
X84350192Y-80978306D01*
X84112097Y-81454497D02*
X84112097Y-80454497D01*
X84112097Y-80454497D02*
X84493049Y-80454497D01*
X84493049Y-80454497D02*
X84588287Y-80502116D01*
X84588287Y-80502116D02*
X84635906Y-80549735D01*
X84635906Y-80549735D02*
X84683525Y-80644973D01*
X84683525Y-80644973D02*
X84683525Y-80787830D01*
X84683525Y-80787830D02*
X84635906Y-80883068D01*
X84635906Y-80883068D02*
X84588287Y-80930687D01*
X84588287Y-80930687D02*
X84493049Y-80978306D01*
X84493049Y-80978306D02*
X84112097Y-80978306D01*
X85635906Y-81454497D02*
X85064478Y-81454497D01*
X85350192Y-81454497D02*
X85350192Y-80454497D01*
X85350192Y-80454497D02*
X85254954Y-80597354D01*
X85254954Y-80597354D02*
X85159716Y-80692592D01*
X85159716Y-80692592D02*
X85064478Y-80740211D01*
X67534819Y-74816666D02*
X67058628Y-75149999D01*
X67534819Y-75388094D02*
X66534819Y-75388094D01*
X66534819Y-75388094D02*
X66534819Y-75007142D01*
X66534819Y-75007142D02*
X66582438Y-74911904D01*
X66582438Y-74911904D02*
X66630057Y-74864285D01*
X66630057Y-74864285D02*
X66725295Y-74816666D01*
X66725295Y-74816666D02*
X66868152Y-74816666D01*
X66868152Y-74816666D02*
X66963390Y-74864285D01*
X66963390Y-74864285D02*
X67011009Y-74911904D01*
X67011009Y-74911904D02*
X67058628Y-75007142D01*
X67058628Y-75007142D02*
X67058628Y-75388094D01*
X66630057Y-74435713D02*
X66582438Y-74388094D01*
X66582438Y-74388094D02*
X66534819Y-74292856D01*
X66534819Y-74292856D02*
X66534819Y-74054761D01*
X66534819Y-74054761D02*
X66582438Y-73959523D01*
X66582438Y-73959523D02*
X66630057Y-73911904D01*
X66630057Y-73911904D02*
X66725295Y-73864285D01*
X66725295Y-73864285D02*
X66820533Y-73864285D01*
X66820533Y-73864285D02*
X66963390Y-73911904D01*
X66963390Y-73911904D02*
X67534819Y-74483332D01*
X67534819Y-74483332D02*
X67534819Y-73864285D01*
X71914819Y-74786666D02*
X71438628Y-75119999D01*
X71914819Y-75358094D02*
X70914819Y-75358094D01*
X70914819Y-75358094D02*
X70914819Y-74977142D01*
X70914819Y-74977142D02*
X70962438Y-74881904D01*
X70962438Y-74881904D02*
X71010057Y-74834285D01*
X71010057Y-74834285D02*
X71105295Y-74786666D01*
X71105295Y-74786666D02*
X71248152Y-74786666D01*
X71248152Y-74786666D02*
X71343390Y-74834285D01*
X71343390Y-74834285D02*
X71391009Y-74881904D01*
X71391009Y-74881904D02*
X71438628Y-74977142D01*
X71438628Y-74977142D02*
X71438628Y-75358094D01*
X71248152Y-73929523D02*
X71914819Y-73929523D01*
X70867200Y-74167618D02*
X71581485Y-74405713D01*
X71581485Y-74405713D02*
X71581485Y-73786666D01*
X47454819Y-51866666D02*
X46978628Y-52199999D01*
X47454819Y-52438094D02*
X46454819Y-52438094D01*
X46454819Y-52438094D02*
X46454819Y-52057142D01*
X46454819Y-52057142D02*
X46502438Y-51961904D01*
X46502438Y-51961904D02*
X46550057Y-51914285D01*
X46550057Y-51914285D02*
X46645295Y-51866666D01*
X46645295Y-51866666D02*
X46788152Y-51866666D01*
X46788152Y-51866666D02*
X46883390Y-51914285D01*
X46883390Y-51914285D02*
X46931009Y-51961904D01*
X46931009Y-51961904D02*
X46978628Y-52057142D01*
X46978628Y-52057142D02*
X46978628Y-52438094D01*
X46454819Y-50961904D02*
X46454819Y-51438094D01*
X46454819Y-51438094D02*
X46931009Y-51485713D01*
X46931009Y-51485713D02*
X46883390Y-51438094D01*
X46883390Y-51438094D02*
X46835771Y-51342856D01*
X46835771Y-51342856D02*
X46835771Y-51104761D01*
X46835771Y-51104761D02*
X46883390Y-51009523D01*
X46883390Y-51009523D02*
X46931009Y-50961904D01*
X46931009Y-50961904D02*
X47026247Y-50914285D01*
X47026247Y-50914285D02*
X47264342Y-50914285D01*
X47264342Y-50914285D02*
X47359580Y-50961904D01*
X47359580Y-50961904D02*
X47407200Y-51009523D01*
X47407200Y-51009523D02*
X47454819Y-51104761D01*
X47454819Y-51104761D02*
X47454819Y-51342856D01*
X47454819Y-51342856D02*
X47407200Y-51438094D01*
X47407200Y-51438094D02*
X47359580Y-51485713D01*
X57654819Y-74766666D02*
X57178628Y-75099999D01*
X57654819Y-75338094D02*
X56654819Y-75338094D01*
X56654819Y-75338094D02*
X56654819Y-74957142D01*
X56654819Y-74957142D02*
X56702438Y-74861904D01*
X56702438Y-74861904D02*
X56750057Y-74814285D01*
X56750057Y-74814285D02*
X56845295Y-74766666D01*
X56845295Y-74766666D02*
X56988152Y-74766666D01*
X56988152Y-74766666D02*
X57083390Y-74814285D01*
X57083390Y-74814285D02*
X57131009Y-74861904D01*
X57131009Y-74861904D02*
X57178628Y-74957142D01*
X57178628Y-74957142D02*
X57178628Y-75338094D01*
X56654819Y-73909523D02*
X56654819Y-74099999D01*
X56654819Y-74099999D02*
X56702438Y-74195237D01*
X56702438Y-74195237D02*
X56750057Y-74242856D01*
X56750057Y-74242856D02*
X56892914Y-74338094D01*
X56892914Y-74338094D02*
X57083390Y-74385713D01*
X57083390Y-74385713D02*
X57464342Y-74385713D01*
X57464342Y-74385713D02*
X57559580Y-74338094D01*
X57559580Y-74338094D02*
X57607200Y-74290475D01*
X57607200Y-74290475D02*
X57654819Y-74195237D01*
X57654819Y-74195237D02*
X57654819Y-74004761D01*
X57654819Y-74004761D02*
X57607200Y-73909523D01*
X57607200Y-73909523D02*
X57559580Y-73861904D01*
X57559580Y-73861904D02*
X57464342Y-73814285D01*
X57464342Y-73814285D02*
X57226247Y-73814285D01*
X57226247Y-73814285D02*
X57131009Y-73861904D01*
X57131009Y-73861904D02*
X57083390Y-73909523D01*
X57083390Y-73909523D02*
X57035771Y-74004761D01*
X57035771Y-74004761D02*
X57035771Y-74195237D01*
X57035771Y-74195237D02*
X57083390Y-74290475D01*
X57083390Y-74290475D02*
X57131009Y-74338094D01*
X57131009Y-74338094D02*
X57226247Y-74385713D01*
X61833333Y-61254819D02*
X61500000Y-60778628D01*
X61261905Y-61254819D02*
X61261905Y-60254819D01*
X61261905Y-60254819D02*
X61642857Y-60254819D01*
X61642857Y-60254819D02*
X61738095Y-60302438D01*
X61738095Y-60302438D02*
X61785714Y-60350057D01*
X61785714Y-60350057D02*
X61833333Y-60445295D01*
X61833333Y-60445295D02*
X61833333Y-60588152D01*
X61833333Y-60588152D02*
X61785714Y-60683390D01*
X61785714Y-60683390D02*
X61738095Y-60731009D01*
X61738095Y-60731009D02*
X61642857Y-60778628D01*
X61642857Y-60778628D02*
X61261905Y-60778628D01*
X62404762Y-60683390D02*
X62309524Y-60635771D01*
X62309524Y-60635771D02*
X62261905Y-60588152D01*
X62261905Y-60588152D02*
X62214286Y-60492914D01*
X62214286Y-60492914D02*
X62214286Y-60445295D01*
X62214286Y-60445295D02*
X62261905Y-60350057D01*
X62261905Y-60350057D02*
X62309524Y-60302438D01*
X62309524Y-60302438D02*
X62404762Y-60254819D01*
X62404762Y-60254819D02*
X62595238Y-60254819D01*
X62595238Y-60254819D02*
X62690476Y-60302438D01*
X62690476Y-60302438D02*
X62738095Y-60350057D01*
X62738095Y-60350057D02*
X62785714Y-60445295D01*
X62785714Y-60445295D02*
X62785714Y-60492914D01*
X62785714Y-60492914D02*
X62738095Y-60588152D01*
X62738095Y-60588152D02*
X62690476Y-60635771D01*
X62690476Y-60635771D02*
X62595238Y-60683390D01*
X62595238Y-60683390D02*
X62404762Y-60683390D01*
X62404762Y-60683390D02*
X62309524Y-60731009D01*
X62309524Y-60731009D02*
X62261905Y-60778628D01*
X62261905Y-60778628D02*
X62214286Y-60873866D01*
X62214286Y-60873866D02*
X62214286Y-61064342D01*
X62214286Y-61064342D02*
X62261905Y-61159580D01*
X62261905Y-61159580D02*
X62309524Y-61207200D01*
X62309524Y-61207200D02*
X62404762Y-61254819D01*
X62404762Y-61254819D02*
X62595238Y-61254819D01*
X62595238Y-61254819D02*
X62690476Y-61207200D01*
X62690476Y-61207200D02*
X62738095Y-61159580D01*
X62738095Y-61159580D02*
X62785714Y-61064342D01*
X62785714Y-61064342D02*
X62785714Y-60873866D01*
X62785714Y-60873866D02*
X62738095Y-60778628D01*
X62738095Y-60778628D02*
X62690476Y-60731009D01*
X62690476Y-60731009D02*
X62595238Y-60683390D01*
X98143333Y-39354819D02*
X97810000Y-38878628D01*
X97571905Y-39354819D02*
X97571905Y-38354819D01*
X97571905Y-38354819D02*
X97952857Y-38354819D01*
X97952857Y-38354819D02*
X98048095Y-38402438D01*
X98048095Y-38402438D02*
X98095714Y-38450057D01*
X98095714Y-38450057D02*
X98143333Y-38545295D01*
X98143333Y-38545295D02*
X98143333Y-38688152D01*
X98143333Y-38688152D02*
X98095714Y-38783390D01*
X98095714Y-38783390D02*
X98048095Y-38831009D01*
X98048095Y-38831009D02*
X97952857Y-38878628D01*
X97952857Y-38878628D02*
X97571905Y-38878628D01*
X98619524Y-39354819D02*
X98810000Y-39354819D01*
X98810000Y-39354819D02*
X98905238Y-39307200D01*
X98905238Y-39307200D02*
X98952857Y-39259580D01*
X98952857Y-39259580D02*
X99048095Y-39116723D01*
X99048095Y-39116723D02*
X99095714Y-38926247D01*
X99095714Y-38926247D02*
X99095714Y-38545295D01*
X99095714Y-38545295D02*
X99048095Y-38450057D01*
X99048095Y-38450057D02*
X99000476Y-38402438D01*
X99000476Y-38402438D02*
X98905238Y-38354819D01*
X98905238Y-38354819D02*
X98714762Y-38354819D01*
X98714762Y-38354819D02*
X98619524Y-38402438D01*
X98619524Y-38402438D02*
X98571905Y-38450057D01*
X98571905Y-38450057D02*
X98524286Y-38545295D01*
X98524286Y-38545295D02*
X98524286Y-38783390D01*
X98524286Y-38783390D02*
X98571905Y-38878628D01*
X98571905Y-38878628D02*
X98619524Y-38926247D01*
X98619524Y-38926247D02*
X98714762Y-38973866D01*
X98714762Y-38973866D02*
X98905238Y-38973866D01*
X98905238Y-38973866D02*
X99000476Y-38926247D01*
X99000476Y-38926247D02*
X99048095Y-38878628D01*
X99048095Y-38878628D02*
X99095714Y-38783390D01*
X97657142Y-43604819D02*
X97323809Y-43128628D01*
X97085714Y-43604819D02*
X97085714Y-42604819D01*
X97085714Y-42604819D02*
X97466666Y-42604819D01*
X97466666Y-42604819D02*
X97561904Y-42652438D01*
X97561904Y-42652438D02*
X97609523Y-42700057D01*
X97609523Y-42700057D02*
X97657142Y-42795295D01*
X97657142Y-42795295D02*
X97657142Y-42938152D01*
X97657142Y-42938152D02*
X97609523Y-43033390D01*
X97609523Y-43033390D02*
X97561904Y-43081009D01*
X97561904Y-43081009D02*
X97466666Y-43128628D01*
X97466666Y-43128628D02*
X97085714Y-43128628D01*
X98609523Y-43604819D02*
X98038095Y-43604819D01*
X98323809Y-43604819D02*
X98323809Y-42604819D01*
X98323809Y-42604819D02*
X98228571Y-42747676D01*
X98228571Y-42747676D02*
X98133333Y-42842914D01*
X98133333Y-42842914D02*
X98038095Y-42890533D01*
X99228571Y-42604819D02*
X99323809Y-42604819D01*
X99323809Y-42604819D02*
X99419047Y-42652438D01*
X99419047Y-42652438D02*
X99466666Y-42700057D01*
X99466666Y-42700057D02*
X99514285Y-42795295D01*
X99514285Y-42795295D02*
X99561904Y-42985771D01*
X99561904Y-42985771D02*
X99561904Y-43223866D01*
X99561904Y-43223866D02*
X99514285Y-43414342D01*
X99514285Y-43414342D02*
X99466666Y-43509580D01*
X99466666Y-43509580D02*
X99419047Y-43557200D01*
X99419047Y-43557200D02*
X99323809Y-43604819D01*
X99323809Y-43604819D02*
X99228571Y-43604819D01*
X99228571Y-43604819D02*
X99133333Y-43557200D01*
X99133333Y-43557200D02*
X99085714Y-43509580D01*
X99085714Y-43509580D02*
X99038095Y-43414342D01*
X99038095Y-43414342D02*
X98990476Y-43223866D01*
X98990476Y-43223866D02*
X98990476Y-42985771D01*
X98990476Y-42985771D02*
X99038095Y-42795295D01*
X99038095Y-42795295D02*
X99085714Y-42700057D01*
X99085714Y-42700057D02*
X99133333Y-42652438D01*
X99133333Y-42652438D02*
X99228571Y-42604819D01*
X61357142Y-65154819D02*
X61023809Y-64678628D01*
X60785714Y-65154819D02*
X60785714Y-64154819D01*
X60785714Y-64154819D02*
X61166666Y-64154819D01*
X61166666Y-64154819D02*
X61261904Y-64202438D01*
X61261904Y-64202438D02*
X61309523Y-64250057D01*
X61309523Y-64250057D02*
X61357142Y-64345295D01*
X61357142Y-64345295D02*
X61357142Y-64488152D01*
X61357142Y-64488152D02*
X61309523Y-64583390D01*
X61309523Y-64583390D02*
X61261904Y-64631009D01*
X61261904Y-64631009D02*
X61166666Y-64678628D01*
X61166666Y-64678628D02*
X60785714Y-64678628D01*
X62309523Y-65154819D02*
X61738095Y-65154819D01*
X62023809Y-65154819D02*
X62023809Y-64154819D01*
X62023809Y-64154819D02*
X61928571Y-64297676D01*
X61928571Y-64297676D02*
X61833333Y-64392914D01*
X61833333Y-64392914D02*
X61738095Y-64440533D01*
X63166666Y-64154819D02*
X62976190Y-64154819D01*
X62976190Y-64154819D02*
X62880952Y-64202438D01*
X62880952Y-64202438D02*
X62833333Y-64250057D01*
X62833333Y-64250057D02*
X62738095Y-64392914D01*
X62738095Y-64392914D02*
X62690476Y-64583390D01*
X62690476Y-64583390D02*
X62690476Y-64964342D01*
X62690476Y-64964342D02*
X62738095Y-65059580D01*
X62738095Y-65059580D02*
X62785714Y-65107200D01*
X62785714Y-65107200D02*
X62880952Y-65154819D01*
X62880952Y-65154819D02*
X63071428Y-65154819D01*
X63071428Y-65154819D02*
X63166666Y-65107200D01*
X63166666Y-65107200D02*
X63214285Y-65059580D01*
X63214285Y-65059580D02*
X63261904Y-64964342D01*
X63261904Y-64964342D02*
X63261904Y-64726247D01*
X63261904Y-64726247D02*
X63214285Y-64631009D01*
X63214285Y-64631009D02*
X63166666Y-64583390D01*
X63166666Y-64583390D02*
X63071428Y-64535771D01*
X63071428Y-64535771D02*
X62880952Y-64535771D01*
X62880952Y-64535771D02*
X62785714Y-64583390D01*
X62785714Y-64583390D02*
X62738095Y-64631009D01*
X62738095Y-64631009D02*
X62690476Y-64726247D01*
X81538095Y-50154819D02*
X81538095Y-50964342D01*
X81538095Y-50964342D02*
X81585714Y-51059580D01*
X81585714Y-51059580D02*
X81633333Y-51107200D01*
X81633333Y-51107200D02*
X81728571Y-51154819D01*
X81728571Y-51154819D02*
X81919047Y-51154819D01*
X81919047Y-51154819D02*
X82014285Y-51107200D01*
X82014285Y-51107200D02*
X82061904Y-51059580D01*
X82061904Y-51059580D02*
X82109523Y-50964342D01*
X82109523Y-50964342D02*
X82109523Y-50154819D01*
X82538095Y-50250057D02*
X82585714Y-50202438D01*
X82585714Y-50202438D02*
X82680952Y-50154819D01*
X82680952Y-50154819D02*
X82919047Y-50154819D01*
X82919047Y-50154819D02*
X83014285Y-50202438D01*
X83014285Y-50202438D02*
X83061904Y-50250057D01*
X83061904Y-50250057D02*
X83109523Y-50345295D01*
X83109523Y-50345295D02*
X83109523Y-50440533D01*
X83109523Y-50440533D02*
X83061904Y-50583390D01*
X83061904Y-50583390D02*
X82490476Y-51154819D01*
X82490476Y-51154819D02*
X83109523Y-51154819D01*
X47454819Y-68542857D02*
X46978628Y-68876190D01*
X47454819Y-69114285D02*
X46454819Y-69114285D01*
X46454819Y-69114285D02*
X46454819Y-68733333D01*
X46454819Y-68733333D02*
X46502438Y-68638095D01*
X46502438Y-68638095D02*
X46550057Y-68590476D01*
X46550057Y-68590476D02*
X46645295Y-68542857D01*
X46645295Y-68542857D02*
X46788152Y-68542857D01*
X46788152Y-68542857D02*
X46883390Y-68590476D01*
X46883390Y-68590476D02*
X46931009Y-68638095D01*
X46931009Y-68638095D02*
X46978628Y-68733333D01*
X46978628Y-68733333D02*
X46978628Y-69114285D01*
X47454819Y-67590476D02*
X47454819Y-68161904D01*
X47454819Y-67876190D02*
X46454819Y-67876190D01*
X46454819Y-67876190D02*
X46597676Y-67971428D01*
X46597676Y-67971428D02*
X46692914Y-68066666D01*
X46692914Y-68066666D02*
X46740533Y-68161904D01*
X46550057Y-67209523D02*
X46502438Y-67161904D01*
X46502438Y-67161904D02*
X46454819Y-67066666D01*
X46454819Y-67066666D02*
X46454819Y-66828571D01*
X46454819Y-66828571D02*
X46502438Y-66733333D01*
X46502438Y-66733333D02*
X46550057Y-66685714D01*
X46550057Y-66685714D02*
X46645295Y-66638095D01*
X46645295Y-66638095D02*
X46740533Y-66638095D01*
X46740533Y-66638095D02*
X46883390Y-66685714D01*
X46883390Y-66685714D02*
X47454819Y-67257142D01*
X47454819Y-67257142D02*
X47454819Y-66638095D01*
X51754819Y-52038094D02*
X50754819Y-52038094D01*
X50754819Y-52038094D02*
X50754819Y-51799999D01*
X50754819Y-51799999D02*
X50802438Y-51657142D01*
X50802438Y-51657142D02*
X50897676Y-51561904D01*
X50897676Y-51561904D02*
X50992914Y-51514285D01*
X50992914Y-51514285D02*
X51183390Y-51466666D01*
X51183390Y-51466666D02*
X51326247Y-51466666D01*
X51326247Y-51466666D02*
X51516723Y-51514285D01*
X51516723Y-51514285D02*
X51611961Y-51561904D01*
X51611961Y-51561904D02*
X51707200Y-51657142D01*
X51707200Y-51657142D02*
X51754819Y-51799999D01*
X51754819Y-51799999D02*
X51754819Y-52038094D01*
X50754819Y-50561904D02*
X50754819Y-51038094D01*
X50754819Y-51038094D02*
X51231009Y-51085713D01*
X51231009Y-51085713D02*
X51183390Y-51038094D01*
X51183390Y-51038094D02*
X51135771Y-50942856D01*
X51135771Y-50942856D02*
X51135771Y-50704761D01*
X51135771Y-50704761D02*
X51183390Y-50609523D01*
X51183390Y-50609523D02*
X51231009Y-50561904D01*
X51231009Y-50561904D02*
X51326247Y-50514285D01*
X51326247Y-50514285D02*
X51564342Y-50514285D01*
X51564342Y-50514285D02*
X51659580Y-50561904D01*
X51659580Y-50561904D02*
X51707200Y-50609523D01*
X51707200Y-50609523D02*
X51754819Y-50704761D01*
X51754819Y-50704761D02*
X51754819Y-50942856D01*
X51754819Y-50942856D02*
X51707200Y-51038094D01*
X51707200Y-51038094D02*
X51659580Y-51085713D01*
X51754819Y-58561904D02*
X50754819Y-58561904D01*
X51754819Y-57990476D02*
X51183390Y-58419047D01*
X50754819Y-57990476D02*
X51326247Y-58561904D01*
X61198095Y-51754819D02*
X61198095Y-52564342D01*
X61198095Y-52564342D02*
X61245714Y-52659580D01*
X61245714Y-52659580D02*
X61293333Y-52707200D01*
X61293333Y-52707200D02*
X61388571Y-52754819D01*
X61388571Y-52754819D02*
X61579047Y-52754819D01*
X61579047Y-52754819D02*
X61674285Y-52707200D01*
X61674285Y-52707200D02*
X61721904Y-52659580D01*
X61721904Y-52659580D02*
X61769523Y-52564342D01*
X61769523Y-52564342D02*
X61769523Y-51754819D01*
X62769523Y-52754819D02*
X62198095Y-52754819D01*
X62483809Y-52754819D02*
X62483809Y-51754819D01*
X62483809Y-51754819D02*
X62388571Y-51897676D01*
X62388571Y-51897676D02*
X62293333Y-51992914D01*
X62293333Y-51992914D02*
X62198095Y-52040533D01*
X81638095Y-65654819D02*
X81638095Y-66464342D01*
X81638095Y-66464342D02*
X81685714Y-66559580D01*
X81685714Y-66559580D02*
X81733333Y-66607200D01*
X81733333Y-66607200D02*
X81828571Y-66654819D01*
X81828571Y-66654819D02*
X82019047Y-66654819D01*
X82019047Y-66654819D02*
X82114285Y-66607200D01*
X82114285Y-66607200D02*
X82161904Y-66559580D01*
X82161904Y-66559580D02*
X82209523Y-66464342D01*
X82209523Y-66464342D02*
X82209523Y-65654819D01*
X82590476Y-65654819D02*
X83209523Y-65654819D01*
X83209523Y-65654819D02*
X82876190Y-66035771D01*
X82876190Y-66035771D02*
X83019047Y-66035771D01*
X83019047Y-66035771D02*
X83114285Y-66083390D01*
X83114285Y-66083390D02*
X83161904Y-66131009D01*
X83161904Y-66131009D02*
X83209523Y-66226247D01*
X83209523Y-66226247D02*
X83209523Y-66464342D01*
X83209523Y-66464342D02*
X83161904Y-66559580D01*
X83161904Y-66559580D02*
X83114285Y-66607200D01*
X83114285Y-66607200D02*
X83019047Y-66654819D01*
X83019047Y-66654819D02*
X82733333Y-66654819D01*
X82733333Y-66654819D02*
X82638095Y-66607200D01*
X82638095Y-66607200D02*
X82590476Y-66559580D01*
X94521905Y-79294819D02*
X94521905Y-78294819D01*
X94521905Y-78294819D02*
X94760000Y-78294819D01*
X94760000Y-78294819D02*
X94902857Y-78342438D01*
X94902857Y-78342438D02*
X94998095Y-78437676D01*
X94998095Y-78437676D02*
X95045714Y-78532914D01*
X95045714Y-78532914D02*
X95093333Y-78723390D01*
X95093333Y-78723390D02*
X95093333Y-78866247D01*
X95093333Y-78866247D02*
X95045714Y-79056723D01*
X95045714Y-79056723D02*
X94998095Y-79151961D01*
X94998095Y-79151961D02*
X94902857Y-79247200D01*
X94902857Y-79247200D02*
X94760000Y-79294819D01*
X94760000Y-79294819D02*
X94521905Y-79294819D01*
X95426667Y-78294819D02*
X96093333Y-78294819D01*
X96093333Y-78294819D02*
X95664762Y-79294819D01*
X126704819Y-44998094D02*
X125704819Y-44998094D01*
X125704819Y-44998094D02*
X125704819Y-44759999D01*
X125704819Y-44759999D02*
X125752438Y-44617142D01*
X125752438Y-44617142D02*
X125847676Y-44521904D01*
X125847676Y-44521904D02*
X125942914Y-44474285D01*
X125942914Y-44474285D02*
X126133390Y-44426666D01*
X126133390Y-44426666D02*
X126276247Y-44426666D01*
X126276247Y-44426666D02*
X126466723Y-44474285D01*
X126466723Y-44474285D02*
X126561961Y-44521904D01*
X126561961Y-44521904D02*
X126657200Y-44617142D01*
X126657200Y-44617142D02*
X126704819Y-44759999D01*
X126704819Y-44759999D02*
X126704819Y-44998094D01*
X126704819Y-43474285D02*
X126704819Y-44045713D01*
X126704819Y-43759999D02*
X125704819Y-43759999D01*
X125704819Y-43759999D02*
X125847676Y-43855237D01*
X125847676Y-43855237D02*
X125942914Y-43950475D01*
X125942914Y-43950475D02*
X125990533Y-44045713D01*
X124104819Y-52141904D02*
X123104819Y-52141904D01*
X124104819Y-51570476D02*
X123533390Y-51999047D01*
X123104819Y-51570476D02*
X123676247Y-52141904D01*
X94551905Y-90084819D02*
X94551905Y-89084819D01*
X94551905Y-89084819D02*
X94790000Y-89084819D01*
X94790000Y-89084819D02*
X94932857Y-89132438D01*
X94932857Y-89132438D02*
X95028095Y-89227676D01*
X95028095Y-89227676D02*
X95075714Y-89322914D01*
X95075714Y-89322914D02*
X95123333Y-89513390D01*
X95123333Y-89513390D02*
X95123333Y-89656247D01*
X95123333Y-89656247D02*
X95075714Y-89846723D01*
X95075714Y-89846723D02*
X95028095Y-89941961D01*
X95028095Y-89941961D02*
X94932857Y-90037200D01*
X94932857Y-90037200D02*
X94790000Y-90084819D01*
X94790000Y-90084819D02*
X94551905Y-90084819D01*
X95694762Y-89513390D02*
X95599524Y-89465771D01*
X95599524Y-89465771D02*
X95551905Y-89418152D01*
X95551905Y-89418152D02*
X95504286Y-89322914D01*
X95504286Y-89322914D02*
X95504286Y-89275295D01*
X95504286Y-89275295D02*
X95551905Y-89180057D01*
X95551905Y-89180057D02*
X95599524Y-89132438D01*
X95599524Y-89132438D02*
X95694762Y-89084819D01*
X95694762Y-89084819D02*
X95885238Y-89084819D01*
X95885238Y-89084819D02*
X95980476Y-89132438D01*
X95980476Y-89132438D02*
X96028095Y-89180057D01*
X96028095Y-89180057D02*
X96075714Y-89275295D01*
X96075714Y-89275295D02*
X96075714Y-89322914D01*
X96075714Y-89322914D02*
X96028095Y-89418152D01*
X96028095Y-89418152D02*
X95980476Y-89465771D01*
X95980476Y-89465771D02*
X95885238Y-89513390D01*
X95885238Y-89513390D02*
X95694762Y-89513390D01*
X95694762Y-89513390D02*
X95599524Y-89561009D01*
X95599524Y-89561009D02*
X95551905Y-89608628D01*
X95551905Y-89608628D02*
X95504286Y-89703866D01*
X95504286Y-89703866D02*
X95504286Y-89894342D01*
X95504286Y-89894342D02*
X95551905Y-89989580D01*
X95551905Y-89989580D02*
X95599524Y-90037200D01*
X95599524Y-90037200D02*
X95694762Y-90084819D01*
X95694762Y-90084819D02*
X95885238Y-90084819D01*
X95885238Y-90084819D02*
X95980476Y-90037200D01*
X95980476Y-90037200D02*
X96028095Y-89989580D01*
X96028095Y-89989580D02*
X96075714Y-89894342D01*
X96075714Y-89894342D02*
X96075714Y-89703866D01*
X96075714Y-89703866D02*
X96028095Y-89608628D01*
X96028095Y-89608628D02*
X95980476Y-89561009D01*
X95980476Y-89561009D02*
X95885238Y-89513390D01*
X84233185Y-85383849D02*
X83899852Y-84907658D01*
X83661757Y-85383849D02*
X83661757Y-84383849D01*
X83661757Y-84383849D02*
X84042709Y-84383849D01*
X84042709Y-84383849D02*
X84137947Y-84431468D01*
X84137947Y-84431468D02*
X84185566Y-84479087D01*
X84185566Y-84479087D02*
X84233185Y-84574325D01*
X84233185Y-84574325D02*
X84233185Y-84717182D01*
X84233185Y-84717182D02*
X84185566Y-84812420D01*
X84185566Y-84812420D02*
X84137947Y-84860039D01*
X84137947Y-84860039D02*
X84042709Y-84907658D01*
X84042709Y-84907658D02*
X83661757Y-84907658D01*
X85185566Y-85383849D02*
X84614138Y-85383849D01*
X84899852Y-85383849D02*
X84899852Y-84383849D01*
X84899852Y-84383849D02*
X84804614Y-84526706D01*
X84804614Y-84526706D02*
X84709376Y-84621944D01*
X84709376Y-84621944D02*
X84614138Y-84669563D01*
X85518900Y-84383849D02*
X86137947Y-84383849D01*
X86137947Y-84383849D02*
X85804614Y-84764801D01*
X85804614Y-84764801D02*
X85947471Y-84764801D01*
X85947471Y-84764801D02*
X86042709Y-84812420D01*
X86042709Y-84812420D02*
X86090328Y-84860039D01*
X86090328Y-84860039D02*
X86137947Y-84955277D01*
X86137947Y-84955277D02*
X86137947Y-85193372D01*
X86137947Y-85193372D02*
X86090328Y-85288610D01*
X86090328Y-85288610D02*
X86042709Y-85336230D01*
X86042709Y-85336230D02*
X85947471Y-85383849D01*
X85947471Y-85383849D02*
X85661757Y-85383849D01*
X85661757Y-85383849D02*
X85566519Y-85336230D01*
X85566519Y-85336230D02*
X85518900Y-85288610D01*
X110954819Y-79233094D02*
X109954819Y-79233094D01*
X109954819Y-79233094D02*
X109954819Y-78994999D01*
X109954819Y-78994999D02*
X110002438Y-78852142D01*
X110002438Y-78852142D02*
X110097676Y-78756904D01*
X110097676Y-78756904D02*
X110192914Y-78709285D01*
X110192914Y-78709285D02*
X110383390Y-78661666D01*
X110383390Y-78661666D02*
X110526247Y-78661666D01*
X110526247Y-78661666D02*
X110716723Y-78709285D01*
X110716723Y-78709285D02*
X110811961Y-78756904D01*
X110811961Y-78756904D02*
X110907200Y-78852142D01*
X110907200Y-78852142D02*
X110954819Y-78994999D01*
X110954819Y-78994999D02*
X110954819Y-79233094D01*
X110050057Y-78280713D02*
X110002438Y-78233094D01*
X110002438Y-78233094D02*
X109954819Y-78137856D01*
X109954819Y-78137856D02*
X109954819Y-77899761D01*
X109954819Y-77899761D02*
X110002438Y-77804523D01*
X110002438Y-77804523D02*
X110050057Y-77756904D01*
X110050057Y-77756904D02*
X110145295Y-77709285D01*
X110145295Y-77709285D02*
X110240533Y-77709285D01*
X110240533Y-77709285D02*
X110383390Y-77756904D01*
X110383390Y-77756904D02*
X110954819Y-78328332D01*
X110954819Y-78328332D02*
X110954819Y-77709285D01*
X113554819Y-71136904D02*
X112554819Y-71136904D01*
X113554819Y-70565476D02*
X112983390Y-70994047D01*
X112554819Y-70565476D02*
X113126247Y-71136904D01*
X104954819Y-79233094D02*
X103954819Y-79233094D01*
X103954819Y-79233094D02*
X103954819Y-78994999D01*
X103954819Y-78994999D02*
X104002438Y-78852142D01*
X104002438Y-78852142D02*
X104097676Y-78756904D01*
X104097676Y-78756904D02*
X104192914Y-78709285D01*
X104192914Y-78709285D02*
X104383390Y-78661666D01*
X104383390Y-78661666D02*
X104526247Y-78661666D01*
X104526247Y-78661666D02*
X104716723Y-78709285D01*
X104716723Y-78709285D02*
X104811961Y-78756904D01*
X104811961Y-78756904D02*
X104907200Y-78852142D01*
X104907200Y-78852142D02*
X104954819Y-78994999D01*
X104954819Y-78994999D02*
X104954819Y-79233094D01*
X104050057Y-78280713D02*
X104002438Y-78233094D01*
X104002438Y-78233094D02*
X103954819Y-78137856D01*
X103954819Y-78137856D02*
X103954819Y-77899761D01*
X103954819Y-77899761D02*
X104002438Y-77804523D01*
X104002438Y-77804523D02*
X104050057Y-77756904D01*
X104050057Y-77756904D02*
X104145295Y-77709285D01*
X104145295Y-77709285D02*
X104240533Y-77709285D01*
X104240533Y-77709285D02*
X104383390Y-77756904D01*
X104383390Y-77756904D02*
X104954819Y-78328332D01*
X104954819Y-78328332D02*
X104954819Y-77709285D01*
X107554819Y-71136904D02*
X106554819Y-71136904D01*
X107554819Y-70565476D02*
X106983390Y-70994047D01*
X106554819Y-70565476D02*
X107126247Y-71136904D01*
X92264819Y-71612857D02*
X91788628Y-71946190D01*
X92264819Y-72184285D02*
X91264819Y-72184285D01*
X91264819Y-72184285D02*
X91264819Y-71803333D01*
X91264819Y-71803333D02*
X91312438Y-71708095D01*
X91312438Y-71708095D02*
X91360057Y-71660476D01*
X91360057Y-71660476D02*
X91455295Y-71612857D01*
X91455295Y-71612857D02*
X91598152Y-71612857D01*
X91598152Y-71612857D02*
X91693390Y-71660476D01*
X91693390Y-71660476D02*
X91741009Y-71708095D01*
X91741009Y-71708095D02*
X91788628Y-71803333D01*
X91788628Y-71803333D02*
X91788628Y-72184285D01*
X92264819Y-70660476D02*
X92264819Y-71231904D01*
X92264819Y-70946190D02*
X91264819Y-70946190D01*
X91264819Y-70946190D02*
X91407676Y-71041428D01*
X91407676Y-71041428D02*
X91502914Y-71136666D01*
X91502914Y-71136666D02*
X91550533Y-71231904D01*
X91264819Y-69755714D02*
X91264819Y-70231904D01*
X91264819Y-70231904D02*
X91741009Y-70279523D01*
X91741009Y-70279523D02*
X91693390Y-70231904D01*
X91693390Y-70231904D02*
X91645771Y-70136666D01*
X91645771Y-70136666D02*
X91645771Y-69898571D01*
X91645771Y-69898571D02*
X91693390Y-69803333D01*
X91693390Y-69803333D02*
X91741009Y-69755714D01*
X91741009Y-69755714D02*
X91836247Y-69708095D01*
X91836247Y-69708095D02*
X92074342Y-69708095D01*
X92074342Y-69708095D02*
X92169580Y-69755714D01*
X92169580Y-69755714D02*
X92217200Y-69803333D01*
X92217200Y-69803333D02*
X92264819Y-69898571D01*
X92264819Y-69898571D02*
X92264819Y-70136666D01*
X92264819Y-70136666D02*
X92217200Y-70231904D01*
X92217200Y-70231904D02*
X92169580Y-70279523D01*
X120704819Y-44993094D02*
X119704819Y-44993094D01*
X119704819Y-44993094D02*
X119704819Y-44754999D01*
X119704819Y-44754999D02*
X119752438Y-44612142D01*
X119752438Y-44612142D02*
X119847676Y-44516904D01*
X119847676Y-44516904D02*
X119942914Y-44469285D01*
X119942914Y-44469285D02*
X120133390Y-44421666D01*
X120133390Y-44421666D02*
X120276247Y-44421666D01*
X120276247Y-44421666D02*
X120466723Y-44469285D01*
X120466723Y-44469285D02*
X120561961Y-44516904D01*
X120561961Y-44516904D02*
X120657200Y-44612142D01*
X120657200Y-44612142D02*
X120704819Y-44754999D01*
X120704819Y-44754999D02*
X120704819Y-44993094D01*
X120704819Y-43469285D02*
X120704819Y-44040713D01*
X120704819Y-43754999D02*
X119704819Y-43754999D01*
X119704819Y-43754999D02*
X119847676Y-43850237D01*
X119847676Y-43850237D02*
X119942914Y-43945475D01*
X119942914Y-43945475D02*
X119990533Y-44040713D01*
X118104819Y-52136904D02*
X117104819Y-52136904D01*
X118104819Y-51565476D02*
X117533390Y-51994047D01*
X117104819Y-51565476D02*
X117676247Y-52136904D01*
X52231905Y-33854819D02*
X52231905Y-32854819D01*
X52231905Y-32854819D02*
X52470000Y-32854819D01*
X52470000Y-32854819D02*
X52612857Y-32902438D01*
X52612857Y-32902438D02*
X52708095Y-32997676D01*
X52708095Y-32997676D02*
X52755714Y-33092914D01*
X52755714Y-33092914D02*
X52803333Y-33283390D01*
X52803333Y-33283390D02*
X52803333Y-33426247D01*
X52803333Y-33426247D02*
X52755714Y-33616723D01*
X52755714Y-33616723D02*
X52708095Y-33711961D01*
X52708095Y-33711961D02*
X52612857Y-33807200D01*
X52612857Y-33807200D02*
X52470000Y-33854819D01*
X52470000Y-33854819D02*
X52231905Y-33854819D01*
X53660476Y-32854819D02*
X53470000Y-32854819D01*
X53470000Y-32854819D02*
X53374762Y-32902438D01*
X53374762Y-32902438D02*
X53327143Y-32950057D01*
X53327143Y-32950057D02*
X53231905Y-33092914D01*
X53231905Y-33092914D02*
X53184286Y-33283390D01*
X53184286Y-33283390D02*
X53184286Y-33664342D01*
X53184286Y-33664342D02*
X53231905Y-33759580D01*
X53231905Y-33759580D02*
X53279524Y-33807200D01*
X53279524Y-33807200D02*
X53374762Y-33854819D01*
X53374762Y-33854819D02*
X53565238Y-33854819D01*
X53565238Y-33854819D02*
X53660476Y-33807200D01*
X53660476Y-33807200D02*
X53708095Y-33759580D01*
X53708095Y-33759580D02*
X53755714Y-33664342D01*
X53755714Y-33664342D02*
X53755714Y-33426247D01*
X53755714Y-33426247D02*
X53708095Y-33331009D01*
X53708095Y-33331009D02*
X53660476Y-33283390D01*
X53660476Y-33283390D02*
X53565238Y-33235771D01*
X53565238Y-33235771D02*
X53374762Y-33235771D01*
X53374762Y-33235771D02*
X53279524Y-33283390D01*
X53279524Y-33283390D02*
X53231905Y-33331009D01*
X53231905Y-33331009D02*
X53184286Y-33426247D01*
X60328095Y-36454819D02*
X60328095Y-35454819D01*
X60899523Y-36454819D02*
X60470952Y-35883390D01*
X60899523Y-35454819D02*
X60328095Y-36026247D01*
X41344819Y-51889999D02*
X40344819Y-51889999D01*
X41344819Y-51413809D02*
X40344819Y-51413809D01*
X40344819Y-51413809D02*
X41344819Y-50842381D01*
X41344819Y-50842381D02*
X40344819Y-50842381D01*
X41344819Y-49842381D02*
X41344819Y-50413809D01*
X41344819Y-50128095D02*
X40344819Y-50128095D01*
X40344819Y-50128095D02*
X40487676Y-50223333D01*
X40487676Y-50223333D02*
X40582914Y-50318571D01*
X40582914Y-50318571D02*
X40630533Y-50413809D01*
X127964819Y-79706190D02*
X127964819Y-79515714D01*
X127964819Y-79515714D02*
X128012438Y-79420476D01*
X128012438Y-79420476D02*
X128107676Y-79325238D01*
X128107676Y-79325238D02*
X128298152Y-79277619D01*
X128298152Y-79277619D02*
X128631485Y-79277619D01*
X128631485Y-79277619D02*
X128821961Y-79325238D01*
X128821961Y-79325238D02*
X128917200Y-79420476D01*
X128917200Y-79420476D02*
X128964819Y-79515714D01*
X128964819Y-79515714D02*
X128964819Y-79706190D01*
X128964819Y-79706190D02*
X128917200Y-79801428D01*
X128917200Y-79801428D02*
X128821961Y-79896666D01*
X128821961Y-79896666D02*
X128631485Y-79944285D01*
X128631485Y-79944285D02*
X128298152Y-79944285D01*
X128298152Y-79944285D02*
X128107676Y-79896666D01*
X128107676Y-79896666D02*
X128012438Y-79801428D01*
X128012438Y-79801428D02*
X127964819Y-79706190D01*
X127964819Y-78849047D02*
X128774342Y-78849047D01*
X128774342Y-78849047D02*
X128869580Y-78801428D01*
X128869580Y-78801428D02*
X128917200Y-78753809D01*
X128917200Y-78753809D02*
X128964819Y-78658571D01*
X128964819Y-78658571D02*
X128964819Y-78468095D01*
X128964819Y-78468095D02*
X128917200Y-78372857D01*
X128917200Y-78372857D02*
X128869580Y-78325238D01*
X128869580Y-78325238D02*
X128774342Y-78277619D01*
X128774342Y-78277619D02*
X127964819Y-78277619D01*
X127964819Y-77944285D02*
X127964819Y-77372857D01*
X128964819Y-77658571D02*
X127964819Y-77658571D01*
X128964819Y-76515714D02*
X128964819Y-77087142D01*
X128964819Y-76801428D02*
X127964819Y-76801428D01*
X127964819Y-76801428D02*
X128107676Y-76896666D01*
X128107676Y-76896666D02*
X128202914Y-76991904D01*
X128202914Y-76991904D02*
X128250533Y-77087142D01*
X80903333Y-43749580D02*
X80855714Y-43797200D01*
X80855714Y-43797200D02*
X80712857Y-43844819D01*
X80712857Y-43844819D02*
X80617619Y-43844819D01*
X80617619Y-43844819D02*
X80474762Y-43797200D01*
X80474762Y-43797200D02*
X80379524Y-43701961D01*
X80379524Y-43701961D02*
X80331905Y-43606723D01*
X80331905Y-43606723D02*
X80284286Y-43416247D01*
X80284286Y-43416247D02*
X80284286Y-43273390D01*
X80284286Y-43273390D02*
X80331905Y-43082914D01*
X80331905Y-43082914D02*
X80379524Y-42987676D01*
X80379524Y-42987676D02*
X80474762Y-42892438D01*
X80474762Y-42892438D02*
X80617619Y-42844819D01*
X80617619Y-42844819D02*
X80712857Y-42844819D01*
X80712857Y-42844819D02*
X80855714Y-42892438D01*
X80855714Y-42892438D02*
X80903333Y-42940057D01*
X81760476Y-43178152D02*
X81760476Y-43844819D01*
X81522381Y-42797200D02*
X81284286Y-43511485D01*
X81284286Y-43511485D02*
X81903333Y-43511485D01*
X39606666Y-37356819D02*
X39606666Y-38071104D01*
X39606666Y-38071104D02*
X39559047Y-38213961D01*
X39559047Y-38213961D02*
X39463809Y-38309200D01*
X39463809Y-38309200D02*
X39320952Y-38356819D01*
X39320952Y-38356819D02*
X39225714Y-38356819D01*
X40606666Y-38356819D02*
X40035238Y-38356819D01*
X40320952Y-38356819D02*
X40320952Y-37356819D01*
X40320952Y-37356819D02*
X40225714Y-37499676D01*
X40225714Y-37499676D02*
X40130476Y-37594914D01*
X40130476Y-37594914D02*
X40035238Y-37642533D01*
X41666666Y-63906819D02*
X41666666Y-64621104D01*
X41666666Y-64621104D02*
X41619047Y-64763961D01*
X41619047Y-64763961D02*
X41523809Y-64859200D01*
X41523809Y-64859200D02*
X41380952Y-64906819D01*
X41380952Y-64906819D02*
X41285714Y-64906819D01*
X42095238Y-64002057D02*
X42142857Y-63954438D01*
X42142857Y-63954438D02*
X42238095Y-63906819D01*
X42238095Y-63906819D02*
X42476190Y-63906819D01*
X42476190Y-63906819D02*
X42571428Y-63954438D01*
X42571428Y-63954438D02*
X42619047Y-64002057D01*
X42619047Y-64002057D02*
X42666666Y-64097295D01*
X42666666Y-64097295D02*
X42666666Y-64192533D01*
X42666666Y-64192533D02*
X42619047Y-64335390D01*
X42619047Y-64335390D02*
X42047619Y-64906819D01*
X42047619Y-64906819D02*
X42666666Y-64906819D01*
X130576666Y-83436819D02*
X130576666Y-84151104D01*
X130576666Y-84151104D02*
X130529047Y-84293961D01*
X130529047Y-84293961D02*
X130433809Y-84389200D01*
X130433809Y-84389200D02*
X130290952Y-84436819D01*
X130290952Y-84436819D02*
X130195714Y-84436819D01*
X130957619Y-83436819D02*
X131576666Y-83436819D01*
X131576666Y-83436819D02*
X131243333Y-83817771D01*
X131243333Y-83817771D02*
X131386190Y-83817771D01*
X131386190Y-83817771D02*
X131481428Y-83865390D01*
X131481428Y-83865390D02*
X131529047Y-83913009D01*
X131529047Y-83913009D02*
X131576666Y-84008247D01*
X131576666Y-84008247D02*
X131576666Y-84246342D01*
X131576666Y-84246342D02*
X131529047Y-84341580D01*
X131529047Y-84341580D02*
X131481428Y-84389200D01*
X131481428Y-84389200D02*
X131386190Y-84436819D01*
X131386190Y-84436819D02*
X131100476Y-84436819D01*
X131100476Y-84436819D02*
X131005238Y-84389200D01*
X131005238Y-84389200D02*
X130957619Y-84341580D01*
X119916666Y-74406819D02*
X119916666Y-75121104D01*
X119916666Y-75121104D02*
X119869047Y-75263961D01*
X119869047Y-75263961D02*
X119773809Y-75359200D01*
X119773809Y-75359200D02*
X119630952Y-75406819D01*
X119630952Y-75406819D02*
X119535714Y-75406819D01*
X120821428Y-74740152D02*
X120821428Y-75406819D01*
X120583333Y-74359200D02*
X120345238Y-75073485D01*
X120345238Y-75073485D02*
X120964285Y-75073485D01*
X96794819Y-71622857D02*
X96318628Y-71956190D01*
X96794819Y-72194285D02*
X95794819Y-72194285D01*
X95794819Y-72194285D02*
X95794819Y-71813333D01*
X95794819Y-71813333D02*
X95842438Y-71718095D01*
X95842438Y-71718095D02*
X95890057Y-71670476D01*
X95890057Y-71670476D02*
X95985295Y-71622857D01*
X95985295Y-71622857D02*
X96128152Y-71622857D01*
X96128152Y-71622857D02*
X96223390Y-71670476D01*
X96223390Y-71670476D02*
X96271009Y-71718095D01*
X96271009Y-71718095D02*
X96318628Y-71813333D01*
X96318628Y-71813333D02*
X96318628Y-72194285D01*
X96794819Y-70670476D02*
X96794819Y-71241904D01*
X96794819Y-70956190D02*
X95794819Y-70956190D01*
X95794819Y-70956190D02*
X95937676Y-71051428D01*
X95937676Y-71051428D02*
X96032914Y-71146666D01*
X96032914Y-71146666D02*
X96080533Y-71241904D01*
X96128152Y-69813333D02*
X96794819Y-69813333D01*
X95747200Y-70051428D02*
X96461485Y-70289523D01*
X96461485Y-70289523D02*
X96461485Y-69670476D01*
X92274819Y-54892857D02*
X91798628Y-55226190D01*
X92274819Y-55464285D02*
X91274819Y-55464285D01*
X91274819Y-55464285D02*
X91274819Y-55083333D01*
X91274819Y-55083333D02*
X91322438Y-54988095D01*
X91322438Y-54988095D02*
X91370057Y-54940476D01*
X91370057Y-54940476D02*
X91465295Y-54892857D01*
X91465295Y-54892857D02*
X91608152Y-54892857D01*
X91608152Y-54892857D02*
X91703390Y-54940476D01*
X91703390Y-54940476D02*
X91751009Y-54988095D01*
X91751009Y-54988095D02*
X91798628Y-55083333D01*
X91798628Y-55083333D02*
X91798628Y-55464285D01*
X92274819Y-53940476D02*
X92274819Y-54511904D01*
X92274819Y-54226190D02*
X91274819Y-54226190D01*
X91274819Y-54226190D02*
X91417676Y-54321428D01*
X91417676Y-54321428D02*
X91512914Y-54416666D01*
X91512914Y-54416666D02*
X91560533Y-54511904D01*
X92274819Y-52988095D02*
X92274819Y-53559523D01*
X92274819Y-53273809D02*
X91274819Y-53273809D01*
X91274819Y-53273809D02*
X91417676Y-53369047D01*
X91417676Y-53369047D02*
X91512914Y-53464285D01*
X91512914Y-53464285D02*
X91560533Y-53559523D01*
X96814819Y-54416666D02*
X96338628Y-54749999D01*
X96814819Y-54988094D02*
X95814819Y-54988094D01*
X95814819Y-54988094D02*
X95814819Y-54607142D01*
X95814819Y-54607142D02*
X95862438Y-54511904D01*
X95862438Y-54511904D02*
X95910057Y-54464285D01*
X95910057Y-54464285D02*
X96005295Y-54416666D01*
X96005295Y-54416666D02*
X96148152Y-54416666D01*
X96148152Y-54416666D02*
X96243390Y-54464285D01*
X96243390Y-54464285D02*
X96291009Y-54511904D01*
X96291009Y-54511904D02*
X96338628Y-54607142D01*
X96338628Y-54607142D02*
X96338628Y-54988094D01*
X95814819Y-54083332D02*
X95814819Y-53416666D01*
X95814819Y-53416666D02*
X96814819Y-53845237D01*
X63094819Y-74796666D02*
X62618628Y-75129999D01*
X63094819Y-75368094D02*
X62094819Y-75368094D01*
X62094819Y-75368094D02*
X62094819Y-74987142D01*
X62094819Y-74987142D02*
X62142438Y-74891904D01*
X62142438Y-74891904D02*
X62190057Y-74844285D01*
X62190057Y-74844285D02*
X62285295Y-74796666D01*
X62285295Y-74796666D02*
X62428152Y-74796666D01*
X62428152Y-74796666D02*
X62523390Y-74844285D01*
X62523390Y-74844285D02*
X62571009Y-74891904D01*
X62571009Y-74891904D02*
X62618628Y-74987142D01*
X62618628Y-74987142D02*
X62618628Y-75368094D01*
X62094819Y-74463332D02*
X62094819Y-73844285D01*
X62094819Y-73844285D02*
X62475771Y-74177618D01*
X62475771Y-74177618D02*
X62475771Y-74034761D01*
X62475771Y-74034761D02*
X62523390Y-73939523D01*
X62523390Y-73939523D02*
X62571009Y-73891904D01*
X62571009Y-73891904D02*
X62666247Y-73844285D01*
X62666247Y-73844285D02*
X62904342Y-73844285D01*
X62904342Y-73844285D02*
X62999580Y-73891904D01*
X62999580Y-73891904D02*
X63047200Y-73939523D01*
X63047200Y-73939523D02*
X63094819Y-74034761D01*
X63094819Y-74034761D02*
X63094819Y-74320475D01*
X63094819Y-74320475D02*
X63047200Y-74415713D01*
X63047200Y-74415713D02*
X62999580Y-74463332D01*
X74359580Y-34366666D02*
X74407200Y-34414285D01*
X74407200Y-34414285D02*
X74454819Y-34557142D01*
X74454819Y-34557142D02*
X74454819Y-34652380D01*
X74454819Y-34652380D02*
X74407200Y-34795237D01*
X74407200Y-34795237D02*
X74311961Y-34890475D01*
X74311961Y-34890475D02*
X74216723Y-34938094D01*
X74216723Y-34938094D02*
X74026247Y-34985713D01*
X74026247Y-34985713D02*
X73883390Y-34985713D01*
X73883390Y-34985713D02*
X73692914Y-34938094D01*
X73692914Y-34938094D02*
X73597676Y-34890475D01*
X73597676Y-34890475D02*
X73502438Y-34795237D01*
X73502438Y-34795237D02*
X73454819Y-34652380D01*
X73454819Y-34652380D02*
X73454819Y-34557142D01*
X73454819Y-34557142D02*
X73502438Y-34414285D01*
X73502438Y-34414285D02*
X73550057Y-34366666D01*
X73454819Y-34033332D02*
X73454819Y-33366666D01*
X73454819Y-33366666D02*
X74454819Y-33795237D01*
X120979723Y-30204184D02*
X120979723Y-29204184D01*
X120979723Y-29204184D02*
X121217818Y-29204184D01*
X121217818Y-29204184D02*
X121360675Y-29251803D01*
X121360675Y-29251803D02*
X121455913Y-29347041D01*
X121455913Y-29347041D02*
X121503532Y-29442279D01*
X121503532Y-29442279D02*
X121551151Y-29632755D01*
X121551151Y-29632755D02*
X121551151Y-29775612D01*
X121551151Y-29775612D02*
X121503532Y-29966088D01*
X121503532Y-29966088D02*
X121455913Y-30061326D01*
X121455913Y-30061326D02*
X121360675Y-30156565D01*
X121360675Y-30156565D02*
X121217818Y-30204184D01*
X121217818Y-30204184D02*
X120979723Y-30204184D01*
X122027342Y-30204184D02*
X122217818Y-30204184D01*
X122217818Y-30204184D02*
X122313056Y-30156565D01*
X122313056Y-30156565D02*
X122360675Y-30108945D01*
X122360675Y-30108945D02*
X122455913Y-29966088D01*
X122455913Y-29966088D02*
X122503532Y-29775612D01*
X122503532Y-29775612D02*
X122503532Y-29394660D01*
X122503532Y-29394660D02*
X122455913Y-29299422D01*
X122455913Y-29299422D02*
X122408294Y-29251803D01*
X122408294Y-29251803D02*
X122313056Y-29204184D01*
X122313056Y-29204184D02*
X122122580Y-29204184D01*
X122122580Y-29204184D02*
X122027342Y-29251803D01*
X122027342Y-29251803D02*
X121979723Y-29299422D01*
X121979723Y-29299422D02*
X121932104Y-29394660D01*
X121932104Y-29394660D02*
X121932104Y-29632755D01*
X121932104Y-29632755D02*
X121979723Y-29727993D01*
X121979723Y-29727993D02*
X122027342Y-29775612D01*
X122027342Y-29775612D02*
X122122580Y-29823231D01*
X122122580Y-29823231D02*
X122313056Y-29823231D01*
X122313056Y-29823231D02*
X122408294Y-29775612D01*
X122408294Y-29775612D02*
X122455913Y-29727993D01*
X122455913Y-29727993D02*
X122503532Y-29632755D01*
X122219723Y-33769104D02*
X122695913Y-33769104D01*
X122124485Y-34054819D02*
X122457818Y-33054819D01*
X122457818Y-33054819D02*
X122791151Y-34054819D01*
X83804761Y-97375057D02*
X83709523Y-97327438D01*
X83709523Y-97327438D02*
X83614285Y-97232200D01*
X83614285Y-97232200D02*
X83471428Y-97089342D01*
X83471428Y-97089342D02*
X83376190Y-97041723D01*
X83376190Y-97041723D02*
X83280952Y-97041723D01*
X83328571Y-97279819D02*
X83233333Y-97232200D01*
X83233333Y-97232200D02*
X83138095Y-97136961D01*
X83138095Y-97136961D02*
X83090476Y-96946485D01*
X83090476Y-96946485D02*
X83090476Y-96613152D01*
X83090476Y-96613152D02*
X83138095Y-96422676D01*
X83138095Y-96422676D02*
X83233333Y-96327438D01*
X83233333Y-96327438D02*
X83328571Y-96279819D01*
X83328571Y-96279819D02*
X83519047Y-96279819D01*
X83519047Y-96279819D02*
X83614285Y-96327438D01*
X83614285Y-96327438D02*
X83709523Y-96422676D01*
X83709523Y-96422676D02*
X83757142Y-96613152D01*
X83757142Y-96613152D02*
X83757142Y-96946485D01*
X83757142Y-96946485D02*
X83709523Y-97136961D01*
X83709523Y-97136961D02*
X83614285Y-97232200D01*
X83614285Y-97232200D02*
X83519047Y-97279819D01*
X83519047Y-97279819D02*
X83328571Y-97279819D01*
X84709523Y-97279819D02*
X84138095Y-97279819D01*
X84423809Y-97279819D02*
X84423809Y-96279819D01*
X84423809Y-96279819D02*
X84328571Y-96422676D01*
X84328571Y-96422676D02*
X84233333Y-96517914D01*
X84233333Y-96517914D02*
X84138095Y-96565533D01*
X109744761Y-29780057D02*
X109649523Y-29732438D01*
X109649523Y-29732438D02*
X109554285Y-29637200D01*
X109554285Y-29637200D02*
X109411428Y-29494342D01*
X109411428Y-29494342D02*
X109316190Y-29446723D01*
X109316190Y-29446723D02*
X109220952Y-29446723D01*
X109268571Y-29684819D02*
X109173333Y-29637200D01*
X109173333Y-29637200D02*
X109078095Y-29541961D01*
X109078095Y-29541961D02*
X109030476Y-29351485D01*
X109030476Y-29351485D02*
X109030476Y-29018152D01*
X109030476Y-29018152D02*
X109078095Y-28827676D01*
X109078095Y-28827676D02*
X109173333Y-28732438D01*
X109173333Y-28732438D02*
X109268571Y-28684819D01*
X109268571Y-28684819D02*
X109459047Y-28684819D01*
X109459047Y-28684819D02*
X109554285Y-28732438D01*
X109554285Y-28732438D02*
X109649523Y-28827676D01*
X109649523Y-28827676D02*
X109697142Y-29018152D01*
X109697142Y-29018152D02*
X109697142Y-29351485D01*
X109697142Y-29351485D02*
X109649523Y-29541961D01*
X109649523Y-29541961D02*
X109554285Y-29637200D01*
X109554285Y-29637200D02*
X109459047Y-29684819D01*
X109459047Y-29684819D02*
X109268571Y-29684819D01*
X110078095Y-28780057D02*
X110125714Y-28732438D01*
X110125714Y-28732438D02*
X110220952Y-28684819D01*
X110220952Y-28684819D02*
X110459047Y-28684819D01*
X110459047Y-28684819D02*
X110554285Y-28732438D01*
X110554285Y-28732438D02*
X110601904Y-28780057D01*
X110601904Y-28780057D02*
X110649523Y-28875295D01*
X110649523Y-28875295D02*
X110649523Y-28970533D01*
X110649523Y-28970533D02*
X110601904Y-29113390D01*
X110601904Y-29113390D02*
X110030476Y-29684819D01*
X110030476Y-29684819D02*
X110649523Y-29684819D01*
X43757200Y-87533332D02*
X43804819Y-87390475D01*
X43804819Y-87390475D02*
X43804819Y-87152380D01*
X43804819Y-87152380D02*
X43757200Y-87057142D01*
X43757200Y-87057142D02*
X43709580Y-87009523D01*
X43709580Y-87009523D02*
X43614342Y-86961904D01*
X43614342Y-86961904D02*
X43519104Y-86961904D01*
X43519104Y-86961904D02*
X43423866Y-87009523D01*
X43423866Y-87009523D02*
X43376247Y-87057142D01*
X43376247Y-87057142D02*
X43328628Y-87152380D01*
X43328628Y-87152380D02*
X43281009Y-87342856D01*
X43281009Y-87342856D02*
X43233390Y-87438094D01*
X43233390Y-87438094D02*
X43185771Y-87485713D01*
X43185771Y-87485713D02*
X43090533Y-87533332D01*
X43090533Y-87533332D02*
X42995295Y-87533332D01*
X42995295Y-87533332D02*
X42900057Y-87485713D01*
X42900057Y-87485713D02*
X42852438Y-87438094D01*
X42852438Y-87438094D02*
X42804819Y-87342856D01*
X42804819Y-87342856D02*
X42804819Y-87104761D01*
X42804819Y-87104761D02*
X42852438Y-86961904D01*
X42804819Y-86628570D02*
X43804819Y-86390475D01*
X43804819Y-86390475D02*
X43090533Y-86199999D01*
X43090533Y-86199999D02*
X43804819Y-86009523D01*
X43804819Y-86009523D02*
X42804819Y-85771428D01*
X43804819Y-84866666D02*
X43804819Y-85438094D01*
X43804819Y-85152380D02*
X42804819Y-85152380D01*
X42804819Y-85152380D02*
X42947676Y-85247618D01*
X42947676Y-85247618D02*
X43042914Y-85342856D01*
X43042914Y-85342856D02*
X43090533Y-85438094D01*
X82777105Y-39494619D02*
X82777105Y-38494619D01*
X82777105Y-38494619D02*
X83015200Y-38494619D01*
X83015200Y-38494619D02*
X83158057Y-38542238D01*
X83158057Y-38542238D02*
X83253295Y-38637476D01*
X83253295Y-38637476D02*
X83300914Y-38732714D01*
X83300914Y-38732714D02*
X83348533Y-38923190D01*
X83348533Y-38923190D02*
X83348533Y-39066047D01*
X83348533Y-39066047D02*
X83300914Y-39256523D01*
X83300914Y-39256523D02*
X83253295Y-39351761D01*
X83253295Y-39351761D02*
X83158057Y-39447000D01*
X83158057Y-39447000D02*
X83015200Y-39494619D01*
X83015200Y-39494619D02*
X82777105Y-39494619D01*
X83681867Y-38494619D02*
X84300914Y-38494619D01*
X84300914Y-38494619D02*
X83967581Y-38875571D01*
X83967581Y-38875571D02*
X84110438Y-38875571D01*
X84110438Y-38875571D02*
X84205676Y-38923190D01*
X84205676Y-38923190D02*
X84253295Y-38970809D01*
X84253295Y-38970809D02*
X84300914Y-39066047D01*
X84300914Y-39066047D02*
X84300914Y-39304142D01*
X84300914Y-39304142D02*
X84253295Y-39399380D01*
X84253295Y-39399380D02*
X84205676Y-39447000D01*
X84205676Y-39447000D02*
X84110438Y-39494619D01*
X84110438Y-39494619D02*
X83824724Y-39494619D01*
X83824724Y-39494619D02*
X83729486Y-39447000D01*
X83729486Y-39447000D02*
X83681867Y-39399380D01*
X88333295Y-41594619D02*
X88333295Y-40594619D01*
X88904723Y-41594619D02*
X88476152Y-41023190D01*
X88904723Y-40594619D02*
X88333295Y-41166047D01*
X55066666Y-50204819D02*
X55066666Y-50919104D01*
X55066666Y-50919104D02*
X55019047Y-51061961D01*
X55019047Y-51061961D02*
X54923809Y-51157200D01*
X54923809Y-51157200D02*
X54780952Y-51204819D01*
X54780952Y-51204819D02*
X54685714Y-51204819D01*
X55971428Y-50204819D02*
X55780952Y-50204819D01*
X55780952Y-50204819D02*
X55685714Y-50252438D01*
X55685714Y-50252438D02*
X55638095Y-50300057D01*
X55638095Y-50300057D02*
X55542857Y-50442914D01*
X55542857Y-50442914D02*
X55495238Y-50633390D01*
X55495238Y-50633390D02*
X55495238Y-51014342D01*
X55495238Y-51014342D02*
X55542857Y-51109580D01*
X55542857Y-51109580D02*
X55590476Y-51157200D01*
X55590476Y-51157200D02*
X55685714Y-51204819D01*
X55685714Y-51204819D02*
X55876190Y-51204819D01*
X55876190Y-51204819D02*
X55971428Y-51157200D01*
X55971428Y-51157200D02*
X56019047Y-51109580D01*
X56019047Y-51109580D02*
X56066666Y-51014342D01*
X56066666Y-51014342D02*
X56066666Y-50776247D01*
X56066666Y-50776247D02*
X56019047Y-50681009D01*
X56019047Y-50681009D02*
X55971428Y-50633390D01*
X55971428Y-50633390D02*
X55876190Y-50585771D01*
X55876190Y-50585771D02*
X55685714Y-50585771D01*
X55685714Y-50585771D02*
X55590476Y-50633390D01*
X55590476Y-50633390D02*
X55542857Y-50681009D01*
X55542857Y-50681009D02*
X55495238Y-50776247D01*
X54766666Y-57954819D02*
X54766666Y-58669104D01*
X54766666Y-58669104D02*
X54719047Y-58811961D01*
X54719047Y-58811961D02*
X54623809Y-58907200D01*
X54623809Y-58907200D02*
X54480952Y-58954819D01*
X54480952Y-58954819D02*
X54385714Y-58954819D01*
X55147619Y-57954819D02*
X55814285Y-57954819D01*
X55814285Y-57954819D02*
X55385714Y-58954819D01*
X55066666Y-46004819D02*
X55066666Y-46719104D01*
X55066666Y-46719104D02*
X55019047Y-46861961D01*
X55019047Y-46861961D02*
X54923809Y-46957200D01*
X54923809Y-46957200D02*
X54780952Y-47004819D01*
X54780952Y-47004819D02*
X54685714Y-47004819D01*
X56019047Y-46004819D02*
X55542857Y-46004819D01*
X55542857Y-46004819D02*
X55495238Y-46481009D01*
X55495238Y-46481009D02*
X55542857Y-46433390D01*
X55542857Y-46433390D02*
X55638095Y-46385771D01*
X55638095Y-46385771D02*
X55876190Y-46385771D01*
X55876190Y-46385771D02*
X55971428Y-46433390D01*
X55971428Y-46433390D02*
X56019047Y-46481009D01*
X56019047Y-46481009D02*
X56066666Y-46576247D01*
X56066666Y-46576247D02*
X56066666Y-46814342D01*
X56066666Y-46814342D02*
X56019047Y-46909580D01*
X56019047Y-46909580D02*
X55971428Y-46957200D01*
X55971428Y-46957200D02*
X55876190Y-47004819D01*
X55876190Y-47004819D02*
X55638095Y-47004819D01*
X55638095Y-47004819D02*
X55542857Y-46957200D01*
X55542857Y-46957200D02*
X55495238Y-46909580D01*
D11*
X52670000Y-67680000D02*
X52670000Y-73120000D01*
X52540000Y-67680000D02*
X52670000Y-67680000D01*
X49860000Y-67680000D02*
X49730000Y-67680000D01*
X49730000Y-67680000D02*
X49730000Y-73120000D01*
X52670000Y-68460000D02*
X49730000Y-68460000D01*
X52670000Y-68580000D02*
X49730000Y-68580000D01*
X52670000Y-68700000D02*
X49730000Y-68700000D01*
X52670000Y-73120000D02*
X52540000Y-73120000D01*
X49730000Y-73120000D02*
X49860000Y-73120000D01*
X118810000Y-89830000D02*
X114012000Y-89830000D01*
X118810000Y-89870000D02*
X114019000Y-89870000D01*
X118810000Y-89910000D02*
X114027000Y-89910000D01*
X118810000Y-89950000D02*
X114034000Y-89950000D01*
X118810000Y-89990000D02*
X114042000Y-89990000D01*
X118810000Y-90030000D02*
X114050000Y-90030000D01*
X118810000Y-90070000D02*
X114058000Y-90070000D01*
X118810000Y-90110000D02*
X114067000Y-90110000D01*
X118810000Y-90150000D02*
X114076000Y-90150000D01*
X118810000Y-90190000D02*
X114085000Y-90190000D01*
X118810000Y-90230000D02*
X114094000Y-90230000D01*
X118810000Y-90270000D02*
X114104000Y-90270000D01*
X118810000Y-90310000D02*
X114114000Y-90310000D01*
X118810000Y-90350000D02*
X114124000Y-90350000D01*
X118810000Y-90390000D02*
X114135000Y-90390000D01*
X118810000Y-90430000D02*
X114146000Y-90430000D01*
X118810000Y-90470000D02*
X114157000Y-90470000D01*
X118810000Y-90510000D02*
X114168000Y-90510000D01*
X118810000Y-90550000D02*
X114180000Y-90550000D01*
X118810000Y-90590000D02*
X114192000Y-90590000D01*
X118810000Y-90630000D02*
X114204000Y-90630000D01*
X118810000Y-90670000D02*
X114216000Y-90670000D01*
X118810000Y-90710000D02*
X114229000Y-90710000D01*
X118810000Y-90750000D02*
X114242000Y-90750000D01*
X118810000Y-90790000D02*
X114255000Y-90790000D01*
X118810000Y-90830000D02*
X114269000Y-90830000D01*
X118810000Y-90870000D02*
X114283000Y-90870000D01*
X118810000Y-90910000D02*
X114297000Y-90910000D01*
X118810000Y-90950000D02*
X114312000Y-90950000D01*
X118810000Y-90990000D02*
X114327000Y-90990000D01*
X118810000Y-91030000D02*
X114342000Y-91030000D01*
X118810000Y-91070000D02*
X114358000Y-91070000D01*
X118810000Y-91110000D02*
X114373000Y-91110000D01*
X118810000Y-91150000D02*
X114389000Y-91150000D01*
X118810000Y-91190000D02*
X114406000Y-91190000D01*
X118810000Y-91230000D02*
X114423000Y-91230000D01*
X118810000Y-91270000D02*
X114440000Y-91270000D01*
X118810000Y-91310000D02*
X114457000Y-91310000D01*
X118810000Y-91350000D02*
X114475000Y-91350000D01*
X118810000Y-91390000D02*
X114493000Y-91390000D01*
X118810000Y-91430000D02*
X114511000Y-91430000D01*
X118810000Y-91470000D02*
X114530000Y-91470000D01*
X118810000Y-91510000D02*
X114549000Y-91510000D01*
X118810000Y-91550000D02*
X114568000Y-91550000D01*
X118810000Y-91590000D02*
X114588000Y-91590000D01*
X118810000Y-91630000D02*
X114608000Y-91630000D01*
X118810000Y-91670000D02*
X114629000Y-91670000D01*
X118810000Y-91710000D02*
X114649000Y-91710000D01*
X118810000Y-91750000D02*
X114671000Y-91750000D01*
X118810000Y-91790000D02*
X114692000Y-91790000D01*
X118810000Y-91830000D02*
X114714000Y-91830000D01*
X118810000Y-91870000D02*
X114736000Y-91870000D01*
X118810000Y-91910000D02*
X114759000Y-91910000D01*
X118810000Y-91950000D02*
X114782000Y-91950000D01*
X118810000Y-91990000D02*
X114806000Y-91990000D01*
X118810000Y-92030000D02*
X114829000Y-92030000D01*
X118810000Y-92070000D02*
X114854000Y-92070000D01*
X118810000Y-92110000D02*
X114878000Y-92110000D01*
X118810000Y-92150000D02*
X114903000Y-92150000D01*
X118810000Y-92190000D02*
X114929000Y-92190000D01*
X118810000Y-92230000D02*
X114955000Y-92230000D01*
X118810000Y-92270000D02*
X114981000Y-92270000D01*
X118810000Y-92310000D02*
X115008000Y-92310000D01*
X118810000Y-92350000D02*
X115035000Y-92350000D01*
X118810000Y-92390000D02*
X115062000Y-92390000D01*
X118810000Y-92430000D02*
X115091000Y-92430000D01*
X118810000Y-92470000D02*
X115119000Y-92470000D01*
X118810000Y-92510000D02*
X115148000Y-92510000D01*
X118810000Y-92550000D02*
X115178000Y-92550000D01*
X118810000Y-92590000D02*
X115208000Y-92590000D01*
X118810000Y-92630000D02*
X115238000Y-92630000D01*
X118810000Y-92670000D02*
X115269000Y-92670000D01*
X120567000Y-95110000D02*
X119933000Y-95110000D01*
X121007000Y-95070000D02*
X119493000Y-95070000D01*
X121277000Y-95030000D02*
X119223000Y-95030000D01*
X121490000Y-94990000D02*
X119010000Y-94990000D01*
X121672000Y-94950000D02*
X118828000Y-94950000D01*
X121832000Y-94910000D02*
X118668000Y-94910000D01*
X121977000Y-94870000D02*
X118523000Y-94870000D01*
X122110000Y-94830000D02*
X118390000Y-94830000D01*
X122234000Y-94790000D02*
X118266000Y-94790000D01*
X122349000Y-94750000D02*
X118151000Y-94750000D01*
X122458000Y-94710000D02*
X118042000Y-94710000D01*
X122562000Y-94670000D02*
X117938000Y-94670000D01*
X122660000Y-94630000D02*
X117840000Y-94630000D01*
X122754000Y-94590000D02*
X117746000Y-94590000D01*
X122844000Y-94550000D02*
X117656000Y-94550000D01*
X122930000Y-94510000D02*
X117570000Y-94510000D01*
X123013000Y-94470000D02*
X117487000Y-94470000D01*
X123093000Y-94430000D02*
X117407000Y-94430000D01*
X123171000Y-94390000D02*
X117329000Y-94390000D01*
X123246000Y-94350000D02*
X117254000Y-94350000D01*
X123319000Y-94310000D02*
X117181000Y-94310000D01*
X123389000Y-94270000D02*
X117111000Y-94270000D01*
X123458000Y-94230000D02*
X117042000Y-94230000D01*
X123524000Y-94190000D02*
X116976000Y-94190000D01*
X123589000Y-94150000D02*
X116911000Y-94150000D01*
X123652000Y-94110000D02*
X116848000Y-94110000D01*
X123713000Y-94070000D02*
X116787000Y-94070000D01*
X123773000Y-94030000D02*
X116727000Y-94030000D01*
X123825000Y-81932918D02*
X123825000Y-83182918D01*
X123832000Y-93990000D02*
X116668000Y-93990000D01*
X123889000Y-93950000D02*
X116611000Y-93950000D01*
X123945000Y-93910000D02*
X116555000Y-93910000D01*
X124000000Y-93870000D02*
X116500000Y-93870000D01*
X124053000Y-93830000D02*
X116447000Y-93830000D01*
X124106000Y-93790000D02*
X116394000Y-93790000D01*
X124157000Y-93750000D02*
X116343000Y-93750000D01*
X124207000Y-93710000D02*
X116293000Y-93710000D01*
X124256000Y-93670000D02*
X116244000Y-93670000D01*
X124304000Y-93630000D02*
X116196000Y-93630000D01*
X124351000Y-93590000D02*
X116149000Y-93590000D01*
X124398000Y-93550000D02*
X116102000Y-93550000D01*
X124443000Y-93510000D02*
X116057000Y-93510000D01*
X124450000Y-82557918D02*
X123200000Y-82557918D01*
X124488000Y-93470000D02*
X116012000Y-93470000D01*
X124531000Y-93430000D02*
X115969000Y-93430000D01*
X124574000Y-93390000D02*
X115926000Y-93390000D01*
X124616000Y-93350000D02*
X115884000Y-93350000D01*
X124658000Y-93310000D02*
X115842000Y-93310000D01*
X124698000Y-93270000D02*
X115802000Y-93270000D01*
X124738000Y-93230000D02*
X115762000Y-93230000D01*
X124778000Y-93190000D02*
X115722000Y-93190000D01*
X124816000Y-93150000D02*
X115684000Y-93150000D01*
X124854000Y-93110000D02*
X115646000Y-93110000D01*
X124891000Y-93070000D02*
X115609000Y-93070000D01*
X124928000Y-93030000D02*
X115572000Y-93030000D01*
X124964000Y-92990000D02*
X115536000Y-92990000D01*
X124999000Y-92950000D02*
X115501000Y-92950000D01*
X125034000Y-92910000D02*
X115466000Y-92910000D01*
X125068000Y-92870000D02*
X115432000Y-92870000D01*
X125102000Y-92830000D02*
X115398000Y-92830000D01*
X125135000Y-92790000D02*
X115365000Y-92790000D01*
X125168000Y-92750000D02*
X115332000Y-92750000D01*
X125200000Y-92710000D02*
X115300000Y-92710000D01*
X125231000Y-92670000D02*
X121690000Y-92670000D01*
X125262000Y-92630000D02*
X121690000Y-92630000D01*
X125292000Y-92590000D02*
X121690000Y-92590000D01*
X125322000Y-92550000D02*
X121690000Y-92550000D01*
X125352000Y-92510000D02*
X121690000Y-92510000D01*
X125381000Y-92470000D02*
X121690000Y-92470000D01*
X125409000Y-92430000D02*
X121690000Y-92430000D01*
X125438000Y-92390000D02*
X121690000Y-92390000D01*
X125465000Y-92350000D02*
X121690000Y-92350000D01*
X125492000Y-92310000D02*
X121690000Y-92310000D01*
X125519000Y-92270000D02*
X121690000Y-92270000D01*
X125545000Y-92230000D02*
X121690000Y-92230000D01*
X125571000Y-92190000D02*
X121690000Y-92190000D01*
X125597000Y-92150000D02*
X121690000Y-92150000D01*
X125622000Y-92110000D02*
X121690000Y-92110000D01*
X125646000Y-92070000D02*
X121690000Y-92070000D01*
X125671000Y-92030000D02*
X121690000Y-92030000D01*
X125694000Y-91990000D02*
X121690000Y-91990000D01*
X125718000Y-91950000D02*
X121690000Y-91950000D01*
X125741000Y-91910000D02*
X121690000Y-91910000D01*
X125764000Y-91870000D02*
X121690000Y-91870000D01*
X125786000Y-91830000D02*
X121690000Y-91830000D01*
X125808000Y-91790000D02*
X121690000Y-91790000D01*
X125829000Y-91750000D02*
X121690000Y-91750000D01*
X125851000Y-91710000D02*
X121690000Y-91710000D01*
X125871000Y-91670000D02*
X121690000Y-91670000D01*
X125892000Y-91630000D02*
X121690000Y-91630000D01*
X125912000Y-91590000D02*
X121690000Y-91590000D01*
X125932000Y-91550000D02*
X121690000Y-91550000D01*
X125951000Y-91510000D02*
X121690000Y-91510000D01*
X125970000Y-91470000D02*
X121690000Y-91470000D01*
X125989000Y-91430000D02*
X121690000Y-91430000D01*
X126007000Y-91390000D02*
X121690000Y-91390000D01*
X126025000Y-91350000D02*
X121690000Y-91350000D01*
X126043000Y-91310000D02*
X121690000Y-91310000D01*
X126060000Y-91270000D02*
X121690000Y-91270000D01*
X126077000Y-91230000D02*
X121690000Y-91230000D01*
X126094000Y-91190000D02*
X121690000Y-91190000D01*
X126111000Y-91150000D02*
X121690000Y-91150000D01*
X126127000Y-91110000D02*
X121690000Y-91110000D01*
X126142000Y-91070000D02*
X121690000Y-91070000D01*
X126158000Y-91030000D02*
X121690000Y-91030000D01*
X126173000Y-90990000D02*
X121690000Y-90990000D01*
X126188000Y-90950000D02*
X121690000Y-90950000D01*
X126203000Y-90910000D02*
X121690000Y-90910000D01*
X126217000Y-90870000D02*
X121690000Y-90870000D01*
X126231000Y-90830000D02*
X121690000Y-90830000D01*
X126245000Y-90790000D02*
X121690000Y-90790000D01*
X126258000Y-90750000D02*
X121690000Y-90750000D01*
X126271000Y-90710000D02*
X121690000Y-90710000D01*
X126284000Y-90670000D02*
X121690000Y-90670000D01*
X126296000Y-90630000D02*
X121690000Y-90630000D01*
X126308000Y-90590000D02*
X121690000Y-90590000D01*
X126320000Y-90550000D02*
X121690000Y-90550000D01*
X126332000Y-90510000D02*
X121690000Y-90510000D01*
X126343000Y-90470000D02*
X121690000Y-90470000D01*
X126354000Y-90430000D02*
X121690000Y-90430000D01*
X126365000Y-90390000D02*
X121690000Y-90390000D01*
X126376000Y-90350000D02*
X121690000Y-90350000D01*
X126386000Y-90310000D02*
X121690000Y-90310000D01*
X126396000Y-90270000D02*
X121690000Y-90270000D01*
X126406000Y-90230000D02*
X121690000Y-90230000D01*
X126415000Y-90190000D02*
X121690000Y-90190000D01*
X126424000Y-90150000D02*
X121690000Y-90150000D01*
X126433000Y-90110000D02*
X121690000Y-90110000D01*
X126442000Y-90070000D02*
X121690000Y-90070000D01*
X126450000Y-90030000D02*
X121690000Y-90030000D01*
X126458000Y-89990000D02*
X121690000Y-89990000D01*
X126466000Y-89950000D02*
X121690000Y-89950000D01*
X126473000Y-89910000D02*
X121690000Y-89910000D01*
X126481000Y-89870000D02*
X121690000Y-89870000D01*
X126488000Y-89830000D02*
X121690000Y-89830000D01*
X126495000Y-89790000D02*
X114005000Y-89790000D01*
X126501000Y-89750000D02*
X113999000Y-89750000D01*
X126507000Y-89710000D02*
X113993000Y-89710000D01*
X126513000Y-89670000D02*
X113987000Y-89670000D01*
X126519000Y-89630000D02*
X113981000Y-89630000D01*
X126524000Y-89590000D02*
X113976000Y-89590000D01*
X126530000Y-89550000D02*
X113970000Y-89550000D01*
X126534000Y-89510000D02*
X113966000Y-89510000D01*
X126539000Y-89470000D02*
X113961000Y-89470000D01*
X126544000Y-89430000D02*
X113956000Y-89430000D01*
X126548000Y-89390000D02*
X113952000Y-89390000D01*
X126552000Y-89350000D02*
X113948000Y-89350000D01*
X126555000Y-89310000D02*
X113945000Y-89310000D01*
X126559000Y-89270000D02*
X113941000Y-89270000D01*
X126562000Y-89230000D02*
X113938000Y-89230000D01*
X126565000Y-89190000D02*
X113935000Y-89190000D01*
X126567000Y-89150000D02*
X113933000Y-89150000D01*
X126570000Y-89110000D02*
X113930000Y-89110000D01*
X126572000Y-89070000D02*
X113928000Y-89070000D01*
X126574000Y-89030000D02*
X113926000Y-89030000D01*
X126575000Y-88990000D02*
X113925000Y-88990000D01*
X126577000Y-88950000D02*
X113923000Y-88950000D01*
X126578000Y-88910000D02*
X113922000Y-88910000D01*
X126579000Y-88830000D02*
X113921000Y-88830000D01*
X126579000Y-88870000D02*
X113921000Y-88870000D01*
X126580000Y-88750000D02*
X113920000Y-88750000D01*
X126580000Y-88790000D02*
X113920000Y-88790000D01*
X126620000Y-88750000D02*
G75*
G02*
X113880000Y-88750000I-6370000J0D01*
G01*
X113880000Y-88750000D02*
G75*
G02*
X126620000Y-88750000I6370000J0D01*
G01*
X103672491Y-47074270D02*
X104472491Y-47074270D01*
X104072491Y-46674270D02*
X104072491Y-47474270D01*
X108082189Y-45309270D02*
X108082189Y-53469270D01*
X108122189Y-45309270D02*
X108122189Y-53469270D01*
X108162189Y-45310270D02*
X108162189Y-53468270D01*
X108202189Y-45311270D02*
X108202189Y-53467270D01*
X108242189Y-45312270D02*
X108242189Y-53466270D01*
X108282189Y-45314270D02*
X108282189Y-53464270D01*
X108322189Y-45316270D02*
X108322189Y-48349270D01*
X108322189Y-50429270D02*
X108322189Y-53462270D01*
X108362189Y-45319270D02*
X108362189Y-48349270D01*
X108362189Y-50429270D02*
X108362189Y-53459270D01*
X108402189Y-45321270D02*
X108402189Y-48349270D01*
X108402189Y-50429270D02*
X108402189Y-53457270D01*
X108442189Y-45325270D02*
X108442189Y-48349270D01*
X108442189Y-50429270D02*
X108442189Y-53453270D01*
X108482189Y-45328270D02*
X108482189Y-48349270D01*
X108482189Y-50429270D02*
X108482189Y-53450270D01*
X108522189Y-45333270D02*
X108522189Y-48349270D01*
X108522189Y-50429270D02*
X108522189Y-53445270D01*
X108562189Y-45337270D02*
X108562189Y-48349270D01*
X108562189Y-50429270D02*
X108562189Y-53441270D01*
X108602189Y-45342270D02*
X108602189Y-48349270D01*
X108602189Y-50429270D02*
X108602189Y-53436270D01*
X108642189Y-45347270D02*
X108642189Y-48349270D01*
X108642189Y-50429270D02*
X108642189Y-53431270D01*
X108682189Y-45353270D02*
X108682189Y-48349270D01*
X108682189Y-50429270D02*
X108682189Y-53425270D01*
X108722189Y-45359270D02*
X108722189Y-48349270D01*
X108722189Y-50429270D02*
X108722189Y-53419270D01*
X108762189Y-45366270D02*
X108762189Y-48349270D01*
X108762189Y-50429270D02*
X108762189Y-53412270D01*
X108802189Y-45372270D02*
X108802189Y-48349270D01*
X108802189Y-50429270D02*
X108802189Y-53406270D01*
X108842189Y-45380270D02*
X108842189Y-48349270D01*
X108842189Y-50429270D02*
X108842189Y-53398270D01*
X108882189Y-45387270D02*
X108882189Y-48349270D01*
X108882189Y-50429270D02*
X108882189Y-53391270D01*
X108922189Y-45396270D02*
X108922189Y-48349270D01*
X108922189Y-50429270D02*
X108922189Y-53382270D01*
X108962189Y-45404270D02*
X108962189Y-48349270D01*
X108962189Y-50429270D02*
X108962189Y-53374270D01*
X109002189Y-45413270D02*
X109002189Y-48349270D01*
X109002189Y-50429270D02*
X109002189Y-53365270D01*
X109042189Y-45422270D02*
X109042189Y-48349270D01*
X109042189Y-50429270D02*
X109042189Y-53356270D01*
X109082189Y-45432270D02*
X109082189Y-48349270D01*
X109082189Y-50429270D02*
X109082189Y-53346270D01*
X109122189Y-45442270D02*
X109122189Y-48349270D01*
X109122189Y-50429270D02*
X109122189Y-53336270D01*
X109162189Y-45453270D02*
X109162189Y-48349270D01*
X109162189Y-50429270D02*
X109162189Y-53325270D01*
X109202189Y-45464270D02*
X109202189Y-48349270D01*
X109202189Y-50429270D02*
X109202189Y-53314270D01*
X109242189Y-45476270D02*
X109242189Y-48349270D01*
X109242189Y-50429270D02*
X109242189Y-53302270D01*
X109282189Y-45488270D02*
X109282189Y-48349270D01*
X109282189Y-50429270D02*
X109282189Y-53290270D01*
X109322189Y-45500270D02*
X109322189Y-48349270D01*
X109322189Y-50429270D02*
X109322189Y-53278270D01*
X109362189Y-45513270D02*
X109362189Y-48349270D01*
X109362189Y-50429270D02*
X109362189Y-53265270D01*
X109402189Y-45526270D02*
X109402189Y-48349270D01*
X109402189Y-50429270D02*
X109402189Y-53252270D01*
X109442189Y-45540270D02*
X109442189Y-48349270D01*
X109442189Y-50429270D02*
X109442189Y-53238270D01*
X109482189Y-45554270D02*
X109482189Y-48349270D01*
X109482189Y-50429270D02*
X109482189Y-53224270D01*
X109522189Y-45569270D02*
X109522189Y-48349270D01*
X109522189Y-50429270D02*
X109522189Y-53209270D01*
X109562189Y-45584270D02*
X109562189Y-48349270D01*
X109562189Y-50429270D02*
X109562189Y-53194270D01*
X109602189Y-45600270D02*
X109602189Y-48349270D01*
X109602189Y-50429270D02*
X109602189Y-53178270D01*
X109642189Y-45616270D02*
X109642189Y-48349270D01*
X109642189Y-50429270D02*
X109642189Y-53162270D01*
X109682189Y-45632270D02*
X109682189Y-48349270D01*
X109682189Y-50429270D02*
X109682189Y-53146270D01*
X109722189Y-45649270D02*
X109722189Y-48349270D01*
X109722189Y-50429270D02*
X109722189Y-53129270D01*
X109762189Y-45667270D02*
X109762189Y-48349270D01*
X109762189Y-50429270D02*
X109762189Y-53111270D01*
X109802189Y-45685270D02*
X109802189Y-48349270D01*
X109802189Y-50429270D02*
X109802189Y-53093270D01*
X109842189Y-45704270D02*
X109842189Y-48349270D01*
X109842189Y-50429270D02*
X109842189Y-53074270D01*
X109882189Y-45723270D02*
X109882189Y-48349270D01*
X109882189Y-50429270D02*
X109882189Y-53055270D01*
X109922189Y-45743270D02*
X109922189Y-48349270D01*
X109922189Y-50429270D02*
X109922189Y-53035270D01*
X109962189Y-45763270D02*
X109962189Y-48349270D01*
X109962189Y-50429270D02*
X109962189Y-53015270D01*
X110002189Y-45784270D02*
X110002189Y-48349270D01*
X110002189Y-50429270D02*
X110002189Y-52994270D01*
X110042189Y-45805270D02*
X110042189Y-48349270D01*
X110042189Y-50429270D02*
X110042189Y-52973270D01*
X110082189Y-45827270D02*
X110082189Y-48349270D01*
X110082189Y-50429270D02*
X110082189Y-52951270D01*
X110122189Y-45850270D02*
X110122189Y-48349270D01*
X110122189Y-50429270D02*
X110122189Y-52928270D01*
X110162189Y-45873270D02*
X110162189Y-48349270D01*
X110162189Y-50429270D02*
X110162189Y-52905270D01*
X110202189Y-45896270D02*
X110202189Y-48349270D01*
X110202189Y-50429270D02*
X110202189Y-52882270D01*
X110242189Y-45921270D02*
X110242189Y-48349270D01*
X110242189Y-50429270D02*
X110242189Y-52857270D01*
X110282189Y-45946270D02*
X110282189Y-48349270D01*
X110282189Y-50429270D02*
X110282189Y-52832270D01*
X110322189Y-45971270D02*
X110322189Y-48349270D01*
X110322189Y-50429270D02*
X110322189Y-52807270D01*
X110362189Y-45997270D02*
X110362189Y-48349270D01*
X110362189Y-50429270D02*
X110362189Y-52781270D01*
X110402189Y-46024270D02*
X110402189Y-52754270D01*
X110442189Y-46052270D02*
X110442189Y-52726270D01*
X110482189Y-46080270D02*
X110482189Y-52698270D01*
X110522189Y-46109270D02*
X110522189Y-52669270D01*
X110562189Y-46139270D02*
X110562189Y-52639270D01*
X110602189Y-46170270D02*
X110602189Y-52608270D01*
X110642189Y-46201270D02*
X110642189Y-52577270D01*
X110682189Y-46233270D02*
X110682189Y-52545270D01*
X110722189Y-46266270D02*
X110722189Y-52512270D01*
X110762189Y-46300270D02*
X110762189Y-52478270D01*
X110802189Y-46334270D02*
X110802189Y-52444270D01*
X110842189Y-46370270D02*
X110842189Y-52408270D01*
X110882189Y-46407270D02*
X110882189Y-52371270D01*
X110922189Y-46444270D02*
X110922189Y-52334270D01*
X110962189Y-46483270D02*
X110962189Y-52295270D01*
X111002189Y-46522270D02*
X111002189Y-52256270D01*
X111042189Y-46563270D02*
X111042189Y-52215270D01*
X111082189Y-46605270D02*
X111082189Y-52173270D01*
X111122189Y-46648270D02*
X111122189Y-52130270D01*
X111162189Y-46693270D02*
X111162189Y-52085270D01*
X111202189Y-46738270D02*
X111202189Y-52040270D01*
X111242189Y-46785270D02*
X111242189Y-51993270D01*
X111282189Y-46834270D02*
X111282189Y-51944270D01*
X111322189Y-46884270D02*
X111322189Y-51894270D01*
X111362189Y-46936270D02*
X111362189Y-51842270D01*
X111402189Y-46989270D02*
X111402189Y-51789270D01*
X111442189Y-47045270D02*
X111442189Y-51733270D01*
X111482189Y-47102270D02*
X111482189Y-51676270D01*
X111522189Y-47162270D02*
X111522189Y-51616270D01*
X111562189Y-47224270D02*
X111562189Y-51554270D01*
X111602189Y-47288270D02*
X111602189Y-51490270D01*
X111642189Y-47355270D02*
X111642189Y-51423270D01*
X111682189Y-47425270D02*
X111682189Y-51353270D01*
X111722189Y-47499270D02*
X111722189Y-51279270D01*
X111762189Y-47576270D02*
X111762189Y-51202270D01*
X111802189Y-47658270D02*
X111802189Y-51120270D01*
X111842189Y-47745270D02*
X111842189Y-51033270D01*
X111882189Y-47837270D02*
X111882189Y-50941270D01*
X111922189Y-47936270D02*
X111922189Y-50842270D01*
X111962189Y-48043270D02*
X111962189Y-50735270D01*
X112002189Y-48161270D02*
X112002189Y-50617270D01*
X112042189Y-48292270D02*
X112042189Y-50486270D01*
X112082189Y-48442270D02*
X112082189Y-50336270D01*
X112122189Y-48621270D02*
X112122189Y-50157270D01*
X112162189Y-48856270D02*
X112162189Y-49922270D01*
X112202189Y-49389270D02*
G75*
G02*
X103962189Y-49389270I-4120000J0D01*
G01*
X103962189Y-49389270D02*
G75*
G02*
X112202189Y-49389270I4120000J0D01*
G01*
X68320000Y-50410000D02*
X76480000Y-50410000D01*
X68320000Y-50450000D02*
X76480000Y-50450000D01*
X68321000Y-50370000D02*
X76479000Y-50370000D01*
X68322000Y-50330000D02*
X76478000Y-50330000D01*
X68323000Y-50290000D02*
X76477000Y-50290000D01*
X68325000Y-50250000D02*
X76475000Y-50250000D01*
X68327000Y-50210000D02*
X71360000Y-50210000D01*
X68330000Y-50170000D02*
X71360000Y-50170000D01*
X68332000Y-50130000D02*
X71360000Y-50130000D01*
X68336000Y-50090000D02*
X71360000Y-50090000D01*
X68339000Y-50050000D02*
X71360000Y-50050000D01*
X68344000Y-50010000D02*
X71360000Y-50010000D01*
X68348000Y-49970000D02*
X71360000Y-49970000D01*
X68353000Y-49930000D02*
X71360000Y-49930000D01*
X68358000Y-49890000D02*
X71360000Y-49890000D01*
X68364000Y-49850000D02*
X71360000Y-49850000D01*
X68370000Y-49810000D02*
X71360000Y-49810000D01*
X68377000Y-49770000D02*
X71360000Y-49770000D01*
X68383000Y-49730000D02*
X71360000Y-49730000D01*
X68391000Y-49690000D02*
X71360000Y-49690000D01*
X68398000Y-49650000D02*
X71360000Y-49650000D01*
X68407000Y-49610000D02*
X71360000Y-49610000D01*
X68415000Y-49570000D02*
X71360000Y-49570000D01*
X68424000Y-49530000D02*
X71360000Y-49530000D01*
X68433000Y-49490000D02*
X71360000Y-49490000D01*
X68443000Y-49450000D02*
X71360000Y-49450000D01*
X68453000Y-49410000D02*
X71360000Y-49410000D01*
X68464000Y-49370000D02*
X71360000Y-49370000D01*
X68475000Y-49330000D02*
X71360000Y-49330000D01*
X68487000Y-49290000D02*
X71360000Y-49290000D01*
X68499000Y-49250000D02*
X71360000Y-49250000D01*
X68511000Y-49210000D02*
X71360000Y-49210000D01*
X68524000Y-49170000D02*
X71360000Y-49170000D01*
X68537000Y-49130000D02*
X71360000Y-49130000D01*
X68551000Y-49090000D02*
X71360000Y-49090000D01*
X68565000Y-49050000D02*
X71360000Y-49050000D01*
X68580000Y-49010000D02*
X71360000Y-49010000D01*
X68595000Y-48970000D02*
X71360000Y-48970000D01*
X68611000Y-48930000D02*
X71360000Y-48930000D01*
X68627000Y-48890000D02*
X71360000Y-48890000D01*
X68643000Y-48850000D02*
X71360000Y-48850000D01*
X68660000Y-48810000D02*
X71360000Y-48810000D01*
X68678000Y-48770000D02*
X71360000Y-48770000D01*
X68696000Y-48730000D02*
X71360000Y-48730000D01*
X68715000Y-48690000D02*
X71360000Y-48690000D01*
X68734000Y-48650000D02*
X71360000Y-48650000D01*
X68754000Y-48610000D02*
X71360000Y-48610000D01*
X68774000Y-48570000D02*
X71360000Y-48570000D01*
X68795000Y-48530000D02*
X71360000Y-48530000D01*
X68816000Y-48490000D02*
X71360000Y-48490000D01*
X68838000Y-48450000D02*
X71360000Y-48450000D01*
X68861000Y-48410000D02*
X71360000Y-48410000D01*
X68884000Y-48370000D02*
X71360000Y-48370000D01*
X68907000Y-48330000D02*
X71360000Y-48330000D01*
X68932000Y-48290000D02*
X71360000Y-48290000D01*
X68957000Y-48250000D02*
X71360000Y-48250000D01*
X68982000Y-48210000D02*
X71360000Y-48210000D01*
X69008000Y-48170000D02*
X71360000Y-48170000D01*
X69035000Y-48130000D02*
X75765000Y-48130000D01*
X69063000Y-48090000D02*
X75737000Y-48090000D01*
X69091000Y-48050000D02*
X75709000Y-48050000D01*
X69120000Y-48010000D02*
X75680000Y-48010000D01*
X69150000Y-47970000D02*
X75650000Y-47970000D01*
X69181000Y-47930000D02*
X75619000Y-47930000D01*
X69212000Y-47890000D02*
X75588000Y-47890000D01*
X69244000Y-47850000D02*
X75556000Y-47850000D01*
X69277000Y-47810000D02*
X75523000Y-47810000D01*
X69311000Y-47770000D02*
X75489000Y-47770000D01*
X69345000Y-47730000D02*
X75455000Y-47730000D01*
X69381000Y-47690000D02*
X75419000Y-47690000D01*
X69418000Y-47650000D02*
X75382000Y-47650000D01*
X69455000Y-47610000D02*
X75345000Y-47610000D01*
X69494000Y-47570000D02*
X75306000Y-47570000D01*
X69533000Y-47530000D02*
X75267000Y-47530000D01*
X69574000Y-47490000D02*
X75226000Y-47490000D01*
X69616000Y-47450000D02*
X75184000Y-47450000D01*
X69659000Y-47410000D02*
X75141000Y-47410000D01*
X69685000Y-54459698D02*
X70485000Y-54459698D01*
X69704000Y-47370000D02*
X75096000Y-47370000D01*
X69749000Y-47330000D02*
X75051000Y-47330000D01*
X69796000Y-47290000D02*
X75004000Y-47290000D01*
X69845000Y-47250000D02*
X74955000Y-47250000D01*
X69895000Y-47210000D02*
X74905000Y-47210000D01*
X69947000Y-47170000D02*
X74853000Y-47170000D01*
X70000000Y-47130000D02*
X74800000Y-47130000D01*
X70056000Y-47090000D02*
X74744000Y-47090000D01*
X70085000Y-54859698D02*
X70085000Y-54059698D01*
X70113000Y-47050000D02*
X74687000Y-47050000D01*
X70173000Y-47010000D02*
X74627000Y-47010000D01*
X70235000Y-46970000D02*
X74565000Y-46970000D01*
X70299000Y-46930000D02*
X74501000Y-46930000D01*
X70366000Y-46890000D02*
X74434000Y-46890000D01*
X70436000Y-46850000D02*
X74364000Y-46850000D01*
X70510000Y-46810000D02*
X74290000Y-46810000D01*
X70587000Y-46770000D02*
X74213000Y-46770000D01*
X70669000Y-46730000D02*
X74131000Y-46730000D01*
X70756000Y-46690000D02*
X74044000Y-46690000D01*
X70848000Y-46650000D02*
X73952000Y-46650000D01*
X70947000Y-46610000D02*
X73853000Y-46610000D01*
X71054000Y-46570000D02*
X73746000Y-46570000D01*
X71172000Y-46530000D02*
X73628000Y-46530000D01*
X71303000Y-46490000D02*
X73497000Y-46490000D01*
X71453000Y-46450000D02*
X73347000Y-46450000D01*
X71632000Y-46410000D02*
X73168000Y-46410000D01*
X71867000Y-46370000D02*
X72933000Y-46370000D01*
X73440000Y-48170000D02*
X75792000Y-48170000D01*
X73440000Y-48210000D02*
X75818000Y-48210000D01*
X73440000Y-48250000D02*
X75843000Y-48250000D01*
X73440000Y-48290000D02*
X75868000Y-48290000D01*
X73440000Y-48330000D02*
X75893000Y-48330000D01*
X73440000Y-48370000D02*
X75916000Y-48370000D01*
X73440000Y-48410000D02*
X75939000Y-48410000D01*
X73440000Y-48450000D02*
X75962000Y-48450000D01*
X73440000Y-48490000D02*
X75984000Y-48490000D01*
X73440000Y-48530000D02*
X76005000Y-48530000D01*
X73440000Y-48570000D02*
X76026000Y-48570000D01*
X73440000Y-48610000D02*
X76046000Y-48610000D01*
X73440000Y-48650000D02*
X76066000Y-48650000D01*
X73440000Y-48690000D02*
X76085000Y-48690000D01*
X73440000Y-48730000D02*
X76104000Y-48730000D01*
X73440000Y-48770000D02*
X76122000Y-48770000D01*
X73440000Y-48810000D02*
X76140000Y-48810000D01*
X73440000Y-48850000D02*
X76157000Y-48850000D01*
X73440000Y-48890000D02*
X76173000Y-48890000D01*
X73440000Y-48930000D02*
X76189000Y-48930000D01*
X73440000Y-48970000D02*
X76205000Y-48970000D01*
X73440000Y-49010000D02*
X76220000Y-49010000D01*
X73440000Y-49050000D02*
X76235000Y-49050000D01*
X73440000Y-49090000D02*
X76249000Y-49090000D01*
X73440000Y-49130000D02*
X76263000Y-49130000D01*
X73440000Y-49170000D02*
X76276000Y-49170000D01*
X73440000Y-49210000D02*
X76289000Y-49210000D01*
X73440000Y-49250000D02*
X76301000Y-49250000D01*
X73440000Y-49290000D02*
X76313000Y-49290000D01*
X73440000Y-49330000D02*
X76325000Y-49330000D01*
X73440000Y-49370000D02*
X76336000Y-49370000D01*
X73440000Y-49410000D02*
X76347000Y-49410000D01*
X73440000Y-49450000D02*
X76357000Y-49450000D01*
X73440000Y-49490000D02*
X76367000Y-49490000D01*
X73440000Y-49530000D02*
X76376000Y-49530000D01*
X73440000Y-49570000D02*
X76385000Y-49570000D01*
X73440000Y-49610000D02*
X76393000Y-49610000D01*
X73440000Y-49650000D02*
X76402000Y-49650000D01*
X73440000Y-49690000D02*
X76409000Y-49690000D01*
X73440000Y-49730000D02*
X76417000Y-49730000D01*
X73440000Y-49770000D02*
X76423000Y-49770000D01*
X73440000Y-49810000D02*
X76430000Y-49810000D01*
X73440000Y-49850000D02*
X76436000Y-49850000D01*
X73440000Y-49890000D02*
X76442000Y-49890000D01*
X73440000Y-49930000D02*
X76447000Y-49930000D01*
X73440000Y-49970000D02*
X76452000Y-49970000D01*
X73440000Y-50010000D02*
X76456000Y-50010000D01*
X73440000Y-50050000D02*
X76461000Y-50050000D01*
X73440000Y-50090000D02*
X76464000Y-50090000D01*
X73440000Y-50130000D02*
X76468000Y-50130000D01*
X73440000Y-50170000D02*
X76470000Y-50170000D01*
X73440000Y-50210000D02*
X76473000Y-50210000D01*
X76520000Y-50450000D02*
G75*
G02*
X68280000Y-50450000I-4120000J0D01*
G01*
X68280000Y-50450000D02*
G75*
G02*
X76520000Y-50450000I4120000J0D01*
G01*
X100320000Y-58310000D02*
X108480000Y-58310000D01*
X100320000Y-58350000D02*
X108480000Y-58350000D01*
X100321000Y-58270000D02*
X108479000Y-58270000D01*
X100322000Y-58230000D02*
X108478000Y-58230000D01*
X100323000Y-58190000D02*
X108477000Y-58190000D01*
X100325000Y-58150000D02*
X108475000Y-58150000D01*
X100327000Y-58110000D02*
X103360000Y-58110000D01*
X100330000Y-58070000D02*
X103360000Y-58070000D01*
X100332000Y-58030000D02*
X103360000Y-58030000D01*
X100336000Y-57990000D02*
X103360000Y-57990000D01*
X100339000Y-57950000D02*
X103360000Y-57950000D01*
X100344000Y-57910000D02*
X103360000Y-57910000D01*
X100348000Y-57870000D02*
X103360000Y-57870000D01*
X100353000Y-57830000D02*
X103360000Y-57830000D01*
X100358000Y-57790000D02*
X103360000Y-57790000D01*
X100364000Y-57750000D02*
X103360000Y-57750000D01*
X100370000Y-57710000D02*
X103360000Y-57710000D01*
X100377000Y-57670000D02*
X103360000Y-57670000D01*
X100383000Y-57630000D02*
X103360000Y-57630000D01*
X100391000Y-57590000D02*
X103360000Y-57590000D01*
X100398000Y-57550000D02*
X103360000Y-57550000D01*
X100407000Y-57510000D02*
X103360000Y-57510000D01*
X100415000Y-57470000D02*
X103360000Y-57470000D01*
X100424000Y-57430000D02*
X103360000Y-57430000D01*
X100433000Y-57390000D02*
X103360000Y-57390000D01*
X100443000Y-57350000D02*
X103360000Y-57350000D01*
X100453000Y-57310000D02*
X103360000Y-57310000D01*
X100464000Y-57270000D02*
X103360000Y-57270000D01*
X100475000Y-57230000D02*
X103360000Y-57230000D01*
X100487000Y-57190000D02*
X103360000Y-57190000D01*
X100499000Y-57150000D02*
X103360000Y-57150000D01*
X100511000Y-57110000D02*
X103360000Y-57110000D01*
X100524000Y-57070000D02*
X103360000Y-57070000D01*
X100537000Y-57030000D02*
X103360000Y-57030000D01*
X100551000Y-56990000D02*
X103360000Y-56990000D01*
X100565000Y-56950000D02*
X103360000Y-56950000D01*
X100580000Y-56910000D02*
X103360000Y-56910000D01*
X100595000Y-56870000D02*
X103360000Y-56870000D01*
X100611000Y-56830000D02*
X103360000Y-56830000D01*
X100627000Y-56790000D02*
X103360000Y-56790000D01*
X100643000Y-56750000D02*
X103360000Y-56750000D01*
X100660000Y-56710000D02*
X103360000Y-56710000D01*
X100678000Y-56670000D02*
X103360000Y-56670000D01*
X100696000Y-56630000D02*
X103360000Y-56630000D01*
X100715000Y-56590000D02*
X103360000Y-56590000D01*
X100734000Y-56550000D02*
X103360000Y-56550000D01*
X100754000Y-56510000D02*
X103360000Y-56510000D01*
X100774000Y-56470000D02*
X103360000Y-56470000D01*
X100795000Y-56430000D02*
X103360000Y-56430000D01*
X100816000Y-56390000D02*
X103360000Y-56390000D01*
X100838000Y-56350000D02*
X103360000Y-56350000D01*
X100861000Y-56310000D02*
X103360000Y-56310000D01*
X100884000Y-56270000D02*
X103360000Y-56270000D01*
X100907000Y-56230000D02*
X103360000Y-56230000D01*
X100932000Y-56190000D02*
X103360000Y-56190000D01*
X100957000Y-56150000D02*
X103360000Y-56150000D01*
X100982000Y-56110000D02*
X103360000Y-56110000D01*
X101008000Y-56070000D02*
X103360000Y-56070000D01*
X101035000Y-56030000D02*
X107765000Y-56030000D01*
X101063000Y-55990000D02*
X107737000Y-55990000D01*
X101091000Y-55950000D02*
X107709000Y-55950000D01*
X101120000Y-55910000D02*
X107680000Y-55910000D01*
X101150000Y-55870000D02*
X107650000Y-55870000D01*
X101181000Y-55830000D02*
X107619000Y-55830000D01*
X101212000Y-55790000D02*
X107588000Y-55790000D01*
X101244000Y-55750000D02*
X107556000Y-55750000D01*
X101277000Y-55710000D02*
X107523000Y-55710000D01*
X101311000Y-55670000D02*
X107489000Y-55670000D01*
X101345000Y-55630000D02*
X107455000Y-55630000D01*
X101381000Y-55590000D02*
X107419000Y-55590000D01*
X101418000Y-55550000D02*
X107382000Y-55550000D01*
X101455000Y-55510000D02*
X107345000Y-55510000D01*
X101494000Y-55470000D02*
X107306000Y-55470000D01*
X101533000Y-55430000D02*
X107267000Y-55430000D01*
X101574000Y-55390000D02*
X107226000Y-55390000D01*
X101616000Y-55350000D02*
X107184000Y-55350000D01*
X101659000Y-55310000D02*
X107141000Y-55310000D01*
X101685000Y-62359698D02*
X102485000Y-62359698D01*
X101704000Y-55270000D02*
X107096000Y-55270000D01*
X101749000Y-55230000D02*
X107051000Y-55230000D01*
X101796000Y-55190000D02*
X107004000Y-55190000D01*
X101845000Y-55150000D02*
X106955000Y-55150000D01*
X101895000Y-55110000D02*
X106905000Y-55110000D01*
X101947000Y-55070000D02*
X106853000Y-55070000D01*
X102000000Y-55030000D02*
X106800000Y-55030000D01*
X102056000Y-54990000D02*
X106744000Y-54990000D01*
X102085000Y-62759698D02*
X102085000Y-61959698D01*
X102113000Y-54950000D02*
X106687000Y-54950000D01*
X102173000Y-54910000D02*
X106627000Y-54910000D01*
X102235000Y-54870000D02*
X106565000Y-54870000D01*
X102299000Y-54830000D02*
X106501000Y-54830000D01*
X102366000Y-54790000D02*
X106434000Y-54790000D01*
X102436000Y-54750000D02*
X106364000Y-54750000D01*
X102510000Y-54710000D02*
X106290000Y-54710000D01*
X102587000Y-54670000D02*
X106213000Y-54670000D01*
X102669000Y-54630000D02*
X106131000Y-54630000D01*
X102756000Y-54590000D02*
X106044000Y-54590000D01*
X102848000Y-54550000D02*
X105952000Y-54550000D01*
X102947000Y-54510000D02*
X105853000Y-54510000D01*
X103054000Y-54470000D02*
X105746000Y-54470000D01*
X103172000Y-54430000D02*
X105628000Y-54430000D01*
X103303000Y-54390000D02*
X105497000Y-54390000D01*
X103453000Y-54350000D02*
X105347000Y-54350000D01*
X103632000Y-54310000D02*
X105168000Y-54310000D01*
X103867000Y-54270000D02*
X104933000Y-54270000D01*
X105440000Y-56070000D02*
X107792000Y-56070000D01*
X105440000Y-56110000D02*
X107818000Y-56110000D01*
X105440000Y-56150000D02*
X107843000Y-56150000D01*
X105440000Y-56190000D02*
X107868000Y-56190000D01*
X105440000Y-56230000D02*
X107893000Y-56230000D01*
X105440000Y-56270000D02*
X107916000Y-56270000D01*
X105440000Y-56310000D02*
X107939000Y-56310000D01*
X105440000Y-56350000D02*
X107962000Y-56350000D01*
X105440000Y-56390000D02*
X107984000Y-56390000D01*
X105440000Y-56430000D02*
X108005000Y-56430000D01*
X105440000Y-56470000D02*
X108026000Y-56470000D01*
X105440000Y-56510000D02*
X108046000Y-56510000D01*
X105440000Y-56550000D02*
X108066000Y-56550000D01*
X105440000Y-56590000D02*
X108085000Y-56590000D01*
X105440000Y-56630000D02*
X108104000Y-56630000D01*
X105440000Y-56670000D02*
X108122000Y-56670000D01*
X105440000Y-56710000D02*
X108140000Y-56710000D01*
X105440000Y-56750000D02*
X108157000Y-56750000D01*
X105440000Y-56790000D02*
X108173000Y-56790000D01*
X105440000Y-56830000D02*
X108189000Y-56830000D01*
X105440000Y-56870000D02*
X108205000Y-56870000D01*
X105440000Y-56910000D02*
X108220000Y-56910000D01*
X105440000Y-56950000D02*
X108235000Y-56950000D01*
X105440000Y-56990000D02*
X108249000Y-56990000D01*
X105440000Y-57030000D02*
X108263000Y-57030000D01*
X105440000Y-57070000D02*
X108276000Y-57070000D01*
X105440000Y-57110000D02*
X108289000Y-57110000D01*
X105440000Y-57150000D02*
X108301000Y-57150000D01*
X105440000Y-57190000D02*
X108313000Y-57190000D01*
X105440000Y-57230000D02*
X108325000Y-57230000D01*
X105440000Y-57270000D02*
X108336000Y-57270000D01*
X105440000Y-57310000D02*
X108347000Y-57310000D01*
X105440000Y-57350000D02*
X108357000Y-57350000D01*
X105440000Y-57390000D02*
X108367000Y-57390000D01*
X105440000Y-57430000D02*
X108376000Y-57430000D01*
X105440000Y-57470000D02*
X108385000Y-57470000D01*
X105440000Y-57510000D02*
X108393000Y-57510000D01*
X105440000Y-57550000D02*
X108402000Y-57550000D01*
X105440000Y-57590000D02*
X108409000Y-57590000D01*
X105440000Y-57630000D02*
X108417000Y-57630000D01*
X105440000Y-57670000D02*
X108423000Y-57670000D01*
X105440000Y-57710000D02*
X108430000Y-57710000D01*
X105440000Y-57750000D02*
X108436000Y-57750000D01*
X105440000Y-57790000D02*
X108442000Y-57790000D01*
X105440000Y-57830000D02*
X108447000Y-57830000D01*
X105440000Y-57870000D02*
X108452000Y-57870000D01*
X105440000Y-57910000D02*
X108456000Y-57910000D01*
X105440000Y-57950000D02*
X108461000Y-57950000D01*
X105440000Y-57990000D02*
X108464000Y-57990000D01*
X105440000Y-58030000D02*
X108468000Y-58030000D01*
X105440000Y-58070000D02*
X108470000Y-58070000D01*
X105440000Y-58110000D02*
X108473000Y-58110000D01*
X108520000Y-58350000D02*
G75*
G02*
X100280000Y-58350000I-4120000J0D01*
G01*
X100280000Y-58350000D02*
G75*
G02*
X108520000Y-58350000I4120000J0D01*
G01*
X55964000Y-89565000D02*
X56120000Y-89565000D01*
X58280000Y-89565000D02*
X58436000Y-89565000D01*
X55964484Y-89565000D02*
G75*
G02*
X56120000Y-86333563I1235516J1560000D01*
G01*
X56120000Y-89045961D02*
G75*
G02*
X56120000Y-86964039I1080000J1040961D01*
G01*
X58280000Y-86333563D02*
G75*
G02*
X58435516Y-89565000I-1080000J-1671437D01*
G01*
X58280000Y-86964039D02*
G75*
G02*
X58280000Y-89045961I-1080000J-1040961D01*
G01*
X47190000Y-39300000D02*
X48100000Y-39300000D01*
X56175000Y-42020000D02*
X56175000Y-36580000D01*
X56295000Y-42020000D02*
X56295000Y-36580000D01*
X56415000Y-42020000D02*
X56415000Y-36580000D01*
X58750000Y-39300000D02*
X57840000Y-39300000D01*
X57840000Y-42020000D02*
X48100000Y-42020000D01*
X48100000Y-36580000D01*
X57840000Y-36580000D01*
X57840000Y-42020000D01*
X119960000Y-54780000D02*
X128200000Y-54780000D01*
X119960000Y-61188000D02*
X119960000Y-54780000D01*
X119960000Y-71020000D02*
X119960000Y-64612000D01*
X128200000Y-54780000D02*
X128200000Y-61188000D01*
X128200000Y-64612000D02*
X128200000Y-71020000D01*
X128200000Y-71020000D02*
X119960000Y-71020000D01*
X103040000Y-52250000D02*
X103040000Y-48650000D01*
X98590000Y-50450000D02*
G75*
G02*
X100091193Y-48093600I2600000J0D01*
G01*
X100091193Y-52806400D02*
G75*
G02*
X98590000Y-50450000I1098807J2356400D01*
G01*
X102312795Y-48125816D02*
G75*
G02*
X103040000Y-48650000I-1122795J-2324184D01*
G01*
X103040000Y-52250000D02*
G75*
G02*
X102312795Y-52774184I-1850000J1800000D01*
G01*
X106780000Y-39640000D02*
X106780000Y-43240000D01*
X106780000Y-39640000D02*
G75*
G02*
X107507205Y-39115816I1850000J-1800000D01*
G01*
X107507205Y-43764184D02*
G75*
G02*
X106780000Y-43240000I1122795J2324184D01*
G01*
X109728807Y-39083600D02*
G75*
G02*
X111230000Y-41440000I-1098807J-2356400D01*
G01*
X111230000Y-41440000D02*
G75*
G02*
X109728807Y-43796400I-2600000J0D01*
G01*
X111880000Y-39640000D02*
X111880000Y-43240000D01*
X111880000Y-39640000D02*
G75*
G02*
X112607205Y-39115816I1850000J-1800000D01*
G01*
X112607205Y-43764184D02*
G75*
G02*
X111880000Y-43240000I1122795J2324184D01*
G01*
X114828807Y-39083600D02*
G75*
G02*
X116330000Y-41440000I-1098807J-2356400D01*
G01*
X116330000Y-41440000D02*
G75*
G02*
X114828807Y-43796400I-2600000J0D01*
G01*
X79540192Y-80999678D02*
X80230192Y-80999678D01*
X90160192Y-80999678D02*
X89470192Y-80999678D01*
X80230192Y-79279678D02*
X89470192Y-79279678D01*
X89470192Y-82719678D01*
X80230192Y-82719678D01*
X80230192Y-79279678D01*
X67080000Y-69340000D02*
X67080000Y-70030000D01*
X67080000Y-79960000D02*
X67080000Y-79270000D01*
X65360000Y-79270000D02*
X68800000Y-79270000D01*
X68800000Y-70030000D01*
X65360000Y-70030000D01*
X65360000Y-79270000D01*
X71460000Y-69310000D02*
X71460000Y-70000000D01*
X71460000Y-79930000D02*
X71460000Y-79240000D01*
X73180000Y-70000000D02*
X69740000Y-70000000D01*
X69740000Y-79240000D01*
X73180000Y-79240000D01*
X73180000Y-70000000D01*
X47000000Y-46390000D02*
X47000000Y-47080000D01*
X47000000Y-57010000D02*
X47000000Y-56320000D01*
X48720000Y-47080000D02*
X45280000Y-47080000D01*
X45280000Y-56320000D01*
X48720000Y-56320000D01*
X48720000Y-47080000D01*
X57200000Y-69290000D02*
X57200000Y-69980000D01*
X57200000Y-79910000D02*
X57200000Y-79220000D01*
X55480000Y-79220000D02*
X58920000Y-79220000D01*
X58920000Y-69980000D01*
X55480000Y-69980000D01*
X55480000Y-79220000D01*
X56690000Y-60800000D02*
X57380000Y-60800000D01*
X67310000Y-60800000D02*
X66620000Y-60800000D01*
X57380000Y-59080000D02*
X66620000Y-59080000D01*
X66620000Y-62520000D01*
X57380000Y-62520000D01*
X57380000Y-59080000D01*
X93000000Y-38900000D02*
X93690000Y-38900000D01*
X103620000Y-38900000D02*
X102930000Y-38900000D01*
X93690000Y-37180000D02*
X102930000Y-37180000D01*
X102930000Y-40620000D01*
X93690000Y-40620000D01*
X93690000Y-37180000D01*
X92990000Y-43150000D02*
X93680000Y-43150000D01*
X103610000Y-43150000D02*
X102920000Y-43150000D01*
X102920000Y-44870000D02*
X93680000Y-44870000D01*
X93680000Y-41430000D01*
X102920000Y-41430000D01*
X102920000Y-44870000D01*
X56690000Y-64700000D02*
X57380000Y-64700000D01*
X67310000Y-64700000D02*
X66620000Y-64700000D01*
X66620000Y-66420000D02*
X57380000Y-66420000D01*
X57380000Y-62980000D01*
X66620000Y-62980000D01*
X66620000Y-66420000D01*
X80020000Y-51690000D02*
X80020000Y-61970000D01*
X80020000Y-61970000D02*
X84520000Y-61970000D01*
X81270000Y-51690000D02*
X80020000Y-51690000D01*
X84520000Y-51690000D02*
X83270000Y-51690000D01*
X84520000Y-61970000D02*
X84520000Y-51690000D01*
X83270000Y-51690000D02*
G75*
G02*
X81270000Y-51690000I-1000000J0D01*
G01*
X47000000Y-62590000D02*
X47000000Y-63280000D01*
X47000000Y-73210000D02*
X47000000Y-72520000D01*
X48720000Y-63280000D02*
X45280000Y-63280000D01*
X45280000Y-72520000D01*
X48720000Y-72520000D01*
X48720000Y-63280000D01*
X49830000Y-53000000D02*
X52770000Y-53000000D01*
X49830000Y-53120000D02*
X52770000Y-53120000D01*
X49830000Y-53240000D02*
X52770000Y-53240000D01*
X51300000Y-47560000D02*
X51300000Y-48580000D01*
X51300000Y-55040000D02*
X51300000Y-54020000D01*
X49830000Y-54020000D02*
X52770000Y-54020000D01*
X52770000Y-48580000D01*
X49830000Y-48580000D01*
X49830000Y-54020000D01*
X56850000Y-53140000D02*
X67070000Y-53140000D01*
X56850000Y-54520000D02*
X67070000Y-54520000D01*
X56850000Y-57760000D02*
X56850000Y-53140000D01*
X60110000Y-53140000D02*
X60110000Y-54520000D01*
X63810000Y-53140000D02*
X63810000Y-54520000D01*
X67070000Y-53140000D02*
X67070000Y-57760000D01*
X67070000Y-57760000D02*
X56850000Y-57760000D01*
X80060000Y-66950000D02*
X80060000Y-77230000D01*
X80060000Y-77230000D02*
X84560000Y-77230000D01*
X81310000Y-66950000D02*
X80060000Y-66950000D01*
X84560000Y-66950000D02*
X83310000Y-66950000D01*
X84560000Y-77230000D02*
X84560000Y-66950000D01*
X83310000Y-66950000D02*
G75*
G02*
X81310000Y-66950000I-1000000J0D01*
G01*
X93700000Y-80564000D02*
X93700000Y-80720000D01*
X93700000Y-82880000D02*
X93700000Y-83036000D01*
X93700000Y-80564484D02*
G75*
G02*
X96931437Y-80720000I1560000J-1235516D01*
G01*
X94219039Y-80720000D02*
G75*
G02*
X96300961Y-80720000I1040961J-1080000D01*
G01*
X96300961Y-82880000D02*
G75*
G02*
X94219039Y-82880000I-1040961J1080000D01*
G01*
X96931437Y-82880000D02*
G75*
G02*
X93700000Y-83035516I-1671437J1080000D01*
G01*
X123530000Y-47465000D02*
X128970000Y-47465000D01*
X123530000Y-47585000D02*
X128970000Y-47585000D01*
X123530000Y-47705000D02*
X128970000Y-47705000D01*
X126250000Y-38480000D02*
X126250000Y-39390000D01*
X126250000Y-50040000D02*
X126250000Y-49130000D01*
X123530000Y-49130000D02*
X128970000Y-49130000D01*
X128970000Y-39390000D01*
X123530000Y-39390000D01*
X123530000Y-49130000D01*
X96850000Y-85590000D02*
X96850000Y-85434000D01*
X96850000Y-87906000D02*
X96850000Y-87750000D01*
X93618563Y-85590000D02*
G75*
G02*
X96850000Y-85434484I1671437J-1080000D01*
G01*
X94249039Y-85590000D02*
G75*
G02*
X96330961Y-85590000I1040961J-1080000D01*
G01*
X96330961Y-87750000D02*
G75*
G02*
X94249039Y-87750000I-1040961J1080000D01*
G01*
X96850000Y-87905516D02*
G75*
G02*
X93618563Y-87750000I-1560000J1235516D01*
G01*
X79566043Y-84929030D02*
X80256043Y-84929030D01*
X90186043Y-84929030D02*
X89496043Y-84929030D01*
X89496043Y-86649030D02*
X80256043Y-86649030D01*
X80256043Y-83209030D01*
X89496043Y-83209030D01*
X89496043Y-86649030D01*
X110500000Y-72715000D02*
X110500000Y-73625000D01*
X110500000Y-84275000D02*
X110500000Y-83365000D01*
X113220000Y-75050000D02*
X107780000Y-75050000D01*
X113220000Y-75170000D02*
X107780000Y-75170000D01*
X113220000Y-75290000D02*
X107780000Y-75290000D01*
X113220000Y-73625000D02*
X107780000Y-73625000D01*
X107780000Y-83365000D01*
X113220000Y-83365000D01*
X113220000Y-73625000D01*
X104500000Y-72715000D02*
X104500000Y-73625000D01*
X104500000Y-84275000D02*
X104500000Y-83365000D01*
X107220000Y-75050000D02*
X101780000Y-75050000D01*
X107220000Y-75170000D02*
X101780000Y-75170000D01*
X107220000Y-75290000D02*
X101780000Y-75290000D01*
X107220000Y-73625000D02*
X101780000Y-73625000D01*
X101780000Y-83365000D01*
X107220000Y-83365000D01*
X107220000Y-73625000D01*
X91810000Y-65660000D02*
X91810000Y-66350000D01*
X91810000Y-76280000D02*
X91810000Y-75590000D01*
X90090000Y-75590000D02*
X93530000Y-75590000D01*
X93530000Y-66350000D01*
X90090000Y-66350000D01*
X90090000Y-75590000D01*
X117530000Y-47460000D02*
X122970000Y-47460000D01*
X117530000Y-47580000D02*
X122970000Y-47580000D01*
X117530000Y-47700000D02*
X122970000Y-47700000D01*
X120250000Y-38475000D02*
X120250000Y-39385000D01*
X120250000Y-50035000D02*
X120250000Y-49125000D01*
X117530000Y-49125000D02*
X122970000Y-49125000D01*
X122970000Y-39385000D01*
X117530000Y-39385000D01*
X117530000Y-49125000D01*
X47190000Y-33400000D02*
X48100000Y-33400000D01*
X56175000Y-36120000D02*
X56175000Y-30680000D01*
X56295000Y-36120000D02*
X56295000Y-30680000D01*
X56415000Y-36120000D02*
X56415000Y-30680000D01*
X58750000Y-33400000D02*
X57840000Y-33400000D01*
X57840000Y-36120000D02*
X48100000Y-36120000D01*
X48100000Y-30680000D01*
X57840000Y-30680000D01*
X57840000Y-36120000D01*
D10*
X37260000Y-45890000D02*
X37260000Y-56050000D01*
X37260000Y-45890000D02*
X44880000Y-45890000D01*
X37260000Y-56050000D02*
X44880000Y-56050000D01*
X44880000Y-56050000D02*
X44880000Y-45890000D01*
X126070000Y-73020000D02*
X126070000Y-83180000D01*
X133690000Y-73020000D02*
X126070000Y-73020000D01*
X133690000Y-83180000D02*
X126070000Y-83180000D01*
X133690000Y-83180000D02*
X133690000Y-73020000D01*
D11*
X77200000Y-44520000D02*
X84940000Y-44520000D01*
X77200000Y-49160000D02*
X77200000Y-44520000D01*
X84940000Y-44520000D02*
X84940000Y-49160000D01*
X84940000Y-49160000D02*
X77200000Y-49160000D01*
X42226000Y-40950000D02*
G75*
G02*
X37654000Y-40950000I-2286000J0D01*
G01*
X37654000Y-40950000D02*
G75*
G02*
X42226000Y-40950000I2286000J0D01*
G01*
X44286000Y-67500000D02*
G75*
G02*
X39714000Y-67500000I-2286000J0D01*
G01*
X39714000Y-67500000D02*
G75*
G02*
X44286000Y-67500000I2286000J0D01*
G01*
X133196000Y-87030000D02*
G75*
G02*
X128624000Y-87030000I-2286000J0D01*
G01*
X128624000Y-87030000D02*
G75*
G02*
X133196000Y-87030000I2286000J0D01*
G01*
X122536000Y-78000000D02*
G75*
G02*
X117964000Y-78000000I-2286000J0D01*
G01*
X117964000Y-78000000D02*
G75*
G02*
X122536000Y-78000000I2286000J0D01*
G01*
X96340000Y-65670000D02*
X96340000Y-66360000D01*
X96340000Y-76290000D02*
X96340000Y-75600000D01*
X98060000Y-66360000D02*
X94620000Y-66360000D01*
X94620000Y-75600000D01*
X98060000Y-75600000D01*
X98060000Y-66360000D01*
X91820000Y-48940000D02*
X91820000Y-49630000D01*
X91820000Y-59560000D02*
X91820000Y-58870000D01*
X93540000Y-49630000D02*
X90100000Y-49630000D01*
X90100000Y-58870000D01*
X93540000Y-58870000D01*
X93540000Y-49630000D01*
X96360000Y-48940000D02*
X96360000Y-49630000D01*
X96360000Y-59560000D02*
X96360000Y-58870000D01*
X98080000Y-49630000D02*
X94640000Y-49630000D01*
X94640000Y-58870000D01*
X98080000Y-58870000D01*
X98080000Y-49630000D01*
X62640000Y-69320000D02*
X62640000Y-70010000D01*
X62640000Y-79940000D02*
X62640000Y-79250000D01*
X64360000Y-70010000D02*
X60920000Y-70010000D01*
X60920000Y-79250000D01*
X64360000Y-79250000D01*
X64360000Y-70010000D01*
X68410000Y-37050000D02*
X63612000Y-37050000D01*
X68410000Y-37090000D02*
X63619000Y-37090000D01*
X68410000Y-37130000D02*
X63627000Y-37130000D01*
X68410000Y-37170000D02*
X63634000Y-37170000D01*
X68410000Y-37210000D02*
X63642000Y-37210000D01*
X68410000Y-37250000D02*
X63650000Y-37250000D01*
X68410000Y-37290000D02*
X63658000Y-37290000D01*
X68410000Y-37330000D02*
X63667000Y-37330000D01*
X68410000Y-37370000D02*
X63676000Y-37370000D01*
X68410000Y-37410000D02*
X63685000Y-37410000D01*
X68410000Y-37450000D02*
X63694000Y-37450000D01*
X68410000Y-37490000D02*
X63704000Y-37490000D01*
X68410000Y-37530000D02*
X63714000Y-37530000D01*
X68410000Y-37570000D02*
X63724000Y-37570000D01*
X68410000Y-37610000D02*
X63735000Y-37610000D01*
X68410000Y-37650000D02*
X63746000Y-37650000D01*
X68410000Y-37690000D02*
X63757000Y-37690000D01*
X68410000Y-37730000D02*
X63768000Y-37730000D01*
X68410000Y-37770000D02*
X63780000Y-37770000D01*
X68410000Y-37810000D02*
X63792000Y-37810000D01*
X68410000Y-37850000D02*
X63804000Y-37850000D01*
X68410000Y-37890000D02*
X63816000Y-37890000D01*
X68410000Y-37930000D02*
X63829000Y-37930000D01*
X68410000Y-37970000D02*
X63842000Y-37970000D01*
X68410000Y-38010000D02*
X63855000Y-38010000D01*
X68410000Y-38050000D02*
X63869000Y-38050000D01*
X68410000Y-38090000D02*
X63883000Y-38090000D01*
X68410000Y-38130000D02*
X63897000Y-38130000D01*
X68410000Y-38170000D02*
X63912000Y-38170000D01*
X68410000Y-38210000D02*
X63927000Y-38210000D01*
X68410000Y-38250000D02*
X63942000Y-38250000D01*
X68410000Y-38290000D02*
X63958000Y-38290000D01*
X68410000Y-38330000D02*
X63973000Y-38330000D01*
X68410000Y-38370000D02*
X63989000Y-38370000D01*
X68410000Y-38410000D02*
X64006000Y-38410000D01*
X68410000Y-38450000D02*
X64023000Y-38450000D01*
X68410000Y-38490000D02*
X64040000Y-38490000D01*
X68410000Y-38530000D02*
X64057000Y-38530000D01*
X68410000Y-38570000D02*
X64075000Y-38570000D01*
X68410000Y-38610000D02*
X64093000Y-38610000D01*
X68410000Y-38650000D02*
X64111000Y-38650000D01*
X68410000Y-38690000D02*
X64130000Y-38690000D01*
X68410000Y-38730000D02*
X64149000Y-38730000D01*
X68410000Y-38770000D02*
X64168000Y-38770000D01*
X68410000Y-38810000D02*
X64188000Y-38810000D01*
X68410000Y-38850000D02*
X64208000Y-38850000D01*
X68410000Y-38890000D02*
X64229000Y-38890000D01*
X68410000Y-38930000D02*
X64249000Y-38930000D01*
X68410000Y-38970000D02*
X64271000Y-38970000D01*
X68410000Y-39010000D02*
X64292000Y-39010000D01*
X68410000Y-39050000D02*
X64314000Y-39050000D01*
X68410000Y-39090000D02*
X64336000Y-39090000D01*
X68410000Y-39130000D02*
X64359000Y-39130000D01*
X68410000Y-39170000D02*
X64382000Y-39170000D01*
X68410000Y-39210000D02*
X64406000Y-39210000D01*
X68410000Y-39250000D02*
X64429000Y-39250000D01*
X68410000Y-39290000D02*
X64454000Y-39290000D01*
X68410000Y-39330000D02*
X64478000Y-39330000D01*
X68410000Y-39370000D02*
X64503000Y-39370000D01*
X68410000Y-39410000D02*
X64529000Y-39410000D01*
X68410000Y-39450000D02*
X64555000Y-39450000D01*
X68410000Y-39490000D02*
X64581000Y-39490000D01*
X68410000Y-39530000D02*
X64608000Y-39530000D01*
X68410000Y-39570000D02*
X64635000Y-39570000D01*
X68410000Y-39610000D02*
X64662000Y-39610000D01*
X68410000Y-39650000D02*
X64691000Y-39650000D01*
X68410000Y-39690000D02*
X64719000Y-39690000D01*
X68410000Y-39730000D02*
X64748000Y-39730000D01*
X68410000Y-39770000D02*
X64778000Y-39770000D01*
X68410000Y-39810000D02*
X64808000Y-39810000D01*
X68410000Y-39850000D02*
X64838000Y-39850000D01*
X68410000Y-39890000D02*
X64869000Y-39890000D01*
X70167000Y-42330000D02*
X69533000Y-42330000D01*
X70607000Y-42290000D02*
X69093000Y-42290000D01*
X70877000Y-42250000D02*
X68823000Y-42250000D01*
X71090000Y-42210000D02*
X68610000Y-42210000D01*
X71272000Y-42170000D02*
X68428000Y-42170000D01*
X71432000Y-42130000D02*
X68268000Y-42130000D01*
X71577000Y-42090000D02*
X68123000Y-42090000D01*
X71710000Y-42050000D02*
X67990000Y-42050000D01*
X71834000Y-42010000D02*
X67866000Y-42010000D01*
X71949000Y-41970000D02*
X67751000Y-41970000D01*
X72058000Y-41930000D02*
X67642000Y-41930000D01*
X72162000Y-41890000D02*
X67538000Y-41890000D01*
X72260000Y-41850000D02*
X67440000Y-41850000D01*
X72354000Y-41810000D02*
X67346000Y-41810000D01*
X72444000Y-41770000D02*
X67256000Y-41770000D01*
X72530000Y-41730000D02*
X67170000Y-41730000D01*
X72613000Y-41690000D02*
X67087000Y-41690000D01*
X72693000Y-41650000D02*
X67007000Y-41650000D01*
X72771000Y-41610000D02*
X66929000Y-41610000D01*
X72846000Y-41570000D02*
X66854000Y-41570000D01*
X72919000Y-41530000D02*
X66781000Y-41530000D01*
X72989000Y-41490000D02*
X66711000Y-41490000D01*
X73058000Y-41450000D02*
X66642000Y-41450000D01*
X73124000Y-41410000D02*
X66576000Y-41410000D01*
X73189000Y-41370000D02*
X66511000Y-41370000D01*
X73252000Y-41330000D02*
X66448000Y-41330000D01*
X73313000Y-41290000D02*
X66387000Y-41290000D01*
X73373000Y-41250000D02*
X66327000Y-41250000D01*
X73425000Y-29152918D02*
X73425000Y-30402918D01*
X73432000Y-41210000D02*
X66268000Y-41210000D01*
X73489000Y-41170000D02*
X66211000Y-41170000D01*
X73545000Y-41130000D02*
X66155000Y-41130000D01*
X73600000Y-41090000D02*
X66100000Y-41090000D01*
X73653000Y-41050000D02*
X66047000Y-41050000D01*
X73706000Y-41010000D02*
X65994000Y-41010000D01*
X73757000Y-40970000D02*
X65943000Y-40970000D01*
X73807000Y-40930000D02*
X65893000Y-40930000D01*
X73856000Y-40890000D02*
X65844000Y-40890000D01*
X73904000Y-40850000D02*
X65796000Y-40850000D01*
X73951000Y-40810000D02*
X65749000Y-40810000D01*
X73998000Y-40770000D02*
X65702000Y-40770000D01*
X74043000Y-40730000D02*
X65657000Y-40730000D01*
X74050000Y-29777918D02*
X72800000Y-29777918D01*
X74088000Y-40690000D02*
X65612000Y-40690000D01*
X74131000Y-40650000D02*
X65569000Y-40650000D01*
X74174000Y-40610000D02*
X65526000Y-40610000D01*
X74216000Y-40570000D02*
X65484000Y-40570000D01*
X74258000Y-40530000D02*
X65442000Y-40530000D01*
X74298000Y-40490000D02*
X65402000Y-40490000D01*
X74338000Y-40450000D02*
X65362000Y-40450000D01*
X74378000Y-40410000D02*
X65322000Y-40410000D01*
X74416000Y-40370000D02*
X65284000Y-40370000D01*
X74454000Y-40330000D02*
X65246000Y-40330000D01*
X74491000Y-40290000D02*
X65209000Y-40290000D01*
X74528000Y-40250000D02*
X65172000Y-40250000D01*
X74564000Y-40210000D02*
X65136000Y-40210000D01*
X74599000Y-40170000D02*
X65101000Y-40170000D01*
X74634000Y-40130000D02*
X65066000Y-40130000D01*
X74668000Y-40090000D02*
X65032000Y-40090000D01*
X74702000Y-40050000D02*
X64998000Y-40050000D01*
X74735000Y-40010000D02*
X64965000Y-40010000D01*
X74768000Y-39970000D02*
X64932000Y-39970000D01*
X74800000Y-39930000D02*
X64900000Y-39930000D01*
X74831000Y-39890000D02*
X71290000Y-39890000D01*
X74862000Y-39850000D02*
X71290000Y-39850000D01*
X74892000Y-39810000D02*
X71290000Y-39810000D01*
X74922000Y-39770000D02*
X71290000Y-39770000D01*
X74952000Y-39730000D02*
X71290000Y-39730000D01*
X74981000Y-39690000D02*
X71290000Y-39690000D01*
X75009000Y-39650000D02*
X71290000Y-39650000D01*
X75038000Y-39610000D02*
X71290000Y-39610000D01*
X75065000Y-39570000D02*
X71290000Y-39570000D01*
X75092000Y-39530000D02*
X71290000Y-39530000D01*
X75119000Y-39490000D02*
X71290000Y-39490000D01*
X75145000Y-39450000D02*
X71290000Y-39450000D01*
X75171000Y-39410000D02*
X71290000Y-39410000D01*
X75197000Y-39370000D02*
X71290000Y-39370000D01*
X75222000Y-39330000D02*
X71290000Y-39330000D01*
X75246000Y-39290000D02*
X71290000Y-39290000D01*
X75271000Y-39250000D02*
X71290000Y-39250000D01*
X75294000Y-39210000D02*
X71290000Y-39210000D01*
X75318000Y-39170000D02*
X71290000Y-39170000D01*
X75341000Y-39130000D02*
X71290000Y-39130000D01*
X75364000Y-39090000D02*
X71290000Y-39090000D01*
X75386000Y-39050000D02*
X71290000Y-39050000D01*
X75408000Y-39010000D02*
X71290000Y-39010000D01*
X75429000Y-38970000D02*
X71290000Y-38970000D01*
X75451000Y-38930000D02*
X71290000Y-38930000D01*
X75471000Y-38890000D02*
X71290000Y-38890000D01*
X75492000Y-38850000D02*
X71290000Y-38850000D01*
X75512000Y-38810000D02*
X71290000Y-38810000D01*
X75532000Y-38770000D02*
X71290000Y-38770000D01*
X75551000Y-38730000D02*
X71290000Y-38730000D01*
X75570000Y-38690000D02*
X71290000Y-38690000D01*
X75589000Y-38650000D02*
X71290000Y-38650000D01*
X75607000Y-38610000D02*
X71290000Y-38610000D01*
X75625000Y-38570000D02*
X71290000Y-38570000D01*
X75643000Y-38530000D02*
X71290000Y-38530000D01*
X75660000Y-38490000D02*
X71290000Y-38490000D01*
X75677000Y-38450000D02*
X71290000Y-38450000D01*
X75694000Y-38410000D02*
X71290000Y-38410000D01*
X75711000Y-38370000D02*
X71290000Y-38370000D01*
X75727000Y-38330000D02*
X71290000Y-38330000D01*
X75742000Y-38290000D02*
X71290000Y-38290000D01*
X75758000Y-38250000D02*
X71290000Y-38250000D01*
X75773000Y-38210000D02*
X71290000Y-38210000D01*
X75788000Y-38170000D02*
X71290000Y-38170000D01*
X75803000Y-38130000D02*
X71290000Y-38130000D01*
X75817000Y-38090000D02*
X71290000Y-38090000D01*
X75831000Y-38050000D02*
X71290000Y-38050000D01*
X75845000Y-38010000D02*
X71290000Y-38010000D01*
X75858000Y-37970000D02*
X71290000Y-37970000D01*
X75871000Y-37930000D02*
X71290000Y-37930000D01*
X75884000Y-37890000D02*
X71290000Y-37890000D01*
X75896000Y-37850000D02*
X71290000Y-37850000D01*
X75908000Y-37810000D02*
X71290000Y-37810000D01*
X75920000Y-37770000D02*
X71290000Y-37770000D01*
X75932000Y-37730000D02*
X71290000Y-37730000D01*
X75943000Y-37690000D02*
X71290000Y-37690000D01*
X75954000Y-37650000D02*
X71290000Y-37650000D01*
X75965000Y-37610000D02*
X71290000Y-37610000D01*
X75976000Y-37570000D02*
X71290000Y-37570000D01*
X75986000Y-37530000D02*
X71290000Y-37530000D01*
X75996000Y-37490000D02*
X71290000Y-37490000D01*
X76006000Y-37450000D02*
X71290000Y-37450000D01*
X76015000Y-37410000D02*
X71290000Y-37410000D01*
X76024000Y-37370000D02*
X71290000Y-37370000D01*
X76033000Y-37330000D02*
X71290000Y-37330000D01*
X76042000Y-37290000D02*
X71290000Y-37290000D01*
X76050000Y-37250000D02*
X71290000Y-37250000D01*
X76058000Y-37210000D02*
X71290000Y-37210000D01*
X76066000Y-37170000D02*
X71290000Y-37170000D01*
X76073000Y-37130000D02*
X71290000Y-37130000D01*
X76081000Y-37090000D02*
X71290000Y-37090000D01*
X76088000Y-37050000D02*
X71290000Y-37050000D01*
X76095000Y-37010000D02*
X63605000Y-37010000D01*
X76101000Y-36970000D02*
X63599000Y-36970000D01*
X76107000Y-36930000D02*
X63593000Y-36930000D01*
X76113000Y-36890000D02*
X63587000Y-36890000D01*
X76119000Y-36850000D02*
X63581000Y-36850000D01*
X76124000Y-36810000D02*
X63576000Y-36810000D01*
X76130000Y-36770000D02*
X63570000Y-36770000D01*
X76134000Y-36730000D02*
X63566000Y-36730000D01*
X76139000Y-36690000D02*
X63561000Y-36690000D01*
X76144000Y-36650000D02*
X63556000Y-36650000D01*
X76148000Y-36610000D02*
X63552000Y-36610000D01*
X76152000Y-36570000D02*
X63548000Y-36570000D01*
X76155000Y-36530000D02*
X63545000Y-36530000D01*
X76159000Y-36490000D02*
X63541000Y-36490000D01*
X76162000Y-36450000D02*
X63538000Y-36450000D01*
X76165000Y-36410000D02*
X63535000Y-36410000D01*
X76167000Y-36370000D02*
X63533000Y-36370000D01*
X76170000Y-36330000D02*
X63530000Y-36330000D01*
X76172000Y-36290000D02*
X63528000Y-36290000D01*
X76174000Y-36250000D02*
X63526000Y-36250000D01*
X76175000Y-36210000D02*
X63525000Y-36210000D01*
X76177000Y-36170000D02*
X63523000Y-36170000D01*
X76178000Y-36130000D02*
X63522000Y-36130000D01*
X76179000Y-36050000D02*
X63521000Y-36050000D01*
X76179000Y-36090000D02*
X63521000Y-36090000D01*
X76180000Y-35970000D02*
X63520000Y-35970000D01*
X76180000Y-36010000D02*
X63520000Y-36010000D01*
X76220000Y-35970000D02*
G75*
G02*
X63480000Y-35970000I-6370000J0D01*
G01*
X63480000Y-35970000D02*
G75*
G02*
X76220000Y-35970000I6370000J0D01*
G01*
X120928453Y-32500000D02*
X122857818Y-32500000D01*
X120928453Y-32500000D02*
G75*
G02*
X117427183Y-32500000I-1750635J0D01*
G01*
X117427183Y-32500000D02*
G75*
G02*
X120928453Y-32500000I1750635J0D01*
G01*
X78790000Y-91195000D02*
X89010000Y-91195000D01*
X78790000Y-95815000D02*
X78790000Y-91195000D01*
X82050000Y-95815000D02*
X82050000Y-94435000D01*
X85750000Y-95815000D02*
X85750000Y-94435000D01*
X89010000Y-91195000D02*
X89010000Y-95815000D01*
X89010000Y-94435000D02*
X78790000Y-94435000D01*
X89010000Y-95815000D02*
X78790000Y-95815000D01*
X104730000Y-30240000D02*
X114950000Y-30240000D01*
X104730000Y-31620000D02*
X114950000Y-31620000D01*
X104730000Y-34860000D02*
X104730000Y-30240000D01*
X107990000Y-30240000D02*
X107990000Y-31620000D01*
X111690000Y-30240000D02*
X111690000Y-31620000D01*
X114950000Y-30240000D02*
X114950000Y-34860000D01*
X114950000Y-34860000D02*
X104730000Y-34860000D01*
X44350000Y-83950000D02*
X44350000Y-88450000D01*
X46850000Y-89700000D02*
X48350000Y-89700000D01*
X48350000Y-82700000D02*
X46850000Y-82700000D01*
X50850000Y-88450000D02*
X50850000Y-83950000D01*
X79775200Y-39039800D02*
X80795200Y-39039800D01*
X85215200Y-40509800D02*
X85215200Y-37569800D01*
X85335200Y-40509800D02*
X85335200Y-37569800D01*
X85455200Y-40509800D02*
X85455200Y-37569800D01*
X87255200Y-39039800D02*
X86235200Y-39039800D01*
X86235200Y-40509800D02*
X80795200Y-40509800D01*
X80795200Y-37569800D01*
X86235200Y-37569800D01*
X86235200Y-40509800D01*
X56651000Y-48500000D02*
G75*
G02*
X54149000Y-48500000I-1251000J0D01*
G01*
X54149000Y-48500000D02*
G75*
G02*
X56651000Y-48500000I1251000J0D01*
G01*
X56451000Y-56400000D02*
G75*
G02*
X53949000Y-56400000I-1251000J0D01*
G01*
X53949000Y-56400000D02*
G75*
G02*
X56451000Y-56400000I1251000J0D01*
G01*
X56651000Y-44300000D02*
G75*
G02*
X54149000Y-44300000I-1251000J0D01*
G01*
X54149000Y-44300000D02*
G75*
G02*
X56651000Y-44300000I1251000J0D01*
G01*
M02*
