%TF.GenerationSoftware,KiCad,Pcbnew,(5.1.2)-1*%
%TF.CreationDate,2019-05-20T14:06:03+09:00*%
%TF.ProjectId,12f683MPPT,31326636-3833-44d5-9050-542e6b696361,rev?*%
%TF.SameCoordinates,Original*%
%TF.FileFunction,Copper,L2,Bot*%
%TF.FilePolarity,Positive*%
%FSLAX46Y46*%
G04 Gerber Fmt 4.6, Leading zero omitted, Abs format (unit mm)*
G04 Created by KiCad (PCBNEW (5.1.2)-1) date 2019-05-20 14:06:03*
%MOMM*%
%LPD*%
G04 APERTURE LIST*
%ADD10C,1.524000*%
%ADD11O,1.699260X3.500120*%
%ADD12R,3.200000X3.200000*%
%ADD13O,3.200000X3.200000*%
%ADD14R,2.400000X2.400000*%
%ADD15C,2.400000*%
%ADD16C,1.600000*%
%ADD17R,2.200000X2.200000*%
%ADD18O,2.200000X2.200000*%
%ADD19C,1.800000*%
%ADD20R,1.800000X1.800000*%
%ADD21C,3.000000*%
%ADD22R,1.520000X1.520000*%
%ADD23C,1.520000*%
%ADD24O,1.600000X1.600000*%
%ADD25C,2.000000*%
%ADD26O,1.800000X1.800000*%
%ADD27R,2.400000X1.600000*%
%ADD28O,2.400000X1.600000*%
%ADD29C,4.064000*%
%ADD30C,3.000000*%
%ADD31C,2.500000*%
%ADD32C,2.000000*%
%ADD33C,1.500000*%
%ADD34C,0.254000*%
G04 APERTURE END LIST*
D10*
X131150000Y-75560000D03*
X131150000Y-80640000D03*
X39800000Y-48430000D03*
X39800000Y-53510000D03*
D11*
X112350000Y-33600000D03*
X107270000Y-33600000D03*
X109810000Y-33600000D03*
X81520000Y-92560000D03*
X86600000Y-92560000D03*
X84060000Y-92560000D03*
D12*
X60590000Y-34730000D03*
D13*
X45350000Y-34730000D03*
X126670000Y-36640000D03*
D12*
X126670000Y-51880000D03*
X110020000Y-78930000D03*
D13*
X110020000Y-94170000D03*
D14*
X120540000Y-87530000D03*
D15*
X120540000Y-92530000D03*
X112400000Y-53090000D03*
D14*
X107400000Y-53090000D03*
D15*
X69830000Y-46940000D03*
D14*
X69830000Y-51940000D03*
D16*
X83570000Y-46840000D03*
X78570000Y-46840000D03*
D14*
X105700000Y-69440000D03*
D15*
X105700000Y-64440000D03*
X69850000Y-38470000D03*
D14*
X69850000Y-33470000D03*
D12*
X120720000Y-51880000D03*
D13*
X120720000Y-36640000D03*
X103270000Y-94170000D03*
D12*
X103270000Y-78930000D03*
D17*
X88650000Y-38800000D03*
D18*
X78490000Y-38800000D03*
D19*
X55030000Y-86700000D03*
D20*
X55030000Y-89240000D03*
D18*
X50580000Y-45470000D03*
D17*
X50580000Y-55630000D03*
D13*
X45350000Y-41050000D03*
D12*
X60590000Y-41050000D03*
D20*
X93990000Y-81800000D03*
D19*
X96530000Y-81800000D03*
X94020000Y-86670000D03*
D20*
X96560000Y-86670000D03*
D21*
X127890000Y-62900000D03*
X120270000Y-62900000D03*
D22*
X101190000Y-52990000D03*
D23*
X101190000Y-47910000D03*
X101190000Y-50450000D03*
D22*
X108630000Y-38900000D03*
D23*
X108630000Y-43980000D03*
X108630000Y-41440000D03*
X113730000Y-41440000D03*
X113730000Y-43980000D03*
D22*
X113730000Y-38900000D03*
D24*
X91200000Y-81760000D03*
D16*
X78500000Y-81760000D03*
X67080000Y-81000000D03*
D24*
X67080000Y-68300000D03*
X62640000Y-80980000D03*
D16*
X62640000Y-68280000D03*
D24*
X71460000Y-80970000D03*
D16*
X71460000Y-68270000D03*
D24*
X46850000Y-58160000D03*
D16*
X46850000Y-45460000D03*
X55110000Y-81050000D03*
D24*
X55110000Y-68350000D03*
X96360000Y-60600000D03*
D16*
X96360000Y-47900000D03*
X62660000Y-58080000D03*
D24*
X75360000Y-58080000D03*
D16*
X91960000Y-38900000D03*
D24*
X104660000Y-38900000D03*
D16*
X104650000Y-43150000D03*
D24*
X91950000Y-43150000D03*
D16*
X91820000Y-47900000D03*
D24*
X91820000Y-60600000D03*
X50600000Y-75150000D03*
D16*
X50600000Y-62450000D03*
D24*
X78470000Y-85800000D03*
D16*
X91170000Y-85800000D03*
X96340000Y-64630000D03*
D24*
X96340000Y-77330000D03*
D16*
X91810000Y-77320000D03*
D24*
X91810000Y-64620000D03*
X62670000Y-62510000D03*
D16*
X75370000Y-62510000D03*
D25*
X43930000Y-82680000D03*
X48430000Y-82680000D03*
X43930000Y-89180000D03*
X48430000Y-89180000D03*
D26*
X60320000Y-53500000D03*
X57780000Y-53500000D03*
D20*
X55240000Y-53500000D03*
D27*
X78460000Y-53020000D03*
D28*
X86080000Y-60640000D03*
X78460000Y-55560000D03*
X86080000Y-58100000D03*
X78460000Y-58100000D03*
X86080000Y-55560000D03*
X78460000Y-60640000D03*
X86080000Y-53020000D03*
X86120000Y-68280000D03*
X78500000Y-75900000D03*
X86120000Y-70820000D03*
X78500000Y-73360000D03*
X86120000Y-73360000D03*
X78500000Y-70820000D03*
X86120000Y-75900000D03*
D27*
X78500000Y-68280000D03*
D29*
X39940000Y-40950000D03*
X42550000Y-65030000D03*
X130910000Y-87030000D03*
X122790000Y-78440000D03*
D30*
X127890000Y-72200000D02*
X131200000Y-75510000D01*
X127890000Y-62900000D02*
X127890000Y-72200000D01*
X120540000Y-80690000D02*
X122790000Y-78440000D01*
X120540000Y-87530000D02*
X120540000Y-80690000D01*
X124821999Y-75268001D02*
X127890000Y-72200000D01*
X124821999Y-76408001D02*
X124821999Y-75268001D01*
X122790000Y-78440000D02*
X124821999Y-76408001D01*
X124821999Y-76408001D02*
X121271999Y-76408001D01*
X121271999Y-76408001D02*
X118950000Y-78730000D01*
X120540000Y-80320000D02*
X120540000Y-80690000D01*
X118950000Y-78730000D02*
X120540000Y-80320000D01*
X118950000Y-78730000D02*
X118950000Y-77830000D01*
X121511999Y-75268001D02*
X124821999Y-75268001D01*
X118950000Y-77830000D02*
X121511999Y-75268001D01*
D31*
X100120000Y-97320000D02*
X87310000Y-97320000D01*
D32*
X87310000Y-97320000D02*
X86350000Y-97320000D01*
D33*
X84060000Y-92560000D02*
X84060000Y-95030000D01*
D30*
X103270000Y-94170000D02*
X110020000Y-94170000D01*
X100120000Y-97320000D02*
X86350000Y-97320000D01*
X103270000Y-94170000D02*
X100120000Y-97320000D01*
X87310000Y-97320000D02*
X85410000Y-97320000D01*
X85410000Y-97320000D02*
X83840000Y-95750000D01*
D33*
X83840000Y-92780000D02*
X84060000Y-92560000D01*
X83840000Y-95750000D02*
X83840000Y-92780000D01*
D30*
X118900000Y-94170000D02*
X120540000Y-92530000D01*
X110020000Y-94170000D02*
X118900000Y-94170000D01*
X120540000Y-92530000D02*
X125410000Y-92530000D01*
X130910000Y-80880000D02*
X131150000Y-80640000D01*
X130910000Y-84640000D02*
X129320000Y-84640000D01*
X130910000Y-84640000D02*
X130910000Y-80880000D01*
X130910000Y-87030000D02*
X130910000Y-84640000D01*
X127980000Y-85980000D02*
X127980000Y-89960000D01*
X129320000Y-84640000D02*
X127980000Y-85980000D01*
X125410000Y-92530000D02*
X127980000Y-89960000D01*
X127980000Y-89960000D02*
X130910000Y-87030000D01*
D33*
X116130000Y-43980000D02*
X113730000Y-43980000D01*
X116970000Y-43140000D02*
X116130000Y-43980000D01*
X116970000Y-35870370D02*
X116970000Y-43140000D01*
X114699630Y-33600000D02*
X116970000Y-35870370D01*
D31*
X113780000Y-33640000D02*
X113740000Y-33600000D01*
D33*
X112350000Y-33600000D02*
X113740000Y-33600000D01*
D31*
X114699630Y-33600000D02*
X113740000Y-33600000D01*
D30*
X120720000Y-36640000D02*
X126670000Y-36640000D01*
X119942741Y-33600000D02*
X114699630Y-33600000D01*
X120720000Y-34377259D02*
X119942741Y-33600000D01*
X120720000Y-36640000D02*
X120720000Y-34377259D01*
D33*
X113730000Y-51760000D02*
X112400000Y-53090000D01*
X113730000Y-43980000D02*
X113730000Y-51760000D01*
X88750000Y-38900000D02*
X88650000Y-38800000D01*
X91960000Y-38900000D02*
X88750000Y-38900000D01*
X108630000Y-51860000D02*
X107400000Y-53090000D01*
X108630000Y-43980000D02*
X108630000Y-51860000D01*
X78500000Y-75900000D02*
X78500000Y-81760000D01*
X96560000Y-89070000D02*
X96390000Y-89240000D01*
X96560000Y-86670000D02*
X96560000Y-89070000D01*
D31*
X67150000Y-42562944D02*
X67150000Y-44260000D01*
X55030000Y-92640000D02*
X55190000Y-92800000D01*
X55030000Y-89240000D02*
X55030000Y-92640000D01*
X55190000Y-92800000D02*
X55190000Y-93170000D01*
X46505787Y-93170000D02*
X55190000Y-93170000D01*
D33*
X80910000Y-93170000D02*
X81520000Y-92560000D01*
X80150000Y-93170000D02*
X80910000Y-93170000D01*
X67080000Y-92250000D02*
X68000000Y-93170000D01*
X67080000Y-81000000D02*
X67080000Y-92250000D01*
D31*
X55190000Y-93170000D02*
X68000000Y-93170000D01*
X75320000Y-93170000D02*
X80150000Y-93170000D01*
D32*
X86080000Y-49350000D02*
X83570000Y-46840000D01*
X86080000Y-53020000D02*
X86080000Y-49350000D01*
D30*
X67150000Y-41170000D02*
X67150000Y-42562944D01*
X69850000Y-38470000D02*
X67150000Y-41170000D01*
X67150000Y-44260000D02*
X69830000Y-46940000D01*
X67150000Y-41170000D02*
X67150000Y-44260000D01*
X43930000Y-82680000D02*
X43930000Y-89180000D01*
X43930000Y-90594213D02*
X46505787Y-93170000D01*
X43930000Y-89180000D02*
X43930000Y-90594213D01*
D33*
X101160000Y-53020000D02*
X101190000Y-52990000D01*
X86080000Y-53020000D02*
X101160000Y-53020000D01*
X101190000Y-52990000D02*
X101190000Y-62090000D01*
D30*
X46505787Y-93170000D02*
X75370000Y-93170000D01*
X75370000Y-93170000D02*
X80150000Y-93170000D01*
D33*
X62660000Y-81000000D02*
X62640000Y-80980000D01*
X67080000Y-81000000D02*
X62660000Y-81000000D01*
X103350000Y-62090000D02*
X105700000Y-64440000D01*
X101190000Y-62090000D02*
X103350000Y-62090000D01*
X96560000Y-89070000D02*
X75250000Y-89070000D01*
X71490000Y-92830000D02*
X71490000Y-93170000D01*
X75250000Y-89070000D02*
X71490000Y-92830000D01*
D31*
X68000000Y-93170000D02*
X71490000Y-93170000D01*
X71490000Y-93170000D02*
X75320000Y-93170000D01*
D33*
X71490000Y-87638630D02*
X71490000Y-93170000D01*
X77368630Y-81760000D02*
X71490000Y-87638630D01*
X78500000Y-81760000D02*
X77368630Y-81760000D01*
D31*
X46711944Y-53510000D02*
X51121944Y-49100000D01*
X39800000Y-53510000D02*
X46711944Y-53510000D01*
X62310000Y-49100000D02*
X67150000Y-44260000D01*
D32*
X57780000Y-49100000D02*
X57780000Y-53500000D01*
D31*
X57780000Y-49100000D02*
X62310000Y-49100000D01*
X51121944Y-49100000D02*
X57780000Y-49100000D01*
D30*
X39800000Y-60030000D02*
X39940000Y-60170000D01*
X39800000Y-78550000D02*
X43930000Y-82680000D01*
X39800000Y-71080000D02*
X41340000Y-69540000D01*
X39800000Y-53510000D02*
X39800000Y-71080000D01*
X41340000Y-60520000D02*
X39800000Y-58980000D01*
X39800000Y-53510000D02*
X39800000Y-58980000D01*
X41340000Y-69540000D02*
X41340000Y-60520000D01*
X39800000Y-58980000D02*
X39800000Y-60030000D01*
X39800000Y-71080000D02*
X39800000Y-78550000D01*
D33*
X42400001Y-75949999D02*
X39800000Y-78550000D01*
X49800001Y-75949999D02*
X42400001Y-75949999D01*
X50600000Y-75150000D02*
X49800001Y-75949999D01*
X77380000Y-51940000D02*
X78460000Y-53020000D01*
X69830000Y-51940000D02*
X77380000Y-51940000D01*
X81160000Y-53020000D02*
X82840000Y-54700000D01*
X78460000Y-53020000D02*
X81160000Y-53020000D01*
X86120000Y-65980000D02*
X86120000Y-68280000D01*
X82840000Y-62700000D02*
X86120000Y-65980000D01*
X82840000Y-54700000D02*
X82840000Y-62700000D01*
X69830000Y-55350000D02*
X62670000Y-62510000D01*
X69830000Y-51940000D02*
X69830000Y-55350000D01*
X68720000Y-53050000D02*
X69830000Y-51940000D01*
X78490000Y-46760000D02*
X78570000Y-46840000D01*
X78490000Y-38800000D02*
X78490000Y-46760000D01*
X78570000Y-52910000D02*
X78460000Y-53020000D01*
X78570000Y-46840000D02*
X78570000Y-52910000D01*
X82720000Y-38800000D02*
X91820000Y-47900000D01*
X78490000Y-38800000D02*
X82720000Y-38800000D01*
X92690000Y-68280000D02*
X96340000Y-64630000D01*
X86120000Y-68280000D02*
X92690000Y-68280000D01*
D32*
X68270000Y-53500000D02*
X69830000Y-51940000D01*
X60320000Y-53500000D02*
X68270000Y-53500000D01*
D31*
X109880000Y-28480000D02*
X109880000Y-31240000D01*
D33*
X109880000Y-33530000D02*
X109810000Y-33600000D01*
X109880000Y-31240000D02*
X109880000Y-33530000D01*
D30*
X60590000Y-34730000D02*
X60590000Y-41050000D01*
X61850000Y-33470000D02*
X60590000Y-34730000D01*
X69850000Y-33470000D02*
X61850000Y-33470000D01*
X69850000Y-33470000D02*
X97160000Y-33470000D01*
X97160000Y-33470000D02*
X102150000Y-28480000D01*
X102150000Y-28480000D02*
X109880000Y-28480000D01*
D31*
X120590000Y-62580000D02*
X120270000Y-62900000D01*
D30*
X120720000Y-51880000D02*
X126670000Y-51880000D01*
X120720000Y-62450000D02*
X120270000Y-62900000D01*
X120720000Y-51880000D02*
X120720000Y-62450000D01*
X120270000Y-68680000D02*
X110020000Y-78930000D01*
X120270000Y-62900000D02*
X120270000Y-68680000D01*
X103270000Y-78930000D02*
X110020000Y-78930000D01*
D33*
X55030000Y-81130000D02*
X55110000Y-81050000D01*
X55030000Y-86700000D02*
X55030000Y-81130000D01*
D30*
X45350000Y-34730000D02*
X45350000Y-41050000D01*
X46860000Y-45470000D02*
X46850000Y-45460000D01*
X50580000Y-45470000D02*
X46860000Y-45470000D01*
X45350000Y-43960000D02*
X46850000Y-45460000D01*
X45350000Y-41050000D02*
X45350000Y-43960000D01*
X40040000Y-41050000D02*
X39940000Y-40950000D01*
X45350000Y-41050000D02*
X40040000Y-41050000D01*
X39940000Y-46460000D02*
X39800000Y-46600000D01*
X39940000Y-40950000D02*
X39940000Y-46460000D01*
X39800000Y-46600000D02*
X45350000Y-41050000D01*
X39800000Y-48430000D02*
X39800000Y-46600000D01*
D32*
X53110000Y-55630000D02*
X55240000Y-53500000D01*
X50580000Y-55630000D02*
X53110000Y-55630000D01*
D33*
X93990000Y-86640000D02*
X94020000Y-86670000D01*
X93990000Y-81800000D02*
X93990000Y-86640000D01*
X96490000Y-77510000D02*
X96520000Y-77480000D01*
X97802792Y-81800000D02*
X99270000Y-83267208D01*
X96530000Y-81800000D02*
X97802792Y-81800000D01*
X99270000Y-83267208D02*
X99270000Y-90660000D01*
X97370000Y-92560000D02*
X99270000Y-90660000D01*
X86600000Y-92560000D02*
X97370000Y-92560000D01*
X96530000Y-77520000D02*
X96340000Y-77330000D01*
X96530000Y-81800000D02*
X96530000Y-77520000D01*
X86080000Y-58100000D02*
X97460000Y-58100000D01*
X97460000Y-58100000D02*
X98890000Y-59530000D01*
X98890000Y-74780000D02*
X96340000Y-77330000D01*
X98890000Y-59530000D02*
X98890000Y-74780000D01*
X113730000Y-38900000D02*
X108630000Y-38900000D01*
X107310000Y-37580000D02*
X108630000Y-38900000D01*
X107310000Y-36890060D02*
X107310000Y-37580000D01*
X107270000Y-36850060D02*
X107310000Y-36890060D01*
X107270000Y-33600000D02*
X107270000Y-36850060D01*
X91910000Y-43190000D02*
X91950000Y-43150000D01*
X100410000Y-43150000D02*
X104660000Y-38900000D01*
X91950000Y-43150000D02*
X100410000Y-43150000D01*
X101190000Y-43930000D02*
X100410000Y-43150000D01*
X101190000Y-47910000D02*
X101190000Y-43930000D01*
X98910000Y-50450000D02*
X96360000Y-47900000D01*
X101190000Y-50450000D02*
X98910000Y-50450000D01*
X108630000Y-41440000D02*
X113730000Y-41440000D01*
X106360000Y-41440000D02*
X104650000Y-43150000D01*
X108630000Y-41440000D02*
X106360000Y-41440000D01*
X89400000Y-73940000D02*
X88820000Y-73360000D01*
X89400000Y-81091370D02*
X89400000Y-73940000D01*
X90068630Y-81760000D02*
X89400000Y-81091370D01*
X91200000Y-81760000D02*
X90068630Y-81760000D01*
X86120000Y-73360000D02*
X88820000Y-73360000D01*
X88981370Y-73360000D02*
X88820000Y-73360000D01*
X91810000Y-76188630D02*
X88981370Y-73360000D01*
X91810000Y-77320000D02*
X91810000Y-76188630D01*
X71460000Y-79838630D02*
X71460000Y-80970000D01*
X71460000Y-75160000D02*
X71460000Y-79838630D01*
X75800000Y-70820000D02*
X71460000Y-75160000D01*
X78500000Y-70820000D02*
X75800000Y-70820000D01*
X68388630Y-75160000D02*
X71460000Y-75160000D01*
X62640000Y-69411370D02*
X68388630Y-75160000D01*
X62640000Y-68280000D02*
X62640000Y-69411370D01*
X78490000Y-68270000D02*
X78500000Y-68280000D01*
X71460000Y-68270000D02*
X78490000Y-68270000D01*
X83420000Y-75900000D02*
X83020000Y-75500000D01*
X86120000Y-75900000D02*
X83420000Y-75900000D01*
X83020000Y-75500000D02*
X83020000Y-69140000D01*
X82160000Y-68280000D02*
X78500000Y-68280000D01*
X83020000Y-69140000D02*
X82160000Y-68280000D01*
X54970000Y-58080000D02*
X50600000Y-62450000D01*
X62660000Y-58080000D02*
X54970000Y-58080000D01*
X50600000Y-61910000D02*
X46850000Y-58160000D01*
X50600000Y-62450000D02*
X50600000Y-61910000D01*
X91780000Y-60640000D02*
X91820000Y-60600000D01*
X86080000Y-60640000D02*
X91780000Y-60640000D01*
X91820000Y-60600000D02*
X96360000Y-60600000D01*
X75380000Y-58100000D02*
X75360000Y-58080000D01*
X78460000Y-58100000D02*
X75380000Y-58100000D01*
X48430000Y-89180000D02*
X48430000Y-82680000D01*
X77240000Y-60640000D02*
X75370000Y-62510000D01*
X78460000Y-60640000D02*
X77240000Y-60640000D01*
X74570001Y-63309999D02*
X65790001Y-63309999D01*
X75370000Y-62510000D02*
X74570001Y-63309999D01*
X65790001Y-63309999D02*
X63770000Y-65330000D01*
X63770000Y-65330000D02*
X60650000Y-65330000D01*
X60650000Y-65330000D02*
X58740000Y-67240000D01*
X58740000Y-72420000D02*
X52199999Y-78960001D01*
X58740000Y-67240000D02*
X58740000Y-72420000D01*
X52149999Y-78960001D02*
X48430000Y-82680000D01*
X52199999Y-78960001D02*
X52149999Y-78960001D01*
D34*
G36*
X96275655Y-31335000D02*
G01*
X61954871Y-31335000D01*
X61849999Y-31324671D01*
X61745127Y-31335000D01*
X61745118Y-31335000D01*
X61431467Y-31365892D01*
X61029018Y-31487974D01*
X60658119Y-31686223D01*
X60333023Y-31953023D01*
X60266165Y-32034490D01*
X59808727Y-32491928D01*
X58990000Y-32491928D01*
X58865518Y-32504188D01*
X58745820Y-32540498D01*
X58635506Y-32599463D01*
X58538815Y-32678815D01*
X58459463Y-32775506D01*
X58400498Y-32885820D01*
X58364188Y-33005518D01*
X58351928Y-33130000D01*
X58351928Y-36330000D01*
X58364188Y-36454482D01*
X58400498Y-36574180D01*
X58455000Y-36676145D01*
X58455001Y-39103854D01*
X58400498Y-39205820D01*
X58364188Y-39325518D01*
X58351928Y-39450000D01*
X58351928Y-42650000D01*
X58364188Y-42774482D01*
X58400498Y-42894180D01*
X58459463Y-43004494D01*
X58538815Y-43101185D01*
X58635506Y-43180537D01*
X58745820Y-43239502D01*
X58865518Y-43275812D01*
X58990000Y-43288072D01*
X62190000Y-43288072D01*
X62314482Y-43275812D01*
X62434180Y-43239502D01*
X62544494Y-43180537D01*
X62641185Y-43101185D01*
X62720537Y-43004494D01*
X62779502Y-42894180D01*
X62815812Y-42774482D01*
X62828072Y-42650000D01*
X62828072Y-39450000D01*
X62815812Y-39325518D01*
X62779502Y-39205820D01*
X62725000Y-39103856D01*
X62725000Y-36676144D01*
X62779502Y-36574180D01*
X62815812Y-36454482D01*
X62828072Y-36330000D01*
X62828072Y-35605000D01*
X97055128Y-35605000D01*
X97160000Y-35615329D01*
X97264872Y-35605000D01*
X97264882Y-35605000D01*
X97578533Y-35574108D01*
X97980982Y-35452026D01*
X98351881Y-35253777D01*
X98676977Y-34986977D01*
X98743837Y-34905508D01*
X103034345Y-30615000D01*
X107995001Y-30615000D01*
X107995001Y-31332597D01*
X108002392Y-31407639D01*
X107840891Y-31321315D01*
X107561037Y-31236422D01*
X107270000Y-31207757D01*
X106978962Y-31236422D01*
X106699108Y-31321315D01*
X106441193Y-31459173D01*
X106215129Y-31644699D01*
X106029603Y-31870764D01*
X105891745Y-32128679D01*
X105806852Y-32408533D01*
X105785370Y-32626641D01*
X105785370Y-34573360D01*
X105806853Y-34791468D01*
X105885000Y-35049085D01*
X105885001Y-36782021D01*
X105878300Y-36850060D01*
X105905040Y-37121567D01*
X105925000Y-37187366D01*
X105925000Y-37511971D01*
X105918300Y-37580000D01*
X105925000Y-37648029D01*
X105925000Y-37648037D01*
X105945040Y-37851507D01*
X106024236Y-38112581D01*
X106152843Y-38353188D01*
X106325920Y-38564081D01*
X106378764Y-38607449D01*
X107231928Y-39460614D01*
X107231928Y-39660000D01*
X107244188Y-39784482D01*
X107280498Y-39904180D01*
X107339463Y-40014494D01*
X107372705Y-40055000D01*
X106428026Y-40055000D01*
X106359999Y-40048300D01*
X106291972Y-40055000D01*
X106291963Y-40055000D01*
X106088493Y-40075040D01*
X105827419Y-40154236D01*
X105586812Y-40282843D01*
X105559814Y-40305000D01*
X105428766Y-40412548D01*
X105428764Y-40412550D01*
X105375919Y-40455919D01*
X105332550Y-40508764D01*
X103948339Y-41892976D01*
X103735241Y-42035363D01*
X103535363Y-42235241D01*
X103378320Y-42470273D01*
X103270147Y-42731426D01*
X103215000Y-43008665D01*
X103215000Y-43291335D01*
X103270147Y-43568574D01*
X103378320Y-43829727D01*
X103535363Y-44064759D01*
X103735241Y-44264637D01*
X103970273Y-44421680D01*
X104231426Y-44529853D01*
X104508665Y-44585000D01*
X104791335Y-44585000D01*
X105068574Y-44529853D01*
X105329727Y-44421680D01*
X105564759Y-44264637D01*
X105764637Y-44064759D01*
X105907024Y-43851661D01*
X106933686Y-42825000D01*
X107847646Y-42825000D01*
X107740739Y-42896433D01*
X107546433Y-43090739D01*
X107393767Y-43319220D01*
X107288609Y-43573093D01*
X107235000Y-43842604D01*
X107235000Y-44117396D01*
X107245000Y-44167670D01*
X107245001Y-51251928D01*
X106200000Y-51251928D01*
X106075518Y-51264188D01*
X105955820Y-51300498D01*
X105845506Y-51359463D01*
X105748815Y-51438815D01*
X105669463Y-51535506D01*
X105610498Y-51645820D01*
X105574188Y-51765518D01*
X105561928Y-51890000D01*
X105561928Y-54290000D01*
X105574188Y-54414482D01*
X105610498Y-54534180D01*
X105669463Y-54644494D01*
X105748815Y-54741185D01*
X105845506Y-54820537D01*
X105955820Y-54879502D01*
X106075518Y-54915812D01*
X106200000Y-54928072D01*
X108600000Y-54928072D01*
X108724482Y-54915812D01*
X108844180Y-54879502D01*
X108954494Y-54820537D01*
X109051185Y-54741185D01*
X109130537Y-54644494D01*
X109189502Y-54534180D01*
X109225812Y-54414482D01*
X109238072Y-54290000D01*
X109238072Y-53210614D01*
X109561236Y-52887450D01*
X109614081Y-52844081D01*
X109692529Y-52748493D01*
X109787157Y-52633188D01*
X109915764Y-52392581D01*
X109994960Y-52131507D01*
X109997520Y-52105518D01*
X110015000Y-51928037D01*
X110015000Y-51928029D01*
X110021700Y-51860000D01*
X110015000Y-51791971D01*
X110015000Y-44167669D01*
X110025000Y-44117396D01*
X110025000Y-43842604D01*
X109971391Y-43573093D01*
X109866233Y-43319220D01*
X109713567Y-43090739D01*
X109519261Y-42896433D01*
X109412354Y-42825000D01*
X112947646Y-42825000D01*
X112840739Y-42896433D01*
X112646433Y-43090739D01*
X112493767Y-43319220D01*
X112388609Y-43573093D01*
X112335000Y-43842604D01*
X112335000Y-44117396D01*
X112345000Y-44167670D01*
X112345001Y-51186313D01*
X112276314Y-51255000D01*
X112219268Y-51255000D01*
X111864750Y-51325518D01*
X111530801Y-51463844D01*
X111230256Y-51664662D01*
X110974662Y-51920256D01*
X110773844Y-52220801D01*
X110635518Y-52554750D01*
X110565000Y-52909268D01*
X110565000Y-53270732D01*
X110635518Y-53625250D01*
X110773844Y-53959199D01*
X110974662Y-54259744D01*
X111230256Y-54515338D01*
X111530801Y-54716156D01*
X111864750Y-54854482D01*
X112219268Y-54925000D01*
X112580732Y-54925000D01*
X112935250Y-54854482D01*
X113269199Y-54716156D01*
X113569744Y-54515338D01*
X113825338Y-54259744D01*
X114026156Y-53959199D01*
X114164482Y-53625250D01*
X114235000Y-53270732D01*
X114235000Y-53213686D01*
X114661236Y-52787450D01*
X114714081Y-52744081D01*
X114759270Y-52689019D01*
X114887156Y-52533189D01*
X114919553Y-52472580D01*
X115015764Y-52292581D01*
X115063878Y-52133970D01*
X115094960Y-52031508D01*
X115101813Y-51961928D01*
X115115000Y-51828037D01*
X115115000Y-51828030D01*
X115121700Y-51760001D01*
X115115000Y-51691972D01*
X115115000Y-45365000D01*
X116061971Y-45365000D01*
X116130000Y-45371700D01*
X116198029Y-45365000D01*
X116198037Y-45365000D01*
X116401507Y-45344960D01*
X116662581Y-45265764D01*
X116903188Y-45137157D01*
X117114081Y-44964081D01*
X117157454Y-44911231D01*
X117901231Y-44167454D01*
X117954081Y-44124081D01*
X118127157Y-43913188D01*
X118255764Y-43672581D01*
X118334960Y-43411507D01*
X118355000Y-43208037D01*
X118355000Y-43208028D01*
X118361700Y-43140001D01*
X118355000Y-43071974D01*
X118355000Y-35938398D01*
X118361700Y-35870369D01*
X118355000Y-35802340D01*
X118355000Y-35802333D01*
X118348368Y-35735000D01*
X118585000Y-35735000D01*
X118585000Y-35978813D01*
X118517339Y-36201863D01*
X118474186Y-36640000D01*
X118517339Y-37078137D01*
X118645138Y-37499436D01*
X118852674Y-37887707D01*
X119131970Y-38228030D01*
X119472293Y-38507326D01*
X119860564Y-38714862D01*
X120281863Y-38842661D01*
X120610204Y-38875000D01*
X120829796Y-38875000D01*
X121158137Y-38842661D01*
X121381187Y-38775000D01*
X126008813Y-38775000D01*
X126231863Y-38842661D01*
X126560204Y-38875000D01*
X126779796Y-38875000D01*
X127108137Y-38842661D01*
X127529436Y-38714862D01*
X127917707Y-38507326D01*
X128258030Y-38228030D01*
X128537326Y-37887707D01*
X128744862Y-37499436D01*
X128872661Y-37078137D01*
X128915814Y-36640000D01*
X128872661Y-36201863D01*
X128744862Y-35780564D01*
X128537326Y-35392293D01*
X128258030Y-35051970D01*
X127917707Y-34772674D01*
X127529436Y-34565138D01*
X127108137Y-34437339D01*
X126779796Y-34405000D01*
X126560204Y-34405000D01*
X126231863Y-34437339D01*
X126008813Y-34505000D01*
X122855000Y-34505000D01*
X122855000Y-34482130D01*
X122865329Y-34377258D01*
X122855000Y-34272386D01*
X122855000Y-34272377D01*
X122824108Y-33958726D01*
X122702026Y-33556277D01*
X122503777Y-33185378D01*
X122236977Y-32860282D01*
X122155508Y-32793422D01*
X121526578Y-32164492D01*
X121459718Y-32083023D01*
X121134622Y-31816223D01*
X120763723Y-31617974D01*
X120361274Y-31495892D01*
X120047623Y-31465000D01*
X120047613Y-31465000D01*
X119942741Y-31454671D01*
X119837869Y-31465000D01*
X114594748Y-31465000D01*
X114281097Y-31495892D01*
X113878648Y-31617974D01*
X113708354Y-31708998D01*
X113647411Y-31715000D01*
X113647403Y-31715000D01*
X113476389Y-31731843D01*
X113404871Y-31644699D01*
X113178806Y-31459173D01*
X112920891Y-31321315D01*
X112641037Y-31236422D01*
X112350000Y-31207757D01*
X112058962Y-31236422D01*
X111779108Y-31321315D01*
X111765000Y-31328856D01*
X111765000Y-30514495D01*
X128695000Y-30514495D01*
X128695000Y-30905505D01*
X128771282Y-31289003D01*
X128920915Y-31650250D01*
X129138149Y-31975364D01*
X129414636Y-32251851D01*
X129739750Y-32469085D01*
X130100997Y-32618718D01*
X130484495Y-32695000D01*
X130875505Y-32695000D01*
X131259003Y-32618718D01*
X131620250Y-32469085D01*
X131945364Y-32251851D01*
X132221851Y-31975364D01*
X132439085Y-31650250D01*
X132588718Y-31289003D01*
X132665000Y-30905505D01*
X132665000Y-30514495D01*
X132588718Y-30130997D01*
X132439085Y-29769750D01*
X132221851Y-29444636D01*
X131945364Y-29168149D01*
X131620250Y-28950915D01*
X131259003Y-28801282D01*
X130875505Y-28725000D01*
X130484495Y-28725000D01*
X130100997Y-28801282D01*
X129739750Y-28950915D01*
X129414636Y-29168149D01*
X129138149Y-29444636D01*
X128920915Y-29769750D01*
X128771282Y-30130997D01*
X128695000Y-30514495D01*
X111765000Y-30514495D01*
X111765000Y-29482505D01*
X111862026Y-29300982D01*
X111984108Y-28898533D01*
X112025330Y-28480000D01*
X111984108Y-28061467D01*
X111862026Y-27659018D01*
X111860947Y-27657000D01*
X133523431Y-27657000D01*
X133762568Y-98103000D01*
X102356345Y-98103000D01*
X104154346Y-96305000D01*
X109358813Y-96305000D01*
X109581863Y-96372661D01*
X109910204Y-96405000D01*
X110129796Y-96405000D01*
X110458137Y-96372661D01*
X110681187Y-96305000D01*
X118795128Y-96305000D01*
X118900000Y-96315329D01*
X119004872Y-96305000D01*
X119004882Y-96305000D01*
X119318533Y-96274108D01*
X119720982Y-96152026D01*
X120091881Y-95953777D01*
X120416977Y-95686977D01*
X120483837Y-95605508D01*
X120734850Y-95354495D01*
X128775000Y-95354495D01*
X128775000Y-95745505D01*
X128851282Y-96129003D01*
X129000915Y-96490250D01*
X129218149Y-96815364D01*
X129494636Y-97091851D01*
X129819750Y-97309085D01*
X130180997Y-97458718D01*
X130564495Y-97535000D01*
X130955505Y-97535000D01*
X131339003Y-97458718D01*
X131700250Y-97309085D01*
X132025364Y-97091851D01*
X132301851Y-96815364D01*
X132519085Y-96490250D01*
X132668718Y-96129003D01*
X132745000Y-95745505D01*
X132745000Y-95354495D01*
X132668718Y-94970997D01*
X132519085Y-94609750D01*
X132301851Y-94284636D01*
X132025364Y-94008149D01*
X131700250Y-93790915D01*
X131339003Y-93641282D01*
X130955505Y-93565000D01*
X130564495Y-93565000D01*
X130180997Y-93641282D01*
X129819750Y-93790915D01*
X129494636Y-94008149D01*
X129218149Y-94284636D01*
X129000915Y-94609750D01*
X128851282Y-94970997D01*
X128775000Y-95354495D01*
X120734850Y-95354495D01*
X121424346Y-94665000D01*
X125305128Y-94665000D01*
X125410000Y-94675329D01*
X125514872Y-94665000D01*
X125514882Y-94665000D01*
X125828533Y-94634108D01*
X126230982Y-94512026D01*
X126601881Y-94313777D01*
X126926977Y-94046977D01*
X126993837Y-93965508D01*
X129415513Y-91543833D01*
X129496977Y-91476977D01*
X129563837Y-91395508D01*
X131284611Y-89674735D01*
X131687935Y-89594508D01*
X132173298Y-89393464D01*
X132610113Y-89101594D01*
X132981594Y-88730113D01*
X133273464Y-88293298D01*
X133474508Y-87807935D01*
X133577000Y-87292677D01*
X133577000Y-86767323D01*
X133474508Y-86252065D01*
X133273464Y-85766702D01*
X133045000Y-85424781D01*
X133045000Y-84744881D01*
X133055330Y-84640000D01*
X133045000Y-84535118D01*
X133045000Y-81623795D01*
X133132025Y-81460982D01*
X133254107Y-81058533D01*
X133295329Y-80640001D01*
X133254107Y-80221467D01*
X133132025Y-79819019D01*
X132933776Y-79448119D01*
X132666977Y-79123023D01*
X132341881Y-78856224D01*
X131970981Y-78657975D01*
X131568533Y-78535893D01*
X131149999Y-78494671D01*
X130731467Y-78535893D01*
X130329018Y-78657975D01*
X129958119Y-78856224D01*
X129714490Y-79056165D01*
X129474488Y-79296167D01*
X129393024Y-79363023D01*
X129326168Y-79444487D01*
X129326165Y-79444490D01*
X129126224Y-79688119D01*
X128927975Y-80059018D01*
X128805893Y-80461467D01*
X128764671Y-80880000D01*
X128775001Y-80984881D01*
X128775001Y-82574255D01*
X128499018Y-82657974D01*
X128128119Y-82856223D01*
X127803023Y-83123023D01*
X127736163Y-83204492D01*
X126544492Y-84396163D01*
X126463023Y-84463023D01*
X126196223Y-84788119D01*
X125997974Y-85159019D01*
X125875892Y-85561468D01*
X125845000Y-85875119D01*
X125845000Y-85875128D01*
X125834671Y-85980000D01*
X125845000Y-86084872D01*
X125845001Y-89075653D01*
X124525655Y-90395000D01*
X120644871Y-90395000D01*
X120539999Y-90384671D01*
X120435127Y-90395000D01*
X120435118Y-90395000D01*
X120121467Y-90425892D01*
X119719018Y-90547974D01*
X119348119Y-90746223D01*
X119348117Y-90746224D01*
X119348118Y-90746224D01*
X119104489Y-90946165D01*
X119104487Y-90946167D01*
X119023023Y-91013023D01*
X118956167Y-91094487D01*
X118015655Y-92035000D01*
X110681187Y-92035000D01*
X110458137Y-91967339D01*
X110129796Y-91935000D01*
X109910204Y-91935000D01*
X109581863Y-91967339D01*
X109358813Y-92035000D01*
X103931187Y-92035000D01*
X103708137Y-91967339D01*
X103379796Y-91935000D01*
X103160204Y-91935000D01*
X102831863Y-91967339D01*
X102410564Y-92095138D01*
X102022293Y-92302674D01*
X101681970Y-92581970D01*
X101402674Y-92922293D01*
X101292797Y-93127857D01*
X99235655Y-95185000D01*
X86294346Y-95185000D01*
X85854931Y-94745586D01*
X86029108Y-94838685D01*
X86308962Y-94923578D01*
X86600000Y-94952243D01*
X86891037Y-94923578D01*
X87170891Y-94838685D01*
X87428806Y-94700827D01*
X87654871Y-94515301D01*
X87840397Y-94289237D01*
X87978255Y-94031322D01*
X88004441Y-93945000D01*
X97301971Y-93945000D01*
X97370000Y-93951700D01*
X97438029Y-93945000D01*
X97438037Y-93945000D01*
X97641507Y-93924960D01*
X97902581Y-93845764D01*
X98143188Y-93717157D01*
X98354081Y-93544081D01*
X98397454Y-93491231D01*
X100201236Y-91687450D01*
X100254081Y-91644081D01*
X100310020Y-91575920D01*
X100427157Y-91433188D01*
X100555764Y-91192581D01*
X100634960Y-90931507D01*
X100637484Y-90905880D01*
X100655000Y-90728037D01*
X100655000Y-90728029D01*
X100661700Y-90660000D01*
X100655000Y-90591971D01*
X100655000Y-83335234D01*
X100661700Y-83267207D01*
X100655000Y-83199180D01*
X100655000Y-83199171D01*
X100634960Y-82995701D01*
X100555764Y-82734627D01*
X100427157Y-82494020D01*
X100321239Y-82364960D01*
X100297451Y-82335974D01*
X100297450Y-82335973D01*
X100254080Y-82283127D01*
X100201235Y-82239758D01*
X98830246Y-80868769D01*
X98786873Y-80815919D01*
X98575980Y-80642843D01*
X98335373Y-80514236D01*
X98074299Y-80435040D01*
X97915000Y-80419350D01*
X97915000Y-77713685D01*
X98298685Y-77330000D01*
X101031928Y-77330000D01*
X101031928Y-80530000D01*
X101044188Y-80654482D01*
X101080498Y-80774180D01*
X101139463Y-80884494D01*
X101218815Y-80981185D01*
X101315506Y-81060537D01*
X101425820Y-81119502D01*
X101545518Y-81155812D01*
X101670000Y-81168072D01*
X104870000Y-81168072D01*
X104994482Y-81155812D01*
X105114180Y-81119502D01*
X105216144Y-81065000D01*
X108073856Y-81065000D01*
X108175820Y-81119502D01*
X108295518Y-81155812D01*
X108420000Y-81168072D01*
X111620000Y-81168072D01*
X111744482Y-81155812D01*
X111864180Y-81119502D01*
X111974494Y-81060537D01*
X112071185Y-80981185D01*
X112150537Y-80884494D01*
X112209502Y-80774180D01*
X112245812Y-80654482D01*
X112258072Y-80530000D01*
X112258072Y-79711273D01*
X114139345Y-77830000D01*
X116804671Y-77830000D01*
X116815000Y-77934872D01*
X116815000Y-78625128D01*
X116804671Y-78730000D01*
X116815000Y-78834872D01*
X116815000Y-78834881D01*
X116845892Y-79148532D01*
X116967974Y-79550981D01*
X117166223Y-79921881D01*
X117433023Y-80246977D01*
X117514490Y-80313835D01*
X118405001Y-81204347D01*
X118405000Y-87634881D01*
X118435892Y-87948532D01*
X118557974Y-88350981D01*
X118701928Y-88620302D01*
X118701928Y-88730000D01*
X118714188Y-88854482D01*
X118750498Y-88974180D01*
X118809463Y-89084494D01*
X118888815Y-89181185D01*
X118985506Y-89260537D01*
X119095820Y-89319502D01*
X119215518Y-89355812D01*
X119340000Y-89368072D01*
X119449698Y-89368072D01*
X119719018Y-89512026D01*
X120121467Y-89634108D01*
X120540000Y-89675330D01*
X120958532Y-89634108D01*
X121360981Y-89512026D01*
X121630302Y-89368072D01*
X121740000Y-89368072D01*
X121864482Y-89355812D01*
X121984180Y-89319502D01*
X122094494Y-89260537D01*
X122191185Y-89181185D01*
X122270537Y-89084494D01*
X122329502Y-88974180D01*
X122365812Y-88854482D01*
X122378072Y-88730000D01*
X122378072Y-88620302D01*
X122522026Y-88350982D01*
X122644108Y-87948533D01*
X122675000Y-87634882D01*
X122675000Y-81574345D01*
X123164611Y-81084735D01*
X123567935Y-81004508D01*
X124053298Y-80803464D01*
X124490113Y-80511594D01*
X124861594Y-80140113D01*
X125153464Y-79703298D01*
X125354508Y-79217935D01*
X125434735Y-78814611D01*
X126257512Y-77991834D01*
X126338976Y-77924978D01*
X126405834Y-77843512D01*
X126405835Y-77843511D01*
X126605775Y-77599883D01*
X126608364Y-77595041D01*
X126804025Y-77228983D01*
X126870751Y-77009018D01*
X126926107Y-76826535D01*
X126929803Y-76789009D01*
X126967329Y-76408001D01*
X126956999Y-76303119D01*
X126956999Y-76152346D01*
X127890000Y-75219345D01*
X129764489Y-77093835D01*
X130008118Y-77293776D01*
X130379017Y-77492026D01*
X130781466Y-77614108D01*
X131200000Y-77655329D01*
X131618533Y-77614108D01*
X132020982Y-77492026D01*
X132391881Y-77293776D01*
X132716977Y-77026977D01*
X132983776Y-76701881D01*
X133182026Y-76330982D01*
X133304108Y-75928533D01*
X133345329Y-75510000D01*
X133304108Y-75091466D01*
X133182026Y-74689017D01*
X132983776Y-74318118D01*
X132783835Y-74074489D01*
X130025000Y-71315655D01*
X130025000Y-62689721D01*
X130004438Y-62586349D01*
X129994108Y-62481467D01*
X129963515Y-62380616D01*
X129942953Y-62277244D01*
X129902619Y-62179869D01*
X129872026Y-62079018D01*
X129822346Y-61986073D01*
X129782012Y-61888698D01*
X129723457Y-61801064D01*
X129673777Y-61708119D01*
X129606919Y-61626653D01*
X129548363Y-61539017D01*
X129473833Y-61464487D01*
X129406977Y-61383023D01*
X129325513Y-61316167D01*
X129250983Y-61241637D01*
X129163347Y-61183081D01*
X129081881Y-61116223D01*
X128988937Y-61066543D01*
X128901302Y-61007988D01*
X128803924Y-60967653D01*
X128710981Y-60917974D01*
X128610134Y-60887382D01*
X128512756Y-60847047D01*
X128409382Y-60826484D01*
X128308532Y-60795892D01*
X128203651Y-60785562D01*
X128100279Y-60765000D01*
X127994882Y-60765000D01*
X127890000Y-60754670D01*
X127785118Y-60765000D01*
X127679721Y-60765000D01*
X127576349Y-60785562D01*
X127471467Y-60795892D01*
X127370616Y-60826485D01*
X127267244Y-60847047D01*
X127169869Y-60887381D01*
X127069018Y-60917974D01*
X126976073Y-60967654D01*
X126878698Y-61007988D01*
X126791064Y-61066543D01*
X126698119Y-61116223D01*
X126616653Y-61183081D01*
X126529017Y-61241637D01*
X126454487Y-61316167D01*
X126373023Y-61383023D01*
X126306167Y-61464487D01*
X126231637Y-61539017D01*
X126173081Y-61626653D01*
X126106223Y-61708119D01*
X126056543Y-61801063D01*
X125997988Y-61888698D01*
X125957653Y-61986076D01*
X125907974Y-62079019D01*
X125877382Y-62179866D01*
X125837047Y-62277244D01*
X125816484Y-62380618D01*
X125785892Y-62481468D01*
X125775562Y-62586348D01*
X125755000Y-62689721D01*
X125755000Y-62795119D01*
X125755001Y-71315653D01*
X123937654Y-73133001D01*
X121616873Y-73133001D01*
X121511999Y-73122672D01*
X121407124Y-73133001D01*
X121407117Y-73133001D01*
X121131000Y-73160196D01*
X121093465Y-73163893D01*
X120996890Y-73193189D01*
X120691017Y-73285975D01*
X120320118Y-73484224D01*
X120248337Y-73543133D01*
X120076488Y-73684166D01*
X120076486Y-73684168D01*
X119995022Y-73751024D01*
X119928166Y-73832488D01*
X117514487Y-76246168D01*
X117433024Y-76313023D01*
X117366168Y-76394487D01*
X117366165Y-76394490D01*
X117232951Y-76556812D01*
X117166224Y-76638119D01*
X116967974Y-77009018D01*
X116845892Y-77411467D01*
X116815000Y-77725118D01*
X116815000Y-77725128D01*
X116804671Y-77830000D01*
X114139345Y-77830000D01*
X121705513Y-70263833D01*
X121786977Y-70196977D01*
X122053777Y-69871881D01*
X122252026Y-69500982D01*
X122374108Y-69098533D01*
X122405000Y-68784882D01*
X122405000Y-68784873D01*
X122415329Y-68680001D01*
X122405000Y-68575129D01*
X122405000Y-63762241D01*
X122503777Y-63641881D01*
X122702026Y-63270982D01*
X122824108Y-62868533D01*
X122855000Y-62554882D01*
X122855000Y-62554873D01*
X122865329Y-62450001D01*
X122855000Y-62345129D01*
X122855000Y-54015000D01*
X124723856Y-54015000D01*
X124825820Y-54069502D01*
X124945518Y-54105812D01*
X125070000Y-54118072D01*
X128270000Y-54118072D01*
X128394482Y-54105812D01*
X128514180Y-54069502D01*
X128624494Y-54010537D01*
X128721185Y-53931185D01*
X128800537Y-53834494D01*
X128859502Y-53724180D01*
X128895812Y-53604482D01*
X128908072Y-53480000D01*
X128908072Y-50280000D01*
X128895812Y-50155518D01*
X128859502Y-50035820D01*
X128800537Y-49925506D01*
X128721185Y-49828815D01*
X128624494Y-49749463D01*
X128514180Y-49690498D01*
X128394482Y-49654188D01*
X128270000Y-49641928D01*
X125070000Y-49641928D01*
X124945518Y-49654188D01*
X124825820Y-49690498D01*
X124723856Y-49745000D01*
X122666144Y-49745000D01*
X122564180Y-49690498D01*
X122444482Y-49654188D01*
X122320000Y-49641928D01*
X119120000Y-49641928D01*
X118995518Y-49654188D01*
X118875820Y-49690498D01*
X118765506Y-49749463D01*
X118668815Y-49828815D01*
X118589463Y-49925506D01*
X118530498Y-50035820D01*
X118494188Y-50155518D01*
X118481928Y-50280000D01*
X118481928Y-53480000D01*
X118494188Y-53604482D01*
X118530498Y-53724180D01*
X118585000Y-53826145D01*
X118585001Y-61578881D01*
X118553081Y-61626653D01*
X118486223Y-61708119D01*
X118436543Y-61801063D01*
X118377988Y-61888698D01*
X118337653Y-61986076D01*
X118287974Y-62079019D01*
X118257382Y-62179866D01*
X118217047Y-62277244D01*
X118196484Y-62380618D01*
X118165892Y-62481468D01*
X118155562Y-62586348D01*
X118135000Y-62689721D01*
X118135000Y-62795128D01*
X118124671Y-62900000D01*
X118135000Y-63004872D01*
X118135001Y-67795653D01*
X109238727Y-76691928D01*
X108420000Y-76691928D01*
X108295518Y-76704188D01*
X108175820Y-76740498D01*
X108073856Y-76795000D01*
X105216144Y-76795000D01*
X105114180Y-76740498D01*
X104994482Y-76704188D01*
X104870000Y-76691928D01*
X101670000Y-76691928D01*
X101545518Y-76704188D01*
X101425820Y-76740498D01*
X101315506Y-76799463D01*
X101218815Y-76878815D01*
X101139463Y-76975506D01*
X101080498Y-77085820D01*
X101044188Y-77205518D01*
X101031928Y-77330000D01*
X98298685Y-77330000D01*
X99821236Y-75807450D01*
X99874081Y-75764081D01*
X99925188Y-75701808D01*
X100047157Y-75553188D01*
X100175764Y-75312581D01*
X100254960Y-75051507D01*
X100263109Y-74968767D01*
X100275000Y-74848037D01*
X100275000Y-74848029D01*
X100281700Y-74780000D01*
X100275000Y-74711971D01*
X100275000Y-68240000D01*
X103861928Y-68240000D01*
X103861928Y-70640000D01*
X103874188Y-70764482D01*
X103910498Y-70884180D01*
X103969463Y-70994494D01*
X104048815Y-71091185D01*
X104145506Y-71170537D01*
X104255820Y-71229502D01*
X104375518Y-71265812D01*
X104500000Y-71278072D01*
X106900000Y-71278072D01*
X107024482Y-71265812D01*
X107144180Y-71229502D01*
X107254494Y-71170537D01*
X107351185Y-71091185D01*
X107430537Y-70994494D01*
X107489502Y-70884180D01*
X107525812Y-70764482D01*
X107538072Y-70640000D01*
X107538072Y-68240000D01*
X107525812Y-68115518D01*
X107489502Y-67995820D01*
X107430537Y-67885506D01*
X107351185Y-67788815D01*
X107254494Y-67709463D01*
X107144180Y-67650498D01*
X107024482Y-67614188D01*
X106900000Y-67601928D01*
X104500000Y-67601928D01*
X104375518Y-67614188D01*
X104255820Y-67650498D01*
X104145506Y-67709463D01*
X104048815Y-67788815D01*
X103969463Y-67885506D01*
X103910498Y-67995820D01*
X103874188Y-68115518D01*
X103861928Y-68240000D01*
X100275000Y-68240000D01*
X100275000Y-63130775D01*
X100416812Y-63247157D01*
X100657419Y-63375764D01*
X100918493Y-63454960D01*
X101121963Y-63475000D01*
X101121964Y-63475000D01*
X101190000Y-63481701D01*
X101258037Y-63475000D01*
X102776315Y-63475000D01*
X103865000Y-64563686D01*
X103865000Y-64620732D01*
X103935518Y-64975250D01*
X104073844Y-65309199D01*
X104274662Y-65609744D01*
X104530256Y-65865338D01*
X104830801Y-66066156D01*
X105164750Y-66204482D01*
X105519268Y-66275000D01*
X105880732Y-66275000D01*
X106235250Y-66204482D01*
X106569199Y-66066156D01*
X106869744Y-65865338D01*
X107125338Y-65609744D01*
X107326156Y-65309199D01*
X107464482Y-64975250D01*
X107535000Y-64620732D01*
X107535000Y-64259268D01*
X107464482Y-63904750D01*
X107326156Y-63570801D01*
X107125338Y-63270256D01*
X106869744Y-63014662D01*
X106569199Y-62813844D01*
X106235250Y-62675518D01*
X105880732Y-62605000D01*
X105823686Y-62605000D01*
X104377454Y-61158769D01*
X104334081Y-61105919D01*
X104123188Y-60932843D01*
X103882581Y-60804236D01*
X103621507Y-60725040D01*
X103418037Y-60705000D01*
X103418029Y-60705000D01*
X103350000Y-60698300D01*
X103281971Y-60705000D01*
X102575000Y-60705000D01*
X102575000Y-53877159D01*
X102575812Y-53874482D01*
X102588072Y-53750000D01*
X102588072Y-52230000D01*
X102575812Y-52105518D01*
X102539502Y-51985820D01*
X102480537Y-51875506D01*
X102401185Y-51778815D01*
X102304494Y-51699463D01*
X102194180Y-51640498D01*
X102074482Y-51604188D01*
X101986533Y-51595526D01*
X102079261Y-51533567D01*
X102273567Y-51339261D01*
X102426233Y-51110780D01*
X102531391Y-50856907D01*
X102585000Y-50587396D01*
X102585000Y-50312604D01*
X102531391Y-50043093D01*
X102426233Y-49789220D01*
X102273567Y-49560739D01*
X102079261Y-49366433D01*
X101850780Y-49213767D01*
X101769260Y-49180000D01*
X101850780Y-49146233D01*
X102079261Y-48993567D01*
X102273567Y-48799261D01*
X102426233Y-48570780D01*
X102531391Y-48316907D01*
X102585000Y-48047396D01*
X102585000Y-47772604D01*
X102575000Y-47722331D01*
X102575000Y-43998029D01*
X102581700Y-43930000D01*
X102575000Y-43861971D01*
X102575000Y-43861963D01*
X102554960Y-43658493D01*
X102475764Y-43397419D01*
X102352283Y-43166402D01*
X105372276Y-40146410D01*
X105461101Y-40098932D01*
X105679608Y-39919608D01*
X105858932Y-39701101D01*
X105992182Y-39451808D01*
X106074236Y-39181309D01*
X106101943Y-38900000D01*
X106074236Y-38618691D01*
X105992182Y-38348192D01*
X105858932Y-38098899D01*
X105679608Y-37880392D01*
X105461101Y-37701068D01*
X105211808Y-37567818D01*
X104941309Y-37485764D01*
X104730492Y-37465000D01*
X104589508Y-37465000D01*
X104378691Y-37485764D01*
X104108192Y-37567818D01*
X103858899Y-37701068D01*
X103640392Y-37880392D01*
X103461068Y-38098899D01*
X103413590Y-38187724D01*
X99836315Y-41765000D01*
X92327688Y-41765000D01*
X92231309Y-41735764D01*
X92020492Y-41715000D01*
X91879508Y-41715000D01*
X91668691Y-41735764D01*
X91398192Y-41817818D01*
X91148899Y-41951068D01*
X90930392Y-42130392D01*
X90751068Y-42348899D01*
X90617818Y-42598192D01*
X90535764Y-42868691D01*
X90508057Y-43150000D01*
X90535764Y-43431309D01*
X90617818Y-43701808D01*
X90618088Y-43702314D01*
X90624236Y-43722580D01*
X90752844Y-43963188D01*
X90925919Y-44174081D01*
X91136812Y-44347156D01*
X91377420Y-44475764D01*
X91397686Y-44481912D01*
X91398192Y-44482182D01*
X91668691Y-44564236D01*
X91879508Y-44585000D01*
X92020492Y-44585000D01*
X92231309Y-44564236D01*
X92327688Y-44535000D01*
X99805001Y-44535000D01*
X99805000Y-47722330D01*
X99795000Y-47772604D01*
X99795000Y-48047396D01*
X99848609Y-48316907D01*
X99953767Y-48570780D01*
X100106433Y-48799261D01*
X100300739Y-48993567D01*
X100407646Y-49065000D01*
X99483686Y-49065000D01*
X97617024Y-47198339D01*
X97474637Y-46985241D01*
X97274759Y-46785363D01*
X97039727Y-46628320D01*
X96778574Y-46520147D01*
X96501335Y-46465000D01*
X96218665Y-46465000D01*
X95941426Y-46520147D01*
X95680273Y-46628320D01*
X95445241Y-46785363D01*
X95245363Y-46985241D01*
X95088320Y-47220273D01*
X94980147Y-47481426D01*
X94925000Y-47758665D01*
X94925000Y-48041335D01*
X94980147Y-48318574D01*
X95088320Y-48579727D01*
X95245363Y-48814759D01*
X95445241Y-49014637D01*
X95658339Y-49157024D01*
X97882550Y-51381236D01*
X97925919Y-51434081D01*
X97978764Y-51477450D01*
X97978766Y-51477452D01*
X98126020Y-51598300D01*
X98136812Y-51607157D01*
X98188903Y-51635000D01*
X87715000Y-51635000D01*
X87715000Y-49430319D01*
X87722911Y-49349999D01*
X87713199Y-49251391D01*
X87691343Y-49029484D01*
X87597852Y-48721285D01*
X87446031Y-48437248D01*
X87241714Y-48188286D01*
X87179319Y-48137080D01*
X84669323Y-45627085D01*
X84482752Y-45473970D01*
X84198714Y-45322148D01*
X83890516Y-45228658D01*
X83570000Y-45197089D01*
X83249484Y-45228658D01*
X82941286Y-45322148D01*
X82657248Y-45473970D01*
X82408287Y-45678287D01*
X82203970Y-45927248D01*
X82052148Y-46211286D01*
X81958658Y-46519484D01*
X81927089Y-46840000D01*
X81958658Y-47160516D01*
X82052148Y-47468714D01*
X82203970Y-47752752D01*
X82357085Y-47939323D01*
X84445001Y-50027240D01*
X84445000Y-52286377D01*
X84347818Y-52468192D01*
X84265764Y-52738691D01*
X84238057Y-53020000D01*
X84265764Y-53301309D01*
X84347818Y-53571808D01*
X84481068Y-53821101D01*
X84660392Y-54039608D01*
X84878899Y-54218932D01*
X85011858Y-54290000D01*
X84878899Y-54361068D01*
X84660392Y-54540392D01*
X84481068Y-54758899D01*
X84347818Y-55008192D01*
X84265764Y-55278691D01*
X84238057Y-55560000D01*
X84265764Y-55841309D01*
X84347818Y-56111808D01*
X84481068Y-56361101D01*
X84660392Y-56579608D01*
X84878899Y-56758932D01*
X85011858Y-56830000D01*
X84878899Y-56901068D01*
X84660392Y-57080392D01*
X84481068Y-57298899D01*
X84347818Y-57548192D01*
X84265764Y-57818691D01*
X84238057Y-58100000D01*
X84265764Y-58381309D01*
X84347818Y-58651808D01*
X84481068Y-58901101D01*
X84660392Y-59119608D01*
X84878899Y-59298932D01*
X85011858Y-59370000D01*
X84878899Y-59441068D01*
X84660392Y-59620392D01*
X84481068Y-59838899D01*
X84347818Y-60088192D01*
X84265764Y-60358691D01*
X84238057Y-60640000D01*
X84265764Y-60921309D01*
X84347818Y-61191808D01*
X84481068Y-61441101D01*
X84660392Y-61659608D01*
X84878899Y-61838932D01*
X85128192Y-61972182D01*
X85398691Y-62054236D01*
X85609508Y-62075000D01*
X86550492Y-62075000D01*
X86761309Y-62054236D01*
X86857688Y-62025000D01*
X91647978Y-62025000D01*
X91749508Y-62035000D01*
X91890492Y-62035000D01*
X92101309Y-62014236D01*
X92197688Y-61985000D01*
X95982312Y-61985000D01*
X96078691Y-62014236D01*
X96289508Y-62035000D01*
X96430492Y-62035000D01*
X96641309Y-62014236D01*
X96911808Y-61932182D01*
X97161101Y-61798932D01*
X97379608Y-61619608D01*
X97505000Y-61466817D01*
X97505000Y-63790615D01*
X97454637Y-63715241D01*
X97254759Y-63515363D01*
X97019727Y-63358320D01*
X96758574Y-63250147D01*
X96481335Y-63195000D01*
X96198665Y-63195000D01*
X95921426Y-63250147D01*
X95660273Y-63358320D01*
X95425241Y-63515363D01*
X95225363Y-63715241D01*
X95082977Y-63928337D01*
X92116315Y-66895000D01*
X87505000Y-66895000D01*
X87505000Y-66048026D01*
X87511700Y-65979999D01*
X87505000Y-65911972D01*
X87505000Y-65911963D01*
X87484960Y-65708493D01*
X87405764Y-65447419D01*
X87277157Y-65206812D01*
X87104080Y-64995919D01*
X87051235Y-64952550D01*
X86718685Y-64620000D01*
X90368057Y-64620000D01*
X90395764Y-64901309D01*
X90477818Y-65171808D01*
X90611068Y-65421101D01*
X90790392Y-65639608D01*
X91008899Y-65818932D01*
X91258192Y-65952182D01*
X91528691Y-66034236D01*
X91739508Y-66055000D01*
X91880492Y-66055000D01*
X92091309Y-66034236D01*
X92361808Y-65952182D01*
X92611101Y-65818932D01*
X92829608Y-65639608D01*
X93008932Y-65421101D01*
X93142182Y-65171808D01*
X93224236Y-64901309D01*
X93251943Y-64620000D01*
X93224236Y-64338691D01*
X93142182Y-64068192D01*
X93008932Y-63818899D01*
X92829608Y-63600392D01*
X92611101Y-63421068D01*
X92361808Y-63287818D01*
X92091309Y-63205764D01*
X91880492Y-63185000D01*
X91739508Y-63185000D01*
X91528691Y-63205764D01*
X91258192Y-63287818D01*
X91008899Y-63421068D01*
X90790392Y-63600392D01*
X90611068Y-63818899D01*
X90477818Y-64068192D01*
X90395764Y-64338691D01*
X90368057Y-64620000D01*
X86718685Y-64620000D01*
X84225000Y-62126315D01*
X84225000Y-54768029D01*
X84231700Y-54700000D01*
X84225000Y-54631971D01*
X84225000Y-54631963D01*
X84204960Y-54428493D01*
X84125764Y-54167419D01*
X83997157Y-53926812D01*
X83968528Y-53891928D01*
X83867452Y-53768766D01*
X83867445Y-53768759D01*
X83824080Y-53715919D01*
X83771241Y-53672555D01*
X82187452Y-52088767D01*
X82144081Y-52035919D01*
X81933188Y-51862843D01*
X81692581Y-51734236D01*
X81431507Y-51655040D01*
X81228037Y-51635000D01*
X81228029Y-51635000D01*
X81160000Y-51628300D01*
X81091971Y-51635000D01*
X79955000Y-51635000D01*
X79955000Y-47232699D01*
X80005000Y-46981335D01*
X80005000Y-46698665D01*
X79949853Y-46421426D01*
X79875000Y-46240715D01*
X79875000Y-40185000D01*
X82146315Y-40185000D01*
X90562977Y-48601663D01*
X90705363Y-48814759D01*
X90905241Y-49014637D01*
X91140273Y-49171680D01*
X91401426Y-49279853D01*
X91678665Y-49335000D01*
X91961335Y-49335000D01*
X92238574Y-49279853D01*
X92499727Y-49171680D01*
X92734759Y-49014637D01*
X92934637Y-48814759D01*
X93091680Y-48579727D01*
X93199853Y-48318574D01*
X93255000Y-48041335D01*
X93255000Y-47758665D01*
X93199853Y-47481426D01*
X93091680Y-47220273D01*
X92934637Y-46985241D01*
X92734759Y-46785363D01*
X92521663Y-46642977D01*
X83747454Y-37868769D01*
X83704081Y-37815919D01*
X83562834Y-37700000D01*
X86911928Y-37700000D01*
X86911928Y-39900000D01*
X86924188Y-40024482D01*
X86960498Y-40144180D01*
X87019463Y-40254494D01*
X87098815Y-40351185D01*
X87195506Y-40430537D01*
X87305820Y-40489502D01*
X87425518Y-40525812D01*
X87550000Y-40538072D01*
X89750000Y-40538072D01*
X89874482Y-40525812D01*
X89994180Y-40489502D01*
X90104494Y-40430537D01*
X90201185Y-40351185D01*
X90255501Y-40285000D01*
X91567301Y-40285000D01*
X91818665Y-40335000D01*
X92101335Y-40335000D01*
X92378574Y-40279853D01*
X92639727Y-40171680D01*
X92874759Y-40014637D01*
X93074637Y-39814759D01*
X93231680Y-39579727D01*
X93339853Y-39318574D01*
X93395000Y-39041335D01*
X93395000Y-38758665D01*
X93339853Y-38481426D01*
X93231680Y-38220273D01*
X93074637Y-37985241D01*
X92874759Y-37785363D01*
X92639727Y-37628320D01*
X92378574Y-37520147D01*
X92101335Y-37465000D01*
X91818665Y-37465000D01*
X91567301Y-37515000D01*
X90357454Y-37515000D01*
X90339502Y-37455820D01*
X90280537Y-37345506D01*
X90201185Y-37248815D01*
X90104494Y-37169463D01*
X89994180Y-37110498D01*
X89874482Y-37074188D01*
X89750000Y-37061928D01*
X87550000Y-37061928D01*
X87425518Y-37074188D01*
X87305820Y-37110498D01*
X87195506Y-37169463D01*
X87098815Y-37248815D01*
X87019463Y-37345506D01*
X86960498Y-37455820D01*
X86924188Y-37575518D01*
X86911928Y-37700000D01*
X83562834Y-37700000D01*
X83493188Y-37642843D01*
X83252581Y-37514236D01*
X82991507Y-37435040D01*
X82788037Y-37415000D01*
X82788029Y-37415000D01*
X82720000Y-37408300D01*
X82651971Y-37415000D01*
X79537268Y-37415000D01*
X79458578Y-37350421D01*
X79157168Y-37189314D01*
X78830119Y-37090105D01*
X78575225Y-37065000D01*
X78404775Y-37065000D01*
X78149881Y-37090105D01*
X77822832Y-37189314D01*
X77521422Y-37350421D01*
X77257234Y-37567234D01*
X77040421Y-37831422D01*
X76879314Y-38132832D01*
X76780105Y-38459881D01*
X76746606Y-38800000D01*
X76780105Y-39140119D01*
X76879314Y-39467168D01*
X77040421Y-39768578D01*
X77105000Y-39847268D01*
X77105001Y-46691961D01*
X77098300Y-46760000D01*
X77125040Y-47031507D01*
X77182960Y-47222442D01*
X77185000Y-47232699D01*
X77185001Y-50555000D01*
X71637454Y-50555000D01*
X71619502Y-50495820D01*
X71560537Y-50385506D01*
X71481185Y-50288815D01*
X71384494Y-50209463D01*
X71274180Y-50150498D01*
X71154482Y-50114188D01*
X71030000Y-50101928D01*
X68630000Y-50101928D01*
X68505518Y-50114188D01*
X68385820Y-50150498D01*
X68275506Y-50209463D01*
X68178815Y-50288815D01*
X68099463Y-50385506D01*
X68040498Y-50495820D01*
X68004188Y-50615518D01*
X67991928Y-50740000D01*
X67991928Y-51465833D01*
X67592762Y-51865000D01*
X60239678Y-51865000D01*
X59999484Y-51888657D01*
X59691285Y-51982148D01*
X59415000Y-52129825D01*
X59415000Y-50985000D01*
X62217411Y-50985000D01*
X62310000Y-50994119D01*
X62402589Y-50985000D01*
X62402597Y-50985000D01*
X62679524Y-50957725D01*
X63034848Y-50849939D01*
X63362317Y-50674903D01*
X63649345Y-50439345D01*
X63708374Y-50367418D01*
X66973224Y-47102569D01*
X68394489Y-48523835D01*
X68638118Y-48723776D01*
X69009017Y-48922025D01*
X69411466Y-49044107D01*
X69829999Y-49085329D01*
X70248533Y-49044107D01*
X70650981Y-48922025D01*
X71021881Y-48723776D01*
X71346977Y-48456977D01*
X71613776Y-48131881D01*
X71812025Y-47760981D01*
X71934107Y-47358533D01*
X71975329Y-46939999D01*
X71934107Y-46521466D01*
X71812025Y-46119017D01*
X71613776Y-45748118D01*
X71413835Y-45504489D01*
X69285000Y-43375655D01*
X69285000Y-42054345D01*
X71433836Y-39905510D01*
X71633776Y-39661882D01*
X71832026Y-39290982D01*
X71954108Y-38888534D01*
X71995329Y-38470000D01*
X71954108Y-38051467D01*
X71832026Y-37649018D01*
X71633776Y-37278119D01*
X71366977Y-36953023D01*
X71041881Y-36686224D01*
X70670982Y-36487974D01*
X70268533Y-36365892D01*
X69850000Y-36324671D01*
X69431466Y-36365892D01*
X69029018Y-36487974D01*
X68658118Y-36686224D01*
X68414490Y-36886164D01*
X65714492Y-39586163D01*
X65633023Y-39653023D01*
X65366223Y-39978119D01*
X65167974Y-40349019D01*
X65045892Y-40751468D01*
X65015000Y-41065119D01*
X65015000Y-41065128D01*
X65004671Y-41170000D01*
X65015000Y-41274872D01*
X65015000Y-43729207D01*
X61529208Y-47215000D01*
X51819131Y-47215000D01*
X52096977Y-46986977D01*
X52363777Y-46661881D01*
X52562026Y-46290982D01*
X52684108Y-45888533D01*
X52725330Y-45470000D01*
X52684108Y-45051467D01*
X52562026Y-44649018D01*
X52363777Y-44278119D01*
X52096977Y-43953023D01*
X51771881Y-43686223D01*
X51400982Y-43487974D01*
X50998533Y-43365892D01*
X50684882Y-43335000D01*
X47744346Y-43335000D01*
X47485000Y-43075655D01*
X47485000Y-41711187D01*
X47552661Y-41488137D01*
X47595814Y-41050000D01*
X47552661Y-40611863D01*
X47485000Y-40388813D01*
X47485000Y-35391187D01*
X47552661Y-35168137D01*
X47595814Y-34730000D01*
X47552661Y-34291863D01*
X47424862Y-33870564D01*
X47217326Y-33482293D01*
X46938030Y-33141970D01*
X46597707Y-32862674D01*
X46209436Y-32655138D01*
X45788137Y-32527339D01*
X45459796Y-32495000D01*
X45240204Y-32495000D01*
X44911863Y-32527339D01*
X44490564Y-32655138D01*
X44102293Y-32862674D01*
X43761970Y-33141970D01*
X43482674Y-33482293D01*
X43275138Y-33870564D01*
X43147339Y-34291863D01*
X43104186Y-34730000D01*
X43147339Y-35168137D01*
X43215000Y-35391187D01*
X43215001Y-38915000D01*
X41676707Y-38915000D01*
X41640113Y-38878406D01*
X41203298Y-38586536D01*
X40717935Y-38385492D01*
X40202677Y-38283000D01*
X39677323Y-38283000D01*
X39162065Y-38385492D01*
X38676702Y-38586536D01*
X38239887Y-38878406D01*
X37868406Y-39249887D01*
X37576536Y-39686702D01*
X37375492Y-40172065D01*
X37273000Y-40687323D01*
X37273000Y-41212677D01*
X37375492Y-41727935D01*
X37576536Y-42213298D01*
X37805000Y-42555220D01*
X37805001Y-45821787D01*
X37695892Y-46181467D01*
X37665000Y-46495118D01*
X37665000Y-46495128D01*
X37654671Y-46600000D01*
X37665000Y-46704872D01*
X37665000Y-48534881D01*
X37695892Y-48848532D01*
X37817974Y-49250981D01*
X38016223Y-49621881D01*
X38283023Y-49946977D01*
X38608119Y-50213777D01*
X38979018Y-50412026D01*
X39381467Y-50534108D01*
X39800000Y-50575330D01*
X40218532Y-50534108D01*
X40620981Y-50412026D01*
X40991881Y-50213777D01*
X41316977Y-49946977D01*
X41583777Y-49621881D01*
X41782026Y-49250982D01*
X41904108Y-48848533D01*
X41935000Y-48534882D01*
X41935000Y-47484345D01*
X43893081Y-45526265D01*
X43914487Y-45543832D01*
X45276167Y-46905513D01*
X45343023Y-46986977D01*
X45668119Y-47253777D01*
X46039018Y-47452026D01*
X46441467Y-47574108D01*
X46755118Y-47605000D01*
X46755127Y-47605000D01*
X46859999Y-47615329D01*
X46964871Y-47605000D01*
X49972265Y-47605000D01*
X49854523Y-47701628D01*
X49854521Y-47701630D01*
X49782599Y-47760655D01*
X49723574Y-47832577D01*
X45931152Y-51625000D01*
X40802505Y-51625000D01*
X40620981Y-51527974D01*
X40218532Y-51405892D01*
X39800000Y-51364670D01*
X39381467Y-51405892D01*
X38979018Y-51527974D01*
X38608119Y-51726223D01*
X38283023Y-51993023D01*
X38016223Y-52318119D01*
X37817974Y-52689019D01*
X37695892Y-53091468D01*
X37665000Y-53405119D01*
X37665000Y-58875125D01*
X37654671Y-58980000D01*
X37665000Y-59084875D01*
X37665000Y-59925124D01*
X37654671Y-60030000D01*
X37665000Y-60134876D01*
X37665001Y-70975109D01*
X37665000Y-70975119D01*
X37665000Y-70975128D01*
X37654671Y-71080000D01*
X37665000Y-71184872D01*
X37665001Y-78445118D01*
X37654671Y-78550000D01*
X37695893Y-78968533D01*
X37817975Y-79370982D01*
X38016224Y-79741881D01*
X38216165Y-79985510D01*
X38216168Y-79985513D01*
X38283024Y-80066977D01*
X38364487Y-80133832D01*
X41795000Y-83564346D01*
X41795001Y-89075109D01*
X41795000Y-89075119D01*
X41795000Y-90489341D01*
X41784671Y-90594213D01*
X41795000Y-90699085D01*
X41795000Y-90699095D01*
X41825892Y-91012746D01*
X41924594Y-91338119D01*
X41947975Y-91415195D01*
X42146224Y-91786094D01*
X42346165Y-92029723D01*
X42346168Y-92029726D01*
X42413024Y-92111190D01*
X42494487Y-92178045D01*
X44921954Y-94605513D01*
X44988810Y-94686977D01*
X45070274Y-94753833D01*
X45070276Y-94753835D01*
X45173666Y-94838685D01*
X45313906Y-94953777D01*
X45486555Y-95046060D01*
X45684804Y-95152026D01*
X46087253Y-95274108D01*
X46124788Y-95277805D01*
X46400905Y-95305000D01*
X46400912Y-95305000D01*
X46505787Y-95315329D01*
X46610661Y-95305000D01*
X80254882Y-95305000D01*
X80568533Y-95274108D01*
X80970982Y-95152026D01*
X81341881Y-94953777D01*
X81362636Y-94936744D01*
X81520000Y-94952243D01*
X81811037Y-94923578D01*
X81870529Y-94905531D01*
X81857975Y-94929018D01*
X81735893Y-95331467D01*
X81694671Y-95750000D01*
X81735893Y-96168533D01*
X81857975Y-96570982D01*
X82056224Y-96941881D01*
X82256165Y-97185510D01*
X83173654Y-98103000D01*
X37057000Y-98103000D01*
X37057000Y-95224495D01*
X38215000Y-95224495D01*
X38215000Y-95615505D01*
X38291282Y-95999003D01*
X38440915Y-96360250D01*
X38658149Y-96685364D01*
X38934636Y-96961851D01*
X39259750Y-97179085D01*
X39620997Y-97328718D01*
X40004495Y-97405000D01*
X40395505Y-97405000D01*
X40779003Y-97328718D01*
X41140250Y-97179085D01*
X41465364Y-96961851D01*
X41741851Y-96685364D01*
X41959085Y-96360250D01*
X42108718Y-95999003D01*
X42185000Y-95615505D01*
X42185000Y-95224495D01*
X42108718Y-94840997D01*
X41959085Y-94479750D01*
X41741851Y-94154636D01*
X41465364Y-93878149D01*
X41140250Y-93660915D01*
X40779003Y-93511282D01*
X40395505Y-93435000D01*
X40004495Y-93435000D01*
X39620997Y-93511282D01*
X39259750Y-93660915D01*
X38934636Y-93878149D01*
X38658149Y-94154636D01*
X38440915Y-94479750D01*
X38291282Y-94840997D01*
X38215000Y-95224495D01*
X37057000Y-95224495D01*
X37057000Y-30514495D01*
X38215000Y-30514495D01*
X38215000Y-30905505D01*
X38291282Y-31289003D01*
X38440915Y-31650250D01*
X38658149Y-31975364D01*
X38934636Y-32251851D01*
X39259750Y-32469085D01*
X39620997Y-32618718D01*
X40004495Y-32695000D01*
X40395505Y-32695000D01*
X40779003Y-32618718D01*
X41140250Y-32469085D01*
X41465364Y-32251851D01*
X41741851Y-31975364D01*
X41959085Y-31650250D01*
X42108718Y-31289003D01*
X42185000Y-30905505D01*
X42185000Y-30514495D01*
X42108718Y-30130997D01*
X41959085Y-29769750D01*
X41741851Y-29444636D01*
X41465364Y-29168149D01*
X41140250Y-28950915D01*
X40779003Y-28801282D01*
X40395505Y-28725000D01*
X40004495Y-28725000D01*
X39620997Y-28801282D01*
X39259750Y-28950915D01*
X38934636Y-29168149D01*
X38658149Y-29444636D01*
X38440915Y-29769750D01*
X38291282Y-30130997D01*
X38215000Y-30514495D01*
X37057000Y-30514495D01*
X37057000Y-27657000D01*
X99953655Y-27657000D01*
X96275655Y-31335000D01*
X96275655Y-31335000D01*
G37*
X96275655Y-31335000D02*
X61954871Y-31335000D01*
X61849999Y-31324671D01*
X61745127Y-31335000D01*
X61745118Y-31335000D01*
X61431467Y-31365892D01*
X61029018Y-31487974D01*
X60658119Y-31686223D01*
X60333023Y-31953023D01*
X60266165Y-32034490D01*
X59808727Y-32491928D01*
X58990000Y-32491928D01*
X58865518Y-32504188D01*
X58745820Y-32540498D01*
X58635506Y-32599463D01*
X58538815Y-32678815D01*
X58459463Y-32775506D01*
X58400498Y-32885820D01*
X58364188Y-33005518D01*
X58351928Y-33130000D01*
X58351928Y-36330000D01*
X58364188Y-36454482D01*
X58400498Y-36574180D01*
X58455000Y-36676145D01*
X58455001Y-39103854D01*
X58400498Y-39205820D01*
X58364188Y-39325518D01*
X58351928Y-39450000D01*
X58351928Y-42650000D01*
X58364188Y-42774482D01*
X58400498Y-42894180D01*
X58459463Y-43004494D01*
X58538815Y-43101185D01*
X58635506Y-43180537D01*
X58745820Y-43239502D01*
X58865518Y-43275812D01*
X58990000Y-43288072D01*
X62190000Y-43288072D01*
X62314482Y-43275812D01*
X62434180Y-43239502D01*
X62544494Y-43180537D01*
X62641185Y-43101185D01*
X62720537Y-43004494D01*
X62779502Y-42894180D01*
X62815812Y-42774482D01*
X62828072Y-42650000D01*
X62828072Y-39450000D01*
X62815812Y-39325518D01*
X62779502Y-39205820D01*
X62725000Y-39103856D01*
X62725000Y-36676144D01*
X62779502Y-36574180D01*
X62815812Y-36454482D01*
X62828072Y-36330000D01*
X62828072Y-35605000D01*
X97055128Y-35605000D01*
X97160000Y-35615329D01*
X97264872Y-35605000D01*
X97264882Y-35605000D01*
X97578533Y-35574108D01*
X97980982Y-35452026D01*
X98351881Y-35253777D01*
X98676977Y-34986977D01*
X98743837Y-34905508D01*
X103034345Y-30615000D01*
X107995001Y-30615000D01*
X107995001Y-31332597D01*
X108002392Y-31407639D01*
X107840891Y-31321315D01*
X107561037Y-31236422D01*
X107270000Y-31207757D01*
X106978962Y-31236422D01*
X106699108Y-31321315D01*
X106441193Y-31459173D01*
X106215129Y-31644699D01*
X106029603Y-31870764D01*
X105891745Y-32128679D01*
X105806852Y-32408533D01*
X105785370Y-32626641D01*
X105785370Y-34573360D01*
X105806853Y-34791468D01*
X105885000Y-35049085D01*
X105885001Y-36782021D01*
X105878300Y-36850060D01*
X105905040Y-37121567D01*
X105925000Y-37187366D01*
X105925000Y-37511971D01*
X105918300Y-37580000D01*
X105925000Y-37648029D01*
X105925000Y-37648037D01*
X105945040Y-37851507D01*
X106024236Y-38112581D01*
X106152843Y-38353188D01*
X106325920Y-38564081D01*
X106378764Y-38607449D01*
X107231928Y-39460614D01*
X107231928Y-39660000D01*
X107244188Y-39784482D01*
X107280498Y-39904180D01*
X107339463Y-40014494D01*
X107372705Y-40055000D01*
X106428026Y-40055000D01*
X106359999Y-40048300D01*
X106291972Y-40055000D01*
X106291963Y-40055000D01*
X106088493Y-40075040D01*
X105827419Y-40154236D01*
X105586812Y-40282843D01*
X105559814Y-40305000D01*
X105428766Y-40412548D01*
X105428764Y-40412550D01*
X105375919Y-40455919D01*
X105332550Y-40508764D01*
X103948339Y-41892976D01*
X103735241Y-42035363D01*
X103535363Y-42235241D01*
X103378320Y-42470273D01*
X103270147Y-42731426D01*
X103215000Y-43008665D01*
X103215000Y-43291335D01*
X103270147Y-43568574D01*
X103378320Y-43829727D01*
X103535363Y-44064759D01*
X103735241Y-44264637D01*
X103970273Y-44421680D01*
X104231426Y-44529853D01*
X104508665Y-44585000D01*
X104791335Y-44585000D01*
X105068574Y-44529853D01*
X105329727Y-44421680D01*
X105564759Y-44264637D01*
X105764637Y-44064759D01*
X105907024Y-43851661D01*
X106933686Y-42825000D01*
X107847646Y-42825000D01*
X107740739Y-42896433D01*
X107546433Y-43090739D01*
X107393767Y-43319220D01*
X107288609Y-43573093D01*
X107235000Y-43842604D01*
X107235000Y-44117396D01*
X107245000Y-44167670D01*
X107245001Y-51251928D01*
X106200000Y-51251928D01*
X106075518Y-51264188D01*
X105955820Y-51300498D01*
X105845506Y-51359463D01*
X105748815Y-51438815D01*
X105669463Y-51535506D01*
X105610498Y-51645820D01*
X105574188Y-51765518D01*
X105561928Y-51890000D01*
X105561928Y-54290000D01*
X105574188Y-54414482D01*
X105610498Y-54534180D01*
X105669463Y-54644494D01*
X105748815Y-54741185D01*
X105845506Y-54820537D01*
X105955820Y-54879502D01*
X106075518Y-54915812D01*
X106200000Y-54928072D01*
X108600000Y-54928072D01*
X108724482Y-54915812D01*
X108844180Y-54879502D01*
X108954494Y-54820537D01*
X109051185Y-54741185D01*
X109130537Y-54644494D01*
X109189502Y-54534180D01*
X109225812Y-54414482D01*
X109238072Y-54290000D01*
X109238072Y-53210614D01*
X109561236Y-52887450D01*
X109614081Y-52844081D01*
X109692529Y-52748493D01*
X109787157Y-52633188D01*
X109915764Y-52392581D01*
X109994960Y-52131507D01*
X109997520Y-52105518D01*
X110015000Y-51928037D01*
X110015000Y-51928029D01*
X110021700Y-51860000D01*
X110015000Y-51791971D01*
X110015000Y-44167669D01*
X110025000Y-44117396D01*
X110025000Y-43842604D01*
X109971391Y-43573093D01*
X109866233Y-43319220D01*
X109713567Y-43090739D01*
X109519261Y-42896433D01*
X109412354Y-42825000D01*
X112947646Y-42825000D01*
X112840739Y-42896433D01*
X112646433Y-43090739D01*
X112493767Y-43319220D01*
X112388609Y-43573093D01*
X112335000Y-43842604D01*
X112335000Y-44117396D01*
X112345000Y-44167670D01*
X112345001Y-51186313D01*
X112276314Y-51255000D01*
X112219268Y-51255000D01*
X111864750Y-51325518D01*
X111530801Y-51463844D01*
X111230256Y-51664662D01*
X110974662Y-51920256D01*
X110773844Y-52220801D01*
X110635518Y-52554750D01*
X110565000Y-52909268D01*
X110565000Y-53270732D01*
X110635518Y-53625250D01*
X110773844Y-53959199D01*
X110974662Y-54259744D01*
X111230256Y-54515338D01*
X111530801Y-54716156D01*
X111864750Y-54854482D01*
X112219268Y-54925000D01*
X112580732Y-54925000D01*
X112935250Y-54854482D01*
X113269199Y-54716156D01*
X113569744Y-54515338D01*
X113825338Y-54259744D01*
X114026156Y-53959199D01*
X114164482Y-53625250D01*
X114235000Y-53270732D01*
X114235000Y-53213686D01*
X114661236Y-52787450D01*
X114714081Y-52744081D01*
X114759270Y-52689019D01*
X114887156Y-52533189D01*
X114919553Y-52472580D01*
X115015764Y-52292581D01*
X115063878Y-52133970D01*
X115094960Y-52031508D01*
X115101813Y-51961928D01*
X115115000Y-51828037D01*
X115115000Y-51828030D01*
X115121700Y-51760001D01*
X115115000Y-51691972D01*
X115115000Y-45365000D01*
X116061971Y-45365000D01*
X116130000Y-45371700D01*
X116198029Y-45365000D01*
X116198037Y-45365000D01*
X116401507Y-45344960D01*
X116662581Y-45265764D01*
X116903188Y-45137157D01*
X117114081Y-44964081D01*
X117157454Y-44911231D01*
X117901231Y-44167454D01*
X117954081Y-44124081D01*
X118127157Y-43913188D01*
X118255764Y-43672581D01*
X118334960Y-43411507D01*
X118355000Y-43208037D01*
X118355000Y-43208028D01*
X118361700Y-43140001D01*
X118355000Y-43071974D01*
X118355000Y-35938398D01*
X118361700Y-35870369D01*
X118355000Y-35802340D01*
X118355000Y-35802333D01*
X118348368Y-35735000D01*
X118585000Y-35735000D01*
X118585000Y-35978813D01*
X118517339Y-36201863D01*
X118474186Y-36640000D01*
X118517339Y-37078137D01*
X118645138Y-37499436D01*
X118852674Y-37887707D01*
X119131970Y-38228030D01*
X119472293Y-38507326D01*
X119860564Y-38714862D01*
X120281863Y-38842661D01*
X120610204Y-38875000D01*
X120829796Y-38875000D01*
X121158137Y-38842661D01*
X121381187Y-38775000D01*
X126008813Y-38775000D01*
X126231863Y-38842661D01*
X126560204Y-38875000D01*
X126779796Y-38875000D01*
X127108137Y-38842661D01*
X127529436Y-38714862D01*
X127917707Y-38507326D01*
X128258030Y-38228030D01*
X128537326Y-37887707D01*
X128744862Y-37499436D01*
X128872661Y-37078137D01*
X128915814Y-36640000D01*
X128872661Y-36201863D01*
X128744862Y-35780564D01*
X128537326Y-35392293D01*
X128258030Y-35051970D01*
X127917707Y-34772674D01*
X127529436Y-34565138D01*
X127108137Y-34437339D01*
X126779796Y-34405000D01*
X126560204Y-34405000D01*
X126231863Y-34437339D01*
X126008813Y-34505000D01*
X122855000Y-34505000D01*
X122855000Y-34482130D01*
X122865329Y-34377258D01*
X122855000Y-34272386D01*
X122855000Y-34272377D01*
X122824108Y-33958726D01*
X122702026Y-33556277D01*
X122503777Y-33185378D01*
X122236977Y-32860282D01*
X122155508Y-32793422D01*
X121526578Y-32164492D01*
X121459718Y-32083023D01*
X121134622Y-31816223D01*
X120763723Y-31617974D01*
X120361274Y-31495892D01*
X120047623Y-31465000D01*
X120047613Y-31465000D01*
X119942741Y-31454671D01*
X119837869Y-31465000D01*
X114594748Y-31465000D01*
X114281097Y-31495892D01*
X113878648Y-31617974D01*
X113708354Y-31708998D01*
X113647411Y-31715000D01*
X113647403Y-31715000D01*
X113476389Y-31731843D01*
X113404871Y-31644699D01*
X113178806Y-31459173D01*
X112920891Y-31321315D01*
X112641037Y-31236422D01*
X112350000Y-31207757D01*
X112058962Y-31236422D01*
X111779108Y-31321315D01*
X111765000Y-31328856D01*
X111765000Y-30514495D01*
X128695000Y-30514495D01*
X128695000Y-30905505D01*
X128771282Y-31289003D01*
X128920915Y-31650250D01*
X129138149Y-31975364D01*
X129414636Y-32251851D01*
X129739750Y-32469085D01*
X130100997Y-32618718D01*
X130484495Y-32695000D01*
X130875505Y-32695000D01*
X131259003Y-32618718D01*
X131620250Y-32469085D01*
X131945364Y-32251851D01*
X132221851Y-31975364D01*
X132439085Y-31650250D01*
X132588718Y-31289003D01*
X132665000Y-30905505D01*
X132665000Y-30514495D01*
X132588718Y-30130997D01*
X132439085Y-29769750D01*
X132221851Y-29444636D01*
X131945364Y-29168149D01*
X131620250Y-28950915D01*
X131259003Y-28801282D01*
X130875505Y-28725000D01*
X130484495Y-28725000D01*
X130100997Y-28801282D01*
X129739750Y-28950915D01*
X129414636Y-29168149D01*
X129138149Y-29444636D01*
X128920915Y-29769750D01*
X128771282Y-30130997D01*
X128695000Y-30514495D01*
X111765000Y-30514495D01*
X111765000Y-29482505D01*
X111862026Y-29300982D01*
X111984108Y-28898533D01*
X112025330Y-28480000D01*
X111984108Y-28061467D01*
X111862026Y-27659018D01*
X111860947Y-27657000D01*
X133523431Y-27657000D01*
X133762568Y-98103000D01*
X102356345Y-98103000D01*
X104154346Y-96305000D01*
X109358813Y-96305000D01*
X109581863Y-96372661D01*
X109910204Y-96405000D01*
X110129796Y-96405000D01*
X110458137Y-96372661D01*
X110681187Y-96305000D01*
X118795128Y-96305000D01*
X118900000Y-96315329D01*
X119004872Y-96305000D01*
X119004882Y-96305000D01*
X119318533Y-96274108D01*
X119720982Y-96152026D01*
X120091881Y-95953777D01*
X120416977Y-95686977D01*
X120483837Y-95605508D01*
X120734850Y-95354495D01*
X128775000Y-95354495D01*
X128775000Y-95745505D01*
X128851282Y-96129003D01*
X129000915Y-96490250D01*
X129218149Y-96815364D01*
X129494636Y-97091851D01*
X129819750Y-97309085D01*
X130180997Y-97458718D01*
X130564495Y-97535000D01*
X130955505Y-97535000D01*
X131339003Y-97458718D01*
X131700250Y-97309085D01*
X132025364Y-97091851D01*
X132301851Y-96815364D01*
X132519085Y-96490250D01*
X132668718Y-96129003D01*
X132745000Y-95745505D01*
X132745000Y-95354495D01*
X132668718Y-94970997D01*
X132519085Y-94609750D01*
X132301851Y-94284636D01*
X132025364Y-94008149D01*
X131700250Y-93790915D01*
X131339003Y-93641282D01*
X130955505Y-93565000D01*
X130564495Y-93565000D01*
X130180997Y-93641282D01*
X129819750Y-93790915D01*
X129494636Y-94008149D01*
X129218149Y-94284636D01*
X129000915Y-94609750D01*
X128851282Y-94970997D01*
X128775000Y-95354495D01*
X120734850Y-95354495D01*
X121424346Y-94665000D01*
X125305128Y-94665000D01*
X125410000Y-94675329D01*
X125514872Y-94665000D01*
X125514882Y-94665000D01*
X125828533Y-94634108D01*
X126230982Y-94512026D01*
X126601881Y-94313777D01*
X126926977Y-94046977D01*
X126993837Y-93965508D01*
X129415513Y-91543833D01*
X129496977Y-91476977D01*
X129563837Y-91395508D01*
X131284611Y-89674735D01*
X131687935Y-89594508D01*
X132173298Y-89393464D01*
X132610113Y-89101594D01*
X132981594Y-88730113D01*
X133273464Y-88293298D01*
X133474508Y-87807935D01*
X133577000Y-87292677D01*
X133577000Y-86767323D01*
X133474508Y-86252065D01*
X133273464Y-85766702D01*
X133045000Y-85424781D01*
X133045000Y-84744881D01*
X133055330Y-84640000D01*
X133045000Y-84535118D01*
X133045000Y-81623795D01*
X133132025Y-81460982D01*
X133254107Y-81058533D01*
X133295329Y-80640001D01*
X133254107Y-80221467D01*
X133132025Y-79819019D01*
X132933776Y-79448119D01*
X132666977Y-79123023D01*
X132341881Y-78856224D01*
X131970981Y-78657975D01*
X131568533Y-78535893D01*
X131149999Y-78494671D01*
X130731467Y-78535893D01*
X130329018Y-78657975D01*
X129958119Y-78856224D01*
X129714490Y-79056165D01*
X129474488Y-79296167D01*
X129393024Y-79363023D01*
X129326168Y-79444487D01*
X129326165Y-79444490D01*
X129126224Y-79688119D01*
X128927975Y-80059018D01*
X128805893Y-80461467D01*
X128764671Y-80880000D01*
X128775001Y-80984881D01*
X128775001Y-82574255D01*
X128499018Y-82657974D01*
X128128119Y-82856223D01*
X127803023Y-83123023D01*
X127736163Y-83204492D01*
X126544492Y-84396163D01*
X126463023Y-84463023D01*
X126196223Y-84788119D01*
X125997974Y-85159019D01*
X125875892Y-85561468D01*
X125845000Y-85875119D01*
X125845000Y-85875128D01*
X125834671Y-85980000D01*
X125845000Y-86084872D01*
X125845001Y-89075653D01*
X124525655Y-90395000D01*
X120644871Y-90395000D01*
X120539999Y-90384671D01*
X120435127Y-90395000D01*
X120435118Y-90395000D01*
X120121467Y-90425892D01*
X119719018Y-90547974D01*
X119348119Y-90746223D01*
X119348117Y-90746224D01*
X119348118Y-90746224D01*
X119104489Y-90946165D01*
X119104487Y-90946167D01*
X119023023Y-91013023D01*
X118956167Y-91094487D01*
X118015655Y-92035000D01*
X110681187Y-92035000D01*
X110458137Y-91967339D01*
X110129796Y-91935000D01*
X109910204Y-91935000D01*
X109581863Y-91967339D01*
X109358813Y-92035000D01*
X103931187Y-92035000D01*
X103708137Y-91967339D01*
X103379796Y-91935000D01*
X103160204Y-91935000D01*
X102831863Y-91967339D01*
X102410564Y-92095138D01*
X102022293Y-92302674D01*
X101681970Y-92581970D01*
X101402674Y-92922293D01*
X101292797Y-93127857D01*
X99235655Y-95185000D01*
X86294346Y-95185000D01*
X85854931Y-94745586D01*
X86029108Y-94838685D01*
X86308962Y-94923578D01*
X86600000Y-94952243D01*
X86891037Y-94923578D01*
X87170891Y-94838685D01*
X87428806Y-94700827D01*
X87654871Y-94515301D01*
X87840397Y-94289237D01*
X87978255Y-94031322D01*
X88004441Y-93945000D01*
X97301971Y-93945000D01*
X97370000Y-93951700D01*
X97438029Y-93945000D01*
X97438037Y-93945000D01*
X97641507Y-93924960D01*
X97902581Y-93845764D01*
X98143188Y-93717157D01*
X98354081Y-93544081D01*
X98397454Y-93491231D01*
X100201236Y-91687450D01*
X100254081Y-91644081D01*
X100310020Y-91575920D01*
X100427157Y-91433188D01*
X100555764Y-91192581D01*
X100634960Y-90931507D01*
X100637484Y-90905880D01*
X100655000Y-90728037D01*
X100655000Y-90728029D01*
X100661700Y-90660000D01*
X100655000Y-90591971D01*
X100655000Y-83335234D01*
X100661700Y-83267207D01*
X100655000Y-83199180D01*
X100655000Y-83199171D01*
X100634960Y-82995701D01*
X100555764Y-82734627D01*
X100427157Y-82494020D01*
X100321239Y-82364960D01*
X100297451Y-82335974D01*
X100297450Y-82335973D01*
X100254080Y-82283127D01*
X100201235Y-82239758D01*
X98830246Y-80868769D01*
X98786873Y-80815919D01*
X98575980Y-80642843D01*
X98335373Y-80514236D01*
X98074299Y-80435040D01*
X97915000Y-80419350D01*
X97915000Y-77713685D01*
X98298685Y-77330000D01*
X101031928Y-77330000D01*
X101031928Y-80530000D01*
X101044188Y-80654482D01*
X101080498Y-80774180D01*
X101139463Y-80884494D01*
X101218815Y-80981185D01*
X101315506Y-81060537D01*
X101425820Y-81119502D01*
X101545518Y-81155812D01*
X101670000Y-81168072D01*
X104870000Y-81168072D01*
X104994482Y-81155812D01*
X105114180Y-81119502D01*
X105216144Y-81065000D01*
X108073856Y-81065000D01*
X108175820Y-81119502D01*
X108295518Y-81155812D01*
X108420000Y-81168072D01*
X111620000Y-81168072D01*
X111744482Y-81155812D01*
X111864180Y-81119502D01*
X111974494Y-81060537D01*
X112071185Y-80981185D01*
X112150537Y-80884494D01*
X112209502Y-80774180D01*
X112245812Y-80654482D01*
X112258072Y-80530000D01*
X112258072Y-79711273D01*
X114139345Y-77830000D01*
X116804671Y-77830000D01*
X116815000Y-77934872D01*
X116815000Y-78625128D01*
X116804671Y-78730000D01*
X116815000Y-78834872D01*
X116815000Y-78834881D01*
X116845892Y-79148532D01*
X116967974Y-79550981D01*
X117166223Y-79921881D01*
X117433023Y-80246977D01*
X117514490Y-80313835D01*
X118405001Y-81204347D01*
X118405000Y-87634881D01*
X118435892Y-87948532D01*
X118557974Y-88350981D01*
X118701928Y-88620302D01*
X118701928Y-88730000D01*
X118714188Y-88854482D01*
X118750498Y-88974180D01*
X118809463Y-89084494D01*
X118888815Y-89181185D01*
X118985506Y-89260537D01*
X119095820Y-89319502D01*
X119215518Y-89355812D01*
X119340000Y-89368072D01*
X119449698Y-89368072D01*
X119719018Y-89512026D01*
X120121467Y-89634108D01*
X120540000Y-89675330D01*
X120958532Y-89634108D01*
X121360981Y-89512026D01*
X121630302Y-89368072D01*
X121740000Y-89368072D01*
X121864482Y-89355812D01*
X121984180Y-89319502D01*
X122094494Y-89260537D01*
X122191185Y-89181185D01*
X122270537Y-89084494D01*
X122329502Y-88974180D01*
X122365812Y-88854482D01*
X122378072Y-88730000D01*
X122378072Y-88620302D01*
X122522026Y-88350982D01*
X122644108Y-87948533D01*
X122675000Y-87634882D01*
X122675000Y-81574345D01*
X123164611Y-81084735D01*
X123567935Y-81004508D01*
X124053298Y-80803464D01*
X124490113Y-80511594D01*
X124861594Y-80140113D01*
X125153464Y-79703298D01*
X125354508Y-79217935D01*
X125434735Y-78814611D01*
X126257512Y-77991834D01*
X126338976Y-77924978D01*
X126405834Y-77843512D01*
X126405835Y-77843511D01*
X126605775Y-77599883D01*
X126608364Y-77595041D01*
X126804025Y-77228983D01*
X126870751Y-77009018D01*
X126926107Y-76826535D01*
X126929803Y-76789009D01*
X126967329Y-76408001D01*
X126956999Y-76303119D01*
X126956999Y-76152346D01*
X127890000Y-75219345D01*
X129764489Y-77093835D01*
X130008118Y-77293776D01*
X130379017Y-77492026D01*
X130781466Y-77614108D01*
X131200000Y-77655329D01*
X131618533Y-77614108D01*
X132020982Y-77492026D01*
X132391881Y-77293776D01*
X132716977Y-77026977D01*
X132983776Y-76701881D01*
X133182026Y-76330982D01*
X133304108Y-75928533D01*
X133345329Y-75510000D01*
X133304108Y-75091466D01*
X133182026Y-74689017D01*
X132983776Y-74318118D01*
X132783835Y-74074489D01*
X130025000Y-71315655D01*
X130025000Y-62689721D01*
X130004438Y-62586349D01*
X129994108Y-62481467D01*
X129963515Y-62380616D01*
X129942953Y-62277244D01*
X129902619Y-62179869D01*
X129872026Y-62079018D01*
X129822346Y-61986073D01*
X129782012Y-61888698D01*
X129723457Y-61801064D01*
X129673777Y-61708119D01*
X129606919Y-61626653D01*
X129548363Y-61539017D01*
X129473833Y-61464487D01*
X129406977Y-61383023D01*
X129325513Y-61316167D01*
X129250983Y-61241637D01*
X129163347Y-61183081D01*
X129081881Y-61116223D01*
X128988937Y-61066543D01*
X128901302Y-61007988D01*
X128803924Y-60967653D01*
X128710981Y-60917974D01*
X128610134Y-60887382D01*
X128512756Y-60847047D01*
X128409382Y-60826484D01*
X128308532Y-60795892D01*
X128203651Y-60785562D01*
X128100279Y-60765000D01*
X127994882Y-60765000D01*
X127890000Y-60754670D01*
X127785118Y-60765000D01*
X127679721Y-60765000D01*
X127576349Y-60785562D01*
X127471467Y-60795892D01*
X127370616Y-60826485D01*
X127267244Y-60847047D01*
X127169869Y-60887381D01*
X127069018Y-60917974D01*
X126976073Y-60967654D01*
X126878698Y-61007988D01*
X126791064Y-61066543D01*
X126698119Y-61116223D01*
X126616653Y-61183081D01*
X126529017Y-61241637D01*
X126454487Y-61316167D01*
X126373023Y-61383023D01*
X126306167Y-61464487D01*
X126231637Y-61539017D01*
X126173081Y-61626653D01*
X126106223Y-61708119D01*
X126056543Y-61801063D01*
X125997988Y-61888698D01*
X125957653Y-61986076D01*
X125907974Y-62079019D01*
X125877382Y-62179866D01*
X125837047Y-62277244D01*
X125816484Y-62380618D01*
X125785892Y-62481468D01*
X125775562Y-62586348D01*
X125755000Y-62689721D01*
X125755000Y-62795119D01*
X125755001Y-71315653D01*
X123937654Y-73133001D01*
X121616873Y-73133001D01*
X121511999Y-73122672D01*
X121407124Y-73133001D01*
X121407117Y-73133001D01*
X121131000Y-73160196D01*
X121093465Y-73163893D01*
X120996890Y-73193189D01*
X120691017Y-73285975D01*
X120320118Y-73484224D01*
X120248337Y-73543133D01*
X120076488Y-73684166D01*
X120076486Y-73684168D01*
X119995022Y-73751024D01*
X119928166Y-73832488D01*
X117514487Y-76246168D01*
X117433024Y-76313023D01*
X117366168Y-76394487D01*
X117366165Y-76394490D01*
X117232951Y-76556812D01*
X117166224Y-76638119D01*
X116967974Y-77009018D01*
X116845892Y-77411467D01*
X116815000Y-77725118D01*
X116815000Y-77725128D01*
X116804671Y-77830000D01*
X114139345Y-77830000D01*
X121705513Y-70263833D01*
X121786977Y-70196977D01*
X122053777Y-69871881D01*
X122252026Y-69500982D01*
X122374108Y-69098533D01*
X122405000Y-68784882D01*
X122405000Y-68784873D01*
X122415329Y-68680001D01*
X122405000Y-68575129D01*
X122405000Y-63762241D01*
X122503777Y-63641881D01*
X122702026Y-63270982D01*
X122824108Y-62868533D01*
X122855000Y-62554882D01*
X122855000Y-62554873D01*
X122865329Y-62450001D01*
X122855000Y-62345129D01*
X122855000Y-54015000D01*
X124723856Y-54015000D01*
X124825820Y-54069502D01*
X124945518Y-54105812D01*
X125070000Y-54118072D01*
X128270000Y-54118072D01*
X128394482Y-54105812D01*
X128514180Y-54069502D01*
X128624494Y-54010537D01*
X128721185Y-53931185D01*
X128800537Y-53834494D01*
X128859502Y-53724180D01*
X128895812Y-53604482D01*
X128908072Y-53480000D01*
X128908072Y-50280000D01*
X128895812Y-50155518D01*
X128859502Y-50035820D01*
X128800537Y-49925506D01*
X128721185Y-49828815D01*
X128624494Y-49749463D01*
X128514180Y-49690498D01*
X128394482Y-49654188D01*
X128270000Y-49641928D01*
X125070000Y-49641928D01*
X124945518Y-49654188D01*
X124825820Y-49690498D01*
X124723856Y-49745000D01*
X122666144Y-49745000D01*
X122564180Y-49690498D01*
X122444482Y-49654188D01*
X122320000Y-49641928D01*
X119120000Y-49641928D01*
X118995518Y-49654188D01*
X118875820Y-49690498D01*
X118765506Y-49749463D01*
X118668815Y-49828815D01*
X118589463Y-49925506D01*
X118530498Y-50035820D01*
X118494188Y-50155518D01*
X118481928Y-50280000D01*
X118481928Y-53480000D01*
X118494188Y-53604482D01*
X118530498Y-53724180D01*
X118585000Y-53826145D01*
X118585001Y-61578881D01*
X118553081Y-61626653D01*
X118486223Y-61708119D01*
X118436543Y-61801063D01*
X118377988Y-61888698D01*
X118337653Y-61986076D01*
X118287974Y-62079019D01*
X118257382Y-62179866D01*
X118217047Y-62277244D01*
X118196484Y-62380618D01*
X118165892Y-62481468D01*
X118155562Y-62586348D01*
X118135000Y-62689721D01*
X118135000Y-62795128D01*
X118124671Y-62900000D01*
X118135000Y-63004872D01*
X118135001Y-67795653D01*
X109238727Y-76691928D01*
X108420000Y-76691928D01*
X108295518Y-76704188D01*
X108175820Y-76740498D01*
X108073856Y-76795000D01*
X105216144Y-76795000D01*
X105114180Y-76740498D01*
X104994482Y-76704188D01*
X104870000Y-76691928D01*
X101670000Y-76691928D01*
X101545518Y-76704188D01*
X101425820Y-76740498D01*
X101315506Y-76799463D01*
X101218815Y-76878815D01*
X101139463Y-76975506D01*
X101080498Y-77085820D01*
X101044188Y-77205518D01*
X101031928Y-77330000D01*
X98298685Y-77330000D01*
X99821236Y-75807450D01*
X99874081Y-75764081D01*
X99925188Y-75701808D01*
X100047157Y-75553188D01*
X100175764Y-75312581D01*
X100254960Y-75051507D01*
X100263109Y-74968767D01*
X100275000Y-74848037D01*
X100275000Y-74848029D01*
X100281700Y-74780000D01*
X100275000Y-74711971D01*
X100275000Y-68240000D01*
X103861928Y-68240000D01*
X103861928Y-70640000D01*
X103874188Y-70764482D01*
X103910498Y-70884180D01*
X103969463Y-70994494D01*
X104048815Y-71091185D01*
X104145506Y-71170537D01*
X104255820Y-71229502D01*
X104375518Y-71265812D01*
X104500000Y-71278072D01*
X106900000Y-71278072D01*
X107024482Y-71265812D01*
X107144180Y-71229502D01*
X107254494Y-71170537D01*
X107351185Y-71091185D01*
X107430537Y-70994494D01*
X107489502Y-70884180D01*
X107525812Y-70764482D01*
X107538072Y-70640000D01*
X107538072Y-68240000D01*
X107525812Y-68115518D01*
X107489502Y-67995820D01*
X107430537Y-67885506D01*
X107351185Y-67788815D01*
X107254494Y-67709463D01*
X107144180Y-67650498D01*
X107024482Y-67614188D01*
X106900000Y-67601928D01*
X104500000Y-67601928D01*
X104375518Y-67614188D01*
X104255820Y-67650498D01*
X104145506Y-67709463D01*
X104048815Y-67788815D01*
X103969463Y-67885506D01*
X103910498Y-67995820D01*
X103874188Y-68115518D01*
X103861928Y-68240000D01*
X100275000Y-68240000D01*
X100275000Y-63130775D01*
X100416812Y-63247157D01*
X100657419Y-63375764D01*
X100918493Y-63454960D01*
X101121963Y-63475000D01*
X101121964Y-63475000D01*
X101190000Y-63481701D01*
X101258037Y-63475000D01*
X102776315Y-63475000D01*
X103865000Y-64563686D01*
X103865000Y-64620732D01*
X103935518Y-64975250D01*
X104073844Y-65309199D01*
X104274662Y-65609744D01*
X104530256Y-65865338D01*
X104830801Y-66066156D01*
X105164750Y-66204482D01*
X105519268Y-66275000D01*
X105880732Y-66275000D01*
X106235250Y-66204482D01*
X106569199Y-66066156D01*
X106869744Y-65865338D01*
X107125338Y-65609744D01*
X107326156Y-65309199D01*
X107464482Y-64975250D01*
X107535000Y-64620732D01*
X107535000Y-64259268D01*
X107464482Y-63904750D01*
X107326156Y-63570801D01*
X107125338Y-63270256D01*
X106869744Y-63014662D01*
X106569199Y-62813844D01*
X106235250Y-62675518D01*
X105880732Y-62605000D01*
X105823686Y-62605000D01*
X104377454Y-61158769D01*
X104334081Y-61105919D01*
X104123188Y-60932843D01*
X103882581Y-60804236D01*
X103621507Y-60725040D01*
X103418037Y-60705000D01*
X103418029Y-60705000D01*
X103350000Y-60698300D01*
X103281971Y-60705000D01*
X102575000Y-60705000D01*
X102575000Y-53877159D01*
X102575812Y-53874482D01*
X102588072Y-53750000D01*
X102588072Y-52230000D01*
X102575812Y-52105518D01*
X102539502Y-51985820D01*
X102480537Y-51875506D01*
X102401185Y-51778815D01*
X102304494Y-51699463D01*
X102194180Y-51640498D01*
X102074482Y-51604188D01*
X101986533Y-51595526D01*
X102079261Y-51533567D01*
X102273567Y-51339261D01*
X102426233Y-51110780D01*
X102531391Y-50856907D01*
X102585000Y-50587396D01*
X102585000Y-50312604D01*
X102531391Y-50043093D01*
X102426233Y-49789220D01*
X102273567Y-49560739D01*
X102079261Y-49366433D01*
X101850780Y-49213767D01*
X101769260Y-49180000D01*
X101850780Y-49146233D01*
X102079261Y-48993567D01*
X102273567Y-48799261D01*
X102426233Y-48570780D01*
X102531391Y-48316907D01*
X102585000Y-48047396D01*
X102585000Y-47772604D01*
X102575000Y-47722331D01*
X102575000Y-43998029D01*
X102581700Y-43930000D01*
X102575000Y-43861971D01*
X102575000Y-43861963D01*
X102554960Y-43658493D01*
X102475764Y-43397419D01*
X102352283Y-43166402D01*
X105372276Y-40146410D01*
X105461101Y-40098932D01*
X105679608Y-39919608D01*
X105858932Y-39701101D01*
X105992182Y-39451808D01*
X106074236Y-39181309D01*
X106101943Y-38900000D01*
X106074236Y-38618691D01*
X105992182Y-38348192D01*
X105858932Y-38098899D01*
X105679608Y-37880392D01*
X105461101Y-37701068D01*
X105211808Y-37567818D01*
X104941309Y-37485764D01*
X104730492Y-37465000D01*
X104589508Y-37465000D01*
X104378691Y-37485764D01*
X104108192Y-37567818D01*
X103858899Y-37701068D01*
X103640392Y-37880392D01*
X103461068Y-38098899D01*
X103413590Y-38187724D01*
X99836315Y-41765000D01*
X92327688Y-41765000D01*
X92231309Y-41735764D01*
X92020492Y-41715000D01*
X91879508Y-41715000D01*
X91668691Y-41735764D01*
X91398192Y-41817818D01*
X91148899Y-41951068D01*
X90930392Y-42130392D01*
X90751068Y-42348899D01*
X90617818Y-42598192D01*
X90535764Y-42868691D01*
X90508057Y-43150000D01*
X90535764Y-43431309D01*
X90617818Y-43701808D01*
X90618088Y-43702314D01*
X90624236Y-43722580D01*
X90752844Y-43963188D01*
X90925919Y-44174081D01*
X91136812Y-44347156D01*
X91377420Y-44475764D01*
X91397686Y-44481912D01*
X91398192Y-44482182D01*
X91668691Y-44564236D01*
X91879508Y-44585000D01*
X92020492Y-44585000D01*
X92231309Y-44564236D01*
X92327688Y-44535000D01*
X99805001Y-44535000D01*
X99805000Y-47722330D01*
X99795000Y-47772604D01*
X99795000Y-48047396D01*
X99848609Y-48316907D01*
X99953767Y-48570780D01*
X100106433Y-48799261D01*
X100300739Y-48993567D01*
X100407646Y-49065000D01*
X99483686Y-49065000D01*
X97617024Y-47198339D01*
X97474637Y-46985241D01*
X97274759Y-46785363D01*
X97039727Y-46628320D01*
X96778574Y-46520147D01*
X96501335Y-46465000D01*
X96218665Y-46465000D01*
X95941426Y-46520147D01*
X95680273Y-46628320D01*
X95445241Y-46785363D01*
X95245363Y-46985241D01*
X95088320Y-47220273D01*
X94980147Y-47481426D01*
X94925000Y-47758665D01*
X94925000Y-48041335D01*
X94980147Y-48318574D01*
X95088320Y-48579727D01*
X95245363Y-48814759D01*
X95445241Y-49014637D01*
X95658339Y-49157024D01*
X97882550Y-51381236D01*
X97925919Y-51434081D01*
X97978764Y-51477450D01*
X97978766Y-51477452D01*
X98126020Y-51598300D01*
X98136812Y-51607157D01*
X98188903Y-51635000D01*
X87715000Y-51635000D01*
X87715000Y-49430319D01*
X87722911Y-49349999D01*
X87713199Y-49251391D01*
X87691343Y-49029484D01*
X87597852Y-48721285D01*
X87446031Y-48437248D01*
X87241714Y-48188286D01*
X87179319Y-48137080D01*
X84669323Y-45627085D01*
X84482752Y-45473970D01*
X84198714Y-45322148D01*
X83890516Y-45228658D01*
X83570000Y-45197089D01*
X83249484Y-45228658D01*
X82941286Y-45322148D01*
X82657248Y-45473970D01*
X82408287Y-45678287D01*
X82203970Y-45927248D01*
X82052148Y-46211286D01*
X81958658Y-46519484D01*
X81927089Y-46840000D01*
X81958658Y-47160516D01*
X82052148Y-47468714D01*
X82203970Y-47752752D01*
X82357085Y-47939323D01*
X84445001Y-50027240D01*
X84445000Y-52286377D01*
X84347818Y-52468192D01*
X84265764Y-52738691D01*
X84238057Y-53020000D01*
X84265764Y-53301309D01*
X84347818Y-53571808D01*
X84481068Y-53821101D01*
X84660392Y-54039608D01*
X84878899Y-54218932D01*
X85011858Y-54290000D01*
X84878899Y-54361068D01*
X84660392Y-54540392D01*
X84481068Y-54758899D01*
X84347818Y-55008192D01*
X84265764Y-55278691D01*
X84238057Y-55560000D01*
X84265764Y-55841309D01*
X84347818Y-56111808D01*
X84481068Y-56361101D01*
X84660392Y-56579608D01*
X84878899Y-56758932D01*
X85011858Y-56830000D01*
X84878899Y-56901068D01*
X84660392Y-57080392D01*
X84481068Y-57298899D01*
X84347818Y-57548192D01*
X84265764Y-57818691D01*
X84238057Y-58100000D01*
X84265764Y-58381309D01*
X84347818Y-58651808D01*
X84481068Y-58901101D01*
X84660392Y-59119608D01*
X84878899Y-59298932D01*
X85011858Y-59370000D01*
X84878899Y-59441068D01*
X84660392Y-59620392D01*
X84481068Y-59838899D01*
X84347818Y-60088192D01*
X84265764Y-60358691D01*
X84238057Y-60640000D01*
X84265764Y-60921309D01*
X84347818Y-61191808D01*
X84481068Y-61441101D01*
X84660392Y-61659608D01*
X84878899Y-61838932D01*
X85128192Y-61972182D01*
X85398691Y-62054236D01*
X85609508Y-62075000D01*
X86550492Y-62075000D01*
X86761309Y-62054236D01*
X86857688Y-62025000D01*
X91647978Y-62025000D01*
X91749508Y-62035000D01*
X91890492Y-62035000D01*
X92101309Y-62014236D01*
X92197688Y-61985000D01*
X95982312Y-61985000D01*
X96078691Y-62014236D01*
X96289508Y-62035000D01*
X96430492Y-62035000D01*
X96641309Y-62014236D01*
X96911808Y-61932182D01*
X97161101Y-61798932D01*
X97379608Y-61619608D01*
X97505000Y-61466817D01*
X97505000Y-63790615D01*
X97454637Y-63715241D01*
X97254759Y-63515363D01*
X97019727Y-63358320D01*
X96758574Y-63250147D01*
X96481335Y-63195000D01*
X96198665Y-63195000D01*
X95921426Y-63250147D01*
X95660273Y-63358320D01*
X95425241Y-63515363D01*
X95225363Y-63715241D01*
X95082977Y-63928337D01*
X92116315Y-66895000D01*
X87505000Y-66895000D01*
X87505000Y-66048026D01*
X87511700Y-65979999D01*
X87505000Y-65911972D01*
X87505000Y-65911963D01*
X87484960Y-65708493D01*
X87405764Y-65447419D01*
X87277157Y-65206812D01*
X87104080Y-64995919D01*
X87051235Y-64952550D01*
X86718685Y-64620000D01*
X90368057Y-64620000D01*
X90395764Y-64901309D01*
X90477818Y-65171808D01*
X90611068Y-65421101D01*
X90790392Y-65639608D01*
X91008899Y-65818932D01*
X91258192Y-65952182D01*
X91528691Y-66034236D01*
X91739508Y-66055000D01*
X91880492Y-66055000D01*
X92091309Y-66034236D01*
X92361808Y-65952182D01*
X92611101Y-65818932D01*
X92829608Y-65639608D01*
X93008932Y-65421101D01*
X93142182Y-65171808D01*
X93224236Y-64901309D01*
X93251943Y-64620000D01*
X93224236Y-64338691D01*
X93142182Y-64068192D01*
X93008932Y-63818899D01*
X92829608Y-63600392D01*
X92611101Y-63421068D01*
X92361808Y-63287818D01*
X92091309Y-63205764D01*
X91880492Y-63185000D01*
X91739508Y-63185000D01*
X91528691Y-63205764D01*
X91258192Y-63287818D01*
X91008899Y-63421068D01*
X90790392Y-63600392D01*
X90611068Y-63818899D01*
X90477818Y-64068192D01*
X90395764Y-64338691D01*
X90368057Y-64620000D01*
X86718685Y-64620000D01*
X84225000Y-62126315D01*
X84225000Y-54768029D01*
X84231700Y-54700000D01*
X84225000Y-54631971D01*
X84225000Y-54631963D01*
X84204960Y-54428493D01*
X84125764Y-54167419D01*
X83997157Y-53926812D01*
X83968528Y-53891928D01*
X83867452Y-53768766D01*
X83867445Y-53768759D01*
X83824080Y-53715919D01*
X83771241Y-53672555D01*
X82187452Y-52088767D01*
X82144081Y-52035919D01*
X81933188Y-51862843D01*
X81692581Y-51734236D01*
X81431507Y-51655040D01*
X81228037Y-51635000D01*
X81228029Y-51635000D01*
X81160000Y-51628300D01*
X81091971Y-51635000D01*
X79955000Y-51635000D01*
X79955000Y-47232699D01*
X80005000Y-46981335D01*
X80005000Y-46698665D01*
X79949853Y-46421426D01*
X79875000Y-46240715D01*
X79875000Y-40185000D01*
X82146315Y-40185000D01*
X90562977Y-48601663D01*
X90705363Y-48814759D01*
X90905241Y-49014637D01*
X91140273Y-49171680D01*
X91401426Y-49279853D01*
X91678665Y-49335000D01*
X91961335Y-49335000D01*
X92238574Y-49279853D01*
X92499727Y-49171680D01*
X92734759Y-49014637D01*
X92934637Y-48814759D01*
X93091680Y-48579727D01*
X93199853Y-48318574D01*
X93255000Y-48041335D01*
X93255000Y-47758665D01*
X93199853Y-47481426D01*
X93091680Y-47220273D01*
X92934637Y-46985241D01*
X92734759Y-46785363D01*
X92521663Y-46642977D01*
X83747454Y-37868769D01*
X83704081Y-37815919D01*
X83562834Y-37700000D01*
X86911928Y-37700000D01*
X86911928Y-39900000D01*
X86924188Y-40024482D01*
X86960498Y-40144180D01*
X87019463Y-40254494D01*
X87098815Y-40351185D01*
X87195506Y-40430537D01*
X87305820Y-40489502D01*
X87425518Y-40525812D01*
X87550000Y-40538072D01*
X89750000Y-40538072D01*
X89874482Y-40525812D01*
X89994180Y-40489502D01*
X90104494Y-40430537D01*
X90201185Y-40351185D01*
X90255501Y-40285000D01*
X91567301Y-40285000D01*
X91818665Y-40335000D01*
X92101335Y-40335000D01*
X92378574Y-40279853D01*
X92639727Y-40171680D01*
X92874759Y-40014637D01*
X93074637Y-39814759D01*
X93231680Y-39579727D01*
X93339853Y-39318574D01*
X93395000Y-39041335D01*
X93395000Y-38758665D01*
X93339853Y-38481426D01*
X93231680Y-38220273D01*
X93074637Y-37985241D01*
X92874759Y-37785363D01*
X92639727Y-37628320D01*
X92378574Y-37520147D01*
X92101335Y-37465000D01*
X91818665Y-37465000D01*
X91567301Y-37515000D01*
X90357454Y-37515000D01*
X90339502Y-37455820D01*
X90280537Y-37345506D01*
X90201185Y-37248815D01*
X90104494Y-37169463D01*
X89994180Y-37110498D01*
X89874482Y-37074188D01*
X89750000Y-37061928D01*
X87550000Y-37061928D01*
X87425518Y-37074188D01*
X87305820Y-37110498D01*
X87195506Y-37169463D01*
X87098815Y-37248815D01*
X87019463Y-37345506D01*
X86960498Y-37455820D01*
X86924188Y-37575518D01*
X86911928Y-37700000D01*
X83562834Y-37700000D01*
X83493188Y-37642843D01*
X83252581Y-37514236D01*
X82991507Y-37435040D01*
X82788037Y-37415000D01*
X82788029Y-37415000D01*
X82720000Y-37408300D01*
X82651971Y-37415000D01*
X79537268Y-37415000D01*
X79458578Y-37350421D01*
X79157168Y-37189314D01*
X78830119Y-37090105D01*
X78575225Y-37065000D01*
X78404775Y-37065000D01*
X78149881Y-37090105D01*
X77822832Y-37189314D01*
X77521422Y-37350421D01*
X77257234Y-37567234D01*
X77040421Y-37831422D01*
X76879314Y-38132832D01*
X76780105Y-38459881D01*
X76746606Y-38800000D01*
X76780105Y-39140119D01*
X76879314Y-39467168D01*
X77040421Y-39768578D01*
X77105000Y-39847268D01*
X77105001Y-46691961D01*
X77098300Y-46760000D01*
X77125040Y-47031507D01*
X77182960Y-47222442D01*
X77185000Y-47232699D01*
X77185001Y-50555000D01*
X71637454Y-50555000D01*
X71619502Y-50495820D01*
X71560537Y-50385506D01*
X71481185Y-50288815D01*
X71384494Y-50209463D01*
X71274180Y-50150498D01*
X71154482Y-50114188D01*
X71030000Y-50101928D01*
X68630000Y-50101928D01*
X68505518Y-50114188D01*
X68385820Y-50150498D01*
X68275506Y-50209463D01*
X68178815Y-50288815D01*
X68099463Y-50385506D01*
X68040498Y-50495820D01*
X68004188Y-50615518D01*
X67991928Y-50740000D01*
X67991928Y-51465833D01*
X67592762Y-51865000D01*
X60239678Y-51865000D01*
X59999484Y-51888657D01*
X59691285Y-51982148D01*
X59415000Y-52129825D01*
X59415000Y-50985000D01*
X62217411Y-50985000D01*
X62310000Y-50994119D01*
X62402589Y-50985000D01*
X62402597Y-50985000D01*
X62679524Y-50957725D01*
X63034848Y-50849939D01*
X63362317Y-50674903D01*
X63649345Y-50439345D01*
X63708374Y-50367418D01*
X66973224Y-47102569D01*
X68394489Y-48523835D01*
X68638118Y-48723776D01*
X69009017Y-48922025D01*
X69411466Y-49044107D01*
X69829999Y-49085329D01*
X70248533Y-49044107D01*
X70650981Y-48922025D01*
X71021881Y-48723776D01*
X71346977Y-48456977D01*
X71613776Y-48131881D01*
X71812025Y-47760981D01*
X71934107Y-47358533D01*
X71975329Y-46939999D01*
X71934107Y-46521466D01*
X71812025Y-46119017D01*
X71613776Y-45748118D01*
X71413835Y-45504489D01*
X69285000Y-43375655D01*
X69285000Y-42054345D01*
X71433836Y-39905510D01*
X71633776Y-39661882D01*
X71832026Y-39290982D01*
X71954108Y-38888534D01*
X71995329Y-38470000D01*
X71954108Y-38051467D01*
X71832026Y-37649018D01*
X71633776Y-37278119D01*
X71366977Y-36953023D01*
X71041881Y-36686224D01*
X70670982Y-36487974D01*
X70268533Y-36365892D01*
X69850000Y-36324671D01*
X69431466Y-36365892D01*
X69029018Y-36487974D01*
X68658118Y-36686224D01*
X68414490Y-36886164D01*
X65714492Y-39586163D01*
X65633023Y-39653023D01*
X65366223Y-39978119D01*
X65167974Y-40349019D01*
X65045892Y-40751468D01*
X65015000Y-41065119D01*
X65015000Y-41065128D01*
X65004671Y-41170000D01*
X65015000Y-41274872D01*
X65015000Y-43729207D01*
X61529208Y-47215000D01*
X51819131Y-47215000D01*
X52096977Y-46986977D01*
X52363777Y-46661881D01*
X52562026Y-46290982D01*
X52684108Y-45888533D01*
X52725330Y-45470000D01*
X52684108Y-45051467D01*
X52562026Y-44649018D01*
X52363777Y-44278119D01*
X52096977Y-43953023D01*
X51771881Y-43686223D01*
X51400982Y-43487974D01*
X50998533Y-43365892D01*
X50684882Y-43335000D01*
X47744346Y-43335000D01*
X47485000Y-43075655D01*
X47485000Y-41711187D01*
X47552661Y-41488137D01*
X47595814Y-41050000D01*
X47552661Y-40611863D01*
X47485000Y-40388813D01*
X47485000Y-35391187D01*
X47552661Y-35168137D01*
X47595814Y-34730000D01*
X47552661Y-34291863D01*
X47424862Y-33870564D01*
X47217326Y-33482293D01*
X46938030Y-33141970D01*
X46597707Y-32862674D01*
X46209436Y-32655138D01*
X45788137Y-32527339D01*
X45459796Y-32495000D01*
X45240204Y-32495000D01*
X44911863Y-32527339D01*
X44490564Y-32655138D01*
X44102293Y-32862674D01*
X43761970Y-33141970D01*
X43482674Y-33482293D01*
X43275138Y-33870564D01*
X43147339Y-34291863D01*
X43104186Y-34730000D01*
X43147339Y-35168137D01*
X43215000Y-35391187D01*
X43215001Y-38915000D01*
X41676707Y-38915000D01*
X41640113Y-38878406D01*
X41203298Y-38586536D01*
X40717935Y-38385492D01*
X40202677Y-38283000D01*
X39677323Y-38283000D01*
X39162065Y-38385492D01*
X38676702Y-38586536D01*
X38239887Y-38878406D01*
X37868406Y-39249887D01*
X37576536Y-39686702D01*
X37375492Y-40172065D01*
X37273000Y-40687323D01*
X37273000Y-41212677D01*
X37375492Y-41727935D01*
X37576536Y-42213298D01*
X37805000Y-42555220D01*
X37805001Y-45821787D01*
X37695892Y-46181467D01*
X37665000Y-46495118D01*
X37665000Y-46495128D01*
X37654671Y-46600000D01*
X37665000Y-46704872D01*
X37665000Y-48534881D01*
X37695892Y-48848532D01*
X37817974Y-49250981D01*
X38016223Y-49621881D01*
X38283023Y-49946977D01*
X38608119Y-50213777D01*
X38979018Y-50412026D01*
X39381467Y-50534108D01*
X39800000Y-50575330D01*
X40218532Y-50534108D01*
X40620981Y-50412026D01*
X40991881Y-50213777D01*
X41316977Y-49946977D01*
X41583777Y-49621881D01*
X41782026Y-49250982D01*
X41904108Y-48848533D01*
X41935000Y-48534882D01*
X41935000Y-47484345D01*
X43893081Y-45526265D01*
X43914487Y-45543832D01*
X45276167Y-46905513D01*
X45343023Y-46986977D01*
X45668119Y-47253777D01*
X46039018Y-47452026D01*
X46441467Y-47574108D01*
X46755118Y-47605000D01*
X46755127Y-47605000D01*
X46859999Y-47615329D01*
X46964871Y-47605000D01*
X49972265Y-47605000D01*
X49854523Y-47701628D01*
X49854521Y-47701630D01*
X49782599Y-47760655D01*
X49723574Y-47832577D01*
X45931152Y-51625000D01*
X40802505Y-51625000D01*
X40620981Y-51527974D01*
X40218532Y-51405892D01*
X39800000Y-51364670D01*
X39381467Y-51405892D01*
X38979018Y-51527974D01*
X38608119Y-51726223D01*
X38283023Y-51993023D01*
X38016223Y-52318119D01*
X37817974Y-52689019D01*
X37695892Y-53091468D01*
X37665000Y-53405119D01*
X37665000Y-58875125D01*
X37654671Y-58980000D01*
X37665000Y-59084875D01*
X37665000Y-59925124D01*
X37654671Y-60030000D01*
X37665000Y-60134876D01*
X37665001Y-70975109D01*
X37665000Y-70975119D01*
X37665000Y-70975128D01*
X37654671Y-71080000D01*
X37665000Y-71184872D01*
X37665001Y-78445118D01*
X37654671Y-78550000D01*
X37695893Y-78968533D01*
X37817975Y-79370982D01*
X38016224Y-79741881D01*
X38216165Y-79985510D01*
X38216168Y-79985513D01*
X38283024Y-80066977D01*
X38364487Y-80133832D01*
X41795000Y-83564346D01*
X41795001Y-89075109D01*
X41795000Y-89075119D01*
X41795000Y-90489341D01*
X41784671Y-90594213D01*
X41795000Y-90699085D01*
X41795000Y-90699095D01*
X41825892Y-91012746D01*
X41924594Y-91338119D01*
X41947975Y-91415195D01*
X42146224Y-91786094D01*
X42346165Y-92029723D01*
X42346168Y-92029726D01*
X42413024Y-92111190D01*
X42494487Y-92178045D01*
X44921954Y-94605513D01*
X44988810Y-94686977D01*
X45070274Y-94753833D01*
X45070276Y-94753835D01*
X45173666Y-94838685D01*
X45313906Y-94953777D01*
X45486555Y-95046060D01*
X45684804Y-95152026D01*
X46087253Y-95274108D01*
X46124788Y-95277805D01*
X46400905Y-95305000D01*
X46400912Y-95305000D01*
X46505787Y-95315329D01*
X46610661Y-95305000D01*
X80254882Y-95305000D01*
X80568533Y-95274108D01*
X80970982Y-95152026D01*
X81341881Y-94953777D01*
X81362636Y-94936744D01*
X81520000Y-94952243D01*
X81811037Y-94923578D01*
X81870529Y-94905531D01*
X81857975Y-94929018D01*
X81735893Y-95331467D01*
X81694671Y-95750000D01*
X81735893Y-96168533D01*
X81857975Y-96570982D01*
X82056224Y-96941881D01*
X82256165Y-97185510D01*
X83173654Y-98103000D01*
X37057000Y-98103000D01*
X37057000Y-95224495D01*
X38215000Y-95224495D01*
X38215000Y-95615505D01*
X38291282Y-95999003D01*
X38440915Y-96360250D01*
X38658149Y-96685364D01*
X38934636Y-96961851D01*
X39259750Y-97179085D01*
X39620997Y-97328718D01*
X40004495Y-97405000D01*
X40395505Y-97405000D01*
X40779003Y-97328718D01*
X41140250Y-97179085D01*
X41465364Y-96961851D01*
X41741851Y-96685364D01*
X41959085Y-96360250D01*
X42108718Y-95999003D01*
X42185000Y-95615505D01*
X42185000Y-95224495D01*
X42108718Y-94840997D01*
X41959085Y-94479750D01*
X41741851Y-94154636D01*
X41465364Y-93878149D01*
X41140250Y-93660915D01*
X40779003Y-93511282D01*
X40395505Y-93435000D01*
X40004495Y-93435000D01*
X39620997Y-93511282D01*
X39259750Y-93660915D01*
X38934636Y-93878149D01*
X38658149Y-94154636D01*
X38440915Y-94479750D01*
X38291282Y-94840997D01*
X38215000Y-95224495D01*
X37057000Y-95224495D01*
X37057000Y-30514495D01*
X38215000Y-30514495D01*
X38215000Y-30905505D01*
X38291282Y-31289003D01*
X38440915Y-31650250D01*
X38658149Y-31975364D01*
X38934636Y-32251851D01*
X39259750Y-32469085D01*
X39620997Y-32618718D01*
X40004495Y-32695000D01*
X40395505Y-32695000D01*
X40779003Y-32618718D01*
X41140250Y-32469085D01*
X41465364Y-32251851D01*
X41741851Y-31975364D01*
X41959085Y-31650250D01*
X42108718Y-31289003D01*
X42185000Y-30905505D01*
X42185000Y-30514495D01*
X42108718Y-30130997D01*
X41959085Y-29769750D01*
X41741851Y-29444636D01*
X41465364Y-29168149D01*
X41140250Y-28950915D01*
X40779003Y-28801282D01*
X40395505Y-28725000D01*
X40004495Y-28725000D01*
X39620997Y-28801282D01*
X39259750Y-28950915D01*
X38934636Y-29168149D01*
X38658149Y-29444636D01*
X38440915Y-29769750D01*
X38291282Y-30130997D01*
X38215000Y-30514495D01*
X37057000Y-30514495D01*
X37057000Y-27657000D01*
X99953655Y-27657000D01*
X96275655Y-31335000D01*
G36*
X97885001Y-90086313D02*
G01*
X96796315Y-91175000D01*
X88004441Y-91175000D01*
X87978255Y-91088678D01*
X87840397Y-90830763D01*
X87654871Y-90604699D01*
X87472462Y-90455000D01*
X95725030Y-90455000D01*
X95857420Y-90525764D01*
X96118493Y-90604960D01*
X96390000Y-90631700D01*
X96661507Y-90604960D01*
X96922580Y-90525764D01*
X97163188Y-90397156D01*
X97321233Y-90267452D01*
X97491231Y-90097454D01*
X97544081Y-90054081D01*
X97717157Y-89843188D01*
X97845764Y-89602581D01*
X97885001Y-89473235D01*
X97885001Y-90086313D01*
X97885001Y-90086313D01*
G37*
X97885001Y-90086313D02*
X96796315Y-91175000D01*
X88004441Y-91175000D01*
X87978255Y-91088678D01*
X87840397Y-90830763D01*
X87654871Y-90604699D01*
X87472462Y-90455000D01*
X95725030Y-90455000D01*
X95857420Y-90525764D01*
X96118493Y-90604960D01*
X96390000Y-90631700D01*
X96661507Y-90604960D01*
X96922580Y-90525764D01*
X97163188Y-90397156D01*
X97321233Y-90267452D01*
X97491231Y-90097454D01*
X97544081Y-90054081D01*
X97717157Y-89843188D01*
X97845764Y-89602581D01*
X97885001Y-89473235D01*
X97885001Y-90086313D01*
G36*
X80465130Y-90604699D02*
G01*
X80279604Y-90830763D01*
X80170437Y-91035000D01*
X75243686Y-91035000D01*
X75823686Y-90455000D01*
X80647539Y-90455000D01*
X80465130Y-90604699D01*
X80465130Y-90604699D01*
G37*
X80465130Y-90604699D02*
X80279604Y-90830763D01*
X80170437Y-91035000D01*
X75243686Y-91035000D01*
X75823686Y-90455000D01*
X80647539Y-90455000D01*
X80465130Y-90604699D01*
G36*
X56145001Y-51962421D02*
G01*
X56140000Y-51961928D01*
X55802057Y-51961928D01*
X55560516Y-51888658D01*
X55240000Y-51857089D01*
X54919483Y-51888658D01*
X54677942Y-51961928D01*
X54340000Y-51961928D01*
X54215518Y-51974188D01*
X54095820Y-52010498D01*
X53985506Y-52069463D01*
X53888815Y-52148815D01*
X53809463Y-52245506D01*
X53750498Y-52355820D01*
X53714188Y-52475518D01*
X53701928Y-52600000D01*
X53701928Y-52725833D01*
X52432762Y-53995000D01*
X52026144Y-53995000D01*
X51924180Y-53940498D01*
X51804482Y-53904188D01*
X51680000Y-53891928D01*
X49480000Y-53891928D01*
X49355518Y-53904188D01*
X49235820Y-53940498D01*
X49125506Y-53999463D01*
X49028815Y-54078815D01*
X48949463Y-54175506D01*
X48890498Y-54285820D01*
X48854188Y-54405518D01*
X48841928Y-54530000D01*
X48841928Y-56730000D01*
X48854188Y-56854482D01*
X48890498Y-56974180D01*
X48949463Y-57084494D01*
X49028815Y-57181185D01*
X49125506Y-57260537D01*
X49235820Y-57319502D01*
X49355518Y-57355812D01*
X49480000Y-57368072D01*
X51680000Y-57368072D01*
X51804482Y-57355812D01*
X51924180Y-57319502D01*
X52026144Y-57265000D01*
X53029681Y-57265000D01*
X53110000Y-57272911D01*
X53190319Y-57265000D01*
X53190322Y-57265000D01*
X53430516Y-57241343D01*
X53738715Y-57147852D01*
X54022752Y-56996031D01*
X54271714Y-56791714D01*
X54322925Y-56729313D01*
X56014167Y-55038072D01*
X56140000Y-55038072D01*
X56264482Y-55025812D01*
X56384180Y-54989502D01*
X56494494Y-54930537D01*
X56591185Y-54851185D01*
X56670537Y-54754494D01*
X56689077Y-54719809D01*
X56867249Y-54866031D01*
X57151286Y-55017852D01*
X57459485Y-55111343D01*
X57780000Y-55142911D01*
X58100516Y-55111343D01*
X58408715Y-55017852D01*
X58692752Y-54866031D01*
X58941714Y-54661714D01*
X59050000Y-54529767D01*
X59158286Y-54661714D01*
X59407248Y-54866031D01*
X59691285Y-55017852D01*
X59999484Y-55111343D01*
X60239678Y-55135000D01*
X68086314Y-55135000D01*
X61957726Y-61263589D01*
X61868899Y-61311068D01*
X61650392Y-61490392D01*
X61471068Y-61708899D01*
X61337818Y-61958192D01*
X61255764Y-62228691D01*
X61228057Y-62510000D01*
X61255764Y-62791309D01*
X61337818Y-63061808D01*
X61471068Y-63311101D01*
X61650392Y-63529608D01*
X61868899Y-63708932D01*
X62118192Y-63842182D01*
X62388691Y-63924236D01*
X62599508Y-63945000D01*
X60718029Y-63945000D01*
X60650000Y-63938300D01*
X60581971Y-63945000D01*
X60581963Y-63945000D01*
X60401892Y-63962735D01*
X60378492Y-63965040D01*
X60117419Y-64044236D01*
X59876812Y-64172843D01*
X59793479Y-64241233D01*
X59718766Y-64302548D01*
X59718764Y-64302550D01*
X59665919Y-64345919D01*
X59622550Y-64398764D01*
X57808765Y-66212550D01*
X57755919Y-66255920D01*
X57712550Y-66308765D01*
X57712548Y-66308767D01*
X57620359Y-66421100D01*
X57582843Y-66466813D01*
X57524539Y-66575893D01*
X57454236Y-66707420D01*
X57384969Y-66935764D01*
X57375040Y-66968494D01*
X57355000Y-67171964D01*
X57355000Y-67171971D01*
X57348300Y-67240000D01*
X57355000Y-67308029D01*
X57355001Y-71846313D01*
X51423343Y-77777972D01*
X51376811Y-77802844D01*
X51376809Y-77802845D01*
X51376810Y-77802845D01*
X51218765Y-77932549D01*
X51218763Y-77932551D01*
X51165918Y-77975920D01*
X51122549Y-78028765D01*
X48065928Y-81085387D01*
X47953088Y-81107832D01*
X47655537Y-81231082D01*
X47387748Y-81410013D01*
X47160013Y-81637748D01*
X46981082Y-81905537D01*
X46857832Y-82203088D01*
X46795000Y-82518967D01*
X46795000Y-82841033D01*
X46857832Y-83156912D01*
X46981082Y-83454463D01*
X47045001Y-83550124D01*
X47045000Y-88309877D01*
X46981082Y-88405537D01*
X46857832Y-88703088D01*
X46795000Y-89018967D01*
X46795000Y-89341033D01*
X46857832Y-89656912D01*
X46981082Y-89954463D01*
X47160013Y-90222252D01*
X47387748Y-90449987D01*
X47655537Y-90628918D01*
X47953088Y-90752168D01*
X48268967Y-90815000D01*
X48591033Y-90815000D01*
X48906912Y-90752168D01*
X49204463Y-90628918D01*
X49472252Y-90449987D01*
X49699987Y-90222252D01*
X49878918Y-89954463D01*
X50002168Y-89656912D01*
X50065000Y-89341033D01*
X50065000Y-89018967D01*
X50002168Y-88703088D01*
X49878918Y-88405537D01*
X49815000Y-88309877D01*
X49815000Y-83550123D01*
X49878918Y-83454463D01*
X50002168Y-83156912D01*
X50024613Y-83044072D01*
X52926657Y-80142029D01*
X52973187Y-80117158D01*
X53184080Y-79944082D01*
X53227453Y-79891232D01*
X59671236Y-73447450D01*
X59724081Y-73404081D01*
X59821009Y-73285975D01*
X59897156Y-73193189D01*
X59902011Y-73184107D01*
X60025764Y-72952581D01*
X60104960Y-72691507D01*
X60125000Y-72488037D01*
X60125000Y-72488028D01*
X60131700Y-72420001D01*
X60125000Y-72351974D01*
X60125000Y-67813685D01*
X61223686Y-66715000D01*
X63701971Y-66715000D01*
X63770000Y-66721700D01*
X63838029Y-66715000D01*
X63838037Y-66715000D01*
X64041507Y-66694960D01*
X64302581Y-66615764D01*
X64543188Y-66487157D01*
X64754081Y-66314081D01*
X64797454Y-66261231D01*
X66363687Y-64694999D01*
X74501972Y-64694999D01*
X74570001Y-64701699D01*
X74638030Y-64694999D01*
X74638038Y-64694999D01*
X74841508Y-64674959D01*
X75102582Y-64595763D01*
X75343189Y-64467156D01*
X75554082Y-64294080D01*
X75597455Y-64241230D01*
X76071660Y-63767025D01*
X76284759Y-63624637D01*
X76484637Y-63424759D01*
X76627024Y-63211661D01*
X77783933Y-62054752D01*
X77989508Y-62075000D01*
X78930492Y-62075000D01*
X79141309Y-62054236D01*
X79411808Y-61972182D01*
X79661101Y-61838932D01*
X79879608Y-61659608D01*
X80058932Y-61441101D01*
X80192182Y-61191808D01*
X80274236Y-60921309D01*
X80301943Y-60640000D01*
X80274236Y-60358691D01*
X80192182Y-60088192D01*
X80058932Y-59838899D01*
X79879608Y-59620392D01*
X79661101Y-59441068D01*
X79528142Y-59370000D01*
X79661101Y-59298932D01*
X79879608Y-59119608D01*
X80058932Y-58901101D01*
X80192182Y-58651808D01*
X80274236Y-58381309D01*
X80301943Y-58100000D01*
X80274236Y-57818691D01*
X80192182Y-57548192D01*
X80058932Y-57298899D01*
X79879608Y-57080392D01*
X79661101Y-56901068D01*
X79528142Y-56830000D01*
X79661101Y-56758932D01*
X79879608Y-56579608D01*
X80058932Y-56361101D01*
X80192182Y-56111808D01*
X80274236Y-55841309D01*
X80301943Y-55560000D01*
X80274236Y-55278691D01*
X80192182Y-55008192D01*
X80058932Y-54758899D01*
X79879608Y-54540392D01*
X79766518Y-54447581D01*
X79784482Y-54445812D01*
X79904180Y-54409502D01*
X79912603Y-54405000D01*
X80586315Y-54405000D01*
X81455000Y-55273686D01*
X81455001Y-62631961D01*
X81448300Y-62700000D01*
X81475040Y-62971507D01*
X81554236Y-63232580D01*
X81682844Y-63473188D01*
X81812548Y-63631233D01*
X81812551Y-63631236D01*
X81855920Y-63684081D01*
X81908765Y-63727450D01*
X84735000Y-66553685D01*
X84735001Y-67231990D01*
X84700392Y-67260392D01*
X84521068Y-67478899D01*
X84387818Y-67728192D01*
X84305764Y-67998691D01*
X84278057Y-68280000D01*
X84305764Y-68561309D01*
X84387818Y-68831808D01*
X84521068Y-69081101D01*
X84700392Y-69299608D01*
X84918899Y-69478932D01*
X85051858Y-69550000D01*
X84918899Y-69621068D01*
X84700392Y-69800392D01*
X84521068Y-70018899D01*
X84405000Y-70236047D01*
X84405000Y-69208029D01*
X84411700Y-69140000D01*
X84405000Y-69071971D01*
X84405000Y-69071963D01*
X84384960Y-68868493D01*
X84305764Y-68607419D01*
X84177157Y-68366812D01*
X84004081Y-68155919D01*
X83951231Y-68112546D01*
X83187452Y-67348767D01*
X83144081Y-67295919D01*
X82933188Y-67122843D01*
X82692581Y-66994236D01*
X82431507Y-66915040D01*
X82228037Y-66895000D01*
X82228029Y-66895000D01*
X82160000Y-66888300D01*
X82091971Y-66895000D01*
X79952603Y-66895000D01*
X79944180Y-66890498D01*
X79824482Y-66854188D01*
X79700000Y-66841928D01*
X77300000Y-66841928D01*
X77175518Y-66854188D01*
X77073944Y-66885000D01*
X71852699Y-66885000D01*
X71601335Y-66835000D01*
X71318665Y-66835000D01*
X71041426Y-66890147D01*
X70780273Y-66998320D01*
X70545241Y-67155363D01*
X70345363Y-67355241D01*
X70188320Y-67590273D01*
X70080147Y-67851426D01*
X70025000Y-68128665D01*
X70025000Y-68411335D01*
X70080147Y-68688574D01*
X70188320Y-68949727D01*
X70345363Y-69184759D01*
X70545241Y-69384637D01*
X70780273Y-69541680D01*
X71041426Y-69649853D01*
X71318665Y-69705000D01*
X71601335Y-69705000D01*
X71852699Y-69655000D01*
X75041485Y-69655000D01*
X75026812Y-69662843D01*
X74868766Y-69792548D01*
X74868764Y-69792550D01*
X74815919Y-69835919D01*
X74772550Y-69888764D01*
X70886315Y-73775000D01*
X68962316Y-73775000D01*
X64025000Y-68837685D01*
X64025000Y-68672699D01*
X64075000Y-68421335D01*
X64075000Y-68300000D01*
X65638057Y-68300000D01*
X65665764Y-68581309D01*
X65747818Y-68851808D01*
X65881068Y-69101101D01*
X66060392Y-69319608D01*
X66278899Y-69498932D01*
X66528192Y-69632182D01*
X66798691Y-69714236D01*
X67009508Y-69735000D01*
X67150492Y-69735000D01*
X67361309Y-69714236D01*
X67631808Y-69632182D01*
X67881101Y-69498932D01*
X68099608Y-69319608D01*
X68278932Y-69101101D01*
X68412182Y-68851808D01*
X68494236Y-68581309D01*
X68521943Y-68300000D01*
X68494236Y-68018691D01*
X68412182Y-67748192D01*
X68278932Y-67498899D01*
X68099608Y-67280392D01*
X67881101Y-67101068D01*
X67631808Y-66967818D01*
X67361309Y-66885764D01*
X67150492Y-66865000D01*
X67009508Y-66865000D01*
X66798691Y-66885764D01*
X66528192Y-66967818D01*
X66278899Y-67101068D01*
X66060392Y-67280392D01*
X65881068Y-67498899D01*
X65747818Y-67748192D01*
X65665764Y-68018691D01*
X65638057Y-68300000D01*
X64075000Y-68300000D01*
X64075000Y-68138665D01*
X64019853Y-67861426D01*
X63911680Y-67600273D01*
X63754637Y-67365241D01*
X63554759Y-67165363D01*
X63319727Y-67008320D01*
X63058574Y-66900147D01*
X62781335Y-66845000D01*
X62498665Y-66845000D01*
X62221426Y-66900147D01*
X61960273Y-67008320D01*
X61725241Y-67165363D01*
X61525363Y-67365241D01*
X61368320Y-67600273D01*
X61260147Y-67861426D01*
X61205000Y-68138665D01*
X61205000Y-68421335D01*
X61255000Y-68672699D01*
X61255000Y-69343341D01*
X61248300Y-69411370D01*
X61255000Y-69479399D01*
X61255000Y-69479407D01*
X61275040Y-69682877D01*
X61354236Y-69943951D01*
X61450518Y-70124081D01*
X61482844Y-70184558D01*
X61612548Y-70342603D01*
X61612551Y-70342606D01*
X61655920Y-70395451D01*
X61708764Y-70438819D01*
X67361180Y-76091236D01*
X67404549Y-76144081D01*
X67457394Y-76187450D01*
X67457396Y-76187452D01*
X67615442Y-76317157D01*
X67856049Y-76445764D01*
X68117123Y-76524960D01*
X68388630Y-76551701D01*
X68456667Y-76545000D01*
X70075000Y-76545000D01*
X70075001Y-79770584D01*
X70075000Y-79770594D01*
X70075000Y-80592312D01*
X70045764Y-80688691D01*
X70018057Y-80970000D01*
X70045764Y-81251309D01*
X70127818Y-81521808D01*
X70261068Y-81771101D01*
X70440392Y-81989608D01*
X70658899Y-82168932D01*
X70908192Y-82302182D01*
X71178691Y-82384236D01*
X71389508Y-82405000D01*
X71530492Y-82405000D01*
X71741309Y-82384236D01*
X72011808Y-82302182D01*
X72261101Y-82168932D01*
X72479608Y-81989608D01*
X72658932Y-81771101D01*
X72792182Y-81521808D01*
X72874236Y-81251309D01*
X72901943Y-80970000D01*
X72874236Y-80688691D01*
X72845000Y-80592312D01*
X72845000Y-75733685D01*
X76373686Y-72205000D01*
X77245368Y-72205000D01*
X77080392Y-72340392D01*
X76901068Y-72558899D01*
X76767818Y-72808192D01*
X76685764Y-73078691D01*
X76658057Y-73360000D01*
X76685764Y-73641309D01*
X76767818Y-73911808D01*
X76901068Y-74161101D01*
X77080392Y-74379608D01*
X77298899Y-74558932D01*
X77431858Y-74630000D01*
X77298899Y-74701068D01*
X77080392Y-74880392D01*
X76901068Y-75098899D01*
X76767818Y-75348192D01*
X76685764Y-75618691D01*
X76658057Y-75900000D01*
X76685764Y-76181309D01*
X76767818Y-76451808D01*
X76901068Y-76701101D01*
X77080392Y-76919608D01*
X77115000Y-76948010D01*
X77115001Y-80393279D01*
X77097123Y-80395040D01*
X76836049Y-80474236D01*
X76595442Y-80602843D01*
X76584506Y-80611818D01*
X76437396Y-80732548D01*
X76437394Y-80732550D01*
X76384549Y-80775919D01*
X76341180Y-80828764D01*
X70558765Y-86611180D01*
X70505919Y-86654550D01*
X70462550Y-86707395D01*
X70462548Y-86707397D01*
X70432420Y-86744108D01*
X70332843Y-86865443D01*
X70222607Y-87071680D01*
X70204236Y-87106050D01*
X70165854Y-87232580D01*
X70125040Y-87367124D01*
X70105000Y-87570594D01*
X70105000Y-87570601D01*
X70098300Y-87638630D01*
X70105000Y-87706659D01*
X70105001Y-91035000D01*
X68465000Y-91035000D01*
X68465000Y-81392699D01*
X68515000Y-81141335D01*
X68515000Y-80858665D01*
X68459853Y-80581426D01*
X68351680Y-80320273D01*
X68194637Y-80085241D01*
X67994759Y-79885363D01*
X67759727Y-79728320D01*
X67498574Y-79620147D01*
X67221335Y-79565000D01*
X66938665Y-79565000D01*
X66687301Y-79615000D01*
X63083620Y-79615000D01*
X62921309Y-79565764D01*
X62710492Y-79545000D01*
X62569508Y-79545000D01*
X62358691Y-79565764D01*
X62088192Y-79647818D01*
X61838899Y-79781068D01*
X61620392Y-79960392D01*
X61441068Y-80178899D01*
X61307818Y-80428192D01*
X61225764Y-80698691D01*
X61198057Y-80980000D01*
X61225764Y-81261309D01*
X61307818Y-81531808D01*
X61441068Y-81781101D01*
X61620392Y-81999608D01*
X61838899Y-82178932D01*
X62088192Y-82312182D01*
X62358691Y-82394236D01*
X62569508Y-82415000D01*
X62710492Y-82415000D01*
X62921309Y-82394236D01*
X62951756Y-82385000D01*
X65695000Y-82385000D01*
X65695001Y-91035000D01*
X56915000Y-91035000D01*
X56915000Y-89147403D01*
X56887725Y-88870476D01*
X56779939Y-88515152D01*
X56604903Y-88187683D01*
X56500803Y-88060836D01*
X56460537Y-87985506D01*
X56381185Y-87888815D01*
X56284494Y-87809463D01*
X56209164Y-87769197D01*
X56166573Y-87734244D01*
X56222312Y-87678505D01*
X56390299Y-87427095D01*
X56506011Y-87147743D01*
X56565000Y-86851184D01*
X56565000Y-86548816D01*
X56506011Y-86252257D01*
X56415000Y-86032538D01*
X56415000Y-81649285D01*
X56489853Y-81468574D01*
X56545000Y-81191335D01*
X56545000Y-80908665D01*
X56489853Y-80631426D01*
X56381680Y-80370273D01*
X56224637Y-80135241D01*
X56024759Y-79935363D01*
X55789727Y-79778320D01*
X55528574Y-79670147D01*
X55251335Y-79615000D01*
X54968665Y-79615000D01*
X54691426Y-79670147D01*
X54430273Y-79778320D01*
X54195241Y-79935363D01*
X53995363Y-80135241D01*
X53838320Y-80370273D01*
X53730147Y-80631426D01*
X53722960Y-80667558D01*
X53665040Y-80858493D01*
X53638300Y-81130000D01*
X53645001Y-81198039D01*
X53645000Y-86032538D01*
X53553989Y-86252257D01*
X53495000Y-86548816D01*
X53495000Y-86851184D01*
X53553989Y-87147743D01*
X53669701Y-87427095D01*
X53837688Y-87678505D01*
X53893427Y-87734244D01*
X53850836Y-87769197D01*
X53775506Y-87809463D01*
X53678815Y-87888815D01*
X53599463Y-87985506D01*
X53559197Y-88060836D01*
X53455097Y-88187683D01*
X53280061Y-88515153D01*
X53172275Y-88870477D01*
X53145000Y-89147404D01*
X53145001Y-91035000D01*
X47390133Y-91035000D01*
X46065000Y-89709868D01*
X46065000Y-82784871D01*
X46075329Y-82679999D01*
X46065000Y-82575127D01*
X46065000Y-82575118D01*
X46034108Y-82261467D01*
X45912026Y-81859018D01*
X45713777Y-81488119D01*
X45610993Y-81362877D01*
X45513835Y-81244489D01*
X45513833Y-81244487D01*
X45446977Y-81163023D01*
X45365513Y-81096167D01*
X42289015Y-78019670D01*
X42973687Y-77334999D01*
X49731972Y-77334999D01*
X49800001Y-77341699D01*
X49868030Y-77334999D01*
X49868038Y-77334999D01*
X50071508Y-77314959D01*
X50332582Y-77235763D01*
X50573189Y-77107156D01*
X50784082Y-76934080D01*
X50827455Y-76881230D01*
X51312274Y-76396411D01*
X51401101Y-76348932D01*
X51619608Y-76169608D01*
X51798932Y-75951101D01*
X51932182Y-75701808D01*
X52014236Y-75431309D01*
X52041943Y-75150000D01*
X52014236Y-74868691D01*
X51932182Y-74598192D01*
X51798932Y-74348899D01*
X51619608Y-74130392D01*
X51401101Y-73951068D01*
X51151808Y-73817818D01*
X50881309Y-73735764D01*
X50670492Y-73715000D01*
X50529508Y-73715000D01*
X50318691Y-73735764D01*
X50048192Y-73817818D01*
X49798899Y-73951068D01*
X49580392Y-74130392D01*
X49401068Y-74348899D01*
X49353589Y-74437726D01*
X49226316Y-74564999D01*
X42468030Y-74564999D01*
X42400001Y-74558299D01*
X42331972Y-74564999D01*
X42331964Y-74564999D01*
X42128494Y-74585039D01*
X41935000Y-74643735D01*
X41935000Y-71964345D01*
X42775513Y-71123833D01*
X42856977Y-71056977D01*
X42924157Y-70975119D01*
X43080915Y-70784108D01*
X43123777Y-70731881D01*
X43230776Y-70531700D01*
X43322026Y-70360983D01*
X43444108Y-69958534D01*
X43456184Y-69835919D01*
X43475000Y-69644882D01*
X43475000Y-69644875D01*
X43485329Y-69540000D01*
X43475000Y-69435126D01*
X43475000Y-68350000D01*
X53668057Y-68350000D01*
X53695764Y-68631309D01*
X53777818Y-68901808D01*
X53911068Y-69151101D01*
X54090392Y-69369608D01*
X54308899Y-69548932D01*
X54558192Y-69682182D01*
X54828691Y-69764236D01*
X55039508Y-69785000D01*
X55180492Y-69785000D01*
X55391309Y-69764236D01*
X55661808Y-69682182D01*
X55911101Y-69548932D01*
X56129608Y-69369608D01*
X56308932Y-69151101D01*
X56442182Y-68901808D01*
X56524236Y-68631309D01*
X56551943Y-68350000D01*
X56524236Y-68068691D01*
X56442182Y-67798192D01*
X56308932Y-67548899D01*
X56129608Y-67330392D01*
X55911101Y-67151068D01*
X55661808Y-67017818D01*
X55391309Y-66935764D01*
X55180492Y-66915000D01*
X55039508Y-66915000D01*
X54828691Y-66935764D01*
X54558192Y-67017818D01*
X54308899Y-67151068D01*
X54090392Y-67330392D01*
X53911068Y-67548899D01*
X53777818Y-67798192D01*
X53695764Y-68068691D01*
X53668057Y-68350000D01*
X43475000Y-68350000D01*
X43475000Y-67533592D01*
X43813298Y-67393464D01*
X44250113Y-67101594D01*
X44621594Y-66730113D01*
X44913464Y-66293298D01*
X45114508Y-65807935D01*
X45217000Y-65292677D01*
X45217000Y-64767323D01*
X45114508Y-64252065D01*
X44913464Y-63766702D01*
X44621594Y-63329887D01*
X44250113Y-62958406D01*
X43813298Y-62666536D01*
X43475000Y-62526408D01*
X43475000Y-60624874D01*
X43485329Y-60520000D01*
X43475000Y-60415125D01*
X43475000Y-60415118D01*
X43444108Y-60101467D01*
X43422429Y-60030000D01*
X43322026Y-59699017D01*
X43194190Y-59459853D01*
X43123777Y-59328119D01*
X43039776Y-59225764D01*
X42923835Y-59084489D01*
X42923833Y-59084487D01*
X42856977Y-59003023D01*
X42775513Y-58936167D01*
X41999346Y-58160000D01*
X45408057Y-58160000D01*
X45435764Y-58441309D01*
X45517818Y-58711808D01*
X45651068Y-58961101D01*
X45830392Y-59179608D01*
X46048899Y-59358932D01*
X46137726Y-59406411D01*
X49165000Y-62433686D01*
X49165000Y-62591335D01*
X49220147Y-62868574D01*
X49328320Y-63129727D01*
X49485363Y-63364759D01*
X49685241Y-63564637D01*
X49920273Y-63721680D01*
X50181426Y-63829853D01*
X50458665Y-63885000D01*
X50741335Y-63885000D01*
X51018574Y-63829853D01*
X51279727Y-63721680D01*
X51514759Y-63564637D01*
X51714637Y-63364759D01*
X51857024Y-63151661D01*
X55543686Y-59465000D01*
X62267301Y-59465000D01*
X62518665Y-59515000D01*
X62801335Y-59515000D01*
X63078574Y-59459853D01*
X63339727Y-59351680D01*
X63574759Y-59194637D01*
X63774637Y-58994759D01*
X63931680Y-58759727D01*
X64039853Y-58498574D01*
X64095000Y-58221335D01*
X64095000Y-57938665D01*
X64039853Y-57661426D01*
X63931680Y-57400273D01*
X63774637Y-57165241D01*
X63574759Y-56965363D01*
X63339727Y-56808320D01*
X63078574Y-56700147D01*
X62801335Y-56645000D01*
X62518665Y-56645000D01*
X62267301Y-56695000D01*
X55038026Y-56695000D01*
X54969999Y-56688300D01*
X54901972Y-56695000D01*
X54901963Y-56695000D01*
X54698493Y-56715040D01*
X54437419Y-56794236D01*
X54196812Y-56922843D01*
X54196810Y-56922844D01*
X54196811Y-56922844D01*
X54038766Y-57052548D01*
X54038764Y-57052550D01*
X53985919Y-57095919D01*
X53942550Y-57148764D01*
X50870000Y-60221314D01*
X48096411Y-57447726D01*
X48048932Y-57358899D01*
X47869608Y-57140392D01*
X47651101Y-56961068D01*
X47401808Y-56827818D01*
X47131309Y-56745764D01*
X46920492Y-56725000D01*
X46779508Y-56725000D01*
X46568691Y-56745764D01*
X46298192Y-56827818D01*
X46048899Y-56961068D01*
X45830392Y-57140392D01*
X45651068Y-57358899D01*
X45517818Y-57608192D01*
X45435764Y-57878691D01*
X45408057Y-58160000D01*
X41999346Y-58160000D01*
X41935000Y-58095655D01*
X41935000Y-55395000D01*
X46619355Y-55395000D01*
X46711944Y-55404119D01*
X46804533Y-55395000D01*
X46804541Y-55395000D01*
X47081468Y-55367725D01*
X47436792Y-55259939D01*
X47764261Y-55084903D01*
X48051289Y-54849345D01*
X48110318Y-54777418D01*
X51902737Y-50985000D01*
X56145000Y-50985000D01*
X56145001Y-51962421D01*
X56145001Y-51962421D01*
G37*
X56145001Y-51962421D02*
X56140000Y-51961928D01*
X55802057Y-51961928D01*
X55560516Y-51888658D01*
X55240000Y-51857089D01*
X54919483Y-51888658D01*
X54677942Y-51961928D01*
X54340000Y-51961928D01*
X54215518Y-51974188D01*
X54095820Y-52010498D01*
X53985506Y-52069463D01*
X53888815Y-52148815D01*
X53809463Y-52245506D01*
X53750498Y-52355820D01*
X53714188Y-52475518D01*
X53701928Y-52600000D01*
X53701928Y-52725833D01*
X52432762Y-53995000D01*
X52026144Y-53995000D01*
X51924180Y-53940498D01*
X51804482Y-53904188D01*
X51680000Y-53891928D01*
X49480000Y-53891928D01*
X49355518Y-53904188D01*
X49235820Y-53940498D01*
X49125506Y-53999463D01*
X49028815Y-54078815D01*
X48949463Y-54175506D01*
X48890498Y-54285820D01*
X48854188Y-54405518D01*
X48841928Y-54530000D01*
X48841928Y-56730000D01*
X48854188Y-56854482D01*
X48890498Y-56974180D01*
X48949463Y-57084494D01*
X49028815Y-57181185D01*
X49125506Y-57260537D01*
X49235820Y-57319502D01*
X49355518Y-57355812D01*
X49480000Y-57368072D01*
X51680000Y-57368072D01*
X51804482Y-57355812D01*
X51924180Y-57319502D01*
X52026144Y-57265000D01*
X53029681Y-57265000D01*
X53110000Y-57272911D01*
X53190319Y-57265000D01*
X53190322Y-57265000D01*
X53430516Y-57241343D01*
X53738715Y-57147852D01*
X54022752Y-56996031D01*
X54271714Y-56791714D01*
X54322925Y-56729313D01*
X56014167Y-55038072D01*
X56140000Y-55038072D01*
X56264482Y-55025812D01*
X56384180Y-54989502D01*
X56494494Y-54930537D01*
X56591185Y-54851185D01*
X56670537Y-54754494D01*
X56689077Y-54719809D01*
X56867249Y-54866031D01*
X57151286Y-55017852D01*
X57459485Y-55111343D01*
X57780000Y-55142911D01*
X58100516Y-55111343D01*
X58408715Y-55017852D01*
X58692752Y-54866031D01*
X58941714Y-54661714D01*
X59050000Y-54529767D01*
X59158286Y-54661714D01*
X59407248Y-54866031D01*
X59691285Y-55017852D01*
X59999484Y-55111343D01*
X60239678Y-55135000D01*
X68086314Y-55135000D01*
X61957726Y-61263589D01*
X61868899Y-61311068D01*
X61650392Y-61490392D01*
X61471068Y-61708899D01*
X61337818Y-61958192D01*
X61255764Y-62228691D01*
X61228057Y-62510000D01*
X61255764Y-62791309D01*
X61337818Y-63061808D01*
X61471068Y-63311101D01*
X61650392Y-63529608D01*
X61868899Y-63708932D01*
X62118192Y-63842182D01*
X62388691Y-63924236D01*
X62599508Y-63945000D01*
X60718029Y-63945000D01*
X60650000Y-63938300D01*
X60581971Y-63945000D01*
X60581963Y-63945000D01*
X60401892Y-63962735D01*
X60378492Y-63965040D01*
X60117419Y-64044236D01*
X59876812Y-64172843D01*
X59793479Y-64241233D01*
X59718766Y-64302548D01*
X59718764Y-64302550D01*
X59665919Y-64345919D01*
X59622550Y-64398764D01*
X57808765Y-66212550D01*
X57755919Y-66255920D01*
X57712550Y-66308765D01*
X57712548Y-66308767D01*
X57620359Y-66421100D01*
X57582843Y-66466813D01*
X57524539Y-66575893D01*
X57454236Y-66707420D01*
X57384969Y-66935764D01*
X57375040Y-66968494D01*
X57355000Y-67171964D01*
X57355000Y-67171971D01*
X57348300Y-67240000D01*
X57355000Y-67308029D01*
X57355001Y-71846313D01*
X51423343Y-77777972D01*
X51376811Y-77802844D01*
X51376809Y-77802845D01*
X51376810Y-77802845D01*
X51218765Y-77932549D01*
X51218763Y-77932551D01*
X51165918Y-77975920D01*
X51122549Y-78028765D01*
X48065928Y-81085387D01*
X47953088Y-81107832D01*
X47655537Y-81231082D01*
X47387748Y-81410013D01*
X47160013Y-81637748D01*
X46981082Y-81905537D01*
X46857832Y-82203088D01*
X46795000Y-82518967D01*
X46795000Y-82841033D01*
X46857832Y-83156912D01*
X46981082Y-83454463D01*
X47045001Y-83550124D01*
X47045000Y-88309877D01*
X46981082Y-88405537D01*
X46857832Y-88703088D01*
X46795000Y-89018967D01*
X46795000Y-89341033D01*
X46857832Y-89656912D01*
X46981082Y-89954463D01*
X47160013Y-90222252D01*
X47387748Y-90449987D01*
X47655537Y-90628918D01*
X47953088Y-90752168D01*
X48268967Y-90815000D01*
X48591033Y-90815000D01*
X48906912Y-90752168D01*
X49204463Y-90628918D01*
X49472252Y-90449987D01*
X49699987Y-90222252D01*
X49878918Y-89954463D01*
X50002168Y-89656912D01*
X50065000Y-89341033D01*
X50065000Y-89018967D01*
X50002168Y-88703088D01*
X49878918Y-88405537D01*
X49815000Y-88309877D01*
X49815000Y-83550123D01*
X49878918Y-83454463D01*
X50002168Y-83156912D01*
X50024613Y-83044072D01*
X52926657Y-80142029D01*
X52973187Y-80117158D01*
X53184080Y-79944082D01*
X53227453Y-79891232D01*
X59671236Y-73447450D01*
X59724081Y-73404081D01*
X59821009Y-73285975D01*
X59897156Y-73193189D01*
X59902011Y-73184107D01*
X60025764Y-72952581D01*
X60104960Y-72691507D01*
X60125000Y-72488037D01*
X60125000Y-72488028D01*
X60131700Y-72420001D01*
X60125000Y-72351974D01*
X60125000Y-67813685D01*
X61223686Y-66715000D01*
X63701971Y-66715000D01*
X63770000Y-66721700D01*
X63838029Y-66715000D01*
X63838037Y-66715000D01*
X64041507Y-66694960D01*
X64302581Y-66615764D01*
X64543188Y-66487157D01*
X64754081Y-66314081D01*
X64797454Y-66261231D01*
X66363687Y-64694999D01*
X74501972Y-64694999D01*
X74570001Y-64701699D01*
X74638030Y-64694999D01*
X74638038Y-64694999D01*
X74841508Y-64674959D01*
X75102582Y-64595763D01*
X75343189Y-64467156D01*
X75554082Y-64294080D01*
X75597455Y-64241230D01*
X76071660Y-63767025D01*
X76284759Y-63624637D01*
X76484637Y-63424759D01*
X76627024Y-63211661D01*
X77783933Y-62054752D01*
X77989508Y-62075000D01*
X78930492Y-62075000D01*
X79141309Y-62054236D01*
X79411808Y-61972182D01*
X79661101Y-61838932D01*
X79879608Y-61659608D01*
X80058932Y-61441101D01*
X80192182Y-61191808D01*
X80274236Y-60921309D01*
X80301943Y-60640000D01*
X80274236Y-60358691D01*
X80192182Y-60088192D01*
X80058932Y-59838899D01*
X79879608Y-59620392D01*
X79661101Y-59441068D01*
X79528142Y-59370000D01*
X79661101Y-59298932D01*
X79879608Y-59119608D01*
X80058932Y-58901101D01*
X80192182Y-58651808D01*
X80274236Y-58381309D01*
X80301943Y-58100000D01*
X80274236Y-57818691D01*
X80192182Y-57548192D01*
X80058932Y-57298899D01*
X79879608Y-57080392D01*
X79661101Y-56901068D01*
X79528142Y-56830000D01*
X79661101Y-56758932D01*
X79879608Y-56579608D01*
X80058932Y-56361101D01*
X80192182Y-56111808D01*
X80274236Y-55841309D01*
X80301943Y-55560000D01*
X80274236Y-55278691D01*
X80192182Y-55008192D01*
X80058932Y-54758899D01*
X79879608Y-54540392D01*
X79766518Y-54447581D01*
X79784482Y-54445812D01*
X79904180Y-54409502D01*
X79912603Y-54405000D01*
X80586315Y-54405000D01*
X81455000Y-55273686D01*
X81455001Y-62631961D01*
X81448300Y-62700000D01*
X81475040Y-62971507D01*
X81554236Y-63232580D01*
X81682844Y-63473188D01*
X81812548Y-63631233D01*
X81812551Y-63631236D01*
X81855920Y-63684081D01*
X81908765Y-63727450D01*
X84735000Y-66553685D01*
X84735001Y-67231990D01*
X84700392Y-67260392D01*
X84521068Y-67478899D01*
X84387818Y-67728192D01*
X84305764Y-67998691D01*
X84278057Y-68280000D01*
X84305764Y-68561309D01*
X84387818Y-68831808D01*
X84521068Y-69081101D01*
X84700392Y-69299608D01*
X84918899Y-69478932D01*
X85051858Y-69550000D01*
X84918899Y-69621068D01*
X84700392Y-69800392D01*
X84521068Y-70018899D01*
X84405000Y-70236047D01*
X84405000Y-69208029D01*
X84411700Y-69140000D01*
X84405000Y-69071971D01*
X84405000Y-69071963D01*
X84384960Y-68868493D01*
X84305764Y-68607419D01*
X84177157Y-68366812D01*
X84004081Y-68155919D01*
X83951231Y-68112546D01*
X83187452Y-67348767D01*
X83144081Y-67295919D01*
X82933188Y-67122843D01*
X82692581Y-66994236D01*
X82431507Y-66915040D01*
X82228037Y-66895000D01*
X82228029Y-66895000D01*
X82160000Y-66888300D01*
X82091971Y-66895000D01*
X79952603Y-66895000D01*
X79944180Y-66890498D01*
X79824482Y-66854188D01*
X79700000Y-66841928D01*
X77300000Y-66841928D01*
X77175518Y-66854188D01*
X77073944Y-66885000D01*
X71852699Y-66885000D01*
X71601335Y-66835000D01*
X71318665Y-66835000D01*
X71041426Y-66890147D01*
X70780273Y-66998320D01*
X70545241Y-67155363D01*
X70345363Y-67355241D01*
X70188320Y-67590273D01*
X70080147Y-67851426D01*
X70025000Y-68128665D01*
X70025000Y-68411335D01*
X70080147Y-68688574D01*
X70188320Y-68949727D01*
X70345363Y-69184759D01*
X70545241Y-69384637D01*
X70780273Y-69541680D01*
X71041426Y-69649853D01*
X71318665Y-69705000D01*
X71601335Y-69705000D01*
X71852699Y-69655000D01*
X75041485Y-69655000D01*
X75026812Y-69662843D01*
X74868766Y-69792548D01*
X74868764Y-69792550D01*
X74815919Y-69835919D01*
X74772550Y-69888764D01*
X70886315Y-73775000D01*
X68962316Y-73775000D01*
X64025000Y-68837685D01*
X64025000Y-68672699D01*
X64075000Y-68421335D01*
X64075000Y-68300000D01*
X65638057Y-68300000D01*
X65665764Y-68581309D01*
X65747818Y-68851808D01*
X65881068Y-69101101D01*
X66060392Y-69319608D01*
X66278899Y-69498932D01*
X66528192Y-69632182D01*
X66798691Y-69714236D01*
X67009508Y-69735000D01*
X67150492Y-69735000D01*
X67361309Y-69714236D01*
X67631808Y-69632182D01*
X67881101Y-69498932D01*
X68099608Y-69319608D01*
X68278932Y-69101101D01*
X68412182Y-68851808D01*
X68494236Y-68581309D01*
X68521943Y-68300000D01*
X68494236Y-68018691D01*
X68412182Y-67748192D01*
X68278932Y-67498899D01*
X68099608Y-67280392D01*
X67881101Y-67101068D01*
X67631808Y-66967818D01*
X67361309Y-66885764D01*
X67150492Y-66865000D01*
X67009508Y-66865000D01*
X66798691Y-66885764D01*
X66528192Y-66967818D01*
X66278899Y-67101068D01*
X66060392Y-67280392D01*
X65881068Y-67498899D01*
X65747818Y-67748192D01*
X65665764Y-68018691D01*
X65638057Y-68300000D01*
X64075000Y-68300000D01*
X64075000Y-68138665D01*
X64019853Y-67861426D01*
X63911680Y-67600273D01*
X63754637Y-67365241D01*
X63554759Y-67165363D01*
X63319727Y-67008320D01*
X63058574Y-66900147D01*
X62781335Y-66845000D01*
X62498665Y-66845000D01*
X62221426Y-66900147D01*
X61960273Y-67008320D01*
X61725241Y-67165363D01*
X61525363Y-67365241D01*
X61368320Y-67600273D01*
X61260147Y-67861426D01*
X61205000Y-68138665D01*
X61205000Y-68421335D01*
X61255000Y-68672699D01*
X61255000Y-69343341D01*
X61248300Y-69411370D01*
X61255000Y-69479399D01*
X61255000Y-69479407D01*
X61275040Y-69682877D01*
X61354236Y-69943951D01*
X61450518Y-70124081D01*
X61482844Y-70184558D01*
X61612548Y-70342603D01*
X61612551Y-70342606D01*
X61655920Y-70395451D01*
X61708764Y-70438819D01*
X67361180Y-76091236D01*
X67404549Y-76144081D01*
X67457394Y-76187450D01*
X67457396Y-76187452D01*
X67615442Y-76317157D01*
X67856049Y-76445764D01*
X68117123Y-76524960D01*
X68388630Y-76551701D01*
X68456667Y-76545000D01*
X70075000Y-76545000D01*
X70075001Y-79770584D01*
X70075000Y-79770594D01*
X70075000Y-80592312D01*
X70045764Y-80688691D01*
X70018057Y-80970000D01*
X70045764Y-81251309D01*
X70127818Y-81521808D01*
X70261068Y-81771101D01*
X70440392Y-81989608D01*
X70658899Y-82168932D01*
X70908192Y-82302182D01*
X71178691Y-82384236D01*
X71389508Y-82405000D01*
X71530492Y-82405000D01*
X71741309Y-82384236D01*
X72011808Y-82302182D01*
X72261101Y-82168932D01*
X72479608Y-81989608D01*
X72658932Y-81771101D01*
X72792182Y-81521808D01*
X72874236Y-81251309D01*
X72901943Y-80970000D01*
X72874236Y-80688691D01*
X72845000Y-80592312D01*
X72845000Y-75733685D01*
X76373686Y-72205000D01*
X77245368Y-72205000D01*
X77080392Y-72340392D01*
X76901068Y-72558899D01*
X76767818Y-72808192D01*
X76685764Y-73078691D01*
X76658057Y-73360000D01*
X76685764Y-73641309D01*
X76767818Y-73911808D01*
X76901068Y-74161101D01*
X77080392Y-74379608D01*
X77298899Y-74558932D01*
X77431858Y-74630000D01*
X77298899Y-74701068D01*
X77080392Y-74880392D01*
X76901068Y-75098899D01*
X76767818Y-75348192D01*
X76685764Y-75618691D01*
X76658057Y-75900000D01*
X76685764Y-76181309D01*
X76767818Y-76451808D01*
X76901068Y-76701101D01*
X77080392Y-76919608D01*
X77115000Y-76948010D01*
X77115001Y-80393279D01*
X77097123Y-80395040D01*
X76836049Y-80474236D01*
X76595442Y-80602843D01*
X76584506Y-80611818D01*
X76437396Y-80732548D01*
X76437394Y-80732550D01*
X76384549Y-80775919D01*
X76341180Y-80828764D01*
X70558765Y-86611180D01*
X70505919Y-86654550D01*
X70462550Y-86707395D01*
X70462548Y-86707397D01*
X70432420Y-86744108D01*
X70332843Y-86865443D01*
X70222607Y-87071680D01*
X70204236Y-87106050D01*
X70165854Y-87232580D01*
X70125040Y-87367124D01*
X70105000Y-87570594D01*
X70105000Y-87570601D01*
X70098300Y-87638630D01*
X70105000Y-87706659D01*
X70105001Y-91035000D01*
X68465000Y-91035000D01*
X68465000Y-81392699D01*
X68515000Y-81141335D01*
X68515000Y-80858665D01*
X68459853Y-80581426D01*
X68351680Y-80320273D01*
X68194637Y-80085241D01*
X67994759Y-79885363D01*
X67759727Y-79728320D01*
X67498574Y-79620147D01*
X67221335Y-79565000D01*
X66938665Y-79565000D01*
X66687301Y-79615000D01*
X63083620Y-79615000D01*
X62921309Y-79565764D01*
X62710492Y-79545000D01*
X62569508Y-79545000D01*
X62358691Y-79565764D01*
X62088192Y-79647818D01*
X61838899Y-79781068D01*
X61620392Y-79960392D01*
X61441068Y-80178899D01*
X61307818Y-80428192D01*
X61225764Y-80698691D01*
X61198057Y-80980000D01*
X61225764Y-81261309D01*
X61307818Y-81531808D01*
X61441068Y-81781101D01*
X61620392Y-81999608D01*
X61838899Y-82178932D01*
X62088192Y-82312182D01*
X62358691Y-82394236D01*
X62569508Y-82415000D01*
X62710492Y-82415000D01*
X62921309Y-82394236D01*
X62951756Y-82385000D01*
X65695000Y-82385000D01*
X65695001Y-91035000D01*
X56915000Y-91035000D01*
X56915000Y-89147403D01*
X56887725Y-88870476D01*
X56779939Y-88515152D01*
X56604903Y-88187683D01*
X56500803Y-88060836D01*
X56460537Y-87985506D01*
X56381185Y-87888815D01*
X56284494Y-87809463D01*
X56209164Y-87769197D01*
X56166573Y-87734244D01*
X56222312Y-87678505D01*
X56390299Y-87427095D01*
X56506011Y-87147743D01*
X56565000Y-86851184D01*
X56565000Y-86548816D01*
X56506011Y-86252257D01*
X56415000Y-86032538D01*
X56415000Y-81649285D01*
X56489853Y-81468574D01*
X56545000Y-81191335D01*
X56545000Y-80908665D01*
X56489853Y-80631426D01*
X56381680Y-80370273D01*
X56224637Y-80135241D01*
X56024759Y-79935363D01*
X55789727Y-79778320D01*
X55528574Y-79670147D01*
X55251335Y-79615000D01*
X54968665Y-79615000D01*
X54691426Y-79670147D01*
X54430273Y-79778320D01*
X54195241Y-79935363D01*
X53995363Y-80135241D01*
X53838320Y-80370273D01*
X53730147Y-80631426D01*
X53722960Y-80667558D01*
X53665040Y-80858493D01*
X53638300Y-81130000D01*
X53645001Y-81198039D01*
X53645000Y-86032538D01*
X53553989Y-86252257D01*
X53495000Y-86548816D01*
X53495000Y-86851184D01*
X53553989Y-87147743D01*
X53669701Y-87427095D01*
X53837688Y-87678505D01*
X53893427Y-87734244D01*
X53850836Y-87769197D01*
X53775506Y-87809463D01*
X53678815Y-87888815D01*
X53599463Y-87985506D01*
X53559197Y-88060836D01*
X53455097Y-88187683D01*
X53280061Y-88515153D01*
X53172275Y-88870477D01*
X53145000Y-89147404D01*
X53145001Y-91035000D01*
X47390133Y-91035000D01*
X46065000Y-89709868D01*
X46065000Y-82784871D01*
X46075329Y-82679999D01*
X46065000Y-82575127D01*
X46065000Y-82575118D01*
X46034108Y-82261467D01*
X45912026Y-81859018D01*
X45713777Y-81488119D01*
X45610993Y-81362877D01*
X45513835Y-81244489D01*
X45513833Y-81244487D01*
X45446977Y-81163023D01*
X45365513Y-81096167D01*
X42289015Y-78019670D01*
X42973687Y-77334999D01*
X49731972Y-77334999D01*
X49800001Y-77341699D01*
X49868030Y-77334999D01*
X49868038Y-77334999D01*
X50071508Y-77314959D01*
X50332582Y-77235763D01*
X50573189Y-77107156D01*
X50784082Y-76934080D01*
X50827455Y-76881230D01*
X51312274Y-76396411D01*
X51401101Y-76348932D01*
X51619608Y-76169608D01*
X51798932Y-75951101D01*
X51932182Y-75701808D01*
X52014236Y-75431309D01*
X52041943Y-75150000D01*
X52014236Y-74868691D01*
X51932182Y-74598192D01*
X51798932Y-74348899D01*
X51619608Y-74130392D01*
X51401101Y-73951068D01*
X51151808Y-73817818D01*
X50881309Y-73735764D01*
X50670492Y-73715000D01*
X50529508Y-73715000D01*
X50318691Y-73735764D01*
X50048192Y-73817818D01*
X49798899Y-73951068D01*
X49580392Y-74130392D01*
X49401068Y-74348899D01*
X49353589Y-74437726D01*
X49226316Y-74564999D01*
X42468030Y-74564999D01*
X42400001Y-74558299D01*
X42331972Y-74564999D01*
X42331964Y-74564999D01*
X42128494Y-74585039D01*
X41935000Y-74643735D01*
X41935000Y-71964345D01*
X42775513Y-71123833D01*
X42856977Y-71056977D01*
X42924157Y-70975119D01*
X43080915Y-70784108D01*
X43123777Y-70731881D01*
X43230776Y-70531700D01*
X43322026Y-70360983D01*
X43444108Y-69958534D01*
X43456184Y-69835919D01*
X43475000Y-69644882D01*
X43475000Y-69644875D01*
X43485329Y-69540000D01*
X43475000Y-69435126D01*
X43475000Y-68350000D01*
X53668057Y-68350000D01*
X53695764Y-68631309D01*
X53777818Y-68901808D01*
X53911068Y-69151101D01*
X54090392Y-69369608D01*
X54308899Y-69548932D01*
X54558192Y-69682182D01*
X54828691Y-69764236D01*
X55039508Y-69785000D01*
X55180492Y-69785000D01*
X55391309Y-69764236D01*
X55661808Y-69682182D01*
X55911101Y-69548932D01*
X56129608Y-69369608D01*
X56308932Y-69151101D01*
X56442182Y-68901808D01*
X56524236Y-68631309D01*
X56551943Y-68350000D01*
X56524236Y-68068691D01*
X56442182Y-67798192D01*
X56308932Y-67548899D01*
X56129608Y-67330392D01*
X55911101Y-67151068D01*
X55661808Y-67017818D01*
X55391309Y-66935764D01*
X55180492Y-66915000D01*
X55039508Y-66915000D01*
X54828691Y-66935764D01*
X54558192Y-67017818D01*
X54308899Y-67151068D01*
X54090392Y-67330392D01*
X53911068Y-67548899D01*
X53777818Y-67798192D01*
X53695764Y-68068691D01*
X53668057Y-68350000D01*
X43475000Y-68350000D01*
X43475000Y-67533592D01*
X43813298Y-67393464D01*
X44250113Y-67101594D01*
X44621594Y-66730113D01*
X44913464Y-66293298D01*
X45114508Y-65807935D01*
X45217000Y-65292677D01*
X45217000Y-64767323D01*
X45114508Y-64252065D01*
X44913464Y-63766702D01*
X44621594Y-63329887D01*
X44250113Y-62958406D01*
X43813298Y-62666536D01*
X43475000Y-62526408D01*
X43475000Y-60624874D01*
X43485329Y-60520000D01*
X43475000Y-60415125D01*
X43475000Y-60415118D01*
X43444108Y-60101467D01*
X43422429Y-60030000D01*
X43322026Y-59699017D01*
X43194190Y-59459853D01*
X43123777Y-59328119D01*
X43039776Y-59225764D01*
X42923835Y-59084489D01*
X42923833Y-59084487D01*
X42856977Y-59003023D01*
X42775513Y-58936167D01*
X41999346Y-58160000D01*
X45408057Y-58160000D01*
X45435764Y-58441309D01*
X45517818Y-58711808D01*
X45651068Y-58961101D01*
X45830392Y-59179608D01*
X46048899Y-59358932D01*
X46137726Y-59406411D01*
X49165000Y-62433686D01*
X49165000Y-62591335D01*
X49220147Y-62868574D01*
X49328320Y-63129727D01*
X49485363Y-63364759D01*
X49685241Y-63564637D01*
X49920273Y-63721680D01*
X50181426Y-63829853D01*
X50458665Y-63885000D01*
X50741335Y-63885000D01*
X51018574Y-63829853D01*
X51279727Y-63721680D01*
X51514759Y-63564637D01*
X51714637Y-63364759D01*
X51857024Y-63151661D01*
X55543686Y-59465000D01*
X62267301Y-59465000D01*
X62518665Y-59515000D01*
X62801335Y-59515000D01*
X63078574Y-59459853D01*
X63339727Y-59351680D01*
X63574759Y-59194637D01*
X63774637Y-58994759D01*
X63931680Y-58759727D01*
X64039853Y-58498574D01*
X64095000Y-58221335D01*
X64095000Y-57938665D01*
X64039853Y-57661426D01*
X63931680Y-57400273D01*
X63774637Y-57165241D01*
X63574759Y-56965363D01*
X63339727Y-56808320D01*
X63078574Y-56700147D01*
X62801335Y-56645000D01*
X62518665Y-56645000D01*
X62267301Y-56695000D01*
X55038026Y-56695000D01*
X54969999Y-56688300D01*
X54901972Y-56695000D01*
X54901963Y-56695000D01*
X54698493Y-56715040D01*
X54437419Y-56794236D01*
X54196812Y-56922843D01*
X54196810Y-56922844D01*
X54196811Y-56922844D01*
X54038766Y-57052548D01*
X54038764Y-57052550D01*
X53985919Y-57095919D01*
X53942550Y-57148764D01*
X50870000Y-60221314D01*
X48096411Y-57447726D01*
X48048932Y-57358899D01*
X47869608Y-57140392D01*
X47651101Y-56961068D01*
X47401808Y-56827818D01*
X47131309Y-56745764D01*
X46920492Y-56725000D01*
X46779508Y-56725000D01*
X46568691Y-56745764D01*
X46298192Y-56827818D01*
X46048899Y-56961068D01*
X45830392Y-57140392D01*
X45651068Y-57358899D01*
X45517818Y-57608192D01*
X45435764Y-57878691D01*
X45408057Y-58160000D01*
X41999346Y-58160000D01*
X41935000Y-58095655D01*
X41935000Y-55395000D01*
X46619355Y-55395000D01*
X46711944Y-55404119D01*
X46804533Y-55395000D01*
X46804541Y-55395000D01*
X47081468Y-55367725D01*
X47436792Y-55259939D01*
X47764261Y-55084903D01*
X48051289Y-54849345D01*
X48110318Y-54777418D01*
X51902737Y-50985000D01*
X56145000Y-50985000D01*
X56145001Y-51962421D01*
G36*
X83005130Y-90604699D02*
G01*
X82819604Y-90830763D01*
X82790001Y-90886147D01*
X82760397Y-90830763D01*
X82574871Y-90604699D01*
X82392462Y-90455000D01*
X83187539Y-90455000D01*
X83005130Y-90604699D01*
X83005130Y-90604699D01*
G37*
X83005130Y-90604699D02*
X82819604Y-90830763D01*
X82790001Y-90886147D01*
X82760397Y-90830763D01*
X82574871Y-90604699D01*
X82392462Y-90455000D01*
X83187539Y-90455000D01*
X83005130Y-90604699D01*
G36*
X85545130Y-90604699D02*
G01*
X85359604Y-90830763D01*
X85330001Y-90886147D01*
X85300397Y-90830763D01*
X85114871Y-90604699D01*
X84932462Y-90455000D01*
X85727539Y-90455000D01*
X85545130Y-90604699D01*
X85545130Y-90604699D01*
G37*
X85545130Y-90604699D02*
X85359604Y-90830763D01*
X85330001Y-90886147D01*
X85300397Y-90830763D01*
X85114871Y-90604699D01*
X84932462Y-90455000D01*
X85727539Y-90455000D01*
X85545130Y-90604699D01*
G36*
X81635001Y-69713686D02*
G01*
X81635000Y-75431971D01*
X81628300Y-75500000D01*
X81635000Y-75568029D01*
X81635000Y-75568036D01*
X81652518Y-75745900D01*
X81655040Y-75771507D01*
X81713748Y-75965040D01*
X81734236Y-76032580D01*
X81842024Y-76234236D01*
X81862844Y-76273188D01*
X81925006Y-76348932D01*
X82035919Y-76484080D01*
X82088765Y-76527450D01*
X82392546Y-76831231D01*
X82435919Y-76884081D01*
X82646812Y-77057157D01*
X82887419Y-77185764D01*
X83148493Y-77264960D01*
X83351963Y-77285000D01*
X83351972Y-77285000D01*
X83419999Y-77291700D01*
X83488026Y-77285000D01*
X85342312Y-77285000D01*
X85438691Y-77314236D01*
X85649508Y-77335000D01*
X86590492Y-77335000D01*
X86801309Y-77314236D01*
X87071808Y-77232182D01*
X87321101Y-77098932D01*
X87539608Y-76919608D01*
X87718932Y-76701101D01*
X87852182Y-76451808D01*
X87934236Y-76181309D01*
X87961943Y-75900000D01*
X87934236Y-75618691D01*
X87852182Y-75348192D01*
X87718932Y-75098899D01*
X87539608Y-74880392D01*
X87374632Y-74745000D01*
X88015001Y-74745000D01*
X88015000Y-81023341D01*
X88008300Y-81091370D01*
X88015000Y-81159399D01*
X88015000Y-81159406D01*
X88026041Y-81271506D01*
X88035040Y-81362877D01*
X88112633Y-81618665D01*
X88114236Y-81623950D01*
X88242843Y-81864557D01*
X88273026Y-81901335D01*
X88340305Y-81983314D01*
X88415919Y-82075450D01*
X88468765Y-82118820D01*
X89041176Y-82691231D01*
X89084549Y-82744081D01*
X89295442Y-82917157D01*
X89536049Y-83045764D01*
X89797123Y-83124960D01*
X90000593Y-83145000D01*
X90000601Y-83145000D01*
X90068630Y-83151700D01*
X90136659Y-83145000D01*
X90822312Y-83145000D01*
X90918691Y-83174236D01*
X91129508Y-83195000D01*
X91270492Y-83195000D01*
X91481309Y-83174236D01*
X91751808Y-83092182D01*
X92001101Y-82958932D01*
X92219608Y-82779608D01*
X92398932Y-82561101D01*
X92451928Y-82461953D01*
X92451928Y-82700000D01*
X92464188Y-82824482D01*
X92500498Y-82944180D01*
X92559463Y-83054494D01*
X92605000Y-83109982D01*
X92605001Y-86074962D01*
X92553861Y-86198423D01*
X92605000Y-85941335D01*
X92605000Y-85658665D01*
X92549853Y-85381426D01*
X92441680Y-85120273D01*
X92284637Y-84885241D01*
X92084759Y-84685363D01*
X91849727Y-84528320D01*
X91588574Y-84420147D01*
X91311335Y-84365000D01*
X91028665Y-84365000D01*
X90751426Y-84420147D01*
X90490273Y-84528320D01*
X90255241Y-84685363D01*
X90055363Y-84885241D01*
X89898320Y-85120273D01*
X89790147Y-85381426D01*
X89735000Y-85658665D01*
X89735000Y-85941335D01*
X89790147Y-86218574D01*
X89898320Y-86479727D01*
X90055363Y-86714759D01*
X90255241Y-86914637D01*
X90490273Y-87071680D01*
X90751426Y-87179853D01*
X91028665Y-87235000D01*
X91311335Y-87235000D01*
X91588574Y-87179853D01*
X91849727Y-87071680D01*
X92084759Y-86914637D01*
X92284637Y-86714759D01*
X92441680Y-86479727D01*
X92539981Y-86242408D01*
X92485000Y-86518816D01*
X92485000Y-86821184D01*
X92543989Y-87117743D01*
X92659701Y-87397095D01*
X92827688Y-87648505D01*
X92864183Y-87685000D01*
X75318029Y-87685000D01*
X75250000Y-87678300D01*
X75181971Y-87685000D01*
X75181963Y-87685000D01*
X75010090Y-87701928D01*
X74978492Y-87705040D01*
X74717419Y-87784236D01*
X74476812Y-87912843D01*
X74476810Y-87912844D01*
X74476811Y-87912844D01*
X74318766Y-88042548D01*
X74318764Y-88042550D01*
X74265919Y-88085919D01*
X74222550Y-88138764D01*
X72875000Y-89486314D01*
X72875000Y-88212315D01*
X75287315Y-85800000D01*
X77028057Y-85800000D01*
X77055764Y-86081309D01*
X77137818Y-86351808D01*
X77271068Y-86601101D01*
X77450392Y-86819608D01*
X77668899Y-86998932D01*
X77918192Y-87132182D01*
X78188691Y-87214236D01*
X78399508Y-87235000D01*
X78540492Y-87235000D01*
X78751309Y-87214236D01*
X79021808Y-87132182D01*
X79271101Y-86998932D01*
X79489608Y-86819608D01*
X79668932Y-86601101D01*
X79802182Y-86351808D01*
X79884236Y-86081309D01*
X79911943Y-85800000D01*
X79884236Y-85518691D01*
X79802182Y-85248192D01*
X79668932Y-84998899D01*
X79489608Y-84780392D01*
X79271101Y-84601068D01*
X79021808Y-84467818D01*
X78751309Y-84385764D01*
X78540492Y-84365000D01*
X78399508Y-84365000D01*
X78188691Y-84385764D01*
X77918192Y-84467818D01*
X77668899Y-84601068D01*
X77450392Y-84780392D01*
X77271068Y-84998899D01*
X77137818Y-85248192D01*
X77055764Y-85518691D01*
X77028057Y-85800000D01*
X75287315Y-85800000D01*
X77942316Y-83145000D01*
X78107301Y-83145000D01*
X78358665Y-83195000D01*
X78641335Y-83195000D01*
X78918574Y-83139853D01*
X79179727Y-83031680D01*
X79414759Y-82874637D01*
X79614637Y-82674759D01*
X79771680Y-82439727D01*
X79879853Y-82178574D01*
X79935000Y-81901335D01*
X79935000Y-81618665D01*
X79885000Y-81367301D01*
X79885000Y-76948010D01*
X79919608Y-76919608D01*
X80098932Y-76701101D01*
X80232182Y-76451808D01*
X80314236Y-76181309D01*
X80341943Y-75900000D01*
X80314236Y-75618691D01*
X80232182Y-75348192D01*
X80098932Y-75098899D01*
X79919608Y-74880392D01*
X79701101Y-74701068D01*
X79568142Y-74630000D01*
X79701101Y-74558932D01*
X79919608Y-74379608D01*
X80098932Y-74161101D01*
X80232182Y-73911808D01*
X80314236Y-73641309D01*
X80341943Y-73360000D01*
X80314236Y-73078691D01*
X80232182Y-72808192D01*
X80098932Y-72558899D01*
X79919608Y-72340392D01*
X79701101Y-72161068D01*
X79568142Y-72090000D01*
X79701101Y-72018932D01*
X79919608Y-71839608D01*
X80098932Y-71621101D01*
X80232182Y-71371808D01*
X80314236Y-71101309D01*
X80341943Y-70820000D01*
X80314236Y-70538691D01*
X80232182Y-70268192D01*
X80098932Y-70018899D01*
X79919608Y-69800392D01*
X79806518Y-69707581D01*
X79824482Y-69705812D01*
X79944180Y-69669502D01*
X79952603Y-69665000D01*
X81586315Y-69665000D01*
X81635001Y-69713686D01*
X81635001Y-69713686D01*
G37*
X81635001Y-69713686D02*
X81635000Y-75431971D01*
X81628300Y-75500000D01*
X81635000Y-75568029D01*
X81635000Y-75568036D01*
X81652518Y-75745900D01*
X81655040Y-75771507D01*
X81713748Y-75965040D01*
X81734236Y-76032580D01*
X81842024Y-76234236D01*
X81862844Y-76273188D01*
X81925006Y-76348932D01*
X82035919Y-76484080D01*
X82088765Y-76527450D01*
X82392546Y-76831231D01*
X82435919Y-76884081D01*
X82646812Y-77057157D01*
X82887419Y-77185764D01*
X83148493Y-77264960D01*
X83351963Y-77285000D01*
X83351972Y-77285000D01*
X83419999Y-77291700D01*
X83488026Y-77285000D01*
X85342312Y-77285000D01*
X85438691Y-77314236D01*
X85649508Y-77335000D01*
X86590492Y-77335000D01*
X86801309Y-77314236D01*
X87071808Y-77232182D01*
X87321101Y-77098932D01*
X87539608Y-76919608D01*
X87718932Y-76701101D01*
X87852182Y-76451808D01*
X87934236Y-76181309D01*
X87961943Y-75900000D01*
X87934236Y-75618691D01*
X87852182Y-75348192D01*
X87718932Y-75098899D01*
X87539608Y-74880392D01*
X87374632Y-74745000D01*
X88015001Y-74745000D01*
X88015000Y-81023341D01*
X88008300Y-81091370D01*
X88015000Y-81159399D01*
X88015000Y-81159406D01*
X88026041Y-81271506D01*
X88035040Y-81362877D01*
X88112633Y-81618665D01*
X88114236Y-81623950D01*
X88242843Y-81864557D01*
X88273026Y-81901335D01*
X88340305Y-81983314D01*
X88415919Y-82075450D01*
X88468765Y-82118820D01*
X89041176Y-82691231D01*
X89084549Y-82744081D01*
X89295442Y-82917157D01*
X89536049Y-83045764D01*
X89797123Y-83124960D01*
X90000593Y-83145000D01*
X90000601Y-83145000D01*
X90068630Y-83151700D01*
X90136659Y-83145000D01*
X90822312Y-83145000D01*
X90918691Y-83174236D01*
X91129508Y-83195000D01*
X91270492Y-83195000D01*
X91481309Y-83174236D01*
X91751808Y-83092182D01*
X92001101Y-82958932D01*
X92219608Y-82779608D01*
X92398932Y-82561101D01*
X92451928Y-82461953D01*
X92451928Y-82700000D01*
X92464188Y-82824482D01*
X92500498Y-82944180D01*
X92559463Y-83054494D01*
X92605000Y-83109982D01*
X92605001Y-86074962D01*
X92553861Y-86198423D01*
X92605000Y-85941335D01*
X92605000Y-85658665D01*
X92549853Y-85381426D01*
X92441680Y-85120273D01*
X92284637Y-84885241D01*
X92084759Y-84685363D01*
X91849727Y-84528320D01*
X91588574Y-84420147D01*
X91311335Y-84365000D01*
X91028665Y-84365000D01*
X90751426Y-84420147D01*
X90490273Y-84528320D01*
X90255241Y-84685363D01*
X90055363Y-84885241D01*
X89898320Y-85120273D01*
X89790147Y-85381426D01*
X89735000Y-85658665D01*
X89735000Y-85941335D01*
X89790147Y-86218574D01*
X89898320Y-86479727D01*
X90055363Y-86714759D01*
X90255241Y-86914637D01*
X90490273Y-87071680D01*
X90751426Y-87179853D01*
X91028665Y-87235000D01*
X91311335Y-87235000D01*
X91588574Y-87179853D01*
X91849727Y-87071680D01*
X92084759Y-86914637D01*
X92284637Y-86714759D01*
X92441680Y-86479727D01*
X92539981Y-86242408D01*
X92485000Y-86518816D01*
X92485000Y-86821184D01*
X92543989Y-87117743D01*
X92659701Y-87397095D01*
X92827688Y-87648505D01*
X92864183Y-87685000D01*
X75318029Y-87685000D01*
X75250000Y-87678300D01*
X75181971Y-87685000D01*
X75181963Y-87685000D01*
X75010090Y-87701928D01*
X74978492Y-87705040D01*
X74717419Y-87784236D01*
X74476812Y-87912843D01*
X74476810Y-87912844D01*
X74476811Y-87912844D01*
X74318766Y-88042548D01*
X74318764Y-88042550D01*
X74265919Y-88085919D01*
X74222550Y-88138764D01*
X72875000Y-89486314D01*
X72875000Y-88212315D01*
X75287315Y-85800000D01*
X77028057Y-85800000D01*
X77055764Y-86081309D01*
X77137818Y-86351808D01*
X77271068Y-86601101D01*
X77450392Y-86819608D01*
X77668899Y-86998932D01*
X77918192Y-87132182D01*
X78188691Y-87214236D01*
X78399508Y-87235000D01*
X78540492Y-87235000D01*
X78751309Y-87214236D01*
X79021808Y-87132182D01*
X79271101Y-86998932D01*
X79489608Y-86819608D01*
X79668932Y-86601101D01*
X79802182Y-86351808D01*
X79884236Y-86081309D01*
X79911943Y-85800000D01*
X79884236Y-85518691D01*
X79802182Y-85248192D01*
X79668932Y-84998899D01*
X79489608Y-84780392D01*
X79271101Y-84601068D01*
X79021808Y-84467818D01*
X78751309Y-84385764D01*
X78540492Y-84365000D01*
X78399508Y-84365000D01*
X78188691Y-84385764D01*
X77918192Y-84467818D01*
X77668899Y-84601068D01*
X77450392Y-84780392D01*
X77271068Y-84998899D01*
X77137818Y-85248192D01*
X77055764Y-85518691D01*
X77028057Y-85800000D01*
X75287315Y-85800000D01*
X77942316Y-83145000D01*
X78107301Y-83145000D01*
X78358665Y-83195000D01*
X78641335Y-83195000D01*
X78918574Y-83139853D01*
X79179727Y-83031680D01*
X79414759Y-82874637D01*
X79614637Y-82674759D01*
X79771680Y-82439727D01*
X79879853Y-82178574D01*
X79935000Y-81901335D01*
X79935000Y-81618665D01*
X79885000Y-81367301D01*
X79885000Y-76948010D01*
X79919608Y-76919608D01*
X80098932Y-76701101D01*
X80232182Y-76451808D01*
X80314236Y-76181309D01*
X80341943Y-75900000D01*
X80314236Y-75618691D01*
X80232182Y-75348192D01*
X80098932Y-75098899D01*
X79919608Y-74880392D01*
X79701101Y-74701068D01*
X79568142Y-74630000D01*
X79701101Y-74558932D01*
X79919608Y-74379608D01*
X80098932Y-74161101D01*
X80232182Y-73911808D01*
X80314236Y-73641309D01*
X80341943Y-73360000D01*
X80314236Y-73078691D01*
X80232182Y-72808192D01*
X80098932Y-72558899D01*
X79919608Y-72340392D01*
X79701101Y-72161068D01*
X79568142Y-72090000D01*
X79701101Y-72018932D01*
X79919608Y-71839608D01*
X80098932Y-71621101D01*
X80232182Y-71371808D01*
X80314236Y-71101309D01*
X80341943Y-70820000D01*
X80314236Y-70538691D01*
X80232182Y-70268192D01*
X80098932Y-70018899D01*
X79919608Y-69800392D01*
X79806518Y-69707581D01*
X79824482Y-69705812D01*
X79944180Y-69669502D01*
X79952603Y-69665000D01*
X81586315Y-69665000D01*
X81635001Y-69713686D01*
G36*
X95551495Y-82992312D02*
G01*
X95802905Y-83160299D01*
X96082257Y-83276011D01*
X96378816Y-83335000D01*
X96681184Y-83335000D01*
X96977743Y-83276011D01*
X97197462Y-83185000D01*
X97229107Y-83185000D01*
X97885000Y-83840893D01*
X97885000Y-85297326D01*
X97814494Y-85239463D01*
X97704180Y-85180498D01*
X97584482Y-85144188D01*
X97460000Y-85131928D01*
X95660000Y-85131928D01*
X95535518Y-85144188D01*
X95415820Y-85180498D01*
X95375000Y-85202317D01*
X95375000Y-83109981D01*
X95420537Y-83054494D01*
X95479502Y-82944180D01*
X95485056Y-82925873D01*
X95551495Y-82992312D01*
X95551495Y-82992312D01*
G37*
X95551495Y-82992312D02*
X95802905Y-83160299D01*
X96082257Y-83276011D01*
X96378816Y-83335000D01*
X96681184Y-83335000D01*
X96977743Y-83276011D01*
X97197462Y-83185000D01*
X97229107Y-83185000D01*
X97885000Y-83840893D01*
X97885000Y-85297326D01*
X97814494Y-85239463D01*
X97704180Y-85180498D01*
X97584482Y-85144188D01*
X97460000Y-85131928D01*
X95660000Y-85131928D01*
X95535518Y-85144188D01*
X95415820Y-85180498D01*
X95375000Y-85202317D01*
X95375000Y-83109981D01*
X95420537Y-83054494D01*
X95479502Y-82944180D01*
X95485056Y-82925873D01*
X95551495Y-82992312D01*
G36*
X97505001Y-74206313D02*
G01*
X95627726Y-76083589D01*
X95538899Y-76131068D01*
X95320392Y-76310392D01*
X95141068Y-76528899D01*
X95007818Y-76778192D01*
X94925764Y-77048691D01*
X94898057Y-77330000D01*
X94925764Y-77611309D01*
X95007818Y-77881808D01*
X95141068Y-78131101D01*
X95145001Y-78135893D01*
X95145000Y-80316282D01*
X95134180Y-80310498D01*
X95014482Y-80274188D01*
X94890000Y-80261928D01*
X93090000Y-80261928D01*
X92965518Y-80274188D01*
X92845820Y-80310498D01*
X92735506Y-80369463D01*
X92638815Y-80448815D01*
X92559463Y-80545506D01*
X92500498Y-80655820D01*
X92464188Y-80775518D01*
X92451928Y-80900000D01*
X92451928Y-81058047D01*
X92398932Y-80958899D01*
X92219608Y-80740392D01*
X92001101Y-80561068D01*
X91751808Y-80427818D01*
X91481309Y-80345764D01*
X91270492Y-80325000D01*
X91129508Y-80325000D01*
X90918691Y-80345764D01*
X90822312Y-80375000D01*
X90785000Y-80375000D01*
X90785000Y-78324396D01*
X90895241Y-78434637D01*
X91130273Y-78591680D01*
X91391426Y-78699853D01*
X91668665Y-78755000D01*
X91951335Y-78755000D01*
X92228574Y-78699853D01*
X92489727Y-78591680D01*
X92724759Y-78434637D01*
X92924637Y-78234759D01*
X93081680Y-77999727D01*
X93189853Y-77738574D01*
X93245000Y-77461335D01*
X93245000Y-77178665D01*
X93195000Y-76927301D01*
X93195000Y-76256659D01*
X93201700Y-76188630D01*
X93195000Y-76120601D01*
X93195000Y-76120593D01*
X93176084Y-75928533D01*
X93174960Y-75917122D01*
X93095764Y-75656049D01*
X92967157Y-75415442D01*
X92794081Y-75204549D01*
X92741236Y-75161180D01*
X90008824Y-72428769D01*
X89965451Y-72375919D01*
X89754558Y-72202843D01*
X89513951Y-72074236D01*
X89252877Y-71995040D01*
X89049407Y-71975000D01*
X89049399Y-71975000D01*
X88981370Y-71968300D01*
X88913341Y-71975000D01*
X88888029Y-71975000D01*
X88820000Y-71968300D01*
X88751971Y-71975000D01*
X87374632Y-71975000D01*
X87539608Y-71839608D01*
X87718932Y-71621101D01*
X87852182Y-71371808D01*
X87934236Y-71101309D01*
X87961943Y-70820000D01*
X87934236Y-70538691D01*
X87852182Y-70268192D01*
X87718932Y-70018899D01*
X87539608Y-69800392D01*
X87374632Y-69665000D01*
X92621971Y-69665000D01*
X92690000Y-69671700D01*
X92758029Y-69665000D01*
X92758037Y-69665000D01*
X92961507Y-69644960D01*
X93222581Y-69565764D01*
X93463188Y-69437157D01*
X93674081Y-69264081D01*
X93717454Y-69211231D01*
X97041663Y-65887023D01*
X97254759Y-65744637D01*
X97454637Y-65544759D01*
X97505000Y-65469385D01*
X97505001Y-74206313D01*
X97505001Y-74206313D01*
G37*
X97505001Y-74206313D02*
X95627726Y-76083589D01*
X95538899Y-76131068D01*
X95320392Y-76310392D01*
X95141068Y-76528899D01*
X95007818Y-76778192D01*
X94925764Y-77048691D01*
X94898057Y-77330000D01*
X94925764Y-77611309D01*
X95007818Y-77881808D01*
X95141068Y-78131101D01*
X95145001Y-78135893D01*
X95145000Y-80316282D01*
X95134180Y-80310498D01*
X95014482Y-80274188D01*
X94890000Y-80261928D01*
X93090000Y-80261928D01*
X92965518Y-80274188D01*
X92845820Y-80310498D01*
X92735506Y-80369463D01*
X92638815Y-80448815D01*
X92559463Y-80545506D01*
X92500498Y-80655820D01*
X92464188Y-80775518D01*
X92451928Y-80900000D01*
X92451928Y-81058047D01*
X92398932Y-80958899D01*
X92219608Y-80740392D01*
X92001101Y-80561068D01*
X91751808Y-80427818D01*
X91481309Y-80345764D01*
X91270492Y-80325000D01*
X91129508Y-80325000D01*
X90918691Y-80345764D01*
X90822312Y-80375000D01*
X90785000Y-80375000D01*
X90785000Y-78324396D01*
X90895241Y-78434637D01*
X91130273Y-78591680D01*
X91391426Y-78699853D01*
X91668665Y-78755000D01*
X91951335Y-78755000D01*
X92228574Y-78699853D01*
X92489727Y-78591680D01*
X92724759Y-78434637D01*
X92924637Y-78234759D01*
X93081680Y-77999727D01*
X93189853Y-77738574D01*
X93245000Y-77461335D01*
X93245000Y-77178665D01*
X93195000Y-76927301D01*
X93195000Y-76256659D01*
X93201700Y-76188630D01*
X93195000Y-76120601D01*
X93195000Y-76120593D01*
X93176084Y-75928533D01*
X93174960Y-75917122D01*
X93095764Y-75656049D01*
X92967157Y-75415442D01*
X92794081Y-75204549D01*
X92741236Y-75161180D01*
X90008824Y-72428769D01*
X89965451Y-72375919D01*
X89754558Y-72202843D01*
X89513951Y-72074236D01*
X89252877Y-71995040D01*
X89049407Y-71975000D01*
X89049399Y-71975000D01*
X88981370Y-71968300D01*
X88913341Y-71975000D01*
X88888029Y-71975000D01*
X88820000Y-71968300D01*
X88751971Y-71975000D01*
X87374632Y-71975000D01*
X87539608Y-71839608D01*
X87718932Y-71621101D01*
X87852182Y-71371808D01*
X87934236Y-71101309D01*
X87961943Y-70820000D01*
X87934236Y-70538691D01*
X87852182Y-70268192D01*
X87718932Y-70018899D01*
X87539608Y-69800392D01*
X87374632Y-69665000D01*
X92621971Y-69665000D01*
X92690000Y-69671700D01*
X92758029Y-69665000D01*
X92758037Y-69665000D01*
X92961507Y-69644960D01*
X93222581Y-69565764D01*
X93463188Y-69437157D01*
X93674081Y-69264081D01*
X93717454Y-69211231D01*
X97041663Y-65887023D01*
X97254759Y-65744637D01*
X97454637Y-65544759D01*
X97505000Y-65469385D01*
X97505001Y-74206313D01*
G36*
X84521068Y-74161101D02*
G01*
X84700392Y-74379608D01*
X84865368Y-74515000D01*
X84405000Y-74515000D01*
X84405000Y-73943953D01*
X84521068Y-74161101D01*
X84521068Y-74161101D01*
G37*
X84521068Y-74161101D02*
X84700392Y-74379608D01*
X84865368Y-74515000D01*
X84405000Y-74515000D01*
X84405000Y-73943953D01*
X84521068Y-74161101D01*
G36*
X84521068Y-71621101D02*
G01*
X84700392Y-71839608D01*
X84918899Y-72018932D01*
X85051858Y-72090000D01*
X84918899Y-72161068D01*
X84700392Y-72340392D01*
X84521068Y-72558899D01*
X84405000Y-72776047D01*
X84405000Y-71403953D01*
X84521068Y-71621101D01*
X84521068Y-71621101D01*
G37*
X84521068Y-71621101D02*
X84700392Y-71839608D01*
X84918899Y-72018932D01*
X85051858Y-72090000D01*
X84918899Y-72161068D01*
X84700392Y-72340392D01*
X84521068Y-72558899D01*
X84405000Y-72776047D01*
X84405000Y-71403953D01*
X84521068Y-71621101D01*
G36*
X63196315Y-63945000D02*
G01*
X62740492Y-63945000D01*
X62951309Y-63924236D01*
X63221808Y-63842182D01*
X63387923Y-63753392D01*
X63196315Y-63945000D01*
X63196315Y-63945000D01*
G37*
X63196315Y-63945000D02*
X62740492Y-63945000D01*
X62951309Y-63924236D01*
X63221808Y-63842182D01*
X63387923Y-63753392D01*
X63196315Y-63945000D01*
G36*
X64762551Y-62378763D02*
G01*
X63913392Y-63227923D01*
X63916411Y-63222274D01*
X64774583Y-62364102D01*
X64762551Y-62378763D01*
X64762551Y-62378763D01*
G37*
X64762551Y-62378763D02*
X63913392Y-63227923D01*
X63916411Y-63222274D01*
X64774583Y-62364102D01*
X64762551Y-62378763D01*
G36*
X76621928Y-53820000D02*
G01*
X76634188Y-53944482D01*
X76670498Y-54064180D01*
X76729463Y-54174494D01*
X76808815Y-54271185D01*
X76905506Y-54350537D01*
X77015820Y-54409502D01*
X77135518Y-54445812D01*
X77153482Y-54447581D01*
X77040392Y-54540392D01*
X76861068Y-54758899D01*
X76727818Y-55008192D01*
X76645764Y-55278691D01*
X76618057Y-55560000D01*
X76645764Y-55841309D01*
X76727818Y-56111808D01*
X76861068Y-56361101D01*
X77040392Y-56579608D01*
X77205368Y-56715000D01*
X75803620Y-56715000D01*
X75641309Y-56665764D01*
X75430492Y-56645000D01*
X75289508Y-56645000D01*
X75078691Y-56665764D01*
X74808192Y-56747818D01*
X74558899Y-56881068D01*
X74340392Y-57060392D01*
X74161068Y-57278899D01*
X74027818Y-57528192D01*
X73945764Y-57798691D01*
X73918057Y-58080000D01*
X73945764Y-58361309D01*
X74027818Y-58631808D01*
X74161068Y-58881101D01*
X74340392Y-59099608D01*
X74558899Y-59278932D01*
X74808192Y-59412182D01*
X75078691Y-59494236D01*
X75289508Y-59515000D01*
X75430492Y-59515000D01*
X75641309Y-59494236D01*
X75671756Y-59485000D01*
X76464184Y-59485000D01*
X76452930Y-59494236D01*
X76308766Y-59612548D01*
X76308764Y-59612550D01*
X76255919Y-59655919D01*
X76212550Y-59708764D01*
X74668339Y-61252976D01*
X74455241Y-61395363D01*
X74255363Y-61595241D01*
X74112975Y-61808340D01*
X73996316Y-61924999D01*
X65858030Y-61924999D01*
X65790001Y-61918299D01*
X65721972Y-61924999D01*
X65721964Y-61924999D01*
X65518494Y-61945039D01*
X65257420Y-62024235D01*
X65016813Y-62152842D01*
X64858767Y-62282547D01*
X64858765Y-62282549D01*
X64844104Y-62294581D01*
X70761236Y-56377450D01*
X70814081Y-56334081D01*
X70875933Y-56258715D01*
X70987156Y-56123189D01*
X70993240Y-56111808D01*
X71115764Y-55882581D01*
X71194960Y-55621507D01*
X71215000Y-55418037D01*
X71215000Y-55418028D01*
X71221700Y-55350001D01*
X71215000Y-55281974D01*
X71215000Y-53747454D01*
X71274180Y-53729502D01*
X71384494Y-53670537D01*
X71481185Y-53591185D01*
X71560537Y-53494494D01*
X71619502Y-53384180D01*
X71637454Y-53325000D01*
X76621928Y-53325000D01*
X76621928Y-53820000D01*
X76621928Y-53820000D01*
G37*
X76621928Y-53820000D02*
X76634188Y-53944482D01*
X76670498Y-54064180D01*
X76729463Y-54174494D01*
X76808815Y-54271185D01*
X76905506Y-54350537D01*
X77015820Y-54409502D01*
X77135518Y-54445812D01*
X77153482Y-54447581D01*
X77040392Y-54540392D01*
X76861068Y-54758899D01*
X76727818Y-55008192D01*
X76645764Y-55278691D01*
X76618057Y-55560000D01*
X76645764Y-55841309D01*
X76727818Y-56111808D01*
X76861068Y-56361101D01*
X77040392Y-56579608D01*
X77205368Y-56715000D01*
X75803620Y-56715000D01*
X75641309Y-56665764D01*
X75430492Y-56645000D01*
X75289508Y-56645000D01*
X75078691Y-56665764D01*
X74808192Y-56747818D01*
X74558899Y-56881068D01*
X74340392Y-57060392D01*
X74161068Y-57278899D01*
X74027818Y-57528192D01*
X73945764Y-57798691D01*
X73918057Y-58080000D01*
X73945764Y-58361309D01*
X74027818Y-58631808D01*
X74161068Y-58881101D01*
X74340392Y-59099608D01*
X74558899Y-59278932D01*
X74808192Y-59412182D01*
X75078691Y-59494236D01*
X75289508Y-59515000D01*
X75430492Y-59515000D01*
X75641309Y-59494236D01*
X75671756Y-59485000D01*
X76464184Y-59485000D01*
X76452930Y-59494236D01*
X76308766Y-59612548D01*
X76308764Y-59612550D01*
X76255919Y-59655919D01*
X76212550Y-59708764D01*
X74668339Y-61252976D01*
X74455241Y-61395363D01*
X74255363Y-61595241D01*
X74112975Y-61808340D01*
X73996316Y-61924999D01*
X65858030Y-61924999D01*
X65790001Y-61918299D01*
X65721972Y-61924999D01*
X65721964Y-61924999D01*
X65518494Y-61945039D01*
X65257420Y-62024235D01*
X65016813Y-62152842D01*
X64858767Y-62282547D01*
X64858765Y-62282549D01*
X64844104Y-62294581D01*
X70761236Y-56377450D01*
X70814081Y-56334081D01*
X70875933Y-56258715D01*
X70987156Y-56123189D01*
X70993240Y-56111808D01*
X71115764Y-55882581D01*
X71194960Y-55621507D01*
X71215000Y-55418037D01*
X71215000Y-55418028D01*
X71221700Y-55350001D01*
X71215000Y-55281974D01*
X71215000Y-53747454D01*
X71274180Y-53729502D01*
X71384494Y-53670537D01*
X71481185Y-53591185D01*
X71560537Y-53494494D01*
X71619502Y-53384180D01*
X71637454Y-53325000D01*
X76621928Y-53325000D01*
X76621928Y-53820000D01*
G36*
X99805001Y-58486315D02*
G01*
X98487452Y-57168767D01*
X98444081Y-57115919D01*
X98233188Y-56942843D01*
X97992581Y-56814236D01*
X97731507Y-56735040D01*
X97528037Y-56715000D01*
X97528029Y-56715000D01*
X97460000Y-56708300D01*
X97391971Y-56715000D01*
X87334632Y-56715000D01*
X87499608Y-56579608D01*
X87678932Y-56361101D01*
X87812182Y-56111808D01*
X87894236Y-55841309D01*
X87921943Y-55560000D01*
X87894236Y-55278691D01*
X87812182Y-55008192D01*
X87678932Y-54758899D01*
X87499608Y-54540392D01*
X87334632Y-54405000D01*
X99805000Y-54405000D01*
X99805001Y-58486315D01*
X99805001Y-58486315D01*
G37*
X99805001Y-58486315D02*
X98487452Y-57168767D01*
X98444081Y-57115919D01*
X98233188Y-56942843D01*
X97992581Y-56814236D01*
X97731507Y-56735040D01*
X97528037Y-56715000D01*
X97528029Y-56715000D01*
X97460000Y-56708300D01*
X97391971Y-56715000D01*
X87334632Y-56715000D01*
X87499608Y-56579608D01*
X87678932Y-56361101D01*
X87812182Y-56111808D01*
X87894236Y-55841309D01*
X87921943Y-55560000D01*
X87894236Y-55278691D01*
X87812182Y-55008192D01*
X87678932Y-54758899D01*
X87499608Y-54540392D01*
X87334632Y-54405000D01*
X99805000Y-54405000D01*
X99805001Y-58486315D01*
G36*
X111109604Y-35329237D02*
G01*
X111295130Y-35555301D01*
X111521194Y-35740827D01*
X111779109Y-35878685D01*
X112058963Y-35963578D01*
X112350000Y-35992243D01*
X112641038Y-35963578D01*
X112920892Y-35878685D01*
X113178807Y-35740827D01*
X113404871Y-35555301D01*
X113449008Y-35501520D01*
X113780000Y-35534120D01*
X113787618Y-35533370D01*
X113878648Y-35582026D01*
X114281097Y-35704108D01*
X114594748Y-35735000D01*
X114875944Y-35735000D01*
X115585000Y-36444056D01*
X115585001Y-42566314D01*
X115556315Y-42595000D01*
X114512354Y-42595000D01*
X114619261Y-42523567D01*
X114813567Y-42329261D01*
X114966233Y-42100780D01*
X115071391Y-41846907D01*
X115125000Y-41577396D01*
X115125000Y-41302604D01*
X115071391Y-41033093D01*
X114966233Y-40779220D01*
X114813567Y-40550739D01*
X114619261Y-40356433D01*
X114526533Y-40294474D01*
X114614482Y-40285812D01*
X114734180Y-40249502D01*
X114844494Y-40190537D01*
X114941185Y-40111185D01*
X115020537Y-40014494D01*
X115079502Y-39904180D01*
X115115812Y-39784482D01*
X115128072Y-39660000D01*
X115128072Y-38140000D01*
X115115812Y-38015518D01*
X115079502Y-37895820D01*
X115020537Y-37785506D01*
X114941185Y-37688815D01*
X114844494Y-37609463D01*
X114734180Y-37550498D01*
X114614482Y-37514188D01*
X114490000Y-37501928D01*
X112970000Y-37501928D01*
X112845518Y-37514188D01*
X112842841Y-37515000D01*
X109517159Y-37515000D01*
X109514482Y-37514188D01*
X109390000Y-37501928D01*
X109190614Y-37501928D01*
X108695000Y-37006315D01*
X108695000Y-36958097D01*
X108701701Y-36890060D01*
X108674960Y-36618554D01*
X108662826Y-36578553D01*
X108655000Y-36552754D01*
X108655000Y-35433292D01*
X108755130Y-35555301D01*
X108981194Y-35740827D01*
X109239109Y-35878685D01*
X109518963Y-35963578D01*
X109810000Y-35992243D01*
X110101038Y-35963578D01*
X110380892Y-35878685D01*
X110638807Y-35740827D01*
X110864871Y-35555301D01*
X111050397Y-35329237D01*
X111080001Y-35273853D01*
X111109604Y-35329237D01*
X111109604Y-35329237D01*
G37*
X111109604Y-35329237D02*
X111295130Y-35555301D01*
X111521194Y-35740827D01*
X111779109Y-35878685D01*
X112058963Y-35963578D01*
X112350000Y-35992243D01*
X112641038Y-35963578D01*
X112920892Y-35878685D01*
X113178807Y-35740827D01*
X113404871Y-35555301D01*
X113449008Y-35501520D01*
X113780000Y-35534120D01*
X113787618Y-35533370D01*
X113878648Y-35582026D01*
X114281097Y-35704108D01*
X114594748Y-35735000D01*
X114875944Y-35735000D01*
X115585000Y-36444056D01*
X115585001Y-42566314D01*
X115556315Y-42595000D01*
X114512354Y-42595000D01*
X114619261Y-42523567D01*
X114813567Y-42329261D01*
X114966233Y-42100780D01*
X115071391Y-41846907D01*
X115125000Y-41577396D01*
X115125000Y-41302604D01*
X115071391Y-41033093D01*
X114966233Y-40779220D01*
X114813567Y-40550739D01*
X114619261Y-40356433D01*
X114526533Y-40294474D01*
X114614482Y-40285812D01*
X114734180Y-40249502D01*
X114844494Y-40190537D01*
X114941185Y-40111185D01*
X115020537Y-40014494D01*
X115079502Y-39904180D01*
X115115812Y-39784482D01*
X115128072Y-39660000D01*
X115128072Y-38140000D01*
X115115812Y-38015518D01*
X115079502Y-37895820D01*
X115020537Y-37785506D01*
X114941185Y-37688815D01*
X114844494Y-37609463D01*
X114734180Y-37550498D01*
X114614482Y-37514188D01*
X114490000Y-37501928D01*
X112970000Y-37501928D01*
X112845518Y-37514188D01*
X112842841Y-37515000D01*
X109517159Y-37515000D01*
X109514482Y-37514188D01*
X109390000Y-37501928D01*
X109190614Y-37501928D01*
X108695000Y-37006315D01*
X108695000Y-36958097D01*
X108701701Y-36890060D01*
X108674960Y-36618554D01*
X108662826Y-36578553D01*
X108655000Y-36552754D01*
X108655000Y-35433292D01*
X108755130Y-35555301D01*
X108981194Y-35740827D01*
X109239109Y-35878685D01*
X109518963Y-35963578D01*
X109810000Y-35992243D01*
X110101038Y-35963578D01*
X110380892Y-35878685D01*
X110638807Y-35740827D01*
X110864871Y-35555301D01*
X111050397Y-35329237D01*
X111080001Y-35273853D01*
X111109604Y-35329237D01*
M02*
