%TF.GenerationSoftware,KiCad,Pcbnew,(5.1.2)-1*%
%TF.CreationDate,2019-05-20T11:56:39+09:00*%
%TF.ProjectId,12f683MPPT,31326636-3833-44d5-9050-542e6b696361,rev?*%
%TF.SameCoordinates,Original*%
%TF.FileFunction,Soldermask,Bot*%
%TF.FilePolarity,Negative*%
%FSLAX46Y46*%
G04 Gerber Fmt 4.6, Leading zero omitted, Abs format (unit mm)*
G04 Created by KiCad (PCBNEW (5.1.2)-1) date 2019-05-20 11:56:39*
%MOMM*%
%LPD*%
G04 APERTURE LIST*
%ADD10C,0.100000*%
G04 APERTURE END LIST*
D10*
G36*
X131078433Y-94184893D02*
G01*
X131168657Y-94202839D01*
X131274267Y-94246585D01*
X131423621Y-94308449D01*
X131423622Y-94308450D01*
X131653086Y-94461772D01*
X131848228Y-94656914D01*
X131914687Y-94756378D01*
X132001551Y-94886379D01*
X132053313Y-95011343D01*
X132086590Y-95091680D01*
X132107161Y-95141344D01*
X132161000Y-95412012D01*
X132161000Y-95687988D01*
X132107161Y-95958656D01*
X132001551Y-96213621D01*
X132001550Y-96213622D01*
X131848228Y-96443086D01*
X131653086Y-96638228D01*
X131618180Y-96661551D01*
X131423621Y-96791551D01*
X131274267Y-96853415D01*
X131168657Y-96897161D01*
X131078433Y-96915107D01*
X130897988Y-96951000D01*
X130622012Y-96951000D01*
X130441567Y-96915107D01*
X130351343Y-96897161D01*
X130245733Y-96853415D01*
X130096379Y-96791551D01*
X129901820Y-96661551D01*
X129866914Y-96638228D01*
X129671772Y-96443086D01*
X129518450Y-96213622D01*
X129518449Y-96213621D01*
X129412839Y-95958656D01*
X129359000Y-95687988D01*
X129359000Y-95412012D01*
X129412839Y-95141344D01*
X129433411Y-95091680D01*
X129466687Y-95011343D01*
X129518449Y-94886379D01*
X129605313Y-94756378D01*
X129671772Y-94656914D01*
X129866914Y-94461772D01*
X130096378Y-94308450D01*
X130096379Y-94308449D01*
X130245733Y-94246585D01*
X130351343Y-94202839D01*
X130441567Y-94184893D01*
X130622012Y-94149000D01*
X130897988Y-94149000D01*
X131078433Y-94184893D01*
X131078433Y-94184893D01*
G37*
G36*
X40518433Y-94054893D02*
G01*
X40608657Y-94072839D01*
X40714267Y-94116585D01*
X40863621Y-94178449D01*
X40939763Y-94229325D01*
X41093086Y-94331772D01*
X41288228Y-94526914D01*
X41375091Y-94656914D01*
X41441551Y-94756379D01*
X41547161Y-95011344D01*
X41573020Y-95141344D01*
X41601000Y-95282014D01*
X41601000Y-95557986D01*
X41553436Y-95797112D01*
X41547161Y-95828656D01*
X41441551Y-96083621D01*
X41441550Y-96083622D01*
X41288228Y-96313086D01*
X41093086Y-96508228D01*
X40939763Y-96610675D01*
X40863621Y-96661551D01*
X40714267Y-96723415D01*
X40608657Y-96767161D01*
X40518433Y-96785107D01*
X40337988Y-96821000D01*
X40062012Y-96821000D01*
X39881567Y-96785107D01*
X39791343Y-96767161D01*
X39685733Y-96723415D01*
X39536379Y-96661551D01*
X39460237Y-96610675D01*
X39306914Y-96508228D01*
X39111772Y-96313086D01*
X38958450Y-96083622D01*
X38958449Y-96083621D01*
X38852839Y-95828656D01*
X38846565Y-95797112D01*
X38799000Y-95557986D01*
X38799000Y-95282014D01*
X38826981Y-95141344D01*
X38852839Y-95011344D01*
X38958449Y-94756379D01*
X39024909Y-94656914D01*
X39111772Y-94526914D01*
X39306914Y-94331772D01*
X39460237Y-94229325D01*
X39536379Y-94178449D01*
X39685733Y-94116585D01*
X39791343Y-94072839D01*
X39881567Y-94054893D01*
X40062012Y-94019000D01*
X40337988Y-94019000D01*
X40518433Y-94054893D01*
X40518433Y-94054893D01*
G37*
G36*
X103593651Y-92542888D02*
G01*
X103904870Y-92637296D01*
X104191680Y-92790599D01*
X104191683Y-92790601D01*
X104191684Y-92790602D01*
X104443082Y-92996918D01*
X104649398Y-93248316D01*
X104649401Y-93248320D01*
X104802704Y-93535130D01*
X104897112Y-93846349D01*
X104928988Y-94170000D01*
X104897112Y-94493651D01*
X104802704Y-94804870D01*
X104649401Y-95091680D01*
X104649399Y-95091683D01*
X104649398Y-95091684D01*
X104443082Y-95343082D01*
X104191684Y-95549398D01*
X104191680Y-95549401D01*
X103904870Y-95702704D01*
X103593651Y-95797112D01*
X103351107Y-95821000D01*
X103188893Y-95821000D01*
X102946349Y-95797112D01*
X102635130Y-95702704D01*
X102348320Y-95549401D01*
X102348316Y-95549398D01*
X102096918Y-95343082D01*
X101890602Y-95091684D01*
X101890601Y-95091683D01*
X101890599Y-95091680D01*
X101737296Y-94804870D01*
X101642888Y-94493651D01*
X101611012Y-94170000D01*
X101642888Y-93846349D01*
X101737296Y-93535130D01*
X101890599Y-93248320D01*
X101890602Y-93248316D01*
X102096918Y-92996918D01*
X102348316Y-92790602D01*
X102348317Y-92790601D01*
X102348320Y-92790599D01*
X102635130Y-92637296D01*
X102946349Y-92542888D01*
X103188893Y-92519000D01*
X103351107Y-92519000D01*
X103593651Y-92542888D01*
X103593651Y-92542888D01*
G37*
G36*
X110343651Y-92542888D02*
G01*
X110654870Y-92637296D01*
X110941680Y-92790599D01*
X110941683Y-92790601D01*
X110941684Y-92790602D01*
X111193082Y-92996918D01*
X111399398Y-93248316D01*
X111399401Y-93248320D01*
X111552704Y-93535130D01*
X111647112Y-93846349D01*
X111678988Y-94170000D01*
X111647112Y-94493651D01*
X111552704Y-94804870D01*
X111399401Y-95091680D01*
X111399399Y-95091683D01*
X111399398Y-95091684D01*
X111193082Y-95343082D01*
X110941684Y-95549398D01*
X110941680Y-95549401D01*
X110654870Y-95702704D01*
X110343651Y-95797112D01*
X110101107Y-95821000D01*
X109938893Y-95821000D01*
X109696349Y-95797112D01*
X109385130Y-95702704D01*
X109098320Y-95549401D01*
X109098316Y-95549398D01*
X108846918Y-95343082D01*
X108640602Y-95091684D01*
X108640601Y-95091683D01*
X108640599Y-95091680D01*
X108487296Y-94804870D01*
X108392888Y-94493651D01*
X108361012Y-94170000D01*
X108392888Y-93846349D01*
X108487296Y-93535130D01*
X108640599Y-93248320D01*
X108640602Y-93248316D01*
X108846918Y-92996918D01*
X109098316Y-92790602D01*
X109098317Y-92790601D01*
X109098320Y-92790599D01*
X109385130Y-92637296D01*
X109696349Y-92542888D01*
X109938893Y-92519000D01*
X110101107Y-92519000D01*
X110343651Y-92542888D01*
X110343651Y-92542888D01*
G37*
G36*
X86776554Y-90771972D02*
G01*
X86946324Y-90823471D01*
X86946327Y-90823472D01*
X87102780Y-90907098D01*
X87239922Y-91019648D01*
X87352472Y-91156790D01*
X87436098Y-91313243D01*
X87436099Y-91313246D01*
X87487598Y-91483016D01*
X87500630Y-91615333D01*
X87500630Y-93504667D01*
X87487598Y-93636984D01*
X87443911Y-93781000D01*
X87436098Y-93806757D01*
X87352472Y-93963210D01*
X87239922Y-94100352D01*
X87102780Y-94212902D01*
X86946326Y-94296528D01*
X86946323Y-94296529D01*
X86776553Y-94348028D01*
X86600000Y-94365417D01*
X86423446Y-94348028D01*
X86253676Y-94296529D01*
X86253673Y-94296528D01*
X86097220Y-94212902D01*
X86019356Y-94149000D01*
X85960078Y-94100352D01*
X85893314Y-94019000D01*
X85847528Y-93963210D01*
X85763902Y-93806756D01*
X85741506Y-93732925D01*
X85712402Y-93636983D01*
X85699370Y-93504666D01*
X85699371Y-91615333D01*
X85712403Y-91483016D01*
X85763902Y-91313246D01*
X85763903Y-91313243D01*
X85847529Y-91156790D01*
X85960079Y-91019648D01*
X86097221Y-90907098D01*
X86253674Y-90823472D01*
X86253677Y-90823471D01*
X86423447Y-90771972D01*
X86600000Y-90754583D01*
X86776554Y-90771972D01*
X86776554Y-90771972D01*
G37*
G36*
X81696554Y-90771972D02*
G01*
X81866324Y-90823471D01*
X81866327Y-90823472D01*
X82022780Y-90907098D01*
X82159922Y-91019648D01*
X82272472Y-91156790D01*
X82356098Y-91313243D01*
X82356099Y-91313246D01*
X82407598Y-91483016D01*
X82420630Y-91615333D01*
X82420630Y-93504667D01*
X82407598Y-93636984D01*
X82363911Y-93781000D01*
X82356098Y-93806757D01*
X82272472Y-93963210D01*
X82159922Y-94100352D01*
X82022780Y-94212902D01*
X81866326Y-94296528D01*
X81866323Y-94296529D01*
X81696553Y-94348028D01*
X81520000Y-94365417D01*
X81343446Y-94348028D01*
X81173676Y-94296529D01*
X81173673Y-94296528D01*
X81017220Y-94212902D01*
X80939356Y-94149000D01*
X80880078Y-94100352D01*
X80813314Y-94019000D01*
X80767528Y-93963210D01*
X80683902Y-93806756D01*
X80661506Y-93732925D01*
X80632402Y-93636983D01*
X80619370Y-93504666D01*
X80619371Y-91615333D01*
X80632403Y-91483016D01*
X80683902Y-91313246D01*
X80683903Y-91313243D01*
X80767529Y-91156790D01*
X80880079Y-91019648D01*
X81017221Y-90907098D01*
X81173674Y-90823472D01*
X81173677Y-90823471D01*
X81343447Y-90771972D01*
X81520000Y-90754583D01*
X81696554Y-90771972D01*
X81696554Y-90771972D01*
G37*
G36*
X84236554Y-90771972D02*
G01*
X84406324Y-90823471D01*
X84406327Y-90823472D01*
X84562780Y-90907098D01*
X84699922Y-91019648D01*
X84812472Y-91156790D01*
X84896098Y-91313243D01*
X84896099Y-91313246D01*
X84947598Y-91483016D01*
X84960630Y-91615333D01*
X84960630Y-93504667D01*
X84947598Y-93636984D01*
X84903911Y-93781000D01*
X84896098Y-93806757D01*
X84812472Y-93963210D01*
X84699922Y-94100352D01*
X84562780Y-94212902D01*
X84406326Y-94296528D01*
X84406323Y-94296529D01*
X84236553Y-94348028D01*
X84060000Y-94365417D01*
X83883446Y-94348028D01*
X83713676Y-94296529D01*
X83713673Y-94296528D01*
X83557220Y-94212902D01*
X83479356Y-94149000D01*
X83420078Y-94100352D01*
X83353314Y-94019000D01*
X83307528Y-93963210D01*
X83223902Y-93806756D01*
X83201506Y-93732925D01*
X83172402Y-93636983D01*
X83159370Y-93504666D01*
X83159371Y-91615333D01*
X83172403Y-91483016D01*
X83223902Y-91313246D01*
X83223903Y-91313243D01*
X83307529Y-91156790D01*
X83420079Y-91019648D01*
X83557221Y-90907098D01*
X83713674Y-90823472D01*
X83713677Y-90823471D01*
X83883447Y-90771972D01*
X84060000Y-90754583D01*
X84236554Y-90771972D01*
X84236554Y-90771972D01*
G37*
G36*
X120835365Y-91313243D02*
G01*
X120904903Y-91327075D01*
X121132571Y-91421378D01*
X121337466Y-91558285D01*
X121511715Y-91732534D01*
X121648622Y-91937429D01*
X121742925Y-92165097D01*
X121791000Y-92406787D01*
X121791000Y-92653213D01*
X121742925Y-92894903D01*
X121648622Y-93122571D01*
X121511715Y-93327466D01*
X121337466Y-93501715D01*
X121132571Y-93638622D01*
X121132570Y-93638623D01*
X121132569Y-93638623D01*
X120904903Y-93732925D01*
X120663214Y-93781000D01*
X120416786Y-93781000D01*
X120175097Y-93732925D01*
X119947431Y-93638623D01*
X119947430Y-93638623D01*
X119947429Y-93638622D01*
X119742534Y-93501715D01*
X119568285Y-93327466D01*
X119431378Y-93122571D01*
X119337075Y-92894903D01*
X119289000Y-92653213D01*
X119289000Y-92406787D01*
X119337075Y-92165097D01*
X119431378Y-91937429D01*
X119568285Y-91732534D01*
X119742534Y-91558285D01*
X119947429Y-91421378D01*
X120175097Y-91327075D01*
X120244635Y-91313243D01*
X120416786Y-91279000D01*
X120663214Y-91279000D01*
X120835365Y-91313243D01*
X120835365Y-91313243D01*
G37*
G36*
X48736564Y-88169389D02*
G01*
X48927833Y-88248615D01*
X48927835Y-88248616D01*
X48988274Y-88289000D01*
X49099973Y-88363635D01*
X49246365Y-88510027D01*
X49361385Y-88682167D01*
X49440611Y-88873436D01*
X49481000Y-89076484D01*
X49481000Y-89283516D01*
X49440611Y-89486564D01*
X49361385Y-89677833D01*
X49361384Y-89677835D01*
X49246365Y-89849973D01*
X49099973Y-89996365D01*
X48927835Y-90111384D01*
X48927834Y-90111385D01*
X48927833Y-90111385D01*
X48736564Y-90190611D01*
X48533516Y-90231000D01*
X48326484Y-90231000D01*
X48123436Y-90190611D01*
X47932167Y-90111385D01*
X47932166Y-90111385D01*
X47932165Y-90111384D01*
X47760027Y-89996365D01*
X47613635Y-89849973D01*
X47498616Y-89677835D01*
X47498615Y-89677833D01*
X47419389Y-89486564D01*
X47379000Y-89283516D01*
X47379000Y-89076484D01*
X47419389Y-88873436D01*
X47498615Y-88682167D01*
X47613635Y-88510027D01*
X47760027Y-88363635D01*
X47871726Y-88289000D01*
X47932165Y-88248616D01*
X47932167Y-88248615D01*
X48123436Y-88169389D01*
X48326484Y-88129000D01*
X48533516Y-88129000D01*
X48736564Y-88169389D01*
X48736564Y-88169389D01*
G37*
G36*
X44236564Y-88169389D02*
G01*
X44427833Y-88248615D01*
X44427835Y-88248616D01*
X44488274Y-88289000D01*
X44599973Y-88363635D01*
X44746365Y-88510027D01*
X44861385Y-88682167D01*
X44940611Y-88873436D01*
X44981000Y-89076484D01*
X44981000Y-89283516D01*
X44940611Y-89486564D01*
X44861385Y-89677833D01*
X44861384Y-89677835D01*
X44746365Y-89849973D01*
X44599973Y-89996365D01*
X44427835Y-90111384D01*
X44427834Y-90111385D01*
X44427833Y-90111385D01*
X44236564Y-90190611D01*
X44033516Y-90231000D01*
X43826484Y-90231000D01*
X43623436Y-90190611D01*
X43432167Y-90111385D01*
X43432166Y-90111385D01*
X43432165Y-90111384D01*
X43260027Y-89996365D01*
X43113635Y-89849973D01*
X42998616Y-89677835D01*
X42998615Y-89677833D01*
X42919389Y-89486564D01*
X42879000Y-89283516D01*
X42879000Y-89076484D01*
X42919389Y-88873436D01*
X42998615Y-88682167D01*
X43113635Y-88510027D01*
X43260027Y-88363635D01*
X43371726Y-88289000D01*
X43432165Y-88248616D01*
X43432167Y-88248615D01*
X43623436Y-88169389D01*
X43826484Y-88129000D01*
X44033516Y-88129000D01*
X44236564Y-88169389D01*
X44236564Y-88169389D01*
G37*
G36*
X55981000Y-90191000D02*
G01*
X54079000Y-90191000D01*
X54079000Y-88289000D01*
X55981000Y-88289000D01*
X55981000Y-90191000D01*
X55981000Y-90191000D01*
G37*
G36*
X131187115Y-84961313D02*
G01*
X131517589Y-85027048D01*
X131896671Y-85184069D01*
X132237835Y-85412028D01*
X132527972Y-85702165D01*
X132704813Y-85966825D01*
X132755932Y-86043331D01*
X132790688Y-86127239D01*
X132912952Y-86422411D01*
X132993000Y-86824842D01*
X132993000Y-87235158D01*
X132912952Y-87637589D01*
X132755931Y-88016671D01*
X132527972Y-88357835D01*
X132237835Y-88647972D01*
X131896671Y-88875931D01*
X131517589Y-89032952D01*
X131115159Y-89113000D01*
X130704841Y-89113000D01*
X130302411Y-89032952D01*
X129923329Y-88875931D01*
X129582165Y-88647972D01*
X129292028Y-88357835D01*
X129064069Y-88016671D01*
X128907048Y-87637589D01*
X128827000Y-87235158D01*
X128827000Y-86824842D01*
X128907048Y-86422411D01*
X129029312Y-86127239D01*
X129064068Y-86043331D01*
X129115188Y-85966825D01*
X129292028Y-85702165D01*
X129582165Y-85412028D01*
X129923329Y-85184069D01*
X130302411Y-85027048D01*
X130632885Y-84961313D01*
X130704841Y-84947000D01*
X131115159Y-84947000D01*
X131187115Y-84961313D01*
X131187115Y-84961313D01*
G37*
G36*
X121791000Y-88781000D02*
G01*
X119289000Y-88781000D01*
X119289000Y-86279000D01*
X121791000Y-86279000D01*
X121791000Y-88781000D01*
X121791000Y-88781000D01*
G37*
G36*
X55307395Y-85785546D02*
G01*
X55480466Y-85857234D01*
X55557818Y-85908919D01*
X55636227Y-85961310D01*
X55768690Y-86093773D01*
X55768691Y-86093775D01*
X55872766Y-86249534D01*
X55944454Y-86422605D01*
X55981000Y-86606333D01*
X55981000Y-86793667D01*
X55944454Y-86977395D01*
X55872766Y-87150466D01*
X55872765Y-87150467D01*
X55768690Y-87306227D01*
X55636227Y-87438690D01*
X55557818Y-87491081D01*
X55480466Y-87542766D01*
X55307395Y-87614454D01*
X55123667Y-87651000D01*
X54936333Y-87651000D01*
X54752605Y-87614454D01*
X54579534Y-87542766D01*
X54502182Y-87491081D01*
X54423773Y-87438690D01*
X54291310Y-87306227D01*
X54187235Y-87150467D01*
X54187234Y-87150466D01*
X54115546Y-86977395D01*
X54079000Y-86793667D01*
X54079000Y-86606333D01*
X54115546Y-86422605D01*
X54187234Y-86249534D01*
X54291309Y-86093775D01*
X54291310Y-86093773D01*
X54423773Y-85961310D01*
X54502182Y-85908919D01*
X54579534Y-85857234D01*
X54752605Y-85785546D01*
X54936333Y-85749000D01*
X55123667Y-85749000D01*
X55307395Y-85785546D01*
X55307395Y-85785546D01*
G37*
G36*
X94297395Y-85755546D02*
G01*
X94470466Y-85827234D01*
X94547818Y-85878919D01*
X94626227Y-85931310D01*
X94758690Y-86063773D01*
X94801096Y-86127239D01*
X94862766Y-86219534D01*
X94934454Y-86392605D01*
X94971000Y-86576333D01*
X94971000Y-86763667D01*
X94934454Y-86947395D01*
X94862766Y-87120466D01*
X94842720Y-87150467D01*
X94758690Y-87276227D01*
X94626227Y-87408690D01*
X94581327Y-87438691D01*
X94470466Y-87512766D01*
X94297395Y-87584454D01*
X94113667Y-87621000D01*
X93926333Y-87621000D01*
X93742605Y-87584454D01*
X93569534Y-87512766D01*
X93458673Y-87438691D01*
X93413773Y-87408690D01*
X93281310Y-87276227D01*
X93197280Y-87150467D01*
X93177234Y-87120466D01*
X93105546Y-86947395D01*
X93069000Y-86763667D01*
X93069000Y-86576333D01*
X93105546Y-86392605D01*
X93177234Y-86219534D01*
X93238904Y-86127239D01*
X93281310Y-86063773D01*
X93413773Y-85931310D01*
X93492182Y-85878919D01*
X93569534Y-85827234D01*
X93742605Y-85755546D01*
X93926333Y-85719000D01*
X94113667Y-85719000D01*
X94297395Y-85755546D01*
X94297395Y-85755546D01*
G37*
G36*
X97511000Y-87621000D02*
G01*
X95609000Y-87621000D01*
X95609000Y-85719000D01*
X97511000Y-85719000D01*
X97511000Y-87621000D01*
X97511000Y-87621000D01*
G37*
G36*
X91418228Y-84981703D02*
G01*
X91573100Y-85045853D01*
X91712481Y-85138985D01*
X91831015Y-85257519D01*
X91924147Y-85396900D01*
X91988297Y-85551772D01*
X92021000Y-85716184D01*
X92021000Y-85883816D01*
X91988297Y-86048228D01*
X91924147Y-86203100D01*
X91831015Y-86342481D01*
X91712481Y-86461015D01*
X91573100Y-86554147D01*
X91418228Y-86618297D01*
X91253816Y-86651000D01*
X91086184Y-86651000D01*
X90921772Y-86618297D01*
X90766900Y-86554147D01*
X90627519Y-86461015D01*
X90508985Y-86342481D01*
X90415853Y-86203100D01*
X90351703Y-86048228D01*
X90319000Y-85883816D01*
X90319000Y-85716184D01*
X90351703Y-85551772D01*
X90415853Y-85396900D01*
X90508985Y-85257519D01*
X90627519Y-85138985D01*
X90766900Y-85045853D01*
X90921772Y-84981703D01*
X91086184Y-84949000D01*
X91253816Y-84949000D01*
X91418228Y-84981703D01*
X91418228Y-84981703D01*
G37*
G36*
X78636823Y-84961313D02*
G01*
X78797242Y-85009976D01*
X78829181Y-85027048D01*
X78945078Y-85088996D01*
X79074659Y-85195341D01*
X79181004Y-85324922D01*
X79181005Y-85324924D01*
X79260024Y-85472758D01*
X79308687Y-85633177D01*
X79325117Y-85800000D01*
X79308687Y-85966823D01*
X79260024Y-86127242D01*
X79219477Y-86203100D01*
X79181004Y-86275078D01*
X79074659Y-86404659D01*
X78945078Y-86511004D01*
X78945076Y-86511005D01*
X78797242Y-86590024D01*
X78636823Y-86638687D01*
X78511804Y-86651000D01*
X78428196Y-86651000D01*
X78303177Y-86638687D01*
X78142758Y-86590024D01*
X77994924Y-86511005D01*
X77994922Y-86511004D01*
X77865341Y-86404659D01*
X77758996Y-86275078D01*
X77720523Y-86203100D01*
X77679976Y-86127242D01*
X77631313Y-85966823D01*
X77614883Y-85800000D01*
X77631313Y-85633177D01*
X77679976Y-85472758D01*
X77758995Y-85324924D01*
X77758996Y-85324922D01*
X77865341Y-85195341D01*
X77994922Y-85088996D01*
X78110819Y-85027048D01*
X78142758Y-85009976D01*
X78303177Y-84961313D01*
X78428196Y-84949000D01*
X78511804Y-84949000D01*
X78636823Y-84961313D01*
X78636823Y-84961313D01*
G37*
G36*
X44236564Y-81669389D02*
G01*
X44427833Y-81748615D01*
X44427835Y-81748616D01*
X44599973Y-81863635D01*
X44746365Y-82010027D01*
X44791380Y-82077396D01*
X44861385Y-82182167D01*
X44940611Y-82373436D01*
X44981000Y-82576484D01*
X44981000Y-82783516D01*
X44940611Y-82986564D01*
X44861385Y-83177833D01*
X44861384Y-83177835D01*
X44746365Y-83349973D01*
X44599973Y-83496365D01*
X44427835Y-83611384D01*
X44427834Y-83611385D01*
X44427833Y-83611385D01*
X44236564Y-83690611D01*
X44033516Y-83731000D01*
X43826484Y-83731000D01*
X43623436Y-83690611D01*
X43432167Y-83611385D01*
X43432166Y-83611385D01*
X43432165Y-83611384D01*
X43260027Y-83496365D01*
X43113635Y-83349973D01*
X42998616Y-83177835D01*
X42998615Y-83177833D01*
X42919389Y-82986564D01*
X42879000Y-82783516D01*
X42879000Y-82576484D01*
X42919389Y-82373436D01*
X42998615Y-82182167D01*
X43068621Y-82077396D01*
X43113635Y-82010027D01*
X43260027Y-81863635D01*
X43432165Y-81748616D01*
X43432167Y-81748615D01*
X43623436Y-81669389D01*
X43826484Y-81629000D01*
X44033516Y-81629000D01*
X44236564Y-81669389D01*
X44236564Y-81669389D01*
G37*
G36*
X48736564Y-81669389D02*
G01*
X48927833Y-81748615D01*
X48927835Y-81748616D01*
X49099973Y-81863635D01*
X49246365Y-82010027D01*
X49291380Y-82077396D01*
X49361385Y-82182167D01*
X49440611Y-82373436D01*
X49481000Y-82576484D01*
X49481000Y-82783516D01*
X49440611Y-82986564D01*
X49361385Y-83177833D01*
X49361384Y-83177835D01*
X49246365Y-83349973D01*
X49099973Y-83496365D01*
X48927835Y-83611384D01*
X48927834Y-83611385D01*
X48927833Y-83611385D01*
X48736564Y-83690611D01*
X48533516Y-83731000D01*
X48326484Y-83731000D01*
X48123436Y-83690611D01*
X47932167Y-83611385D01*
X47932166Y-83611385D01*
X47932165Y-83611384D01*
X47760027Y-83496365D01*
X47613635Y-83349973D01*
X47498616Y-83177835D01*
X47498615Y-83177833D01*
X47419389Y-82986564D01*
X47379000Y-82783516D01*
X47379000Y-82576484D01*
X47419389Y-82373436D01*
X47498615Y-82182167D01*
X47568621Y-82077396D01*
X47613635Y-82010027D01*
X47760027Y-81863635D01*
X47932165Y-81748616D01*
X47932167Y-81748615D01*
X48123436Y-81669389D01*
X48326484Y-81629000D01*
X48533516Y-81629000D01*
X48736564Y-81669389D01*
X48736564Y-81669389D01*
G37*
G36*
X96807395Y-80885546D02*
G01*
X96980466Y-80957234D01*
X97053228Y-81005852D01*
X97136227Y-81061310D01*
X97268690Y-81193773D01*
X97268691Y-81193775D01*
X97372766Y-81349534D01*
X97444454Y-81522605D01*
X97481000Y-81706333D01*
X97481000Y-81893667D01*
X97444454Y-82077395D01*
X97372766Y-82250466D01*
X97372765Y-82250467D01*
X97268690Y-82406227D01*
X97136227Y-82538690D01*
X97079664Y-82576484D01*
X96980466Y-82642766D01*
X96807395Y-82714454D01*
X96623667Y-82751000D01*
X96436333Y-82751000D01*
X96252605Y-82714454D01*
X96079534Y-82642766D01*
X95980336Y-82576484D01*
X95923773Y-82538690D01*
X95791310Y-82406227D01*
X95687235Y-82250467D01*
X95687234Y-82250466D01*
X95615546Y-82077395D01*
X95579000Y-81893667D01*
X95579000Y-81706333D01*
X95615546Y-81522605D01*
X95687234Y-81349534D01*
X95791309Y-81193775D01*
X95791310Y-81193773D01*
X95923773Y-81061310D01*
X96006772Y-81005852D01*
X96079534Y-80957234D01*
X96252605Y-80885546D01*
X96436333Y-80849000D01*
X96623667Y-80849000D01*
X96807395Y-80885546D01*
X96807395Y-80885546D01*
G37*
G36*
X94941000Y-82751000D02*
G01*
X93039000Y-82751000D01*
X93039000Y-80849000D01*
X94941000Y-80849000D01*
X94941000Y-82751000D01*
X94941000Y-82751000D01*
G37*
G36*
X78748228Y-80941703D02*
G01*
X78903100Y-81005853D01*
X79042481Y-81098985D01*
X79161015Y-81217519D01*
X79254147Y-81356900D01*
X79318297Y-81511772D01*
X79351000Y-81676184D01*
X79351000Y-81843816D01*
X79318297Y-82008228D01*
X79254147Y-82163100D01*
X79161015Y-82302481D01*
X79042481Y-82421015D01*
X78903100Y-82514147D01*
X78748228Y-82578297D01*
X78583816Y-82611000D01*
X78416184Y-82611000D01*
X78251772Y-82578297D01*
X78096900Y-82514147D01*
X77957519Y-82421015D01*
X77838985Y-82302481D01*
X77745853Y-82163100D01*
X77681703Y-82008228D01*
X77649000Y-81843816D01*
X77649000Y-81676184D01*
X77681703Y-81511772D01*
X77745853Y-81356900D01*
X77838985Y-81217519D01*
X77957519Y-81098985D01*
X78096900Y-81005853D01*
X78251772Y-80941703D01*
X78416184Y-80909000D01*
X78583816Y-80909000D01*
X78748228Y-80941703D01*
X78748228Y-80941703D01*
G37*
G36*
X91366823Y-80921313D02*
G01*
X91527242Y-80969976D01*
X91659906Y-81040886D01*
X91675078Y-81048996D01*
X91804659Y-81155341D01*
X91911004Y-81284922D01*
X91911005Y-81284924D01*
X91990024Y-81432758D01*
X92038687Y-81593177D01*
X92055117Y-81760000D01*
X92038687Y-81926823D01*
X91990024Y-82087242D01*
X91939285Y-82182167D01*
X91911004Y-82235078D01*
X91804659Y-82364659D01*
X91675078Y-82471004D01*
X91675076Y-82471005D01*
X91527242Y-82550024D01*
X91366823Y-82598687D01*
X91241804Y-82611000D01*
X91158196Y-82611000D01*
X91033177Y-82598687D01*
X90872758Y-82550024D01*
X90724924Y-82471005D01*
X90724922Y-82471004D01*
X90595341Y-82364659D01*
X90488996Y-82235078D01*
X90460715Y-82182167D01*
X90409976Y-82087242D01*
X90361313Y-81926823D01*
X90344883Y-81760000D01*
X90361313Y-81593177D01*
X90409976Y-81432758D01*
X90488995Y-81284924D01*
X90488996Y-81284922D01*
X90595341Y-81155341D01*
X90724922Y-81048996D01*
X90740094Y-81040886D01*
X90872758Y-80969976D01*
X91033177Y-80921313D01*
X91158196Y-80909000D01*
X91241804Y-80909000D01*
X91366823Y-80921313D01*
X91366823Y-80921313D01*
G37*
G36*
X55358228Y-80231703D02*
G01*
X55513100Y-80295853D01*
X55652481Y-80388985D01*
X55771015Y-80507519D01*
X55864147Y-80646900D01*
X55928297Y-80801772D01*
X55961000Y-80966184D01*
X55961000Y-81133816D01*
X55928297Y-81298228D01*
X55864147Y-81453100D01*
X55771015Y-81592481D01*
X55652481Y-81711015D01*
X55513100Y-81804147D01*
X55358228Y-81868297D01*
X55193816Y-81901000D01*
X55026184Y-81901000D01*
X54861772Y-81868297D01*
X54706900Y-81804147D01*
X54567519Y-81711015D01*
X54448985Y-81592481D01*
X54355853Y-81453100D01*
X54291703Y-81298228D01*
X54259000Y-81133816D01*
X54259000Y-80966184D01*
X54291703Y-80801772D01*
X54355853Y-80646900D01*
X54448985Y-80507519D01*
X54567519Y-80388985D01*
X54706900Y-80295853D01*
X54861772Y-80231703D01*
X55026184Y-80199000D01*
X55193816Y-80199000D01*
X55358228Y-80231703D01*
X55358228Y-80231703D01*
G37*
G36*
X67328228Y-80181703D02*
G01*
X67483100Y-80245853D01*
X67622481Y-80338985D01*
X67741015Y-80457519D01*
X67834147Y-80596900D01*
X67898297Y-80751772D01*
X67931000Y-80916184D01*
X67931000Y-81083816D01*
X67898297Y-81248228D01*
X67834147Y-81403100D01*
X67741015Y-81542481D01*
X67622481Y-81661015D01*
X67483100Y-81754147D01*
X67328228Y-81818297D01*
X67163816Y-81851000D01*
X66996184Y-81851000D01*
X66831772Y-81818297D01*
X66676900Y-81754147D01*
X66537519Y-81661015D01*
X66418985Y-81542481D01*
X66325853Y-81403100D01*
X66261703Y-81248228D01*
X66229000Y-81083816D01*
X66229000Y-80916184D01*
X66261703Y-80751772D01*
X66325853Y-80596900D01*
X66418985Y-80457519D01*
X66537519Y-80338985D01*
X66676900Y-80245853D01*
X66831772Y-80181703D01*
X66996184Y-80149000D01*
X67163816Y-80149000D01*
X67328228Y-80181703D01*
X67328228Y-80181703D01*
G37*
G36*
X62806823Y-80141313D02*
G01*
X62967242Y-80189976D01*
X63071780Y-80245853D01*
X63115078Y-80268996D01*
X63244659Y-80375341D01*
X63351004Y-80504922D01*
X63351005Y-80504924D01*
X63430024Y-80652758D01*
X63478687Y-80813177D01*
X63495117Y-80980000D01*
X63478687Y-81146823D01*
X63440867Y-81271499D01*
X63433058Y-81297242D01*
X63430024Y-81307242D01*
X63401572Y-81360471D01*
X63351004Y-81455078D01*
X63244659Y-81584659D01*
X63115078Y-81691004D01*
X63115076Y-81691005D01*
X62967242Y-81770024D01*
X62806823Y-81818687D01*
X62681804Y-81831000D01*
X62598196Y-81831000D01*
X62473177Y-81818687D01*
X62312758Y-81770024D01*
X62164924Y-81691005D01*
X62164922Y-81691004D01*
X62035341Y-81584659D01*
X61928996Y-81455078D01*
X61878428Y-81360471D01*
X61849976Y-81307242D01*
X61846943Y-81297242D01*
X61839133Y-81271499D01*
X61801313Y-81146823D01*
X61784883Y-80980000D01*
X61801313Y-80813177D01*
X61849976Y-80652758D01*
X61928995Y-80504924D01*
X61928996Y-80504922D01*
X62035341Y-80375341D01*
X62164922Y-80268996D01*
X62208220Y-80245853D01*
X62312758Y-80189976D01*
X62473177Y-80141313D01*
X62598196Y-80129000D01*
X62681804Y-80129000D01*
X62806823Y-80141313D01*
X62806823Y-80141313D01*
G37*
G36*
X71626823Y-80131313D02*
G01*
X71787242Y-80179976D01*
X71822833Y-80199000D01*
X71935078Y-80258996D01*
X72064659Y-80365341D01*
X72171004Y-80494922D01*
X72171005Y-80494924D01*
X72250024Y-80642758D01*
X72250025Y-80642761D01*
X72253058Y-80652761D01*
X72298687Y-80803177D01*
X72315117Y-80970000D01*
X72298687Y-81136823D01*
X72250024Y-81297242D01*
X72222073Y-81349534D01*
X72171004Y-81445078D01*
X72064659Y-81574659D01*
X71935078Y-81681004D01*
X71935076Y-81681005D01*
X71787242Y-81760024D01*
X71626823Y-81808687D01*
X71501804Y-81821000D01*
X71418196Y-81821000D01*
X71293177Y-81808687D01*
X71132758Y-81760024D01*
X70984924Y-81681005D01*
X70984922Y-81681004D01*
X70855341Y-81574659D01*
X70748996Y-81445078D01*
X70697927Y-81349534D01*
X70669976Y-81297242D01*
X70621313Y-81136823D01*
X70604883Y-80970000D01*
X70621313Y-80803177D01*
X70666942Y-80652761D01*
X70669975Y-80642761D01*
X70669976Y-80642758D01*
X70748995Y-80494924D01*
X70748996Y-80494922D01*
X70855341Y-80365341D01*
X70984922Y-80258996D01*
X71097167Y-80199000D01*
X71132758Y-80179976D01*
X71293177Y-80131313D01*
X71418196Y-80119000D01*
X71501804Y-80119000D01*
X71626823Y-80131313D01*
X71626823Y-80131313D01*
G37*
G36*
X131387142Y-79858242D02*
G01*
X131535101Y-79919529D01*
X131668255Y-80008499D01*
X131781501Y-80121745D01*
X131870471Y-80254899D01*
X131931758Y-80402858D01*
X131963000Y-80559925D01*
X131963000Y-80720075D01*
X131931758Y-80877142D01*
X131870471Y-81025101D01*
X131781501Y-81158255D01*
X131668255Y-81271501D01*
X131535101Y-81360471D01*
X131387142Y-81421758D01*
X131230075Y-81453000D01*
X131069925Y-81453000D01*
X130912858Y-81421758D01*
X130764899Y-81360471D01*
X130631745Y-81271501D01*
X130518499Y-81158255D01*
X130429529Y-81025101D01*
X130368242Y-80877142D01*
X130337000Y-80720075D01*
X130337000Y-80559925D01*
X130368242Y-80402858D01*
X130429529Y-80254899D01*
X130518499Y-80121745D01*
X130631745Y-80008499D01*
X130764899Y-79919529D01*
X130912858Y-79858242D01*
X131069925Y-79827000D01*
X131230075Y-79827000D01*
X131387142Y-79858242D01*
X131387142Y-79858242D01*
G37*
G36*
X111671000Y-80581000D02*
G01*
X108369000Y-80581000D01*
X108369000Y-77279000D01*
X111671000Y-77279000D01*
X111671000Y-80581000D01*
X111671000Y-80581000D01*
G37*
G36*
X104921000Y-80581000D02*
G01*
X101619000Y-80581000D01*
X101619000Y-77279000D01*
X104921000Y-77279000D01*
X104921000Y-80581000D01*
X104921000Y-80581000D01*
G37*
G36*
X123086033Y-76375076D02*
G01*
X123397589Y-76437048D01*
X123776671Y-76594069D01*
X124117835Y-76822028D01*
X124407972Y-77112165D01*
X124635931Y-77453329D01*
X124747673Y-77723097D01*
X124792952Y-77832412D01*
X124850162Y-78120024D01*
X124873000Y-78234842D01*
X124873000Y-78645158D01*
X124792952Y-79047589D01*
X124635931Y-79426671D01*
X124407972Y-79767835D01*
X124117835Y-80057972D01*
X123776671Y-80285931D01*
X123776670Y-80285932D01*
X123776669Y-80285932D01*
X123665639Y-80331922D01*
X123397589Y-80442952D01*
X123324355Y-80457519D01*
X122995159Y-80523000D01*
X122584841Y-80523000D01*
X122255645Y-80457519D01*
X122182411Y-80442952D01*
X121914361Y-80331922D01*
X121803331Y-80285932D01*
X121803330Y-80285932D01*
X121803329Y-80285931D01*
X121462165Y-80057972D01*
X121172028Y-79767835D01*
X120944069Y-79426671D01*
X120787048Y-79047589D01*
X120707000Y-78645158D01*
X120707000Y-78234842D01*
X120729839Y-78120024D01*
X120787048Y-77832412D01*
X120832328Y-77723097D01*
X120944069Y-77453329D01*
X121172028Y-77112165D01*
X121462165Y-76822028D01*
X121803329Y-76594069D01*
X122182411Y-76437048D01*
X122493967Y-76375076D01*
X122584841Y-76357000D01*
X122995159Y-76357000D01*
X123086033Y-76375076D01*
X123086033Y-76375076D01*
G37*
G36*
X96506823Y-76491313D02*
G01*
X96667242Y-76539976D01*
X96715654Y-76565853D01*
X96815078Y-76618996D01*
X96944659Y-76725341D01*
X97051004Y-76854922D01*
X97051005Y-76854924D01*
X97130024Y-77002758D01*
X97178687Y-77163177D01*
X97195117Y-77330000D01*
X97178687Y-77496823D01*
X97130024Y-77657242D01*
X97094822Y-77723100D01*
X97051004Y-77805078D01*
X96944659Y-77934659D01*
X96815078Y-78041004D01*
X96815076Y-78041005D01*
X96667242Y-78120024D01*
X96506823Y-78168687D01*
X96381804Y-78181000D01*
X96298196Y-78181000D01*
X96173177Y-78168687D01*
X96012758Y-78120024D01*
X95864924Y-78041005D01*
X95864922Y-78041004D01*
X95735341Y-77934659D01*
X95628996Y-77805078D01*
X95585178Y-77723100D01*
X95549976Y-77657242D01*
X95501313Y-77496823D01*
X95484883Y-77330000D01*
X95501313Y-77163177D01*
X95549976Y-77002758D01*
X95628995Y-76854924D01*
X95628996Y-76854922D01*
X95735341Y-76725341D01*
X95864922Y-76618996D01*
X95964346Y-76565853D01*
X96012758Y-76539976D01*
X96173177Y-76491313D01*
X96298196Y-76479000D01*
X96381804Y-76479000D01*
X96506823Y-76491313D01*
X96506823Y-76491313D01*
G37*
G36*
X92058228Y-76501703D02*
G01*
X92213100Y-76565853D01*
X92352481Y-76658985D01*
X92471015Y-76777519D01*
X92564147Y-76916900D01*
X92628297Y-77071772D01*
X92661000Y-77236184D01*
X92661000Y-77403816D01*
X92628297Y-77568228D01*
X92564147Y-77723100D01*
X92471015Y-77862481D01*
X92352481Y-77981015D01*
X92213100Y-78074147D01*
X92058228Y-78138297D01*
X91893816Y-78171000D01*
X91726184Y-78171000D01*
X91561772Y-78138297D01*
X91406900Y-78074147D01*
X91267519Y-77981015D01*
X91148985Y-77862481D01*
X91055853Y-77723100D01*
X90991703Y-77568228D01*
X90959000Y-77403816D01*
X90959000Y-77236184D01*
X90991703Y-77071772D01*
X91055853Y-76916900D01*
X91148985Y-76777519D01*
X91267519Y-76658985D01*
X91406900Y-76565853D01*
X91561772Y-76501703D01*
X91726184Y-76469000D01*
X91893816Y-76469000D01*
X92058228Y-76501703D01*
X92058228Y-76501703D01*
G37*
G36*
X86686823Y-75061313D02*
G01*
X86847242Y-75109976D01*
X86968704Y-75174899D01*
X86995078Y-75188996D01*
X87124659Y-75295341D01*
X87231004Y-75424922D01*
X87231005Y-75424924D01*
X87310024Y-75572758D01*
X87358687Y-75733177D01*
X87375117Y-75900000D01*
X87358687Y-76066823D01*
X87310024Y-76227242D01*
X87281572Y-76280471D01*
X87231004Y-76375078D01*
X87124659Y-76504659D01*
X86995078Y-76611004D01*
X86995076Y-76611005D01*
X86847242Y-76690024D01*
X86686823Y-76738687D01*
X86561804Y-76751000D01*
X85678196Y-76751000D01*
X85553177Y-76738687D01*
X85392758Y-76690024D01*
X85244924Y-76611005D01*
X85244922Y-76611004D01*
X85115341Y-76504659D01*
X85008996Y-76375078D01*
X84958428Y-76280471D01*
X84929976Y-76227242D01*
X84881313Y-76066823D01*
X84864883Y-75900000D01*
X84881313Y-75733177D01*
X84929976Y-75572758D01*
X85008995Y-75424924D01*
X85008996Y-75424922D01*
X85115341Y-75295341D01*
X85244922Y-75188996D01*
X85271296Y-75174899D01*
X85392758Y-75109976D01*
X85553177Y-75061313D01*
X85678196Y-75049000D01*
X86561804Y-75049000D01*
X86686823Y-75061313D01*
X86686823Y-75061313D01*
G37*
G36*
X79066823Y-75061313D02*
G01*
X79227242Y-75109976D01*
X79348704Y-75174899D01*
X79375078Y-75188996D01*
X79504659Y-75295341D01*
X79611004Y-75424922D01*
X79611005Y-75424924D01*
X79690024Y-75572758D01*
X79738687Y-75733177D01*
X79755117Y-75900000D01*
X79738687Y-76066823D01*
X79690024Y-76227242D01*
X79661572Y-76280471D01*
X79611004Y-76375078D01*
X79504659Y-76504659D01*
X79375078Y-76611004D01*
X79375076Y-76611005D01*
X79227242Y-76690024D01*
X79066823Y-76738687D01*
X78941804Y-76751000D01*
X78058196Y-76751000D01*
X77933177Y-76738687D01*
X77772758Y-76690024D01*
X77624924Y-76611005D01*
X77624922Y-76611004D01*
X77495341Y-76504659D01*
X77388996Y-76375078D01*
X77338428Y-76280471D01*
X77309976Y-76227242D01*
X77261313Y-76066823D01*
X77244883Y-75900000D01*
X77261313Y-75733177D01*
X77309976Y-75572758D01*
X77388995Y-75424924D01*
X77388996Y-75424922D01*
X77495341Y-75295341D01*
X77624922Y-75188996D01*
X77651296Y-75174899D01*
X77772758Y-75109976D01*
X77933177Y-75061313D01*
X78058196Y-75049000D01*
X78941804Y-75049000D01*
X79066823Y-75061313D01*
X79066823Y-75061313D01*
G37*
G36*
X131387142Y-74778242D02*
G01*
X131535101Y-74839529D01*
X131668255Y-74928499D01*
X131781501Y-75041745D01*
X131870471Y-75174899D01*
X131931758Y-75322858D01*
X131963000Y-75479925D01*
X131963000Y-75640075D01*
X131931758Y-75797142D01*
X131870471Y-75945101D01*
X131781501Y-76078255D01*
X131668255Y-76191501D01*
X131535101Y-76280471D01*
X131387142Y-76341758D01*
X131230075Y-76373000D01*
X131069925Y-76373000D01*
X130912858Y-76341758D01*
X130764899Y-76280471D01*
X130631745Y-76191501D01*
X130518499Y-76078255D01*
X130429529Y-75945101D01*
X130368242Y-75797142D01*
X130337000Y-75640075D01*
X130337000Y-75479925D01*
X130368242Y-75322858D01*
X130429529Y-75174899D01*
X130518499Y-75041745D01*
X130631745Y-74928499D01*
X130764899Y-74839529D01*
X130912858Y-74778242D01*
X131069925Y-74747000D01*
X131230075Y-74747000D01*
X131387142Y-74778242D01*
X131387142Y-74778242D01*
G37*
G36*
X50766823Y-74311313D02*
G01*
X50927242Y-74359976D01*
X51059906Y-74430886D01*
X51075078Y-74438996D01*
X51204659Y-74545341D01*
X51311004Y-74674922D01*
X51311005Y-74674924D01*
X51390024Y-74822758D01*
X51390025Y-74822761D01*
X51399083Y-74852620D01*
X51438687Y-74983177D01*
X51455117Y-75150000D01*
X51438687Y-75316823D01*
X51390024Y-75477242D01*
X51338968Y-75572761D01*
X51311004Y-75625078D01*
X51204659Y-75754659D01*
X51075078Y-75861004D01*
X51075076Y-75861005D01*
X50927242Y-75940024D01*
X50766823Y-75988687D01*
X50641804Y-76001000D01*
X50558196Y-76001000D01*
X50433177Y-75988687D01*
X50272758Y-75940024D01*
X50124924Y-75861005D01*
X50124922Y-75861004D01*
X49995341Y-75754659D01*
X49888996Y-75625078D01*
X49861032Y-75572761D01*
X49809976Y-75477242D01*
X49761313Y-75316823D01*
X49744883Y-75150000D01*
X49761313Y-74983177D01*
X49800917Y-74852620D01*
X49809975Y-74822761D01*
X49809976Y-74822758D01*
X49888995Y-74674924D01*
X49888996Y-74674922D01*
X49995341Y-74545341D01*
X50124922Y-74438996D01*
X50140094Y-74430886D01*
X50272758Y-74359976D01*
X50433177Y-74311313D01*
X50558196Y-74299000D01*
X50641804Y-74299000D01*
X50766823Y-74311313D01*
X50766823Y-74311313D01*
G37*
G36*
X79066823Y-72521313D02*
G01*
X79227242Y-72569976D01*
X79359906Y-72640886D01*
X79375078Y-72648996D01*
X79504659Y-72755341D01*
X79611004Y-72884922D01*
X79611005Y-72884924D01*
X79690024Y-73032758D01*
X79738687Y-73193177D01*
X79755117Y-73360000D01*
X79738687Y-73526823D01*
X79690024Y-73687242D01*
X79619114Y-73819906D01*
X79611004Y-73835078D01*
X79504659Y-73964659D01*
X79375078Y-74071004D01*
X79375076Y-74071005D01*
X79227242Y-74150024D01*
X79066823Y-74198687D01*
X78941804Y-74211000D01*
X78058196Y-74211000D01*
X77933177Y-74198687D01*
X77772758Y-74150024D01*
X77624924Y-74071005D01*
X77624922Y-74071004D01*
X77495341Y-73964659D01*
X77388996Y-73835078D01*
X77380886Y-73819906D01*
X77309976Y-73687242D01*
X77261313Y-73526823D01*
X77244883Y-73360000D01*
X77261313Y-73193177D01*
X77309976Y-73032758D01*
X77388995Y-72884924D01*
X77388996Y-72884922D01*
X77495341Y-72755341D01*
X77624922Y-72648996D01*
X77640094Y-72640886D01*
X77772758Y-72569976D01*
X77933177Y-72521313D01*
X78058196Y-72509000D01*
X78941804Y-72509000D01*
X79066823Y-72521313D01*
X79066823Y-72521313D01*
G37*
G36*
X86686823Y-72521313D02*
G01*
X86847242Y-72569976D01*
X86979906Y-72640886D01*
X86995078Y-72648996D01*
X87124659Y-72755341D01*
X87231004Y-72884922D01*
X87231005Y-72884924D01*
X87310024Y-73032758D01*
X87358687Y-73193177D01*
X87375117Y-73360000D01*
X87358687Y-73526823D01*
X87310024Y-73687242D01*
X87239114Y-73819906D01*
X87231004Y-73835078D01*
X87124659Y-73964659D01*
X86995078Y-74071004D01*
X86995076Y-74071005D01*
X86847242Y-74150024D01*
X86686823Y-74198687D01*
X86561804Y-74211000D01*
X85678196Y-74211000D01*
X85553177Y-74198687D01*
X85392758Y-74150024D01*
X85244924Y-74071005D01*
X85244922Y-74071004D01*
X85115341Y-73964659D01*
X85008996Y-73835078D01*
X85000886Y-73819906D01*
X84929976Y-73687242D01*
X84881313Y-73526823D01*
X84864883Y-73360000D01*
X84881313Y-73193177D01*
X84929976Y-73032758D01*
X85008995Y-72884924D01*
X85008996Y-72884922D01*
X85115341Y-72755341D01*
X85244922Y-72648996D01*
X85260094Y-72640886D01*
X85392758Y-72569976D01*
X85553177Y-72521313D01*
X85678196Y-72509000D01*
X86561804Y-72509000D01*
X86686823Y-72521313D01*
X86686823Y-72521313D01*
G37*
G36*
X86686823Y-69981313D02*
G01*
X86847242Y-70029976D01*
X86979906Y-70100886D01*
X86995078Y-70108996D01*
X87124659Y-70215341D01*
X87231004Y-70344922D01*
X87231005Y-70344924D01*
X87310024Y-70492758D01*
X87358687Y-70653177D01*
X87375117Y-70820000D01*
X87358687Y-70986823D01*
X87310024Y-71147242D01*
X87239114Y-71279906D01*
X87231004Y-71295078D01*
X87124659Y-71424659D01*
X86995078Y-71531004D01*
X86995076Y-71531005D01*
X86847242Y-71610024D01*
X86686823Y-71658687D01*
X86561804Y-71671000D01*
X85678196Y-71671000D01*
X85553177Y-71658687D01*
X85392758Y-71610024D01*
X85244924Y-71531005D01*
X85244922Y-71531004D01*
X85115341Y-71424659D01*
X85008996Y-71295078D01*
X85000886Y-71279906D01*
X84929976Y-71147242D01*
X84881313Y-70986823D01*
X84864883Y-70820000D01*
X84881313Y-70653177D01*
X84929976Y-70492758D01*
X85008995Y-70344924D01*
X85008996Y-70344922D01*
X85115341Y-70215341D01*
X85244922Y-70108996D01*
X85260094Y-70100886D01*
X85392758Y-70029976D01*
X85553177Y-69981313D01*
X85678196Y-69969000D01*
X86561804Y-69969000D01*
X86686823Y-69981313D01*
X86686823Y-69981313D01*
G37*
G36*
X79066823Y-69981313D02*
G01*
X79227242Y-70029976D01*
X79359906Y-70100886D01*
X79375078Y-70108996D01*
X79504659Y-70215341D01*
X79611004Y-70344922D01*
X79611005Y-70344924D01*
X79690024Y-70492758D01*
X79738687Y-70653177D01*
X79755117Y-70820000D01*
X79738687Y-70986823D01*
X79690024Y-71147242D01*
X79619114Y-71279906D01*
X79611004Y-71295078D01*
X79504659Y-71424659D01*
X79375078Y-71531004D01*
X79375076Y-71531005D01*
X79227242Y-71610024D01*
X79066823Y-71658687D01*
X78941804Y-71671000D01*
X78058196Y-71671000D01*
X77933177Y-71658687D01*
X77772758Y-71610024D01*
X77624924Y-71531005D01*
X77624922Y-71531004D01*
X77495341Y-71424659D01*
X77388996Y-71295078D01*
X77380886Y-71279906D01*
X77309976Y-71147242D01*
X77261313Y-70986823D01*
X77244883Y-70820000D01*
X77261313Y-70653177D01*
X77309976Y-70492758D01*
X77388995Y-70344924D01*
X77388996Y-70344922D01*
X77495341Y-70215341D01*
X77624922Y-70108996D01*
X77640094Y-70100886D01*
X77772758Y-70029976D01*
X77933177Y-69981313D01*
X78058196Y-69969000D01*
X78941804Y-69969000D01*
X79066823Y-69981313D01*
X79066823Y-69981313D01*
G37*
G36*
X106951000Y-70691000D02*
G01*
X104449000Y-70691000D01*
X104449000Y-68189000D01*
X106951000Y-68189000D01*
X106951000Y-70691000D01*
X106951000Y-70691000D01*
G37*
G36*
X55276823Y-67511313D02*
G01*
X55437242Y-67559976D01*
X55528931Y-67608985D01*
X55585078Y-67638996D01*
X55714659Y-67745341D01*
X55821004Y-67874922D01*
X55821005Y-67874924D01*
X55900024Y-68022758D01*
X55948687Y-68183177D01*
X55965117Y-68350000D01*
X55948687Y-68516823D01*
X55948260Y-68518229D01*
X55901281Y-68673100D01*
X55900024Y-68677242D01*
X55829114Y-68809906D01*
X55821004Y-68825078D01*
X55714659Y-68954659D01*
X55585078Y-69061004D01*
X55585076Y-69061005D01*
X55437242Y-69140024D01*
X55276823Y-69188687D01*
X55151804Y-69201000D01*
X55068196Y-69201000D01*
X54943177Y-69188687D01*
X54782758Y-69140024D01*
X54634924Y-69061005D01*
X54634922Y-69061004D01*
X54505341Y-68954659D01*
X54398996Y-68825078D01*
X54390886Y-68809906D01*
X54319976Y-68677242D01*
X54318720Y-68673100D01*
X54271740Y-68518229D01*
X54271313Y-68516823D01*
X54254883Y-68350000D01*
X54271313Y-68183177D01*
X54319976Y-68022758D01*
X54398995Y-67874924D01*
X54398996Y-67874922D01*
X54505341Y-67745341D01*
X54634922Y-67638996D01*
X54691069Y-67608985D01*
X54782758Y-67559976D01*
X54943177Y-67511313D01*
X55068196Y-67499000D01*
X55151804Y-67499000D01*
X55276823Y-67511313D01*
X55276823Y-67511313D01*
G37*
G36*
X67246823Y-67461313D02*
G01*
X67407242Y-67509976D01*
X67539906Y-67580886D01*
X67555078Y-67588996D01*
X67684659Y-67695341D01*
X67791004Y-67824922D01*
X67791005Y-67824924D01*
X67870024Y-67972758D01*
X67918687Y-68133177D01*
X67935117Y-68300000D01*
X67918687Y-68466823D01*
X67870024Y-68627242D01*
X67845514Y-68673097D01*
X67791004Y-68775078D01*
X67684659Y-68904659D01*
X67555078Y-69011004D01*
X67555076Y-69011005D01*
X67407242Y-69090024D01*
X67246823Y-69138687D01*
X67121804Y-69151000D01*
X67038196Y-69151000D01*
X66913177Y-69138687D01*
X66752758Y-69090024D01*
X66604924Y-69011005D01*
X66604922Y-69011004D01*
X66475341Y-68904659D01*
X66368996Y-68775078D01*
X66314486Y-68673097D01*
X66289976Y-68627242D01*
X66241313Y-68466823D01*
X66224883Y-68300000D01*
X66241313Y-68133177D01*
X66289976Y-67972758D01*
X66368995Y-67824924D01*
X66368996Y-67824922D01*
X66475341Y-67695341D01*
X66604922Y-67588996D01*
X66620094Y-67580886D01*
X66752758Y-67509976D01*
X66913177Y-67461313D01*
X67038196Y-67449000D01*
X67121804Y-67449000D01*
X67246823Y-67461313D01*
X67246823Y-67461313D01*
G37*
G36*
X79751000Y-69131000D02*
G01*
X77249000Y-69131000D01*
X77249000Y-67429000D01*
X79751000Y-67429000D01*
X79751000Y-69131000D01*
X79751000Y-69131000D01*
G37*
G36*
X86686823Y-67441313D02*
G01*
X86847242Y-67489976D01*
X86895654Y-67515853D01*
X86995078Y-67568996D01*
X87124659Y-67675341D01*
X87231004Y-67804922D01*
X87231005Y-67804924D01*
X87310024Y-67952758D01*
X87358687Y-68113177D01*
X87375117Y-68280000D01*
X87358687Y-68446823D01*
X87310024Y-68607242D01*
X87269477Y-68683100D01*
X87231004Y-68755078D01*
X87124659Y-68884659D01*
X86995078Y-68991004D01*
X86995076Y-68991005D01*
X86847242Y-69070024D01*
X86686823Y-69118687D01*
X86561804Y-69131000D01*
X85678196Y-69131000D01*
X85553177Y-69118687D01*
X85392758Y-69070024D01*
X85244924Y-68991005D01*
X85244922Y-68991004D01*
X85115341Y-68884659D01*
X85008996Y-68755078D01*
X84970523Y-68683100D01*
X84929976Y-68607242D01*
X84881313Y-68446823D01*
X84864883Y-68280000D01*
X84881313Y-68113177D01*
X84929976Y-67952758D01*
X85008995Y-67804924D01*
X85008996Y-67804922D01*
X85115341Y-67675341D01*
X85244922Y-67568996D01*
X85344346Y-67515853D01*
X85392758Y-67489976D01*
X85553177Y-67441313D01*
X85678196Y-67429000D01*
X86561804Y-67429000D01*
X86686823Y-67441313D01*
X86686823Y-67441313D01*
G37*
G36*
X62888228Y-67461703D02*
G01*
X63043100Y-67525853D01*
X63182481Y-67618985D01*
X63301015Y-67737519D01*
X63394147Y-67876900D01*
X63458297Y-68031772D01*
X63491000Y-68196184D01*
X63491000Y-68363816D01*
X63458297Y-68528228D01*
X63394147Y-68683100D01*
X63301015Y-68822481D01*
X63182481Y-68941015D01*
X63043100Y-69034147D01*
X62888228Y-69098297D01*
X62723816Y-69131000D01*
X62556184Y-69131000D01*
X62391772Y-69098297D01*
X62236900Y-69034147D01*
X62097519Y-68941015D01*
X61978985Y-68822481D01*
X61885853Y-68683100D01*
X61821703Y-68528228D01*
X61789000Y-68363816D01*
X61789000Y-68196184D01*
X61821703Y-68031772D01*
X61885853Y-67876900D01*
X61978985Y-67737519D01*
X62097519Y-67618985D01*
X62236900Y-67525853D01*
X62391772Y-67461703D01*
X62556184Y-67429000D01*
X62723816Y-67429000D01*
X62888228Y-67461703D01*
X62888228Y-67461703D01*
G37*
G36*
X71708228Y-67451703D02*
G01*
X71863100Y-67515853D01*
X72002481Y-67608985D01*
X72121015Y-67727519D01*
X72214147Y-67866900D01*
X72278297Y-68021772D01*
X72311000Y-68186184D01*
X72311000Y-68353816D01*
X72278297Y-68518228D01*
X72214147Y-68673100D01*
X72121015Y-68812481D01*
X72002481Y-68931015D01*
X71863100Y-69024147D01*
X71708228Y-69088297D01*
X71543816Y-69121000D01*
X71376184Y-69121000D01*
X71211772Y-69088297D01*
X71056900Y-69024147D01*
X70917519Y-68931015D01*
X70798985Y-68812481D01*
X70705853Y-68673100D01*
X70641703Y-68518228D01*
X70609000Y-68353816D01*
X70609000Y-68186184D01*
X70641703Y-68021772D01*
X70705853Y-67866900D01*
X70798985Y-67727519D01*
X70917519Y-67608985D01*
X71056900Y-67515853D01*
X71211772Y-67451703D01*
X71376184Y-67419000D01*
X71543816Y-67419000D01*
X71708228Y-67451703D01*
X71708228Y-67451703D01*
G37*
G36*
X42946580Y-62985076D02*
G01*
X43157589Y-63027048D01*
X43536671Y-63184069D01*
X43877835Y-63412028D01*
X44167972Y-63702165D01*
X44395931Y-64043329D01*
X44552952Y-64422411D01*
X44559071Y-64453175D01*
X44633000Y-64824841D01*
X44633000Y-65235159D01*
X44613935Y-65331004D01*
X44552952Y-65637589D01*
X44395931Y-66016671D01*
X44167972Y-66357835D01*
X43877835Y-66647972D01*
X43536671Y-66875931D01*
X43157589Y-67032952D01*
X42956373Y-67072976D01*
X42755159Y-67113000D01*
X42344841Y-67113000D01*
X42143627Y-67072976D01*
X41942411Y-67032952D01*
X41563329Y-66875931D01*
X41222165Y-66647972D01*
X40932028Y-66357835D01*
X40704069Y-66016671D01*
X40547048Y-65637589D01*
X40486065Y-65331004D01*
X40467000Y-65235159D01*
X40467000Y-64824841D01*
X40540929Y-64453175D01*
X40547048Y-64422411D01*
X40704069Y-64043329D01*
X40932028Y-63702165D01*
X41222165Y-63412028D01*
X41563329Y-63184069D01*
X41942411Y-63027048D01*
X42153420Y-62985076D01*
X42344841Y-62947000D01*
X42755159Y-62947000D01*
X42946580Y-62985076D01*
X42946580Y-62985076D01*
G37*
G36*
X106064903Y-63237075D02*
G01*
X106292571Y-63331378D01*
X106497466Y-63468285D01*
X106671715Y-63642534D01*
X106796960Y-63829976D01*
X106808623Y-63847431D01*
X106902925Y-64075097D01*
X106951000Y-64316786D01*
X106951000Y-64563214D01*
X106921043Y-64713816D01*
X106902925Y-64804903D01*
X106808622Y-65032571D01*
X106671715Y-65237466D01*
X106497466Y-65411715D01*
X106292571Y-65548622D01*
X106292570Y-65548623D01*
X106292569Y-65548623D01*
X106064903Y-65642925D01*
X105823214Y-65691000D01*
X105576786Y-65691000D01*
X105335097Y-65642925D01*
X105107431Y-65548623D01*
X105107430Y-65548623D01*
X105107429Y-65548622D01*
X104902534Y-65411715D01*
X104728285Y-65237466D01*
X104591378Y-65032571D01*
X104497075Y-64804903D01*
X104478957Y-64713816D01*
X104449000Y-64563214D01*
X104449000Y-64316786D01*
X104497075Y-64075097D01*
X104591377Y-63847431D01*
X104603040Y-63829976D01*
X104728285Y-63642534D01*
X104902534Y-63468285D01*
X105107429Y-63331378D01*
X105335097Y-63237075D01*
X105576786Y-63189000D01*
X105823214Y-63189000D01*
X106064903Y-63237075D01*
X106064903Y-63237075D01*
G37*
G36*
X96588228Y-63811703D02*
G01*
X96743100Y-63875853D01*
X96882481Y-63968985D01*
X97001015Y-64087519D01*
X97094147Y-64226900D01*
X97158297Y-64381772D01*
X97191000Y-64546184D01*
X97191000Y-64713816D01*
X97158297Y-64878228D01*
X97094147Y-65033100D01*
X97001015Y-65172481D01*
X96882481Y-65291015D01*
X96743100Y-65384147D01*
X96588228Y-65448297D01*
X96423816Y-65481000D01*
X96256184Y-65481000D01*
X96091772Y-65448297D01*
X95936900Y-65384147D01*
X95797519Y-65291015D01*
X95678985Y-65172481D01*
X95585853Y-65033100D01*
X95521703Y-64878228D01*
X95489000Y-64713816D01*
X95489000Y-64546184D01*
X95521703Y-64381772D01*
X95585853Y-64226900D01*
X95678985Y-64087519D01*
X95797519Y-63968985D01*
X95936900Y-63875853D01*
X96091772Y-63811703D01*
X96256184Y-63779000D01*
X96423816Y-63779000D01*
X96588228Y-63811703D01*
X96588228Y-63811703D01*
G37*
G36*
X91976823Y-63781313D02*
G01*
X92137242Y-63829976D01*
X92247114Y-63888704D01*
X92285078Y-63908996D01*
X92414659Y-64015341D01*
X92521004Y-64144922D01*
X92521005Y-64144924D01*
X92600024Y-64292758D01*
X92648687Y-64453177D01*
X92665117Y-64620000D01*
X92648687Y-64786823D01*
X92600024Y-64947242D01*
X92554133Y-65033097D01*
X92521004Y-65095078D01*
X92414659Y-65224659D01*
X92285078Y-65331004D01*
X92285076Y-65331005D01*
X92137242Y-65410024D01*
X92137239Y-65410025D01*
X92107380Y-65419083D01*
X91976823Y-65458687D01*
X91851804Y-65471000D01*
X91768196Y-65471000D01*
X91643177Y-65458687D01*
X91512620Y-65419083D01*
X91482761Y-65410025D01*
X91482758Y-65410024D01*
X91334924Y-65331005D01*
X91334922Y-65331004D01*
X91205341Y-65224659D01*
X91098996Y-65095078D01*
X91065867Y-65033097D01*
X91019976Y-64947242D01*
X90971313Y-64786823D01*
X90954883Y-64620000D01*
X90971313Y-64453177D01*
X91019976Y-64292758D01*
X91098995Y-64144924D01*
X91098996Y-64144922D01*
X91205341Y-64015341D01*
X91334922Y-63908996D01*
X91372886Y-63888704D01*
X91482758Y-63829976D01*
X91643177Y-63781313D01*
X91768196Y-63769000D01*
X91851804Y-63769000D01*
X91976823Y-63781313D01*
X91976823Y-63781313D01*
G37*
G36*
X120572585Y-61378802D02*
G01*
X120722410Y-61408604D01*
X121004674Y-61525521D01*
X121258705Y-61695259D01*
X121474741Y-61911295D01*
X121644479Y-62165326D01*
X121761396Y-62447590D01*
X121821000Y-62747240D01*
X121821000Y-63052760D01*
X121761396Y-63352410D01*
X121644479Y-63634674D01*
X121474741Y-63888705D01*
X121258705Y-64104741D01*
X121004674Y-64274479D01*
X120722410Y-64391396D01*
X120572585Y-64421198D01*
X120422761Y-64451000D01*
X120117239Y-64451000D01*
X119967415Y-64421198D01*
X119817590Y-64391396D01*
X119535326Y-64274479D01*
X119281295Y-64104741D01*
X119065259Y-63888705D01*
X118895521Y-63634674D01*
X118778604Y-63352410D01*
X118719000Y-63052760D01*
X118719000Y-62747240D01*
X118778604Y-62447590D01*
X118895521Y-62165326D01*
X119065259Y-61911295D01*
X119281295Y-61695259D01*
X119535326Y-61525521D01*
X119817590Y-61408604D01*
X119967415Y-61378802D01*
X120117239Y-61349000D01*
X120422761Y-61349000D01*
X120572585Y-61378802D01*
X120572585Y-61378802D01*
G37*
G36*
X128192585Y-61378802D02*
G01*
X128342410Y-61408604D01*
X128624674Y-61525521D01*
X128878705Y-61695259D01*
X129094741Y-61911295D01*
X129264479Y-62165326D01*
X129381396Y-62447590D01*
X129441000Y-62747240D01*
X129441000Y-63052760D01*
X129381396Y-63352410D01*
X129264479Y-63634674D01*
X129094741Y-63888705D01*
X128878705Y-64104741D01*
X128624674Y-64274479D01*
X128342410Y-64391396D01*
X128192585Y-64421198D01*
X128042761Y-64451000D01*
X127737239Y-64451000D01*
X127587415Y-64421198D01*
X127437590Y-64391396D01*
X127155326Y-64274479D01*
X126901295Y-64104741D01*
X126685259Y-63888705D01*
X126515521Y-63634674D01*
X126398604Y-63352410D01*
X126339000Y-63052760D01*
X126339000Y-62747240D01*
X126398604Y-62447590D01*
X126515521Y-62165326D01*
X126685259Y-61911295D01*
X126901295Y-61695259D01*
X127155326Y-61525521D01*
X127437590Y-61408604D01*
X127587415Y-61378802D01*
X127737239Y-61349000D01*
X128042761Y-61349000D01*
X128192585Y-61378802D01*
X128192585Y-61378802D01*
G37*
G36*
X62836823Y-61671313D02*
G01*
X62997242Y-61719976D01*
X63064361Y-61755852D01*
X63145078Y-61798996D01*
X63274659Y-61905341D01*
X63381004Y-62034922D01*
X63381005Y-62034924D01*
X63460024Y-62182758D01*
X63508687Y-62343177D01*
X63525117Y-62510000D01*
X63508687Y-62676823D01*
X63460024Y-62837242D01*
X63419477Y-62913100D01*
X63381004Y-62985078D01*
X63274659Y-63114659D01*
X63145078Y-63221004D01*
X63145076Y-63221005D01*
X62997242Y-63300024D01*
X62836823Y-63348687D01*
X62711804Y-63361000D01*
X62628196Y-63361000D01*
X62503177Y-63348687D01*
X62342758Y-63300024D01*
X62194924Y-63221005D01*
X62194922Y-63221004D01*
X62065341Y-63114659D01*
X61958996Y-62985078D01*
X61920523Y-62913100D01*
X61879976Y-62837242D01*
X61831313Y-62676823D01*
X61814883Y-62510000D01*
X61831313Y-62343177D01*
X61879976Y-62182758D01*
X61958995Y-62034924D01*
X61958996Y-62034922D01*
X62065341Y-61905341D01*
X62194922Y-61798996D01*
X62275639Y-61755852D01*
X62342758Y-61719976D01*
X62503177Y-61671313D01*
X62628196Y-61659000D01*
X62711804Y-61659000D01*
X62836823Y-61671313D01*
X62836823Y-61671313D01*
G37*
G36*
X75618228Y-61691703D02*
G01*
X75773100Y-61755853D01*
X75912481Y-61848985D01*
X76031015Y-61967519D01*
X76124147Y-62106900D01*
X76188297Y-62261772D01*
X76221000Y-62426184D01*
X76221000Y-62593816D01*
X76188297Y-62758228D01*
X76124147Y-62913100D01*
X76031015Y-63052481D01*
X75912481Y-63171015D01*
X75773100Y-63264147D01*
X75618228Y-63328297D01*
X75453816Y-63361000D01*
X75286184Y-63361000D01*
X75121772Y-63328297D01*
X74966900Y-63264147D01*
X74827519Y-63171015D01*
X74708985Y-63052481D01*
X74615853Y-62913100D01*
X74551703Y-62758228D01*
X74519000Y-62593816D01*
X74519000Y-62426184D01*
X74551703Y-62261772D01*
X74615853Y-62106900D01*
X74708985Y-61967519D01*
X74827519Y-61848985D01*
X74966900Y-61755853D01*
X75121772Y-61691703D01*
X75286184Y-61659000D01*
X75453816Y-61659000D01*
X75618228Y-61691703D01*
X75618228Y-61691703D01*
G37*
G36*
X50848228Y-61631703D02*
G01*
X51003100Y-61695853D01*
X51142481Y-61788985D01*
X51261015Y-61907519D01*
X51354147Y-62046900D01*
X51418297Y-62201772D01*
X51451000Y-62366184D01*
X51451000Y-62533816D01*
X51418297Y-62698228D01*
X51354147Y-62853100D01*
X51261015Y-62992481D01*
X51142481Y-63111015D01*
X51003100Y-63204147D01*
X50848228Y-63268297D01*
X50683816Y-63301000D01*
X50516184Y-63301000D01*
X50351772Y-63268297D01*
X50196900Y-63204147D01*
X50057519Y-63111015D01*
X49938985Y-62992481D01*
X49845853Y-62853100D01*
X49781703Y-62698228D01*
X49749000Y-62533816D01*
X49749000Y-62366184D01*
X49781703Y-62201772D01*
X49845853Y-62046900D01*
X49938985Y-61907519D01*
X50057519Y-61788985D01*
X50196900Y-61695853D01*
X50351772Y-61631703D01*
X50516184Y-61599000D01*
X50683816Y-61599000D01*
X50848228Y-61631703D01*
X50848228Y-61631703D01*
G37*
G36*
X79026823Y-59801313D02*
G01*
X79187242Y-59849976D01*
X79260241Y-59888995D01*
X79335078Y-59928996D01*
X79464659Y-60035341D01*
X79571004Y-60164922D01*
X79571005Y-60164924D01*
X79650024Y-60312758D01*
X79698687Y-60473177D01*
X79715117Y-60640000D01*
X79698687Y-60806823D01*
X79650024Y-60967242D01*
X79592385Y-61075076D01*
X79571004Y-61115078D01*
X79464659Y-61244659D01*
X79335078Y-61351004D01*
X79335076Y-61351005D01*
X79187242Y-61430024D01*
X79026823Y-61478687D01*
X78901804Y-61491000D01*
X78018196Y-61491000D01*
X77893177Y-61478687D01*
X77732758Y-61430024D01*
X77584924Y-61351005D01*
X77584922Y-61351004D01*
X77455341Y-61244659D01*
X77348996Y-61115078D01*
X77327615Y-61075076D01*
X77269976Y-60967242D01*
X77221313Y-60806823D01*
X77204883Y-60640000D01*
X77221313Y-60473177D01*
X77269976Y-60312758D01*
X77348995Y-60164924D01*
X77348996Y-60164922D01*
X77455341Y-60035341D01*
X77584922Y-59928996D01*
X77659759Y-59888995D01*
X77732758Y-59849976D01*
X77893177Y-59801313D01*
X78018196Y-59789000D01*
X78901804Y-59789000D01*
X79026823Y-59801313D01*
X79026823Y-59801313D01*
G37*
G36*
X86646823Y-59801313D02*
G01*
X86807242Y-59849976D01*
X86880241Y-59888995D01*
X86955078Y-59928996D01*
X87084659Y-60035341D01*
X87191004Y-60164922D01*
X87191005Y-60164924D01*
X87270024Y-60312758D01*
X87318687Y-60473177D01*
X87335117Y-60640000D01*
X87318687Y-60806823D01*
X87270024Y-60967242D01*
X87212385Y-61075076D01*
X87191004Y-61115078D01*
X87084659Y-61244659D01*
X86955078Y-61351004D01*
X86955076Y-61351005D01*
X86807242Y-61430024D01*
X86646823Y-61478687D01*
X86521804Y-61491000D01*
X85638196Y-61491000D01*
X85513177Y-61478687D01*
X85352758Y-61430024D01*
X85204924Y-61351005D01*
X85204922Y-61351004D01*
X85075341Y-61244659D01*
X84968996Y-61115078D01*
X84947615Y-61075076D01*
X84889976Y-60967242D01*
X84841313Y-60806823D01*
X84824883Y-60640000D01*
X84841313Y-60473177D01*
X84889976Y-60312758D01*
X84968995Y-60164924D01*
X84968996Y-60164922D01*
X85075341Y-60035341D01*
X85204922Y-59928996D01*
X85279759Y-59888995D01*
X85352758Y-59849976D01*
X85513177Y-59801313D01*
X85638196Y-59789000D01*
X86521804Y-59789000D01*
X86646823Y-59801313D01*
X86646823Y-59801313D01*
G37*
G36*
X91986823Y-59761313D02*
G01*
X92147242Y-59809976D01*
X92279906Y-59880886D01*
X92295078Y-59888996D01*
X92424659Y-59995341D01*
X92531004Y-60124922D01*
X92531005Y-60124924D01*
X92610024Y-60272758D01*
X92658687Y-60433177D01*
X92675117Y-60600000D01*
X92658687Y-60766823D01*
X92610024Y-60927242D01*
X92539114Y-61059906D01*
X92531004Y-61075078D01*
X92424659Y-61204659D01*
X92295078Y-61311004D01*
X92295076Y-61311005D01*
X92147242Y-61390024D01*
X91986823Y-61438687D01*
X91861804Y-61451000D01*
X91778196Y-61451000D01*
X91653177Y-61438687D01*
X91492758Y-61390024D01*
X91344924Y-61311005D01*
X91344922Y-61311004D01*
X91215341Y-61204659D01*
X91108996Y-61075078D01*
X91100886Y-61059906D01*
X91029976Y-60927242D01*
X90981313Y-60766823D01*
X90964883Y-60600000D01*
X90981313Y-60433177D01*
X91029976Y-60272758D01*
X91108995Y-60124924D01*
X91108996Y-60124922D01*
X91215341Y-59995341D01*
X91344922Y-59888996D01*
X91360094Y-59880886D01*
X91492758Y-59809976D01*
X91653177Y-59761313D01*
X91778196Y-59749000D01*
X91861804Y-59749000D01*
X91986823Y-59761313D01*
X91986823Y-59761313D01*
G37*
G36*
X96526823Y-59761313D02*
G01*
X96687242Y-59809976D01*
X96819906Y-59880886D01*
X96835078Y-59888996D01*
X96964659Y-59995341D01*
X97071004Y-60124922D01*
X97071005Y-60124924D01*
X97150024Y-60272758D01*
X97198687Y-60433177D01*
X97215117Y-60600000D01*
X97198687Y-60766823D01*
X97150024Y-60927242D01*
X97079114Y-61059906D01*
X97071004Y-61075078D01*
X96964659Y-61204659D01*
X96835078Y-61311004D01*
X96835076Y-61311005D01*
X96687242Y-61390024D01*
X96526823Y-61438687D01*
X96401804Y-61451000D01*
X96318196Y-61451000D01*
X96193177Y-61438687D01*
X96032758Y-61390024D01*
X95884924Y-61311005D01*
X95884922Y-61311004D01*
X95755341Y-61204659D01*
X95648996Y-61075078D01*
X95640886Y-61059906D01*
X95569976Y-60927242D01*
X95521313Y-60766823D01*
X95504883Y-60600000D01*
X95521313Y-60433177D01*
X95569976Y-60272758D01*
X95648995Y-60124924D01*
X95648996Y-60124922D01*
X95755341Y-59995341D01*
X95884922Y-59888996D01*
X95900094Y-59880886D01*
X96032758Y-59809976D01*
X96193177Y-59761313D01*
X96318196Y-59749000D01*
X96401804Y-59749000D01*
X96526823Y-59761313D01*
X96526823Y-59761313D01*
G37*
G36*
X47016823Y-57321313D02*
G01*
X47147380Y-57360917D01*
X47174012Y-57368996D01*
X47177242Y-57369976D01*
X47268931Y-57418985D01*
X47325078Y-57448996D01*
X47454659Y-57555341D01*
X47561004Y-57684922D01*
X47561005Y-57684924D01*
X47640024Y-57832758D01*
X47688687Y-57993177D01*
X47705117Y-58160000D01*
X47688687Y-58326823D01*
X47688260Y-58328229D01*
X47641281Y-58483100D01*
X47640024Y-58487242D01*
X47569114Y-58619906D01*
X47561004Y-58635078D01*
X47454659Y-58764659D01*
X47325078Y-58871004D01*
X47325076Y-58871005D01*
X47177242Y-58950024D01*
X47016823Y-58998687D01*
X46891804Y-59011000D01*
X46808196Y-59011000D01*
X46683177Y-58998687D01*
X46522758Y-58950024D01*
X46374924Y-58871005D01*
X46374922Y-58871004D01*
X46245341Y-58764659D01*
X46138996Y-58635078D01*
X46130886Y-58619906D01*
X46059976Y-58487242D01*
X46058720Y-58483100D01*
X46011740Y-58328229D01*
X46011313Y-58326823D01*
X45994883Y-58160000D01*
X46011313Y-57993177D01*
X46059976Y-57832758D01*
X46138995Y-57684924D01*
X46138996Y-57684922D01*
X46245341Y-57555341D01*
X46374922Y-57448996D01*
X46431069Y-57418985D01*
X46522758Y-57369976D01*
X46525989Y-57368996D01*
X46552620Y-57360917D01*
X46683177Y-57321313D01*
X46808196Y-57309000D01*
X46891804Y-57309000D01*
X47016823Y-57321313D01*
X47016823Y-57321313D01*
G37*
G36*
X79026823Y-57261313D02*
G01*
X79187242Y-57309976D01*
X79299492Y-57369975D01*
X79335078Y-57388996D01*
X79464659Y-57495341D01*
X79571004Y-57624922D01*
X79571005Y-57624924D01*
X79650024Y-57772758D01*
X79698687Y-57933177D01*
X79715117Y-58100000D01*
X79698687Y-58266823D01*
X79650024Y-58427242D01*
X79620169Y-58483097D01*
X79571004Y-58575078D01*
X79464659Y-58704659D01*
X79335078Y-58811004D01*
X79335076Y-58811005D01*
X79187242Y-58890024D01*
X79026823Y-58938687D01*
X78901804Y-58951000D01*
X78018196Y-58951000D01*
X77893177Y-58938687D01*
X77732758Y-58890024D01*
X77584924Y-58811005D01*
X77584922Y-58811004D01*
X77455341Y-58704659D01*
X77348996Y-58575078D01*
X77299831Y-58483097D01*
X77269976Y-58427242D01*
X77221313Y-58266823D01*
X77204883Y-58100000D01*
X77221313Y-57933177D01*
X77269976Y-57772758D01*
X77348995Y-57624924D01*
X77348996Y-57624922D01*
X77455341Y-57495341D01*
X77584922Y-57388996D01*
X77620508Y-57369975D01*
X77732758Y-57309976D01*
X77893177Y-57261313D01*
X78018196Y-57249000D01*
X78901804Y-57249000D01*
X79026823Y-57261313D01*
X79026823Y-57261313D01*
G37*
G36*
X86646823Y-57261313D02*
G01*
X86807242Y-57309976D01*
X86919492Y-57369975D01*
X86955078Y-57388996D01*
X87084659Y-57495341D01*
X87191004Y-57624922D01*
X87191005Y-57624924D01*
X87270024Y-57772758D01*
X87318687Y-57933177D01*
X87335117Y-58100000D01*
X87318687Y-58266823D01*
X87270024Y-58427242D01*
X87240169Y-58483097D01*
X87191004Y-58575078D01*
X87084659Y-58704659D01*
X86955078Y-58811004D01*
X86955076Y-58811005D01*
X86807242Y-58890024D01*
X86646823Y-58938687D01*
X86521804Y-58951000D01*
X85638196Y-58951000D01*
X85513177Y-58938687D01*
X85352758Y-58890024D01*
X85204924Y-58811005D01*
X85204922Y-58811004D01*
X85075341Y-58704659D01*
X84968996Y-58575078D01*
X84919831Y-58483097D01*
X84889976Y-58427242D01*
X84841313Y-58266823D01*
X84824883Y-58100000D01*
X84841313Y-57933177D01*
X84889976Y-57772758D01*
X84968995Y-57624924D01*
X84968996Y-57624922D01*
X85075341Y-57495341D01*
X85204922Y-57388996D01*
X85240508Y-57369975D01*
X85352758Y-57309976D01*
X85513177Y-57261313D01*
X85638196Y-57249000D01*
X86521804Y-57249000D01*
X86646823Y-57261313D01*
X86646823Y-57261313D01*
G37*
G36*
X75526823Y-57241313D02*
G01*
X75687242Y-57289976D01*
X75722833Y-57309000D01*
X75835078Y-57368996D01*
X75964659Y-57475341D01*
X76071004Y-57604922D01*
X76071005Y-57604924D01*
X76150024Y-57752758D01*
X76198687Y-57913177D01*
X76215117Y-58080000D01*
X76198687Y-58246823D01*
X76150024Y-58407242D01*
X76107263Y-58487242D01*
X76071004Y-58555078D01*
X75964659Y-58684659D01*
X75835078Y-58791004D01*
X75835076Y-58791005D01*
X75687242Y-58870024D01*
X75687239Y-58870025D01*
X75684008Y-58871005D01*
X75526823Y-58918687D01*
X75401804Y-58931000D01*
X75318196Y-58931000D01*
X75193177Y-58918687D01*
X75035992Y-58871005D01*
X75032761Y-58870025D01*
X75032758Y-58870024D01*
X74884924Y-58791005D01*
X74884922Y-58791004D01*
X74755341Y-58684659D01*
X74648996Y-58555078D01*
X74612737Y-58487242D01*
X74569976Y-58407242D01*
X74521313Y-58246823D01*
X74504883Y-58080000D01*
X74521313Y-57913177D01*
X74569976Y-57752758D01*
X74648995Y-57604924D01*
X74648996Y-57604922D01*
X74755341Y-57475341D01*
X74884922Y-57368996D01*
X74997167Y-57309000D01*
X75032758Y-57289976D01*
X75193177Y-57241313D01*
X75318196Y-57229000D01*
X75401804Y-57229000D01*
X75526823Y-57241313D01*
X75526823Y-57241313D01*
G37*
G36*
X62908228Y-57261703D02*
G01*
X63063100Y-57325853D01*
X63202481Y-57418985D01*
X63321015Y-57537519D01*
X63414147Y-57676900D01*
X63478297Y-57831772D01*
X63511000Y-57996184D01*
X63511000Y-58163816D01*
X63478297Y-58328228D01*
X63414147Y-58483100D01*
X63321015Y-58622481D01*
X63202481Y-58741015D01*
X63063100Y-58834147D01*
X62908228Y-58898297D01*
X62743816Y-58931000D01*
X62576184Y-58931000D01*
X62411772Y-58898297D01*
X62256900Y-58834147D01*
X62117519Y-58741015D01*
X61998985Y-58622481D01*
X61905853Y-58483100D01*
X61841703Y-58328228D01*
X61809000Y-58163816D01*
X61809000Y-57996184D01*
X61841703Y-57831772D01*
X61905853Y-57676900D01*
X61998985Y-57537519D01*
X62117519Y-57418985D01*
X62256900Y-57325853D01*
X62411772Y-57261703D01*
X62576184Y-57229000D01*
X62743816Y-57229000D01*
X62908228Y-57261703D01*
X62908228Y-57261703D01*
G37*
G36*
X51731000Y-56781000D02*
G01*
X49429000Y-56781000D01*
X49429000Y-54479000D01*
X51731000Y-54479000D01*
X51731000Y-56781000D01*
X51731000Y-56781000D01*
G37*
G36*
X79026823Y-54721313D02*
G01*
X79187242Y-54769976D01*
X79319906Y-54840886D01*
X79335078Y-54848996D01*
X79464659Y-54955341D01*
X79571004Y-55084922D01*
X79571005Y-55084924D01*
X79650024Y-55232758D01*
X79698687Y-55393177D01*
X79715117Y-55560000D01*
X79698687Y-55726823D01*
X79650024Y-55887242D01*
X79579114Y-56019906D01*
X79571004Y-56035078D01*
X79464659Y-56164659D01*
X79335078Y-56271004D01*
X79335076Y-56271005D01*
X79187242Y-56350024D01*
X79026823Y-56398687D01*
X78901804Y-56411000D01*
X78018196Y-56411000D01*
X77893177Y-56398687D01*
X77732758Y-56350024D01*
X77584924Y-56271005D01*
X77584922Y-56271004D01*
X77455341Y-56164659D01*
X77348996Y-56035078D01*
X77340886Y-56019906D01*
X77269976Y-55887242D01*
X77221313Y-55726823D01*
X77204883Y-55560000D01*
X77221313Y-55393177D01*
X77269976Y-55232758D01*
X77348995Y-55084924D01*
X77348996Y-55084922D01*
X77455341Y-54955341D01*
X77584922Y-54848996D01*
X77600094Y-54840886D01*
X77732758Y-54769976D01*
X77893177Y-54721313D01*
X78018196Y-54709000D01*
X78901804Y-54709000D01*
X79026823Y-54721313D01*
X79026823Y-54721313D01*
G37*
G36*
X86646823Y-54721313D02*
G01*
X86807242Y-54769976D01*
X86939906Y-54840886D01*
X86955078Y-54848996D01*
X87084659Y-54955341D01*
X87191004Y-55084922D01*
X87191005Y-55084924D01*
X87270024Y-55232758D01*
X87318687Y-55393177D01*
X87335117Y-55560000D01*
X87318687Y-55726823D01*
X87270024Y-55887242D01*
X87199114Y-56019906D01*
X87191004Y-56035078D01*
X87084659Y-56164659D01*
X86955078Y-56271004D01*
X86955076Y-56271005D01*
X86807242Y-56350024D01*
X86646823Y-56398687D01*
X86521804Y-56411000D01*
X85638196Y-56411000D01*
X85513177Y-56398687D01*
X85352758Y-56350024D01*
X85204924Y-56271005D01*
X85204922Y-56271004D01*
X85075341Y-56164659D01*
X84968996Y-56035078D01*
X84960886Y-56019906D01*
X84889976Y-55887242D01*
X84841313Y-55726823D01*
X84824883Y-55560000D01*
X84841313Y-55393177D01*
X84889976Y-55232758D01*
X84968995Y-55084924D01*
X84968996Y-55084922D01*
X85075341Y-54955341D01*
X85204922Y-54848996D01*
X85220094Y-54840886D01*
X85352758Y-54769976D01*
X85513177Y-54721313D01*
X85638196Y-54709000D01*
X86521804Y-54709000D01*
X86646823Y-54721313D01*
X86646823Y-54721313D01*
G37*
G36*
X57966425Y-52562760D02*
G01*
X57966428Y-52562761D01*
X57966429Y-52562761D01*
X58145693Y-52617140D01*
X58145696Y-52617142D01*
X58145697Y-52617142D01*
X58310903Y-52705446D01*
X58455712Y-52824288D01*
X58574554Y-52969097D01*
X58657831Y-53124899D01*
X58662860Y-53134307D01*
X58704889Y-53272858D01*
X58717240Y-53313575D01*
X58735601Y-53500000D01*
X58717240Y-53686425D01*
X58717239Y-53686428D01*
X58717239Y-53686429D01*
X58662860Y-53865693D01*
X58662858Y-53865696D01*
X58662858Y-53865697D01*
X58574554Y-54030903D01*
X58455712Y-54175712D01*
X58310903Y-54294554D01*
X58145697Y-54382858D01*
X58145693Y-54382860D01*
X57966429Y-54437239D01*
X57966428Y-54437239D01*
X57966425Y-54437240D01*
X57826718Y-54451000D01*
X57733282Y-54451000D01*
X57593575Y-54437240D01*
X57593572Y-54437239D01*
X57593571Y-54437239D01*
X57414307Y-54382860D01*
X57414303Y-54382858D01*
X57249097Y-54294554D01*
X57104288Y-54175712D01*
X56985446Y-54030903D01*
X56897142Y-53865697D01*
X56897142Y-53865696D01*
X56897140Y-53865693D01*
X56842761Y-53686429D01*
X56842761Y-53686428D01*
X56842760Y-53686425D01*
X56824399Y-53500000D01*
X56842760Y-53313575D01*
X56855111Y-53272858D01*
X56897140Y-53134307D01*
X56902169Y-53124899D01*
X56985446Y-52969097D01*
X57104288Y-52824288D01*
X57249097Y-52705446D01*
X57414303Y-52617142D01*
X57414304Y-52617142D01*
X57414307Y-52617140D01*
X57593571Y-52562761D01*
X57593572Y-52562761D01*
X57593575Y-52562760D01*
X57733282Y-52549000D01*
X57826718Y-52549000D01*
X57966425Y-52562760D01*
X57966425Y-52562760D01*
G37*
G36*
X60506425Y-52562760D02*
G01*
X60506428Y-52562761D01*
X60506429Y-52562761D01*
X60685693Y-52617140D01*
X60685696Y-52617142D01*
X60685697Y-52617142D01*
X60850903Y-52705446D01*
X60995712Y-52824288D01*
X61114554Y-52969097D01*
X61197831Y-53124899D01*
X61202860Y-53134307D01*
X61244889Y-53272858D01*
X61257240Y-53313575D01*
X61275601Y-53500000D01*
X61257240Y-53686425D01*
X61257239Y-53686428D01*
X61257239Y-53686429D01*
X61202860Y-53865693D01*
X61202858Y-53865696D01*
X61202858Y-53865697D01*
X61114554Y-54030903D01*
X60995712Y-54175712D01*
X60850903Y-54294554D01*
X60685697Y-54382858D01*
X60685693Y-54382860D01*
X60506429Y-54437239D01*
X60506428Y-54437239D01*
X60506425Y-54437240D01*
X60366718Y-54451000D01*
X60273282Y-54451000D01*
X60133575Y-54437240D01*
X60133572Y-54437239D01*
X60133571Y-54437239D01*
X59954307Y-54382860D01*
X59954303Y-54382858D01*
X59789097Y-54294554D01*
X59644288Y-54175712D01*
X59525446Y-54030903D01*
X59437142Y-53865697D01*
X59437142Y-53865696D01*
X59437140Y-53865693D01*
X59382761Y-53686429D01*
X59382761Y-53686428D01*
X59382760Y-53686425D01*
X59364399Y-53500000D01*
X59382760Y-53313575D01*
X59395111Y-53272858D01*
X59437140Y-53134307D01*
X59442169Y-53124899D01*
X59525446Y-52969097D01*
X59644288Y-52824288D01*
X59789097Y-52705446D01*
X59954303Y-52617142D01*
X59954304Y-52617142D01*
X59954307Y-52617140D01*
X60133571Y-52562761D01*
X60133572Y-52562761D01*
X60133575Y-52562760D01*
X60273282Y-52549000D01*
X60366718Y-52549000D01*
X60506425Y-52562760D01*
X60506425Y-52562760D01*
G37*
G36*
X56191000Y-54451000D02*
G01*
X54289000Y-54451000D01*
X54289000Y-52549000D01*
X56191000Y-52549000D01*
X56191000Y-54451000D01*
X56191000Y-54451000D01*
G37*
G36*
X112764903Y-51887075D02*
G01*
X112992571Y-51981378D01*
X113197466Y-52118285D01*
X113371715Y-52292534D01*
X113453772Y-52415341D01*
X113508623Y-52497431D01*
X113602925Y-52725097D01*
X113651000Y-52966786D01*
X113651000Y-53213214D01*
X113602925Y-53454903D01*
X113546936Y-53590074D01*
X113508622Y-53682571D01*
X113371715Y-53887466D01*
X113197466Y-54061715D01*
X112992571Y-54198622D01*
X112992570Y-54198623D01*
X112992569Y-54198623D01*
X112764903Y-54292925D01*
X112523214Y-54341000D01*
X112276786Y-54341000D01*
X112035097Y-54292925D01*
X111807431Y-54198623D01*
X111807430Y-54198623D01*
X111807429Y-54198622D01*
X111602534Y-54061715D01*
X111428285Y-53887466D01*
X111291378Y-53682571D01*
X111253065Y-53590074D01*
X111197075Y-53454903D01*
X111149000Y-53213214D01*
X111149000Y-52966786D01*
X111197075Y-52725097D01*
X111291377Y-52497431D01*
X111346228Y-52415341D01*
X111428285Y-52292534D01*
X111602534Y-52118285D01*
X111807429Y-51981378D01*
X112035097Y-51887075D01*
X112276786Y-51839000D01*
X112523214Y-51839000D01*
X112764903Y-51887075D01*
X112764903Y-51887075D01*
G37*
G36*
X108651000Y-54341000D02*
G01*
X106149000Y-54341000D01*
X106149000Y-51839000D01*
X108651000Y-51839000D01*
X108651000Y-54341000D01*
X108651000Y-54341000D01*
G37*
G36*
X40037142Y-52728242D02*
G01*
X40185101Y-52789529D01*
X40318255Y-52878499D01*
X40431501Y-52991745D01*
X40520471Y-53124899D01*
X40581758Y-53272858D01*
X40613000Y-53429925D01*
X40613000Y-53590075D01*
X40581758Y-53747142D01*
X40520471Y-53895101D01*
X40431501Y-54028255D01*
X40318255Y-54141501D01*
X40185101Y-54230471D01*
X40037142Y-54291758D01*
X39880075Y-54323000D01*
X39719925Y-54323000D01*
X39562858Y-54291758D01*
X39414899Y-54230471D01*
X39281745Y-54141501D01*
X39168499Y-54028255D01*
X39079529Y-53895101D01*
X39018242Y-53747142D01*
X38987000Y-53590075D01*
X38987000Y-53429925D01*
X39018242Y-53272858D01*
X39079529Y-53124899D01*
X39168499Y-52991745D01*
X39281745Y-52878499D01*
X39414899Y-52789529D01*
X39562858Y-52728242D01*
X39719925Y-52697000D01*
X39880075Y-52697000D01*
X40037142Y-52728242D01*
X40037142Y-52728242D01*
G37*
G36*
X79711000Y-53871000D02*
G01*
X77209000Y-53871000D01*
X77209000Y-52169000D01*
X79711000Y-52169000D01*
X79711000Y-53871000D01*
X79711000Y-53871000D01*
G37*
G36*
X86646823Y-52181313D02*
G01*
X86807242Y-52229976D01*
X86924280Y-52292534D01*
X86955078Y-52308996D01*
X87084659Y-52415341D01*
X87191004Y-52544922D01*
X87191005Y-52544924D01*
X87270024Y-52692758D01*
X87318687Y-52853177D01*
X87335117Y-53020000D01*
X87318687Y-53186823D01*
X87270024Y-53347242D01*
X87225829Y-53429925D01*
X87191004Y-53495078D01*
X87084659Y-53624659D01*
X86955078Y-53731004D01*
X86955076Y-53731005D01*
X86807242Y-53810024D01*
X86646823Y-53858687D01*
X86521804Y-53871000D01*
X85638196Y-53871000D01*
X85513177Y-53858687D01*
X85352758Y-53810024D01*
X85204924Y-53731005D01*
X85204922Y-53731004D01*
X85075341Y-53624659D01*
X84968996Y-53495078D01*
X84934171Y-53429925D01*
X84889976Y-53347242D01*
X84841313Y-53186823D01*
X84824883Y-53020000D01*
X84841313Y-52853177D01*
X84889976Y-52692758D01*
X84968995Y-52544924D01*
X84968996Y-52544922D01*
X85075341Y-52415341D01*
X85204922Y-52308996D01*
X85235720Y-52292534D01*
X85352758Y-52229976D01*
X85513177Y-52181313D01*
X85638196Y-52169000D01*
X86521804Y-52169000D01*
X86646823Y-52181313D01*
X86646823Y-52181313D01*
G37*
G36*
X102001000Y-53801000D02*
G01*
X100379000Y-53801000D01*
X100379000Y-52179000D01*
X102001000Y-52179000D01*
X102001000Y-53801000D01*
X102001000Y-53801000D01*
G37*
G36*
X128321000Y-53531000D02*
G01*
X125019000Y-53531000D01*
X125019000Y-50229000D01*
X128321000Y-50229000D01*
X128321000Y-53531000D01*
X128321000Y-53531000D01*
G37*
G36*
X122371000Y-53531000D02*
G01*
X119069000Y-53531000D01*
X119069000Y-50229000D01*
X122371000Y-50229000D01*
X122371000Y-53531000D01*
X122371000Y-53531000D01*
G37*
G36*
X71081000Y-53191000D02*
G01*
X68579000Y-53191000D01*
X68579000Y-50689000D01*
X71081000Y-50689000D01*
X71081000Y-53191000D01*
X71081000Y-53191000D01*
G37*
G36*
X101426560Y-49670166D02*
G01*
X101574153Y-49731301D01*
X101706982Y-49820055D01*
X101819945Y-49933018D01*
X101908699Y-50065847D01*
X101969834Y-50213440D01*
X102001000Y-50370123D01*
X102001000Y-50529877D01*
X101969834Y-50686560D01*
X101908699Y-50834153D01*
X101819945Y-50966982D01*
X101706982Y-51079945D01*
X101574153Y-51168699D01*
X101574152Y-51168700D01*
X101574151Y-51168700D01*
X101426560Y-51229834D01*
X101269878Y-51261000D01*
X101110122Y-51261000D01*
X100953440Y-51229834D01*
X100805849Y-51168700D01*
X100805848Y-51168700D01*
X100805847Y-51168699D01*
X100673018Y-51079945D01*
X100560055Y-50966982D01*
X100471301Y-50834153D01*
X100410166Y-50686560D01*
X100379000Y-50529877D01*
X100379000Y-50370123D01*
X100410166Y-50213440D01*
X100471301Y-50065847D01*
X100560055Y-49933018D01*
X100673018Y-49820055D01*
X100805847Y-49731301D01*
X100953440Y-49670166D01*
X101110122Y-49639000D01*
X101269878Y-49639000D01*
X101426560Y-49670166D01*
X101426560Y-49670166D01*
G37*
G36*
X40037142Y-47648242D02*
G01*
X40185101Y-47709529D01*
X40318255Y-47798499D01*
X40431501Y-47911745D01*
X40520471Y-48044899D01*
X40581758Y-48192858D01*
X40613000Y-48349925D01*
X40613000Y-48510075D01*
X40581758Y-48667142D01*
X40520471Y-48815101D01*
X40431501Y-48948255D01*
X40318255Y-49061501D01*
X40185101Y-49150471D01*
X40037142Y-49211758D01*
X39880075Y-49243000D01*
X39719925Y-49243000D01*
X39562858Y-49211758D01*
X39414899Y-49150471D01*
X39281745Y-49061501D01*
X39168499Y-48948255D01*
X39079529Y-48815101D01*
X39018242Y-48667142D01*
X38987000Y-48510075D01*
X38987000Y-48349925D01*
X39018242Y-48192858D01*
X39079529Y-48044899D01*
X39168499Y-47911745D01*
X39281745Y-47798499D01*
X39414899Y-47709529D01*
X39562858Y-47648242D01*
X39719925Y-47617000D01*
X39880075Y-47617000D01*
X40037142Y-47648242D01*
X40037142Y-47648242D01*
G37*
G36*
X96608228Y-47081703D02*
G01*
X96763100Y-47145853D01*
X96902481Y-47238985D01*
X97021015Y-47357519D01*
X97114147Y-47496900D01*
X97178297Y-47651772D01*
X97211000Y-47816184D01*
X97211000Y-47983816D01*
X97178297Y-48148228D01*
X97114147Y-48303100D01*
X97021015Y-48442481D01*
X96902481Y-48561015D01*
X96763100Y-48654147D01*
X96608228Y-48718297D01*
X96443816Y-48751000D01*
X96276184Y-48751000D01*
X96111772Y-48718297D01*
X95956900Y-48654147D01*
X95817519Y-48561015D01*
X95698985Y-48442481D01*
X95605853Y-48303100D01*
X95541703Y-48148228D01*
X95509000Y-47983816D01*
X95509000Y-47816184D01*
X95541703Y-47651772D01*
X95605853Y-47496900D01*
X95698985Y-47357519D01*
X95817519Y-47238985D01*
X95956900Y-47145853D01*
X96111772Y-47081703D01*
X96276184Y-47049000D01*
X96443816Y-47049000D01*
X96608228Y-47081703D01*
X96608228Y-47081703D01*
G37*
G36*
X92068228Y-47081703D02*
G01*
X92223100Y-47145853D01*
X92362481Y-47238985D01*
X92481015Y-47357519D01*
X92574147Y-47496900D01*
X92638297Y-47651772D01*
X92671000Y-47816184D01*
X92671000Y-47983816D01*
X92638297Y-48148228D01*
X92574147Y-48303100D01*
X92481015Y-48442481D01*
X92362481Y-48561015D01*
X92223100Y-48654147D01*
X92068228Y-48718297D01*
X91903816Y-48751000D01*
X91736184Y-48751000D01*
X91571772Y-48718297D01*
X91416900Y-48654147D01*
X91277519Y-48561015D01*
X91158985Y-48442481D01*
X91065853Y-48303100D01*
X91001703Y-48148228D01*
X90969000Y-47983816D01*
X90969000Y-47816184D01*
X91001703Y-47651772D01*
X91065853Y-47496900D01*
X91158985Y-47357519D01*
X91277519Y-47238985D01*
X91416900Y-47145853D01*
X91571772Y-47081703D01*
X91736184Y-47049000D01*
X91903816Y-47049000D01*
X92068228Y-47081703D01*
X92068228Y-47081703D01*
G37*
G36*
X101426560Y-47130166D02*
G01*
X101574153Y-47191301D01*
X101706982Y-47280055D01*
X101819945Y-47393018D01*
X101892107Y-47501015D01*
X101908700Y-47525849D01*
X101969834Y-47673440D01*
X101998228Y-47816184D01*
X102001000Y-47830123D01*
X102001000Y-47989877D01*
X101969834Y-48146560D01*
X101908699Y-48294153D01*
X101819945Y-48426982D01*
X101706982Y-48539945D01*
X101574153Y-48628699D01*
X101574152Y-48628700D01*
X101574151Y-48628700D01*
X101426560Y-48689834D01*
X101269878Y-48721000D01*
X101110122Y-48721000D01*
X100953440Y-48689834D01*
X100805849Y-48628700D01*
X100805848Y-48628700D01*
X100805847Y-48628699D01*
X100673018Y-48539945D01*
X100560055Y-48426982D01*
X100471301Y-48294153D01*
X100410166Y-48146560D01*
X100379000Y-47989877D01*
X100379000Y-47830123D01*
X100381773Y-47816184D01*
X100410166Y-47673440D01*
X100471300Y-47525849D01*
X100487894Y-47501015D01*
X100560055Y-47393018D01*
X100673018Y-47280055D01*
X100805847Y-47191301D01*
X100953440Y-47130166D01*
X101110122Y-47099000D01*
X101269878Y-47099000D01*
X101426560Y-47130166D01*
X101426560Y-47130166D01*
G37*
G36*
X70194903Y-45737075D02*
G01*
X70422571Y-45831378D01*
X70627466Y-45968285D01*
X70801715Y-46142534D01*
X70938622Y-46347429D01*
X70938623Y-46347431D01*
X71032925Y-46575097D01*
X71081000Y-46816786D01*
X71081000Y-47063214D01*
X71032925Y-47304903D01*
X70941407Y-47525849D01*
X70938622Y-47532571D01*
X70801715Y-47737466D01*
X70627466Y-47911715D01*
X70422571Y-48048622D01*
X70422570Y-48048623D01*
X70422569Y-48048623D01*
X70194903Y-48142925D01*
X69953214Y-48191000D01*
X69706786Y-48191000D01*
X69465097Y-48142925D01*
X69237431Y-48048623D01*
X69237430Y-48048623D01*
X69237429Y-48048622D01*
X69032534Y-47911715D01*
X68858285Y-47737466D01*
X68721378Y-47532571D01*
X68718594Y-47525849D01*
X68627075Y-47304903D01*
X68579000Y-47063214D01*
X68579000Y-46816786D01*
X68627075Y-46575097D01*
X68721377Y-46347431D01*
X68721378Y-46347429D01*
X68858285Y-46142534D01*
X69032534Y-45968285D01*
X69237429Y-45831378D01*
X69465097Y-45737075D01*
X69706786Y-45689000D01*
X69953214Y-45689000D01*
X70194903Y-45737075D01*
X70194903Y-45737075D01*
G37*
G36*
X83818228Y-46021703D02*
G01*
X83973100Y-46085853D01*
X84112481Y-46178985D01*
X84231015Y-46297519D01*
X84324147Y-46436900D01*
X84388297Y-46591772D01*
X84421000Y-46756184D01*
X84421000Y-46923816D01*
X84388297Y-47088228D01*
X84324147Y-47243100D01*
X84231015Y-47382481D01*
X84112481Y-47501015D01*
X83973100Y-47594147D01*
X83818228Y-47658297D01*
X83653816Y-47691000D01*
X83486184Y-47691000D01*
X83321772Y-47658297D01*
X83166900Y-47594147D01*
X83027519Y-47501015D01*
X82908985Y-47382481D01*
X82815853Y-47243100D01*
X82751703Y-47088228D01*
X82719000Y-46923816D01*
X82719000Y-46756184D01*
X82751703Y-46591772D01*
X82815853Y-46436900D01*
X82908985Y-46297519D01*
X83027519Y-46178985D01*
X83166900Y-46085853D01*
X83321772Y-46021703D01*
X83486184Y-45989000D01*
X83653816Y-45989000D01*
X83818228Y-46021703D01*
X83818228Y-46021703D01*
G37*
G36*
X78818228Y-46021703D02*
G01*
X78973100Y-46085853D01*
X79112481Y-46178985D01*
X79231015Y-46297519D01*
X79324147Y-46436900D01*
X79388297Y-46591772D01*
X79421000Y-46756184D01*
X79421000Y-46923816D01*
X79388297Y-47088228D01*
X79324147Y-47243100D01*
X79231015Y-47382481D01*
X79112481Y-47501015D01*
X78973100Y-47594147D01*
X78818228Y-47658297D01*
X78653816Y-47691000D01*
X78486184Y-47691000D01*
X78321772Y-47658297D01*
X78166900Y-47594147D01*
X78027519Y-47501015D01*
X77908985Y-47382481D01*
X77815853Y-47243100D01*
X77751703Y-47088228D01*
X77719000Y-46923816D01*
X77719000Y-46756184D01*
X77751703Y-46591772D01*
X77815853Y-46436900D01*
X77908985Y-46297519D01*
X78027519Y-46178985D01*
X78166900Y-46085853D01*
X78321772Y-46021703D01*
X78486184Y-45989000D01*
X78653816Y-45989000D01*
X78818228Y-46021703D01*
X78818228Y-46021703D01*
G37*
G36*
X50749271Y-44330103D02*
G01*
X50805635Y-44335654D01*
X51022600Y-44401470D01*
X51022602Y-44401471D01*
X51222555Y-44508347D01*
X51397818Y-44652182D01*
X51541653Y-44827445D01*
X51648529Y-45027398D01*
X51648530Y-45027400D01*
X51714346Y-45244365D01*
X51736569Y-45470000D01*
X51714346Y-45695635D01*
X51663546Y-45863100D01*
X51648529Y-45912602D01*
X51541653Y-46112555D01*
X51397818Y-46287818D01*
X51222555Y-46431653D01*
X51022602Y-46538529D01*
X51022600Y-46538530D01*
X50805635Y-46604346D01*
X50749271Y-46609897D01*
X50636545Y-46621000D01*
X50523455Y-46621000D01*
X50410729Y-46609897D01*
X50354365Y-46604346D01*
X50137400Y-46538530D01*
X50137398Y-46538529D01*
X49937445Y-46431653D01*
X49762182Y-46287818D01*
X49618347Y-46112555D01*
X49511471Y-45912602D01*
X49496455Y-45863100D01*
X49445654Y-45695635D01*
X49423431Y-45470000D01*
X49445654Y-45244365D01*
X49511470Y-45027400D01*
X49511471Y-45027398D01*
X49618347Y-44827445D01*
X49762182Y-44652182D01*
X49937445Y-44508347D01*
X50137398Y-44401471D01*
X50137400Y-44401470D01*
X50354365Y-44335654D01*
X50410729Y-44330103D01*
X50523455Y-44319000D01*
X50636545Y-44319000D01*
X50749271Y-44330103D01*
X50749271Y-44330103D01*
G37*
G36*
X47098228Y-44641703D02*
G01*
X47253100Y-44705853D01*
X47392481Y-44798985D01*
X47511015Y-44917519D01*
X47604147Y-45056900D01*
X47668297Y-45211772D01*
X47701000Y-45376184D01*
X47701000Y-45543816D01*
X47668297Y-45708228D01*
X47604147Y-45863100D01*
X47511015Y-46002481D01*
X47392481Y-46121015D01*
X47253100Y-46214147D01*
X47098228Y-46278297D01*
X46933816Y-46311000D01*
X46766184Y-46311000D01*
X46601772Y-46278297D01*
X46446900Y-46214147D01*
X46307519Y-46121015D01*
X46188985Y-46002481D01*
X46095853Y-45863100D01*
X46031703Y-45708228D01*
X45999000Y-45543816D01*
X45999000Y-45376184D01*
X46031703Y-45211772D01*
X46095853Y-45056900D01*
X46188985Y-44917519D01*
X46307519Y-44798985D01*
X46446900Y-44705853D01*
X46601772Y-44641703D01*
X46766184Y-44609000D01*
X46933816Y-44609000D01*
X47098228Y-44641703D01*
X47098228Y-44641703D01*
G37*
G36*
X113966560Y-43200166D02*
G01*
X114047799Y-43233816D01*
X114114153Y-43261301D01*
X114197247Y-43316823D01*
X114246982Y-43350055D01*
X114359945Y-43463018D01*
X114448700Y-43595849D01*
X114509834Y-43743440D01*
X114523276Y-43811015D01*
X114541000Y-43900123D01*
X114541000Y-44059877D01*
X114509834Y-44216560D01*
X114448699Y-44364153D01*
X114359945Y-44496982D01*
X114246982Y-44609945D01*
X114114153Y-44698699D01*
X114114152Y-44698700D01*
X114114151Y-44698700D01*
X113966560Y-44759834D01*
X113809878Y-44791000D01*
X113650122Y-44791000D01*
X113493440Y-44759834D01*
X113345849Y-44698700D01*
X113345848Y-44698700D01*
X113345847Y-44698699D01*
X113213018Y-44609945D01*
X113100055Y-44496982D01*
X113011301Y-44364153D01*
X112950166Y-44216560D01*
X112919000Y-44059877D01*
X112919000Y-43900123D01*
X112936725Y-43811015D01*
X112950166Y-43743440D01*
X113011300Y-43595849D01*
X113100055Y-43463018D01*
X113213018Y-43350055D01*
X113262753Y-43316823D01*
X113345847Y-43261301D01*
X113412202Y-43233816D01*
X113493440Y-43200166D01*
X113650122Y-43169000D01*
X113809878Y-43169000D01*
X113966560Y-43200166D01*
X113966560Y-43200166D01*
G37*
G36*
X108866560Y-43200166D02*
G01*
X108947799Y-43233816D01*
X109014153Y-43261301D01*
X109097247Y-43316823D01*
X109146982Y-43350055D01*
X109259945Y-43463018D01*
X109348700Y-43595849D01*
X109409834Y-43743440D01*
X109423276Y-43811015D01*
X109441000Y-43900123D01*
X109441000Y-44059877D01*
X109409834Y-44216560D01*
X109348699Y-44364153D01*
X109259945Y-44496982D01*
X109146982Y-44609945D01*
X109014153Y-44698699D01*
X109014152Y-44698700D01*
X109014151Y-44698700D01*
X108866560Y-44759834D01*
X108709878Y-44791000D01*
X108550122Y-44791000D01*
X108393440Y-44759834D01*
X108245849Y-44698700D01*
X108245848Y-44698700D01*
X108245847Y-44698699D01*
X108113018Y-44609945D01*
X108000055Y-44496982D01*
X107911301Y-44364153D01*
X107850166Y-44216560D01*
X107819000Y-44059877D01*
X107819000Y-43900123D01*
X107836725Y-43811015D01*
X107850166Y-43743440D01*
X107911300Y-43595849D01*
X108000055Y-43463018D01*
X108113018Y-43350055D01*
X108162753Y-43316823D01*
X108245847Y-43261301D01*
X108312202Y-43233816D01*
X108393440Y-43200166D01*
X108550122Y-43169000D01*
X108709878Y-43169000D01*
X108866560Y-43200166D01*
X108866560Y-43200166D01*
G37*
G36*
X92116823Y-42311313D02*
G01*
X92277242Y-42359976D01*
X92344361Y-42395852D01*
X92425078Y-42438996D01*
X92554659Y-42545341D01*
X92661004Y-42674922D01*
X92661005Y-42674924D01*
X92740024Y-42822758D01*
X92788687Y-42983177D01*
X92805117Y-43150000D01*
X92788687Y-43316823D01*
X92740024Y-43477242D01*
X92699477Y-43553100D01*
X92661004Y-43625078D01*
X92554659Y-43754659D01*
X92425078Y-43861004D01*
X92425076Y-43861005D01*
X92277242Y-43940024D01*
X92116823Y-43988687D01*
X91991804Y-44001000D01*
X91908196Y-44001000D01*
X91783177Y-43988687D01*
X91622758Y-43940024D01*
X91474924Y-43861005D01*
X91474922Y-43861004D01*
X91345341Y-43754659D01*
X91238996Y-43625078D01*
X91200523Y-43553100D01*
X91159976Y-43477242D01*
X91111313Y-43316823D01*
X91094883Y-43150000D01*
X91111313Y-42983177D01*
X91159976Y-42822758D01*
X91238995Y-42674924D01*
X91238996Y-42674922D01*
X91345341Y-42545341D01*
X91474922Y-42438996D01*
X91555639Y-42395852D01*
X91622758Y-42359976D01*
X91783177Y-42311313D01*
X91908196Y-42299000D01*
X91991804Y-42299000D01*
X92116823Y-42311313D01*
X92116823Y-42311313D01*
G37*
G36*
X104898228Y-42331703D02*
G01*
X105053100Y-42395853D01*
X105192481Y-42488985D01*
X105311015Y-42607519D01*
X105404147Y-42746900D01*
X105468297Y-42901772D01*
X105501000Y-43066184D01*
X105501000Y-43233816D01*
X105468297Y-43398228D01*
X105404147Y-43553100D01*
X105311015Y-43692481D01*
X105192481Y-43811015D01*
X105053100Y-43904147D01*
X104898228Y-43968297D01*
X104733816Y-44001000D01*
X104566184Y-44001000D01*
X104401772Y-43968297D01*
X104246900Y-43904147D01*
X104107519Y-43811015D01*
X103988985Y-43692481D01*
X103895853Y-43553100D01*
X103831703Y-43398228D01*
X103799000Y-43233816D01*
X103799000Y-43066184D01*
X103831703Y-42901772D01*
X103895853Y-42746900D01*
X103988985Y-42607519D01*
X104107519Y-42488985D01*
X104246900Y-42395853D01*
X104401772Y-42331703D01*
X104566184Y-42299000D01*
X104733816Y-42299000D01*
X104898228Y-42331703D01*
X104898228Y-42331703D01*
G37*
G36*
X40311061Y-38900000D02*
G01*
X40547589Y-38947048D01*
X40926671Y-39104069D01*
X41267835Y-39332028D01*
X41557972Y-39622165D01*
X41785931Y-39963329D01*
X41942952Y-40342411D01*
X41957417Y-40415133D01*
X42018318Y-40721301D01*
X42023000Y-40744842D01*
X42023000Y-41155158D01*
X41942952Y-41557589D01*
X41785931Y-41936671D01*
X41557972Y-42277835D01*
X41267835Y-42567972D01*
X40926671Y-42795931D01*
X40547589Y-42952952D01*
X40346373Y-42992976D01*
X40145159Y-43033000D01*
X39734841Y-43033000D01*
X39533627Y-42992976D01*
X39332411Y-42952952D01*
X38953329Y-42795931D01*
X38612165Y-42567972D01*
X38322028Y-42277835D01*
X38094069Y-41936671D01*
X37937048Y-41557589D01*
X37857000Y-41155158D01*
X37857000Y-40744842D01*
X37861683Y-40721301D01*
X37922583Y-40415133D01*
X37937048Y-40342411D01*
X38094069Y-39963329D01*
X38322028Y-39622165D01*
X38612165Y-39332028D01*
X38953329Y-39104069D01*
X39332411Y-38947048D01*
X39568939Y-38900000D01*
X39734841Y-38867000D01*
X40145159Y-38867000D01*
X40311061Y-38900000D01*
X40311061Y-38900000D01*
G37*
G36*
X62241000Y-42701000D02*
G01*
X58939000Y-42701000D01*
X58939000Y-39399000D01*
X62241000Y-39399000D01*
X62241000Y-42701000D01*
X62241000Y-42701000D01*
G37*
G36*
X45673651Y-39422888D02*
G01*
X45984870Y-39517296D01*
X46271680Y-39670599D01*
X46271683Y-39670601D01*
X46271684Y-39670602D01*
X46523082Y-39876918D01*
X46729398Y-40128316D01*
X46729401Y-40128320D01*
X46882704Y-40415130D01*
X46977112Y-40726349D01*
X47008988Y-41050000D01*
X46977112Y-41373651D01*
X46882704Y-41684870D01*
X46729401Y-41971680D01*
X46729399Y-41971683D01*
X46729398Y-41971684D01*
X46523082Y-42223082D01*
X46271684Y-42429398D01*
X46271680Y-42429401D01*
X45984870Y-42582704D01*
X45673651Y-42677112D01*
X45431107Y-42701000D01*
X45268893Y-42701000D01*
X45026349Y-42677112D01*
X44715130Y-42582704D01*
X44428320Y-42429401D01*
X44428316Y-42429398D01*
X44176918Y-42223082D01*
X43970602Y-41971684D01*
X43970601Y-41971683D01*
X43970599Y-41971680D01*
X43817296Y-41684870D01*
X43722888Y-41373651D01*
X43691012Y-41050000D01*
X43722888Y-40726349D01*
X43817296Y-40415130D01*
X43970599Y-40128320D01*
X43970602Y-40128316D01*
X44176918Y-39876918D01*
X44428316Y-39670602D01*
X44428317Y-39670601D01*
X44428320Y-39670599D01*
X44715130Y-39517296D01*
X45026349Y-39422888D01*
X45268893Y-39399000D01*
X45431107Y-39399000D01*
X45673651Y-39422888D01*
X45673651Y-39422888D01*
G37*
G36*
X108866560Y-40660166D02*
G01*
X109014153Y-40721301D01*
X109146982Y-40810055D01*
X109259945Y-40923018D01*
X109348699Y-41055847D01*
X109409834Y-41203440D01*
X109441000Y-41360123D01*
X109441000Y-41519877D01*
X109409834Y-41676560D01*
X109348699Y-41824153D01*
X109259945Y-41956982D01*
X109146982Y-42069945D01*
X109014153Y-42158699D01*
X109014152Y-42158700D01*
X109014151Y-42158700D01*
X108866560Y-42219834D01*
X108709878Y-42251000D01*
X108550122Y-42251000D01*
X108393440Y-42219834D01*
X108245849Y-42158700D01*
X108245848Y-42158700D01*
X108245847Y-42158699D01*
X108113018Y-42069945D01*
X108000055Y-41956982D01*
X107911301Y-41824153D01*
X107850166Y-41676560D01*
X107819000Y-41519877D01*
X107819000Y-41360123D01*
X107850166Y-41203440D01*
X107911301Y-41055847D01*
X108000055Y-40923018D01*
X108113018Y-40810055D01*
X108245847Y-40721301D01*
X108393440Y-40660166D01*
X108550122Y-40629000D01*
X108709878Y-40629000D01*
X108866560Y-40660166D01*
X108866560Y-40660166D01*
G37*
G36*
X113966560Y-40660166D02*
G01*
X114114153Y-40721301D01*
X114246982Y-40810055D01*
X114359945Y-40923018D01*
X114448699Y-41055847D01*
X114509834Y-41203440D01*
X114541000Y-41360123D01*
X114541000Y-41519877D01*
X114509834Y-41676560D01*
X114448699Y-41824153D01*
X114359945Y-41956982D01*
X114246982Y-42069945D01*
X114114153Y-42158699D01*
X114114152Y-42158700D01*
X114114151Y-42158700D01*
X113966560Y-42219834D01*
X113809878Y-42251000D01*
X113650122Y-42251000D01*
X113493440Y-42219834D01*
X113345849Y-42158700D01*
X113345848Y-42158700D01*
X113345847Y-42158699D01*
X113213018Y-42069945D01*
X113100055Y-41956982D01*
X113011301Y-41824153D01*
X112950166Y-41676560D01*
X112919000Y-41519877D01*
X112919000Y-41360123D01*
X112950166Y-41203440D01*
X113011301Y-41055847D01*
X113100055Y-40923018D01*
X113213018Y-40810055D01*
X113345847Y-40721301D01*
X113493440Y-40660166D01*
X113650122Y-40629000D01*
X113809878Y-40629000D01*
X113966560Y-40660166D01*
X113966560Y-40660166D01*
G37*
G36*
X89801000Y-39951000D02*
G01*
X87499000Y-39951000D01*
X87499000Y-37649000D01*
X89801000Y-37649000D01*
X89801000Y-39951000D01*
X89801000Y-39951000D01*
G37*
G36*
X78659271Y-37660103D02*
G01*
X78715635Y-37665654D01*
X78932600Y-37731470D01*
X78932602Y-37731471D01*
X79132555Y-37838347D01*
X79307818Y-37982182D01*
X79451653Y-38157445D01*
X79523039Y-38291000D01*
X79558530Y-38357400D01*
X79624346Y-38574365D01*
X79646569Y-38800000D01*
X79624346Y-39025635D01*
X79563189Y-39227242D01*
X79558529Y-39242602D01*
X79451653Y-39442555D01*
X79307818Y-39617818D01*
X79132555Y-39761653D01*
X78932602Y-39868529D01*
X78932600Y-39868530D01*
X78715635Y-39934346D01*
X78659271Y-39939897D01*
X78546545Y-39951000D01*
X78433455Y-39951000D01*
X78320729Y-39939897D01*
X78264365Y-39934346D01*
X78047400Y-39868530D01*
X78047398Y-39868529D01*
X77847445Y-39761653D01*
X77672182Y-39617818D01*
X77528347Y-39442555D01*
X77421471Y-39242602D01*
X77416812Y-39227242D01*
X77355654Y-39025635D01*
X77333431Y-38800000D01*
X77355654Y-38574365D01*
X77421470Y-38357400D01*
X77456961Y-38291000D01*
X77528347Y-38157445D01*
X77672182Y-37982182D01*
X77847445Y-37838347D01*
X78047398Y-37731471D01*
X78047400Y-37731470D01*
X78264365Y-37665654D01*
X78320729Y-37660103D01*
X78433455Y-37649000D01*
X78546545Y-37649000D01*
X78659271Y-37660103D01*
X78659271Y-37660103D01*
G37*
G36*
X92208228Y-38081703D02*
G01*
X92363100Y-38145853D01*
X92502481Y-38238985D01*
X92621015Y-38357519D01*
X92714147Y-38496900D01*
X92778297Y-38651772D01*
X92811000Y-38816184D01*
X92811000Y-38983816D01*
X92778297Y-39148228D01*
X92714147Y-39303100D01*
X92621015Y-39442481D01*
X92502481Y-39561015D01*
X92363100Y-39654147D01*
X92208228Y-39718297D01*
X92043816Y-39751000D01*
X91876184Y-39751000D01*
X91711772Y-39718297D01*
X91556900Y-39654147D01*
X91417519Y-39561015D01*
X91298985Y-39442481D01*
X91205853Y-39303100D01*
X91141703Y-39148228D01*
X91109000Y-38983816D01*
X91109000Y-38816184D01*
X91141703Y-38651772D01*
X91205853Y-38496900D01*
X91298985Y-38357519D01*
X91417519Y-38238985D01*
X91556900Y-38145853D01*
X91711772Y-38081703D01*
X91876184Y-38049000D01*
X92043816Y-38049000D01*
X92208228Y-38081703D01*
X92208228Y-38081703D01*
G37*
G36*
X104826823Y-38061313D02*
G01*
X104987242Y-38109976D01*
X105119906Y-38180886D01*
X105135078Y-38188996D01*
X105264659Y-38295341D01*
X105371004Y-38424922D01*
X105371005Y-38424924D01*
X105450024Y-38572758D01*
X105450025Y-38572761D01*
X105450512Y-38574366D01*
X105498687Y-38733177D01*
X105515117Y-38900000D01*
X105498687Y-39066823D01*
X105450024Y-39227242D01*
X105409477Y-39303100D01*
X105371004Y-39375078D01*
X105264659Y-39504659D01*
X105135078Y-39611004D01*
X105135076Y-39611005D01*
X104987242Y-39690024D01*
X104826823Y-39738687D01*
X104701804Y-39751000D01*
X104618196Y-39751000D01*
X104493177Y-39738687D01*
X104332758Y-39690024D01*
X104184924Y-39611005D01*
X104184922Y-39611004D01*
X104055341Y-39504659D01*
X103948996Y-39375078D01*
X103910523Y-39303100D01*
X103869976Y-39227242D01*
X103821313Y-39066823D01*
X103804883Y-38900000D01*
X103821313Y-38733177D01*
X103869488Y-38574366D01*
X103869975Y-38572761D01*
X103869976Y-38572758D01*
X103948995Y-38424924D01*
X103948996Y-38424922D01*
X104055341Y-38295341D01*
X104184922Y-38188996D01*
X104200094Y-38180886D01*
X104332758Y-38109976D01*
X104493177Y-38061313D01*
X104618196Y-38049000D01*
X104701804Y-38049000D01*
X104826823Y-38061313D01*
X104826823Y-38061313D01*
G37*
G36*
X70214903Y-37267075D02*
G01*
X70442571Y-37361378D01*
X70647466Y-37498285D01*
X70821715Y-37672534D01*
X70958622Y-37877429D01*
X70958623Y-37877431D01*
X71052925Y-38105097D01*
X71101000Y-38346786D01*
X71101000Y-38593214D01*
X71052925Y-38834903D01*
X70973922Y-39025635D01*
X70958622Y-39062571D01*
X70821715Y-39267466D01*
X70647466Y-39441715D01*
X70442571Y-39578622D01*
X70442570Y-39578623D01*
X70442569Y-39578623D01*
X70214903Y-39672925D01*
X69973214Y-39721000D01*
X69726786Y-39721000D01*
X69485097Y-39672925D01*
X69257431Y-39578623D01*
X69257430Y-39578623D01*
X69257429Y-39578622D01*
X69052534Y-39441715D01*
X68878285Y-39267466D01*
X68741378Y-39062571D01*
X68726079Y-39025635D01*
X68647075Y-38834903D01*
X68599000Y-38593214D01*
X68599000Y-38346786D01*
X68647075Y-38105097D01*
X68741377Y-37877431D01*
X68741378Y-37877429D01*
X68878285Y-37672534D01*
X69052534Y-37498285D01*
X69257429Y-37361378D01*
X69485097Y-37267075D01*
X69726786Y-37219000D01*
X69973214Y-37219000D01*
X70214903Y-37267075D01*
X70214903Y-37267075D01*
G37*
G36*
X109441000Y-39711000D02*
G01*
X107819000Y-39711000D01*
X107819000Y-38089000D01*
X109441000Y-38089000D01*
X109441000Y-39711000D01*
X109441000Y-39711000D01*
G37*
G36*
X114541000Y-39711000D02*
G01*
X112919000Y-39711000D01*
X112919000Y-38089000D01*
X114541000Y-38089000D01*
X114541000Y-39711000D01*
X114541000Y-39711000D01*
G37*
G36*
X126993651Y-35012888D02*
G01*
X127304870Y-35107296D01*
X127591680Y-35260599D01*
X127591683Y-35260601D01*
X127591684Y-35260602D01*
X127843082Y-35466918D01*
X128049398Y-35718316D01*
X128049401Y-35718320D01*
X128202704Y-36005130D01*
X128297112Y-36316349D01*
X128328988Y-36640000D01*
X128297112Y-36963651D01*
X128202704Y-37274870D01*
X128049401Y-37561680D01*
X128049399Y-37561683D01*
X128049398Y-37561684D01*
X127843082Y-37813082D01*
X127591684Y-38019398D01*
X127591680Y-38019401D01*
X127304870Y-38172704D01*
X126993651Y-38267112D01*
X126751107Y-38291000D01*
X126588893Y-38291000D01*
X126346349Y-38267112D01*
X126035130Y-38172704D01*
X125748320Y-38019401D01*
X125748316Y-38019398D01*
X125496918Y-37813082D01*
X125290602Y-37561684D01*
X125290601Y-37561683D01*
X125290599Y-37561680D01*
X125137296Y-37274870D01*
X125042888Y-36963651D01*
X125011012Y-36640000D01*
X125042888Y-36316349D01*
X125137296Y-36005130D01*
X125290599Y-35718320D01*
X125290602Y-35718316D01*
X125496918Y-35466918D01*
X125748316Y-35260602D01*
X125748317Y-35260601D01*
X125748320Y-35260599D01*
X126035130Y-35107296D01*
X126346349Y-35012888D01*
X126588893Y-34989000D01*
X126751107Y-34989000D01*
X126993651Y-35012888D01*
X126993651Y-35012888D01*
G37*
G36*
X121043651Y-35012888D02*
G01*
X121354870Y-35107296D01*
X121641680Y-35260599D01*
X121641683Y-35260601D01*
X121641684Y-35260602D01*
X121893082Y-35466918D01*
X122099398Y-35718316D01*
X122099401Y-35718320D01*
X122252704Y-36005130D01*
X122347112Y-36316349D01*
X122378988Y-36640000D01*
X122347112Y-36963651D01*
X122252704Y-37274870D01*
X122099401Y-37561680D01*
X122099399Y-37561683D01*
X122099398Y-37561684D01*
X121893082Y-37813082D01*
X121641684Y-38019398D01*
X121641680Y-38019401D01*
X121354870Y-38172704D01*
X121043651Y-38267112D01*
X120801107Y-38291000D01*
X120638893Y-38291000D01*
X120396349Y-38267112D01*
X120085130Y-38172704D01*
X119798320Y-38019401D01*
X119798316Y-38019398D01*
X119546918Y-37813082D01*
X119340602Y-37561684D01*
X119340601Y-37561683D01*
X119340599Y-37561680D01*
X119187296Y-37274870D01*
X119092888Y-36963651D01*
X119061012Y-36640000D01*
X119092888Y-36316349D01*
X119187296Y-36005130D01*
X119340599Y-35718320D01*
X119340602Y-35718316D01*
X119546918Y-35466918D01*
X119798316Y-35260602D01*
X119798317Y-35260601D01*
X119798320Y-35260599D01*
X120085130Y-35107296D01*
X120396349Y-35012888D01*
X120638893Y-34989000D01*
X120801107Y-34989000D01*
X121043651Y-35012888D01*
X121043651Y-35012888D01*
G37*
G36*
X45673651Y-33102888D02*
G01*
X45984870Y-33197296D01*
X46271680Y-33350599D01*
X46271683Y-33350601D01*
X46271684Y-33350602D01*
X46523082Y-33556918D01*
X46729398Y-33808316D01*
X46729401Y-33808320D01*
X46882704Y-34095130D01*
X46977112Y-34406349D01*
X47008988Y-34730000D01*
X46977112Y-35053651D01*
X46882704Y-35364870D01*
X46729401Y-35651680D01*
X46729399Y-35651683D01*
X46729398Y-35651684D01*
X46523082Y-35903082D01*
X46271684Y-36109398D01*
X46271680Y-36109401D01*
X45984870Y-36262704D01*
X45673651Y-36357112D01*
X45431107Y-36381000D01*
X45268893Y-36381000D01*
X45026349Y-36357112D01*
X44715130Y-36262704D01*
X44428320Y-36109401D01*
X44428316Y-36109398D01*
X44176918Y-35903082D01*
X43970602Y-35651684D01*
X43970601Y-35651683D01*
X43970599Y-35651680D01*
X43817296Y-35364870D01*
X43722888Y-35053651D01*
X43691012Y-34730000D01*
X43722888Y-34406349D01*
X43817296Y-34095130D01*
X43970599Y-33808320D01*
X43970602Y-33808316D01*
X44176918Y-33556918D01*
X44428316Y-33350602D01*
X44428317Y-33350601D01*
X44428320Y-33350599D01*
X44715130Y-33197296D01*
X45026349Y-33102888D01*
X45268893Y-33079000D01*
X45431107Y-33079000D01*
X45673651Y-33102888D01*
X45673651Y-33102888D01*
G37*
G36*
X62241000Y-36381000D02*
G01*
X58939000Y-36381000D01*
X58939000Y-33079000D01*
X62241000Y-33079000D01*
X62241000Y-36381000D01*
X62241000Y-36381000D01*
G37*
G36*
X112526553Y-31811972D02*
G01*
X112696323Y-31863471D01*
X112696326Y-31863472D01*
X112852780Y-31947098D01*
X112989922Y-32059648D01*
X113102472Y-32196790D01*
X113186098Y-32353243D01*
X113186098Y-32353244D01*
X113186099Y-32353246D01*
X113237598Y-32523016D01*
X113250630Y-32655333D01*
X113250630Y-34544667D01*
X113237598Y-34676984D01*
X113186099Y-34846754D01*
X113186098Y-34846757D01*
X113102472Y-35003210D01*
X113102470Y-35003213D01*
X113102469Y-35003214D01*
X112989922Y-35140352D01*
X112852780Y-35252902D01*
X112696327Y-35336528D01*
X112696324Y-35336529D01*
X112526554Y-35388028D01*
X112350000Y-35405417D01*
X112173447Y-35388028D01*
X112003677Y-35336529D01*
X112003674Y-35336528D01*
X111847221Y-35252902D01*
X111710079Y-35140352D01*
X111597532Y-35003214D01*
X111597531Y-35003213D01*
X111597529Y-35003210D01*
X111513903Y-34846757D01*
X111513902Y-34846754D01*
X111462403Y-34676984D01*
X111449371Y-34544667D01*
X111449370Y-32655334D01*
X111462402Y-32523017D01*
X111513901Y-32353247D01*
X111513902Y-32353244D01*
X111597528Y-32196790D01*
X111710078Y-32059648D01*
X111847220Y-31947098D01*
X112003673Y-31863472D01*
X112003676Y-31863471D01*
X112173446Y-31811972D01*
X112350000Y-31794583D01*
X112526553Y-31811972D01*
X112526553Y-31811972D01*
G37*
G36*
X109986553Y-31811972D02*
G01*
X110156323Y-31863471D01*
X110156326Y-31863472D01*
X110312780Y-31947098D01*
X110449922Y-32059648D01*
X110562472Y-32196790D01*
X110646098Y-32353243D01*
X110646098Y-32353244D01*
X110646099Y-32353246D01*
X110697598Y-32523016D01*
X110710630Y-32655333D01*
X110710630Y-34544667D01*
X110697598Y-34676984D01*
X110646099Y-34846754D01*
X110646098Y-34846757D01*
X110562472Y-35003210D01*
X110562470Y-35003213D01*
X110562469Y-35003214D01*
X110449922Y-35140352D01*
X110312780Y-35252902D01*
X110156327Y-35336528D01*
X110156324Y-35336529D01*
X109986554Y-35388028D01*
X109810000Y-35405417D01*
X109633447Y-35388028D01*
X109463677Y-35336529D01*
X109463674Y-35336528D01*
X109307221Y-35252902D01*
X109170079Y-35140352D01*
X109057532Y-35003214D01*
X109057531Y-35003213D01*
X109057529Y-35003210D01*
X108973903Y-34846757D01*
X108973902Y-34846754D01*
X108922403Y-34676984D01*
X108909371Y-34544667D01*
X108909370Y-32655334D01*
X108922402Y-32523017D01*
X108973901Y-32353247D01*
X108973902Y-32353244D01*
X109057528Y-32196790D01*
X109170078Y-32059648D01*
X109307220Y-31947098D01*
X109463673Y-31863472D01*
X109463676Y-31863471D01*
X109633446Y-31811972D01*
X109810000Y-31794583D01*
X109986553Y-31811972D01*
X109986553Y-31811972D01*
G37*
G36*
X107446553Y-31811972D02*
G01*
X107616323Y-31863471D01*
X107616326Y-31863472D01*
X107772780Y-31947098D01*
X107909922Y-32059648D01*
X108022472Y-32196790D01*
X108106098Y-32353243D01*
X108106098Y-32353244D01*
X108106099Y-32353246D01*
X108157598Y-32523016D01*
X108170630Y-32655333D01*
X108170630Y-34544667D01*
X108157598Y-34676984D01*
X108106099Y-34846754D01*
X108106098Y-34846757D01*
X108022472Y-35003210D01*
X108022470Y-35003213D01*
X108022469Y-35003214D01*
X107909922Y-35140352D01*
X107772780Y-35252902D01*
X107616327Y-35336528D01*
X107616324Y-35336529D01*
X107446554Y-35388028D01*
X107270000Y-35405417D01*
X107093447Y-35388028D01*
X106923677Y-35336529D01*
X106923674Y-35336528D01*
X106767221Y-35252902D01*
X106630079Y-35140352D01*
X106517532Y-35003214D01*
X106517531Y-35003213D01*
X106517529Y-35003210D01*
X106433903Y-34846757D01*
X106433902Y-34846754D01*
X106382403Y-34676984D01*
X106369371Y-34544667D01*
X106369370Y-32655334D01*
X106382402Y-32523017D01*
X106433901Y-32353247D01*
X106433902Y-32353244D01*
X106517528Y-32196790D01*
X106630078Y-32059648D01*
X106767220Y-31947098D01*
X106923673Y-31863472D01*
X106923676Y-31863471D01*
X107093446Y-31811972D01*
X107270000Y-31794583D01*
X107446553Y-31811972D01*
X107446553Y-31811972D01*
G37*
G36*
X71101000Y-34721000D02*
G01*
X68599000Y-34721000D01*
X68599000Y-32219000D01*
X71101000Y-32219000D01*
X71101000Y-34721000D01*
X71101000Y-34721000D01*
G37*
G36*
X130998433Y-29344893D02*
G01*
X131088657Y-29362839D01*
X131194267Y-29406585D01*
X131343621Y-29468449D01*
X131343622Y-29468450D01*
X131573086Y-29621772D01*
X131768228Y-29816914D01*
X131870675Y-29970237D01*
X131921551Y-30046379D01*
X132027161Y-30301344D01*
X132081000Y-30572012D01*
X132081000Y-30847988D01*
X132027161Y-31118656D01*
X131921551Y-31373621D01*
X131921550Y-31373622D01*
X131768228Y-31603086D01*
X131573086Y-31798228D01*
X131419763Y-31900675D01*
X131343621Y-31951551D01*
X131194267Y-32013415D01*
X131088657Y-32057161D01*
X130998433Y-32075107D01*
X130817988Y-32111000D01*
X130542012Y-32111000D01*
X130361567Y-32075107D01*
X130271343Y-32057161D01*
X130165733Y-32013415D01*
X130016379Y-31951551D01*
X129940237Y-31900675D01*
X129786914Y-31798228D01*
X129591772Y-31603086D01*
X129438450Y-31373622D01*
X129438449Y-31373621D01*
X129332839Y-31118656D01*
X129279000Y-30847988D01*
X129279000Y-30572012D01*
X129332839Y-30301344D01*
X129438449Y-30046379D01*
X129489325Y-29970237D01*
X129591772Y-29816914D01*
X129786914Y-29621772D01*
X130016378Y-29468450D01*
X130016379Y-29468449D01*
X130165733Y-29406585D01*
X130271343Y-29362839D01*
X130361567Y-29344893D01*
X130542012Y-29309000D01*
X130817988Y-29309000D01*
X130998433Y-29344893D01*
X130998433Y-29344893D01*
G37*
G36*
X40518433Y-29344893D02*
G01*
X40608657Y-29362839D01*
X40714267Y-29406585D01*
X40863621Y-29468449D01*
X40863622Y-29468450D01*
X41093086Y-29621772D01*
X41288228Y-29816914D01*
X41390675Y-29970237D01*
X41441551Y-30046379D01*
X41547161Y-30301344D01*
X41601000Y-30572012D01*
X41601000Y-30847988D01*
X41547161Y-31118656D01*
X41441551Y-31373621D01*
X41441550Y-31373622D01*
X41288228Y-31603086D01*
X41093086Y-31798228D01*
X40939763Y-31900675D01*
X40863621Y-31951551D01*
X40714267Y-32013415D01*
X40608657Y-32057161D01*
X40518433Y-32075107D01*
X40337988Y-32111000D01*
X40062012Y-32111000D01*
X39881567Y-32075107D01*
X39791343Y-32057161D01*
X39685733Y-32013415D01*
X39536379Y-31951551D01*
X39460237Y-31900675D01*
X39306914Y-31798228D01*
X39111772Y-31603086D01*
X38958450Y-31373622D01*
X38958449Y-31373621D01*
X38852839Y-31118656D01*
X38799000Y-30847988D01*
X38799000Y-30572012D01*
X38852839Y-30301344D01*
X38958449Y-30046379D01*
X39009325Y-29970237D01*
X39111772Y-29816914D01*
X39306914Y-29621772D01*
X39536378Y-29468450D01*
X39536379Y-29468449D01*
X39685733Y-29406585D01*
X39791343Y-29362839D01*
X39881567Y-29344893D01*
X40062012Y-29309000D01*
X40337988Y-29309000D01*
X40518433Y-29344893D01*
X40518433Y-29344893D01*
G37*
M02*
