M48
; DRILL file {KiCad 9.0.6} date 2025-12-02T20:42:13+0900
; FORMAT={-:-/ absolute / metric / decimal}
; #@! TF.CreationDate,2025-12-02T20:42:13+09:00
; #@! TF.GenerationSoftware,Kicad,Pcbnew,9.0.6
; #@! TF.FileFunction,Plated,1,2,PTH
FMAT,2
METRIC
; #@! TA.AperFunction,Plated,PTH,ComponentDrill
T1C0.800
; #@! TA.AperFunction,Plated,PTH,ComponentDrill
T2C0.900
; #@! TA.AperFunction,Plated,PTH,ComponentDrill
T3C1.000
; #@! TA.AperFunction,Plated,PTH,ComponentDrill
T4C1.100
; #@! TA.AperFunction,Plated,PTH,ComponentDrill
T5C1.200
; #@! TA.AperFunction,Plated,PTH,ComponentDrill
T6C1.500
; #@! TA.AperFunction,Plated,PTH,ComponentDrill
T7C1.600
; #@! TA.AperFunction,Plated,PTH,ComponentDrill
T8C3.048
; #@! TA.AperFunction,Plated,PTH,ComponentDrill
T9C3.200
%
G90
G05
T1
X47.0Y-45.35
X47.0Y-58.05
X47.0Y-61.55
X47.0Y-74.25
X55.65Y-60.8
X55.65Y-64.7
X57.2Y-68.25
X57.2Y-80.95
X62.64Y-68.28
X62.64Y-80.98
X67.08Y-68.3
X67.08Y-81.0
X68.35Y-60.8
X68.35Y-64.7
X71.46Y-68.27
X71.46Y-80.97
X72.4Y-49.2
X72.4Y-51.7
X78.46Y-53.02
X78.46Y-55.56
X78.46Y-58.1
X78.46Y-60.64
X78.5Y-68.28
X78.5Y-70.82
X78.5Y-73.36
X78.5Y-75.9
X78.5Y-81.0
X78.526Y-84.929
X78.57Y-46.84
X83.57Y-46.84
X86.08Y-53.02
X86.08Y-55.56
X86.08Y-58.1
X86.08Y-60.64
X86.12Y-68.28
X86.12Y-70.82
X86.12Y-73.36
X86.12Y-75.9
X91.2Y-81.0
X91.226Y-84.929
X91.81Y-64.62
X91.81Y-77.32
X91.82Y-47.9
X91.82Y-60.6
X91.95Y-43.15
X91.96Y-38.9
X96.34Y-64.63
X96.34Y-77.33
X96.36Y-47.9
X96.36Y-60.6
X101.19Y-47.91
X101.19Y-50.45
X101.19Y-52.99
X104.4Y-57.1
X104.4Y-59.6
X104.65Y-43.15
X104.66Y-38.9
X106.832Y-49.389
X108.63Y-38.9
X108.63Y-41.44
X108.63Y-43.98
X109.332Y-49.389
X113.73Y-38.9
X113.73Y-41.44
X113.73Y-43.98
T2
X57.2Y-86.735
X57.2Y-89.275
X93.99Y-81.8
X94.02Y-86.67
X96.53Y-81.8
X96.56Y-86.67
T3
X39.8Y-48.43
X39.8Y-53.51
X55.2Y-56.4
X55.4Y-44.3
X55.4Y-48.5
X131.15Y-75.56
X131.15Y-80.64
T4
X45.35Y-82.95
X45.35Y-89.45
X49.85Y-82.95
X49.85Y-89.45
X51.3Y-46.22
X51.3Y-56.38
X59.42Y-56.4
X61.96Y-56.4
X64.5Y-56.4
X78.435Y-39.04
X81.36Y-92.555
X83.9Y-92.555
X86.44Y-92.555
X88.595Y-39.04
X107.3Y-33.5
X109.84Y-33.5
X112.38Y-33.5
X119.178Y-32.5
X124.258Y-32.5
T5
X69.85Y-33.47
X69.85Y-38.47
X120.25Y-86.25
X120.25Y-91.25
T6
X120.27Y-62.9
X127.89Y-62.9
T7
X45.35Y-33.4
X45.35Y-39.3
X60.59Y-33.4
X60.59Y-39.3
X104.5Y-70.875
X104.5Y-86.115
X110.5Y-70.875
X110.5Y-86.115
X120.25Y-36.635
X120.25Y-51.875
X126.25Y-36.64
X126.25Y-51.88
T8
X39.94Y-40.95
X42.0Y-67.5
X120.25Y-78.0
X130.91Y-87.03
T9
X39.903Y-30.251
X40.056Y-95.199
X130.607Y-95.275
X130.658Y-30.48
M30
